<?xml version="1.0" encoding="utf-8" standalone="no"?>
<!DOCTYPE svg PUBLIC "-//W3C//DTD SVG 1.1//EN"
  "http://www.w3.org/Graphics/SVG/1.1/DTD/svg11.dtd">
<svg height="432pt" version="1.1" viewBox="0 0 720 432" width="720pt" xmlns="http://www.w3.org/2000/svg" xmlns:xlink="http://www.w3.org/1999/xlink">
 <metadata>
  <rdf:RDF xmlns:cc="http://creativecommons.org/ns#" xmlns:dc="http://purl.org/dc/elements/1.1/" xmlns:rdf="http://www.w3.org/1999/02/22-rdf-syntax-ns#">
   <cc:Work>
    <dc:type rdf:resource="http://purl.org/dc/dcmitype/StillImage"/>
    <dc:date>2022-05-09T14:04:26.578073</dc:date>
    <dc:format>image/svg+xml</dc:format>
    <dc:creator>
     <cc:Agent>
      <dc:title>Matplotlib v3.4.3, https://matplotlib.org/</dc:title>
     </cc:Agent>
    </dc:creator>
   </cc:Work>
  </rdf:RDF>
 </metadata>
 <defs>
  <style type="text/css">*{stroke-linecap:butt;stroke-linejoin:round;}</style>
 </defs>
 <g id="figure_1">
  <g id="patch_1">
   <path d="M 0 432 
L 720 432 
L 720 0 
L 0 0 
z
" style="fill:none;"/>
  </g>
  <g id="patch_2">
   <path d="M 57.401149 199.224944 
L 225.926094 199.224944 
L 225.926094 30.7 
L 57.401149 30.7 
z
" style="fill:none;opacity:0;"/>
  </g>
  <g id="pane3d_1">
   <g id="patch_3">
    <path d="M 70.125945 157.672094 
L 125.778385 111.023115 
L 125.004763 43.746948 
L 66.689066 86.303087 
" style="fill:#f2f2f2;opacity:0.5;stroke:#f2f2f2;stroke-linejoin:miter;"/>
   </g>
  </g>
  <g id="pane3d_2">
   <g id="patch_4">
    <path d="M 125.778385 111.023115 
L 215.080695 136.979771 
L 218.26758 67.386353 
L 125.004763 43.746948 
" style="fill:#e6e6e6;opacity:0.5;stroke:#e6e6e6;stroke-linejoin:miter;"/>
   </g>
  </g>
  <g id="pane3d_3">
   <g id="patch_5">
    <path d="M 70.125945 157.672094 
L 164.790755 188.589621 
L 215.080695 136.979771 
L 125.778385 111.023115 
" style="fill:#ececec;opacity:0.5;stroke:#ececec;stroke-linejoin:miter;"/>
   </g>
  </g>
  <g id="axis3d_1">
   <g id="line2d_1">
    <path d="M 70.125945 157.672094 
L 164.790755 188.589621 
" style="fill:none;stroke:#000000;stroke-linecap:square;stroke-width:0.8;"/>
   </g>
   <g id="Line3DCollection_1">
    <path d="M 82.547089 161.72884 
L 137.540924 114.442021 
L 137.266465 46.854932 
" style="fill:none;stroke:#b0b0b0;stroke-width:0.8;"/>
    <path d="M 116.210525 172.723317 
L 169.350906 123.687926 
L 170.46051 55.268654 
" style="fill:none;stroke:#b0b0b0;stroke-width:0.8;"/>
    <path d="M 151.186451 184.146455 
L 202.295479 133.263613 
L 204.891177 63.995825 
" style="fill:none;stroke:#b0b0b0;stroke-width:0.8;"/>
   </g>
   <g id="xtick_1">
    <g id="line2d_2">
     <path d="M 83.026121 161.316941 
L 81.586962 162.554411 
" style="fill:none;stroke:#000000;stroke-linecap:square;stroke-width:0.8;"/>
    </g>
    <g id="text_1">
     <!-- −2 -->
     <g transform="translate(67.641253 185.14517)scale(0.1 -0.1)">
      <defs>
       <path d="M 678 2272 
L 4684 2272 
L 4684 1741 
L 678 1741 
L 678 2272 
z
" id="DejaVuSans-2212" transform="scale(0.015625)"/>
       <path d="M 1228 531 
L 3431 531 
L 3431 0 
L 469 0 
L 469 531 
Q 828 903 1448 1529 
Q 2069 2156 2228 2338 
Q 2531 2678 2651 2914 
Q 2772 3150 2772 3378 
Q 2772 3750 2511 3984 
Q 2250 4219 1831 4219 
Q 1534 4219 1204 4116 
Q 875 4013 500 3803 
L 500 4441 
Q 881 4594 1212 4672 
Q 1544 4750 1819 4750 
Q 2544 4750 2975 4387 
Q 3406 4025 3406 3419 
Q 3406 3131 3298 2873 
Q 3191 2616 2906 2266 
Q 2828 2175 2409 1742 
Q 1991 1309 1228 531 
z
" id="DejaVuSans-32" transform="scale(0.015625)"/>
      </defs>
      <use xlink:href="#DejaVuSans-2212"/>
      <use x="83.789062" xlink:href="#DejaVuSans-32"/>
     </g>
    </g>
   </g>
   <g id="xtick_2">
    <g id="line2d_3">
     <path d="M 116.674133 172.295522 
L 115.281273 173.580787 
" style="fill:none;stroke:#000000;stroke-linecap:square;stroke-width:0.8;"/>
    </g>
    <g id="text_2">
     <!-- 0 -->
     <g transform="translate(105.552197 196.510103)scale(0.1 -0.1)">
      <defs>
       <path d="M 2034 4250 
Q 1547 4250 1301 3770 
Q 1056 3291 1056 2328 
Q 1056 1369 1301 889 
Q 1547 409 2034 409 
Q 2525 409 2770 889 
Q 3016 1369 3016 2328 
Q 3016 3291 2770 3770 
Q 2525 4250 2034 4250 
z
M 2034 4750 
Q 2819 4750 3233 4129 
Q 3647 3509 3647 2328 
Q 3647 1150 3233 529 
Q 2819 -91 2034 -91 
Q 1250 -91 836 529 
Q 422 1150 422 2328 
Q 422 3509 836 4129 
Q 1250 4750 2034 4750 
z
" id="DejaVuSans-30" transform="scale(0.015625)"/>
      </defs>
      <use xlink:href="#DejaVuSans-30"/>
     </g>
    </g>
   </g>
   <g id="xtick_3">
    <g id="line2d_4">
     <path d="M 151.633058 183.701824 
L 150.291237 185.037707 
" style="fill:none;stroke:#000000;stroke-linecap:square;stroke-width:0.8;"/>
    </g>
    <g id="text_3">
     <!-- 2 -->
     <g transform="translate(140.596104 208.320858)scale(0.1 -0.1)">
      <use xlink:href="#DejaVuSans-32"/>
     </g>
    </g>
   </g>
  </g>
  <g id="axis3d_2">
   <g id="line2d_5">
    <path d="M 215.080695 136.979771 
L 164.790755 188.589621 
" style="fill:none;stroke:#000000;stroke-linecap:square;stroke-width:0.8;"/>
   </g>
   <g id="Line3DCollection_2">
    <path d="M 79.763381 76.762048 
L 82.566442 147.244222 
L 176.071109 177.013203 
" style="fill:none;stroke:#b0b0b0;stroke-width:0.8;"/>
    <path d="M 97.144529 64.078077 
L 99.137788 133.353792 
L 191.062507 161.62834 
" style="fill:none;stroke:#b0b0b0;stroke-width:0.8;"/>
    <path d="M 113.648559 52.034188 
L 114.907638 120.135191 
L 205.292272 147.025101 
" style="fill:none;stroke:#b0b0b0;stroke-width:0.8;"/>
   </g>
   <g id="xtick_4">
    <g id="line2d_6">
     <path d="M 175.283677 176.762508 
L 177.647983 177.51523 
" style="fill:none;stroke:#000000;stroke-linecap:square;stroke-width:0.8;"/>
    </g>
    <g id="text_4">
     <!-- −4 -->
     <g transform="translate(181.41982 197.852271)scale(0.1 -0.1)">
      <defs>
       <path d="M 2419 4116 
L 825 1625 
L 2419 1625 
L 2419 4116 
z
M 2253 4666 
L 3047 4666 
L 3047 1625 
L 3713 1625 
L 3713 1100 
L 3047 1100 
L 3047 0 
L 2419 0 
L 2419 1100 
L 313 1100 
L 313 1709 
L 2253 4666 
z
" id="DejaVuSans-34" transform="scale(0.015625)"/>
      </defs>
      <use xlink:href="#DejaVuSans-2212"/>
      <use x="83.789062" xlink:href="#DejaVuSans-34"/>
     </g>
    </g>
   </g>
   <g id="xtick_5">
    <g id="line2d_7">
     <path d="M 190.289389 161.390542 
L 192.610665 162.104529 
" style="fill:none;stroke:#000000;stroke-linecap:square;stroke-width:0.8;"/>
    </g>
    <g id="text_5">
     <!-- −2 -->
     <g transform="translate(196.093007 182.108004)scale(0.1 -0.1)">
      <use xlink:href="#DejaVuSans-2212"/>
      <use x="83.789062" xlink:href="#DejaVuSans-32"/>
     </g>
    </g>
   </g>
   <g id="xtick_6">
    <g id="line2d_8">
     <path d="M 204.533048 146.799228 
L 206.812558 147.477394 
" style="fill:none;stroke:#000000;stroke-linecap:square;stroke-width:0.8;"/>
    </g>
    <g id="text_6">
     <!-- 0 -->
     <g transform="translate(214.20991 167.164327)scale(0.1 -0.1)">
      <use xlink:href="#DejaVuSans-30"/>
     </g>
    </g>
   </g>
  </g>
  <g id="axis3d_3">
   <g id="line2d_9">
    <path d="M 215.080695 136.979771 
L 218.26758 67.386353 
" style="fill:none;stroke:#000000;stroke-linecap:square;stroke-width:0.8;"/>
   </g>
   <g id="Line3DCollection_3">
    <path d="M 215.763074 122.078357 
L 125.612462 96.593959 
L 69.391012 142.410728 
" style="fill:none;stroke:#b0b0b0;stroke-width:0.8;"/>
    <path d="M 216.674779 102.16905 
L 125.39101 77.33598 
L 68.408262 122.003305 
" style="fill:none;stroke:#b0b0b0;stroke-width:0.8;"/>
    <path d="M 217.609928 81.747789 
L 125.164142 57.606945 
L 67.399257 101.050655 
" style="fill:none;stroke:#b0b0b0;stroke-width:0.8;"/>
   </g>
   <g id="xtick_7">
    <g id="line2d_10">
     <path d="M 215.006123 121.864376 
L 217.278795 122.506831 
" style="fill:none;stroke:#000000;stroke-linecap:square;stroke-width:0.8;"/>
    </g>
    <g id="text_7">
     <!-- −1 -->
     <g transform="translate(226.779642 127.122586)scale(0.1 -0.1)">
      <defs>
       <path d="M 794 531 
L 1825 531 
L 1825 4091 
L 703 3866 
L 703 4441 
L 1819 4666 
L 2450 4666 
L 2450 531 
L 3481 531 
L 3481 0 
L 794 0 
L 794 531 
z
" id="DejaVuSans-31" transform="scale(0.015625)"/>
      </defs>
      <use xlink:href="#DejaVuSans-2212"/>
      <use x="83.789062" xlink:href="#DejaVuSans-31"/>
     </g>
    </g>
   </g>
   <g id="xtick_8">
    <g id="line2d_11">
     <path d="M 215.907854 101.960413 
L 218.210495 102.58683 
" style="fill:none;stroke:#000000;stroke-linecap:square;stroke-width:0.8;"/>
    </g>
    <g id="text_8">
     <!-- 0 -->
     <g transform="translate(232.10907 107.277206)scale(0.1 -0.1)">
      <use xlink:href="#DejaVuSans-30"/>
     </g>
    </g>
   </g>
   <g id="xtick_9">
    <g id="line2d_12">
     <path d="M 216.832763 81.544844 
L 219.166172 82.154179 
" style="fill:none;stroke:#000000;stroke-linecap:square;stroke-width:0.8;"/>
    </g>
    <g id="text_9">
     <!-- 1 -->
     <g transform="translate(233.277814 86.924013)scale(0.1 -0.1)">
      <use xlink:href="#DejaVuSans-31"/>
     </g>
    </g>
   </g>
  </g>
  <g id="axes_1">
   <g id="line2d_13">
    <path clip-path="url(#pc275443f50)" d="M 119.260925 130.219378 
L 115.572926 139.239843 
L 112.460013 147.897795 
L 109.790831 151.728925 
L 107.559948 152.738032 
L 105.759071 152.130974 
L 104.366464 150.276746 
L 103.381385 148.240641 
L 102.769541 145.724845 
L 102.516192 143.173006 
L 102.575023 139.834525 
L 102.959465 137.188002 
L 103.624442 134.521538 
L 104.544574 131.845597 
L 105.6964 129.229721 
L 107.05586 126.702699 
L 108.59901 124.274263 
L 110.302708 121.958919 
L 112.144469 119.766392 
L 114.11101 118.146797 
L 116.167848 116.429613 
L 118.300095 114.866795 
L 120.48882 113.456552 
L 122.715784 112.163343 
L 124.959409 110.558383 
L 127.210943 109.076983 
L 129.456384 107.717624 
L 131.682966 106.473642 
L 133.879265 105.340698 
L 136.035277 104.332645 
L 138.142164 103.443193 
L 140.192244 102.583107 
L 142.179339 101.43266 
L 144.100008 100.518584 
L 145.950389 99.682698 
L 147.727022 99.430685 
L 149.428997 99.246722 
L 151.057523 98.899809 
L 152.615579 98.19657 
L 154.106299 97.179859 
L 155.531319 96.189506 
L 156.890545 95.72786 
L 158.191969 95.291049 
L 159.449002 94.054523 
L 160.660741 92.847021 
L 161.821869 92.700572 
L 162.948325 92.640082 
L 164.048718 92.507294 
L 165.127839 92.46584 
L 166.190183 92.661354 
L 167.248872 92.605438 
L 168.327354 91.194386 
L 169.414607 89.645065 
L 170.499034 88.980174 
L 171.600348 88.208848 
L 172.721602 87.37415 
L 173.864869 86.518397 
L 175.031443 85.668591 
L 176.221812 84.836217 
L 177.418848 84.82312 
L 178.636101 84.844723 
L 179.870357 84.916898 
L 181.118008 85.016668 
L 182.381374 84.823365 
L 183.638162 85.000452 
L 184.888432 85.202954 
L 186.123056 85.427526 
L 187.332289 85.647093 
L 188.506616 85.784219 
L 189.630389 85.941842 
L 190.68986 86.107403 
L 191.646661 87.059532 
L 192.506991 88.014693 
L 193.271332 88.40363 
L 193.905665 88.765677 
L 194.390941 89.110471 
L 194.707801 89.436921 
L 194.841295 89.589619 
L 194.766174 89.726034 
L 194.440412 90.529706 
L 193.864549 91.352145 
L 193.037704 91.579007 
L 191.922311 91.780942 
L 190.499102 91.974979 
L 188.749903 92.179982 
L 186.680824 91.562515 
L 184.221572 92.188735 
L 181.391404 92.96575 
L 178.184298 93.768426 
L 174.593396 94.615315 
L 170.616137 95.471281 
L 166.25531 96.1478 
L 161.508022 97.117944 
L 156.386644 98.173693 
L 150.903921 99.460245 
L 145.079539 100.917504 
L 138.944645 104.842147 
L 132.539021 108.877325 
L 125.934005 116.281759 
L 119.260925 130.219378 
" style="fill:none;stroke:#1f77b4;stroke-linecap:square;stroke-opacity:0.7;stroke-width:1.5;"/>
   </g>
   <g id="text_10">
    <!-- Depth = 3, $\beta = 1.038\cdot 10^{-5}$ -->
    <g transform="translate(60.243622 24.7)scale(0.12 -0.12)">
     <defs>
      <path d="M 1259 4147 
L 1259 519 
L 2022 519 
Q 2988 519 3436 956 
Q 3884 1394 3884 2338 
Q 3884 3275 3436 3711 
Q 2988 4147 2022 4147 
L 1259 4147 
z
M 628 4666 
L 1925 4666 
Q 3281 4666 3915 4102 
Q 4550 3538 4550 2338 
Q 4550 1131 3912 565 
Q 3275 0 1925 0 
L 628 0 
L 628 4666 
z
" id="DejaVuSans-44" transform="scale(0.015625)"/>
      <path d="M 3597 1894 
L 3597 1613 
L 953 1613 
Q 991 1019 1311 708 
Q 1631 397 2203 397 
Q 2534 397 2845 478 
Q 3156 559 3463 722 
L 3463 178 
Q 3153 47 2828 -22 
Q 2503 -91 2169 -91 
Q 1331 -91 842 396 
Q 353 884 353 1716 
Q 353 2575 817 3079 
Q 1281 3584 2069 3584 
Q 2775 3584 3186 3129 
Q 3597 2675 3597 1894 
z
M 3022 2063 
Q 3016 2534 2758 2815 
Q 2500 3097 2075 3097 
Q 1594 3097 1305 2825 
Q 1016 2553 972 2059 
L 3022 2063 
z
" id="DejaVuSans-65" transform="scale(0.015625)"/>
      <path d="M 1159 525 
L 1159 -1331 
L 581 -1331 
L 581 3500 
L 1159 3500 
L 1159 2969 
Q 1341 3281 1617 3432 
Q 1894 3584 2278 3584 
Q 2916 3584 3314 3078 
Q 3713 2572 3713 1747 
Q 3713 922 3314 415 
Q 2916 -91 2278 -91 
Q 1894 -91 1617 61 
Q 1341 213 1159 525 
z
M 3116 1747 
Q 3116 2381 2855 2742 
Q 2594 3103 2138 3103 
Q 1681 3103 1420 2742 
Q 1159 2381 1159 1747 
Q 1159 1113 1420 752 
Q 1681 391 2138 391 
Q 2594 391 2855 752 
Q 3116 1113 3116 1747 
z
" id="DejaVuSans-70" transform="scale(0.015625)"/>
      <path d="M 1172 4494 
L 1172 3500 
L 2356 3500 
L 2356 3053 
L 1172 3053 
L 1172 1153 
Q 1172 725 1289 603 
Q 1406 481 1766 481 
L 2356 481 
L 2356 0 
L 1766 0 
Q 1100 0 847 248 
Q 594 497 594 1153 
L 594 3053 
L 172 3053 
L 172 3500 
L 594 3500 
L 594 4494 
L 1172 4494 
z
" id="DejaVuSans-74" transform="scale(0.015625)"/>
      <path d="M 3513 2113 
L 3513 0 
L 2938 0 
L 2938 2094 
Q 2938 2591 2744 2837 
Q 2550 3084 2163 3084 
Q 1697 3084 1428 2787 
Q 1159 2491 1159 1978 
L 1159 0 
L 581 0 
L 581 4863 
L 1159 4863 
L 1159 2956 
Q 1366 3272 1645 3428 
Q 1925 3584 2291 3584 
Q 2894 3584 3203 3211 
Q 3513 2838 3513 2113 
z
" id="DejaVuSans-68" transform="scale(0.015625)"/>
      <path id="DejaVuSans-20" transform="scale(0.015625)"/>
      <path d="M 678 2906 
L 4684 2906 
L 4684 2381 
L 678 2381 
L 678 2906 
z
M 678 1631 
L 4684 1631 
L 4684 1100 
L 678 1100 
L 678 1631 
z
" id="DejaVuSans-3d" transform="scale(0.015625)"/>
      <path d="M 2597 2516 
Q 3050 2419 3304 2112 
Q 3559 1806 3559 1356 
Q 3559 666 3084 287 
Q 2609 -91 1734 -91 
Q 1441 -91 1130 -33 
Q 819 25 488 141 
L 488 750 
Q 750 597 1062 519 
Q 1375 441 1716 441 
Q 2309 441 2620 675 
Q 2931 909 2931 1356 
Q 2931 1769 2642 2001 
Q 2353 2234 1838 2234 
L 1294 2234 
L 1294 2753 
L 1863 2753 
Q 2328 2753 2575 2939 
Q 2822 3125 2822 3475 
Q 2822 3834 2567 4026 
Q 2313 4219 1838 4219 
Q 1578 4219 1281 4162 
Q 984 4106 628 3988 
L 628 4550 
Q 988 4650 1302 4700 
Q 1616 4750 1894 4750 
Q 2613 4750 3031 4423 
Q 3450 4097 3450 3541 
Q 3450 3153 3228 2886 
Q 3006 2619 2597 2516 
z
" id="DejaVuSans-33" transform="scale(0.015625)"/>
      <path d="M 750 794 
L 1409 794 
L 1409 256 
L 897 -744 
L 494 -744 
L 750 256 
L 750 794 
z
" id="DejaVuSans-2c" transform="scale(0.015625)"/>
      <path d="M 872 216 
L 572 -1331 
L -6 -1331 
L 928 3478 
Q 1206 4903 2538 4903 
Q 3888 4903 3659 3700 
Q 3503 2844 2894 2531 
Q 3713 2250 3553 1416 
Q 3272 -69 1759 -66 
Q 1097 -63 872 216 
z
M 1019 966 
Q 1259 422 1875 425 
Q 2775 425 2966 1406 
Q 3138 2288 1675 2219 
L 1778 2750 
Q 2909 2731 3106 3750 
Q 3241 4438 2509 4434 
Q 1691 4434 1503 3459 
L 1019 966 
z
" id="DejaVuSans-Oblique-3b2" transform="scale(0.015625)"/>
      <path d="M 684 794 
L 1344 794 
L 1344 0 
L 684 0 
L 684 794 
z
" id="DejaVuSans-2e" transform="scale(0.015625)"/>
      <path d="M 2034 2216 
Q 1584 2216 1326 1975 
Q 1069 1734 1069 1313 
Q 1069 891 1326 650 
Q 1584 409 2034 409 
Q 2484 409 2743 651 
Q 3003 894 3003 1313 
Q 3003 1734 2745 1975 
Q 2488 2216 2034 2216 
z
M 1403 2484 
Q 997 2584 770 2862 
Q 544 3141 544 3541 
Q 544 4100 942 4425 
Q 1341 4750 2034 4750 
Q 2731 4750 3128 4425 
Q 3525 4100 3525 3541 
Q 3525 3141 3298 2862 
Q 3072 2584 2669 2484 
Q 3125 2378 3379 2068 
Q 3634 1759 3634 1313 
Q 3634 634 3220 271 
Q 2806 -91 2034 -91 
Q 1263 -91 848 271 
Q 434 634 434 1313 
Q 434 1759 690 2068 
Q 947 2378 1403 2484 
z
M 1172 3481 
Q 1172 3119 1398 2916 
Q 1625 2713 2034 2713 
Q 2441 2713 2670 2916 
Q 2900 3119 2900 3481 
Q 2900 3844 2670 4047 
Q 2441 4250 2034 4250 
Q 1625 4250 1398 4047 
Q 1172 3844 1172 3481 
z
" id="DejaVuSans-38" transform="scale(0.015625)"/>
      <path d="M 684 2619 
L 1344 2619 
L 1344 1825 
L 684 1825 
L 684 2619 
z
" id="DejaVuSans-22c5" transform="scale(0.015625)"/>
      <path d="M 691 4666 
L 3169 4666 
L 3169 4134 
L 1269 4134 
L 1269 2991 
Q 1406 3038 1543 3061 
Q 1681 3084 1819 3084 
Q 2600 3084 3056 2656 
Q 3513 2228 3513 1497 
Q 3513 744 3044 326 
Q 2575 -91 1722 -91 
Q 1428 -91 1123 -41 
Q 819 9 494 109 
L 494 744 
Q 775 591 1075 516 
Q 1375 441 1709 441 
Q 2250 441 2565 725 
Q 2881 1009 2881 1497 
Q 2881 1984 2565 2268 
Q 2250 2553 1709 2553 
Q 1456 2553 1204 2497 
Q 953 2441 691 2322 
L 691 4666 
z
" id="DejaVuSans-35" transform="scale(0.015625)"/>
     </defs>
     <use transform="translate(0 0.684375)" xlink:href="#DejaVuSans-44"/>
     <use transform="translate(77.001953 0.684375)" xlink:href="#DejaVuSans-65"/>
     <use transform="translate(138.525391 0.684375)" xlink:href="#DejaVuSans-70"/>
     <use transform="translate(202.001953 0.684375)" xlink:href="#DejaVuSans-74"/>
     <use transform="translate(241.210938 0.684375)" xlink:href="#DejaVuSans-68"/>
     <use transform="translate(304.589844 0.684375)" xlink:href="#DejaVuSans-20"/>
     <use transform="translate(336.376953 0.684375)" xlink:href="#DejaVuSans-3d"/>
     <use transform="translate(420.166016 0.684375)" xlink:href="#DejaVuSans-20"/>
     <use transform="translate(451.953125 0.684375)" xlink:href="#DejaVuSans-33"/>
     <use transform="translate(515.576172 0.684375)" xlink:href="#DejaVuSans-2c"/>
     <use transform="translate(547.363281 0.684375)" xlink:href="#DejaVuSans-20"/>
     <use transform="translate(579.150391 0.684375)" xlink:href="#DejaVuSans-Oblique-3b2"/>
     <use transform="translate(662.451172 0.684375)" xlink:href="#DejaVuSans-3d"/>
     <use transform="translate(765.722656 0.684375)" xlink:href="#DejaVuSans-31"/>
     <use transform="translate(829.345703 0.684375)" xlink:href="#DejaVuSans-2e"/>
     <use transform="translate(861.132812 0.684375)" xlink:href="#DejaVuSans-30"/>
     <use transform="translate(924.755859 0.684375)" xlink:href="#DejaVuSans-33"/>
     <use transform="translate(988.378906 0.684375)" xlink:href="#DejaVuSans-38"/>
     <use transform="translate(1071.484375 0.684375)" xlink:href="#DejaVuSans-22c5"/>
     <use transform="translate(1122.753906 0.684375)" xlink:href="#DejaVuSans-31"/>
     <use transform="translate(1186.376953 0.684375)" xlink:href="#DejaVuSans-30"/>
     <use transform="translate(1250.957031 38.965625)scale(0.7)" xlink:href="#DejaVuSans-2212"/>
     <use transform="translate(1309.609375 38.965625)scale(0.7)" xlink:href="#DejaVuSans-35"/>
    </g>
   </g>
  </g>
  <g id="patch_6">
   <path d="M 283.275366 199.224944 
L 451.800311 199.224944 
L 451.800311 30.7 
L 283.275366 30.7 
z
" style="fill:none;opacity:0;"/>
  </g>
  <g id="pane3d_4">
   <g id="patch_7">
    <path d="M 296.000162 157.672094 
L 351.652602 111.023115 
L 350.87898 43.746948 
L 292.563283 86.303087 
" style="fill:#f2f2f2;opacity:0.5;stroke:#f2f2f2;stroke-linejoin:miter;"/>
   </g>
  </g>
  <g id="pane3d_5">
   <g id="patch_8">
    <path d="M 351.652602 111.023115 
L 440.954912 136.979771 
L 444.141797 67.386353 
L 350.87898 43.746948 
" style="fill:#e6e6e6;opacity:0.5;stroke:#e6e6e6;stroke-linejoin:miter;"/>
   </g>
  </g>
  <g id="pane3d_6">
   <g id="patch_9">
    <path d="M 296.000162 157.672094 
L 390.664972 188.589621 
L 440.954912 136.979771 
L 351.652602 111.023115 
" style="fill:#ececec;opacity:0.5;stroke:#ececec;stroke-linejoin:miter;"/>
   </g>
  </g>
  <g id="axis3d_4">
   <g id="line2d_14">
    <path d="M 296.000162 157.672094 
L 390.664972 188.589621 
" style="fill:none;stroke:#000000;stroke-linecap:square;stroke-width:0.8;"/>
   </g>
   <g id="Line3DCollection_4">
    <path d="M 308.421306 161.72884 
L 363.415141 114.442021 
L 363.140682 46.854932 
" style="fill:none;stroke:#b0b0b0;stroke-width:0.8;"/>
    <path d="M 342.084741 172.723317 
L 395.225123 123.687926 
L 396.334726 55.268654 
" style="fill:none;stroke:#b0b0b0;stroke-width:0.8;"/>
    <path d="M 377.060668 184.146455 
L 428.169696 133.263613 
L 430.765394 63.995825 
" style="fill:none;stroke:#b0b0b0;stroke-width:0.8;"/>
   </g>
   <g id="xtick_10">
    <g id="line2d_15">
     <path d="M 308.900337 161.316941 
L 307.461179 162.554411 
" style="fill:none;stroke:#000000;stroke-linecap:square;stroke-width:0.8;"/>
    </g>
    <g id="text_11">
     <!-- −2 -->
     <g transform="translate(293.51547 185.14517)scale(0.1 -0.1)">
      <use xlink:href="#DejaVuSans-2212"/>
      <use x="83.789062" xlink:href="#DejaVuSans-32"/>
     </g>
    </g>
   </g>
   <g id="xtick_11">
    <g id="line2d_16">
     <path d="M 342.54835 172.295522 
L 341.155489 173.580787 
" style="fill:none;stroke:#000000;stroke-linecap:square;stroke-width:0.8;"/>
    </g>
    <g id="text_12">
     <!-- 0 -->
     <g transform="translate(331.426414 196.510103)scale(0.1 -0.1)">
      <use xlink:href="#DejaVuSans-30"/>
     </g>
    </g>
   </g>
   <g id="xtick_12">
    <g id="line2d_17">
     <path d="M 377.507275 183.701824 
L 376.165454 185.037707 
" style="fill:none;stroke:#000000;stroke-linecap:square;stroke-width:0.8;"/>
    </g>
    <g id="text_13">
     <!-- 2 -->
     <g transform="translate(366.470321 208.320858)scale(0.1 -0.1)">
      <use xlink:href="#DejaVuSans-32"/>
     </g>
    </g>
   </g>
  </g>
  <g id="axis3d_5">
   <g id="line2d_18">
    <path d="M 440.954912 136.979771 
L 390.664972 188.589621 
" style="fill:none;stroke:#000000;stroke-linecap:square;stroke-width:0.8;"/>
   </g>
   <g id="Line3DCollection_5">
    <path d="M 305.637597 76.762048 
L 308.440659 147.244222 
L 401.945326 177.013203 
" style="fill:none;stroke:#b0b0b0;stroke-width:0.8;"/>
    <path d="M 323.018746 64.078077 
L 325.012005 133.353792 
L 416.936724 161.62834 
" style="fill:none;stroke:#b0b0b0;stroke-width:0.8;"/>
    <path d="M 339.522776 52.034188 
L 340.781855 120.135191 
L 431.166489 147.025101 
" style="fill:none;stroke:#b0b0b0;stroke-width:0.8;"/>
   </g>
   <g id="xtick_13">
    <g id="line2d_19">
     <path d="M 401.157893 176.762508 
L 403.5222 177.51523 
" style="fill:none;stroke:#000000;stroke-linecap:square;stroke-width:0.8;"/>
    </g>
    <g id="text_14">
     <!-- −4 -->
     <g transform="translate(407.294037 197.852271)scale(0.1 -0.1)">
      <use xlink:href="#DejaVuSans-2212"/>
      <use x="83.789062" xlink:href="#DejaVuSans-34"/>
     </g>
    </g>
   </g>
   <g id="xtick_14">
    <g id="line2d_20">
     <path d="M 416.163606 161.390542 
L 418.484882 162.104529 
" style="fill:none;stroke:#000000;stroke-linecap:square;stroke-width:0.8;"/>
    </g>
    <g id="text_15">
     <!-- −2 -->
     <g transform="translate(421.967223 182.108004)scale(0.1 -0.1)">
      <use xlink:href="#DejaVuSans-2212"/>
      <use x="83.789062" xlink:href="#DejaVuSans-32"/>
     </g>
    </g>
   </g>
   <g id="xtick_15">
    <g id="line2d_21">
     <path d="M 430.407265 146.799228 
L 432.686775 147.477394 
" style="fill:none;stroke:#000000;stroke-linecap:square;stroke-width:0.8;"/>
    </g>
    <g id="text_16">
     <!-- 0 -->
     <g transform="translate(440.084127 167.164327)scale(0.1 -0.1)">
      <use xlink:href="#DejaVuSans-30"/>
     </g>
    </g>
   </g>
  </g>
  <g id="axis3d_6">
   <g id="line2d_22">
    <path d="M 440.954912 136.979771 
L 444.141797 67.386353 
" style="fill:none;stroke:#000000;stroke-linecap:square;stroke-width:0.8;"/>
   </g>
   <g id="Line3DCollection_6">
    <path d="M 441.561765 123.72765 
L 351.505035 98.19034 
L 295.346597 144.100403 
" style="fill:none;stroke:#b0b0b0;stroke-width:0.8;"/>
    <path d="M 442.536834 102.434636 
L 351.268179 77.592724 
L 294.295595 122.275665 
" style="fill:none;stroke:#b0b0b0;stroke-width:0.8;"/>
    <path d="M 443.538771 80.554884 
L 351.025115 56.455232 
L 293.214502 99.826068 
" style="fill:none;stroke:#b0b0b0;stroke-width:0.8;"/>
   </g>
   <g id="xtick_16">
    <g id="line2d_23">
     <path d="M 440.80564 123.513236 
L 443.07583 124.156992 
" style="fill:none;stroke:#000000;stroke-linecap:square;stroke-width:0.8;"/>
    </g>
    <g id="text_17">
     <!-- −1 -->
     <g transform="translate(452.559449 128.766691)scale(0.1 -0.1)">
      <use xlink:href="#DejaVuSans-2212"/>
      <use x="83.789062" xlink:href="#DejaVuSans-31"/>
     </g>
    </g>
   </g>
   <g id="xtick_17">
    <g id="line2d_24">
     <path d="M 441.770042 102.225927 
L 444.072283 102.852561 
" style="fill:none;stroke:#000000;stroke-linecap:square;stroke-width:0.8;"/>
    </g>
    <g id="text_18">
     <!-- 0 -->
     <g transform="translate(457.968086 107.541923)scale(0.1 -0.1)">
      <use xlink:href="#DejaVuSans-30"/>
     </g>
    </g>
   </g>
   <g id="xtick_18">
    <g id="line2d_25">
     <path d="M 442.761008 80.352278 
L 445.096216 80.960596 
" style="fill:none;stroke:#000000;stroke-linecap:square;stroke-width:0.8;"/>
    </g>
    <g id="text_19">
     <!-- 1 -->
     <g transform="translate(459.220298 85.735163)scale(0.1 -0.1)">
      <use xlink:href="#DejaVuSans-31"/>
     </g>
    </g>
   </g>
  </g>
  <g id="axes_2">
   <g id="line2d_26">
    <path clip-path="url(#p62ccf1b98a)" d="M 345.149285 131.11354 
L 341.505443 142.427885 
L 338.492408 155.648605 
L 335.794296 157.552701 
L 333.511722 156.016213 
L 331.667313 153.501869 
L 330.201416 148.748558 
L 329.24435 147.812781 
L 328.633136 145.326328 
L 328.394959 143.342976 
L 328.411916 138.435403 
L 328.800885 135.94489 
L 329.437701 132.168936 
L 330.25715 125.450613 
L 331.365108 120.84022 
L 332.71908 117.757236 
L 334.285853 115.970587 
L 336.03847 115.50287 
L 337.955909 116.665257 
L 339.947713 116.16944 
L 341.965089 112.066968 
L 344.091528 109.779742 
L 346.297002 109.016083 
L 348.560008 109.933019 
L 350.776543 105.80703 
L 353.022222 103.12778 
L 355.273101 101.434539 
L 357.511083 100.516487 
L 359.721573 100.313744 
L 361.89238 100.898944 
L 364.013027 102.52513 
L 366.066588 102.637179 
L 368.053024 100.952871 
L 369.974347 99.295857 
L 371.826057 98.533996 
L 373.603103 98.647125 
L 375.301927 99.62 
L 376.928078 99.718893 
L 378.486403 98.819504 
L 379.98258 96.856384 
L 381.410201 95.547906 
L 382.765349 95.65558 
L 384.057128 96.305004 
L 385.325487 93.82106 
L 386.548512 91.551912 
L 387.700352 92.319344 
L 388.817996 93.02222 
L 389.915257 93.117483 
L 390.98938 93.421952 
L 392.045231 94.03793 
L 393.09261 94.694919 
L 394.195845 91.569839 
L 395.307549 88.468321 
L 396.374055 88.931707 
L 397.462101 88.930875 
L 398.574178 88.579531 
L 399.713939 87.866305 
L 400.886252 86.670378 
L 402.098652 84.705737 
L 403.264207 86.207203 
L 404.466441 86.875258 
L 405.700123 86.903251 
L 406.963137 86.272832 
L 408.242851 85.355511 
L 409.473315 86.580329 
L 410.71898 86.914921 
L 411.972324 86.376849 
L 413.177718 86.711818 
L 414.329388 87.63663 
L 415.458472 87.562023 
L 416.55854 86.297435 
L 417.4659 88.907396 
L 418.311495 90.314914 
L 419.039233 91.856438 
L 419.661084 92.573993 
L 420.159804 92.454611 
L 420.524282 91.257759 
L 420.656869 91.434046 
L 420.636267 89.855921 
L 420.286408 91.423824 
L 419.660761 93.850782 
L 418.764685 96.373953 
L 417.626281 97.453477 
L 416.223533 97.117719 
L 414.544416 95.022959 
L 412.552496 91.657718 
L 410.057216 93.719289 
L 407.159212 97.504845 
L 403.954255 98.629912 
L 400.42032 97.077567 
L 396.456832 97.475697 
L 392.103983 97.972864 
L 387.34115 100.844809 
L 382.244338 100.287639 
L 376.769004 101.5472 
L 370.955324 98.728958 
L 364.812831 102.92804 
L 358.365071 102.195937 
L 351.700484 106.863104 
L 345.149285 131.11354 
" style="fill:none;stroke:#1f77b4;stroke-linecap:square;stroke-opacity:0.7;stroke-width:1.5;"/>
   </g>
   <g id="text_20">
    <!-- Depth = 25, $\beta = 2.316\cdot 10^{-7}$ -->
    <g transform="translate(282.277838 24.7)scale(0.12 -0.12)">
     <defs>
      <path d="M 2113 2584 
Q 1688 2584 1439 2293 
Q 1191 2003 1191 1497 
Q 1191 994 1439 701 
Q 1688 409 2113 409 
Q 2538 409 2786 701 
Q 3034 994 3034 1497 
Q 3034 2003 2786 2293 
Q 2538 2584 2113 2584 
z
M 3366 4563 
L 3366 3988 
Q 3128 4100 2886 4159 
Q 2644 4219 2406 4219 
Q 1781 4219 1451 3797 
Q 1122 3375 1075 2522 
Q 1259 2794 1537 2939 
Q 1816 3084 2150 3084 
Q 2853 3084 3261 2657 
Q 3669 2231 3669 1497 
Q 3669 778 3244 343 
Q 2819 -91 2113 -91 
Q 1303 -91 875 529 
Q 447 1150 447 2328 
Q 447 3434 972 4092 
Q 1497 4750 2381 4750 
Q 2619 4750 2861 4703 
Q 3103 4656 3366 4563 
z
" id="DejaVuSans-36" transform="scale(0.015625)"/>
      <path d="M 525 4666 
L 3525 4666 
L 3525 4397 
L 1831 0 
L 1172 0 
L 2766 4134 
L 525 4134 
L 525 4666 
z
" id="DejaVuSans-37" transform="scale(0.015625)"/>
     </defs>
     <use transform="translate(0 0.684375)" xlink:href="#DejaVuSans-44"/>
     <use transform="translate(77.001953 0.684375)" xlink:href="#DejaVuSans-65"/>
     <use transform="translate(138.525391 0.684375)" xlink:href="#DejaVuSans-70"/>
     <use transform="translate(202.001953 0.684375)" xlink:href="#DejaVuSans-74"/>
     <use transform="translate(241.210938 0.684375)" xlink:href="#DejaVuSans-68"/>
     <use transform="translate(304.589844 0.684375)" xlink:href="#DejaVuSans-20"/>
     <use transform="translate(336.376953 0.684375)" xlink:href="#DejaVuSans-3d"/>
     <use transform="translate(420.166016 0.684375)" xlink:href="#DejaVuSans-20"/>
     <use transform="translate(451.953125 0.684375)" xlink:href="#DejaVuSans-32"/>
     <use transform="translate(515.576172 0.684375)" xlink:href="#DejaVuSans-35"/>
     <use transform="translate(579.199219 0.684375)" xlink:href="#DejaVuSans-2c"/>
     <use transform="translate(610.986328 0.684375)" xlink:href="#DejaVuSans-20"/>
     <use transform="translate(642.773438 0.684375)" xlink:href="#DejaVuSans-Oblique-3b2"/>
     <use transform="translate(726.074219 0.684375)" xlink:href="#DejaVuSans-3d"/>
     <use transform="translate(829.345703 0.684375)" xlink:href="#DejaVuSans-32"/>
     <use transform="translate(892.96875 0.684375)" xlink:href="#DejaVuSans-2e"/>
     <use transform="translate(924.755859 0.684375)" xlink:href="#DejaVuSans-33"/>
     <use transform="translate(988.378906 0.684375)" xlink:href="#DejaVuSans-31"/>
     <use transform="translate(1052.001953 0.684375)" xlink:href="#DejaVuSans-36"/>
     <use transform="translate(1135.107422 0.684375)" xlink:href="#DejaVuSans-22c5"/>
     <use transform="translate(1186.376953 0.684375)" xlink:href="#DejaVuSans-31"/>
     <use transform="translate(1250 0.684375)" xlink:href="#DejaVuSans-30"/>
     <use transform="translate(1314.580078 38.965625)scale(0.7)" xlink:href="#DejaVuSans-2212"/>
     <use transform="translate(1373.232422 38.965625)scale(0.7)" xlink:href="#DejaVuSans-37"/>
    </g>
   </g>
  </g>
  <g id="patch_10">
   <path d="M 509.149583 199.224944 
L 677.674527 199.224944 
L 677.674527 30.7 
L 509.149583 30.7 
z
" style="fill:none;opacity:0;"/>
  </g>
  <g id="pane3d_7">
   <g id="patch_11">
    <path d="M 521.874379 157.672094 
L 577.526819 111.023115 
L 576.753197 43.746948 
L 518.4375 86.303087 
" style="fill:#f2f2f2;opacity:0.5;stroke:#f2f2f2;stroke-linejoin:miter;"/>
   </g>
  </g>
  <g id="pane3d_8">
   <g id="patch_12">
    <path d="M 577.526819 111.023115 
L 666.829129 136.979771 
L 670.016014 67.386353 
L 576.753197 43.746948 
" style="fill:#e6e6e6;opacity:0.5;stroke:#e6e6e6;stroke-linejoin:miter;"/>
   </g>
  </g>
  <g id="pane3d_9">
   <g id="patch_13">
    <path d="M 521.874379 157.672094 
L 616.539189 188.589621 
L 666.829129 136.979771 
L 577.526819 111.023115 
" style="fill:#ececec;opacity:0.5;stroke:#ececec;stroke-linejoin:miter;"/>
   </g>
  </g>
  <g id="axis3d_7">
   <g id="line2d_27">
    <path d="M 521.874379 157.672094 
L 616.539189 188.589621 
" style="fill:none;stroke:#000000;stroke-linecap:square;stroke-width:0.8;"/>
   </g>
   <g id="Line3DCollection_7">
    <path d="M 534.295523 161.72884 
L 589.289358 114.442021 
L 589.014898 46.854932 
" style="fill:none;stroke:#b0b0b0;stroke-width:0.8;"/>
    <path d="M 567.958958 172.723317 
L 621.09934 123.687926 
L 622.208943 55.268654 
" style="fill:none;stroke:#b0b0b0;stroke-width:0.8;"/>
    <path d="M 602.934885 184.146455 
L 654.043913 133.263613 
L 656.639611 63.995825 
" style="fill:none;stroke:#b0b0b0;stroke-width:0.8;"/>
   </g>
   <g id="xtick_19">
    <g id="line2d_28">
     <path d="M 534.774554 161.316941 
L 533.335396 162.554411 
" style="fill:none;stroke:#000000;stroke-linecap:square;stroke-width:0.8;"/>
    </g>
    <g id="text_21">
     <!-- −2 -->
     <g transform="translate(519.389687 185.14517)scale(0.1 -0.1)">
      <use xlink:href="#DejaVuSans-2212"/>
      <use x="83.789062" xlink:href="#DejaVuSans-32"/>
     </g>
    </g>
   </g>
   <g id="xtick_20">
    <g id="line2d_29">
     <path d="M 568.422567 172.295522 
L 567.029706 173.580787 
" style="fill:none;stroke:#000000;stroke-linecap:square;stroke-width:0.8;"/>
    </g>
    <g id="text_22">
     <!-- 0 -->
     <g transform="translate(557.300631 196.510103)scale(0.1 -0.1)">
      <use xlink:href="#DejaVuSans-30"/>
     </g>
    </g>
   </g>
   <g id="xtick_21">
    <g id="line2d_30">
     <path d="M 603.381492 183.701824 
L 602.039671 185.037707 
" style="fill:none;stroke:#000000;stroke-linecap:square;stroke-width:0.8;"/>
    </g>
    <g id="text_23">
     <!-- 2 -->
     <g transform="translate(592.344538 208.320858)scale(0.1 -0.1)">
      <use xlink:href="#DejaVuSans-32"/>
     </g>
    </g>
   </g>
  </g>
  <g id="axis3d_8">
   <g id="line2d_31">
    <path d="M 666.829129 136.979771 
L 616.539189 188.589621 
" style="fill:none;stroke:#000000;stroke-linecap:square;stroke-width:0.8;"/>
   </g>
   <g id="Line3DCollection_8">
    <path d="M 531.511814 76.762048 
L 534.314876 147.244222 
L 627.819543 177.013203 
" style="fill:none;stroke:#b0b0b0;stroke-width:0.8;"/>
    <path d="M 548.892963 64.078077 
L 550.886222 133.353792 
L 642.810941 161.62834 
" style="fill:none;stroke:#b0b0b0;stroke-width:0.8;"/>
    <path d="M 565.396993 52.034188 
L 566.656072 120.135191 
L 657.040706 147.025101 
" style="fill:none;stroke:#b0b0b0;stroke-width:0.8;"/>
   </g>
   <g id="xtick_22">
    <g id="line2d_32">
     <path d="M 627.03211 176.762508 
L 629.396417 177.51523 
" style="fill:none;stroke:#000000;stroke-linecap:square;stroke-width:0.8;"/>
    </g>
    <g id="text_24">
     <!-- −4 -->
     <g transform="translate(633.168254 197.852271)scale(0.1 -0.1)">
      <use xlink:href="#DejaVuSans-2212"/>
      <use x="83.789062" xlink:href="#DejaVuSans-34"/>
     </g>
    </g>
   </g>
   <g id="xtick_23">
    <g id="line2d_33">
     <path d="M 642.037822 161.390542 
L 644.359098 162.104529 
" style="fill:none;stroke:#000000;stroke-linecap:square;stroke-width:0.8;"/>
    </g>
    <g id="text_25">
     <!-- −2 -->
     <g transform="translate(647.84144 182.108004)scale(0.1 -0.1)">
      <use xlink:href="#DejaVuSans-2212"/>
      <use x="83.789062" xlink:href="#DejaVuSans-32"/>
     </g>
    </g>
   </g>
   <g id="xtick_24">
    <g id="line2d_34">
     <path d="M 656.281482 146.799228 
L 658.560992 147.477394 
" style="fill:none;stroke:#000000;stroke-linecap:square;stroke-width:0.8;"/>
    </g>
    <g id="text_26">
     <!-- 0 -->
     <g transform="translate(665.958344 167.164327)scale(0.1 -0.1)">
      <use xlink:href="#DejaVuSans-30"/>
     </g>
    </g>
   </g>
  </g>
  <g id="axis3d_9">
   <g id="line2d_35">
    <path d="M 666.829129 136.979771 
L 670.016014 67.386353 
" style="fill:none;stroke:#000000;stroke-linecap:square;stroke-width:0.8;"/>
   </g>
   <g id="Line3DCollection_9">
    <path d="M 667.283266 127.062583 
L 577.416377 101.418771 
L 521.385325 147.516577 
" style="fill:none;stroke:#b0b0b0;stroke-width:0.8;"/>
    <path d="M 668.435044 101.910679 
L 577.136572 77.086214 
L 520.143936 121.73834 
" style="fill:none;stroke:#b0b0b0;stroke-width:0.8;"/>
    <path d="M 669.624488 75.936272 
L 576.848064 51.996887 
L 518.860364 95.084122 
" style="fill:none;stroke:#b0b0b0;stroke-width:0.8;"/>
   </g>
   <g id="xtick_25">
    <g id="line2d_36">
     <path d="M 666.52881 126.847296 
L 668.793984 127.493671 
" style="fill:none;stroke:#000000;stroke-linecap:square;stroke-width:0.8;"/>
    </g>
    <g id="text_27">
     <!-- −1 -->
     <g transform="translate(678.242763 132.091184)scale(0.1 -0.1)">
      <use xlink:href="#DejaVuSans-2212"/>
      <use x="83.789062" xlink:href="#DejaVuSans-31"/>
     </g>
    </g>
   </g>
   <g id="xtick_26">
    <g id="line2d_37">
     <path d="M 667.66799 101.702113 
L 669.97102 102.328317 
" style="fill:none;stroke:#000000;stroke-linecap:square;stroke-width:0.8;"/>
    </g>
    <g id="text_28">
     <!-- 0 -->
     <g transform="translate(683.872291 107.01968)scale(0.1 -0.1)">
      <use xlink:href="#DejaVuSans-30"/>
     </g>
    </g>
   </g>
   <g id="xtick_27">
    <g id="line2d_38">
     <path d="M 668.844407 75.734985 
L 671.186578 76.339342 
" style="fill:none;stroke:#000000;stroke-linecap:square;stroke-width:0.8;"/>
    </g>
    <g id="text_29">
     <!-- 1 -->
     <g transform="translate(685.358824 81.132328)scale(0.1 -0.1)">
      <use xlink:href="#DejaVuSans-31"/>
     </g>
    </g>
   </g>
  </g>
  <g id="axes_3">
   <g id="line2d_39">
    <path clip-path="url(#p65f57ad274)" d="M 571.035898 131.897216 
L 567.30876 138.550832 
L 564.407529 157.652962 
L 561.672209 157.719234 
L 559.36911 155.30493 
L 557.513287 152.363938 
L 555.850194 139.974667 
L 555.085677 146.562187 
L 554.481659 144.362286 
L 554.270677 143.399049 
L 554.248581 137.027698 
L 554.658424 135.312792 
L 555.283521 131.072986 
L 555.904559 116.477393 
L 556.993947 110.823156 
L 558.35818 107.789227 
L 559.94375 106.384156 
L 561.733258 107.136221 
L 563.793695 114.865633 
L 565.798364 114.92727 
L 567.695001 103.8884 
L 569.819566 100.797117 
L 572.050768 100.916368 
L 574.41422 108.445453 
L 576.562301 98.444164 
L 578.814816 95.412331 
L 581.079903 94.067894 
L 583.331476 93.561191 
L 585.554539 93.81497 
L 587.738982 95.358561 
L 589.883365 101.463781 
L 591.939695 102.16684 
L 593.92601 99.8431 
L 595.848915 95.783399 
L 597.702264 96.958022 
L 599.484987 95.425231 
L 601.17863 98.899057 
L 602.804286 99.273443 
L 604.363749 98.245052 
L 605.873011 94.315046 
L 607.295024 94.088968 
L 608.656974 93.5117 
L 609.93157 96.279747 
L 611.214422 92.305984 
L 612.44 89.901556 
L 613.58602 91.296164 
L 614.699032 92.448997 
L 615.805174 91.869705 
L 616.880927 92.114841 
L 617.928543 93.384771 
L 618.959352 95.20741 
L 620.074314 91.290994 
L 621.202037 87.194395 
L 622.229159 90.084276 
L 623.306267 90.671734 
L 624.409925 90.722374 
L 625.541432 90.370779 
L 626.71185 89.17994 
L 627.983387 84.182571 
L 629.07721 89.14312 
L 630.270236 90.134304 
L 631.511177 89.725833 
L 632.833452 86.441314 
L 634.128467 84.879376 
L 635.27059 89.692128 
L 636.511798 90.10606 
L 637.849125 86.278548 
L 639.050273 86.773283 
L 640.095944 91.513269 
L 641.214354 91.717777 
L 642.444279 85.90199 
L 643.230177 92.602571 
L 644.162963 91.065548 
L 644.773799 96.391822 
L 645.36988 97.876908 
L 645.87765 97.418106 
L 646.382545 91.760889 
L 646.386248 95.989433 
L 646.532805 89.152888 
L 646.17463 90.980112 
L 645.520778 94.305601 
L 644.445753 102.664155 
L 643.276352 104.921878 
L 641.895269 104.06962 
L 640.392829 95.943374 
L 638.467561 90.129579 
L 635.92533 93.961417 
L 632.835669 105.940675 
L 629.646965 107.093349 
L 626.289549 97.337226 
L 622.331703 97.436577 
L 617.977691 98.009268 
L 613.128295 108.742429 
L 608.108269 101.603664 
L 602.604577 110.377447 
L 596.829541 98.728958 
L 590.714578 111.665104 
L 584.231751 101.150421 
L 577.505137 100.781707 
L 571.035898 131.897216 
" style="fill:none;stroke:#1f77b4;stroke-linecap:square;stroke-opacity:0.7;stroke-width:1.5;"/>
   </g>
   <g id="text_30">
    <!-- Depth = 100, $\beta = 1.000\cdot 10^{-9}$ -->
    <g transform="translate(504.312055 24.7)scale(0.12 -0.12)">
     <defs>
      <path d="M 703 97 
L 703 672 
Q 941 559 1184 500 
Q 1428 441 1663 441 
Q 2288 441 2617 861 
Q 2947 1281 2994 2138 
Q 2813 1869 2534 1725 
Q 2256 1581 1919 1581 
Q 1219 1581 811 2004 
Q 403 2428 403 3163 
Q 403 3881 828 4315 
Q 1253 4750 1959 4750 
Q 2769 4750 3195 4129 
Q 3622 3509 3622 2328 
Q 3622 1225 3098 567 
Q 2575 -91 1691 -91 
Q 1453 -91 1209 -44 
Q 966 3 703 97 
z
M 1959 2075 
Q 2384 2075 2632 2365 
Q 2881 2656 2881 3163 
Q 2881 3666 2632 3958 
Q 2384 4250 1959 4250 
Q 1534 4250 1286 3958 
Q 1038 3666 1038 3163 
Q 1038 2656 1286 2365 
Q 1534 2075 1959 2075 
z
" id="DejaVuSans-39" transform="scale(0.015625)"/>
     </defs>
     <use transform="translate(0 0.765625)" xlink:href="#DejaVuSans-44"/>
     <use transform="translate(77.001953 0.765625)" xlink:href="#DejaVuSans-65"/>
     <use transform="translate(138.525391 0.765625)" xlink:href="#DejaVuSans-70"/>
     <use transform="translate(202.001953 0.765625)" xlink:href="#DejaVuSans-74"/>
     <use transform="translate(241.210938 0.765625)" xlink:href="#DejaVuSans-68"/>
     <use transform="translate(304.589844 0.765625)" xlink:href="#DejaVuSans-20"/>
     <use transform="translate(336.376953 0.765625)" xlink:href="#DejaVuSans-3d"/>
     <use transform="translate(420.166016 0.765625)" xlink:href="#DejaVuSans-20"/>
     <use transform="translate(451.953125 0.765625)" xlink:href="#DejaVuSans-31"/>
     <use transform="translate(515.576172 0.765625)" xlink:href="#DejaVuSans-30"/>
     <use transform="translate(579.199219 0.765625)" xlink:href="#DejaVuSans-30"/>
     <use transform="translate(642.822266 0.765625)" xlink:href="#DejaVuSans-2c"/>
     <use transform="translate(674.609375 0.765625)" xlink:href="#DejaVuSans-20"/>
     <use transform="translate(706.396484 0.765625)" xlink:href="#DejaVuSans-Oblique-3b2"/>
     <use transform="translate(789.697266 0.765625)" xlink:href="#DejaVuSans-3d"/>
     <use transform="translate(892.96875 0.765625)" xlink:href="#DejaVuSans-31"/>
     <use transform="translate(956.591797 0.765625)" xlink:href="#DejaVuSans-2e"/>
     <use transform="translate(988.378906 0.765625)" xlink:href="#DejaVuSans-30"/>
     <use transform="translate(1052.001953 0.765625)" xlink:href="#DejaVuSans-30"/>
     <use transform="translate(1115.625 0.765625)" xlink:href="#DejaVuSans-30"/>
     <use transform="translate(1198.730469 0.765625)" xlink:href="#DejaVuSans-22c5"/>
     <use transform="translate(1250 0.765625)" xlink:href="#DejaVuSans-31"/>
     <use transform="translate(1313.623047 0.765625)" xlink:href="#DejaVuSans-30"/>
     <use transform="translate(1378.203125 39.046875)scale(0.7)" xlink:href="#DejaVuSans-2212"/>
     <use transform="translate(1436.855469 39.046875)scale(0.7)" xlink:href="#DejaVuSans-39"/>
    </g>
   </g>
  </g>
  <g id="patch_14">
   <path d="M 57.401149 407.874944 
L 225.926094 407.874944 
L 225.926094 239.35 
L 57.401149 239.35 
z
" style="fill:none;opacity:0;"/>
  </g>
  <g id="pane3d_10">
   <g id="patch_15">
    <path d="M 70.125945 366.322094 
L 125.778385 319.673115 
L 125.004763 252.396948 
L 66.689066 294.953087 
" style="fill:#f2f2f2;opacity:0.5;stroke:#f2f2f2;stroke-linejoin:miter;"/>
   </g>
  </g>
  <g id="pane3d_11">
   <g id="patch_16">
    <path d="M 125.778385 319.673115 
L 215.080695 345.629771 
L 218.26758 276.036353 
L 125.004763 252.396948 
" style="fill:#e6e6e6;opacity:0.5;stroke:#e6e6e6;stroke-linejoin:miter;"/>
   </g>
  </g>
  <g id="pane3d_12">
   <g id="patch_17">
    <path d="M 70.125945 366.322094 
L 164.790755 397.239621 
L 215.080695 345.629771 
L 125.778385 319.673115 
" style="fill:#ececec;opacity:0.5;stroke:#ececec;stroke-linejoin:miter;"/>
   </g>
  </g>
  <g id="axis3d_10">
   <g id="line2d_40">
    <path d="M 70.125945 366.322094 
L 164.790755 397.239621 
" style="fill:none;stroke:#000000;stroke-linecap:square;stroke-width:0.8;"/>
   </g>
   <g id="Line3DCollection_10">
    <path d="M 82.547089 370.37884 
L 137.540924 323.092021 
L 137.266465 255.504932 
" style="fill:none;stroke:#b0b0b0;stroke-width:0.8;"/>
    <path d="M 116.210525 381.373317 
L 169.350906 332.337926 
L 170.46051 263.918654 
" style="fill:none;stroke:#b0b0b0;stroke-width:0.8;"/>
    <path d="M 151.186451 392.796455 
L 202.295479 341.913613 
L 204.891177 272.645825 
" style="fill:none;stroke:#b0b0b0;stroke-width:0.8;"/>
   </g>
   <g id="xtick_28">
    <g id="line2d_41">
     <path d="M 83.026121 369.966941 
L 81.586962 371.204411 
" style="fill:none;stroke:#000000;stroke-linecap:square;stroke-width:0.8;"/>
    </g>
    <g id="text_31">
     <!-- −2 -->
     <g transform="translate(67.641253 393.79517)scale(0.1 -0.1)">
      <use xlink:href="#DejaVuSans-2212"/>
      <use x="83.789062" xlink:href="#DejaVuSans-32"/>
     </g>
    </g>
   </g>
   <g id="xtick_29">
    <g id="line2d_42">
     <path d="M 116.674133 380.945522 
L 115.281273 382.230787 
" style="fill:none;stroke:#000000;stroke-linecap:square;stroke-width:0.8;"/>
    </g>
    <g id="text_32">
     <!-- 0 -->
     <g transform="translate(105.552197 405.160103)scale(0.1 -0.1)">
      <use xlink:href="#DejaVuSans-30"/>
     </g>
    </g>
   </g>
   <g id="xtick_30">
    <g id="line2d_43">
     <path d="M 151.633058 392.351824 
L 150.291237 393.687707 
" style="fill:none;stroke:#000000;stroke-linecap:square;stroke-width:0.8;"/>
    </g>
    <g id="text_33">
     <!-- 2 -->
     <g transform="translate(140.596104 416.970858)scale(0.1 -0.1)">
      <use xlink:href="#DejaVuSans-32"/>
     </g>
    </g>
   </g>
  </g>
  <g id="axis3d_11">
   <g id="line2d_44">
    <path d="M 215.080695 345.629771 
L 164.790755 397.239621 
" style="fill:none;stroke:#000000;stroke-linecap:square;stroke-width:0.8;"/>
   </g>
   <g id="Line3DCollection_11">
    <path d="M 79.763381 285.412048 
L 82.566442 355.894222 
L 176.071109 385.663203 
" style="fill:none;stroke:#b0b0b0;stroke-width:0.8;"/>
    <path d="M 97.144529 272.728077 
L 99.137788 342.003792 
L 191.062507 370.27834 
" style="fill:none;stroke:#b0b0b0;stroke-width:0.8;"/>
    <path d="M 113.648559 260.684188 
L 114.907638 328.785191 
L 205.292272 355.675101 
" style="fill:none;stroke:#b0b0b0;stroke-width:0.8;"/>
   </g>
   <g id="xtick_31">
    <g id="line2d_45">
     <path d="M 175.283677 385.412508 
L 177.647983 386.16523 
" style="fill:none;stroke:#000000;stroke-linecap:square;stroke-width:0.8;"/>
    </g>
    <g id="text_34">
     <!-- −4 -->
     <g transform="translate(181.41982 406.502271)scale(0.1 -0.1)">
      <use xlink:href="#DejaVuSans-2212"/>
      <use x="83.789062" xlink:href="#DejaVuSans-34"/>
     </g>
    </g>
   </g>
   <g id="xtick_32">
    <g id="line2d_46">
     <path d="M 190.289389 370.040542 
L 192.610665 370.754529 
" style="fill:none;stroke:#000000;stroke-linecap:square;stroke-width:0.8;"/>
    </g>
    <g id="text_35">
     <!-- −2 -->
     <g transform="translate(196.093007 390.758004)scale(0.1 -0.1)">
      <use xlink:href="#DejaVuSans-2212"/>
      <use x="83.789062" xlink:href="#DejaVuSans-32"/>
     </g>
    </g>
   </g>
   <g id="xtick_33">
    <g id="line2d_47">
     <path d="M 204.533048 355.449228 
L 206.812558 356.127394 
" style="fill:none;stroke:#000000;stroke-linecap:square;stroke-width:0.8;"/>
    </g>
    <g id="text_36">
     <!-- 0 -->
     <g transform="translate(214.20991 375.814327)scale(0.1 -0.1)">
      <use xlink:href="#DejaVuSans-30"/>
     </g>
    </g>
   </g>
  </g>
  <g id="axis3d_12">
   <g id="line2d_48">
    <path d="M 215.080695 345.629771 
L 218.26758 276.036353 
" style="fill:none;stroke:#000000;stroke-linecap:square;stroke-width:0.8;"/>
   </g>
   <g id="Line3DCollection_12">
    <path d="M 215.747106 331.077066 
L 125.616343 305.581469 
L 69.408216 351.417987 
" style="fill:none;stroke:#b0b0b0;stroke-width:0.8;"/>
    <path d="M 216.681028 310.682582 
L 125.389493 285.854057 
L 68.401523 330.513355 
" style="fill:none;stroke:#b0b0b0;stroke-width:0.8;"/>
    <path d="M 217.639565 289.750599 
L 125.156957 265.632093 
L 67.367263 309.036285 
" style="fill:none;stroke:#b0b0b0;stroke-width:0.8;"/>
   </g>
   <g id="xtick_34">
    <g id="line2d_49">
     <path d="M 214.990329 330.862994 
L 217.262476 331.505724 
" style="fill:none;stroke:#000000;stroke-linecap:square;stroke-width:0.8;"/>
    </g>
    <g id="text_37">
     <!-- −1 -->
     <g transform="translate(226.759681 336.120197)scale(0.1 -0.1)">
      <use xlink:href="#DejaVuSans-2212"/>
      <use x="83.789062" xlink:href="#DejaVuSans-31"/>
     </g>
    </g>
   </g>
   <g id="xtick_35">
    <g id="line2d_50">
     <path d="M 215.914035 310.473983 
L 218.216881 311.100287 
" style="fill:none;stroke:#000000;stroke-linecap:square;stroke-width:0.8;"/>
    </g>
    <g id="text_38">
     <!-- 0 -->
     <g transform="translate(232.11688 315.791185)scale(0.1 -0.1)">
      <use xlink:href="#DejaVuSans-30"/>
     </g>
    </g>
   </g>
   <g id="xtick_36">
    <g id="line2d_51">
     <path d="M 216.862075 289.547838 
L 219.19646 290.156621 
" style="fill:none;stroke:#000000;stroke-linecap:square;stroke-width:0.8;"/>
    </g>
    <g id="text_39">
     <!-- 1 -->
     <g transform="translate(233.314851 294.929021)scale(0.1 -0.1)">
      <use xlink:href="#DejaVuSans-31"/>
     </g>
    </g>
   </g>
  </g>
  <g id="axes_4">
   <g id="line2d_52">
    <path clip-path="url(#pf0f7874b4c)" d="M 119.257427 338.64825 
L 115.578452 348.192022 
L 112.479388 357.497163 
L 109.810381 361.259845 
L 107.573932 361.979129 
L 105.766677 361.087424 
L 104.366427 358.925285 
L 103.381385 356.890641 
L 102.769378 354.368729 
L 102.516877 351.848598 
L 102.571872 348.366409 
L 102.95611 345.710822 
L 103.618993 342.961217 
L 104.534335 340.090523 
L 105.68455 337.395971 
L 107.044654 334.87761 
L 108.590214 332.534463 
L 110.297468 330.364616 
L 112.143435 328.365309 
L 114.113413 326.92346 
L 116.170882 325.251575 
L 118.303693 323.737862 
L 120.492841 322.376969 
L 122.720487 321.163074 
L 124.963479 319.547133 
L 127.214517 318.064825 
L 129.459508 316.709019 
L 131.685664 315.472376 
L 133.881529 314.347416 
L 136.036991 313.326576 
L 138.143294 312.402264 
L 140.19293 311.523592 
L 142.179574 310.294912 
L 144.099991 309.338146 
L 145.950244 308.447381 
L 147.726571 308.270274 
L 149.428134 308.146926 
L 151.056354 307.811326 
L 152.614348 307.072668 
L 154.105315 305.984218 
L 155.53071 304.92338 
L 156.889269 304.534977 
L 158.189952 304.166865 
L 159.447552 302.853852 
L 160.660184 301.55022 
L 161.819402 301.571042 
L 162.944641 301.599779 
L 164.043496 301.572292 
L 165.122089 301.54957 
L 166.187127 301.530765 
L 167.249815 301.190798 
L 168.335946 299.280853 
L 169.429385 297.366367 
L 170.516516 296.576016 
L 171.618848 295.787186 
L 172.739975 295.000748 
L 173.882604 294.217779 
L 175.048473 293.439516 
L 176.238276 292.667309 
L 177.433375 292.776353 
L 178.649007 292.897436 
L 179.882317 293.032455 
L 181.129203 293.183222 
L 182.394177 292.938556 
L 183.651375 293.116071 
L 184.902193 293.313451 
L 186.137404 293.531573 
L 187.347757 293.725005 
L 188.524733 293.781889 
L 189.651265 293.858706 
L 190.71326 293.954363 
L 191.668874 294.962915 
L 192.527427 295.990379 
L 193.293865 296.321847 
L 193.929127 296.663526 
L 194.414548 297.011144 
L 194.730861 297.359664 
L 194.865158 297.489092 
L 194.790639 297.605504 
L 194.460676 298.53769 
L 193.879604 299.519908 
L 193.049379 299.848768 
L 191.931266 300.132594 
L 190.506793 300.360923 
L 188.75852 300.52261 
L 186.693816 299.726466 
L 184.230041 300.502702 
L 181.393417 301.529891 
L 178.183677 302.447398 
L 174.593838 303.242303 
L 170.616303 304.111343 
L 166.25531 304.7978 
L 161.506444 305.911085 
L 156.386419 306.852423 
L 150.904326 308.017586 
L 145.079955 308.987609 
L 138.942356 312.765561 
L 132.530277 316.314523 
L 125.918881 323.609551 
L 119.257427 338.64825 
" style="fill:none;stroke:#1f77b4;stroke-linecap:square;stroke-opacity:0.7;stroke-width:1.5;"/>
   </g>
   <g id="text_40">
    <!-- $\ell$ = 1.7206 -->
    <g transform="translate(109.803622 233.35)scale(0.12 -0.12)">
     <defs>
      <path d="M 950 838 
Q 1078 213 1350 213 
Q 1531 213 1766 572 
L 2181 572 
Q 1994 253 1775 88 
Q 1538 -91 1319 -91 
Q 831 -91 634 344 
L 400 0 
L -88 0 
Q 250 459 500 888 
Q 469 1131 469 1397 
Q 469 1872 566 2347 
Q 931 4131 1256 4497 
Q 1481 4750 1866 4750 
Q 2256 4750 2256 4209 
Q 2253 3966 2197 3675 
Q 1972 2484 950 838 
z
M 947 1656 
Q 1531 2744 1709 3613 
Q 1803 4072 1803 4191 
Q 1803 4406 1725 4406 
Q 1384 4134 1081 2516 
Q 997 2063 947 1656 
z
" id="DejaVuSans-Oblique-2113" transform="scale(0.015625)"/>
     </defs>
     <use transform="translate(0 0.78125)" xlink:href="#DejaVuSans-Oblique-2113"/>
     <use transform="translate(41.308594 0.78125)" xlink:href="#DejaVuSans-20"/>
     <use transform="translate(73.095703 0.78125)" xlink:href="#DejaVuSans-3d"/>
     <use transform="translate(156.884766 0.78125)" xlink:href="#DejaVuSans-20"/>
     <use transform="translate(188.671875 0.78125)" xlink:href="#DejaVuSans-31"/>
     <use transform="translate(252.294922 0.78125)" xlink:href="#DejaVuSans-2e"/>
     <use transform="translate(276.332031 0.78125)" xlink:href="#DejaVuSans-37"/>
     <use transform="translate(339.955078 0.78125)" xlink:href="#DejaVuSans-32"/>
     <use transform="translate(403.578125 0.78125)" xlink:href="#DejaVuSans-30"/>
     <use transform="translate(467.201172 0.78125)" xlink:href="#DejaVuSans-36"/>
    </g>
   </g>
  </g>
  <g id="patch_18">
   <path d="M 283.275366 407.874944 
L 451.800311 407.874944 
L 451.800311 239.35 
L 283.275366 239.35 
z
" style="fill:none;opacity:0;"/>
  </g>
  <g id="pane3d_13">
   <g id="patch_19">
    <path d="M 296.000162 366.322094 
L 351.652602 319.673115 
L 350.87898 252.396948 
L 292.563283 294.953087 
" style="fill:#f2f2f2;opacity:0.5;stroke:#f2f2f2;stroke-linejoin:miter;"/>
   </g>
  </g>
  <g id="pane3d_14">
   <g id="patch_20">
    <path d="M 351.652602 319.673115 
L 440.954912 345.629771 
L 444.141797 276.036353 
L 350.87898 252.396948 
" style="fill:#e6e6e6;opacity:0.5;stroke:#e6e6e6;stroke-linejoin:miter;"/>
   </g>
  </g>
  <g id="pane3d_15">
   <g id="patch_21">
    <path d="M 296.000162 366.322094 
L 390.664972 397.239621 
L 440.954912 345.629771 
L 351.652602 319.673115 
" style="fill:#ececec;opacity:0.5;stroke:#ececec;stroke-linejoin:miter;"/>
   </g>
  </g>
  <g id="axis3d_13">
   <g id="line2d_53">
    <path d="M 296.000162 366.322094 
L 390.664972 397.239621 
" style="fill:none;stroke:#000000;stroke-linecap:square;stroke-width:0.8;"/>
   </g>
   <g id="Line3DCollection_13">
    <path d="M 308.421306 370.37884 
L 363.415141 323.092021 
L 363.140682 255.504932 
" style="fill:none;stroke:#b0b0b0;stroke-width:0.8;"/>
    <path d="M 342.084741 381.373317 
L 395.225123 332.337926 
L 396.334726 263.918654 
" style="fill:none;stroke:#b0b0b0;stroke-width:0.8;"/>
    <path d="M 377.060668 392.796455 
L 428.169696 341.913613 
L 430.765394 272.645825 
" style="fill:none;stroke:#b0b0b0;stroke-width:0.8;"/>
   </g>
   <g id="xtick_37">
    <g id="line2d_54">
     <path d="M 308.900337 369.966941 
L 307.461179 371.204411 
" style="fill:none;stroke:#000000;stroke-linecap:square;stroke-width:0.8;"/>
    </g>
    <g id="text_41">
     <!-- −2 -->
     <g transform="translate(293.51547 393.79517)scale(0.1 -0.1)">
      <use xlink:href="#DejaVuSans-2212"/>
      <use x="83.789062" xlink:href="#DejaVuSans-32"/>
     </g>
    </g>
   </g>
   <g id="xtick_38">
    <g id="line2d_55">
     <path d="M 342.54835 380.945522 
L 341.155489 382.230787 
" style="fill:none;stroke:#000000;stroke-linecap:square;stroke-width:0.8;"/>
    </g>
    <g id="text_42">
     <!-- 0 -->
     <g transform="translate(331.426414 405.160103)scale(0.1 -0.1)">
      <use xlink:href="#DejaVuSans-30"/>
     </g>
    </g>
   </g>
   <g id="xtick_39">
    <g id="line2d_56">
     <path d="M 377.507275 392.351824 
L 376.165454 393.687707 
" style="fill:none;stroke:#000000;stroke-linecap:square;stroke-width:0.8;"/>
    </g>
    <g id="text_43">
     <!-- 2 -->
     <g transform="translate(366.470321 416.970858)scale(0.1 -0.1)">
      <use xlink:href="#DejaVuSans-32"/>
     </g>
    </g>
   </g>
  </g>
  <g id="axis3d_14">
   <g id="line2d_57">
    <path d="M 440.954912 345.629771 
L 390.664972 397.239621 
" style="fill:none;stroke:#000000;stroke-linecap:square;stroke-width:0.8;"/>
   </g>
   <g id="Line3DCollection_14">
    <path d="M 305.637597 285.412048 
L 308.440659 355.894222 
L 401.945326 385.663203 
" style="fill:none;stroke:#b0b0b0;stroke-width:0.8;"/>
    <path d="M 323.018746 272.728077 
L 325.012005 342.003792 
L 416.936724 370.27834 
" style="fill:none;stroke:#b0b0b0;stroke-width:0.8;"/>
    <path d="M 339.522776 260.684188 
L 340.781855 328.785191 
L 431.166489 355.675101 
" style="fill:none;stroke:#b0b0b0;stroke-width:0.8;"/>
   </g>
   <g id="xtick_40">
    <g id="line2d_58">
     <path d="M 401.157893 385.412508 
L 403.5222 386.16523 
" style="fill:none;stroke:#000000;stroke-linecap:square;stroke-width:0.8;"/>
    </g>
    <g id="text_44">
     <!-- −4 -->
     <g transform="translate(407.294037 406.502271)scale(0.1 -0.1)">
      <use xlink:href="#DejaVuSans-2212"/>
      <use x="83.789062" xlink:href="#DejaVuSans-34"/>
     </g>
    </g>
   </g>
   <g id="xtick_41">
    <g id="line2d_59">
     <path d="M 416.163606 370.040542 
L 418.484882 370.754529 
" style="fill:none;stroke:#000000;stroke-linecap:square;stroke-width:0.8;"/>
    </g>
    <g id="text_45">
     <!-- −2 -->
     <g transform="translate(421.967223 390.758004)scale(0.1 -0.1)">
      <use xlink:href="#DejaVuSans-2212"/>
      <use x="83.789062" xlink:href="#DejaVuSans-32"/>
     </g>
    </g>
   </g>
   <g id="xtick_42">
    <g id="line2d_60">
     <path d="M 430.407265 355.449228 
L 432.686775 356.127394 
" style="fill:none;stroke:#000000;stroke-linecap:square;stroke-width:0.8;"/>
    </g>
    <g id="text_46">
     <!-- 0 -->
     <g transform="translate(440.084127 375.814327)scale(0.1 -0.1)">
      <use xlink:href="#DejaVuSans-30"/>
     </g>
    </g>
   </g>
  </g>
  <g id="axis3d_15">
   <g id="line2d_61">
    <path d="M 440.954912 345.629771 
L 444.141797 276.036353 
" style="fill:none;stroke:#000000;stroke-linecap:square;stroke-width:0.8;"/>
   </g>
   <g id="Line3DCollection_15">
    <path d="M 441.609001 331.346131 
L 351.493554 305.841896 
L 295.295707 351.693644 
" style="fill:none;stroke:#b0b0b0;stroke-width:0.8;"/>
    <path d="M 442.519146 311.470896 
L 351.272473 286.616133 
L 294.31467 331.321772 
" style="fill:none;stroke:#b0b0b0;stroke-width:0.8;"/>
    <path d="M 443.452663 291.085266 
L 351.045992 266.920722 
L 293.307458 310.406359 
" style="fill:none;stroke:#b0b0b0;stroke-width:0.8;"/>
   </g>
   <g id="xtick_43">
    <g id="line2d_62">
     <path d="M 440.852359 331.131988 
L 443.124102 331.774931 
" style="fill:none;stroke:#000000;stroke-linecap:square;stroke-width:0.8;"/>
    </g>
    <g id="text_47">
     <!-- −1 -->
     <g transform="translate(452.618496 336.388415)scale(0.1 -0.1)">
      <use xlink:href="#DejaVuSans-2212"/>
      <use x="83.789062" xlink:href="#DejaVuSans-31"/>
     </g>
    </g>
   </g>
   <g id="xtick_44">
    <g id="line2d_63">
     <path d="M 441.752547 311.262082 
L 444.054207 311.889033 
" style="fill:none;stroke:#000000;stroke-linecap:square;stroke-width:0.8;"/>
    </g>
    <g id="text_48">
     <!-- 0 -->
     <g transform="translate(457.945978 316.576921)scale(0.1 -0.1)">
      <use xlink:href="#DejaVuSans-30"/>
     </g>
    </g>
   </g>
   <g id="xtick_45">
    <g id="line2d_64">
     <path d="M 442.675843 290.882126 
L 445.008216 291.492047 
" style="fill:none;stroke:#000000;stroke-linecap:square;stroke-width:0.8;"/>
    </g>
    <g id="text_49">
     <!-- 1 -->
     <g transform="translate(459.112688 296.259157)scale(0.1 -0.1)">
      <use xlink:href="#DejaVuSans-31"/>
     </g>
    </g>
   </g>
  </g>
  <g id="axes_5">
   <g id="line2d_65">
    <path clip-path="url(#p1308bb76a0)" d="M 345.15974 340.424499 
L 341.53252 352.558513 
L 338.515759 365.44285 
L 335.807944 366.817676 
L 333.515796 364.838412 
L 331.667313 362.151869 
L 330.208658 357.680438 
L 329.233257 356.040981 
L 328.614758 353.286772 
L 328.375321 351.259416 
L 328.388169 346.195206 
L 328.779 343.765413 
L 329.415773 339.972659 
L 330.229011 332.987326 
L 331.328991 328.015848 
L 332.680722 324.781011 
L 334.252352 323.135989 
L 336.014926 323.055027 
L 337.942058 324.631071 
L 339.939065 324.363611 
L 341.959053 320.374875 
L 344.086009 318.090594 
L 346.292832 317.385659 
L 348.555592 318.254643 
L 350.769215 313.84713 
L 353.011806 310.79319 
L 355.261978 308.869045 
L 357.501569 307.937081 
L 359.715055 307.936744 
L 361.889048 308.880501 
L 364.011856 310.854789 
L 366.066114 311.086337 
L 368.052761 309.365507 
L 369.974373 307.688895 
L 371.826384 306.924633 
L 373.60345 307.151298 
L 375.302113 308.215878 
L 376.927993 308.387803 
L 378.486133 307.519036 
L 379.982208 305.564715 
L 381.410038 304.220222 
L 382.763964 304.476152 
L 384.054903 305.203979 
L 385.324254 302.598004 
L 386.54812 300.239369 
L 387.699116 301.07979 
L 388.814113 301.998669 
L 389.908618 302.29508 
L 390.980656 302.729978 
L 392.036446 303.318866 
L 393.081935 304.076787 
L 394.185959 300.868183 
L 395.300479 297.562619 
L 396.366179 298.056629 
L 397.451816 298.176691 
L 398.562021 297.906688 
L 399.701281 297.194767 
L 400.874095 295.947867 
L 402.085246 294.022568 
L 403.247791 295.644525 
L 404.445353 296.501187 
L 405.676027 296.630038 
L 406.938207 295.999419 
L 408.217716 295.055406 
L 409.444746 296.385754 
L 410.68775 296.789235 
L 411.940434 296.240317 
L 413.143913 296.612125 
L 414.293201 297.589648 
L 415.422383 297.479408 
L 416.522469 296.185369 
L 417.422787 299.00645 
L 418.261596 300.611375 
L 418.975433 302.578439 
L 419.591796 303.445142 
L 420.094603 303.174214 
L 420.470093 301.616751 
L 420.606585 301.66555 
L 420.587399 300.045035 
L 420.233359 301.754554 
L 419.600825 304.420627 
L 418.693317 307.348173 
L 417.551753 308.586704 
L 416.155697 308.096755 
L 414.48832 305.673866 
L 412.507333 301.997313 
L 410.014373 304.069265 
L 407.122123 307.736925 
L 403.919686 308.89185 
L 400.386359 307.495659 
L 396.42747 307.881371 
L 392.082569 308.152886 
L 387.330402 310.469666 
L 382.23663 309.923864 
L 376.76908 310.179921 
L 370.955324 307.378958 
L 364.809204 310.426964 
L 358.36152 310.353412 
L 351.695106 315.04294 
L 345.15974 340.424499 
" style="fill:none;stroke:#1f77b4;stroke-linecap:square;stroke-opacity:0.7;stroke-width:1.5;"/>
   </g>
   <g id="text_50">
    <!-- $\ell$ = 0.2152 -->
    <g transform="translate(335.497838 233.35)scale(0.12 -0.12)">
     <use transform="translate(0 0.78125)" xlink:href="#DejaVuSans-Oblique-2113"/>
     <use transform="translate(41.308594 0.78125)" xlink:href="#DejaVuSans-20"/>
     <use transform="translate(73.095703 0.78125)" xlink:href="#DejaVuSans-3d"/>
     <use transform="translate(156.884766 0.78125)" xlink:href="#DejaVuSans-20"/>
     <use transform="translate(188.671875 0.78125)" xlink:href="#DejaVuSans-30"/>
     <use transform="translate(252.294922 0.78125)" xlink:href="#DejaVuSans-2e"/>
     <use transform="translate(278.582031 0.78125)" xlink:href="#DejaVuSans-32"/>
     <use transform="translate(342.205078 0.78125)" xlink:href="#DejaVuSans-31"/>
     <use transform="translate(405.828125 0.78125)" xlink:href="#DejaVuSans-35"/>
     <use transform="translate(469.451172 0.78125)" xlink:href="#DejaVuSans-32"/>
    </g>
   </g>
  </g>
  <g id="patch_22">
   <path d="M 509.149583 407.874944 
L 677.674527 407.874944 
L 677.674527 239.35 
L 509.149583 239.35 
z
" style="fill:none;opacity:0;"/>
  </g>
  <g id="pane3d_16">
   <g id="patch_23">
    <path d="M 521.874379 366.322094 
L 577.526819 319.673115 
L 576.753197 252.396948 
L 518.4375 294.953087 
" style="fill:#f2f2f2;opacity:0.5;stroke:#f2f2f2;stroke-linejoin:miter;"/>
   </g>
  </g>
  <g id="pane3d_17">
   <g id="patch_24">
    <path d="M 577.526819 319.673115 
L 666.829129 345.629771 
L 670.016014 276.036353 
L 576.753197 252.396948 
" style="fill:#e6e6e6;opacity:0.5;stroke:#e6e6e6;stroke-linejoin:miter;"/>
   </g>
  </g>
  <g id="pane3d_18">
   <g id="patch_25">
    <path d="M 521.874379 366.322094 
L 616.539189 397.239621 
L 666.829129 345.629771 
L 577.526819 319.673115 
" style="fill:#ececec;opacity:0.5;stroke:#ececec;stroke-linejoin:miter;"/>
   </g>
  </g>
  <g id="axis3d_16">
   <g id="line2d_66">
    <path d="M 521.874379 366.322094 
L 616.539189 397.239621 
" style="fill:none;stroke:#000000;stroke-linecap:square;stroke-width:0.8;"/>
   </g>
   <g id="Line3DCollection_16">
    <path d="M 534.295523 370.37884 
L 589.289358 323.092021 
L 589.014898 255.504932 
" style="fill:none;stroke:#b0b0b0;stroke-width:0.8;"/>
    <path d="M 567.958958 381.373317 
L 621.09934 332.337926 
L 622.208943 263.918654 
" style="fill:none;stroke:#b0b0b0;stroke-width:0.8;"/>
    <path d="M 602.934885 392.796455 
L 654.043913 341.913613 
L 656.639611 272.645825 
" style="fill:none;stroke:#b0b0b0;stroke-width:0.8;"/>
   </g>
   <g id="xtick_46">
    <g id="line2d_67">
     <path d="M 534.774554 369.966941 
L 533.335396 371.204411 
" style="fill:none;stroke:#000000;stroke-linecap:square;stroke-width:0.8;"/>
    </g>
    <g id="text_51">
     <!-- −2 -->
     <g transform="translate(519.389687 393.79517)scale(0.1 -0.1)">
      <use xlink:href="#DejaVuSans-2212"/>
      <use x="83.789062" xlink:href="#DejaVuSans-32"/>
     </g>
    </g>
   </g>
   <g id="xtick_47">
    <g id="line2d_68">
     <path d="M 568.422567 380.945522 
L 567.029706 382.230787 
" style="fill:none;stroke:#000000;stroke-linecap:square;stroke-width:0.8;"/>
    </g>
    <g id="text_52">
     <!-- 0 -->
     <g transform="translate(557.300631 405.160103)scale(0.1 -0.1)">
      <use xlink:href="#DejaVuSans-30"/>
     </g>
    </g>
   </g>
   <g id="xtick_48">
    <g id="line2d_69">
     <path d="M 603.381492 392.351824 
L 602.039671 393.687707 
" style="fill:none;stroke:#000000;stroke-linecap:square;stroke-width:0.8;"/>
    </g>
    <g id="text_53">
     <!-- 2 -->
     <g transform="translate(592.344538 416.970858)scale(0.1 -0.1)">
      <use xlink:href="#DejaVuSans-32"/>
     </g>
    </g>
   </g>
  </g>
  <g id="axis3d_17">
   <g id="line2d_70">
    <path d="M 666.829129 345.629771 
L 616.539189 397.239621 
" style="fill:none;stroke:#000000;stroke-linecap:square;stroke-width:0.8;"/>
   </g>
   <g id="Line3DCollection_17">
    <path d="M 531.511814 285.412048 
L 534.314876 355.894222 
L 627.819543 385.663203 
" style="fill:none;stroke:#b0b0b0;stroke-width:0.8;"/>
    <path d="M 548.892963 272.728077 
L 550.886222 342.003792 
L 642.810941 370.27834 
" style="fill:none;stroke:#b0b0b0;stroke-width:0.8;"/>
    <path d="M 565.396993 260.684188 
L 566.656072 328.785191 
L 657.040706 355.675101 
" style="fill:none;stroke:#b0b0b0;stroke-width:0.8;"/>
   </g>
   <g id="xtick_49">
    <g id="line2d_71">
     <path d="M 627.03211 385.412508 
L 629.396417 386.16523 
" style="fill:none;stroke:#000000;stroke-linecap:square;stroke-width:0.8;"/>
    </g>
    <g id="text_54">
     <!-- −4 -->
     <g transform="translate(633.168254 406.502271)scale(0.1 -0.1)">
      <use xlink:href="#DejaVuSans-2212"/>
      <use x="83.789062" xlink:href="#DejaVuSans-34"/>
     </g>
    </g>
   </g>
   <g id="xtick_50">
    <g id="line2d_72">
     <path d="M 642.037822 370.040542 
L 644.359098 370.754529 
" style="fill:none;stroke:#000000;stroke-linecap:square;stroke-width:0.8;"/>
    </g>
    <g id="text_55">
     <!-- −2 -->
     <g transform="translate(647.84144 390.758004)scale(0.1 -0.1)">
      <use xlink:href="#DejaVuSans-2212"/>
      <use x="83.789062" xlink:href="#DejaVuSans-32"/>
     </g>
    </g>
   </g>
   <g id="xtick_51">
    <g id="line2d_73">
     <path d="M 656.281482 355.449228 
L 658.560992 356.127394 
" style="fill:none;stroke:#000000;stroke-linecap:square;stroke-width:0.8;"/>
    </g>
    <g id="text_56">
     <!-- 0 -->
     <g transform="translate(665.958344 375.814327)scale(0.1 -0.1)">
      <use xlink:href="#DejaVuSans-30"/>
     </g>
    </g>
   </g>
  </g>
  <g id="axis3d_18">
   <g id="line2d_74">
    <path d="M 666.829129 345.629771 
L 670.016014 276.036353 
" style="fill:none;stroke:#000000;stroke-linecap:square;stroke-width:0.8;"/>
   </g>
   <g id="Line3DCollection_18">
    <path d="M 667.374977 333.709841 
L 577.394081 308.129909 
L 521.286534 354.115113 
" style="fill:none;stroke:#b0b0b0;stroke-width:0.8;"/>
    <path d="M 668.431344 310.641496 
L 577.13747 285.814339 
L 520.147928 330.47122 
" style="fill:none;stroke:#b0b0b0;stroke-width:0.8;"/>
    <path d="M 669.519309 286.883107 
L 576.873558 262.863865 
L 518.973931 306.092424 
" style="fill:none;stroke:#b0b0b0;stroke-width:0.8;"/>
   </g>
   <g id="xtick_52">
    <g id="line2d_75">
     <path d="M 666.619518 333.495078 
L 668.887705 334.139882 
" style="fill:none;stroke:#000000;stroke-linecap:square;stroke-width:0.8;"/>
    </g>
    <g id="text_57">
     <!-- −1 -->
     <g transform="translate(678.357407 338.744703)scale(0.1 -0.1)">
      <use xlink:href="#DejaVuSans-2212"/>
      <use x="83.789062" xlink:href="#DejaVuSans-31"/>
     </g>
    </g>
   </g>
   <g id="xtick_53">
    <g id="line2d_76">
     <path d="M 667.664329 310.432908 
L 669.967238 311.059179 
" style="fill:none;stroke:#000000;stroke-linecap:square;stroke-width:0.8;"/>
    </g>
    <g id="text_58">
     <!-- 0 -->
     <g transform="translate(683.867666 315.750233)scale(0.1 -0.1)">
      <use xlink:href="#DejaVuSans-30"/>
     </g>
    </g>
   </g>
   <g id="xtick_54">
    <g id="line2d_77">
     <path d="M 668.740381 286.681163 
L 671.079089 287.287494 
" style="fill:none;stroke:#000000;stroke-linecap:square;stroke-width:0.8;"/>
    </g>
    <g id="text_59">
     <!-- 1 -->
     <g transform="translate(685.227384 292.071301)scale(0.1 -0.1)">
      <use xlink:href="#DejaVuSans-31"/>
     </g>
    </g>
   </g>
  </g>
  <g id="axes_6">
   <g id="line2d_78">
    <path clip-path="url(#p048b2deeae)" d="M 571.032098 340.306981 
L 567.368763 350.48199 
L 564.437207 367.757195 
L 561.703081 367.760281 
L 559.386774 364.701544 
L 557.511196 360.929699 
L 555.882018 349.863231 
L 555.068514 354.559573 
L 554.471207 352.620128 
L 554.255286 351.474135 
L 554.236673 345.231309 
L 554.643826 343.409462 
L 555.254345 338.59697 
L 555.843355 322.705971 
L 556.882074 314.906191 
L 558.238454 311.363293 
L 559.848207 310.80011 
L 561.689688 313.754602 
L 563.780946 322.885837 
L 565.790434 323.159281 
L 567.685258 311.986197 
L 569.795215 307.95074 
L 572.043096 309.050467 
L 574.405103 316.417537 
L 576.554095 306.411135 
L 578.790047 301.721005 
L 581.051915 299.659512 
L 583.307654 299.132945 
L 585.538771 299.980718 
L 587.73335 302.878532 
L 589.882059 309.756219 
L 591.939582 310.769082 
L 593.925743 308.252442 
L 595.848937 304.214591 
L 597.70299 305.03329 
L 599.485329 303.93163 
L 601.179353 307.339403 
L 602.804312 307.917732 
L 604.364318 306.790591 
L 605.872994 302.96772 
L 607.296816 302.492421 
L 608.655307 302.366965 
L 609.931972 304.884768 
L 611.214571 300.940649 
L 612.442042 298.356447 
L 613.5893 299.653015 
L 614.698564 301.138358 
L 615.800085 300.924181 
L 616.872959 301.365803 
L 617.921096 302.569552 
L 618.952101 304.354497 
L 620.066336 300.464191 
L 621.196904 296.166963 
L 622.222191 299.154439 
L 623.285699 300.513183 
L 624.382091 300.922757 
L 625.51513 300.430606 
L 626.699257 298.47998 
L 627.969325 293.532013 
L 629.057835 298.7224 
L 630.232306 300.539642 
L 631.47765 299.874018 
L 632.813681 295.945142 
L 634.10683 294.433147 
L 635.239807 299.587099 
L 636.476619 300.135184 
L 637.821665 295.973412 
L 639.020381 296.528875 
L 640.052407 301.730934 
L 641.176187 301.708132 
L 642.407522 295.813489 
L 643.205419 302.084699 
L 644.110813 301.436265 
L 644.678016 308.152546 
L 645.247036 310.464933 
L 645.782155 309.099303 
L 646.323293 302.279566 
L 646.360801 305.439779 
L 646.495173 298.988156 
L 646.140925 300.697972 
L 645.460632 304.882199 
L 644.3245 315.262939 
L 643.121566 318.729235 
L 641.78228 316.598969 
L 640.3427 306.381441 
L 638.438025 299.884536 
L 635.886642 304.146552 
L 632.780028 316.964162 
L 629.594334 318.197466 
L 626.255626 307.753365 
L 622.31536 307.063767 
L 617.961001 307.851716 
L 613.130345 317.206473 
L 608.099618 311.360413 
L 602.61174 317.390677 
L 596.829541 307.378958 
L 590.702188 316.382875 
L 584.219962 308.165163 
L 577.494109 308.467573 
L 571.032098 340.306981 
" style="fill:none;stroke:#1f77b4;stroke-linecap:square;stroke-opacity:0.7;stroke-width:1.5;"/>
   </g>
   <g id="text_60">
    <!-- $\ell$ = 0.0809 -->
    <g transform="translate(561.072055 233.35)scale(0.12 -0.12)">
     <use transform="translate(0 0.78125)" xlink:href="#DejaVuSans-Oblique-2113"/>
     <use transform="translate(41.308594 0.78125)" xlink:href="#DejaVuSans-20"/>
     <use transform="translate(73.095703 0.78125)" xlink:href="#DejaVuSans-3d"/>
     <use transform="translate(156.884766 0.78125)" xlink:href="#DejaVuSans-20"/>
     <use transform="translate(188.671875 0.78125)" xlink:href="#DejaVuSans-30"/>
     <use transform="translate(252.294922 0.78125)" xlink:href="#DejaVuSans-2e"/>
     <use transform="translate(284.082031 0.78125)" xlink:href="#DejaVuSans-30"/>
     <use transform="translate(347.705078 0.78125)" xlink:href="#DejaVuSans-38"/>
     <use transform="translate(411.328125 0.78125)" xlink:href="#DejaVuSans-30"/>
     <use transform="translate(474.951172 0.78125)" xlink:href="#DejaVuSans-39"/>
    </g>
   </g>
  </g>
  <g id="text_61">
   <!-- LPK $\longleftrightarrow$ NTK -->
   <g transform="translate(23.518125 253.74)rotate(-90)scale(0.12 -0.12)">
    <defs>
     <path d="M 628 4666 
L 1259 4666 
L 1259 531 
L 3531 531 
L 3531 0 
L 628 0 
L 628 4666 
z
" id="DejaVuSans-4c" transform="scale(0.015625)"/>
     <path d="M 1259 4147 
L 1259 2394 
L 2053 2394 
Q 2494 2394 2734 2622 
Q 2975 2850 2975 3272 
Q 2975 3691 2734 3919 
Q 2494 4147 2053 4147 
L 1259 4147 
z
M 628 4666 
L 2053 4666 
Q 2838 4666 3239 4311 
Q 3641 3956 3641 3272 
Q 3641 2581 3239 2228 
Q 2838 1875 2053 1875 
L 1259 1875 
L 1259 0 
L 628 0 
L 628 4666 
z
" id="DejaVuSans-50" transform="scale(0.015625)"/>
     <path d="M 628 4666 
L 1259 4666 
L 1259 2694 
L 3353 4666 
L 4166 4666 
L 1850 2491 
L 4331 0 
L 3500 0 
L 1259 2247 
L 1259 0 
L 628 0 
L 628 4666 
z
" id="DejaVuSans-4b" transform="scale(0.015625)"/>
     <path d="M 313 1866 
L 313 2147 
L 1541 3375 
L 1916 3000 
L 1188 2272 
L 7988 2272 
L 7259 3000 
L 7634 3375 
L 8863 2147 
L 8863 1866 
L 7634 638 
L 7259 1013 
L 7988 1741 
L 1188 1741 
L 1916 1013 
L 1541 638 
L 313 1866 
z
" id="DejaVuSans-27f7" transform="scale(0.015625)"/>
     <path d="M 628 4666 
L 1478 4666 
L 3547 763 
L 3547 4666 
L 4159 4666 
L 4159 0 
L 3309 0 
L 1241 3903 
L 1241 0 
L 628 0 
L 628 4666 
z
" id="DejaVuSans-4e" transform="scale(0.015625)"/>
     <path d="M -19 4666 
L 3928 4666 
L 3928 4134 
L 2272 4134 
L 2272 0 
L 1638 0 
L 1638 4134 
L -19 4134 
L -19 4666 
z
" id="DejaVuSans-54" transform="scale(0.015625)"/>
    </defs>
    <use transform="translate(0 0.09375)" xlink:href="#DejaVuSans-4c"/>
    <use transform="translate(55.712891 0.09375)" xlink:href="#DejaVuSans-50"/>
    <use transform="translate(116.015625 0.09375)" xlink:href="#DejaVuSans-4b"/>
    <use transform="translate(181.591797 0.09375)" xlink:href="#DejaVuSans-20"/>
    <use transform="translate(232.861328 0.09375)" xlink:href="#DejaVuSans-27f7"/>
    <use transform="translate(395.703125 0.09375)" xlink:href="#DejaVuSans-20"/>
    <use transform="translate(427.490234 0.09375)" xlink:href="#DejaVuSans-4e"/>
    <use transform="translate(502.294922 0.09375)" xlink:href="#DejaVuSans-54"/>
    <use transform="translate(563.378906 0.09375)" xlink:href="#DejaVuSans-4b"/>
   </g>
  </g>
 </g>
 <defs>
  <clipPath id="pc275443f50">
   <rect height="168.524944" width="168.524944" x="57.401149" y="30.7"/>
  </clipPath>
  <clipPath id="p62ccf1b98a">
   <rect height="168.524944" width="168.524944" x="283.275366" y="30.7"/>
  </clipPath>
  <clipPath id="p65f57ad274">
   <rect height="168.524944" width="168.524944" x="509.149583" y="30.7"/>
  </clipPath>
  <clipPath id="pf0f7874b4c">
   <rect height="168.524944" width="168.524944" x="57.401149" y="239.35"/>
  </clipPath>
  <clipPath id="p1308bb76a0">
   <rect height="168.524944" width="168.524944" x="283.275366" y="239.35"/>
  </clipPath>
  <clipPath id="p048b2deeae">
   <rect height="168.524944" width="168.524944" x="509.149583" y="239.35"/>
  </clipPath>
 </defs>
</svg>
