<?xml version="1.0" encoding="utf-8" standalone="no"?>
<!DOCTYPE svg PUBLIC "-//W3C//DTD SVG 1.1//EN"
  "http://www.w3.org/Graphics/SVG/1.1/DTD/svg11.dtd">
<svg height="432pt" version="1.1" viewBox="0 0 720 432" width="720pt" xmlns="http://www.w3.org/2000/svg" xmlns:xlink="http://www.w3.org/1999/xlink">
 <metadata>
  <rdf:RDF xmlns:cc="http://creativecommons.org/ns#" xmlns:dc="http://purl.org/dc/elements/1.1/" xmlns:rdf="http://www.w3.org/1999/02/22-rdf-syntax-ns#">
   <cc:Work>
    <dc:type rdf:resource="http://purl.org/dc/dcmitype/StillImage"/>
    <dc:date>2022-05-04T17:39:23.213210</dc:date>
    <dc:format>image/svg+xml</dc:format>
    <dc:creator>
     <cc:Agent>
      <dc:title>Matplotlib v3.4.3, https://matplotlib.org/</dc:title>
     </cc:Agent>
    </dc:creator>
   </cc:Work>
  </rdf:RDF>
 </metadata>
 <defs>
  <style type="text/css">*{stroke-linecap:butt;stroke-linejoin:round;}</style>
 </defs>
 <g id="figure_1">
  <g id="patch_1">
   <path d="M 0 432 
L 720 432 
L 720 0 
L 0 0 
z
" style="fill:none;"/>
  </g>
  <g id="patch_2">
   <path d="M 56.87825 198.274944 
L 226.353194 198.274944 
L 226.353194 28.8 
L 56.87825 28.8 
z
" style="fill:none;opacity:0;"/>
  </g>
  <g id="pane3d_1">
   <g id="patch_3">
    <path d="M 69.674777 156.487854 
L 125.640938 109.575908 
L 124.862955 41.920495 
L 66.218524 84.71653 
" style="fill:#f2f2f2;opacity:0.5;stroke:#f2f2f2;stroke-linejoin:miter;"/>
   </g>
  </g>
  <g id="pane3d_2">
   <g id="patch_4">
    <path d="M 125.640938 109.575908 
L 215.446659 135.678885 
L 218.651508 65.69316 
L 124.862955 41.920495 
" style="fill:#e6e6e6;opacity:0.5;stroke:#e6e6e6;stroke-linejoin:miter;"/>
   </g>
  </g>
  <g id="pane3d_3">
   <g id="patch_5">
    <path d="M 69.674777 156.487854 
L 164.873227 187.579668 
L 215.446659 135.678885 
L 125.640938 109.575908 
" style="fill:#ececec;opacity:0.5;stroke:#ececec;stroke-linejoin:miter;"/>
   </g>
  </g>
  <g id="axis3d_1">
   <g id="line2d_1">
    <path d="M 69.674777 156.487854 
L 164.873227 187.579668 
" style="fill:none;stroke:#000000;stroke-linecap:square;stroke-width:0.8;"/>
   </g>
   <g id="Line3DCollection_1">
    <path d="M 82.165941 160.567468 
L 137.469785 113.014087 
L 137.193778 45.045999 
" style="fill:none;stroke:#b0b0b0;stroke-width:0.8;"/>
    <path d="M 116.019142 171.623924 
L 169.459084 122.312113 
L 170.574942 53.507152 
" style="fill:none;stroke:#b0b0b0;stroke-width:0.8;"/>
    <path d="M 151.192233 183.111455 
L 202.589371 131.941779 
L 205.199701 62.283518 
" style="fill:none;stroke:#b0b0b0;stroke-width:0.8;"/>
   </g>
   <g id="xtick_1">
    <g id="line2d_2">
     <path d="M 82.647673 160.153248 
L 81.200402 161.397694 
" style="fill:none;stroke:#000000;stroke-linecap:square;stroke-width:0.8;"/>
    </g>
    <g id="text_1">
     <!-- −2 -->
     <g transform="translate(67.260355 183.983276)scale(0.1 -0.1)">
      <defs>
       <path d="M 678 2272 
L 4684 2272 
L 4684 1741 
L 678 1741 
L 678 2272 
z
" id="DejaVuSans-2212" transform="scale(0.015625)"/>
       <path d="M 1228 531 
L 3431 531 
L 3431 0 
L 469 0 
L 469 531 
Q 828 903 1448 1529 
Q 2069 2156 2228 2338 
Q 2531 2678 2651 2914 
Q 2772 3150 2772 3378 
Q 2772 3750 2511 3984 
Q 2250 4219 1831 4219 
Q 1534 4219 1204 4116 
Q 875 4013 500 3803 
L 500 4441 
Q 881 4594 1212 4672 
Q 1544 4750 1819 4750 
Q 2544 4750 2975 4387 
Q 3406 4025 3406 3419 
Q 3406 3131 3298 2873 
Q 3191 2616 2906 2266 
Q 2828 2175 2409 1742 
Q 1991 1309 1228 531 
z
" id="DejaVuSans-32" transform="scale(0.015625)"/>
      </defs>
      <use xlink:href="#DejaVuSans-2212"/>
      <use x="83.789062" xlink:href="#DejaVuSans-32"/>
     </g>
    </g>
   </g>
   <g id="xtick_2">
    <g id="line2d_3">
     <path d="M 116.485364 171.193717 
L 115.084652 172.486227 
" style="fill:none;stroke:#000000;stroke-linecap:square;stroke-width:0.8;"/>
    </g>
    <g id="text_2">
     <!-- 0 -->
     <g transform="translate(105.361067 195.410163)scale(0.1 -0.1)">
      <defs>
       <path d="M 2034 4250 
Q 1547 4250 1301 3770 
Q 1056 3291 1056 2328 
Q 1056 1369 1301 889 
Q 1547 409 2034 409 
Q 2525 409 2770 889 
Q 3016 1369 3016 2328 
Q 3016 3291 2770 3770 
Q 2525 4250 2034 4250 
z
M 2034 4750 
Q 2819 4750 3233 4129 
Q 3647 3509 3647 2328 
Q 3647 1150 3233 529 
Q 2819 -91 2034 -91 
Q 1250 -91 836 529 
Q 422 1150 422 2328 
Q 422 3509 836 4129 
Q 1250 4750 2034 4750 
z
" id="DejaVuSans-30" transform="scale(0.015625)"/>
      </defs>
      <use xlink:href="#DejaVuSans-30"/>
     </g>
    </g>
   </g>
   <g id="xtick_3">
    <g id="line2d_4">
     <path d="M 151.641358 182.664318 
L 150.291973 184.007731 
" style="fill:none;stroke:#000000;stroke-linecap:square;stroke-width:0.8;"/>
    </g>
    <g id="text_3">
     <!-- 2 -->
     <g transform="translate(140.602141 207.285288)scale(0.1 -0.1)">
      <use xlink:href="#DejaVuSans-32"/>
     </g>
    </g>
   </g>
  </g>
  <g id="axis3d_2">
   <g id="line2d_5">
    <path d="M 215.446659 135.678885 
L 164.873227 187.579668 
" style="fill:none;stroke:#000000;stroke-linecap:square;stroke-width:0.8;"/>
   </g>
   <g id="Line3DCollection_2">
    <path d="M 79.36654 75.121707 
L 82.185403 146.001199 
L 176.21717 175.937992 
" style="fill:none;stroke:#b0b0b0;stroke-width:0.8;"/>
    <path d="M 96.845669 62.366235 
L 98.850164 132.032466 
L 191.293076 160.466403 
" style="fill:none;stroke:#b0b0b0;stroke-width:0.8;"/>
    <path d="M 113.442735 50.254452 
L 114.708911 118.73935 
L 205.603057 145.780843 
" style="fill:none;stroke:#b0b0b0;stroke-width:0.8;"/>
   </g>
   <g id="xtick_4">
    <g id="line2d_6">
     <path d="M 175.425298 175.685884 
L 177.802933 176.442849 
" style="fill:none;stroke:#000000;stroke-linecap:square;stroke-width:0.8;"/>
    </g>
    <g id="text_4">
     <!-- −4 -->
     <g transform="translate(181.565814 196.776991)scale(0.1 -0.1)">
      <defs>
       <path d="M 2419 4116 
L 825 1625 
L 2419 1625 
L 2419 4116 
z
M 2253 4666 
L 3047 4666 
L 3047 1625 
L 3713 1625 
L 3713 1100 
L 3047 1100 
L 3047 0 
L 2419 0 
L 2419 1100 
L 313 1100 
L 313 1709 
L 2253 4666 
z
" id="DejaVuSans-34" transform="scale(0.015625)"/>
      </defs>
      <use xlink:href="#DejaVuSans-2212"/>
      <use x="83.789062" xlink:href="#DejaVuSans-34"/>
     </g>
    </g>
   </g>
   <g id="xtick_5">
    <g id="line2d_7">
     <path d="M 190.5156 160.227264 
L 192.849961 160.945275 
" style="fill:none;stroke:#000000;stroke-linecap:square;stroke-width:0.8;"/>
    </g>
    <g id="text_5">
     <!-- −2 -->
     <g transform="translate(196.323513 180.946001)scale(0.1 -0.1)">
      <use xlink:href="#DejaVuSans-2212"/>
      <use x="83.789062" xlink:href="#DejaVuSans-32"/>
     </g>
    </g>
   </g>
   <g id="xtick_6">
    <g id="line2d_8">
     <path d="M 204.839553 145.553696 
L 207.131913 146.235686 
" style="fill:none;stroke:#000000;stroke-linecap:square;stroke-width:0.8;"/>
    </g>
    <g id="text_6">
     <!-- 0 -->
     <g transform="translate(214.520635 165.920007)scale(0.1 -0.1)">
      <use xlink:href="#DejaVuSans-30"/>
     </g>
    </g>
   </g>
  </g>
  <g id="axis3d_3">
   <g id="line2d_9">
    <path d="M 215.446659 135.678885 
L 218.651508 65.69316 
" style="fill:none;stroke:#000000;stroke-linecap:square;stroke-width:0.8;"/>
   </g>
   <g id="Line3DCollection_3">
    <path d="M 216.206231 119.091762 
L 125.456254 93.515244 
L 68.856673 139.499405 
" style="fill:none;stroke:#b0b0b0;stroke-width:0.8;"/>
    <path d="M 217.068717 100.257266 
L 125.24677 75.298021 
L 67.926933 120.192746 
" style="fill:none;stroke:#b0b0b0;stroke-width:0.8;"/>
    <path d="M 217.95203 80.967983 
L 125.032475 56.662359 
L 66.973868 100.401729 
" style="fill:none;stroke:#b0b0b0;stroke-width:0.8;"/>
   </g>
   <g id="xtick_7">
    <g id="line2d_10">
     <path d="M 215.444211 118.876998 
L 217.732104 119.521806 
" style="fill:none;stroke:#000000;stroke-linecap:square;stroke-width:0.8;"/>
    </g>
    <g id="text_7">
     <!-- −1 -->
     <g transform="translate(227.241527 124.140948)scale(0.1 -0.1)">
      <defs>
       <path d="M 794 531 
L 1825 531 
L 1825 4091 
L 703 3866 
L 703 4441 
L 1819 4666 
L 2450 4666 
L 2450 531 
L 3481 531 
L 3481 0 
L 794 0 
L 794 531 
z
" id="DejaVuSans-31" transform="scale(0.015625)"/>
      </defs>
      <use xlink:href="#DejaVuSans-2212"/>
      <use x="83.789062" xlink:href="#DejaVuSans-31"/>
     </g>
    </g>
   </g>
   <g id="xtick_8">
    <g id="line2d_11">
     <path d="M 216.297261 100.047567 
L 218.613507 100.677174 
" style="fill:none;stroke:#000000;stroke-linecap:square;stroke-width:0.8;"/>
    </g>
    <g id="text_8">
     <!-- 0 -->
     <g transform="translate(232.50823 105.366704)scale(0.1 -0.1)">
      <use xlink:href="#DejaVuSans-30"/>
     </g>
    </g>
   </g>
   <g id="xtick_9">
    <g id="line2d_12">
     <path d="M 217.170901 80.763658 
L 219.51621 81.377137 
" style="fill:none;stroke:#000000;stroke-linecap:square;stroke-width:0.8;"/>
    </g>
    <g id="text_9">
     <!-- 1 -->
     <g transform="translate(233.610966 86.141332)scale(0.1 -0.1)">
      <use xlink:href="#DejaVuSans-31"/>
     </g>
    </g>
   </g>
  </g>
  <g id="axes_1">
   <g id="line2d_13">
    <path clip-path="url(#p706a55fbcf)" d="M 119.058983 127.125749 
L 115.421991 140.360036 
L 112.358165 152.081666 
L 109.656827 154.727205 
L 107.380524 154.09262 
L 105.527393 151.665749 
L 104.118287 149.43891 
L 103.117683 147.003235 
L 102.483788 143.775318 
L 102.179551 139.364739 
L 102.264178 136.952908 
L 102.646279 134.102863 
L 103.318545 131.525441 
L 104.244158 128.803831 
L 105.404476 126.200327 
L 106.774603 123.72144 
L 108.330425 121.381907 
L 110.048354 119.189958 
L 111.90573 117.161384 
L 113.868803 114.68462 
L 115.936718 112.773774 
L 118.081377 111.03768 
L 120.28359 109.470081 
L 122.525236 108.057671 
L 124.788522 106.709412 
L 127.059219 105.505939 
L 129.323064 104.437176 
L 131.567245 103.507179 
L 133.780127 102.70236 
L 135.951371 101.989266 
L 138.072247 101.360344 
L 140.134461 100.415293 
L 142.133964 99.586314 
L 144.065864 98.801382 
L 145.926744 98.100573 
L 147.714741 97.313544 
L 149.428769 96.603309 
L 151.070028 95.718278 
L 152.638876 94.94099 
L 154.136954 94.335984 
L 155.567758 93.810812 
L 156.935376 93.345463 
L 158.244629 92.928307 
L 159.501709 92.475936 
L 160.711876 92.067096 
L 161.881164 91.725656 
L 163.016512 91.416988 
L 164.12546 91.07863 
L 165.213993 90.779602 
L 166.287886 90.583287 
L 167.353948 90.454715 
L 168.417739 90.423887 
L 169.486921 90.353707 
L 170.56615 90.275132 
L 171.660198 90.16721 
L 172.772457 90.044956 
L 173.905555 89.914644 
L 175.061448 89.766469 
L 176.241104 89.589143 
L 177.445184 89.334829 
L 178.670835 89.071125 
L 179.915641 88.782965 
L 181.175624 88.470912 
L 182.441956 88.284779 
L 183.712851 88.018257 
L 184.979128 87.729277 
L 186.23168 87.416654 
L 187.459392 87.10585 
L 188.64287 87.072047 
L 189.776633 87.031141 
L 190.846343 86.990235 
L 191.832472 87.092284 
L 192.72285 87.191837 
L 193.50123 87.255123 
L 194.148881 87.301354 
L 194.646938 87.328162 
L 194.975918 87.331925 
L 195.090898 88.092915 
L 194.994689 88.881037 
L 194.678318 89.337838 
L 194.103926 90.017861 
L 193.260863 90.626131 
L 192.128286 91.206231 
L 190.687792 91.749235 
L 188.922165 92.241336 
L 186.808831 92.918482 
L 184.358395 92.824986 
L 181.535648 92.773564 
L 178.332589 92.675395 
L 174.741227 92.549722 
L 170.728814 94.093848 
L 166.341712 94.925803 
L 161.568423 95.915718 
L 156.418964 97.009288 
L 150.907503 98.0866 
L 145.05095 99.337727 
L 138.873275 100.775636 
L 132.404012 102.469723 
L 125.712081 107.402369 
L 119.058983 127.125749 
" style="fill:none;stroke:#1f77b4;stroke-linecap:square;stroke-width:1.5;"/>
   </g>
   <g id="text_10">
    <!-- Depth = 3, $\beta$ = 0.0 -->
    <g transform="translate(84.615722 22.8)scale(0.12 -0.12)">
     <defs>
      <path d="M 1259 4147 
L 1259 519 
L 2022 519 
Q 2988 519 3436 956 
Q 3884 1394 3884 2338 
Q 3884 3275 3436 3711 
Q 2988 4147 2022 4147 
L 1259 4147 
z
M 628 4666 
L 1925 4666 
Q 3281 4666 3915 4102 
Q 4550 3538 4550 2338 
Q 4550 1131 3912 565 
Q 3275 0 1925 0 
L 628 0 
L 628 4666 
z
" id="DejaVuSans-44" transform="scale(0.015625)"/>
      <path d="M 3597 1894 
L 3597 1613 
L 953 1613 
Q 991 1019 1311 708 
Q 1631 397 2203 397 
Q 2534 397 2845 478 
Q 3156 559 3463 722 
L 3463 178 
Q 3153 47 2828 -22 
Q 2503 -91 2169 -91 
Q 1331 -91 842 396 
Q 353 884 353 1716 
Q 353 2575 817 3079 
Q 1281 3584 2069 3584 
Q 2775 3584 3186 3129 
Q 3597 2675 3597 1894 
z
M 3022 2063 
Q 3016 2534 2758 2815 
Q 2500 3097 2075 3097 
Q 1594 3097 1305 2825 
Q 1016 2553 972 2059 
L 3022 2063 
z
" id="DejaVuSans-65" transform="scale(0.015625)"/>
      <path d="M 1159 525 
L 1159 -1331 
L 581 -1331 
L 581 3500 
L 1159 3500 
L 1159 2969 
Q 1341 3281 1617 3432 
Q 1894 3584 2278 3584 
Q 2916 3584 3314 3078 
Q 3713 2572 3713 1747 
Q 3713 922 3314 415 
Q 2916 -91 2278 -91 
Q 1894 -91 1617 61 
Q 1341 213 1159 525 
z
M 3116 1747 
Q 3116 2381 2855 2742 
Q 2594 3103 2138 3103 
Q 1681 3103 1420 2742 
Q 1159 2381 1159 1747 
Q 1159 1113 1420 752 
Q 1681 391 2138 391 
Q 2594 391 2855 752 
Q 3116 1113 3116 1747 
z
" id="DejaVuSans-70" transform="scale(0.015625)"/>
      <path d="M 1172 4494 
L 1172 3500 
L 2356 3500 
L 2356 3053 
L 1172 3053 
L 1172 1153 
Q 1172 725 1289 603 
Q 1406 481 1766 481 
L 2356 481 
L 2356 0 
L 1766 0 
Q 1100 0 847 248 
Q 594 497 594 1153 
L 594 3053 
L 172 3053 
L 172 3500 
L 594 3500 
L 594 4494 
L 1172 4494 
z
" id="DejaVuSans-74" transform="scale(0.015625)"/>
      <path d="M 3513 2113 
L 3513 0 
L 2938 0 
L 2938 2094 
Q 2938 2591 2744 2837 
Q 2550 3084 2163 3084 
Q 1697 3084 1428 2787 
Q 1159 2491 1159 1978 
L 1159 0 
L 581 0 
L 581 4863 
L 1159 4863 
L 1159 2956 
Q 1366 3272 1645 3428 
Q 1925 3584 2291 3584 
Q 2894 3584 3203 3211 
Q 3513 2838 3513 2113 
z
" id="DejaVuSans-68" transform="scale(0.015625)"/>
      <path id="DejaVuSans-20" transform="scale(0.015625)"/>
      <path d="M 678 2906 
L 4684 2906 
L 4684 2381 
L 678 2381 
L 678 2906 
z
M 678 1631 
L 4684 1631 
L 4684 1100 
L 678 1100 
L 678 1631 
z
" id="DejaVuSans-3d" transform="scale(0.015625)"/>
      <path d="M 2597 2516 
Q 3050 2419 3304 2112 
Q 3559 1806 3559 1356 
Q 3559 666 3084 287 
Q 2609 -91 1734 -91 
Q 1441 -91 1130 -33 
Q 819 25 488 141 
L 488 750 
Q 750 597 1062 519 
Q 1375 441 1716 441 
Q 2309 441 2620 675 
Q 2931 909 2931 1356 
Q 2931 1769 2642 2001 
Q 2353 2234 1838 2234 
L 1294 2234 
L 1294 2753 
L 1863 2753 
Q 2328 2753 2575 2939 
Q 2822 3125 2822 3475 
Q 2822 3834 2567 4026 
Q 2313 4219 1838 4219 
Q 1578 4219 1281 4162 
Q 984 4106 628 3988 
L 628 4550 
Q 988 4650 1302 4700 
Q 1616 4750 1894 4750 
Q 2613 4750 3031 4423 
Q 3450 4097 3450 3541 
Q 3450 3153 3228 2886 
Q 3006 2619 2597 2516 
z
" id="DejaVuSans-33" transform="scale(0.015625)"/>
      <path d="M 750 794 
L 1409 794 
L 1409 256 
L 897 -744 
L 494 -744 
L 750 256 
L 750 794 
z
" id="DejaVuSans-2c" transform="scale(0.015625)"/>
      <path d="M 872 216 
L 572 -1331 
L -6 -1331 
L 928 3478 
Q 1206 4903 2538 4903 
Q 3888 4903 3659 3700 
Q 3503 2844 2894 2531 
Q 3713 2250 3553 1416 
Q 3272 -69 1759 -66 
Q 1097 -63 872 216 
z
M 1019 966 
Q 1259 422 1875 425 
Q 2775 425 2966 1406 
Q 3138 2288 1675 2219 
L 1778 2750 
Q 2909 2731 3106 3750 
Q 3241 4438 2509 4434 
Q 1691 4434 1503 3459 
L 1019 966 
z
" id="DejaVuSans-Oblique-3b2" transform="scale(0.015625)"/>
      <path d="M 684 794 
L 1344 794 
L 1344 0 
L 684 0 
L 684 794 
z
" id="DejaVuSans-2e" transform="scale(0.015625)"/>
     </defs>
     <use transform="translate(0 0.390625)" xlink:href="#DejaVuSans-44"/>
     <use transform="translate(77.001953 0.390625)" xlink:href="#DejaVuSans-65"/>
     <use transform="translate(138.525391 0.390625)" xlink:href="#DejaVuSans-70"/>
     <use transform="translate(202.001953 0.390625)" xlink:href="#DejaVuSans-74"/>
     <use transform="translate(241.210938 0.390625)" xlink:href="#DejaVuSans-68"/>
     <use transform="translate(304.589844 0.390625)" xlink:href="#DejaVuSans-20"/>
     <use transform="translate(336.376953 0.390625)" xlink:href="#DejaVuSans-3d"/>
     <use transform="translate(420.166016 0.390625)" xlink:href="#DejaVuSans-20"/>
     <use transform="translate(451.953125 0.390625)" xlink:href="#DejaVuSans-33"/>
     <use transform="translate(515.576172 0.390625)" xlink:href="#DejaVuSans-2c"/>
     <use transform="translate(547.363281 0.390625)" xlink:href="#DejaVuSans-20"/>
     <use transform="translate(579.150391 0.390625)" xlink:href="#DejaVuSans-Oblique-3b2"/>
     <use transform="translate(642.96875 0.390625)" xlink:href="#DejaVuSans-20"/>
     <use transform="translate(674.755859 0.390625)" xlink:href="#DejaVuSans-3d"/>
     <use transform="translate(758.544922 0.390625)" xlink:href="#DejaVuSans-20"/>
     <use transform="translate(790.332031 0.390625)" xlink:href="#DejaVuSans-30"/>
     <use transform="translate(853.955078 0.390625)" xlink:href="#DejaVuSans-2e"/>
     <use transform="translate(885.742188 0.390625)" xlink:href="#DejaVuSans-30"/>
    </g>
   </g>
  </g>
  <g id="patch_6">
   <path d="M 282.739042 198.274944 
L 452.213986 198.274944 
L 452.213986 28.8 
L 282.739042 28.8 
z
" style="fill:none;opacity:0;"/>
  </g>
  <g id="pane3d_4">
   <g id="patch_7">
    <path d="M 295.535569 156.487854 
L 351.50173 109.575908 
L 350.723747 41.920495 
L 292.079316 84.71653 
" style="fill:#f2f2f2;opacity:0.5;stroke:#f2f2f2;stroke-linejoin:miter;"/>
   </g>
  </g>
  <g id="pane3d_5">
   <g id="patch_8">
    <path d="M 351.50173 109.575908 
L 441.307451 135.678885 
L 444.5123 65.69316 
L 350.723747 41.920495 
" style="fill:#e6e6e6;opacity:0.5;stroke:#e6e6e6;stroke-linejoin:miter;"/>
   </g>
  </g>
  <g id="pane3d_6">
   <g id="patch_9">
    <path d="M 295.535569 156.487854 
L 390.734019 187.579668 
L 441.307451 135.678885 
L 351.50173 109.575908 
" style="fill:#ececec;opacity:0.5;stroke:#ececec;stroke-linejoin:miter;"/>
   </g>
  </g>
  <g id="axis3d_4">
   <g id="line2d_14">
    <path d="M 295.535569 156.487854 
L 390.734019 187.579668 
" style="fill:none;stroke:#000000;stroke-linecap:square;stroke-width:0.8;"/>
   </g>
   <g id="Line3DCollection_4">
    <path d="M 308.026733 160.567468 
L 363.330577 113.014087 
L 363.05457 45.045999 
" style="fill:none;stroke:#b0b0b0;stroke-width:0.8;"/>
    <path d="M 341.879934 171.623924 
L 395.319876 122.312113 
L 396.435735 53.507152 
" style="fill:none;stroke:#b0b0b0;stroke-width:0.8;"/>
    <path d="M 377.053025 183.111455 
L 428.450163 131.941779 
L 431.060493 62.283518 
" style="fill:none;stroke:#b0b0b0;stroke-width:0.8;"/>
   </g>
   <g id="xtick_10">
    <g id="line2d_15">
     <path d="M 308.508465 160.153248 
L 307.061194 161.397694 
" style="fill:none;stroke:#000000;stroke-linecap:square;stroke-width:0.8;"/>
    </g>
    <g id="text_11">
     <!-- −2 -->
     <g transform="translate(293.121147 183.983276)scale(0.1 -0.1)">
      <use xlink:href="#DejaVuSans-2212"/>
      <use x="83.789062" xlink:href="#DejaVuSans-32"/>
     </g>
    </g>
   </g>
   <g id="xtick_11">
    <g id="line2d_16">
     <path d="M 342.346156 171.193717 
L 340.945444 172.486227 
" style="fill:none;stroke:#000000;stroke-linecap:square;stroke-width:0.8;"/>
    </g>
    <g id="text_12">
     <!-- 0 -->
     <g transform="translate(331.221859 195.410163)scale(0.1 -0.1)">
      <use xlink:href="#DejaVuSans-30"/>
     </g>
    </g>
   </g>
   <g id="xtick_12">
    <g id="line2d_17">
     <path d="M 377.50215 182.664318 
L 376.152765 184.007731 
" style="fill:none;stroke:#000000;stroke-linecap:square;stroke-width:0.8;"/>
    </g>
    <g id="text_13">
     <!-- 2 -->
     <g transform="translate(366.462933 207.285288)scale(0.1 -0.1)">
      <use xlink:href="#DejaVuSans-32"/>
     </g>
    </g>
   </g>
  </g>
  <g id="axis3d_5">
   <g id="line2d_18">
    <path d="M 441.307451 135.678885 
L 390.734019 187.579668 
" style="fill:none;stroke:#000000;stroke-linecap:square;stroke-width:0.8;"/>
   </g>
   <g id="Line3DCollection_5">
    <path d="M 305.227332 75.121707 
L 308.046195 146.001199 
L 402.077962 175.937992 
" style="fill:none;stroke:#b0b0b0;stroke-width:0.8;"/>
    <path d="M 322.706461 62.366235 
L 324.710956 132.032466 
L 417.153868 160.466403 
" style="fill:none;stroke:#b0b0b0;stroke-width:0.8;"/>
    <path d="M 339.303527 50.254452 
L 340.569703 118.73935 
L 431.463849 145.780843 
" style="fill:none;stroke:#b0b0b0;stroke-width:0.8;"/>
   </g>
   <g id="xtick_13">
    <g id="line2d_19">
     <path d="M 401.28609 175.685884 
L 403.663725 176.442849 
" style="fill:none;stroke:#000000;stroke-linecap:square;stroke-width:0.8;"/>
    </g>
    <g id="text_14">
     <!-- −4 -->
     <g transform="translate(407.426606 196.776991)scale(0.1 -0.1)">
      <use xlink:href="#DejaVuSans-2212"/>
      <use x="83.789062" xlink:href="#DejaVuSans-34"/>
     </g>
    </g>
   </g>
   <g id="xtick_14">
    <g id="line2d_20">
     <path d="M 416.376392 160.227264 
L 418.710753 160.945275 
" style="fill:none;stroke:#000000;stroke-linecap:square;stroke-width:0.8;"/>
    </g>
    <g id="text_15">
     <!-- −2 -->
     <g transform="translate(422.184305 180.946001)scale(0.1 -0.1)">
      <use xlink:href="#DejaVuSans-2212"/>
      <use x="83.789062" xlink:href="#DejaVuSans-32"/>
     </g>
    </g>
   </g>
   <g id="xtick_15">
    <g id="line2d_21">
     <path d="M 430.700345 145.553696 
L 432.992705 146.235686 
" style="fill:none;stroke:#000000;stroke-linecap:square;stroke-width:0.8;"/>
    </g>
    <g id="text_16">
     <!-- 0 -->
     <g transform="translate(440.381427 165.920007)scale(0.1 -0.1)">
      <use xlink:href="#DejaVuSans-30"/>
     </g>
    </g>
   </g>
  </g>
  <g id="axis3d_6">
   <g id="line2d_22">
    <path d="M 441.307451 135.678885 
L 444.5123 65.69316 
" style="fill:none;stroke:#000000;stroke-linecap:square;stroke-width:0.8;"/>
   </g>
   <g id="Line3DCollection_6">
    <path d="M 442.048336 119.499848 
L 351.321587 93.910184 
L 294.737601 139.917527 
" style="fill:none;stroke:#b0b0b0;stroke-width:0.8;"/>
    <path d="M 442.931614 100.211303 
L 351.107051 75.253589 
L 293.785455 120.145609 
" style="fill:none;stroke:#b0b0b0;stroke-width:0.8;"/>
    <path d="M 443.836747 80.445515 
L 350.887466 56.157896 
L 292.808833 99.865415 
" style="fill:none;stroke:#b0b0b0;stroke-width:0.8;"/>
   </g>
   <g id="xtick_16">
    <g id="line2d_23">
     <path d="M 441.28652 119.284976 
L 443.573799 119.930108 
" style="fill:none;stroke:#000000;stroke-linecap:square;stroke-width:0.8;"/>
    </g>
    <g id="text_17">
     <!-- −1 -->
     <g transform="translate(453.078985 124.547752)scale(0.1 -0.1)">
      <use xlink:href="#DejaVuSans-2212"/>
      <use x="83.789062" xlink:href="#DejaVuSans-31"/>
     </g>
    </g>
   </g>
   <g id="xtick_17">
    <g id="line2d_24">
     <path d="M 442.160135 100.001616 
L 444.47645 100.631185 
" style="fill:none;stroke:#000000;stroke-linecap:square;stroke-width:0.8;"/>
    </g>
    <g id="text_18">
     <!-- 0 -->
     <g transform="translate(458.37165 105.32089)scale(0.1 -0.1)">
      <use xlink:href="#DejaVuSans-30"/>
     </g>
    </g>
   </g>
   <g id="xtick_18">
    <g id="line2d_25">
     <path d="M 443.055356 80.241338 
L 445.401453 80.854372 
" style="fill:none;stroke:#000000;stroke-linecap:square;stroke-width:0.8;"/>
    </g>
    <g id="text_19">
     <!-- 1 -->
     <g transform="translate(459.501625 85.620626)scale(0.1 -0.1)">
      <use xlink:href="#DejaVuSans-31"/>
     </g>
    </g>
   </g>
  </g>
  <g id="axes_2">
   <g id="line2d_26">
    <path clip-path="url(#pc5c26974e8)" d="M 344.934787 128.074799 
L 341.326239 142.736307 
L 338.346122 158.312836 
L 335.579465 157.51391 
L 333.264581 155.075978 
L 331.361343 150.584268 
L 329.913697 146.894305 
L 328.97059 146.703412 
L 328.34681 143.858982 
L 327.974328 136.898938 
L 328.102714 136.118611 
L 328.469773 132.689156 
L 329.123752 129.380209 
L 329.948223 122.603252 
L 331.066442 118.083631 
L 332.43317 115.147881 
L 334.013821 113.520421 
L 335.780745 113.202705 
L 337.712696 114.502409 
L 339.658487 110.936488 
L 341.69449 106.935057 
L 343.83583 104.503165 
L 346.052454 103.288444 
L 348.321672 103.272102 
L 350.570127 100.118277 
L 352.841907 98.123056 
L 355.11508 96.921841 
L 357.372643 96.348886 
L 359.600651 96.35851 
L 361.787351 97.011119 
L 363.922636 98.513011 
L 365.988722 97.648704 
L 367.991758 96.882436 
L 369.926952 95.843069 
L 371.790493 95.760013 
L 373.581397 94.849425 
L 375.295812 94.790725 
L 376.940068 93.650007 
L 378.511842 92.706328 
L 380.011646 92.15726 
L 381.441835 91.983435 
L 382.809684 91.680878 
L 384.116559 91.681585 
L 385.374338 91.257387 
L 386.583298 91.051357 
L 387.750527 90.95974 
L 388.882312 90.996003 
L 389.990198 90.765025 
L 391.077181 90.598917 
L 392.150696 90.43838 
L 393.218106 90.223966 
L 394.278367 90.434608 
L 395.344835 90.53459 
L 396.417478 90.845823 
L 397.505138 91.085538 
L 398.611174 91.274574 
L 399.7383 91.418023 
L 400.88847 91.509563 
L 402.06287 91.530326 
L 403.259744 91.552241 
L 404.480424 91.440754 
L 405.723981 91.126912 
L 406.990042 90.473572 
L 408.244405 90.721763 
L 409.500938 90.958673 
L 410.76305 90.742858 
L 412.02651 89.926576 
L 413.25851 89.386918 
L 414.40879 90.488172 
L 415.530181 90.79738 
L 416.612841 90.226334 
L 417.572194 91.161541 
L 418.465285 91.09712 
L 419.205815 92.328217 
L 419.843437 92.630412 
L 420.364619 91.87079 
L 420.765884 89.565618 
L 420.843887 91.483511 
L 420.767229 91.660594 
L 420.47807 91.271748 
L 419.882444 92.653253 
L 418.972683 95.47763 
L 417.821381 96.793814 
L 416.407512 96.592774 
L 414.721953 94.417306 
L 412.60732 95.249297 
L 410.1717 94.709237 
L 407.3031 96.755196 
L 404.117021 96.235969 
L 400.602019 92.549722 
L 396.56533 95.545385 
L 392.185193 96.162638 
L 387.394534 99.0614 
L 382.266624 98.689353 
L 376.754146 101.319759 
L 370.91092 100.485227 
L 364.738473 102.173837 
L 358.243006 99.446014 
L 351.459168 97.461968 
L 344.934787 128.074799 
" style="fill:none;stroke:#1f77b4;stroke-linecap:square;stroke-width:1.5;"/>
   </g>
   <g id="text_20">
    <!-- Depth = 25, $\beta$ = 0.0003 -->
    <g transform="translate(295.236514 22.8)scale(0.12 -0.12)">
     <defs>
      <path d="M 691 4666 
L 3169 4666 
L 3169 4134 
L 1269 4134 
L 1269 2991 
Q 1406 3038 1543 3061 
Q 1681 3084 1819 3084 
Q 2600 3084 3056 2656 
Q 3513 2228 3513 1497 
Q 3513 744 3044 326 
Q 2575 -91 1722 -91 
Q 1428 -91 1123 -41 
Q 819 9 494 109 
L 494 744 
Q 775 591 1075 516 
Q 1375 441 1709 441 
Q 2250 441 2565 725 
Q 2881 1009 2881 1497 
Q 2881 1984 2565 2268 
Q 2250 2553 1709 2553 
Q 1456 2553 1204 2497 
Q 953 2441 691 2322 
L 691 4666 
z
" id="DejaVuSans-35" transform="scale(0.015625)"/>
     </defs>
     <use transform="translate(0 0.390625)" xlink:href="#DejaVuSans-44"/>
     <use transform="translate(77.001953 0.390625)" xlink:href="#DejaVuSans-65"/>
     <use transform="translate(138.525391 0.390625)" xlink:href="#DejaVuSans-70"/>
     <use transform="translate(202.001953 0.390625)" xlink:href="#DejaVuSans-74"/>
     <use transform="translate(241.210938 0.390625)" xlink:href="#DejaVuSans-68"/>
     <use transform="translate(304.589844 0.390625)" xlink:href="#DejaVuSans-20"/>
     <use transform="translate(336.376953 0.390625)" xlink:href="#DejaVuSans-3d"/>
     <use transform="translate(420.166016 0.390625)" xlink:href="#DejaVuSans-20"/>
     <use transform="translate(451.953125 0.390625)" xlink:href="#DejaVuSans-32"/>
     <use transform="translate(515.576172 0.390625)" xlink:href="#DejaVuSans-35"/>
     <use transform="translate(579.199219 0.390625)" xlink:href="#DejaVuSans-2c"/>
     <use transform="translate(610.986328 0.390625)" xlink:href="#DejaVuSans-20"/>
     <use transform="translate(642.773438 0.390625)" xlink:href="#DejaVuSans-Oblique-3b2"/>
     <use transform="translate(706.591797 0.390625)" xlink:href="#DejaVuSans-20"/>
     <use transform="translate(738.378906 0.390625)" xlink:href="#DejaVuSans-3d"/>
     <use transform="translate(822.167969 0.390625)" xlink:href="#DejaVuSans-20"/>
     <use transform="translate(853.955078 0.390625)" xlink:href="#DejaVuSans-30"/>
     <use transform="translate(917.578125 0.390625)" xlink:href="#DejaVuSans-2e"/>
     <use transform="translate(949.365234 0.390625)" xlink:href="#DejaVuSans-30"/>
     <use transform="translate(1012.988281 0.390625)" xlink:href="#DejaVuSans-30"/>
     <use transform="translate(1076.611328 0.390625)" xlink:href="#DejaVuSans-30"/>
     <use transform="translate(1140.234375 0.390625)" xlink:href="#DejaVuSans-33"/>
    </g>
   </g>
  </g>
  <g id="patch_10">
   <path d="M 508.599834 198.274944 
L 678.074778 198.274944 
L 678.074778 28.8 
L 508.599834 28.8 
z
" style="fill:none;opacity:0;"/>
  </g>
  <g id="pane3d_7">
   <g id="patch_11">
    <path d="M 521.396361 156.487854 
L 577.362523 109.575908 
L 576.584539 41.920495 
L 517.940109 84.71653 
" style="fill:#f2f2f2;opacity:0.5;stroke:#f2f2f2;stroke-linejoin:miter;"/>
   </g>
  </g>
  <g id="pane3d_8">
   <g id="patch_12">
    <path d="M 577.362523 109.575908 
L 667.168243 135.678885 
L 670.373092 65.69316 
L 576.584539 41.920495 
" style="fill:#e6e6e6;opacity:0.5;stroke:#e6e6e6;stroke-linejoin:miter;"/>
   </g>
  </g>
  <g id="pane3d_9">
   <g id="patch_13">
    <path d="M 521.396361 156.487854 
L 616.594811 187.579668 
L 667.168243 135.678885 
L 577.362523 109.575908 
" style="fill:#ececec;opacity:0.5;stroke:#ececec;stroke-linejoin:miter;"/>
   </g>
  </g>
  <g id="axis3d_7">
   <g id="line2d_27">
    <path d="M 521.396361 156.487854 
L 616.594811 187.579668 
" style="fill:none;stroke:#000000;stroke-linecap:square;stroke-width:0.8;"/>
   </g>
   <g id="Line3DCollection_7">
    <path d="M 533.887525 160.567468 
L 589.191369 113.014087 
L 588.915362 45.045999 
" style="fill:none;stroke:#b0b0b0;stroke-width:0.8;"/>
    <path d="M 567.740726 171.623924 
L 621.180668 122.312113 
L 622.296527 53.507152 
" style="fill:none;stroke:#b0b0b0;stroke-width:0.8;"/>
    <path d="M 602.913817 183.111455 
L 654.310955 131.941779 
L 656.921285 62.283518 
" style="fill:none;stroke:#b0b0b0;stroke-width:0.8;"/>
   </g>
   <g id="xtick_19">
    <g id="line2d_28">
     <path d="M 534.369257 160.153248 
L 532.921986 161.397694 
" style="fill:none;stroke:#000000;stroke-linecap:square;stroke-width:0.8;"/>
    </g>
    <g id="text_21">
     <!-- −2 -->
     <g transform="translate(518.981939 183.983276)scale(0.1 -0.1)">
      <use xlink:href="#DejaVuSans-2212"/>
      <use x="83.789062" xlink:href="#DejaVuSans-32"/>
     </g>
    </g>
   </g>
   <g id="xtick_20">
    <g id="line2d_29">
     <path d="M 568.206948 171.193717 
L 566.806236 172.486227 
" style="fill:none;stroke:#000000;stroke-linecap:square;stroke-width:0.8;"/>
    </g>
    <g id="text_22">
     <!-- 0 -->
     <g transform="translate(557.082651 195.410163)scale(0.1 -0.1)">
      <use xlink:href="#DejaVuSans-30"/>
     </g>
    </g>
   </g>
   <g id="xtick_21">
    <g id="line2d_30">
     <path d="M 603.362942 182.664318 
L 602.013557 184.007731 
" style="fill:none;stroke:#000000;stroke-linecap:square;stroke-width:0.8;"/>
    </g>
    <g id="text_23">
     <!-- 2 -->
     <g transform="translate(592.323725 207.285288)scale(0.1 -0.1)">
      <use xlink:href="#DejaVuSans-32"/>
     </g>
    </g>
   </g>
  </g>
  <g id="axis3d_8">
   <g id="line2d_31">
    <path d="M 667.168243 135.678885 
L 616.594811 187.579668 
" style="fill:none;stroke:#000000;stroke-linecap:square;stroke-width:0.8;"/>
   </g>
   <g id="Line3DCollection_8">
    <path d="M 531.088124 75.121707 
L 533.906988 146.001199 
L 627.938754 175.937992 
" style="fill:none;stroke:#b0b0b0;stroke-width:0.8;"/>
    <path d="M 548.567253 62.366235 
L 550.571748 132.032466 
L 643.01466 160.466403 
" style="fill:none;stroke:#b0b0b0;stroke-width:0.8;"/>
    <path d="M 565.164319 50.254452 
L 566.430495 118.73935 
L 657.324641 145.780843 
" style="fill:none;stroke:#b0b0b0;stroke-width:0.8;"/>
   </g>
   <g id="xtick_22">
    <g id="line2d_32">
     <path d="M 627.146882 175.685884 
L 629.524517 176.442849 
" style="fill:none;stroke:#000000;stroke-linecap:square;stroke-width:0.8;"/>
    </g>
    <g id="text_24">
     <!-- −4 -->
     <g transform="translate(633.287398 196.776991)scale(0.1 -0.1)">
      <use xlink:href="#DejaVuSans-2212"/>
      <use x="83.789062" xlink:href="#DejaVuSans-34"/>
     </g>
    </g>
   </g>
   <g id="xtick_23">
    <g id="line2d_33">
     <path d="M 642.237184 160.227264 
L 644.571545 160.945275 
" style="fill:none;stroke:#000000;stroke-linecap:square;stroke-width:0.8;"/>
    </g>
    <g id="text_25">
     <!-- −2 -->
     <g transform="translate(648.045097 180.946001)scale(0.1 -0.1)">
      <use xlink:href="#DejaVuSans-2212"/>
      <use x="83.789062" xlink:href="#DejaVuSans-32"/>
     </g>
    </g>
   </g>
   <g id="xtick_24">
    <g id="line2d_34">
     <path d="M 656.561137 145.553696 
L 658.853497 146.235686 
" style="fill:none;stroke:#000000;stroke-linecap:square;stroke-width:0.8;"/>
    </g>
    <g id="text_26">
     <!-- 0 -->
     <g transform="translate(666.242219 165.920007)scale(0.1 -0.1)">
      <use xlink:href="#DejaVuSans-30"/>
     </g>
    </g>
   </g>
  </g>
  <g id="axis3d_9">
   <g id="line2d_35">
    <path d="M 667.168243 135.678885 
L 670.373092 65.69316 
" style="fill:none;stroke:#000000;stroke-linecap:square;stroke-width:0.8;"/>
   </g>
   <g id="Line3DCollection_9">
    <path d="M 667.826374 121.306989 
L 577.202492 95.659231 
L 520.687554 141.769014 
" style="fill:none;stroke:#b0b0b0;stroke-width:0.8;"/>
    <path d="M 668.706859 102.079434 
L 576.988611 77.059566 
L 519.738503 122.061359 
" style="fill:none;stroke:#b0b0b0;stroke-width:0.8;"/>
    <path d="M 669.609085 82.377119 
L 576.769705 58.023012 
L 518.765106 101.848141 
" style="fill:none;stroke:#b0b0b0;stroke-width:0.8;"/>
   </g>
   <g id="xtick_25">
    <g id="line2d_36">
     <path d="M 667.065462 121.091641 
L 669.350023 121.738202 
" style="fill:none;stroke:#000000;stroke-linecap:square;stroke-width:0.8;"/>
    </g>
    <g id="text_27">
     <!-- −1 -->
     <g transform="translate(678.836448 126.349229)scale(0.1 -0.1)">
      <use xlink:href="#DejaVuSans-2212"/>
      <use x="83.789062" xlink:href="#DejaVuSans-31"/>
     </g>
    </g>
   </g>
   <g id="xtick_26">
    <g id="line2d_37">
     <path d="M 667.936316 101.869237 
L 670.249818 102.500339 
" style="fill:none;stroke:#000000;stroke-linecap:square;stroke-width:0.8;"/>
    </g>
    <g id="text_28">
     <!-- 0 -->
     <g transform="translate(684.125638 107.18295)scale(0.1 -0.1)">
      <use xlink:href="#DejaVuSans-30"/>
     </g>
    </g>
   </g>
   <g id="xtick_27">
    <g id="line2d_38">
     <path d="M 668.828664 82.172394 
L 671.171848 82.787071 
" style="fill:none;stroke:#000000;stroke-linecap:square;stroke-width:0.8;"/>
    </g>
    <g id="text_29">
     <!-- 1 -->
     <g transform="translate(685.251997 87.545723)scale(0.1 -0.1)">
      <use xlink:href="#DejaVuSans-31"/>
     </g>
    </g>
   </g>
  </g>
  <g id="axes_3">
   <g id="line2d_39">
    <path clip-path="url(#p8fc46a9052)" d="M 570.839535 130.853659 
L 567.130858 139.664618 
L 564.244585 160.15873 
L 561.441641 157.576246 
L 559.125373 155.075978 
L 557.202799 149.8052 
L 555.579834 139.318455 
L 554.817064 146.158981 
L 554.208867 143.906467 
L 553.794596 135.38526 
L 553.956999 135.874704 
L 554.307371 131.810053 
L 554.962838 128.542472 
L 555.613986 114.8873 
L 556.720801 109.656387 
L 558.097834 106.832809 
L 559.693329 105.486676 
L 561.489771 106.12597 
L 563.553244 113.502397 
L 565.483897 109.071507 
L 567.45139 101.046894 
L 569.597986 98.441992 
L 571.834259 97.976963 
L 574.164221 101.915557 
L 576.376753 95.609773 
L 578.654891 93.604011 
L 580.936926 92.666097 
L 583.201942 92.279333 
L 585.436337 92.403207 
L 587.630132 93.397324 
L 589.779878 97.541561 
L 591.846119 96.210577 
L 593.851014 95.4963 
L 595.788001 93.270663 
L 597.652662 94.669701 
L 599.446923 92.859863 
L 601.158049 94.371779 
L 602.802993 93.172841 
L 604.374631 92.339812 
L 605.875525 91.673428 
L 607.301344 92.159855 
L 608.670285 91.704489 
L 609.971386 92.349351 
L 611.230326 91.751978 
L 612.435253 91.895704 
L 613.60083 91.897044 
L 614.727135 92.338428 
L 615.833954 92.118861 
L 616.917173 92.167804 
L 617.986609 92.22509 
L 619.053029 91.997406 
L 620.107053 92.540212 
L 621.172637 92.607755 
L 622.239996 93.153832 
L 623.32439 93.491913 
L 624.426915 93.783961 
L 625.549954 94.051919 
L 626.695617 94.278632 
L 627.867485 94.324577 
L 629.05301 94.79091 
L 630.263963 95.015893 
L 631.498829 94.967476 
L 632.7742 93.782968 
L 634.012256 94.603943 
L 635.240408 95.865371 
L 636.48931 96.016993 
L 637.769592 94.405544 
L 639.001707 93.736185 
L 640.088554 97.006556 
L 641.196595 97.623684 
L 642.326038 95.291662 
L 643.220229 98.31249 
L 644.161083 96.541235 
L 644.81292 100.567109 
L 645.422031 101.676866 
L 645.936153 101.052393 
L 646.458892 94.857092 
L 646.413671 100.636209 
L 646.437455 97.662556 
L 646.177746 96.376326 
L 645.56954 98.217053 
L 644.510353 106.000578 
L 643.339214 108.221001 
L 641.948676 107.566793 
L 640.441787 99.445191 
L 638.323362 100.664493 
L 635.902899 99.851354 
L 632.872703 109.176451 
L 629.700666 109.15901 
L 626.377581 96.987135 
L 622.338673 100.774381 
L 617.980535 100.839008 
L 613.128289 110.583913 
L 608.090655 103.392694 
L 602.564147 112.925406 
L 596.768475 105.004487 
L 590.636906 114.119639 
L 584.133793 103.606776 
L 577.318756 97.356746 
L 570.839535 130.853659 
" style="fill:none;stroke:#1f77b4;stroke-linecap:square;stroke-width:1.5;"/>
   </g>
   <g id="text_30">
    <!-- Depth = 100, $\beta$ = 0.0004 -->
    <g transform="translate(517.257306 22.8)scale(0.12 -0.12)">
     <use transform="translate(0 0.390625)" xlink:href="#DejaVuSans-44"/>
     <use transform="translate(77.001953 0.390625)" xlink:href="#DejaVuSans-65"/>
     <use transform="translate(138.525391 0.390625)" xlink:href="#DejaVuSans-70"/>
     <use transform="translate(202.001953 0.390625)" xlink:href="#DejaVuSans-74"/>
     <use transform="translate(241.210938 0.390625)" xlink:href="#DejaVuSans-68"/>
     <use transform="translate(304.589844 0.390625)" xlink:href="#DejaVuSans-20"/>
     <use transform="translate(336.376953 0.390625)" xlink:href="#DejaVuSans-3d"/>
     <use transform="translate(420.166016 0.390625)" xlink:href="#DejaVuSans-20"/>
     <use transform="translate(451.953125 0.390625)" xlink:href="#DejaVuSans-31"/>
     <use transform="translate(515.576172 0.390625)" xlink:href="#DejaVuSans-30"/>
     <use transform="translate(579.199219 0.390625)" xlink:href="#DejaVuSans-30"/>
     <use transform="translate(642.822266 0.390625)" xlink:href="#DejaVuSans-2c"/>
     <use transform="translate(674.609375 0.390625)" xlink:href="#DejaVuSans-20"/>
     <use transform="translate(706.396484 0.390625)" xlink:href="#DejaVuSans-Oblique-3b2"/>
     <use transform="translate(770.214844 0.390625)" xlink:href="#DejaVuSans-20"/>
     <use transform="translate(802.001953 0.390625)" xlink:href="#DejaVuSans-3d"/>
     <use transform="translate(885.791016 0.390625)" xlink:href="#DejaVuSans-20"/>
     <use transform="translate(917.578125 0.390625)" xlink:href="#DejaVuSans-30"/>
     <use transform="translate(981.201172 0.390625)" xlink:href="#DejaVuSans-2e"/>
     <use transform="translate(1012.988281 0.390625)" xlink:href="#DejaVuSans-30"/>
     <use transform="translate(1076.611328 0.390625)" xlink:href="#DejaVuSans-30"/>
     <use transform="translate(1140.234375 0.390625)" xlink:href="#DejaVuSans-30"/>
     <use transform="translate(1203.857422 0.390625)" xlink:href="#DejaVuSans-34"/>
    </g>
   </g>
  </g>
  <g id="patch_14">
   <path d="M 56.87825 407.874944 
L 226.353194 407.874944 
L 226.353194 238.4 
L 56.87825 238.4 
z
" style="fill:none;opacity:0;"/>
  </g>
  <g id="pane3d_10">
   <g id="patch_15">
    <path d="M 69.674777 366.087854 
L 125.640938 319.175908 
L 124.862955 251.520495 
L 66.218524 294.31653 
" style="fill:#f2f2f2;opacity:0.5;stroke:#f2f2f2;stroke-linejoin:miter;"/>
   </g>
  </g>
  <g id="pane3d_11">
   <g id="patch_16">
    <path d="M 125.640938 319.175908 
L 215.446659 345.278885 
L 218.651508 275.29316 
L 124.862955 251.520495 
" style="fill:#e6e6e6;opacity:0.5;stroke:#e6e6e6;stroke-linejoin:miter;"/>
   </g>
  </g>
  <g id="pane3d_12">
   <g id="patch_17">
    <path d="M 69.674777 366.087854 
L 164.873227 397.179668 
L 215.446659 345.278885 
L 125.640938 319.175908 
" style="fill:#ececec;opacity:0.5;stroke:#ececec;stroke-linejoin:miter;"/>
   </g>
  </g>
  <g id="axis3d_10">
   <g id="line2d_40">
    <path d="M 69.674777 366.087854 
L 164.873227 397.179668 
" style="fill:none;stroke:#000000;stroke-linecap:square;stroke-width:0.8;"/>
   </g>
   <g id="Line3DCollection_10">
    <path d="M 82.165941 370.167468 
L 137.469785 322.614087 
L 137.193778 254.645999 
" style="fill:none;stroke:#b0b0b0;stroke-width:0.8;"/>
    <path d="M 116.019142 381.223924 
L 169.459084 331.912113 
L 170.574942 263.107152 
" style="fill:none;stroke:#b0b0b0;stroke-width:0.8;"/>
    <path d="M 151.192233 392.711455 
L 202.589371 341.541779 
L 205.199701 271.883518 
" style="fill:none;stroke:#b0b0b0;stroke-width:0.8;"/>
   </g>
   <g id="xtick_28">
    <g id="line2d_41">
     <path d="M 82.647673 369.753248 
L 81.200402 370.997694 
" style="fill:none;stroke:#000000;stroke-linecap:square;stroke-width:0.8;"/>
    </g>
    <g id="text_31">
     <!-- −2 -->
     <g transform="translate(67.260355 393.583276)scale(0.1 -0.1)">
      <use xlink:href="#DejaVuSans-2212"/>
      <use x="83.789062" xlink:href="#DejaVuSans-32"/>
     </g>
    </g>
   </g>
   <g id="xtick_29">
    <g id="line2d_42">
     <path d="M 116.485364 380.793717 
L 115.084652 382.086227 
" style="fill:none;stroke:#000000;stroke-linecap:square;stroke-width:0.8;"/>
    </g>
    <g id="text_32">
     <!-- 0 -->
     <g transform="translate(105.361067 405.010163)scale(0.1 -0.1)">
      <use xlink:href="#DejaVuSans-30"/>
     </g>
    </g>
   </g>
   <g id="xtick_30">
    <g id="line2d_43">
     <path d="M 151.641358 392.264318 
L 150.291973 393.607731 
" style="fill:none;stroke:#000000;stroke-linecap:square;stroke-width:0.8;"/>
    </g>
    <g id="text_33">
     <!-- 2 -->
     <g transform="translate(140.602141 416.885288)scale(0.1 -0.1)">
      <use xlink:href="#DejaVuSans-32"/>
     </g>
    </g>
   </g>
  </g>
  <g id="axis3d_11">
   <g id="line2d_44">
    <path d="M 215.446659 345.278885 
L 164.873227 397.179668 
" style="fill:none;stroke:#000000;stroke-linecap:square;stroke-width:0.8;"/>
   </g>
   <g id="Line3DCollection_11">
    <path d="M 79.36654 284.721707 
L 82.185403 355.601199 
L 176.21717 385.537992 
" style="fill:none;stroke:#b0b0b0;stroke-width:0.8;"/>
    <path d="M 96.845669 271.966235 
L 98.850164 341.632466 
L 191.293076 370.066403 
" style="fill:none;stroke:#b0b0b0;stroke-width:0.8;"/>
    <path d="M 113.442735 259.854452 
L 114.708911 328.33935 
L 205.603057 355.380843 
" style="fill:none;stroke:#b0b0b0;stroke-width:0.8;"/>
   </g>
   <g id="xtick_31">
    <g id="line2d_45">
     <path d="M 175.425298 385.285884 
L 177.802933 386.042849 
" style="fill:none;stroke:#000000;stroke-linecap:square;stroke-width:0.8;"/>
    </g>
    <g id="text_34">
     <!-- −4 -->
     <g transform="translate(181.565814 406.376991)scale(0.1 -0.1)">
      <use xlink:href="#DejaVuSans-2212"/>
      <use x="83.789062" xlink:href="#DejaVuSans-34"/>
     </g>
    </g>
   </g>
   <g id="xtick_32">
    <g id="line2d_46">
     <path d="M 190.5156 369.827264 
L 192.849961 370.545275 
" style="fill:none;stroke:#000000;stroke-linecap:square;stroke-width:0.8;"/>
    </g>
    <g id="text_35">
     <!-- −2 -->
     <g transform="translate(196.323513 390.546001)scale(0.1 -0.1)">
      <use xlink:href="#DejaVuSans-2212"/>
      <use x="83.789062" xlink:href="#DejaVuSans-32"/>
     </g>
    </g>
   </g>
   <g id="xtick_33">
    <g id="line2d_47">
     <path d="M 204.839553 355.153696 
L 207.131913 355.835686 
" style="fill:none;stroke:#000000;stroke-linecap:square;stroke-width:0.8;"/>
    </g>
    <g id="text_36">
     <!-- 0 -->
     <g transform="translate(214.520635 375.520007)scale(0.1 -0.1)">
      <use xlink:href="#DejaVuSans-30"/>
     </g>
    </g>
   </g>
  </g>
  <g id="axis3d_12">
   <g id="line2d_48">
    <path d="M 215.446659 345.278885 
L 218.651508 275.29316 
" style="fill:none;stroke:#000000;stroke-linecap:square;stroke-width:0.8;"/>
   </g>
   <g id="Line3DCollection_12">
    <path d="M 215.939049 334.526329 
L 125.521196 308.762794 
L 69.144518 355.076687 
" style="fill:none;stroke:#b0b0b0;stroke-width:0.8;"/>
    <path d="M 217.080184 309.606868 
L 125.243987 284.655969 
L 67.914567 329.535953 
" style="fill:none;stroke:#b0b0b0;stroke-width:0.8;"/>
    <path d="M 218.258056 283.88516 
L 124.95829 259.811039 
L 66.643469 303.140785 
" style="fill:none;stroke:#b0b0b0;stroke-width:0.8;"/>
   </g>
   <g id="xtick_34">
    <g id="line2d_49">
     <path d="M 215.17995 334.310033 
L 217.459066 334.959441 
" style="fill:none;stroke:#000000;stroke-linecap:square;stroke-width:0.8;"/>
    </g>
    <g id="text_37">
     <!-- −1 -->
     <g transform="translate(226.907911 339.557283)scale(0.1 -0.1)">
      <use xlink:href="#DejaVuSans-2212"/>
      <use x="83.789062" xlink:href="#DejaVuSans-31"/>
     </g>
    </g>
   </g>
   <g id="xtick_35">
    <g id="line2d_50">
     <path d="M 216.308602 309.397238 
L 218.625225 310.026639 
" style="fill:none;stroke:#000000;stroke-linecap:square;stroke-width:0.8;"/>
    </g>
    <g id="text_38">
     <!-- 0 -->
     <g transform="translate(232.522546 314.717122)scale(0.1 -0.1)">
      <use xlink:href="#DejaVuSans-30"/>
     </g>
    </g>
   </g>
   <g id="xtick_36">
    <g id="line2d_51">
     <path d="M 217.473574 283.68274 
L 219.828958 284.2905 
" style="fill:none;stroke:#000000;stroke-linecap:square;stroke-width:0.8;"/>
    </g>
    <g id="text_39">
     <!-- 1 -->
     <g transform="translate(233.992982 289.081172)scale(0.1 -0.1)">
      <use xlink:href="#DejaVuSans-31"/>
     </g>
    </g>
   </g>
  </g>
  <g id="axes_4">
   <g id="line2d_52">
    <path clip-path="url(#p2b251b290f)" d="M 119.067292 337.251047 
L 115.335415 345.225813 
L 112.203803 354.117823 
L 109.522441 358.271962 
L 107.28318 359.578099 
L 105.466962 358.830974 
L 104.067234 357.051973 
L 103.105519 356.140722 
L 102.503432 354.112387 
L 102.234528 351.018295 
L 102.314489 348.438879 
L 102.689216 345.330289 
L 103.340832 341.985586 
L 104.237013 338.121152 
L 105.381807 334.874895 
L 106.747727 332.182024 
L 108.307981 329.9873 
L 110.036628 328.243168 
L 111.908702 326.9082 
L 113.878859 324.814656 
L 115.942146 322.681444 
L 118.085662 320.900976 
L 120.289066 319.438373 
L 122.533368 318.262434 
L 124.794715 316.824839 
L 127.064852 315.63832 
L 129.328921 314.677214 
L 131.573521 313.918169 
L 133.786712 313.339824 
L 135.958017 312.922561 
L 138.078415 312.64831 
L 140.138975 311.927281 
L 142.136211 311.213077 
L 144.065658 310.456633 
L 145.924075 309.81378 
L 147.709752 309.010197 
L 149.421526 308.303449 
L 151.060941 307.350496 
L 152.628311 306.480274 
L 154.125169 305.783086 
L 155.555133 305.147398 
L 156.922308 304.554815 
L 158.231414 304.007575 
L 159.488875 303.397069 
L 160.699796 302.821306 
L 161.869999 302.323332 
L 163.006635 301.847312 
L 164.117341 301.323873 
L 165.208234 300.814011 
L 166.286073 300.313496 
L 167.357207 299.831302 
L 168.425783 299.496309 
L 169.499515 299.162299 
L 170.582563 298.885364 
L 171.680216 298.607605 
L 172.796098 298.328133 
L 173.932951 298.046164 
L 175.092552 297.760921 
L 176.275636 297.471533 
L 177.483859 297.079882 
L 178.713919 296.677257 
L 179.963121 296.26122 
L 181.227547 295.828641 
L 182.497437 295.567306 
L 183.771772 295.235264 
L 185.041633 294.878839 
L 186.298062 294.49077 
L 187.528316 294.15669 
L 188.711925 294.185537 
L 189.846553 294.175644 
L 190.918506 294.113668 
L 191.903716 294.297707 
L 192.795013 294.410758 
L 193.569053 294.652464 
L 194.214751 294.78975 
L 194.714119 294.795732 
L 195.048626 294.638911 
L 195.167425 295.286039 
L 195.08161 295.743412 
L 194.764621 296.203499 
L 194.183051 297.083371 
L 193.321912 298.23796 
L 192.179883 299.087056 
L 190.73944 299.575982 
L 188.983854 299.640919 
L 186.870995 300.1929 
L 184.400472 300.755389 
L 181.547281 301.877335 
L 178.330487 302.373433 
L 174.741227 302.149722 
L 170.733026 303.442022 
L 166.332581 305.178188 
L 161.542327 307.882729 
L 156.394924 309.684933 
L 150.88548 312.718811 
L 145.0468 314.731775 
L 138.898572 318.404032 
L 132.467487 320.874581 
L 125.816801 326.157133 
L 119.067292 337.251047 
" style="fill:none;stroke:#1f77b4;stroke-linecap:square;stroke-width:1.5;"/>
   </g>
   <g id="text_40">
    <!-- $\ell$ = 2.0783 -->
    <g transform="translate(109.275722 232.4)scale(0.12 -0.12)">
     <defs>
      <path d="M 950 838 
Q 1078 213 1350 213 
Q 1531 213 1766 572 
L 2181 572 
Q 1994 253 1775 88 
Q 1538 -91 1319 -91 
Q 831 -91 634 344 
L 400 0 
L -88 0 
Q 250 459 500 888 
Q 469 1131 469 1397 
Q 469 1872 566 2347 
Q 931 4131 1256 4497 
Q 1481 4750 1866 4750 
Q 2256 4750 2256 4209 
Q 2253 3966 2197 3675 
Q 1972 2484 950 838 
z
M 947 1656 
Q 1531 2744 1709 3613 
Q 1803 4072 1803 4191 
Q 1803 4406 1725 4406 
Q 1384 4134 1081 2516 
Q 997 2063 947 1656 
z
" id="DejaVuSans-Oblique-2113" transform="scale(0.015625)"/>
      <path d="M 525 4666 
L 3525 4666 
L 3525 4397 
L 1831 0 
L 1172 0 
L 2766 4134 
L 525 4134 
L 525 4666 
z
" id="DejaVuSans-37" transform="scale(0.015625)"/>
      <path d="M 2034 2216 
Q 1584 2216 1326 1975 
Q 1069 1734 1069 1313 
Q 1069 891 1326 650 
Q 1584 409 2034 409 
Q 2484 409 2743 651 
Q 3003 894 3003 1313 
Q 3003 1734 2745 1975 
Q 2488 2216 2034 2216 
z
M 1403 2484 
Q 997 2584 770 2862 
Q 544 3141 544 3541 
Q 544 4100 942 4425 
Q 1341 4750 2034 4750 
Q 2731 4750 3128 4425 
Q 3525 4100 3525 3541 
Q 3525 3141 3298 2862 
Q 3072 2584 2669 2484 
Q 3125 2378 3379 2068 
Q 3634 1759 3634 1313 
Q 3634 634 3220 271 
Q 2806 -91 2034 -91 
Q 1263 -91 848 271 
Q 434 634 434 1313 
Q 434 1759 690 2068 
Q 947 2378 1403 2484 
z
M 1172 3481 
Q 1172 3119 1398 2916 
Q 1625 2713 2034 2713 
Q 2441 2713 2670 2916 
Q 2900 3119 2900 3481 
Q 2900 3844 2670 4047 
Q 2441 4250 2034 4250 
Q 1625 4250 1398 4047 
Q 1172 3844 1172 3481 
z
" id="DejaVuSans-38" transform="scale(0.015625)"/>
     </defs>
     <use transform="translate(0 0.78125)" xlink:href="#DejaVuSans-Oblique-2113"/>
     <use transform="translate(41.308594 0.78125)" xlink:href="#DejaVuSans-20"/>
     <use transform="translate(73.095703 0.78125)" xlink:href="#DejaVuSans-3d"/>
     <use transform="translate(156.884766 0.78125)" xlink:href="#DejaVuSans-20"/>
     <use transform="translate(188.671875 0.78125)" xlink:href="#DejaVuSans-32"/>
     <use transform="translate(252.294922 0.78125)" xlink:href="#DejaVuSans-2e"/>
     <use transform="translate(284.082031 0.78125)" xlink:href="#DejaVuSans-30"/>
     <use transform="translate(347.705078 0.78125)" xlink:href="#DejaVuSans-37"/>
     <use transform="translate(411.328125 0.78125)" xlink:href="#DejaVuSans-38"/>
     <use transform="translate(474.951172 0.78125)" xlink:href="#DejaVuSans-33"/>
    </g>
   </g>
  </g>
  <g id="patch_18">
   <path d="M 282.739042 407.874944 
L 452.213986 407.874944 
L 452.213986 238.4 
L 282.739042 238.4 
z
" style="fill:none;opacity:0;"/>
  </g>
  <g id="pane3d_13">
   <g id="patch_19">
    <path d="M 295.535569 366.087854 
L 351.50173 319.175908 
L 350.723747 251.520495 
L 292.079316 294.31653 
" style="fill:#f2f2f2;opacity:0.5;stroke:#f2f2f2;stroke-linejoin:miter;"/>
   </g>
  </g>
  <g id="pane3d_14">
   <g id="patch_20">
    <path d="M 351.50173 319.175908 
L 441.307451 345.278885 
L 444.5123 275.29316 
L 350.723747 251.520495 
" style="fill:#e6e6e6;opacity:0.5;stroke:#e6e6e6;stroke-linejoin:miter;"/>
   </g>
  </g>
  <g id="pane3d_15">
   <g id="patch_21">
    <path d="M 295.535569 366.087854 
L 390.734019 397.179668 
L 441.307451 345.278885 
L 351.50173 319.175908 
" style="fill:#ececec;opacity:0.5;stroke:#ececec;stroke-linejoin:miter;"/>
   </g>
  </g>
  <g id="axis3d_13">
   <g id="line2d_53">
    <path d="M 295.535569 366.087854 
L 390.734019 397.179668 
" style="fill:none;stroke:#000000;stroke-linecap:square;stroke-width:0.8;"/>
   </g>
   <g id="Line3DCollection_13">
    <path d="M 308.026733 370.167468 
L 363.330577 322.614087 
L 363.05457 254.645999 
" style="fill:none;stroke:#b0b0b0;stroke-width:0.8;"/>
    <path d="M 341.879934 381.223924 
L 395.319876 331.912113 
L 396.435735 263.107152 
" style="fill:none;stroke:#b0b0b0;stroke-width:0.8;"/>
    <path d="M 377.053025 392.711455 
L 428.450163 341.541779 
L 431.060493 271.883518 
" style="fill:none;stroke:#b0b0b0;stroke-width:0.8;"/>
   </g>
   <g id="xtick_37">
    <g id="line2d_54">
     <path d="M 308.508465 369.753248 
L 307.061194 370.997694 
" style="fill:none;stroke:#000000;stroke-linecap:square;stroke-width:0.8;"/>
    </g>
    <g id="text_41">
     <!-- −2 -->
     <g transform="translate(293.121147 393.583276)scale(0.1 -0.1)">
      <use xlink:href="#DejaVuSans-2212"/>
      <use x="83.789062" xlink:href="#DejaVuSans-32"/>
     </g>
    </g>
   </g>
   <g id="xtick_38">
    <g id="line2d_55">
     <path d="M 342.346156 380.793717 
L 340.945444 382.086227 
" style="fill:none;stroke:#000000;stroke-linecap:square;stroke-width:0.8;"/>
    </g>
    <g id="text_42">
     <!-- 0 -->
     <g transform="translate(331.221859 405.010163)scale(0.1 -0.1)">
      <use xlink:href="#DejaVuSans-30"/>
     </g>
    </g>
   </g>
   <g id="xtick_39">
    <g id="line2d_56">
     <path d="M 377.50215 392.264318 
L 376.152765 393.607731 
" style="fill:none;stroke:#000000;stroke-linecap:square;stroke-width:0.8;"/>
    </g>
    <g id="text_43">
     <!-- 2 -->
     <g transform="translate(366.462933 416.885288)scale(0.1 -0.1)">
      <use xlink:href="#DejaVuSans-32"/>
     </g>
    </g>
   </g>
  </g>
  <g id="axis3d_14">
   <g id="line2d_57">
    <path d="M 441.307451 345.278885 
L 390.734019 397.179668 
" style="fill:none;stroke:#000000;stroke-linecap:square;stroke-width:0.8;"/>
   </g>
   <g id="Line3DCollection_14">
    <path d="M 305.227332 284.721707 
L 308.046195 355.601199 
L 402.077962 385.537992 
" style="fill:none;stroke:#b0b0b0;stroke-width:0.8;"/>
    <path d="M 322.706461 271.966235 
L 324.710956 341.632466 
L 417.153868 370.066403 
" style="fill:none;stroke:#b0b0b0;stroke-width:0.8;"/>
    <path d="M 339.303527 259.854452 
L 340.569703 328.33935 
L 431.463849 355.380843 
" style="fill:none;stroke:#b0b0b0;stroke-width:0.8;"/>
   </g>
   <g id="xtick_40">
    <g id="line2d_58">
     <path d="M 401.28609 385.285884 
L 403.663725 386.042849 
" style="fill:none;stroke:#000000;stroke-linecap:square;stroke-width:0.8;"/>
    </g>
    <g id="text_44">
     <!-- −4 -->
     <g transform="translate(407.426606 406.376991)scale(0.1 -0.1)">
      <use xlink:href="#DejaVuSans-2212"/>
      <use x="83.789062" xlink:href="#DejaVuSans-34"/>
     </g>
    </g>
   </g>
   <g id="xtick_41">
    <g id="line2d_59">
     <path d="M 416.376392 369.827264 
L 418.710753 370.545275 
" style="fill:none;stroke:#000000;stroke-linecap:square;stroke-width:0.8;"/>
    </g>
    <g id="text_45">
     <!-- −2 -->
     <g transform="translate(422.184305 390.546001)scale(0.1 -0.1)">
      <use xlink:href="#DejaVuSans-2212"/>
      <use x="83.789062" xlink:href="#DejaVuSans-32"/>
     </g>
    </g>
   </g>
   <g id="xtick_42">
    <g id="line2d_60">
     <path d="M 430.700345 355.153696 
L 432.992705 355.835686 
" style="fill:none;stroke:#000000;stroke-linecap:square;stroke-width:0.8;"/>
    </g>
    <g id="text_46">
     <!-- 0 -->
     <g transform="translate(440.381427 375.520007)scale(0.1 -0.1)">
      <use xlink:href="#DejaVuSans-30"/>
     </g>
    </g>
   </g>
  </g>
  <g id="axis3d_15">
   <g id="line2d_61">
    <path d="M 441.307451 345.278885 
L 444.5123 275.29316 
" style="fill:none;stroke:#000000;stroke-linecap:square;stroke-width:0.8;"/>
   </g>
   <g id="Line3DCollection_15">
    <path d="M 441.637213 338.077712 
L 351.421528 312.201317 
L 295.180476 358.714115 
" style="fill:none;stroke:#b0b0b0;stroke-width:0.8;"/>
    <path d="M 442.290819 323.804626 
L 351.262666 298.386287 
L 294.476299 344.091436 
" style="fill:none;stroke:#b0b0b0;stroke-width:0.8;"/>
    <path d="M 442.956423 309.269553 
L 351.101029 284.329902 
L 293.7587 329.190017 
" style="fill:none;stroke:#b0b0b0;stroke-width:0.8;"/>
    <path d="M 443.634356 294.465212 
L 350.936543 270.025782 
L 293.02729 314.001812 
" style="fill:none;stroke:#b0b0b0;stroke-width:0.8;"/>
    <path d="M 444.324967 279.38405 
L 350.769133 255.467318 
L 292.281666 298.518459 
" style="fill:none;stroke:#b0b0b0;stroke-width:0.8;"/>
   </g>
   <g id="xtick_43">
    <g id="line2d_62">
     <path d="M 440.879892 337.860491 
L 443.153666 338.512673 
" style="fill:none;stroke:#000000;stroke-linecap:square;stroke-width:0.8;"/>
    </g>
    <g id="text_47">
     <!-- −1.0 -->
     <g transform="translate(447.79532 343.097667)scale(0.1 -0.1)">
      <use xlink:href="#DejaVuSans-2212"/>
      <use x="83.789062" xlink:href="#DejaVuSans-31"/>
      <use x="147.412109" xlink:href="#DejaVuSans-2e"/>
      <use x="179.199219" xlink:href="#DejaVuSans-30"/>
     </g>
    </g>
   </g>
   <g id="xtick_44">
    <g id="line2d_63">
     <path d="M 441.526351 323.591159 
L 443.821599 324.232075 
" style="fill:none;stroke:#000000;stroke-linecap:square;stroke-width:0.8;"/>
    </g>
    <g id="text_48">
     <!-- −0.5 -->
     <g transform="translate(448.611439 328.869242)scale(0.1 -0.1)">
      <use xlink:href="#DejaVuSans-2212"/>
      <use x="83.789062" xlink:href="#DejaVuSans-30"/>
      <use x="147.412109" xlink:href="#DejaVuSans-2e"/>
      <use x="179.199219" xlink:href="#DejaVuSans-35"/>
     </g>
    </g>
   </g>
   <g id="xtick_45">
    <g id="line2d_64">
     <path d="M 442.184672 309.060015 
L 444.501802 309.689139 
" style="fill:none;stroke:#000000;stroke-linecap:square;stroke-width:0.8;"/>
    </g>
    <g id="text_49">
     <!-- 0.0 -->
     <g transform="translate(453.63231 314.380905)scale(0.1 -0.1)">
      <use xlink:href="#DejaVuSans-30"/>
      <use x="63.623047" xlink:href="#DejaVuSans-2e"/>
      <use x="95.410156" xlink:href="#DejaVuSans-30"/>
     </g>
    </g>
   </g>
   <g id="xtick_46">
    <g id="line2d_65">
     <path d="M 442.855183 294.259785 
L 445.194617 294.876568 
" style="fill:none;stroke:#000000;stroke-linecap:square;stroke-width:0.8;"/>
    </g>
    <g id="text_50">
     <!-- 0.5 -->
     <g transform="translate(454.478658 299.625468)scale(0.1 -0.1)">
      <use xlink:href="#DejaVuSans-30"/>
      <use x="63.623047" xlink:href="#DejaVuSans-2e"/>
      <use x="95.410156" xlink:href="#DejaVuSans-35"/>
     </g>
    </g>
   </g>
   <g id="xtick_47">
    <g id="line2d_66">
     <path d="M 443.538226 279.182927 
L 445.900397 279.786795 
" style="fill:none;stroke:#000000;stroke-linecap:square;stroke-width:0.8;"/>
    </g>
    <g id="text_51">
     <!-- 1.0 -->
     <g transform="translate(455.340754 284.595477)scale(0.1 -0.1)">
      <use xlink:href="#DejaVuSans-31"/>
      <use x="63.623047" xlink:href="#DejaVuSans-2e"/>
      <use x="95.410156" xlink:href="#DejaVuSans-30"/>
     </g>
    </g>
   </g>
  </g>
  <g id="axes_5">
   <g id="line2d_67">
    <path clip-path="url(#p28a9153916)" d="M 344.929632 337.348862 
L 341.188248 344.790545 
L 338.046673 353.239625 
L 335.363705 357.392063 
L 333.126264 358.82961 
L 331.312965 358.235127 
L 329.914039 356.507591 
L 328.96013 355.905678 
L 328.364224 354.112387 
L 328.100318 351.204959 
L 328.1792 348.585803 
L 328.550479 345.348127 
L 329.195265 341.740174 
L 330.082085 337.499253 
L 331.221828 334.026964 
L 332.58613 331.232805 
L 334.147449 329.04229 
L 335.879199 327.39356 
L 337.755858 326.234609 
L 339.728382 324.220686 
L 341.790925 322.000575 
L 343.935023 320.198551 
L 346.139919 318.770009 
L 348.386275 317.676059 
L 350.648185 316.215427 
L 352.919382 315.046425 
L 355.184775 314.137543 
L 357.430773 313.460646 
L 359.645286 312.990416 
L 361.817719 312.703913 
L 363.938958 312.580231 
L 365.999919 311.991451 
L 367.99715 311.345669 
L 369.926435 310.611026 
L 371.784625 310.005795 
L 373.570041 309.221832 
L 375.281479 308.546567 
L 376.920481 307.630514 
L 378.487544 306.766387 
L 379.984335 306.038031 
L 381.414244 305.378675 
L 382.781534 304.747659 
L 384.090776 304.167606 
L 385.348403 303.527172 
L 386.559502 302.925172 
L 387.730059 302.388732 
L 388.867076 301.876833 
L 389.978129 301.324151 
L 391.069393 300.786363 
L 392.147628 300.258732 
L 393.219163 299.751527 
L 394.288379 299.378012 
L 395.362813 299.00481 
L 396.446611 298.689033 
L 397.545097 298.370741 
L 398.661911 298.048458 
L 399.799815 297.720727 
L 400.960608 297.385999 
L 402.145053 297.042498 
L 403.354128 296.625376 
L 404.585201 296.191789 
L 405.835624 295.737911 
L 407.101532 295.258923 
L 408.372857 294.956299 
L 409.64766 294.62475 
L 410.918293 294.256773 
L 412.1759 293.84217 
L 413.406218 293.523872 
L 414.589526 293.580262 
L 415.724417 293.576113 
L 416.797368 293.493539 
L 417.782157 293.704525 
L 418.673983 293.810962 
L 419.446058 294.125901 
L 420.090967 294.295304 
L 420.59102 294.284385 
L 420.928032 294.0519 
L 421.048572 294.645843 
L 420.966876 294.97261 
L 420.6498 295.430849 
L 420.065328 296.395167 
L 419.197479 297.756807 
L 418.051926 298.712186 
L 416.611391 299.19283 
L 414.859354 299.116295 
L 412.74646 299.643982 
L 410.270913 300.372531 
L 407.409698 301.80803 
L 404.189861 302.439539 
L 400.602019 302.149722 
L 396.593886 303.437928 
L 392.190587 305.377243 
L 387.396904 308.446404 
L 382.250304 310.377372 
L 376.741993 313.696586 
L 370.906852 315.765601 
L 364.763105 319.591029 
L 358.336435 322.006 
L 351.688355 327.098032 
L 344.929632 337.348862 
" style="fill:none;stroke:#1f77b4;stroke-linecap:square;stroke-width:1.5;"/>
   </g>
   <g id="text_52">
    <!-- $\ell$ = 1.7379 -->
    <g transform="translate(335.616514 232.4)scale(0.12 -0.12)">
     <defs>
      <path d="M 703 97 
L 703 672 
Q 941 559 1184 500 
Q 1428 441 1663 441 
Q 2288 441 2617 861 
Q 2947 1281 2994 2138 
Q 2813 1869 2534 1725 
Q 2256 1581 1919 1581 
Q 1219 1581 811 2004 
Q 403 2428 403 3163 
Q 403 3881 828 4315 
Q 1253 4750 1959 4750 
Q 2769 4750 3195 4129 
Q 3622 3509 3622 2328 
Q 3622 1225 3098 567 
Q 2575 -91 1691 -91 
Q 1453 -91 1209 -44 
Q 966 3 703 97 
z
M 1959 2075 
Q 2384 2075 2632 2365 
Q 2881 2656 2881 3163 
Q 2881 3666 2632 3958 
Q 2384 4250 1959 4250 
Q 1534 4250 1286 3958 
Q 1038 3666 1038 3163 
Q 1038 2656 1286 2365 
Q 1534 2075 1959 2075 
z
" id="DejaVuSans-39" transform="scale(0.015625)"/>
     </defs>
     <use transform="translate(0 0.78125)" xlink:href="#DejaVuSans-Oblique-2113"/>
     <use transform="translate(41.308594 0.78125)" xlink:href="#DejaVuSans-20"/>
     <use transform="translate(73.095703 0.78125)" xlink:href="#DejaVuSans-3d"/>
     <use transform="translate(156.884766 0.78125)" xlink:href="#DejaVuSans-20"/>
     <use transform="translate(188.671875 0.78125)" xlink:href="#DejaVuSans-31"/>
     <use transform="translate(252.294922 0.78125)" xlink:href="#DejaVuSans-2e"/>
     <use transform="translate(276.332031 0.78125)" xlink:href="#DejaVuSans-37"/>
     <use transform="translate(339.955078 0.78125)" xlink:href="#DejaVuSans-33"/>
     <use transform="translate(403.578125 0.78125)" xlink:href="#DejaVuSans-37"/>
     <use transform="translate(467.201172 0.78125)" xlink:href="#DejaVuSans-39"/>
    </g>
   </g>
  </g>
  <g id="patch_22">
   <path d="M 508.599834 407.874944 
L 678.074778 407.874944 
L 678.074778 238.4 
L 508.599834 238.4 
z
" style="fill:none;opacity:0;"/>
  </g>
  <g id="pane3d_16">
   <g id="patch_23">
    <path d="M 521.396361 366.087854 
L 577.362523 319.175908 
L 576.584539 251.520495 
L 517.940109 294.31653 
" style="fill:#f2f2f2;opacity:0.5;stroke:#f2f2f2;stroke-linejoin:miter;"/>
   </g>
  </g>
  <g id="pane3d_17">
   <g id="patch_24">
    <path d="M 577.362523 319.175908 
L 667.168243 345.278885 
L 670.373092 275.29316 
L 576.584539 251.520495 
" style="fill:#e6e6e6;opacity:0.5;stroke:#e6e6e6;stroke-linejoin:miter;"/>
   </g>
  </g>
  <g id="pane3d_18">
   <g id="patch_25">
    <path d="M 521.396361 366.087854 
L 616.594811 397.179668 
L 667.168243 345.278885 
L 577.362523 319.175908 
" style="fill:#ececec;opacity:0.5;stroke:#ececec;stroke-linejoin:miter;"/>
   </g>
  </g>
  <g id="axis3d_16">
   <g id="line2d_68">
    <path d="M 521.396361 366.087854 
L 616.594811 397.179668 
" style="fill:none;stroke:#000000;stroke-linecap:square;stroke-width:0.8;"/>
   </g>
   <g id="Line3DCollection_16">
    <path d="M 533.887525 370.167468 
L 589.191369 322.614087 
L 588.915362 254.645999 
" style="fill:none;stroke:#b0b0b0;stroke-width:0.8;"/>
    <path d="M 567.740726 381.223924 
L 621.180668 331.912113 
L 622.296527 263.107152 
" style="fill:none;stroke:#b0b0b0;stroke-width:0.8;"/>
    <path d="M 602.913817 392.711455 
L 654.310955 341.541779 
L 656.921285 271.883518 
" style="fill:none;stroke:#b0b0b0;stroke-width:0.8;"/>
   </g>
   <g id="xtick_48">
    <g id="line2d_69">
     <path d="M 534.369257 369.753248 
L 532.921986 370.997694 
" style="fill:none;stroke:#000000;stroke-linecap:square;stroke-width:0.8;"/>
    </g>
    <g id="text_53">
     <!-- −2 -->
     <g transform="translate(518.981939 393.583276)scale(0.1 -0.1)">
      <use xlink:href="#DejaVuSans-2212"/>
      <use x="83.789062" xlink:href="#DejaVuSans-32"/>
     </g>
    </g>
   </g>
   <g id="xtick_49">
    <g id="line2d_70">
     <path d="M 568.206948 380.793717 
L 566.806236 382.086227 
" style="fill:none;stroke:#000000;stroke-linecap:square;stroke-width:0.8;"/>
    </g>
    <g id="text_54">
     <!-- 0 -->
     <g transform="translate(557.082651 405.010163)scale(0.1 -0.1)">
      <use xlink:href="#DejaVuSans-30"/>
     </g>
    </g>
   </g>
   <g id="xtick_50">
    <g id="line2d_71">
     <path d="M 603.362942 392.264318 
L 602.013557 393.607731 
" style="fill:none;stroke:#000000;stroke-linecap:square;stroke-width:0.8;"/>
    </g>
    <g id="text_55">
     <!-- 2 -->
     <g transform="translate(592.323725 416.885288)scale(0.1 -0.1)">
      <use xlink:href="#DejaVuSans-32"/>
     </g>
    </g>
   </g>
  </g>
  <g id="axis3d_17">
   <g id="line2d_72">
    <path d="M 667.168243 345.278885 
L 616.594811 397.179668 
" style="fill:none;stroke:#000000;stroke-linecap:square;stroke-width:0.8;"/>
   </g>
   <g id="Line3DCollection_17">
    <path d="M 531.088124 284.721707 
L 533.906988 355.601199 
L 627.938754 385.537992 
" style="fill:none;stroke:#b0b0b0;stroke-width:0.8;"/>
    <path d="M 548.567253 271.966235 
L 550.571748 341.632466 
L 643.01466 370.066403 
" style="fill:none;stroke:#b0b0b0;stroke-width:0.8;"/>
    <path d="M 565.164319 259.854452 
L 566.430495 328.33935 
L 657.324641 355.380843 
" style="fill:none;stroke:#b0b0b0;stroke-width:0.8;"/>
   </g>
   <g id="xtick_51">
    <g id="line2d_73">
     <path d="M 627.146882 385.285884 
L 629.524517 386.042849 
" style="fill:none;stroke:#000000;stroke-linecap:square;stroke-width:0.8;"/>
    </g>
    <g id="text_56">
     <!-- −4 -->
     <g transform="translate(633.287398 406.376991)scale(0.1 -0.1)">
      <use xlink:href="#DejaVuSans-2212"/>
      <use x="83.789062" xlink:href="#DejaVuSans-34"/>
     </g>
    </g>
   </g>
   <g id="xtick_52">
    <g id="line2d_74">
     <path d="M 642.237184 369.827264 
L 644.571545 370.545275 
" style="fill:none;stroke:#000000;stroke-linecap:square;stroke-width:0.8;"/>
    </g>
    <g id="text_57">
     <!-- −2 -->
     <g transform="translate(648.045097 390.546001)scale(0.1 -0.1)">
      <use xlink:href="#DejaVuSans-2212"/>
      <use x="83.789062" xlink:href="#DejaVuSans-32"/>
     </g>
    </g>
   </g>
   <g id="xtick_53">
    <g id="line2d_75">
     <path d="M 656.561137 355.153696 
L 658.853497 355.835686 
" style="fill:none;stroke:#000000;stroke-linecap:square;stroke-width:0.8;"/>
    </g>
    <g id="text_58">
     <!-- 0 -->
     <g transform="translate(666.242219 375.520007)scale(0.1 -0.1)">
      <use xlink:href="#DejaVuSans-30"/>
     </g>
    </g>
   </g>
  </g>
  <g id="axis3d_18">
   <g id="line2d_76">
    <path d="M 667.168243 345.278885 
L 670.373092 275.29316 
" style="fill:none;stroke:#000000;stroke-linecap:square;stroke-width:0.8;"/>
   </g>
   <g id="Line3DCollection_18">
    <path d="M 667.34783 341.357155 
L 577.31884 315.377197 
L 521.202994 362.072462 
" style="fill:none;stroke:#b0b0b0;stroke-width:0.8;"/>
    <path d="M 668.088721 325.177987 
L 577.138738 299.715056 
L 520.404869 345.498871 
" style="fill:none;stroke:#b0b0b0;stroke-width:0.8;"/>
    <path d="M 668.845079 308.661058 
L 576.955058 283.741717 
L 519.58944 328.565959 
" style="fill:none;stroke:#b0b0b0;stroke-width:0.8;"/>
    <path d="M 669.617394 291.795682 
L 576.767691 267.447811 
L 518.756138 311.26191 
" style="fill:none;stroke:#b0b0b0;stroke-width:0.8;"/>
   </g>
   <g id="xtick_54">
    <g id="line2d_77">
     <path d="M 666.59215 341.139086 
L 668.860992 341.793813 
" style="fill:none;stroke:#000000;stroke-linecap:square;stroke-width:0.8;"/>
    </g>
    <g id="text_59">
     <!-- −1.0 -->
     <g transform="translate(673.468588 346.367021)scale(0.1 -0.1)">
      <use xlink:href="#DejaVuSans-2212"/>
      <use x="83.789062" xlink:href="#DejaVuSans-31"/>
      <use x="147.412109" xlink:href="#DejaVuSans-2e"/>
      <use x="179.199219" xlink:href="#DejaVuSans-30"/>
     </g>
    </g>
   </g>
   <g id="xtick_55">
    <g id="line2d_78">
     <path d="M 667.324941 324.964154 
L 669.618122 325.606167 
" style="fill:none;stroke:#000000;stroke-linecap:square;stroke-width:0.8;"/>
    </g>
    <g id="text_60">
     <!-- −0.5 -->
     <g transform="translate(674.393707 330.238252)scale(0.1 -0.1)">
      <use xlink:href="#DejaVuSans-2212"/>
      <use x="83.789062" xlink:href="#DejaVuSans-30"/>
      <use x="147.412109" xlink:href="#DejaVuSans-2e"/>
      <use x="179.199219" xlink:href="#DejaVuSans-35"/>
     </g>
    </g>
   </g>
   <g id="xtick_56">
    <g id="line2d_79">
     <path d="M 668.073023 308.451687 
L 670.391071 309.080311 
" style="fill:none;stroke:#000000;stroke-linecap:square;stroke-width:0.8;"/>
    </g>
    <g id="text_61">
     <!-- 0.0 -->
     <g transform="translate(679.527891 313.774395)scale(0.1 -0.1)">
      <use xlink:href="#DejaVuSans-30"/>
      <use x="63.623047" xlink:href="#DejaVuSans-2e"/>
      <use x="95.410156" xlink:href="#DejaVuSans-30"/>
     </g>
    </g>
   </g>
   <g id="xtick_57">
    <g id="line2d_80">
     <path d="M 668.836881 291.591009 
L 671.180339 292.205532 
" style="fill:none;stroke:#000000;stroke-linecap:square;stroke-width:0.8;"/>
    </g>
    <g id="text_62">
     <!-- 0.5 -->
     <g transform="translate(680.492056 296.964897)scale(0.1 -0.1)">
      <use xlink:href="#DejaVuSans-30"/>
      <use x="63.623047" xlink:href="#DejaVuSans-2e"/>
      <use x="95.410156" xlink:href="#DejaVuSans-35"/>
     </g>
    </g>
   </g>
  </g>
  <g id="axes_6">
   <g id="line2d_81">
    <path clip-path="url(#p9c33bf4da7)" d="M 570.771927 336.179512 
L 567.043923 344.510749 
L 563.933115 354.496506 
L 561.256705 358.843308 
L 559.013078 359.929503 
L 557.183644 358.633459 
L 555.763155 356.053181 
L 554.819818 355.863678 
L 554.225016 354.112387 
L 553.952529 350.884461 
L 554.027516 348.118102 
L 554.387251 344.437726 
L 555.013561 340.100067 
L 555.869149 334.582311 
L 556.994598 330.433646 
L 558.357421 327.438288 
L 559.926942 325.43946 
L 561.674169 324.324315 
L 563.571664 324.012311 
L 565.548602 322.082085 
L 567.607742 319.508273 
L 569.753809 317.617263 
L 571.9643 316.321569 
L 574.218503 315.552022 
L 576.481712 313.946018 
L 578.75636 312.795366 
L 581.026408 312.043992 
L 583.277518 311.645501 
L 585.497005 311.560931 
L 587.673792 311.757017 
L 589.798379 312.204844 
L 591.860429 311.872002 
L 593.857975 311.375414 
L 595.787219 310.685622 
L 597.64517 310.200794 
L 599.430381 309.411732 
L 601.141429 308.790769 
L 602.780571 307.787584 
L 604.348006 306.826978 
L 605.845168 306.031547 
L 607.275342 305.336643 
L 608.643062 304.657003 
L 609.952622 304.049723 
L 611.211054 303.335799 
L 612.422909 302.675221 
L 613.594144 302.094443 
L 614.731793 301.546867 
L 615.843871 300.930751 
L 616.936181 300.334112 
L 618.015502 299.750102 
L 619.088125 299.191409 
L 620.157625 298.823581 
L 621.232372 298.45387 
L 622.315999 298.170688 
L 623.414344 297.88096 
L 624.53108 297.581839 
L 625.669013 297.270132 
L 626.83 296.942077 
L 628.014881 296.593095 
L 629.224622 296.160062 
L 630.456825 295.69049 
L 631.709017 295.174804 
L 632.977559 294.601007 
L 634.249164 294.308259 
L 635.52378 294.004831 
L 636.795494 293.613505 
L 638.055901 293.111233 
L 639.286964 292.78586 
L 640.465135 293.046737 
L 641.597155 293.156577 
L 642.670234 293.079176 
L 643.64892 293.503819 
L 644.538539 293.686763 
L 645.301997 294.283521 
L 645.943409 294.562988 
L 646.446349 294.457804 
L 646.794178 293.883029 
L 646.90995 294.627389 
L 646.833403 294.79198 
L 646.515558 295.273517 
L 645.918894 296.626633 
L 645.027808 298.748877 
L 643.872552 300.050506 
L 642.436644 300.413048 
L 640.704594 299.671017 
L 638.597052 300.025547 
L 636.119061 300.87423 
L 633.24314 302.974713 
L 630.028212 303.485952 
L 626.462397 302.171327 
L 622.458075 303.234841 
L 618.05273 305.280754 
L 613.251391 309.018337 
L 608.110185 310.493903 
L 602.601169 314.066 
L 596.768023 315.236374 
L 590.621729 318.903205 
L 584.182468 319.958608 
L 577.519735 324.526777 
L 570.771927 336.179512 
" style="fill:none;stroke:#1f77b4;stroke-linecap:square;stroke-width:1.5;"/>
   </g>
   <g id="text_63">
    <!-- $\ell$ = 1.1191 -->
    <g transform="translate(560.997306 232.4)scale(0.12 -0.12)">
     <use transform="translate(0 0.78125)" xlink:href="#DejaVuSans-Oblique-2113"/>
     <use transform="translate(41.308594 0.78125)" xlink:href="#DejaVuSans-20"/>
     <use transform="translate(73.095703 0.78125)" xlink:href="#DejaVuSans-3d"/>
     <use transform="translate(156.884766 0.78125)" xlink:href="#DejaVuSans-20"/>
     <use transform="translate(188.671875 0.78125)" xlink:href="#DejaVuSans-31"/>
     <use transform="translate(252.294922 0.78125)" xlink:href="#DejaVuSans-2e"/>
     <use transform="translate(284.082031 0.78125)" xlink:href="#DejaVuSans-31"/>
     <use transform="translate(347.705078 0.78125)" xlink:href="#DejaVuSans-31"/>
     <use transform="translate(411.328125 0.78125)" xlink:href="#DejaVuSans-39"/>
     <use transform="translate(474.951172 0.78125)" xlink:href="#DejaVuSans-31"/>
    </g>
   </g>
  </g>
  <g id="text_64">
   <!-- $\leftarrow$LPK $-$ NTK$\rightarrow$ -->
   <g transform="translate(23.518125 262.56)rotate(-90)scale(0.12 -0.12)">
    <defs>
     <path d="M 313 1866 
L 313 2147 
L 1541 3375 
L 1916 3000 
L 1188 2272 
L 4997 2272 
L 4997 1741 
L 1188 1741 
L 1916 1013 
L 1541 638 
L 313 1866 
z
" id="DejaVuSans-2190" transform="scale(0.015625)"/>
     <path d="M 628 4666 
L 1259 4666 
L 1259 531 
L 3531 531 
L 3531 0 
L 628 0 
L 628 4666 
z
" id="DejaVuSans-4c" transform="scale(0.015625)"/>
     <path d="M 1259 4147 
L 1259 2394 
L 2053 2394 
Q 2494 2394 2734 2622 
Q 2975 2850 2975 3272 
Q 2975 3691 2734 3919 
Q 2494 4147 2053 4147 
L 1259 4147 
z
M 628 4666 
L 2053 4666 
Q 2838 4666 3239 4311 
Q 3641 3956 3641 3272 
Q 3641 2581 3239 2228 
Q 2838 1875 2053 1875 
L 1259 1875 
L 1259 0 
L 628 0 
L 628 4666 
z
" id="DejaVuSans-50" transform="scale(0.015625)"/>
     <path d="M 628 4666 
L 1259 4666 
L 1259 2694 
L 3353 4666 
L 4166 4666 
L 1850 2491 
L 4331 0 
L 3500 0 
L 1259 2247 
L 1259 0 
L 628 0 
L 628 4666 
z
" id="DejaVuSans-4b" transform="scale(0.015625)"/>
     <path d="M 628 4666 
L 1478 4666 
L 3547 763 
L 3547 4666 
L 4159 4666 
L 4159 0 
L 3309 0 
L 1241 3903 
L 1241 0 
L 628 0 
L 628 4666 
z
" id="DejaVuSans-4e" transform="scale(0.015625)"/>
     <path d="M -19 4666 
L 3928 4666 
L 3928 4134 
L 2272 4134 
L 2272 0 
L 1638 0 
L 1638 4134 
L -19 4134 
L -19 4666 
z
" id="DejaVuSans-54" transform="scale(0.015625)"/>
     <path d="M 5050 2147 
L 5050 1866 
L 3822 638 
L 3447 1013 
L 4175 1741 
L 366 1741 
L 366 2272 
L 4175 2272 
L 3447 3000 
L 3822 3375 
L 5050 2147 
z
" id="DejaVuSans-2192" transform="scale(0.015625)"/>
    </defs>
    <use transform="translate(19.482422 0.09375)" xlink:href="#DejaVuSans-2190"/>
    <use transform="translate(122.753906 0.09375)" xlink:href="#DejaVuSans-4c"/>
    <use transform="translate(178.466797 0.09375)" xlink:href="#DejaVuSans-50"/>
    <use transform="translate(238.769531 0.09375)" xlink:href="#DejaVuSans-4b"/>
    <use transform="translate(304.345703 0.09375)" xlink:href="#DejaVuSans-20"/>
    <use transform="translate(336.132812 0.09375)" xlink:href="#DejaVuSans-2212"/>
    <use transform="translate(419.921875 0.09375)" xlink:href="#DejaVuSans-20"/>
    <use transform="translate(451.708984 0.09375)" xlink:href="#DejaVuSans-4e"/>
    <use transform="translate(526.513672 0.09375)" xlink:href="#DejaVuSans-54"/>
    <use transform="translate(587.597656 0.09375)" xlink:href="#DejaVuSans-4b"/>
    <use transform="translate(672.65625 0.09375)" xlink:href="#DejaVuSans-2192"/>
   </g>
  </g>
 </g>
 <defs>
  <clipPath id="p706a55fbcf">
   <rect height="169.474944" width="169.474944" x="56.87825" y="28.8"/>
  </clipPath>
  <clipPath id="pc5c26974e8">
   <rect height="169.474944" width="169.474944" x="282.739042" y="28.8"/>
  </clipPath>
  <clipPath id="p8fc46a9052">
   <rect height="169.474944" width="169.474944" x="508.599834" y="28.8"/>
  </clipPath>
  <clipPath id="p2b251b290f">
   <rect height="169.474944" width="169.474944" x="56.87825" y="238.4"/>
  </clipPath>
  <clipPath id="p28a9153916">
   <rect height="169.474944" width="169.474944" x="282.739042" y="238.4"/>
  </clipPath>
  <clipPath id="p9c33bf4da7">
   <rect height="169.474944" width="169.474944" x="508.599834" y="238.4"/>
  </clipPath>
 </defs>
</svg>
