<?xml version="1.0" encoding="utf-8" standalone="no"?>
<!DOCTYPE svg PUBLIC "-//W3C//DTD SVG 1.1//EN"
  "http://www.w3.org/Graphics/SVG/1.1/DTD/svg11.dtd">
<svg height="432pt" version="1.1" viewBox="0 0 720 432" width="720pt" xmlns="http://www.w3.org/2000/svg" xmlns:xlink="http://www.w3.org/1999/xlink">
 <metadata>
  <rdf:RDF xmlns:cc="http://creativecommons.org/ns#" xmlns:dc="http://purl.org/dc/elements/1.1/" xmlns:rdf="http://www.w3.org/1999/02/22-rdf-syntax-ns#">
   <cc:Work>
    <dc:type rdf:resource="http://purl.org/dc/dcmitype/StillImage"/>
    <dc:date>2022-05-04T17:43:05.497008</dc:date>
    <dc:format>image/svg+xml</dc:format>
    <dc:creator>
     <cc:Agent>
      <dc:title>Matplotlib v3.4.3, https://matplotlib.org/</dc:title>
     </cc:Agent>
    </dc:creator>
   </cc:Work>
  </rdf:RDF>
 </metadata>
 <defs>
  <style type="text/css">*{stroke-linecap:butt;stroke-linejoin:round;}</style>
 </defs>
 <g id="figure_1">
  <g id="patch_1">
   <path d="M 0 432 
L 720 432 
L 720 0 
L 0 0 
z
" style="fill:none;"/>
  </g>
  <g id="patch_2">
   <path d="M 57.995388 196.101771 
L 225.297159 196.101771 
L 225.297159 28.8 
L 57.995388 28.8 
z
" style="fill:none;opacity:0;"/>
  </g>
  <g id="pane3d_1">
   <g id="patch_3">
    <path d="M 70.627825 154.850516 
L 125.876334 108.54012 
L 125.108327 41.752252 
L 67.215892 83.999513 
" style="fill:#f2f2f2;opacity:0.5;stroke:#f2f2f2;stroke-linejoin:miter;"/>
   </g>
  </g>
  <g id="pane3d_2">
   <g id="patch_4">
    <path d="M 125.876334 108.54012 
L 214.530478 134.30838 
L 217.694231 65.220079 
L 125.108327 41.752252 
" style="fill:#e6e6e6;opacity:0.5;stroke:#e6e6e6;stroke-linejoin:miter;"/>
   </g>
  </g>
  <g id="pane3d_3">
   <g id="patch_5">
    <path d="M 70.627825 154.850516 
L 164.605548 185.54364 
L 214.530478 134.30838 
L 125.876334 108.54012 
" style="fill:#ececec;opacity:0.5;stroke:#ececec;stroke-linejoin:miter;"/>
   </g>
  </g>
  <g id="axis3d_1">
   <g id="line2d_1">
    <path d="M 70.627825 154.850516 
L 164.605548 185.54364 
" style="fill:none;stroke:#000000;stroke-linecap:square;stroke-width:0.8;"/>
   </g>
   <g id="Line3DCollection_1">
    <path d="M 76.31468 156.707843 
L 131.263339 110.10591 
L 130.723098 43.175432 
" style="fill:none;stroke:#b0b0b0;stroke-width:0.8;"/>
    <path d="M 96.11845 163.175754 
L 150.000434 115.552044 
L 150.263622 48.128386 
" style="fill:none;stroke:#b0b0b0;stroke-width:0.8;"/>
    <path d="M 116.377918 169.792496 
L 169.132601 121.113009 
L 170.23415 53.190332 
" style="fill:none;stroke:#b0b0b0;stroke-width:0.8;"/>
    <path d="M 137.108995 176.563266 
L 188.672468 126.792477 
L 190.649036 58.364911 
" style="fill:none;stroke:#b0b0b0;stroke-width:0.8;"/>
    <path d="M 158.328342 183.493504 
L 208.633209 132.594277 
L 211.523275 63.655922 
" style="fill:none;stroke:#b0b0b0;stroke-width:0.8;"/>
   </g>
   <g id="xtick_1">
    <g id="line2d_2">
     <path d="M 76.79317 156.302036 
L 75.355647 157.521198 
" style="fill:none;stroke:#000000;stroke-linecap:square;stroke-width:0.8;"/>
    </g>
    <g id="text_1">
     <!-- −1.0 -->
     <g transform="translate(56.627651 180.051505)scale(0.1 -0.1)">
      <defs>
       <path d="M 678 2272 
L 4684 2272 
L 4684 1741 
L 678 1741 
L 678 2272 
z
" id="DejaVuSans-2212" transform="scale(0.015625)"/>
       <path d="M 794 531 
L 1825 531 
L 1825 4091 
L 703 3866 
L 703 4441 
L 1819 4666 
L 2450 4666 
L 2450 531 
L 3481 531 
L 3481 0 
L 794 0 
L 794 531 
z
" id="DejaVuSans-31" transform="scale(0.015625)"/>
       <path d="M 684 794 
L 1344 794 
L 1344 0 
L 684 0 
L 684 794 
z
" id="DejaVuSans-2e" transform="scale(0.015625)"/>
       <path d="M 2034 4250 
Q 1547 4250 1301 3770 
Q 1056 3291 1056 2328 
Q 1056 1369 1301 889 
Q 1547 409 2034 409 
Q 2525 409 2770 889 
Q 3016 1369 3016 2328 
Q 3016 3291 2770 3770 
Q 2525 4250 2034 4250 
z
M 2034 4750 
Q 2819 4750 3233 4129 
Q 3647 3509 3647 2328 
Q 3647 1150 3233 529 
Q 2819 -91 2034 -91 
Q 1250 -91 836 529 
Q 422 1150 422 2328 
Q 422 3509 836 4129 
Q 1250 4750 2034 4750 
z
" id="DejaVuSans-30" transform="scale(0.015625)"/>
      </defs>
      <use xlink:href="#DejaVuSans-2212"/>
      <use x="83.789062" xlink:href="#DejaVuSans-31"/>
      <use x="147.412109" xlink:href="#DejaVuSans-2e"/>
      <use x="179.199219" xlink:href="#DejaVuSans-30"/>
     </g>
    </g>
   </g>
   <g id="xtick_2">
    <g id="line2d_3">
     <path d="M 96.588085 162.760666 
L 95.177143 164.007731 
" style="fill:none;stroke:#000000;stroke-linecap:square;stroke-width:0.8;"/>
    </g>
    <g id="text_2">
     <!-- −0.5 -->
     <g transform="translate(76.463773 186.738349)scale(0.1 -0.1)">
      <defs>
       <path d="M 691 4666 
L 3169 4666 
L 3169 4134 
L 1269 4134 
L 1269 2991 
Q 1406 3038 1543 3061 
Q 1681 3084 1819 3084 
Q 2600 3084 3056 2656 
Q 3513 2228 3513 1497 
Q 3513 744 3044 326 
Q 2575 -91 1722 -91 
Q 1428 -91 1123 -41 
Q 819 9 494 109 
L 494 744 
Q 775 591 1075 516 
Q 1375 441 1709 441 
Q 2250 441 2565 725 
Q 2881 1009 2881 1497 
Q 2881 1984 2565 2268 
Q 2250 2553 1709 2553 
Q 1456 2553 1204 2497 
Q 953 2441 691 2322 
L 691 4666 
z
" id="DejaVuSans-35" transform="scale(0.015625)"/>
      </defs>
      <use xlink:href="#DejaVuSans-2212"/>
      <use x="83.789062" xlink:href="#DejaVuSans-30"/>
      <use x="147.412109" xlink:href="#DejaVuSans-2e"/>
      <use x="179.199219" xlink:href="#DejaVuSans-35"/>
     </g>
    </g>
   </g>
   <g id="xtick_3">
    <g id="line2d_4">
     <path d="M 116.838161 169.367805 
L 115.455411 170.643741 
" style="fill:none;stroke:#000000;stroke-linecap:square;stroke-width:0.8;"/>
    </g>
    <g id="text_3">
     <!-- 0.0 -->
     <g transform="translate(100.948949 193.579994)scale(0.1 -0.1)">
      <use xlink:href="#DejaVuSans-30"/>
      <use x="63.623047" xlink:href="#DejaVuSans-2e"/>
      <use x="95.410156" xlink:href="#DejaVuSans-30"/>
     </g>
    </g>
   </g>
   <g id="xtick_4">
    <g id="line2d_5">
     <path d="M 137.55928 176.128635 
L 136.206424 177.434457 
" style="fill:none;stroke:#000000;stroke-linecap:square;stroke-width:0.8;"/>
    </g>
    <g id="text_4">
     <!-- 0.5 -->
     <g transform="translate(121.719623 200.581878)scale(0.1 -0.1)">
      <use xlink:href="#DejaVuSans-30"/>
      <use x="63.623047" xlink:href="#DejaVuSans-2e"/>
      <use x="95.410156" xlink:href="#DejaVuSans-35"/>
     </g>
    </g>
   </g>
   <g id="xtick_5">
    <g id="line2d_6">
     <path d="M 158.76807 183.048581 
L 157.44691 184.385351 
" style="fill:none;stroke:#000000;stroke-linecap:square;stroke-width:0.8;"/>
    </g>
    <g id="text_5">
     <!-- 1.0 -->
     <g transform="translate(142.982536 207.749699)scale(0.1 -0.1)">
      <use xlink:href="#DejaVuSans-31"/>
      <use x="63.623047" xlink:href="#DejaVuSans-2e"/>
      <use x="95.410156" xlink:href="#DejaVuSans-30"/>
     </g>
    </g>
   </g>
  </g>
  <g id="axis3d_2">
   <g id="line2d_7">
    <path d="M 214.530478 134.30838 
L 164.605548 185.54364 
" style="fill:none;stroke:#000000;stroke-linecap:square;stroke-width:0.8;"/>
   </g>
   <g id="Line3DCollection_2">
    <path d="M 71.219298 81.078011 
L 74.434915 151.659338 
L 168.059966 181.998556 
" style="fill:none;stroke:#b0b0b0;stroke-width:0.8;"/>
    <path d="M 84.597557 71.315167 
L 87.171633 140.983168 
L 179.601525 170.154078 
" style="fill:none;stroke:#b0b0b0;stroke-width:0.8;"/>
    <path d="M 97.456253 61.931476 
L 99.434773 130.703961 
L 190.691744 158.772785 
" style="fill:none;stroke:#b0b0b0;stroke-width:0.8;"/>
    <path d="M 109.825076 52.905272 
L 111.250265 120.799981 
L 201.356592 147.828027 
" style="fill:none;stroke:#b0b0b0;stroke-width:0.8;"/>
    <path d="M 121.731498 44.216508 
L 122.642181 111.251052 
L 211.620082 137.295162 
" style="fill:none;stroke:#b0b0b0;stroke-width:0.8;"/>
   </g>
   <g id="xtick_6">
    <g id="line2d_8">
     <path d="M 167.270985 181.742887 
L 169.639969 182.510556 
" style="fill:none;stroke:#000000;stroke-linecap:square;stroke-width:0.8;"/>
    </g>
    <g id="text_6">
     <!-- −1.0 -->
     <g transform="translate(168.803751 203.025035)scale(0.1 -0.1)">
      <use xlink:href="#DejaVuSans-2212"/>
      <use x="83.789062" xlink:href="#DejaVuSans-31"/>
      <use x="147.412109" xlink:href="#DejaVuSans-2e"/>
      <use x="179.199219" xlink:href="#DejaVuSans-30"/>
     </g>
    </g>
   </g>
   <g id="xtick_7">
    <g id="line2d_9">
     <path d="M 178.823402 169.908503 
L 181.159742 170.645852 
" style="fill:none;stroke:#000000;stroke-linecap:square;stroke-width:0.8;"/>
    </g>
    <g id="text_7">
     <!-- −0.5 -->
     <g transform="translate(180.098881 190.901456)scale(0.1 -0.1)">
      <use xlink:href="#DejaVuSans-2212"/>
      <use x="83.789062" xlink:href="#DejaVuSans-30"/>
      <use x="147.412109" xlink:href="#DejaVuSans-2e"/>
      <use x="179.199219" xlink:href="#DejaVuSans-35"/>
     </g>
    </g>
   </g>
   <g id="xtick_8">
    <g id="line2d_10">
     <path d="M 189.924242 158.536716 
L 192.228655 159.245508 
" style="fill:none;stroke:#000000;stroke-linecap:square;stroke-width:0.8;"/>
    </g>
    <g id="text_8">
     <!-- 0.0 -->
     <g transform="translate(195.141748 179.25241)scale(0.1 -0.1)">
      <use xlink:href="#DejaVuSans-30"/>
      <use x="63.623047" xlink:href="#DejaVuSans-2e"/>
      <use x="95.410156" xlink:href="#DejaVuSans-30"/>
     </g>
    </g>
   </g>
   <g id="xtick_9">
    <g id="line2d_11">
     <path d="M 200.599477 147.600924 
L 202.872669 148.282785 
" style="fill:none;stroke:#000000;stroke-linecap:square;stroke-width:0.8;"/>
    </g>
    <g id="text_9">
     <!-- 0.5 -->
     <g transform="translate(205.578124 168.050571)scale(0.1 -0.1)">
      <use xlink:href="#DejaVuSans-30"/>
      <use x="63.623047" xlink:href="#DejaVuSans-2e"/>
      <use x="95.410156" xlink:href="#DejaVuSans-35"/>
     </g>
    </g>
   </g>
   <g id="xtick_10">
    <g id="line2d_12">
     <path d="M 210.873121 137.076524 
L 213.115789 137.73296 
" style="fill:none;stroke:#000000;stroke-linecap:square;stroke-width:0.8;"/>
    </g>
    <g id="text_10">
     <!-- 1.0 -->
     <g transform="translate(215.621393 157.270671)scale(0.1 -0.1)">
      <use xlink:href="#DejaVuSans-31"/>
      <use x="63.623047" xlink:href="#DejaVuSans-2e"/>
      <use x="95.410156" xlink:href="#DejaVuSans-30"/>
     </g>
    </g>
   </g>
  </g>
  <g id="axis3d_3">
   <g id="line2d_13">
    <path d="M 214.530478 134.30838 
L 217.694231 65.220079 
" style="fill:none;stroke:#000000;stroke-linecap:square;stroke-width:0.8;"/>
   </g>
   <g id="Line3DCollection_3">
    <path d="M 215.231691 118.995671 
L 125.705833 93.71294 
L 69.872598 139.167721 
" style="fill:none;stroke:#b0b0b0;stroke-width:0.8;"/>
    <path d="M 216.110993 99.793963 
L 125.492256 75.139681 
L 68.924766 119.485373 
" style="fill:none;stroke:#b0b0b0;stroke-width:0.8;"/>
    <path d="M 217.012246 80.112903 
L 125.273606 56.125362 
L 67.952349 99.292519 
" style="fill:none;stroke:#b0b0b0;stroke-width:0.8;"/>
   </g>
   <g id="xtick_11">
    <g id="line2d_14">
     <path d="M 214.479973 118.78338 
L 216.736932 119.420761 
" style="fill:none;stroke:#000000;stroke-linecap:square;stroke-width:0.8;"/>
    </g>
    <g id="text_11">
     <!-- −1 -->
     <g transform="translate(226.253608 124.041638)scale(0.1 -0.1)">
      <use xlink:href="#DejaVuSans-2212"/>
      <use x="83.789062" xlink:href="#DejaVuSans-31"/>
     </g>
    </g>
   </g>
   <g id="xtick_12">
    <g id="line2d_15">
     <path d="M 215.349656 99.586829 
L 217.635518 100.208735 
" style="fill:none;stroke:#000000;stroke-linecap:square;stroke-width:0.8;"/>
    </g>
    <g id="text_12">
     <!-- 0 -->
     <g transform="translate(231.544123 104.902063)scale(0.1 -0.1)">
      <use xlink:href="#DejaVuSans-30"/>
     </g>
    </g>
   </g>
   <g id="xtick_13">
    <g id="line2d_16">
     <path d="M 216.24104 79.91125 
L 218.556556 80.516704 
" style="fill:none;stroke:#000000;stroke-linecap:square;stroke-width:0.8;"/>
    </g>
    <g id="text_13">
     <!-- 1 -->
     <g transform="translate(232.672136 85.287041)scale(0.1 -0.1)">
      <use xlink:href="#DejaVuSans-31"/>
     </g>
    </g>
   </g>
  </g>
  <g id="axes_1">
   <g id="line2d_17">
    <path clip-path="url(#paeb812ab26)" d="M 119.396031 126.955578 
L 117.001308 137.90756 
L 114.760632 148.503848 
L 112.586685 154.207749 
L 110.509619 157.029604 
L 108.544603 157.808037 
L 106.719491 157.70335 
L 105.051944 157.265471 
L 103.529032 155.824616 
L 102.150655 153.289263 
L 100.974661 151.643677 
L 99.968437 149.561729 
L 99.148038 147.523106 
L 98.508247 145.284955 
L 98.053372 142.961028 
L 97.784102 140.565584 
L 97.701019 138.133897 
L 97.803453 135.683902 
L 98.090541 133.251443 
L 98.543514 130.286866 
L 99.192854 127.934 
L 100.018342 125.647192 
L 101.015649 123.437452 
L 102.179542 121.304745 
L 103.505044 119.279553 
L 104.985507 117.350082 
L 106.614226 115.519755 
L 108.384546 113.813406 
L 110.288749 112.230339 
L 112.31799 110.731666 
L 114.464076 109.319053 
L 116.704655 107.1938 
L 119.052811 105.507091 
L 121.495115 104.053354 
L 124.020047 102.697511 
L 126.615014 101.144882 
L 129.27463 99.678192 
L 131.983514 97.525594 
L 134.742328 95.76815 
L 137.540875 94.695789 
L 140.364917 93.773465 
L 143.204221 93.05274 
L 146.04832 92.450092 
L 148.888273 91.581691 
L 151.714053 90.839018 
L 154.513996 90.442087 
L 157.278544 90.182931 
L 160.001753 89.646075 
L 162.670269 89.285552 
L 165.271852 89.25157 
L 167.799461 89.293717 
L 170.234475 89.964673 
L 172.577117 90.601531 
L 174.815921 91.354078 
L 176.94555 92.047555 
L 178.957136 92.719043 
L 180.841965 93.40051 
L 182.592559 94.078102 
L 184.202217 94.721916 
L 185.672468 95.007079 
L 186.987221 95.308494 
L 188.140689 95.600194 
L 189.126813 95.883978 
L 189.925768 96.650789 
L 190.559888 96.954824 
L 191.012328 97.231588 
L 191.279396 97.477991 
L 191.36375 97.501433 
L 191.238253 98.124266 
L 190.920502 98.708483 
L 190.409534 99.260706 
L 189.70284 99.869079 
L 188.804909 100.41306 
L 187.725245 100.614037 
L 186.458619 100.738821 
L 185.00849 100.786014 
L 183.379175 100.756529 
L 181.551875 101.657488 
L 179.559528 102.475794 
L 177.42181 102.63596 
L 175.129113 102.914642 
L 172.697912 102.955423 
L 170.134716 102.917353 
L 167.45027 102.797699 
L 164.656057 102.59379 
L 161.762593 102.447947 
L 158.790636 101.600008 
L 155.744473 100.776685 
L 152.638464 99.983714 
L 149.487372 99.245858 
L 146.304783 99.70702 
L 143.112475 99.948008 
L 139.925895 100.551376 
L 136.761408 101.276079 
L 133.637732 102.564255 
L 130.569693 104.025103 
L 127.582473 106.60026 
L 124.684507 109.336248 
L 121.927884 114.940203 
L 119.396031 126.955578 
" style="fill:none;stroke:#1f77b4;stroke-linecap:square;stroke-width:1.5;"/>
   </g>
   <g id="text_14">
    <!-- Depth = 3, $\beta$ = 0.0003 -->
    <g transform="translate(73.186274 22.8)scale(0.12 -0.12)">
     <defs>
      <path d="M 1259 4147 
L 1259 519 
L 2022 519 
Q 2988 519 3436 956 
Q 3884 1394 3884 2338 
Q 3884 3275 3436 3711 
Q 2988 4147 2022 4147 
L 1259 4147 
z
M 628 4666 
L 1925 4666 
Q 3281 4666 3915 4102 
Q 4550 3538 4550 2338 
Q 4550 1131 3912 565 
Q 3275 0 1925 0 
L 628 0 
L 628 4666 
z
" id="DejaVuSans-44" transform="scale(0.015625)"/>
      <path d="M 3597 1894 
L 3597 1613 
L 953 1613 
Q 991 1019 1311 708 
Q 1631 397 2203 397 
Q 2534 397 2845 478 
Q 3156 559 3463 722 
L 3463 178 
Q 3153 47 2828 -22 
Q 2503 -91 2169 -91 
Q 1331 -91 842 396 
Q 353 884 353 1716 
Q 353 2575 817 3079 
Q 1281 3584 2069 3584 
Q 2775 3584 3186 3129 
Q 3597 2675 3597 1894 
z
M 3022 2063 
Q 3016 2534 2758 2815 
Q 2500 3097 2075 3097 
Q 1594 3097 1305 2825 
Q 1016 2553 972 2059 
L 3022 2063 
z
" id="DejaVuSans-65" transform="scale(0.015625)"/>
      <path d="M 1159 525 
L 1159 -1331 
L 581 -1331 
L 581 3500 
L 1159 3500 
L 1159 2969 
Q 1341 3281 1617 3432 
Q 1894 3584 2278 3584 
Q 2916 3584 3314 3078 
Q 3713 2572 3713 1747 
Q 3713 922 3314 415 
Q 2916 -91 2278 -91 
Q 1894 -91 1617 61 
Q 1341 213 1159 525 
z
M 3116 1747 
Q 3116 2381 2855 2742 
Q 2594 3103 2138 3103 
Q 1681 3103 1420 2742 
Q 1159 2381 1159 1747 
Q 1159 1113 1420 752 
Q 1681 391 2138 391 
Q 2594 391 2855 752 
Q 3116 1113 3116 1747 
z
" id="DejaVuSans-70" transform="scale(0.015625)"/>
      <path d="M 1172 4494 
L 1172 3500 
L 2356 3500 
L 2356 3053 
L 1172 3053 
L 1172 1153 
Q 1172 725 1289 603 
Q 1406 481 1766 481 
L 2356 481 
L 2356 0 
L 1766 0 
Q 1100 0 847 248 
Q 594 497 594 1153 
L 594 3053 
L 172 3053 
L 172 3500 
L 594 3500 
L 594 4494 
L 1172 4494 
z
" id="DejaVuSans-74" transform="scale(0.015625)"/>
      <path d="M 3513 2113 
L 3513 0 
L 2938 0 
L 2938 2094 
Q 2938 2591 2744 2837 
Q 2550 3084 2163 3084 
Q 1697 3084 1428 2787 
Q 1159 2491 1159 1978 
L 1159 0 
L 581 0 
L 581 4863 
L 1159 4863 
L 1159 2956 
Q 1366 3272 1645 3428 
Q 1925 3584 2291 3584 
Q 2894 3584 3203 3211 
Q 3513 2838 3513 2113 
z
" id="DejaVuSans-68" transform="scale(0.015625)"/>
      <path id="DejaVuSans-20" transform="scale(0.015625)"/>
      <path d="M 678 2906 
L 4684 2906 
L 4684 2381 
L 678 2381 
L 678 2906 
z
M 678 1631 
L 4684 1631 
L 4684 1100 
L 678 1100 
L 678 1631 
z
" id="DejaVuSans-3d" transform="scale(0.015625)"/>
      <path d="M 2597 2516 
Q 3050 2419 3304 2112 
Q 3559 1806 3559 1356 
Q 3559 666 3084 287 
Q 2609 -91 1734 -91 
Q 1441 -91 1130 -33 
Q 819 25 488 141 
L 488 750 
Q 750 597 1062 519 
Q 1375 441 1716 441 
Q 2309 441 2620 675 
Q 2931 909 2931 1356 
Q 2931 1769 2642 2001 
Q 2353 2234 1838 2234 
L 1294 2234 
L 1294 2753 
L 1863 2753 
Q 2328 2753 2575 2939 
Q 2822 3125 2822 3475 
Q 2822 3834 2567 4026 
Q 2313 4219 1838 4219 
Q 1578 4219 1281 4162 
Q 984 4106 628 3988 
L 628 4550 
Q 988 4650 1302 4700 
Q 1616 4750 1894 4750 
Q 2613 4750 3031 4423 
Q 3450 4097 3450 3541 
Q 3450 3153 3228 2886 
Q 3006 2619 2597 2516 
z
" id="DejaVuSans-33" transform="scale(0.015625)"/>
      <path d="M 750 794 
L 1409 794 
L 1409 256 
L 897 -744 
L 494 -744 
L 750 256 
L 750 794 
z
" id="DejaVuSans-2c" transform="scale(0.015625)"/>
      <path d="M 872 216 
L 572 -1331 
L -6 -1331 
L 928 3478 
Q 1206 4903 2538 4903 
Q 3888 4903 3659 3700 
Q 3503 2844 2894 2531 
Q 3713 2250 3553 1416 
Q 3272 -69 1759 -66 
Q 1097 -63 872 216 
z
M 1019 966 
Q 1259 422 1875 425 
Q 2775 425 2966 1406 
Q 3138 2288 1675 2219 
L 1778 2750 
Q 2909 2731 3106 3750 
Q 3241 4438 2509 4434 
Q 1691 4434 1503 3459 
L 1019 966 
z
" id="DejaVuSans-Oblique-3b2" transform="scale(0.015625)"/>
     </defs>
     <use transform="translate(0 0.390625)" xlink:href="#DejaVuSans-44"/>
     <use transform="translate(77.001953 0.390625)" xlink:href="#DejaVuSans-65"/>
     <use transform="translate(138.525391 0.390625)" xlink:href="#DejaVuSans-70"/>
     <use transform="translate(202.001953 0.390625)" xlink:href="#DejaVuSans-74"/>
     <use transform="translate(241.210938 0.390625)" xlink:href="#DejaVuSans-68"/>
     <use transform="translate(304.589844 0.390625)" xlink:href="#DejaVuSans-20"/>
     <use transform="translate(336.376953 0.390625)" xlink:href="#DejaVuSans-3d"/>
     <use transform="translate(420.166016 0.390625)" xlink:href="#DejaVuSans-20"/>
     <use transform="translate(451.953125 0.390625)" xlink:href="#DejaVuSans-33"/>
     <use transform="translate(515.576172 0.390625)" xlink:href="#DejaVuSans-2c"/>
     <use transform="translate(547.363281 0.390625)" xlink:href="#DejaVuSans-20"/>
     <use transform="translate(579.150391 0.390625)" xlink:href="#DejaVuSans-Oblique-3b2"/>
     <use transform="translate(642.96875 0.390625)" xlink:href="#DejaVuSans-20"/>
     <use transform="translate(674.755859 0.390625)" xlink:href="#DejaVuSans-3d"/>
     <use transform="translate(758.544922 0.390625)" xlink:href="#DejaVuSans-20"/>
     <use transform="translate(790.332031 0.390625)" xlink:href="#DejaVuSans-30"/>
     <use transform="translate(853.955078 0.390625)" xlink:href="#DejaVuSans-2e"/>
     <use transform="translate(885.742188 0.390625)" xlink:href="#DejaVuSans-30"/>
     <use transform="translate(949.365234 0.390625)" xlink:href="#DejaVuSans-30"/>
     <use transform="translate(1012.988281 0.390625)" xlink:href="#DejaVuSans-30"/>
     <use transform="translate(1076.611328 0.390625)" xlink:href="#DejaVuSans-33"/>
    </g>
   </g>
  </g>
  <g id="patch_6">
   <path d="M 283.861971 196.101771 
L 451.163742 196.101771 
L 451.163742 28.8 
L 283.861971 28.8 
z
" style="fill:none;opacity:0;"/>
  </g>
  <g id="pane3d_4">
   <g id="patch_7">
    <path d="M 296.494408 154.850516 
L 351.742917 108.54012 
L 350.97491 41.752252 
L 293.082475 83.999513 
" style="fill:#f2f2f2;opacity:0.5;stroke:#f2f2f2;stroke-linejoin:miter;"/>
   </g>
  </g>
  <g id="pane3d_5">
   <g id="patch_8">
    <path d="M 351.742917 108.54012 
L 440.39706 134.30838 
L 443.560814 65.220079 
L 350.97491 41.752252 
" style="fill:#e6e6e6;opacity:0.5;stroke:#e6e6e6;stroke-linejoin:miter;"/>
   </g>
  </g>
  <g id="pane3d_6">
   <g id="patch_9">
    <path d="M 296.494408 154.850516 
L 390.47213 185.54364 
L 440.39706 134.30838 
L 351.742917 108.54012 
" style="fill:#ececec;opacity:0.5;stroke:#ececec;stroke-linejoin:miter;"/>
   </g>
  </g>
  <g id="axis3d_4">
   <g id="line2d_18">
    <path d="M 296.494408 154.850516 
L 390.47213 185.54364 
" style="fill:none;stroke:#000000;stroke-linecap:square;stroke-width:0.8;"/>
   </g>
   <g id="Line3DCollection_4">
    <path d="M 302.181263 156.707843 
L 357.129922 110.10591 
L 356.589681 43.175432 
" style="fill:none;stroke:#b0b0b0;stroke-width:0.8;"/>
    <path d="M 321.985033 163.175754 
L 375.867016 115.552044 
L 376.130205 48.128386 
" style="fill:none;stroke:#b0b0b0;stroke-width:0.8;"/>
    <path d="M 342.244501 169.792496 
L 394.999183 121.113009 
L 396.100733 53.190332 
" style="fill:none;stroke:#b0b0b0;stroke-width:0.8;"/>
    <path d="M 362.975577 176.563266 
L 414.539051 126.792477 
L 416.515618 58.364911 
" style="fill:none;stroke:#b0b0b0;stroke-width:0.8;"/>
    <path d="M 384.194925 183.493504 
L 434.499792 132.594277 
L 437.389858 63.655922 
" style="fill:none;stroke:#b0b0b0;stroke-width:0.8;"/>
   </g>
   <g id="xtick_14">
    <g id="line2d_19">
     <path d="M 302.659752 156.302036 
L 301.22223 157.521198 
" style="fill:none;stroke:#000000;stroke-linecap:square;stroke-width:0.8;"/>
    </g>
    <g id="text_15">
     <!-- −1.0 -->
     <g transform="translate(282.494233 180.051505)scale(0.1 -0.1)">
      <use xlink:href="#DejaVuSans-2212"/>
      <use x="83.789062" xlink:href="#DejaVuSans-31"/>
      <use x="147.412109" xlink:href="#DejaVuSans-2e"/>
      <use x="179.199219" xlink:href="#DejaVuSans-30"/>
     </g>
    </g>
   </g>
   <g id="xtick_15">
    <g id="line2d_20">
     <path d="M 322.454668 162.760666 
L 321.043725 164.007731 
" style="fill:none;stroke:#000000;stroke-linecap:square;stroke-width:0.8;"/>
    </g>
    <g id="text_16">
     <!-- −0.5 -->
     <g transform="translate(302.330356 186.738349)scale(0.1 -0.1)">
      <use xlink:href="#DejaVuSans-2212"/>
      <use x="83.789062" xlink:href="#DejaVuSans-30"/>
      <use x="147.412109" xlink:href="#DejaVuSans-2e"/>
      <use x="179.199219" xlink:href="#DejaVuSans-35"/>
     </g>
    </g>
   </g>
   <g id="xtick_16">
    <g id="line2d_21">
     <path d="M 342.704744 169.367805 
L 341.321993 170.643741 
" style="fill:none;stroke:#000000;stroke-linecap:square;stroke-width:0.8;"/>
    </g>
    <g id="text_17">
     <!-- 0.0 -->
     <g transform="translate(326.815532 193.579994)scale(0.1 -0.1)">
      <use xlink:href="#DejaVuSans-30"/>
      <use x="63.623047" xlink:href="#DejaVuSans-2e"/>
      <use x="95.410156" xlink:href="#DejaVuSans-30"/>
     </g>
    </g>
   </g>
   <g id="xtick_17">
    <g id="line2d_22">
     <path d="M 363.425863 176.128635 
L 362.073007 177.434457 
" style="fill:none;stroke:#000000;stroke-linecap:square;stroke-width:0.8;"/>
    </g>
    <g id="text_18">
     <!-- 0.5 -->
     <g transform="translate(347.586205 200.581878)scale(0.1 -0.1)">
      <use xlink:href="#DejaVuSans-30"/>
      <use x="63.623047" xlink:href="#DejaVuSans-2e"/>
      <use x="95.410156" xlink:href="#DejaVuSans-35"/>
     </g>
    </g>
   </g>
   <g id="xtick_18">
    <g id="line2d_23">
     <path d="M 384.634653 183.048581 
L 383.313492 184.385351 
" style="fill:none;stroke:#000000;stroke-linecap:square;stroke-width:0.8;"/>
    </g>
    <g id="text_19">
     <!-- 1.0 -->
     <g transform="translate(368.849118 207.749699)scale(0.1 -0.1)">
      <use xlink:href="#DejaVuSans-31"/>
      <use x="63.623047" xlink:href="#DejaVuSans-2e"/>
      <use x="95.410156" xlink:href="#DejaVuSans-30"/>
     </g>
    </g>
   </g>
  </g>
  <g id="axis3d_5">
   <g id="line2d_24">
    <path d="M 440.39706 134.30838 
L 390.47213 185.54364 
" style="fill:none;stroke:#000000;stroke-linecap:square;stroke-width:0.8;"/>
   </g>
   <g id="Line3DCollection_5">
    <path d="M 297.08588 81.078011 
L 300.301497 151.659338 
L 393.926549 181.998556 
" style="fill:none;stroke:#b0b0b0;stroke-width:0.8;"/>
    <path d="M 310.464139 71.315167 
L 313.038216 140.983168 
L 405.468107 170.154078 
" style="fill:none;stroke:#b0b0b0;stroke-width:0.8;"/>
    <path d="M 323.322835 61.931476 
L 325.301356 130.703961 
L 416.558327 158.772785 
" style="fill:none;stroke:#b0b0b0;stroke-width:0.8;"/>
    <path d="M 335.691659 52.905272 
L 337.116848 120.799981 
L 427.223175 147.828027 
" style="fill:none;stroke:#b0b0b0;stroke-width:0.8;"/>
    <path d="M 347.59808 44.216508 
L 348.508764 111.251052 
L 437.486665 137.295162 
" style="fill:none;stroke:#b0b0b0;stroke-width:0.8;"/>
   </g>
   <g id="xtick_19">
    <g id="line2d_25">
     <path d="M 393.137568 181.742887 
L 395.506552 182.510556 
" style="fill:none;stroke:#000000;stroke-linecap:square;stroke-width:0.8;"/>
    </g>
    <g id="text_20">
     <!-- −1.0 -->
     <g transform="translate(394.670334 203.025035)scale(0.1 -0.1)">
      <use xlink:href="#DejaVuSans-2212"/>
      <use x="83.789062" xlink:href="#DejaVuSans-31"/>
      <use x="147.412109" xlink:href="#DejaVuSans-2e"/>
      <use x="179.199219" xlink:href="#DejaVuSans-30"/>
     </g>
    </g>
   </g>
   <g id="xtick_20">
    <g id="line2d_26">
     <path d="M 404.689985 169.908503 
L 407.026325 170.645852 
" style="fill:none;stroke:#000000;stroke-linecap:square;stroke-width:0.8;"/>
    </g>
    <g id="text_21">
     <!-- −0.5 -->
     <g transform="translate(405.965463 190.901456)scale(0.1 -0.1)">
      <use xlink:href="#DejaVuSans-2212"/>
      <use x="83.789062" xlink:href="#DejaVuSans-30"/>
      <use x="147.412109" xlink:href="#DejaVuSans-2e"/>
      <use x="179.199219" xlink:href="#DejaVuSans-35"/>
     </g>
    </g>
   </g>
   <g id="xtick_21">
    <g id="line2d_27">
     <path d="M 415.790825 158.536716 
L 418.095238 159.245508 
" style="fill:none;stroke:#000000;stroke-linecap:square;stroke-width:0.8;"/>
    </g>
    <g id="text_22">
     <!-- 0.0 -->
     <g transform="translate(421.00833 179.25241)scale(0.1 -0.1)">
      <use xlink:href="#DejaVuSans-30"/>
      <use x="63.623047" xlink:href="#DejaVuSans-2e"/>
      <use x="95.410156" xlink:href="#DejaVuSans-30"/>
     </g>
    </g>
   </g>
   <g id="xtick_22">
    <g id="line2d_28">
     <path d="M 426.466059 147.600924 
L 428.739252 148.282785 
" style="fill:none;stroke:#000000;stroke-linecap:square;stroke-width:0.8;"/>
    </g>
    <g id="text_23">
     <!-- 0.5 -->
     <g transform="translate(431.444707 168.050571)scale(0.1 -0.1)">
      <use xlink:href="#DejaVuSans-30"/>
      <use x="63.623047" xlink:href="#DejaVuSans-2e"/>
      <use x="95.410156" xlink:href="#DejaVuSans-35"/>
     </g>
    </g>
   </g>
   <g id="xtick_23">
    <g id="line2d_29">
     <path d="M 436.739704 137.076524 
L 438.982372 137.73296 
" style="fill:none;stroke:#000000;stroke-linecap:square;stroke-width:0.8;"/>
    </g>
    <g id="text_24">
     <!-- 1.0 -->
     <g transform="translate(441.487976 157.270671)scale(0.1 -0.1)">
      <use xlink:href="#DejaVuSans-31"/>
      <use x="63.623047" xlink:href="#DejaVuSans-2e"/>
      <use x="95.410156" xlink:href="#DejaVuSans-30"/>
     </g>
    </g>
   </g>
  </g>
  <g id="axis3d_6">
   <g id="line2d_30">
    <path d="M 440.39706 134.30838 
L 443.560814 65.220079 
" style="fill:none;stroke:#000000;stroke-linecap:square;stroke-width:0.8;"/>
   </g>
   <g id="Line3DCollection_6">
    <path d="M 441.043217 120.197969 
L 351.585797 94.876615 
L 295.798499 140.399502 
" style="fill:none;stroke:#b0b0b0;stroke-width:0.8;"/>
    <path d="M 441.989829 99.526389 
L 351.355864 74.881018 
L 294.778134 119.21097 
" style="fill:none;stroke:#b0b0b0;stroke-width:0.8;"/>
    <path d="M 442.961925 78.298291 
L 351.120042 54.373375 
L 293.729227 97.429742 
" style="fill:none;stroke:#b0b0b0;stroke-width:0.8;"/>
   </g>
   <g id="xtick_24">
    <g id="line2d_31">
     <path d="M 440.292101 119.985363 
L 442.547251 120.623693 
" style="fill:none;stroke:#000000;stroke-linecap:square;stroke-width:0.8;"/>
    </g>
    <g id="text_25">
     <!-- −1 -->
     <g transform="translate(452.051268 125.240122)scale(0.1 -0.1)">
      <use xlink:href="#DejaVuSans-2212"/>
      <use x="83.789062" xlink:href="#DejaVuSans-31"/>
     </g>
    </g>
   </g>
   <g id="xtick_25">
    <g id="line2d_32">
     <path d="M 441.228358 99.319328 
L 443.514623 99.941014 
" style="fill:none;stroke:#000000;stroke-linecap:square;stroke-width:0.8;"/>
    </g>
    <g id="text_26">
     <!-- 0 -->
     <g transform="translate(457.426042 104.635371)scale(0.1 -0.1)">
      <use xlink:href="#DejaVuSans-30"/>
     </g>
    </g>
   </g>
   <g id="xtick_26">
    <g id="line2d_33">
     <path d="M 442.189809 78.097154 
L 444.50806 78.701061 
" style="fill:none;stroke:#000000;stroke-linecap:square;stroke-width:0.8;"/>
    </g>
    <g id="text_27">
     <!-- 1 -->
     <g transform="translate(458.642716 83.478638)scale(0.1 -0.1)">
      <use xlink:href="#DejaVuSans-31"/>
     </g>
    </g>
   </g>
  </g>
  <g id="axes_2">
   <g id="line2d_34">
    <path clip-path="url(#p3a3542bbf2)" d="M 345.248668 126.073921 
L 342.910475 140.342788 
L 340.771337 156.059642 
L 338.570971 159.928749 
L 336.450682 160.418266 
L 334.426729 158.475587 
L 332.546073 156.069645 
L 330.918527 157.265471 
L 329.397013 155.877284 
L 327.9603 151.212203 
L 326.810958 150.567972 
L 325.787592 147.913485 
L 324.938537 144.92399 
L 324.178972 138.678855 
L 323.664058 134.402569 
L 323.379817 131.545215 
L 323.320794 129.916575 
L 323.488165 129.605506 
L 323.891743 131.049153 
L 324.31929 127.191635 
L 324.912419 122.842275 
L 325.724233 119.968837 
L 326.741076 118.326179 
L 327.95803 118.021338 
L 329.233418 113.952421 
L 330.695019 111.05787 
L 332.325192 109.005859 
L 334.111489 107.670303 
L 336.044303 107.064022 
L 338.116244 107.344723 
L 340.322753 108.89824 
L 342.554096 106.204862 
L 344.904998 104.597181 
L 347.345697 102.930659 
L 349.884321 102.514795 
L 352.477191 100.743509 
L 355.146544 100.252771 
L 357.845275 96.887062 
L 360.601603 94.507743 
L 363.403259 93.652604 
L 366.230293 93.234059 
L 369.070647 92.699762 
L 371.914555 92.707511 
L 374.755506 91.37476 
L 377.582558 90.448418 
L 380.380425 90.465186 
L 383.140118 90.777151 
L 385.864004 90.073191 
L 388.533072 89.605293 
L 391.138647 89.235814 
L 393.681481 88.268194 
L 396.114751 89.139466 
L 398.458928 89.759125 
L 400.692713 90.830467 
L 402.817497 91.790282 
L 404.824192 92.69767 
L 406.704336 93.581024 
L 408.449908 94.455841 
L 410.053107 95.337915 
L 411.521778 95.661133 
L 412.838056 95.8865 
L 413.999852 95.86538 
L 415.008123 95.369208 
L 415.775321 97.23546 
L 416.395914 97.989442 
L 416.849642 98.212876 
L 417.138213 97.736837 
L 417.247506 96.930036 
L 417.075927 99.088331 
L 416.746137 100.082772 
L 416.256482 99.926659 
L 415.518698 101.615435 
L 414.625166 102.039325 
L 413.508336 103.616843 
L 412.23677 104.013694 
L 410.813652 103.140755 
L 409.251295 100.535471 
L 407.383411 103.123687 
L 405.399672 103.643072 
L 403.280929 102.986459 
L 400.968921 104.264113 
L 398.492174 106.908186 
L 395.920431 107.769342 
L 393.254624 106.957397 
L 390.502426 104.127114 
L 387.609627 104.171342 
L 384.642179 103.191492 
L 381.581483 104.713374 
L 378.485461 103.520201 
L 375.353955 99.245858 
L 372.170062 100.56427 
L 368.979518 100.86248 
L 365.79957 103.358929 
L 362.63306 102.393423 
L 359.51759 104.598917 
L 356.429744 103.255089 
L 353.43401 105.153337 
L 350.472017 102.889489 
L 347.652565 104.858254 
L 345.248668 126.073921 
" style="fill:none;stroke:#1f77b4;stroke-linecap:square;stroke-width:1.5;"/>
   </g>
   <g id="text_28">
    <!-- Depth = 25, $\beta$ = 0.0004 -->
    <g transform="translate(295.272856 22.8)scale(0.12 -0.12)">
     <defs>
      <path d="M 1228 531 
L 3431 531 
L 3431 0 
L 469 0 
L 469 531 
Q 828 903 1448 1529 
Q 2069 2156 2228 2338 
Q 2531 2678 2651 2914 
Q 2772 3150 2772 3378 
Q 2772 3750 2511 3984 
Q 2250 4219 1831 4219 
Q 1534 4219 1204 4116 
Q 875 4013 500 3803 
L 500 4441 
Q 881 4594 1212 4672 
Q 1544 4750 1819 4750 
Q 2544 4750 2975 4387 
Q 3406 4025 3406 3419 
Q 3406 3131 3298 2873 
Q 3191 2616 2906 2266 
Q 2828 2175 2409 1742 
Q 1991 1309 1228 531 
z
" id="DejaVuSans-32" transform="scale(0.015625)"/>
      <path d="M 2419 4116 
L 825 1625 
L 2419 1625 
L 2419 4116 
z
M 2253 4666 
L 3047 4666 
L 3047 1625 
L 3713 1625 
L 3713 1100 
L 3047 1100 
L 3047 0 
L 2419 0 
L 2419 1100 
L 313 1100 
L 313 1709 
L 2253 4666 
z
" id="DejaVuSans-34" transform="scale(0.015625)"/>
     </defs>
     <use transform="translate(0 0.390625)" xlink:href="#DejaVuSans-44"/>
     <use transform="translate(77.001953 0.390625)" xlink:href="#DejaVuSans-65"/>
     <use transform="translate(138.525391 0.390625)" xlink:href="#DejaVuSans-70"/>
     <use transform="translate(202.001953 0.390625)" xlink:href="#DejaVuSans-74"/>
     <use transform="translate(241.210938 0.390625)" xlink:href="#DejaVuSans-68"/>
     <use transform="translate(304.589844 0.390625)" xlink:href="#DejaVuSans-20"/>
     <use transform="translate(336.376953 0.390625)" xlink:href="#DejaVuSans-3d"/>
     <use transform="translate(420.166016 0.390625)" xlink:href="#DejaVuSans-20"/>
     <use transform="translate(451.953125 0.390625)" xlink:href="#DejaVuSans-32"/>
     <use transform="translate(515.576172 0.390625)" xlink:href="#DejaVuSans-35"/>
     <use transform="translate(579.199219 0.390625)" xlink:href="#DejaVuSans-2c"/>
     <use transform="translate(610.986328 0.390625)" xlink:href="#DejaVuSans-20"/>
     <use transform="translate(642.773438 0.390625)" xlink:href="#DejaVuSans-Oblique-3b2"/>
     <use transform="translate(706.591797 0.390625)" xlink:href="#DejaVuSans-20"/>
     <use transform="translate(738.378906 0.390625)" xlink:href="#DejaVuSans-3d"/>
     <use transform="translate(822.167969 0.390625)" xlink:href="#DejaVuSans-20"/>
     <use transform="translate(853.955078 0.390625)" xlink:href="#DejaVuSans-30"/>
     <use transform="translate(917.578125 0.390625)" xlink:href="#DejaVuSans-2e"/>
     <use transform="translate(949.365234 0.390625)" xlink:href="#DejaVuSans-30"/>
     <use transform="translate(1012.988281 0.390625)" xlink:href="#DejaVuSans-30"/>
     <use transform="translate(1076.611328 0.390625)" xlink:href="#DejaVuSans-30"/>
     <use transform="translate(1140.234375 0.390625)" xlink:href="#DejaVuSans-34"/>
    </g>
   </g>
  </g>
  <g id="patch_10">
   <path d="M 509.728553 196.101771 
L 677.030324 196.101771 
L 677.030324 28.8 
L 509.728553 28.8 
z
" style="fill:none;opacity:0;"/>
  </g>
  <g id="pane3d_7">
   <g id="patch_11">
    <path d="M 522.360991 154.850516 
L 577.609499 108.54012 
L 576.841492 41.752252 
L 518.949058 83.999513 
" style="fill:#f2f2f2;opacity:0.5;stroke:#f2f2f2;stroke-linejoin:miter;"/>
   </g>
  </g>
  <g id="pane3d_8">
   <g id="patch_12">
    <path d="M 577.609499 108.54012 
L 666.263643 134.30838 
L 669.427397 65.220079 
L 576.841492 41.752252 
" style="fill:#e6e6e6;opacity:0.5;stroke:#e6e6e6;stroke-linejoin:miter;"/>
   </g>
  </g>
  <g id="pane3d_9">
   <g id="patch_13">
    <path d="M 522.360991 154.850516 
L 616.338713 185.54364 
L 666.263643 134.30838 
L 577.609499 108.54012 
" style="fill:#ececec;opacity:0.5;stroke:#ececec;stroke-linejoin:miter;"/>
   </g>
  </g>
  <g id="axis3d_7">
   <g id="line2d_35">
    <path d="M 522.360991 154.850516 
L 616.338713 185.54364 
" style="fill:none;stroke:#000000;stroke-linecap:square;stroke-width:0.8;"/>
   </g>
   <g id="Line3DCollection_7">
    <path d="M 528.047845 156.707843 
L 582.996505 110.10591 
L 582.456264 43.175432 
" style="fill:none;stroke:#b0b0b0;stroke-width:0.8;"/>
    <path d="M 547.851616 163.175754 
L 601.733599 115.552044 
L 601.996787 48.128386 
" style="fill:none;stroke:#b0b0b0;stroke-width:0.8;"/>
    <path d="M 568.111083 169.792496 
L 620.865766 121.113009 
L 621.967316 53.190332 
" style="fill:none;stroke:#b0b0b0;stroke-width:0.8;"/>
    <path d="M 588.84216 176.563266 
L 640.405634 126.792477 
L 642.382201 58.364911 
" style="fill:none;stroke:#b0b0b0;stroke-width:0.8;"/>
    <path d="M 610.061507 183.493504 
L 660.366375 132.594277 
L 663.25644 63.655922 
" style="fill:none;stroke:#b0b0b0;stroke-width:0.8;"/>
   </g>
   <g id="xtick_27">
    <g id="line2d_36">
     <path d="M 528.526335 156.302036 
L 527.088813 157.521198 
" style="fill:none;stroke:#000000;stroke-linecap:square;stroke-width:0.8;"/>
    </g>
    <g id="text_29">
     <!-- −1.0 -->
     <g transform="translate(508.360816 180.051505)scale(0.1 -0.1)">
      <use xlink:href="#DejaVuSans-2212"/>
      <use x="83.789062" xlink:href="#DejaVuSans-31"/>
      <use x="147.412109" xlink:href="#DejaVuSans-2e"/>
      <use x="179.199219" xlink:href="#DejaVuSans-30"/>
     </g>
    </g>
   </g>
   <g id="xtick_28">
    <g id="line2d_37">
     <path d="M 548.321251 162.760666 
L 546.910308 164.007731 
" style="fill:none;stroke:#000000;stroke-linecap:square;stroke-width:0.8;"/>
    </g>
    <g id="text_30">
     <!-- −0.5 -->
     <g transform="translate(528.196939 186.738349)scale(0.1 -0.1)">
      <use xlink:href="#DejaVuSans-2212"/>
      <use x="83.789062" xlink:href="#DejaVuSans-30"/>
      <use x="147.412109" xlink:href="#DejaVuSans-2e"/>
      <use x="179.199219" xlink:href="#DejaVuSans-35"/>
     </g>
    </g>
   </g>
   <g id="xtick_29">
    <g id="line2d_38">
     <path d="M 568.571327 169.367805 
L 567.188576 170.643741 
" style="fill:none;stroke:#000000;stroke-linecap:square;stroke-width:0.8;"/>
    </g>
    <g id="text_31">
     <!-- 0.0 -->
     <g transform="translate(552.682114 193.579994)scale(0.1 -0.1)">
      <use xlink:href="#DejaVuSans-30"/>
      <use x="63.623047" xlink:href="#DejaVuSans-2e"/>
      <use x="95.410156" xlink:href="#DejaVuSans-30"/>
     </g>
    </g>
   </g>
   <g id="xtick_30">
    <g id="line2d_39">
     <path d="M 589.292445 176.128635 
L 587.939589 177.434457 
" style="fill:none;stroke:#000000;stroke-linecap:square;stroke-width:0.8;"/>
    </g>
    <g id="text_32">
     <!-- 0.5 -->
     <g transform="translate(573.452788 200.581878)scale(0.1 -0.1)">
      <use xlink:href="#DejaVuSans-30"/>
      <use x="63.623047" xlink:href="#DejaVuSans-2e"/>
      <use x="95.410156" xlink:href="#DejaVuSans-35"/>
     </g>
    </g>
   </g>
   <g id="xtick_31">
    <g id="line2d_40">
     <path d="M 610.501235 183.048581 
L 609.180075 184.385351 
" style="fill:none;stroke:#000000;stroke-linecap:square;stroke-width:0.8;"/>
    </g>
    <g id="text_33">
     <!-- 1.0 -->
     <g transform="translate(594.715701 207.749699)scale(0.1 -0.1)">
      <use xlink:href="#DejaVuSans-31"/>
      <use x="63.623047" xlink:href="#DejaVuSans-2e"/>
      <use x="95.410156" xlink:href="#DejaVuSans-30"/>
     </g>
    </g>
   </g>
  </g>
  <g id="axis3d_8">
   <g id="line2d_41">
    <path d="M 666.263643 134.30838 
L 616.338713 185.54364 
" style="fill:none;stroke:#000000;stroke-linecap:square;stroke-width:0.8;"/>
   </g>
   <g id="Line3DCollection_8">
    <path d="M 522.952463 81.078011 
L 526.16808 151.659338 
L 619.793132 181.998556 
" style="fill:none;stroke:#b0b0b0;stroke-width:0.8;"/>
    <path d="M 536.330722 71.315167 
L 538.904799 140.983168 
L 631.33469 170.154078 
" style="fill:none;stroke:#b0b0b0;stroke-width:0.8;"/>
    <path d="M 549.189418 61.931476 
L 551.167939 130.703961 
L 642.42491 158.772785 
" style="fill:none;stroke:#b0b0b0;stroke-width:0.8;"/>
    <path d="M 561.558242 52.905272 
L 562.983431 120.799981 
L 653.089758 147.828027 
" style="fill:none;stroke:#b0b0b0;stroke-width:0.8;"/>
    <path d="M 573.464663 44.216508 
L 574.375347 111.251052 
L 663.353247 137.295162 
" style="fill:none;stroke:#b0b0b0;stroke-width:0.8;"/>
   </g>
   <g id="xtick_32">
    <g id="line2d_42">
     <path d="M 619.004151 181.742887 
L 621.373134 182.510556 
" style="fill:none;stroke:#000000;stroke-linecap:square;stroke-width:0.8;"/>
    </g>
    <g id="text_34">
     <!-- −1.0 -->
     <g transform="translate(620.536916 203.025035)scale(0.1 -0.1)">
      <use xlink:href="#DejaVuSans-2212"/>
      <use x="83.789062" xlink:href="#DejaVuSans-31"/>
      <use x="147.412109" xlink:href="#DejaVuSans-2e"/>
      <use x="179.199219" xlink:href="#DejaVuSans-30"/>
     </g>
    </g>
   </g>
   <g id="xtick_33">
    <g id="line2d_43">
     <path d="M 630.556567 169.908503 
L 632.892907 170.645852 
" style="fill:none;stroke:#000000;stroke-linecap:square;stroke-width:0.8;"/>
    </g>
    <g id="text_35">
     <!-- −0.5 -->
     <g transform="translate(631.832046 190.901456)scale(0.1 -0.1)">
      <use xlink:href="#DejaVuSans-2212"/>
      <use x="83.789062" xlink:href="#DejaVuSans-30"/>
      <use x="147.412109" xlink:href="#DejaVuSans-2e"/>
      <use x="179.199219" xlink:href="#DejaVuSans-35"/>
     </g>
    </g>
   </g>
   <g id="xtick_34">
    <g id="line2d_44">
     <path d="M 641.657408 158.536716 
L 643.961821 159.245508 
" style="fill:none;stroke:#000000;stroke-linecap:square;stroke-width:0.8;"/>
    </g>
    <g id="text_36">
     <!-- 0.0 -->
     <g transform="translate(646.874913 179.25241)scale(0.1 -0.1)">
      <use xlink:href="#DejaVuSans-30"/>
      <use x="63.623047" xlink:href="#DejaVuSans-2e"/>
      <use x="95.410156" xlink:href="#DejaVuSans-30"/>
     </g>
    </g>
   </g>
   <g id="xtick_35">
    <g id="line2d_45">
     <path d="M 652.332642 147.600924 
L 654.605835 148.282785 
" style="fill:none;stroke:#000000;stroke-linecap:square;stroke-width:0.8;"/>
    </g>
    <g id="text_37">
     <!-- 0.5 -->
     <g transform="translate(657.311289 168.050571)scale(0.1 -0.1)">
      <use xlink:href="#DejaVuSans-30"/>
      <use x="63.623047" xlink:href="#DejaVuSans-2e"/>
      <use x="95.410156" xlink:href="#DejaVuSans-35"/>
     </g>
    </g>
   </g>
   <g id="xtick_36">
    <g id="line2d_46">
     <path d="M 662.606287 137.076524 
L 664.848955 137.73296 
" style="fill:none;stroke:#000000;stroke-linecap:square;stroke-width:0.8;"/>
    </g>
    <g id="text_38">
     <!-- 1.0 -->
     <g transform="translate(667.354559 157.270671)scale(0.1 -0.1)">
      <use xlink:href="#DejaVuSans-31"/>
      <use x="63.623047" xlink:href="#DejaVuSans-2e"/>
      <use x="95.410156" xlink:href="#DejaVuSans-30"/>
     </g>
    </g>
   </g>
  </g>
  <g id="axis3d_9">
   <g id="line2d_47">
    <path d="M 666.263643 134.30838 
L 669.427397 65.220079 
" style="fill:none;stroke:#000000;stroke-linecap:square;stroke-width:0.8;"/>
   </g>
   <g id="Line3DCollection_9">
    <path d="M 666.761316 123.440471 
L 577.488473 98.015377 
L 521.82504 143.721153 
" style="fill:none;stroke:#b0b0b0;stroke-width:0.8;"/>
    <path d="M 667.871482 99.197283 
L 577.218788 74.562879 
L 520.628463 118.873461 
" style="fill:none;stroke:#b0b0b0;stroke-width:0.8;"/>
    <path d="M 669.016856 74.185244 
L 576.940969 50.402994 
L 519.392453 93.206912 
" style="fill:none;stroke:#b0b0b0;stroke-width:0.8;"/>
   </g>
   <g id="xtick_37">
    <g id="line2d_48">
     <path d="M 666.011824 123.227014 
L 668.262095 123.867896 
" style="fill:none;stroke:#000000;stroke-linecap:square;stroke-width:0.8;"/>
    </g>
    <g id="text_39">
     <!-- −1 -->
     <g transform="translate(677.731972 128.47238)scale(0.1 -0.1)">
      <use xlink:href="#DejaVuSans-2212"/>
      <use x="83.789062" xlink:href="#DejaVuSans-31"/>
     </g>
    </g>
   </g>
   <g id="xtick_38">
    <g id="line2d_49">
     <path d="M 667.109846 98.990312 
L 669.396607 99.611728 
" style="fill:none;stroke:#000000;stroke-linecap:square;stroke-width:0.8;"/>
    </g>
    <g id="text_40">
     <!-- 0 -->
     <g transform="translate(683.311489 104.30735)scale(0.1 -0.1)">
      <use xlink:href="#DejaVuSans-30"/>
     </g>
    </g>
   </g>
   <g id="xtick_39">
    <g id="line2d_50">
     <path d="M 668.242676 73.985282 
L 670.567128 74.585664 
" style="fill:none;stroke:#000000;stroke-linecap:square;stroke-width:0.8;"/>
    </g>
    <g id="text_41">
     <!-- 1 -->
     <g transform="translate(684.745016 79.379739)scale(0.1 -0.1)">
      <use xlink:href="#DejaVuSans-31"/>
     </g>
    </g>
   </g>
  </g>
  <g id="axes_3">
   <g id="line2d_51">
    <path clip-path="url(#p0ec245c24c)" d="M 571.121574 126.473699 
L 568.723716 137.292353 
L 566.68274 158.409375 
L 564.442574 160.172787 
L 562.310638 160.116799 
L 560.255878 156.867889 
L 558.203618 147.532004 
L 556.762206 156.369925 
L 555.264092 155.895952 
L 553.776902 149.388926 
L 552.670364 150.313098 
L 551.630332 147.08489 
L 550.775898 143.925734 
L 549.783808 129.850407 
L 549.234185 124.487559 
L 548.947835 121.602486 
L 548.897629 120.269553 
L 549.103105 121.195209 
L 549.736949 130.329096 
L 550.130351 125.299141 
L 550.56429 115.406088 
L 551.363825 111.947667 
L 552.409853 111.163628 
L 553.784591 116.529687 
L 554.929319 107.373654 
L 556.385829 104.016469 
L 558.0266 102.091902 
L 559.824931 100.933217 
L 561.771208 100.564597 
L 563.869133 101.709181 
L 566.185775 108.70869 
L 568.401642 105.106643 
L 570.755659 103.590763 
L 573.15838 99.148908 
L 575.740163 101.664791 
L 578.306239 97.3239 
L 581.013223 100.263163 
L 583.706216 96.13991 
L 586.462444 93.517443 
L 589.262556 91.84227 
L 592.095464 92.603359 
L 594.936473 90.995123 
L 597.781454 92.473266 
L 600.626433 89.992426 
L 603.453046 89.655358 
L 606.253927 89.430485 
L 609.007901 90.634826 
L 611.737991 89.343117 
L 614.405364 89.122322 
L 617.006665 89.129134 
L 619.558105 87.601073 
L 621.976162 89.451096 
L 624.328419 89.598232 
L 626.549471 91.334379 
L 628.671168 92.409533 
L 630.676094 93.361025 
L 632.554955 94.265289 
L 634.300841 95.095994 
L 635.912819 95.60764 
L 637.357963 96.812203 
L 638.659976 97.5258 
L 639.818284 97.586307 
L 640.887968 94.905623 
L 641.625396 97.80218 
L 642.188333 100.500496 
L 642.632625 101.015739 
L 642.989658 98.241444 
L 643.120255 96.72486 
L 642.816455 103.292055 
L 642.479844 104.542232 
L 642.103688 100.583902 
L 641.261233 105.886221 
L 640.460614 103.132301 
L 639.213361 109.427283 
L 637.916785 110.922807 
L 636.507352 109.768787 
L 635.111925 100.773131 
L 633.112854 108.860971 
L 631.23925 104.835326 
L 629.149254 102.904631 
L 626.820654 105.012557 
L 624.223245 114.314689 
L 621.644256 116.334604 
L 619.004056 114.78833 
L 616.362492 104.621438 
L 613.466174 105.056098 
L 610.501489 103.961035 
L 607.379198 113.880843 
L 604.299351 113.034552 
L 601.220537 99.245858 
L 598.035199 101.51482 
L 594.846501 101.654956 
L 591.687466 111.796235 
L 588.506289 103.858782 
L 585.440398 113.21656 
L 582.308807 104.726464 
L 579.387219 113.484186 
L 576.33607 102.683281 
L 573.443055 99.4519 
L 571.121574 126.473699 
" style="fill:none;stroke:#1f77b4;stroke-linecap:square;stroke-width:1.5;"/>
   </g>
   <g id="text_42">
    <!-- Depth = 100, $\beta$ = 0.0001 -->
    <g transform="translate(517.299439 22.8)scale(0.12 -0.12)">
     <use transform="translate(0 0.390625)" xlink:href="#DejaVuSans-44"/>
     <use transform="translate(77.001953 0.390625)" xlink:href="#DejaVuSans-65"/>
     <use transform="translate(138.525391 0.390625)" xlink:href="#DejaVuSans-70"/>
     <use transform="translate(202.001953 0.390625)" xlink:href="#DejaVuSans-74"/>
     <use transform="translate(241.210938 0.390625)" xlink:href="#DejaVuSans-68"/>
     <use transform="translate(304.589844 0.390625)" xlink:href="#DejaVuSans-20"/>
     <use transform="translate(336.376953 0.390625)" xlink:href="#DejaVuSans-3d"/>
     <use transform="translate(420.166016 0.390625)" xlink:href="#DejaVuSans-20"/>
     <use transform="translate(451.953125 0.390625)" xlink:href="#DejaVuSans-31"/>
     <use transform="translate(515.576172 0.390625)" xlink:href="#DejaVuSans-30"/>
     <use transform="translate(579.199219 0.390625)" xlink:href="#DejaVuSans-30"/>
     <use transform="translate(642.822266 0.390625)" xlink:href="#DejaVuSans-2c"/>
     <use transform="translate(674.609375 0.390625)" xlink:href="#DejaVuSans-20"/>
     <use transform="translate(706.396484 0.390625)" xlink:href="#DejaVuSans-Oblique-3b2"/>
     <use transform="translate(770.214844 0.390625)" xlink:href="#DejaVuSans-20"/>
     <use transform="translate(802.001953 0.390625)" xlink:href="#DejaVuSans-3d"/>
     <use transform="translate(885.791016 0.390625)" xlink:href="#DejaVuSans-20"/>
     <use transform="translate(917.578125 0.390625)" xlink:href="#DejaVuSans-30"/>
     <use transform="translate(981.201172 0.390625)" xlink:href="#DejaVuSans-2e"/>
     <use transform="translate(1012.988281 0.390625)" xlink:href="#DejaVuSans-30"/>
     <use transform="translate(1076.611328 0.390625)" xlink:href="#DejaVuSans-30"/>
     <use transform="translate(1140.234375 0.390625)" xlink:href="#DejaVuSans-30"/>
     <use transform="translate(1203.857422 0.390625)" xlink:href="#DejaVuSans-31"/>
    </g>
   </g>
  </g>
  <g id="patch_14">
   <path d="M 57.995388 405.701771 
L 225.297159 405.701771 
L 225.297159 238.4 
L 57.995388 238.4 
z
" style="fill:none;opacity:0;"/>
  </g>
  <g id="pane3d_10">
   <g id="patch_15">
    <path d="M 70.627825 364.450516 
L 125.876334 318.14012 
L 125.108327 251.352252 
L 67.215892 293.599513 
" style="fill:#f2f2f2;opacity:0.5;stroke:#f2f2f2;stroke-linejoin:miter;"/>
   </g>
  </g>
  <g id="pane3d_11">
   <g id="patch_16">
    <path d="M 125.876334 318.14012 
L 214.530478 343.90838 
L 217.694231 274.820079 
L 125.108327 251.352252 
" style="fill:#e6e6e6;opacity:0.5;stroke:#e6e6e6;stroke-linejoin:miter;"/>
   </g>
  </g>
  <g id="pane3d_12">
   <g id="patch_17">
    <path d="M 70.627825 364.450516 
L 164.605548 395.14364 
L 214.530478 343.90838 
L 125.876334 318.14012 
" style="fill:#ececec;opacity:0.5;stroke:#ececec;stroke-linejoin:miter;"/>
   </g>
  </g>
  <g id="axis3d_10">
   <g id="line2d_52">
    <path d="M 70.627825 364.450516 
L 164.605548 395.14364 
" style="fill:none;stroke:#000000;stroke-linecap:square;stroke-width:0.8;"/>
   </g>
   <g id="Line3DCollection_10">
    <path d="M 76.31468 366.307843 
L 131.263339 319.70591 
L 130.723098 252.775432 
" style="fill:none;stroke:#b0b0b0;stroke-width:0.8;"/>
    <path d="M 96.11845 372.775754 
L 150.000434 325.152044 
L 150.263622 257.728386 
" style="fill:none;stroke:#b0b0b0;stroke-width:0.8;"/>
    <path d="M 116.377918 379.392496 
L 169.132601 330.713009 
L 170.23415 262.790332 
" style="fill:none;stroke:#b0b0b0;stroke-width:0.8;"/>
    <path d="M 137.108995 386.163266 
L 188.672468 336.392477 
L 190.649036 267.964911 
" style="fill:none;stroke:#b0b0b0;stroke-width:0.8;"/>
    <path d="M 158.328342 393.093504 
L 208.633209 342.194277 
L 211.523275 273.255922 
" style="fill:none;stroke:#b0b0b0;stroke-width:0.8;"/>
   </g>
   <g id="xtick_40">
    <g id="line2d_53">
     <path d="M 76.79317 365.902036 
L 75.355647 367.121198 
" style="fill:none;stroke:#000000;stroke-linecap:square;stroke-width:0.8;"/>
    </g>
    <g id="text_43">
     <!-- −1.0 -->
     <g transform="translate(56.627651 389.651505)scale(0.1 -0.1)">
      <use xlink:href="#DejaVuSans-2212"/>
      <use x="83.789062" xlink:href="#DejaVuSans-31"/>
      <use x="147.412109" xlink:href="#DejaVuSans-2e"/>
      <use x="179.199219" xlink:href="#DejaVuSans-30"/>
     </g>
    </g>
   </g>
   <g id="xtick_41">
    <g id="line2d_54">
     <path d="M 96.588085 372.360666 
L 95.177143 373.607731 
" style="fill:none;stroke:#000000;stroke-linecap:square;stroke-width:0.8;"/>
    </g>
    <g id="text_44">
     <!-- −0.5 -->
     <g transform="translate(76.463773 396.338349)scale(0.1 -0.1)">
      <use xlink:href="#DejaVuSans-2212"/>
      <use x="83.789062" xlink:href="#DejaVuSans-30"/>
      <use x="147.412109" xlink:href="#DejaVuSans-2e"/>
      <use x="179.199219" xlink:href="#DejaVuSans-35"/>
     </g>
    </g>
   </g>
   <g id="xtick_42">
    <g id="line2d_55">
     <path d="M 116.838161 378.967805 
L 115.455411 380.243741 
" style="fill:none;stroke:#000000;stroke-linecap:square;stroke-width:0.8;"/>
    </g>
    <g id="text_45">
     <!-- 0.0 -->
     <g transform="translate(100.948949 403.179994)scale(0.1 -0.1)">
      <use xlink:href="#DejaVuSans-30"/>
      <use x="63.623047" xlink:href="#DejaVuSans-2e"/>
      <use x="95.410156" xlink:href="#DejaVuSans-30"/>
     </g>
    </g>
   </g>
   <g id="xtick_43">
    <g id="line2d_56">
     <path d="M 137.55928 385.728635 
L 136.206424 387.034457 
" style="fill:none;stroke:#000000;stroke-linecap:square;stroke-width:0.8;"/>
    </g>
    <g id="text_46">
     <!-- 0.5 -->
     <g transform="translate(121.719623 410.181878)scale(0.1 -0.1)">
      <use xlink:href="#DejaVuSans-30"/>
      <use x="63.623047" xlink:href="#DejaVuSans-2e"/>
      <use x="95.410156" xlink:href="#DejaVuSans-35"/>
     </g>
    </g>
   </g>
   <g id="xtick_44">
    <g id="line2d_57">
     <path d="M 158.76807 392.648581 
L 157.44691 393.985351 
" style="fill:none;stroke:#000000;stroke-linecap:square;stroke-width:0.8;"/>
    </g>
    <g id="text_47">
     <!-- 1.0 -->
     <g transform="translate(142.982536 417.349699)scale(0.1 -0.1)">
      <use xlink:href="#DejaVuSans-31"/>
      <use x="63.623047" xlink:href="#DejaVuSans-2e"/>
      <use x="95.410156" xlink:href="#DejaVuSans-30"/>
     </g>
    </g>
   </g>
  </g>
  <g id="axis3d_11">
   <g id="line2d_58">
    <path d="M 214.530478 343.90838 
L 164.605548 395.14364 
" style="fill:none;stroke:#000000;stroke-linecap:square;stroke-width:0.8;"/>
   </g>
   <g id="Line3DCollection_11">
    <path d="M 71.219298 290.678011 
L 74.434915 361.259338 
L 168.059966 391.598556 
" style="fill:none;stroke:#b0b0b0;stroke-width:0.8;"/>
    <path d="M 84.597557 280.915167 
L 87.171633 350.583168 
L 179.601525 379.754078 
" style="fill:none;stroke:#b0b0b0;stroke-width:0.8;"/>
    <path d="M 97.456253 271.531476 
L 99.434773 340.303961 
L 190.691744 368.372785 
" style="fill:none;stroke:#b0b0b0;stroke-width:0.8;"/>
    <path d="M 109.825076 262.505272 
L 111.250265 330.399981 
L 201.356592 357.428027 
" style="fill:none;stroke:#b0b0b0;stroke-width:0.8;"/>
    <path d="M 121.731498 253.816508 
L 122.642181 320.851052 
L 211.620082 346.895162 
" style="fill:none;stroke:#b0b0b0;stroke-width:0.8;"/>
   </g>
   <g id="xtick_45">
    <g id="line2d_59">
     <path d="M 167.270985 391.342887 
L 169.639969 392.110556 
" style="fill:none;stroke:#000000;stroke-linecap:square;stroke-width:0.8;"/>
    </g>
    <g id="text_48">
     <!-- −1.0 -->
     <g transform="translate(168.803751 412.625035)scale(0.1 -0.1)">
      <use xlink:href="#DejaVuSans-2212"/>
      <use x="83.789062" xlink:href="#DejaVuSans-31"/>
      <use x="147.412109" xlink:href="#DejaVuSans-2e"/>
      <use x="179.199219" xlink:href="#DejaVuSans-30"/>
     </g>
    </g>
   </g>
   <g id="xtick_46">
    <g id="line2d_60">
     <path d="M 178.823402 379.508503 
L 181.159742 380.245852 
" style="fill:none;stroke:#000000;stroke-linecap:square;stroke-width:0.8;"/>
    </g>
    <g id="text_49">
     <!-- −0.5 -->
     <g transform="translate(180.098881 400.501456)scale(0.1 -0.1)">
      <use xlink:href="#DejaVuSans-2212"/>
      <use x="83.789062" xlink:href="#DejaVuSans-30"/>
      <use x="147.412109" xlink:href="#DejaVuSans-2e"/>
      <use x="179.199219" xlink:href="#DejaVuSans-35"/>
     </g>
    </g>
   </g>
   <g id="xtick_47">
    <g id="line2d_61">
     <path d="M 189.924242 368.136716 
L 192.228655 368.845508 
" style="fill:none;stroke:#000000;stroke-linecap:square;stroke-width:0.8;"/>
    </g>
    <g id="text_50">
     <!-- 0.0 -->
     <g transform="translate(195.141748 388.85241)scale(0.1 -0.1)">
      <use xlink:href="#DejaVuSans-30"/>
      <use x="63.623047" xlink:href="#DejaVuSans-2e"/>
      <use x="95.410156" xlink:href="#DejaVuSans-30"/>
     </g>
    </g>
   </g>
   <g id="xtick_48">
    <g id="line2d_62">
     <path d="M 200.599477 357.200924 
L 202.872669 357.882785 
" style="fill:none;stroke:#000000;stroke-linecap:square;stroke-width:0.8;"/>
    </g>
    <g id="text_51">
     <!-- 0.5 -->
     <g transform="translate(205.578124 377.650571)scale(0.1 -0.1)">
      <use xlink:href="#DejaVuSans-30"/>
      <use x="63.623047" xlink:href="#DejaVuSans-2e"/>
      <use x="95.410156" xlink:href="#DejaVuSans-35"/>
     </g>
    </g>
   </g>
   <g id="xtick_49">
    <g id="line2d_63">
     <path d="M 210.873121 346.676524 
L 213.115789 347.33296 
" style="fill:none;stroke:#000000;stroke-linecap:square;stroke-width:0.8;"/>
    </g>
    <g id="text_52">
     <!-- 1.0 -->
     <g transform="translate(215.621393 366.870671)scale(0.1 -0.1)">
      <use xlink:href="#DejaVuSans-31"/>
      <use x="63.623047" xlink:href="#DejaVuSans-2e"/>
      <use x="95.410156" xlink:href="#DejaVuSans-30"/>
     </g>
    </g>
   </g>
  </g>
  <g id="axis3d_12">
   <g id="line2d_64">
    <path d="M 214.530478 343.90838 
L 217.694231 274.820079 
" style="fill:none;stroke:#000000;stroke-linecap:square;stroke-width:0.8;"/>
   </g>
   <g id="Line3DCollection_12">
    <path d="M 215.218325 328.88756 
L 125.709082 303.595445 
L 69.886999 349.066775 
" style="fill:none;stroke:#b0b0b0;stroke-width:0.8;"/>
    <path d="M 216.114493 309.317531 
L 125.491406 284.665794 
L 68.920991 329.00699 
" style="fill:none;stroke:#b0b0b0;stroke-width:0.8;"/>
    <path d="M 217.033472 289.249369 
L 125.26846 265.277806 
L 67.929435 308.416697 
" style="fill:none;stroke:#b0b0b0;stroke-width:0.8;"/>
   </g>
   <g id="xtick_50">
    <g id="line2d_65">
     <path d="M 214.466753 328.675193 
L 216.723272 329.312804 
" style="fill:none;stroke:#000000;stroke-linecap:square;stroke-width:0.8;"/>
    </g>
    <g id="text_53">
     <!-- −1 -->
     <g transform="translate(226.236875 333.9326)scale(0.1 -0.1)">
      <use xlink:href="#DejaVuSans-2212"/>
      <use x="83.789062" xlink:href="#DejaVuSans-31"/>
     </g>
    </g>
   </g>
   <g id="xtick_51">
    <g id="line2d_66">
     <path d="M 215.353118 309.110418 
L 217.639095 309.732261 
" style="fill:none;stroke:#000000;stroke-linecap:square;stroke-width:0.8;"/>
    </g>
    <g id="text_54">
     <!-- 0 -->
     <g transform="translate(231.548504 314.425883)scale(0.1 -0.1)">
      <use xlink:href="#DejaVuSans-30"/>
     </g>
    </g>
   </g>
   <g id="xtick_52">
    <g id="line2d_67">
     <path d="M 216.262034 289.047848 
L 218.578248 289.652907 
" style="fill:none;stroke:#000000;stroke-linecap:square;stroke-width:0.8;"/>
    </g>
    <g id="text_55">
     <!-- 1 -->
     <g transform="translate(232.698702 294.425091)scale(0.1 -0.1)">
      <use xlink:href="#DejaVuSans-31"/>
     </g>
    </g>
   </g>
  </g>
  <g id="axes_4">
   <g id="line2d_68">
    <path clip-path="url(#p23dc13f7c0)" d="M 119.39179 336.287447 
L 117.007894 347.884161 
L 114.781177 359.180932 
L 112.6069 364.790299 
L 110.524289 367.297056 
L 108.550993 367.682444 
L 106.719087 367.286864 
L 105.051944 366.865471 
L 103.527321 365.360181 
L 102.142854 362.604689 
L 100.968614 361.028913 
L 99.961141 358.908164 
L 99.139009 356.814644 
L 98.493218 354.378022 
L 98.035919 351.977306 
L 97.767697 349.619271 
L 97.688299 347.310381 
L 97.796657 345.056777 
L 98.090922 342.864282 
L 98.543364 339.881746 
L 99.193983 337.573105 
L 100.020999 335.34109 
L 101.019866 333.190133 
L 102.185434 331.124343 
L 103.511929 329.144947 
L 104.993193 327.257979 
L 106.622513 325.466596 
L 108.392735 323.773641 
L 110.296299 322.18165 
L 112.325277 320.69285 
L 114.471405 319.309166 
L 116.708952 317.041719 
L 119.056324 315.329177 
L 121.498627 313.899777 
L 124.02361 312.579484 
L 126.618024 311.019144 
L 129.277316 309.567688 
L 131.984651 307.276133 
L 134.742866 305.460905 
L 137.541586 304.472518 
L 140.365399 303.588567 
L 143.204345 302.933112 
L 146.047875 302.379055 
L 148.887217 301.517805 
L 151.712508 300.752674 
L 154.511219 300.457352 
L 157.274576 300.253684 
L 159.996526 299.761428 
L 162.66474 299.353249 
L 165.269512 299.025401 
L 167.803207 298.64485 
L 170.243827 299.001078 
L 172.591115 299.427189 
L 174.834329 300.010022 
L 176.966264 300.654154 
L 178.978475 301.35478 
L 180.862814 302.106825 
L 182.61146 302.904939 
L 184.216951 303.743499 
L 185.687995 304.019104 
L 187.003264 304.319647 
L 188.156411 304.638269 
L 189.141578 304.967867 
L 189.937305 305.854693 
L 190.572521 306.127095 
L 191.025568 306.387677 
L 191.292882 306.628465 
L 191.380149 306.555793 
L 191.253503 307.215717 
L 190.934628 307.834412 
L 190.423006 308.403758 
L 189.715292 309.040389 
L 188.816329 309.612178 
L 187.737536 309.771981 
L 186.471855 309.848644 
L 185.022884 309.834172 
L 183.395101 309.720756 
L 181.563751 310.760655 
L 179.56818 311.693809 
L 177.430258 311.839217 
L 175.134995 312.218181 
L 172.700926 312.390701 
L 170.136155 312.431013 
L 167.451218 312.334304 
L 164.657341 312.096325 
L 161.762589 312.048299 
L 158.790198 311.246316 
L 155.742811 310.597893 
L 152.637277 309.797978 
L 149.487372 308.845858 
L 146.304618 309.415346 
L 143.11255 309.696599 
L 139.926617 310.437491 
L 136.762128 311.034622 
L 133.638454 312.2749 
L 130.567595 313.377798 
L 127.577113 315.684833 
L 124.67129 317.858645 
L 121.909224 323.214468 
L 119.39179 336.287447 
" style="fill:none;stroke:#1f77b4;stroke-linecap:square;stroke-width:1.5;"/>
   </g>
   <g id="text_56">
    <!-- $\ell$ = 1.6675 -->
    <g transform="translate(109.306274 232.4)scale(0.12 -0.12)">
     <defs>
      <path d="M 950 838 
Q 1078 213 1350 213 
Q 1531 213 1766 572 
L 2181 572 
Q 1994 253 1775 88 
Q 1538 -91 1319 -91 
Q 831 -91 634 344 
L 400 0 
L -88 0 
Q 250 459 500 888 
Q 469 1131 469 1397 
Q 469 1872 566 2347 
Q 931 4131 1256 4497 
Q 1481 4750 1866 4750 
Q 2256 4750 2256 4209 
Q 2253 3966 2197 3675 
Q 1972 2484 950 838 
z
M 947 1656 
Q 1531 2744 1709 3613 
Q 1803 4072 1803 4191 
Q 1803 4406 1725 4406 
Q 1384 4134 1081 2516 
Q 997 2063 947 1656 
z
" id="DejaVuSans-Oblique-2113" transform="scale(0.015625)"/>
      <path d="M 2113 2584 
Q 1688 2584 1439 2293 
Q 1191 2003 1191 1497 
Q 1191 994 1439 701 
Q 1688 409 2113 409 
Q 2538 409 2786 701 
Q 3034 994 3034 1497 
Q 3034 2003 2786 2293 
Q 2538 2584 2113 2584 
z
M 3366 4563 
L 3366 3988 
Q 3128 4100 2886 4159 
Q 2644 4219 2406 4219 
Q 1781 4219 1451 3797 
Q 1122 3375 1075 2522 
Q 1259 2794 1537 2939 
Q 1816 3084 2150 3084 
Q 2853 3084 3261 2657 
Q 3669 2231 3669 1497 
Q 3669 778 3244 343 
Q 2819 -91 2113 -91 
Q 1303 -91 875 529 
Q 447 1150 447 2328 
Q 447 3434 972 4092 
Q 1497 4750 2381 4750 
Q 2619 4750 2861 4703 
Q 3103 4656 3366 4563 
z
" id="DejaVuSans-36" transform="scale(0.015625)"/>
      <path d="M 525 4666 
L 3525 4666 
L 3525 4397 
L 1831 0 
L 1172 0 
L 2766 4134 
L 525 4134 
L 525 4666 
z
" id="DejaVuSans-37" transform="scale(0.015625)"/>
     </defs>
     <use transform="translate(0 0.78125)" xlink:href="#DejaVuSans-Oblique-2113"/>
     <use transform="translate(41.308594 0.78125)" xlink:href="#DejaVuSans-20"/>
     <use transform="translate(73.095703 0.78125)" xlink:href="#DejaVuSans-3d"/>
     <use transform="translate(156.884766 0.78125)" xlink:href="#DejaVuSans-20"/>
     <use transform="translate(188.671875 0.78125)" xlink:href="#DejaVuSans-31"/>
     <use transform="translate(252.294922 0.78125)" xlink:href="#DejaVuSans-2e"/>
     <use transform="translate(284.082031 0.78125)" xlink:href="#DejaVuSans-36"/>
     <use transform="translate(347.705078 0.78125)" xlink:href="#DejaVuSans-36"/>
     <use transform="translate(411.328125 0.78125)" xlink:href="#DejaVuSans-37"/>
     <use transform="translate(474.951172 0.78125)" xlink:href="#DejaVuSans-35"/>
    </g>
   </g>
  </g>
  <g id="patch_18">
   <path d="M 283.861971 405.701771 
L 451.163742 405.701771 
L 451.163742 238.4 
L 283.861971 238.4 
z
" style="fill:none;opacity:0;"/>
  </g>
  <g id="pane3d_13">
   <g id="patch_19">
    <path d="M 296.494408 364.450516 
L 351.742917 318.14012 
L 350.97491 251.352252 
L 293.082475 293.599513 
" style="fill:#f2f2f2;opacity:0.5;stroke:#f2f2f2;stroke-linejoin:miter;"/>
   </g>
  </g>
  <g id="pane3d_14">
   <g id="patch_20">
    <path d="M 351.742917 318.14012 
L 440.39706 343.90838 
L 443.560814 274.820079 
L 350.97491 251.352252 
" style="fill:#e6e6e6;opacity:0.5;stroke:#e6e6e6;stroke-linejoin:miter;"/>
   </g>
  </g>
  <g id="pane3d_15">
   <g id="patch_21">
    <path d="M 296.494408 364.450516 
L 390.47213 395.14364 
L 440.39706 343.90838 
L 351.742917 318.14012 
" style="fill:#ececec;opacity:0.5;stroke:#ececec;stroke-linejoin:miter;"/>
   </g>
  </g>
  <g id="axis3d_13">
   <g id="line2d_69">
    <path d="M 296.494408 364.450516 
L 390.47213 395.14364 
" style="fill:none;stroke:#000000;stroke-linecap:square;stroke-width:0.8;"/>
   </g>
   <g id="Line3DCollection_13">
    <path d="M 302.181263 366.307843 
L 357.129922 319.70591 
L 356.589681 252.775432 
" style="fill:none;stroke:#b0b0b0;stroke-width:0.8;"/>
    <path d="M 321.985033 372.775754 
L 375.867016 325.152044 
L 376.130205 257.728386 
" style="fill:none;stroke:#b0b0b0;stroke-width:0.8;"/>
    <path d="M 342.244501 379.392496 
L 394.999183 330.713009 
L 396.100733 262.790332 
" style="fill:none;stroke:#b0b0b0;stroke-width:0.8;"/>
    <path d="M 362.975577 386.163266 
L 414.539051 336.392477 
L 416.515618 267.964911 
" style="fill:none;stroke:#b0b0b0;stroke-width:0.8;"/>
    <path d="M 384.194925 393.093504 
L 434.499792 342.194277 
L 437.389858 273.255922 
" style="fill:none;stroke:#b0b0b0;stroke-width:0.8;"/>
   </g>
   <g id="xtick_53">
    <g id="line2d_70">
     <path d="M 302.659752 365.902036 
L 301.22223 367.121198 
" style="fill:none;stroke:#000000;stroke-linecap:square;stroke-width:0.8;"/>
    </g>
    <g id="text_57">
     <!-- −1.0 -->
     <g transform="translate(282.494233 389.651505)scale(0.1 -0.1)">
      <use xlink:href="#DejaVuSans-2212"/>
      <use x="83.789062" xlink:href="#DejaVuSans-31"/>
      <use x="147.412109" xlink:href="#DejaVuSans-2e"/>
      <use x="179.199219" xlink:href="#DejaVuSans-30"/>
     </g>
    </g>
   </g>
   <g id="xtick_54">
    <g id="line2d_71">
     <path d="M 322.454668 372.360666 
L 321.043725 373.607731 
" style="fill:none;stroke:#000000;stroke-linecap:square;stroke-width:0.8;"/>
    </g>
    <g id="text_58">
     <!-- −0.5 -->
     <g transform="translate(302.330356 396.338349)scale(0.1 -0.1)">
      <use xlink:href="#DejaVuSans-2212"/>
      <use x="83.789062" xlink:href="#DejaVuSans-30"/>
      <use x="147.412109" xlink:href="#DejaVuSans-2e"/>
      <use x="179.199219" xlink:href="#DejaVuSans-35"/>
     </g>
    </g>
   </g>
   <g id="xtick_55">
    <g id="line2d_72">
     <path d="M 342.704744 378.967805 
L 341.321993 380.243741 
" style="fill:none;stroke:#000000;stroke-linecap:square;stroke-width:0.8;"/>
    </g>
    <g id="text_59">
     <!-- 0.0 -->
     <g transform="translate(326.815532 403.179994)scale(0.1 -0.1)">
      <use xlink:href="#DejaVuSans-30"/>
      <use x="63.623047" xlink:href="#DejaVuSans-2e"/>
      <use x="95.410156" xlink:href="#DejaVuSans-30"/>
     </g>
    </g>
   </g>
   <g id="xtick_56">
    <g id="line2d_73">
     <path d="M 363.425863 385.728635 
L 362.073007 387.034457 
" style="fill:none;stroke:#000000;stroke-linecap:square;stroke-width:0.8;"/>
    </g>
    <g id="text_60">
     <!-- 0.5 -->
     <g transform="translate(347.586205 410.181878)scale(0.1 -0.1)">
      <use xlink:href="#DejaVuSans-30"/>
      <use x="63.623047" xlink:href="#DejaVuSans-2e"/>
      <use x="95.410156" xlink:href="#DejaVuSans-35"/>
     </g>
    </g>
   </g>
   <g id="xtick_57">
    <g id="line2d_74">
     <path d="M 384.634653 392.648581 
L 383.313492 393.985351 
" style="fill:none;stroke:#000000;stroke-linecap:square;stroke-width:0.8;"/>
    </g>
    <g id="text_61">
     <!-- 1.0 -->
     <g transform="translate(368.849118 417.349699)scale(0.1 -0.1)">
      <use xlink:href="#DejaVuSans-31"/>
      <use x="63.623047" xlink:href="#DejaVuSans-2e"/>
      <use x="95.410156" xlink:href="#DejaVuSans-30"/>
     </g>
    </g>
   </g>
  </g>
  <g id="axis3d_14">
   <g id="line2d_75">
    <path d="M 440.39706 343.90838 
L 390.47213 395.14364 
" style="fill:none;stroke:#000000;stroke-linecap:square;stroke-width:0.8;"/>
   </g>
   <g id="Line3DCollection_14">
    <path d="M 297.08588 290.678011 
L 300.301497 361.259338 
L 393.926549 391.598556 
" style="fill:none;stroke:#b0b0b0;stroke-width:0.8;"/>
    <path d="M 310.464139 280.915167 
L 313.038216 350.583168 
L 405.468107 379.754078 
" style="fill:none;stroke:#b0b0b0;stroke-width:0.8;"/>
    <path d="M 323.322835 271.531476 
L 325.301356 340.303961 
L 416.558327 368.372785 
" style="fill:none;stroke:#b0b0b0;stroke-width:0.8;"/>
    <path d="M 335.691659 262.505272 
L 337.116848 330.399981 
L 427.223175 357.428027 
" style="fill:none;stroke:#b0b0b0;stroke-width:0.8;"/>
    <path d="M 347.59808 253.816508 
L 348.508764 320.851052 
L 437.486665 346.895162 
" style="fill:none;stroke:#b0b0b0;stroke-width:0.8;"/>
   </g>
   <g id="xtick_58">
    <g id="line2d_76">
     <path d="M 393.137568 391.342887 
L 395.506552 392.110556 
" style="fill:none;stroke:#000000;stroke-linecap:square;stroke-width:0.8;"/>
    </g>
    <g id="text_62">
     <!-- −1.0 -->
     <g transform="translate(394.670334 412.625035)scale(0.1 -0.1)">
      <use xlink:href="#DejaVuSans-2212"/>
      <use x="83.789062" xlink:href="#DejaVuSans-31"/>
      <use x="147.412109" xlink:href="#DejaVuSans-2e"/>
      <use x="179.199219" xlink:href="#DejaVuSans-30"/>
     </g>
    </g>
   </g>
   <g id="xtick_59">
    <g id="line2d_77">
     <path d="M 404.689985 379.508503 
L 407.026325 380.245852 
" style="fill:none;stroke:#000000;stroke-linecap:square;stroke-width:0.8;"/>
    </g>
    <g id="text_63">
     <!-- −0.5 -->
     <g transform="translate(405.965463 400.501456)scale(0.1 -0.1)">
      <use xlink:href="#DejaVuSans-2212"/>
      <use x="83.789062" xlink:href="#DejaVuSans-30"/>
      <use x="147.412109" xlink:href="#DejaVuSans-2e"/>
      <use x="179.199219" xlink:href="#DejaVuSans-35"/>
     </g>
    </g>
   </g>
   <g id="xtick_60">
    <g id="line2d_78">
     <path d="M 415.790825 368.136716 
L 418.095238 368.845508 
" style="fill:none;stroke:#000000;stroke-linecap:square;stroke-width:0.8;"/>
    </g>
    <g id="text_64">
     <!-- 0.0 -->
     <g transform="translate(421.00833 388.85241)scale(0.1 -0.1)">
      <use xlink:href="#DejaVuSans-30"/>
      <use x="63.623047" xlink:href="#DejaVuSans-2e"/>
      <use x="95.410156" xlink:href="#DejaVuSans-30"/>
     </g>
    </g>
   </g>
   <g id="xtick_61">
    <g id="line2d_79">
     <path d="M 426.466059 357.200924 
L 428.739252 357.882785 
" style="fill:none;stroke:#000000;stroke-linecap:square;stroke-width:0.8;"/>
    </g>
    <g id="text_65">
     <!-- 0.5 -->
     <g transform="translate(431.444707 377.650571)scale(0.1 -0.1)">
      <use xlink:href="#DejaVuSans-30"/>
      <use x="63.623047" xlink:href="#DejaVuSans-2e"/>
      <use x="95.410156" xlink:href="#DejaVuSans-35"/>
     </g>
    </g>
   </g>
   <g id="xtick_62">
    <g id="line2d_80">
     <path d="M 436.739704 346.676524 
L 438.982372 347.33296 
" style="fill:none;stroke:#000000;stroke-linecap:square;stroke-width:0.8;"/>
    </g>
    <g id="text_66">
     <!-- 1.0 -->
     <g transform="translate(441.487976 366.870671)scale(0.1 -0.1)">
      <use xlink:href="#DejaVuSans-31"/>
      <use x="63.623047" xlink:href="#DejaVuSans-2e"/>
      <use x="95.410156" xlink:href="#DejaVuSans-30"/>
     </g>
    </g>
   </g>
  </g>
  <g id="axis3d_15">
   <g id="line2d_81">
    <path d="M 440.39706 343.90838 
L 443.560814 274.820079 
" style="fill:none;stroke:#000000;stroke-linecap:square;stroke-width:0.8;"/>
   </g>
   <g id="Line3DCollection_15">
    <path d="M 441.088426 328.810717 
L 351.574809 303.521072 
L 295.74979 348.988046 
" style="fill:none;stroke:#b0b0b0;stroke-width:0.8;"/>
    <path d="M 441.995765 308.99675 
L 351.354423 284.355699 
L 294.771732 328.678022 
" style="fill:none;stroke:#b0b0b0;stroke-width:0.8;"/>
    <path d="M 442.92649 288.672099 
L 351.128633 264.720454 
L 293.767481 307.82411 
" style="fill:none;stroke:#b0b0b0;stroke-width:0.8;"/>
   </g>
   <g id="xtick_63">
    <g id="line2d_82">
     <path d="M 440.336816 328.59837 
L 442.593451 329.235921 
" style="fill:none;stroke:#000000;stroke-linecap:square;stroke-width:0.8;"/>
    </g>
    <g id="text_67">
     <!-- −1 -->
     <g transform="translate(452.107863 333.856001)scale(0.1 -0.1)">
      <use xlink:href="#DejaVuSans-2212"/>
      <use x="83.789062" xlink:href="#DejaVuSans-31"/>
     </g>
    </g>
   </g>
   <g id="xtick_64">
    <g id="line2d_83">
     <path d="M 441.234229 308.789725 
L 443.52069 309.411304 
" style="fill:none;stroke:#000000;stroke-linecap:square;stroke-width:0.8;"/>
    </g>
    <g id="text_68">
     <!-- 0 -->
     <g transform="translate(457.433473 314.10616)scale(0.1 -0.1)">
      <use xlink:href="#DejaVuSans-30"/>
     </g>
    </g>
   </g>
   <g id="xtick_65">
    <g id="line2d_84">
     <path d="M 442.154762 288.470742 
L 444.471846 289.07531 
" style="fill:none;stroke:#000000;stroke-linecap:square;stroke-width:0.8;"/>
    </g>
    <g id="text_69">
     <!-- 1 -->
     <g transform="translate(458.598368 293.849796)scale(0.1 -0.1)">
      <use xlink:href="#DejaVuSans-31"/>
     </g>
    </g>
   </g>
  </g>
  <g id="axes_5">
   <g id="line2d_85">
    <path clip-path="url(#p1a64a88d63)" d="M 345.246742 335.552182 
L 342.929226 351.015078 
L 340.797148 367.012815 
L 338.59079 370.492058 
L 336.463 370.578752 
L 334.432982 368.34411 
L 332.559814 366.230857 
L 330.918527 366.865471 
L 329.389492 365.194009 
L 327.941116 360.112391 
L 326.794491 359.583089 
L 325.769962 356.900796 
L 324.919354 353.868682 
L 324.147612 347.221109 
L 323.620174 342.534867 
L 323.331804 339.546303 
L 323.279169 338.130671 
L 323.460889 338.293897 
L 323.877562 340.17149 
L 324.300984 336.167662 
L 324.888974 331.630298 
L 325.698107 328.645611 
L 326.717771 327.082324 
L 327.939325 326.924194 
L 329.203562 322.401669 
L 330.656535 319.1162 
L 332.284344 316.89604 
L 334.074777 315.65522 
L 336.016862 315.387116 
L 338.100481 316.163406 
L 340.315992 318.138372 
L 342.546109 315.344104 
L 344.898068 313.759097 
L 347.341199 312.215071 
L 349.880947 311.847817 
L 352.475514 310.190746 
L 355.144607 309.644047 
L 357.841869 306.035995 
L 360.59828 303.534614 
L 363.40097 302.683991 
L 366.229354 302.414301 
L 369.070504 301.977135 
L 371.914865 302.078413 
L 374.756345 300.707629 
L 377.584031 299.749376 
L 380.381838 299.853801 
L 383.141147 300.255147 
L 385.865151 299.560075 
L 388.534803 299.058838 
L 391.141035 298.65835 
L 393.685799 297.581336 
L 396.118997 298.483589 
L 398.460916 299.249192 
L 400.690687 300.534394 
L 402.8109 301.706694 
L 404.813496 302.780994 
L 406.690893 303.757243 
L 408.436102 304.620574 
L 410.042861 305.34015 
L 411.507309 305.809049 
L 412.823869 306.007216 
L 413.989714 305.827696 
L 415.003685 305.124334 
L 415.765971 307.156439 
L 416.381775 308.068162 
L 416.836175 308.264384 
L 417.12974 307.619272 
L 417.243786 306.653812 
L 417.068756 308.927462 
L 416.736388 310.009938 
L 416.246868 309.852757 
L 415.504796 311.69406 
L 414.60992 312.174517 
L 413.486692 313.995267 
L 412.215727 314.392972 
L 410.800012 313.263693 
L 409.245628 310.361709 
L 407.374976 313.076565 
L 405.387396 313.785062 
L 403.270329 313.084222 
L 400.956017 314.514537 
L 398.473356 317.53673 
L 395.900805 318.546897 
L 393.239812 317.547493 
L 390.494141 314.355573 
L 387.602773 314.375609 
L 384.638287 313.203348 
L 381.580071 314.501399 
L 378.485527 313.108271 
L 375.353955 308.845858 
L 372.169771 310.355463 
L 368.979521 310.467498 
L 365.798378 312.487321 
L 362.631047 311.549685 
L 359.510393 313.095839 
L 356.420623 311.779634 
L 353.412169 312.652869 
L 350.450142 310.706066 
L 347.626038 312.573507 
L 345.246742 335.552182 
" style="fill:none;stroke:#1f77b4;stroke-linecap:square;stroke-width:1.5;"/>
   </g>
   <g id="text_70">
    <!-- $\ell$ = 0.2133 -->
    <g transform="translate(335.472856 232.4)scale(0.12 -0.12)">
     <use transform="translate(0 0.78125)" xlink:href="#DejaVuSans-Oblique-2113"/>
     <use transform="translate(41.308594 0.78125)" xlink:href="#DejaVuSans-20"/>
     <use transform="translate(73.095703 0.78125)" xlink:href="#DejaVuSans-3d"/>
     <use transform="translate(156.884766 0.78125)" xlink:href="#DejaVuSans-20"/>
     <use transform="translate(188.671875 0.78125)" xlink:href="#DejaVuSans-30"/>
     <use transform="translate(252.294922 0.78125)" xlink:href="#DejaVuSans-2e"/>
     <use transform="translate(278.582031 0.78125)" xlink:href="#DejaVuSans-32"/>
     <use transform="translate(342.205078 0.78125)" xlink:href="#DejaVuSans-31"/>
     <use transform="translate(405.828125 0.78125)" xlink:href="#DejaVuSans-33"/>
     <use transform="translate(469.451172 0.78125)" xlink:href="#DejaVuSans-33"/>
    </g>
   </g>
  </g>
  <g id="patch_22">
   <path d="M 509.728553 405.701771 
L 677.030324 405.701771 
L 677.030324 238.4 
L 509.728553 238.4 
z
" style="fill:none;opacity:0;"/>
  </g>
  <g id="pane3d_16">
   <g id="patch_23">
    <path d="M 522.360991 364.450516 
L 577.609499 318.14012 
L 576.841492 251.352252 
L 518.949058 293.599513 
" style="fill:#f2f2f2;opacity:0.5;stroke:#f2f2f2;stroke-linejoin:miter;"/>
   </g>
  </g>
  <g id="pane3d_17">
   <g id="patch_24">
    <path d="M 577.609499 318.14012 
L 666.263643 343.90838 
L 669.427397 274.820079 
L 576.841492 251.352252 
" style="fill:#e6e6e6;opacity:0.5;stroke:#e6e6e6;stroke-linejoin:miter;"/>
   </g>
  </g>
  <g id="pane3d_18">
   <g id="patch_25">
    <path d="M 522.360991 364.450516 
L 616.338713 395.14364 
L 666.263643 343.90838 
L 577.609499 318.14012 
" style="fill:#ececec;opacity:0.5;stroke:#ececec;stroke-linejoin:miter;"/>
   </g>
  </g>
  <g id="axis3d_16">
   <g id="line2d_86">
    <path d="M 522.360991 364.450516 
L 616.338713 395.14364 
" style="fill:none;stroke:#000000;stroke-linecap:square;stroke-width:0.8;"/>
   </g>
   <g id="Line3DCollection_16">
    <path d="M 528.047845 366.307843 
L 582.996505 319.70591 
L 582.456264 252.775432 
" style="fill:none;stroke:#b0b0b0;stroke-width:0.8;"/>
    <path d="M 547.851616 372.775754 
L 601.733599 325.152044 
L 601.996787 257.728386 
" style="fill:none;stroke:#b0b0b0;stroke-width:0.8;"/>
    <path d="M 568.111083 379.392496 
L 620.865766 330.713009 
L 621.967316 262.790332 
" style="fill:none;stroke:#b0b0b0;stroke-width:0.8;"/>
    <path d="M 588.84216 386.163266 
L 640.405634 336.392477 
L 642.382201 267.964911 
" style="fill:none;stroke:#b0b0b0;stroke-width:0.8;"/>
    <path d="M 610.061507 393.093504 
L 660.366375 342.194277 
L 663.25644 273.255922 
" style="fill:none;stroke:#b0b0b0;stroke-width:0.8;"/>
   </g>
   <g id="xtick_66">
    <g id="line2d_87">
     <path d="M 528.526335 365.902036 
L 527.088813 367.121198 
" style="fill:none;stroke:#000000;stroke-linecap:square;stroke-width:0.8;"/>
    </g>
    <g id="text_71">
     <!-- −1.0 -->
     <g transform="translate(508.360816 389.651505)scale(0.1 -0.1)">
      <use xlink:href="#DejaVuSans-2212"/>
      <use x="83.789062" xlink:href="#DejaVuSans-31"/>
      <use x="147.412109" xlink:href="#DejaVuSans-2e"/>
      <use x="179.199219" xlink:href="#DejaVuSans-30"/>
     </g>
    </g>
   </g>
   <g id="xtick_67">
    <g id="line2d_88">
     <path d="M 548.321251 372.360666 
L 546.910308 373.607731 
" style="fill:none;stroke:#000000;stroke-linecap:square;stroke-width:0.8;"/>
    </g>
    <g id="text_72">
     <!-- −0.5 -->
     <g transform="translate(528.196939 396.338349)scale(0.1 -0.1)">
      <use xlink:href="#DejaVuSans-2212"/>
      <use x="83.789062" xlink:href="#DejaVuSans-30"/>
      <use x="147.412109" xlink:href="#DejaVuSans-2e"/>
      <use x="179.199219" xlink:href="#DejaVuSans-35"/>
     </g>
    </g>
   </g>
   <g id="xtick_68">
    <g id="line2d_89">
     <path d="M 568.571327 378.967805 
L 567.188576 380.243741 
" style="fill:none;stroke:#000000;stroke-linecap:square;stroke-width:0.8;"/>
    </g>
    <g id="text_73">
     <!-- 0.0 -->
     <g transform="translate(552.682114 403.179994)scale(0.1 -0.1)">
      <use xlink:href="#DejaVuSans-30"/>
      <use x="63.623047" xlink:href="#DejaVuSans-2e"/>
      <use x="95.410156" xlink:href="#DejaVuSans-30"/>
     </g>
    </g>
   </g>
   <g id="xtick_69">
    <g id="line2d_90">
     <path d="M 589.292445 385.728635 
L 587.939589 387.034457 
" style="fill:none;stroke:#000000;stroke-linecap:square;stroke-width:0.8;"/>
    </g>
    <g id="text_74">
     <!-- 0.5 -->
     <g transform="translate(573.452788 410.181878)scale(0.1 -0.1)">
      <use xlink:href="#DejaVuSans-30"/>
      <use x="63.623047" xlink:href="#DejaVuSans-2e"/>
      <use x="95.410156" xlink:href="#DejaVuSans-35"/>
     </g>
    </g>
   </g>
   <g id="xtick_70">
    <g id="line2d_91">
     <path d="M 610.501235 392.648581 
L 609.180075 393.985351 
" style="fill:none;stroke:#000000;stroke-linecap:square;stroke-width:0.8;"/>
    </g>
    <g id="text_75">
     <!-- 1.0 -->
     <g transform="translate(594.715701 417.349699)scale(0.1 -0.1)">
      <use xlink:href="#DejaVuSans-31"/>
      <use x="63.623047" xlink:href="#DejaVuSans-2e"/>
      <use x="95.410156" xlink:href="#DejaVuSans-30"/>
     </g>
    </g>
   </g>
  </g>
  <g id="axis3d_17">
   <g id="line2d_92">
    <path d="M 666.263643 343.90838 
L 616.338713 395.14364 
" style="fill:none;stroke:#000000;stroke-linecap:square;stroke-width:0.8;"/>
   </g>
   <g id="Line3DCollection_17">
    <path d="M 522.952463 290.678011 
L 526.16808 361.259338 
L 619.793132 391.598556 
" style="fill:none;stroke:#b0b0b0;stroke-width:0.8;"/>
    <path d="M 536.330722 280.915167 
L 538.904799 350.583168 
L 631.33469 379.754078 
" style="fill:none;stroke:#b0b0b0;stroke-width:0.8;"/>
    <path d="M 549.189418 271.531476 
L 551.167939 340.303961 
L 642.42491 368.372785 
" style="fill:none;stroke:#b0b0b0;stroke-width:0.8;"/>
    <path d="M 561.558242 262.505272 
L 562.983431 330.399981 
L 653.089758 357.428027 
" style="fill:none;stroke:#b0b0b0;stroke-width:0.8;"/>
    <path d="M 573.464663 253.816508 
L 574.375347 320.851052 
L 663.353247 346.895162 
" style="fill:none;stroke:#b0b0b0;stroke-width:0.8;"/>
   </g>
   <g id="xtick_71">
    <g id="line2d_93">
     <path d="M 619.004151 391.342887 
L 621.373134 392.110556 
" style="fill:none;stroke:#000000;stroke-linecap:square;stroke-width:0.8;"/>
    </g>
    <g id="text_76">
     <!-- −1.0 -->
     <g transform="translate(620.536916 412.625035)scale(0.1 -0.1)">
      <use xlink:href="#DejaVuSans-2212"/>
      <use x="83.789062" xlink:href="#DejaVuSans-31"/>
      <use x="147.412109" xlink:href="#DejaVuSans-2e"/>
      <use x="179.199219" xlink:href="#DejaVuSans-30"/>
     </g>
    </g>
   </g>
   <g id="xtick_72">
    <g id="line2d_94">
     <path d="M 630.556567 379.508503 
L 632.892907 380.245852 
" style="fill:none;stroke:#000000;stroke-linecap:square;stroke-width:0.8;"/>
    </g>
    <g id="text_77">
     <!-- −0.5 -->
     <g transform="translate(631.832046 400.501456)scale(0.1 -0.1)">
      <use xlink:href="#DejaVuSans-2212"/>
      <use x="83.789062" xlink:href="#DejaVuSans-30"/>
      <use x="147.412109" xlink:href="#DejaVuSans-2e"/>
      <use x="179.199219" xlink:href="#DejaVuSans-35"/>
     </g>
    </g>
   </g>
   <g id="xtick_73">
    <g id="line2d_95">
     <path d="M 641.657408 368.136716 
L 643.961821 368.845508 
" style="fill:none;stroke:#000000;stroke-linecap:square;stroke-width:0.8;"/>
    </g>
    <g id="text_78">
     <!-- 0.0 -->
     <g transform="translate(646.874913 388.85241)scale(0.1 -0.1)">
      <use xlink:href="#DejaVuSans-30"/>
      <use x="63.623047" xlink:href="#DejaVuSans-2e"/>
      <use x="95.410156" xlink:href="#DejaVuSans-30"/>
     </g>
    </g>
   </g>
   <g id="xtick_74">
    <g id="line2d_96">
     <path d="M 652.332642 357.200924 
L 654.605835 357.882785 
" style="fill:none;stroke:#000000;stroke-linecap:square;stroke-width:0.8;"/>
    </g>
    <g id="text_79">
     <!-- 0.5 -->
     <g transform="translate(657.311289 377.650571)scale(0.1 -0.1)">
      <use xlink:href="#DejaVuSans-30"/>
      <use x="63.623047" xlink:href="#DejaVuSans-2e"/>
      <use x="95.410156" xlink:href="#DejaVuSans-35"/>
     </g>
    </g>
   </g>
   <g id="xtick_75">
    <g id="line2d_97">
     <path d="M 662.606287 346.676524 
L 664.848955 347.33296 
" style="fill:none;stroke:#000000;stroke-linecap:square;stroke-width:0.8;"/>
    </g>
    <g id="text_80">
     <!-- 1.0 -->
     <g transform="translate(667.354559 366.870671)scale(0.1 -0.1)">
      <use xlink:href="#DejaVuSans-31"/>
      <use x="63.623047" xlink:href="#DejaVuSans-2e"/>
      <use x="95.410156" xlink:href="#DejaVuSans-30"/>
     </g>
    </g>
   </g>
  </g>
  <g id="axis3d_18">
   <g id="line2d_98">
    <path d="M 666.263643 343.90838 
L 669.427397 274.820079 
" style="fill:none;stroke:#000000;stroke-linecap:square;stroke-width:0.8;"/>
   </g>
   <g id="Line3DCollection_18">
    <path d="M 666.849447 331.115922 
L 577.46705 305.752326 
L 521.730101 351.349689 
" style="fill:none;stroke:#b0b0b0;stroke-width:0.8;"/>
    <path d="M 667.892531 308.337636 
L 577.213679 283.718558 
L 520.605763 328.002068 
" style="fill:none;stroke:#b0b0b0;stroke-width:0.8;"/>
    <path d="M 668.966627 284.882109 
L 576.953143 261.061715 
L 519.446688 303.933136 
" style="fill:none;stroke:#b0b0b0;stroke-width:0.8;"/>
   </g>
   <g id="xtick_76">
    <g id="line2d_99">
     <path d="M 666.098991 330.902969 
L 668.352158 331.542339 
" style="fill:none;stroke:#000000;stroke-linecap:square;stroke-width:0.8;"/>
    </g>
    <g id="text_81">
     <!-- −1 -->
     <g transform="translate(677.842299 336.153903)scale(0.1 -0.1)">
      <use xlink:href="#DejaVuSans-2212"/>
      <use x="83.789062" xlink:href="#DejaVuSans-31"/>
     </g>
    </g>
   </g>
   <g id="xtick_77">
    <g id="line2d_100">
     <path d="M 667.130664 308.130791 
L 669.418117 308.751828 
" style="fill:none;stroke:#000000;stroke-linecap:square;stroke-width:0.8;"/>
    </g>
    <g id="text_82">
     <!-- 0 -->
     <g transform="translate(683.337835 313.44922)scale(0.1 -0.1)">
      <use xlink:href="#DejaVuSans-30"/>
     </g>
    </g>
   </g>
   <g id="xtick_78">
    <g id="line2d_101">
     <path d="M 668.192998 284.681832 
L 670.515796 285.283156 
" style="fill:none;stroke:#000000;stroke-linecap:square;stroke-width:0.8;"/>
    </g>
    <g id="text_83">
     <!-- 1 -->
     <g transform="translate(684.682156 290.07282)scale(0.1 -0.1)">
      <use xlink:href="#DejaVuSans-31"/>
     </g>
    </g>
   </g>
  </g>
  <g id="axes_6">
   <g id="line2d_102">
    <path clip-path="url(#pd0c05d192b)" d="M 571.105502 335.057627 
L 568.765299 349.270304 
L 566.71185 369.535527 
L 564.476472 371.420365 
L 562.33083 370.635473 
L 560.257725 366.547206 
L 558.23238 358.306693 
L 556.754465 365.667233 
L 555.256105 365.195181 
L 553.76608 358.594154 
L 552.655539 359.386523 
L 551.620374 356.338814 
L 550.744001 352.436111 
L 549.703101 336.728237 
L 549.08511 329.101747 
L 548.783433 325.727636 
L 548.763676 325.409654 
L 549.046141 328.891381 
L 549.717416 339.271153 
L 550.11406 334.343861 
L 550.522662 323.564346 
L 551.297173 319.192398 
L 552.371138 319.361728 
L 553.755084 325.029917 
L 554.889178 315.42645 
L 556.308274 310.509628 
L 557.937044 307.943243 
L 559.741052 306.843171 
L 561.7082 307.232743 
L 563.843778 310.052382 
L 566.174847 317.727018 
L 568.396825 314.42871 
L 570.746216 312.593878 
L 573.155458 308.54394 
L 575.73187 310.608505 
L 578.307226 307.013847 
L 581.008375 309.340665 
L 583.701712 305.14346 
L 586.457354 302.239344 
L 589.258713 300.487464 
L 592.093672 301.40237 
L 594.936278 300.155184 
L 597.782224 301.503452 
L 600.627828 299.148552 
L 603.456015 298.652276 
L 606.256622 298.627458 
L 609.011388 299.821136 
L 611.740239 298.721521 
L 614.409525 298.370324 
L 617.013853 298.195088 
L 619.566517 296.642288 
L 621.988056 298.334333 
L 624.335071 298.830267 
L 626.549027 300.95712 
L 628.66194 302.452097 
L 630.660908 303.647244 
L 632.536971 304.63611 
L 634.285172 305.336962 
L 635.906869 305.441209 
L 637.336171 307.23743 
L 638.634824 308.048987 
L 639.808474 307.536912 
L 640.889351 304.45726 
L 641.623315 307.473637 
L 642.163214 310.950997 
L 642.611715 311.316822 
L 642.990376 307.817495 
L 643.121092 306.297015 
L 642.80574 313.249375 
L 642.463963 314.675219 
L 642.094245 310.504195 
L 641.262064 315.457612 
L 640.441761 313.394118 
L 639.160325 320.934758 
L 637.845103 323.177418 
L 636.473121 320.681155 
L 635.10072 310.820458 
L 633.123173 318.029275 
L 631.237523 314.511567 
L 629.151107 312.417602 
L 626.808386 315.230894 
L 624.175267 326.537003 
L 621.578811 329.861247 
L 618.967249 326.848693 
L 616.354029 314.863395 
L 613.467972 314.497577 
L 610.49704 314.031792 
L 607.370618 324.622998 
L 604.295715 323.291011 
L 601.220537 308.845858 
L 598.036358 310.353101 
L 594.846321 310.898762 
L 591.683513 319.83115 
L 588.505095 313.19551 
L 585.426044 320.61653 
L 582.300221 313.314206 
L 579.344547 318.980377 
L 576.300596 309.391034 
L 573.407077 306.495751 
L 571.105502 335.057627 
" style="fill:none;stroke:#1f77b4;stroke-linecap:square;stroke-width:1.5;"/>
   </g>
   <g id="text_84">
    <!-- $\ell$ = 0.0808 -->
    <g transform="translate(561.039439 232.4)scale(0.12 -0.12)">
     <defs>
      <path d="M 2034 2216 
Q 1584 2216 1326 1975 
Q 1069 1734 1069 1313 
Q 1069 891 1326 650 
Q 1584 409 2034 409 
Q 2484 409 2743 651 
Q 3003 894 3003 1313 
Q 3003 1734 2745 1975 
Q 2488 2216 2034 2216 
z
M 1403 2484 
Q 997 2584 770 2862 
Q 544 3141 544 3541 
Q 544 4100 942 4425 
Q 1341 4750 2034 4750 
Q 2731 4750 3128 4425 
Q 3525 4100 3525 3541 
Q 3525 3141 3298 2862 
Q 3072 2584 2669 2484 
Q 3125 2378 3379 2068 
Q 3634 1759 3634 1313 
Q 3634 634 3220 271 
Q 2806 -91 2034 -91 
Q 1263 -91 848 271 
Q 434 634 434 1313 
Q 434 1759 690 2068 
Q 947 2378 1403 2484 
z
M 1172 3481 
Q 1172 3119 1398 2916 
Q 1625 2713 2034 2713 
Q 2441 2713 2670 2916 
Q 2900 3119 2900 3481 
Q 2900 3844 2670 4047 
Q 2441 4250 2034 4250 
Q 1625 4250 1398 4047 
Q 1172 3844 1172 3481 
z
" id="DejaVuSans-38" transform="scale(0.015625)"/>
     </defs>
     <use transform="translate(0 0.78125)" xlink:href="#DejaVuSans-Oblique-2113"/>
     <use transform="translate(41.308594 0.78125)" xlink:href="#DejaVuSans-20"/>
     <use transform="translate(73.095703 0.78125)" xlink:href="#DejaVuSans-3d"/>
     <use transform="translate(156.884766 0.78125)" xlink:href="#DejaVuSans-20"/>
     <use transform="translate(188.671875 0.78125)" xlink:href="#DejaVuSans-30"/>
     <use transform="translate(252.294922 0.78125)" xlink:href="#DejaVuSans-2e"/>
     <use transform="translate(284.082031 0.78125)" xlink:href="#DejaVuSans-30"/>
     <use transform="translate(347.705078 0.78125)" xlink:href="#DejaVuSans-38"/>
     <use transform="translate(411.328125 0.78125)" xlink:href="#DejaVuSans-30"/>
     <use transform="translate(474.951172 0.78125)" xlink:href="#DejaVuSans-38"/>
    </g>
   </g>
  </g>
  <g id="text_85">
   <!-- $\leftarrow$LPK $-$ NTK$\rightarrow$ -->
   <g transform="translate(23.518125 262.56)rotate(-90)scale(0.12 -0.12)">
    <defs>
     <path d="M 313 1866 
L 313 2147 
L 1541 3375 
L 1916 3000 
L 1188 2272 
L 4997 2272 
L 4997 1741 
L 1188 1741 
L 1916 1013 
L 1541 638 
L 313 1866 
z
" id="DejaVuSans-2190" transform="scale(0.015625)"/>
     <path d="M 628 4666 
L 1259 4666 
L 1259 531 
L 3531 531 
L 3531 0 
L 628 0 
L 628 4666 
z
" id="DejaVuSans-4c" transform="scale(0.015625)"/>
     <path d="M 1259 4147 
L 1259 2394 
L 2053 2394 
Q 2494 2394 2734 2622 
Q 2975 2850 2975 3272 
Q 2975 3691 2734 3919 
Q 2494 4147 2053 4147 
L 1259 4147 
z
M 628 4666 
L 2053 4666 
Q 2838 4666 3239 4311 
Q 3641 3956 3641 3272 
Q 3641 2581 3239 2228 
Q 2838 1875 2053 1875 
L 1259 1875 
L 1259 0 
L 628 0 
L 628 4666 
z
" id="DejaVuSans-50" transform="scale(0.015625)"/>
     <path d="M 628 4666 
L 1259 4666 
L 1259 2694 
L 3353 4666 
L 4166 4666 
L 1850 2491 
L 4331 0 
L 3500 0 
L 1259 2247 
L 1259 0 
L 628 0 
L 628 4666 
z
" id="DejaVuSans-4b" transform="scale(0.015625)"/>
     <path d="M 628 4666 
L 1478 4666 
L 3547 763 
L 3547 4666 
L 4159 4666 
L 4159 0 
L 3309 0 
L 1241 3903 
L 1241 0 
L 628 0 
L 628 4666 
z
" id="DejaVuSans-4e" transform="scale(0.015625)"/>
     <path d="M -19 4666 
L 3928 4666 
L 3928 4134 
L 2272 4134 
L 2272 0 
L 1638 0 
L 1638 4134 
L -19 4134 
L -19 4666 
z
" id="DejaVuSans-54" transform="scale(0.015625)"/>
     <path d="M 5050 2147 
L 5050 1866 
L 3822 638 
L 3447 1013 
L 4175 1741 
L 366 1741 
L 366 2272 
L 4175 2272 
L 3447 3000 
L 3822 3375 
L 5050 2147 
z
" id="DejaVuSans-2192" transform="scale(0.015625)"/>
    </defs>
    <use transform="translate(19.482422 0.09375)" xlink:href="#DejaVuSans-2190"/>
    <use transform="translate(122.753906 0.09375)" xlink:href="#DejaVuSans-4c"/>
    <use transform="translate(178.466797 0.09375)" xlink:href="#DejaVuSans-50"/>
    <use transform="translate(238.769531 0.09375)" xlink:href="#DejaVuSans-4b"/>
    <use transform="translate(304.345703 0.09375)" xlink:href="#DejaVuSans-20"/>
    <use transform="translate(336.132812 0.09375)" xlink:href="#DejaVuSans-2212"/>
    <use transform="translate(419.921875 0.09375)" xlink:href="#DejaVuSans-20"/>
    <use transform="translate(451.708984 0.09375)" xlink:href="#DejaVuSans-4e"/>
    <use transform="translate(526.513672 0.09375)" xlink:href="#DejaVuSans-54"/>
    <use transform="translate(587.597656 0.09375)" xlink:href="#DejaVuSans-4b"/>
    <use transform="translate(672.65625 0.09375)" xlink:href="#DejaVuSans-2192"/>
   </g>
  </g>
 </g>
 <defs>
  <clipPath id="paeb812ab26">
   <rect height="167.301771" width="167.301771" x="57.995388" y="28.8"/>
  </clipPath>
  <clipPath id="p3a3542bbf2">
   <rect height="167.301771" width="167.301771" x="283.861971" y="28.8"/>
  </clipPath>
  <clipPath id="p0ec245c24c">
   <rect height="167.301771" width="167.301771" x="509.728553" y="28.8"/>
  </clipPath>
  <clipPath id="p23dc13f7c0">
   <rect height="167.301771" width="167.301771" x="57.995388" y="238.4"/>
  </clipPath>
  <clipPath id="p1a64a88d63">
   <rect height="167.301771" width="167.301771" x="283.861971" y="238.4"/>
  </clipPath>
  <clipPath id="pd0c05d192b">
   <rect height="167.301771" width="167.301771" x="509.728553" y="238.4"/>
  </clipPath>
 </defs>
</svg>
