<?xml version="1.0" encoding="utf-8" standalone="no"?>
<!DOCTYPE svg PUBLIC "-//W3C//DTD SVG 1.1//EN"
  "http://www.w3.org/Graphics/SVG/1.1/DTD/svg11.dtd">
<svg xmlns:xlink="http://www.w3.org/1999/xlink" width="720pt" height="288pt" viewBox="0 0 720 288" xmlns="http://www.w3.org/2000/svg" version="1.1">
 <metadata>
  <rdf:RDF xmlns:dc="http://purl.org/dc/elements/1.1/" xmlns:cc="http://creativecommons.org/ns#" xmlns:rdf="http://www.w3.org/1999/02/22-rdf-syntax-ns#">
   <cc:Work>
    <dc:type rdf:resource="http://purl.org/dc/dcmitype/StillImage"/>
    <dc:date>2022-07-27T23:19:18.965849</dc:date>
    <dc:format>image/svg+xml</dc:format>
    <dc:creator>
     <cc:Agent>
      <dc:title>Matplotlib v3.5.0, https://matplotlib.org/</dc:title>
     </cc:Agent>
    </dc:creator>
   </cc:Work>
  </rdf:RDF>
 </metadata>
 <defs>
  <style type="text/css">*{stroke-linejoin: round; stroke-linecap: butt}</style>
 </defs>
 <g id="figure_1">
  <g id="patch_1">
   <path d="M 0 288 
L 720 288 
L 720 0 
L 0 0 
z
" style="fill: #ffffff"/>
  </g>
  <g id="axes_1">
   <g id="patch_2">
    <path d="M 47.86 228.04 
L 356.73 228.04 
L 356.73 23.4 
L 47.86 23.4 
z
" style="fill: #ffffff"/>
   </g>
   <g id="PolyCollection_1">
    <defs>
     <path id="mc52fdf7f57" d="M 61.899545 -180.852669 
L 61.899545 -141.755821 
L 64.735817 -136.288531 
L 67.572089 -120.560988 
L 70.408361 -111.012355 
L 73.244633 -106.899379 
L 76.080904 -106.876193 
L 78.917176 -112.819782 
L 81.753448 -119.751891 
L 84.58972 -124.076906 
L 87.425992 -125.863955 
L 90.262264 -126.445864 
L 93.098535 -126.833886 
L 95.934807 -127.837293 
L 98.771079 -130.74995 
L 101.607351 -137.887166 
L 104.443623 -151.689696 
L 107.279894 -170.469109 
L 110.116166 -183.247113 
L 112.952438 -190.9676 
L 115.78871 -201.049112 
L 118.624982 -201.191886 
L 121.461253 -181.46757 
L 124.297525 -157.706664 
L 127.133797 -140.629737 
L 129.970069 -131.637136 
L 132.806341 -127.995236 
L 135.642612 -126.871465 
L 138.478884 -126.726122 
L 141.315156 -127.278245 
L 144.151428 -129.388638 
L 146.9877 -135.141635 
L 149.823972 -147.250808 
L 152.660243 -166.37112 
L 155.496515 -186.427786 
L 158.332787 -190.438439 
L 161.169059 -173.096265 
L 164.005331 -152.724377 
L 166.841602 -138.830774 
L 169.677874 -133.072717 
L 172.514146 -134.496193 
L 175.350418 -142.601346 
L 178.18669 -155.616229 
L 181.022961 -164.099189 
L 183.859233 -157.167655 
L 186.695505 -149.367523 
L 189.531777 -150.235158 
L 192.368049 -156.357361 
L 195.20432 -152.280443 
L 198.040592 -140.628955 
L 200.876864 -132.34444 
L 203.713136 -128.557928 
L 206.549408 -127.518674 
L 209.38568 -128.259809 
L 212.221951 -131.362949 
L 215.058223 -138.528513 
L 217.894495 -150.455174 
L 220.730767 -161.556439 
L 223.567039 -157.265598 
L 226.40331 -144.340477 
L 229.239582 -134.511221 
L 232.075854 -129.446196 
L 234.912126 -127.410647 
L 237.748398 -126.736469 
L 240.584669 -126.55469 
L 243.420941 -126.517914 
L 246.257213 -126.527711 
L 249.093485 -126.633237 
L 251.929757 -127.169666 
L 254.766028 -129.240359 
L 257.6023 -135.35979 
L 260.438572 -149.192734 
L 263.274844 -172.663839 
L 266.111116 -200.557854 
L 268.947388 -216.297447 
L 271.783659 -202.461402 
L 274.619931 -174.747431 
L 277.456203 -150.635986 
L 280.292475 -136.088555 
L 283.128747 -129.518558 
L 285.965018 -127.247096 
L 288.80129 -126.624461 
L 291.637562 -126.381373 
L 294.473834 -125.878083 
L 297.310106 -124.488986 
L 300.146377 -121.887819 
L 302.982649 -119.486182 
L 305.818921 -120.697862 
L 308.655193 -125.37269 
L 311.491465 -123.061788 
L 314.327736 -119.434165 
L 317.164008 -120.486461 
L 320.00028 -123.329058 
L 322.836552 -125.342376 
L 325.672824 -126.194253 
L 328.509096 -126.444325 
L 331.345367 -126.498499 
L 334.181639 -126.507392 
L 337.017911 -126.50851 
L 339.854183 -126.508618 
L 342.690455 -126.508626 
L 342.690455 -198.051373 
L 342.690455 -198.051373 
L 339.854183 -198.051365 
L 337.017911 -198.051257 
L 334.181639 -198.05014 
L 331.345367 -198.041241 
L 328.509096 -197.98681 
L 325.672824 -197.730631 
L 322.836552 -196.792176 
L 320.00028 -194.053778 
L 317.164008 -187.617108 
L 314.327736 -175.888328 
L 311.491465 -161.248118 
L 308.655193 -156.251925 
L 305.818921 -168.373794 
L 302.982649 -182.344942 
L 300.146377 -191.392652 
L 297.310106 -195.734066 
L 294.473834 -197.394454 
L 291.637562 -197.922712 
L 288.80129 -198.167037 
L 285.965018 -198.786433 
L 283.128747 -201.005956 
L 280.292475 -207.090255 
L 277.456203 -218.953385 
L 274.619931 -234.196603 
L 271.783659 -244.629757 
L 268.947388 -246.127765 
L 266.111116 -244.196687 
L 263.274844 -233.092544 
L 260.438572 -217.86938 
L 257.6023 -206.438979 
L 254.766028 -200.737453 
L 251.929757 -198.709707 
L 249.093485 -198.175888 
L 246.257213 -198.070457 
L 243.420941 -198.060655 
L 240.584669 -198.09716 
L 237.748398 -198.272525 
L 234.912126 -198.856578 
L 232.075854 -200.144017 
L 229.239582 -201.533065 
L 226.40331 -200.535773 
L 223.567039 -195.143113 
L 220.730767 -192.582997 
L 217.894495 -198.450039 
L 215.058223 -201.565117 
L 212.221951 -200.9244 
L 209.38568 -199.507129 
L 206.549408 -198.918905 
L 203.713136 -199.114844 
L 200.876864 -198.810094 
L 198.040592 -195.520571 
L 195.20432 -188.702958 
L 192.368049 -188.014924 
L 189.531777 -196.97899 
L 186.695505 -202.068991 
L 183.859233 -199.19539 
L 181.022961 -193.911635 
L 178.18669 -197.834042 
L 175.350418 -202.085772 
L 172.514146 -202.811101 
L 169.677874 -203.837462 
L 166.841602 -208.592158 
L 164.005331 -216.575038 
L 161.169059 -222.602575 
L 158.332787 -222.288597 
L 155.496515 -222.861988 
L 152.660243 -221.288212 
L 149.823972 -213.720805 
L 146.9877 -205.699368 
L 144.151428 -200.813864 
L 141.315156 -198.812528 
L 138.478884 -198.26846 
L 135.642612 -198.412833 
L 132.806341 -199.511935 
L 129.970069 -202.882318 
L 127.133797 -210.11589 
L 124.297525 -220.447977 
L 121.461253 -228.947244 
L 118.624982 -232.261861 
L 115.78871 -235.363185 
L 112.952438 -230.234239 
L 110.116166 -214.915009 
L 107.279894 -204.950628 
L 104.443623 -204.320822 
L 101.607351 -203.32847 
L 98.771079 -201.044294 
L 95.934807 -199.223207 
L 93.098535 -198.364744 
L 90.262264 -197.98771 
L 87.425992 -197.398121 
L 84.58972 -195.498026 
L 81.753448 -190.260408 
L 78.917176 -179.024788 
L 76.080904 -161.20666 
L 73.244633 -143.464683 
L 70.408361 -140.714504 
L 67.572089 -152.843398 
L 64.735817 -165.798623 
L 61.899545 -180.852669 
z
" style="stroke: #000000; stroke-opacity: 0.1"/>
    </defs>
    <g clip-path="url(#p4b6d165fe5)">
     <use xlink:href="#mc52fdf7f57" x="0" y="288" style="fill-opacity: 0.1; stroke: #000000; stroke-opacity: 0.1"/>
    </g>
   </g>
   <g id="matplotlib.axis_1">
    <g id="xtick_1">
     <g id="line2d_1">
      <defs>
       <path id="m5a9b44b81f" d="M 0 0 
L 0 3.5 
" style="stroke: #000000; stroke-width: 0.8"/>
      </defs>
      <g>
       <use xlink:href="#m5a9b44b81f" x="61.899545" y="228.04" style="stroke: #000000; stroke-width: 0.8"/>
      </g>
     </g>
     <g id="text_1">
      <!-- 0 -->
      <g transform="translate(56.809545 247.1975)scale(0.16 -0.16)">
       <defs>
        <path id="DejaVuSerif-30" d="M 2034 219 
Q 2513 219 2750 744 
Q 2988 1269 2988 2328 
Q 2988 3391 2750 3916 
Q 2513 4441 2034 4441 
Q 1556 4441 1318 3916 
Q 1081 3391 1081 2328 
Q 1081 1269 1318 744 
Q 1556 219 2034 219 
z
M 2034 -91 
Q 1275 -91 848 546 
Q 422 1184 422 2328 
Q 422 3475 848 4112 
Q 1275 4750 2034 4750 
Q 2797 4750 3222 4112 
Q 3647 3475 3647 2328 
Q 3647 1184 3222 546 
Q 2797 -91 2034 -91 
z
" transform="scale(0.015625)"/>
       </defs>
       <use xlink:href="#DejaVuSerif-30"/>
      </g>
     </g>
    </g>
    <g id="xtick_2">
     <g id="line2d_2">
      <g>
       <use xlink:href="#m5a9b44b81f" x="118.057727" y="228.04" style="stroke: #000000; stroke-width: 0.8"/>
      </g>
     </g>
     <g id="text_2">
      <!-- 1 -->
      <g transform="translate(112.967727 247.1975)scale(0.16 -0.16)">
       <defs>
        <path id="DejaVuSerif-31" d="M 909 0 
L 909 331 
L 1722 331 
L 1722 4213 
L 781 3603 
L 781 4013 
L 1919 4750 
L 2350 4750 
L 2350 331 
L 3163 331 
L 3163 0 
L 909 0 
z
" transform="scale(0.015625)"/>
       </defs>
       <use xlink:href="#DejaVuSerif-31"/>
      </g>
     </g>
    </g>
    <g id="xtick_3">
     <g id="line2d_3">
      <g>
       <use xlink:href="#m5a9b44b81f" x="174.215909" y="228.04" style="stroke: #000000; stroke-width: 0.8"/>
      </g>
     </g>
     <g id="text_3">
      <!-- 2 -->
      <g transform="translate(169.125909 247.1975)scale(0.16 -0.16)">
       <defs>
        <path id="DejaVuSerif-32" d="M 819 3553 
L 469 3553 
L 469 4384 
Q 803 4563 1142 4656 
Q 1481 4750 1806 4750 
Q 2534 4750 2956 4397 
Q 3378 4044 3378 3438 
Q 3378 2753 2422 1800 
Q 2347 1728 2309 1691 
L 1131 513 
L 3078 513 
L 3078 1088 
L 3444 1088 
L 3444 0 
L 434 0 
L 434 341 
L 1850 1753 
Q 2319 2222 2519 2614 
Q 2719 3006 2719 3438 
Q 2719 3909 2473 4175 
Q 2228 4441 1797 4441 
Q 1350 4441 1106 4219 
Q 863 3997 819 3553 
z
" transform="scale(0.015625)"/>
       </defs>
       <use xlink:href="#DejaVuSerif-32"/>
      </g>
     </g>
    </g>
    <g id="xtick_4">
     <g id="line2d_4">
      <g>
       <use xlink:href="#m5a9b44b81f" x="230.374091" y="228.04" style="stroke: #000000; stroke-width: 0.8"/>
      </g>
     </g>
     <g id="text_4">
      <!-- 3 -->
      <g transform="translate(225.284091 247.1975)scale(0.16 -0.16)">
       <defs>
        <path id="DejaVuSerif-33" d="M 622 4469 
Q 988 4606 1323 4678 
Q 1659 4750 1953 4750 
Q 2638 4750 3022 4454 
Q 3406 4159 3406 3634 
Q 3406 3213 3140 2930 
Q 2875 2647 2388 2547 
Q 2963 2466 3280 2130 
Q 3597 1794 3597 1259 
Q 3597 606 3158 257 
Q 2719 -91 1894 -91 
Q 1528 -91 1179 -12 
Q 831 66 488 225 
L 488 1131 
L 838 1131 
Q 869 681 1141 450 
Q 1413 219 1906 219 
Q 2384 219 2661 495 
Q 2938 772 2938 1253 
Q 2938 1803 2653 2086 
Q 2369 2369 1819 2369 
L 1522 2369 
L 1522 2688 
L 1678 2688 
Q 2225 2688 2498 2914 
Q 2772 3141 2772 3597 
Q 2772 4006 2547 4223 
Q 2322 4441 1900 4441 
Q 1478 4441 1245 4241 
Q 1013 4041 972 3647 
L 622 3647 
L 622 4469 
z
" transform="scale(0.015625)"/>
       </defs>
       <use xlink:href="#DejaVuSerif-33"/>
      </g>
     </g>
    </g>
    <g id="xtick_5">
     <g id="line2d_5">
      <g>
       <use xlink:href="#m5a9b44b81f" x="286.532273" y="228.04" style="stroke: #000000; stroke-width: 0.8"/>
      </g>
     </g>
     <g id="text_5">
      <!-- 4 -->
      <g transform="translate(281.442273 247.1975)scale(0.16 -0.16)">
       <defs>
        <path id="DejaVuSerif-34" d="M 2234 1581 
L 2234 4063 
L 641 1581 
L 2234 1581 
z
M 3609 0 
L 1484 0 
L 1484 331 
L 2234 331 
L 2234 1247 
L 197 1247 
L 197 1588 
L 2241 4750 
L 2859 4750 
L 2859 1581 
L 3750 1581 
L 3750 1247 
L 2859 1247 
L 2859 331 
L 3609 331 
L 3609 0 
z
" transform="scale(0.015625)"/>
       </defs>
       <use xlink:href="#DejaVuSerif-34"/>
      </g>
     </g>
    </g>
    <g id="xtick_6">
     <g id="line2d_6">
      <g>
       <use xlink:href="#m5a9b44b81f" x="342.690455" y="228.04" style="stroke: #000000; stroke-width: 0.8"/>
      </g>
     </g>
     <g id="text_6">
      <!-- 5 -->
      <g transform="translate(337.600455 247.1975)scale(0.16 -0.16)">
       <defs>
        <path id="DejaVuSerif-35" d="M 3219 4666 
L 3219 4153 
L 1081 4153 
L 1081 2816 
Q 1244 2928 1461 2984 
Q 1678 3041 1947 3041 
Q 2703 3041 3140 2622 
Q 3578 2203 3578 1478 
Q 3578 738 3136 323 
Q 2694 -91 1894 -91 
Q 1572 -91 1234 -12 
Q 897 66 544 225 
L 544 1131 
L 897 1131 
Q 925 688 1179 453 
Q 1434 219 1894 219 
Q 2388 219 2653 544 
Q 2919 869 2919 1478 
Q 2919 2084 2655 2407 
Q 2391 2731 1894 2731 
Q 1613 2731 1398 2631 
Q 1184 2531 1019 2322 
L 750 2322 
L 750 4666 
L 3219 4666 
z
" transform="scale(0.015625)"/>
       </defs>
       <use xlink:href="#DejaVuSerif-35"/>
      </g>
     </g>
    </g>
    <g id="text_7">
     <!-- Gaussian -->
     <g transform="translate(165.29 266.6825)scale(0.16 -0.16)">
      <defs>
       <path id="DejaVuSerif-47" d="M 4097 3272 
Q 3988 3856 3641 4136 
Q 3294 4416 2675 4416 
Q 1869 4416 1472 3897 
Q 1075 3378 1075 2328 
Q 1075 1300 1484 772 
Q 1894 244 2688 244 
Q 3041 244 3362 331 
Q 3684 419 3975 594 
L 3975 1797 
L 3097 1797 
L 3097 2131 
L 4609 2131 
L 4609 391 
Q 4194 150 3714 29 
Q 3234 -91 2688 -91 
Q 1631 -91 995 570 
Q 359 1231 359 2328 
Q 359 3434 996 4092 
Q 1634 4750 2713 4750 
Q 3113 4750 3539 4658 
Q 3966 4566 4447 4378 
L 4447 3272 
L 4097 3272 
z
" transform="scale(0.015625)"/>
       <path id="DejaVuSerif-61" d="M 2547 1044 
L 2547 1747 
L 1806 1747 
Q 1378 1747 1168 1562 
Q 959 1378 959 997 
Q 959 650 1171 447 
Q 1384 244 1747 244 
Q 2106 244 2326 466 
Q 2547 688 2547 1044 
z
M 3122 2075 
L 3122 331 
L 3634 331 
L 3634 0 
L 2547 0 
L 2547 359 
Q 2356 128 2106 18 
Q 1856 -91 1522 -91 
Q 969 -91 644 203 
Q 319 497 319 997 
Q 319 1513 691 1797 
Q 1063 2081 1741 2081 
L 2547 2081 
L 2547 2309 
Q 2547 2688 2317 2895 
Q 2088 3103 1672 3103 
Q 1328 3103 1125 2947 
Q 922 2791 872 2484 
L 575 2484 
L 575 3156 
Q 875 3284 1158 3348 
Q 1441 3413 1709 3413 
Q 2400 3413 2761 3070 
Q 3122 2728 3122 2075 
z
" transform="scale(0.015625)"/>
       <path id="DejaVuSerif-75" d="M 2266 3322 
L 3341 3322 
L 3341 331 
L 3884 331 
L 3884 0 
L 2766 0 
L 2766 588 
Q 2606 256 2353 82 
Q 2100 -91 1766 -91 
Q 1213 -91 952 223 
Q 691 538 691 1209 
L 691 2988 
L 172 2988 
L 172 3322 
L 1269 3322 
L 1269 1388 
Q 1269 781 1417 556 
Q 1566 331 1947 331 
Q 2347 331 2556 625 
Q 2766 919 2766 1478 
L 2766 2988 
L 2266 2988 
L 2266 3322 
z
" transform="scale(0.015625)"/>
       <path id="DejaVuSerif-73" d="M 359 184 
L 359 959 
L 691 959 
Q 703 588 923 403 
Q 1144 219 1575 219 
Q 1963 219 2166 364 
Q 2369 509 2369 788 
Q 2369 1006 2220 1140 
Q 2072 1275 1594 1428 
L 1178 1569 
Q 750 1706 558 1912 
Q 366 2119 366 2438 
Q 366 2894 700 3153 
Q 1034 3413 1625 3413 
Q 1888 3413 2178 3344 
Q 2469 3275 2778 3144 
L 2778 2419 
L 2447 2419 
Q 2434 2741 2221 2922 
Q 2009 3103 1644 3103 
Q 1281 3103 1095 2975 
Q 909 2847 909 2591 
Q 909 2381 1050 2254 
Q 1191 2128 1613 1997 
L 2069 1856 
Q 2541 1709 2748 1489 
Q 2956 1269 2956 922 
Q 2956 450 2595 179 
Q 2234 -91 1600 -91 
Q 1278 -91 972 -22 
Q 666 47 359 184 
z
" transform="scale(0.015625)"/>
       <path id="DejaVuSerif-69" d="M 622 4353 
Q 622 4497 726 4603 
Q 831 4709 978 4709 
Q 1122 4709 1226 4603 
Q 1331 4497 1331 4353 
Q 1331 4206 1228 4103 
Q 1125 4000 978 4000 
Q 831 4000 726 4103 
Q 622 4206 622 4353 
z
M 1356 331 
L 1900 331 
L 1900 0 
L 231 0 
L 231 331 
L 781 331 
L 781 2988 
L 231 2988 
L 231 3322 
L 1356 3322 
L 1356 331 
z
" transform="scale(0.015625)"/>
       <path id="DejaVuSerif-6e" d="M 263 0 
L 263 331 
L 781 331 
L 781 2988 
L 231 2988 
L 231 3322 
L 1356 3322 
L 1356 2731 
Q 1516 3069 1770 3241 
Q 2025 3413 2363 3413 
Q 2913 3413 3172 3097 
Q 3431 2781 3431 2113 
L 3431 331 
L 3944 331 
L 3944 0 
L 2356 0 
L 2356 331 
L 2853 331 
L 2853 1931 
Q 2853 2541 2703 2767 
Q 2553 2994 2175 2994 
Q 1775 2994 1565 2701 
Q 1356 2409 1356 1850 
L 1356 331 
L 1856 331 
L 1856 0 
L 263 0 
z
" transform="scale(0.015625)"/>
      </defs>
      <use xlink:href="#DejaVuSerif-47"/>
      <use xlink:href="#DejaVuSerif-61" x="79.882812"/>
      <use xlink:href="#DejaVuSerif-75" x="139.501953"/>
      <use xlink:href="#DejaVuSerif-73" x="203.90625"/>
      <use xlink:href="#DejaVuSerif-73" x="255.224609"/>
      <use xlink:href="#DejaVuSerif-69" x="306.542969"/>
      <use xlink:href="#DejaVuSerif-61" x="338.525391"/>
      <use xlink:href="#DejaVuSerif-6e" x="398.144531"/>
     </g>
    </g>
   </g>
   <g id="matplotlib.axis_2">
    <g id="ytick_1">
     <g id="line2d_7">
      <defs>
       <path id="m6e0bf31bb3" d="M 0 0 
L -3.5 0 
" style="stroke: #000000; stroke-width: 0.8"/>
      </defs>
      <g>
       <use xlink:href="#m6e0bf31bb3" x="47.86" y="228.04" style="stroke: #000000; stroke-width: 0.8"/>
      </g>
     </g>
     <g id="text_8">
      <!-- −3 -->
      <g transform="translate(17.2725 234.11875)scale(0.16 -0.16)">
       <defs>
        <path id="DejaVuSerif-2212" d="M 678 2259 
L 4684 2259 
L 4684 1753 
L 678 1753 
L 678 2259 
z
" transform="scale(0.015625)"/>
       </defs>
       <use xlink:href="#DejaVuSerif-2212"/>
       <use xlink:href="#DejaVuSerif-33" x="83.789062"/>
      </g>
     </g>
    </g>
    <g id="ytick_2">
     <g id="line2d_8">
      <g>
       <use xlink:href="#m6e0bf31bb3" x="47.86" y="193.933333" style="stroke: #000000; stroke-width: 0.8"/>
      </g>
     </g>
     <g id="text_9">
      <!-- −2 -->
      <g transform="translate(17.2725 200.012083)scale(0.16 -0.16)">
       <use xlink:href="#DejaVuSerif-2212"/>
       <use xlink:href="#DejaVuSerif-32" x="83.789062"/>
      </g>
     </g>
    </g>
    <g id="ytick_3">
     <g id="line2d_9">
      <g>
       <use xlink:href="#m6e0bf31bb3" x="47.86" y="159.826667" style="stroke: #000000; stroke-width: 0.8"/>
      </g>
     </g>
     <g id="text_10">
      <!-- −1 -->
      <g transform="translate(17.2725 165.905417)scale(0.16 -0.16)">
       <use xlink:href="#DejaVuSerif-2212"/>
       <use xlink:href="#DejaVuSerif-31" x="83.789062"/>
      </g>
     </g>
    </g>
    <g id="ytick_4">
     <g id="line2d_10">
      <g>
       <use xlink:href="#m6e0bf31bb3" x="47.86" y="125.72" style="stroke: #000000; stroke-width: 0.8"/>
      </g>
     </g>
     <g id="text_11">
      <!-- 0 -->
      <g transform="translate(30.68 131.79875)scale(0.16 -0.16)">
       <use xlink:href="#DejaVuSerif-30"/>
      </g>
     </g>
    </g>
    <g id="ytick_5">
     <g id="line2d_11">
      <g>
       <use xlink:href="#m6e0bf31bb3" x="47.86" y="91.613333" style="stroke: #000000; stroke-width: 0.8"/>
      </g>
     </g>
     <g id="text_12">
      <!-- 1 -->
      <g transform="translate(30.68 97.692083)scale(0.16 -0.16)">
       <use xlink:href="#DejaVuSerif-31"/>
      </g>
     </g>
    </g>
    <g id="ytick_6">
     <g id="line2d_12">
      <g>
       <use xlink:href="#m6e0bf31bb3" x="47.86" y="57.506667" style="stroke: #000000; stroke-width: 0.8"/>
      </g>
     </g>
     <g id="text_13">
      <!-- 2 -->
      <g transform="translate(30.68 63.585417)scale(0.16 -0.16)">
       <use xlink:href="#DejaVuSerif-32"/>
      </g>
     </g>
    </g>
    <g id="ytick_7">
     <g id="line2d_13">
      <g>
       <use xlink:href="#m6e0bf31bb3" x="47.86" y="23.4" style="stroke: #000000; stroke-width: 0.8"/>
      </g>
     </g>
     <g id="text_14">
      <!-- 3 -->
      <g transform="translate(30.68 29.47875)scale(0.16 -0.16)">
       <use xlink:href="#DejaVuSerif-33"/>
      </g>
     </g>
    </g>
   </g>
   <g id="line2d_14">
    <path d="M 61.899545 114.28222 
L 64.735817 141.698368 
L 67.572089 138.504002 
L 70.408361 140.836327 
L 73.244633 136.847767 
L 76.080904 142.348308 
L 78.917176 137.869951 
L 81.753448 161.223279 
L 84.58972 103.693371 
L 87.425992 88.871519 
L 90.262264 57.042148 
L 93.098535 37.425459 
L 95.934807 38.358938 
L 98.771079 57.490424 
L 101.607351 66.844324 
L 104.443623 78.843655 
L 107.279894 69.614159 
L 110.116166 90.214484 
L 112.952438 62.815397 
L 115.78871 66.451976 
L 118.624982 66.272496 
L 121.461253 68.674453 
L 124.297525 94.323534 
L 127.133797 115.549411 
L 129.970069 106.393259 
L 132.806341 88.670438 
L 135.642612 107.207185 
L 138.478884 114.115315 
L 141.315156 113.254393 
L 144.151428 117.749497 
L 146.9877 97.55637 
L 149.823972 107.476773 
L 152.660243 69.740119 
L 155.496515 55.607405 
L 158.332787 61.895995 
L 161.169059 93.955844 
L 164.005331 124.377607 
L 166.841602 122.042969 
L 169.677874 123.688183 
L 172.514146 110.030513 
L 175.350418 132.073321 
L 178.18669 118.876717 
L 181.022961 84.864875 
L 183.859233 71.720229 
L 186.695505 47.916951 
L 189.531777 70.987615 
L 192.368049 111.406881 
L 195.20432 137.772431 
L 198.040592 132.611706 
L 200.876864 121.360337 
L 203.713136 148.984033 
L 206.549408 149.325346 
L 209.38568 184.381073 
L 212.221951 166.943048 
L 215.058223 150.715422 
L 217.894495 148.739117 
L 220.730767 122.199771 
L 223.567039 119.176618 
L 226.40331 106.657614 
L 229.239582 91.524013 
L 232.075854 86.778077 
L 234.912126 84.432209 
L 237.748398 105.69745 
L 240.584669 88.140438 
L 243.420941 101.42809 
L 246.257213 116.694206 
L 249.093485 76.157455 
L 251.929757 54.515645 
L 254.766028 52.944213 
L 257.6023 57.722498 
L 260.438572 76.278572 
L 263.274844 85.97622 
L 266.111116 68.114108 
L 268.947388 66.382865 
L 271.783659 92.918416 
L 274.619931 126.67943 
L 277.456203 105.29297 
L 280.292475 88.469268 
L 283.128747 47.133473 
L 285.965018 82.084792 
L 288.80129 123.588403 
L 291.637562 128.905316 
L 294.473834 125.031729 
L 297.310106 98.328044 
L 300.146377 112.590928 
L 302.982649 121.747584 
L 305.818921 105.644432 
L 308.655193 126.629041 
L 311.491465 110.656988 
L 314.327736 108.871582 
L 317.164008 85.312935 
L 320.00028 81.955677 
L 322.836552 64.553965 
L 325.672824 87.541464 
L 328.509096 81.451869 
L 331.345367 101.505679 
L 334.181639 100.177149 
L 337.017911 68.124438 
L 339.854183 51.82647 
L 342.690455 53.998582 
" clip-path="url(#p4b6d165fe5)" style="fill: none; stroke: #1f77b4; stroke-opacity: 0.4; stroke-width: 1.5; stroke-linecap: square"/>
   </g>
   <g id="line2d_15">
    <path d="M 61.899545 136.609125 
L 64.735817 141.360781 
L 67.572089 143.14281 
L 70.408361 139.883317 
L 73.244633 179.861684 
L 76.080904 175.991154 
L 78.917176 207.769405 
L 81.753448 177.762809 
L 84.58972 167.97812 
L 87.425992 209.353143 
L 90.262264 166.767086 
L 93.098535 135.941498 
L 95.934807 118.677841 
L 98.771079 125.292504 
L 101.607351 112.060151 
L 104.443623 125.092746 
L 107.279894 93.602028 
L 110.116166 55.623526 
L 112.952438 40.211392 
L 115.78871 55.491892 
L 118.624982 54.891291 
L 121.461253 105.605912 
L 124.297525 112.04416 
L 127.133797 141.298943 
L 129.970069 112.6489 
L 132.806341 127.412748 
L 135.642612 133.534236 
L 138.478884 165.420194 
L 141.315156 161.00869 
L 144.151428 167.518521 
L 146.9877 158.383734 
L 149.823972 158.46386 
L 152.660243 121.001322 
L 155.496515 88.790577 
L 158.332787 70.550578 
L 161.169059 84.650607 
L 164.005331 112.382178 
L 166.841602 143.795163 
L 169.677874 148.135408 
L 172.514146 149.827102 
L 175.350418 132.586842 
L 178.18669 129.586169 
L 181.022961 89.254605 
L 183.859233 82.69155 
L 186.695505 98.586228 
L 189.531777 132.366602 
L 192.368049 138.65447 
L 195.20432 122.823072 
L 198.040592 145.402592 
L 200.876864 138.402462 
L 203.713136 90.531996 
L 206.549408 76.542287 
L 209.38568 38.546698 
L 212.221951 23.201957 
L 215.058223 50.809757 
L 217.894495 88.294576 
L 220.730767 89.593084 
L 223.567039 101.239203 
L 226.40331 112.051684 
L 229.239582 106.356543 
L 232.075854 97.718625 
L 234.912126 78.810708 
L 237.748398 73.085873 
L 240.584669 54.853626 
L 243.420941 62.125187 
L 246.257213 55.507824 
L 249.093485 41.964016 
L 251.929757 59.468727 
L 254.766028 95.564506 
L 257.6023 97.8962 
L 260.438572 97.768514 
L 263.274844 72.700242 
L 266.111116 66.986939 
L 268.947388 74.419911 
L 271.783659 52.924448 
L 274.619931 70.194217 
L 277.456203 84.981468 
L 280.292475 115.921941 
L 283.128747 104.398875 
L 285.965018 113.473813 
L 288.80129 103.474366 
L 291.637562 82.316762 
L 294.473834 85.031277 
L 297.310106 58.682328 
L 300.146377 117.129888 
L 302.982649 119.702483 
L 305.818921 151.786978 
L 308.655193 149.097206 
L 311.491465 140.037212 
L 314.327736 150.138173 
L 317.164008 156.012426 
L 320.00028 198.901672 
L 322.836552 216.141822 
L 325.672824 179.894299 
L 328.509096 137.411168 
L 331.345367 112.059376 
L 334.181639 81.330448 
L 337.017911 44.537093 
L 339.854183 54.691575 
L 342.690455 68.211352 
" clip-path="url(#p4b6d165fe5)" style="fill: none; stroke-dasharray: 7.4,3.2; stroke-dashoffset: 0; stroke: #ff7f0e; stroke-opacity: 0.4; stroke-width: 2"/>
   </g>
   <g id="line2d_16">
    <path d="M 61.899545 147.696194 
L 64.735817 132.774319 
L 67.572089 126.961933 
L 70.408361 147.46751 
L 73.244633 145.224806 
L 76.080904 151.847307 
L 78.917176 122.418335 
L 81.753448 125.418913 
L 84.58972 100.90511 
L 87.425992 114.35667 
L 90.262264 125.228005 
L 93.098535 98.287845 
L 95.934807 78.610809 
L 98.771079 98.570202 
L 101.607351 106.047068 
L 104.443623 94.863294 
L 107.279894 94.350171 
L 110.116166 100.561255 
L 112.952438 66.458121 
L 115.78871 45.74608 
L 118.624982 61.430033 
L 121.461253 72.221094 
L 124.297525 81.146801 
L 127.133797 98.333728 
L 129.970069 102.541234 
L 132.806341 120.945899 
L 135.642612 117.693675 
L 138.478884 107.153493 
L 141.315156 91.752542 
L 144.151428 79.607813 
L 146.9877 97.551497 
L 149.823972 84.021635 
L 152.660243 55.366089 
L 155.496515 50.605152 
L 158.332787 83.868132 
L 161.169059 110.437069 
L 164.005331 116.351599 
L 166.841602 116.677458 
L 169.677874 137.638839 
L 172.514146 154.60735 
L 175.350418 136.724485 
L 178.18669 125.903531 
L 181.022961 108.231578 
L 183.859233 78.157933 
L 186.695505 84.614122 
L 189.531777 81.644693 
L 192.368049 104.970622 
L 195.20432 129.540472 
L 198.040592 177.711013 
L 200.876864 157.242231 
L 203.713136 144.503301 
L 206.549408 166.334202 
L 209.38568 132.022091 
L 212.221951 166.582376 
L 215.058223 155.514538 
L 217.894495 142.665851 
L 220.730767 107.548018 
L 223.567039 66.055476 
L 226.40331 47.138058 
L 229.239582 70.970598 
L 232.075854 82.143701 
L 234.912126 137.765926 
L 237.748398 168.181302 
L 240.584669 143.187006 
L 243.420941 153.908864 
L 246.257213 129.156761 
L 249.093485 133.005056 
L 251.929757 130.690232 
L 254.766028 128.159625 
L 257.6023 128.545469 
L 260.438572 141.227711 
L 263.274844 89.548709 
L 266.111116 52.12881 
L 268.947388 38.245402 
L 271.783659 24.595862 
L 274.619931 55.212558 
L 277.456203 75.052316 
L 280.292475 100.129582 
L 283.128747 88.918769 
L 285.965018 126.311554 
L 288.80129 101.278292 
L 291.637562 115.594074 
L 294.473834 127.807336 
L 297.310106 123.47491 
L 300.146377 123.925193 
L 302.982649 145.433832 
L 305.818921 146.798718 
L 308.655193 164.006989 
L 311.491465 174.82518 
L 314.327736 156.712976 
L 317.164008 178.442224 
L 320.00028 142.167479 
L 322.836552 137.154729 
L 325.672824 131.645722 
L 328.509096 87.407839 
L 331.345367 114.625928 
L 334.181639 93.329601 
L 337.017911 98.6582 
L 339.854183 114.145033 
L 342.690455 126.214402 
" clip-path="url(#p4b6d165fe5)" style="fill: none; stroke-dasharray: 2.25,3.7125; stroke-dashoffset: 0; stroke: #2ca02c; stroke-opacity: 0.4; stroke-width: 2.25"/>
   </g>
   <g id="line2d_17">
    <path d="M 61.899545 126.695755 
L 64.735817 136.956423 
L 67.572089 151.297807 
L 70.408361 162.13657 
L 73.244633 162.817969 
L 76.080904 153.958574 
L 78.917176 142.077715 
L 81.753448 132.993851 
L 84.58972 128.212534 
L 87.425992 126.368962 
L 90.262264 125.783213 
L 93.098535 125.400685 
L 95.934807 124.46975 
L 98.771079 122.102878 
L 101.607351 117.392182 
L 104.443623 109.994741 
L 107.279894 100.290132 
L 110.116166 88.918939 
L 112.952438 77.39908 
L 115.78871 69.793852 
L 118.624982 71.273126 
L 121.461253 82.792593 
L 124.297525 98.922679 
L 127.133797 112.627186 
L 129.970069 120.740273 
L 132.806341 124.246415 
L 135.642612 125.357851 
L 138.478884 125.502709 
L 141.315156 124.954613 
L 144.151428 122.898749 
L 146.9877 117.579499 
L 149.823972 107.514193 
L 152.660243 94.170334 
L 155.496515 83.355113 
L 158.332787 81.636482 
L 161.169059 90.15058 
L 164.005331 103.350293 
L 166.841602 114.288534 
L 169.677874 119.54491 
L 172.514146 119.346353 
L 175.350418 115.656441 
L 178.18669 111.274865 
L 181.022961 108.994588 
L 183.859233 109.818478 
L 186.695505 112.281743 
L 189.531777 114.392926 
L 192.368049 115.813857 
L 195.20432 117.508299 
L 198.040592 119.925237 
L 200.876864 122.422733 
L 203.713136 124.163614 
L 206.549408 124.781211 
L 209.38568 124.116531 
L 212.221951 121.856325 
L 215.058223 117.953185 
L 217.894495 113.547393 
L 220.730767 110.930282 
L 223.567039 111.795645 
L 226.40331 115.561875 
L 229.239582 119.977857 
L 232.075854 123.204893 
L 234.912126 124.866387 
L 237.748398 125.495503 
L 240.584669 125.674075 
L 243.420941 125.710715 
L 246.257213 125.700916 
L 249.093485 125.595438 
L 251.929757 125.060314 
L 254.766028 123.011094 
L 257.6023 117.100615 
L 260.438572 104.468943 
L 263.274844 85.121808 
L 266.111116 65.622729 
L 268.947388 56.787394 
L 271.783659 64.45442 
L 274.619931 83.527983 
L 277.456203 103.205315 
L 280.292475 116.410595 
L 283.128747 122.737743 
L 285.965018 124.983235 
L 288.80129 125.604251 
L 291.637562 125.847958 
L 294.473834 126.363732 
L 297.310106 127.888474 
L 300.146377 131.359765 
L 302.982649 137.084438 
L 305.818921 143.464172 
L 308.655193 147.187693 
L 311.491465 145.845047 
L 314.327736 140.338753 
L 317.164008 133.948215 
L 320.00028 129.308582 
L 322.836552 126.932724 
L 325.672824 126.037558 
L 328.509096 125.784433 
L 331.345367 125.73013 
L 334.181639 125.721234 
L 337.017911 125.720116 
L 339.854183 125.720009 
L 342.690455 125.72 
" clip-path="url(#p4b6d165fe5)" style="fill: none; stroke: #000000; stroke-width: 1.5; stroke-linecap: square"/>
   </g>
   <g id="patch_3">
    <path d="M 47.86 228.04 
L 47.86 23.4 
" style="fill: none; stroke: #000000; stroke-width: 0.8; stroke-linejoin: miter; stroke-linecap: square"/>
   </g>
   <g id="patch_4">
    <path d="M 356.73 228.04 
L 356.73 23.4 
" style="fill: none; stroke: #000000; stroke-width: 0.8; stroke-linejoin: miter; stroke-linecap: square"/>
   </g>
   <g id="patch_5">
    <path d="M 47.86 228.04 
L 356.73 228.04 
" style="fill: none; stroke: #000000; stroke-width: 0.8; stroke-linejoin: miter; stroke-linecap: square"/>
   </g>
   <g id="patch_6">
    <path d="M 47.86 23.4 
L 356.73 23.4 
" style="fill: none; stroke: #000000; stroke-width: 0.8; stroke-linejoin: miter; stroke-linecap: square"/>
   </g>
   <g id="PathCollection_1">
    <defs>
     <path id="mef8ae830bb" d="M -3 3 
L 3 -3 
M -3 -3 
L 3 3 
" style="stroke: #ff0000; stroke-width: 1.5"/>
    </defs>
    <g clip-path="url(#p4b6d165fe5)">
     <use xlink:href="#mef8ae830bb" x="269.054432" y="49.880357" style="fill: #ff0000; stroke: #ff0000; stroke-width: 1.5"/>
     <use xlink:href="#mef8ae830bb" x="157.355746" y="76.491691" style="fill: #ff0000; stroke: #ff0000; stroke-width: 1.5"/>
     <use xlink:href="#mef8ae830bb" x="193.33499" y="115.51194" style="fill: #ff0000; stroke: #ff0000; stroke-width: 1.5"/>
     <use xlink:href="#mef8ae830bb" x="180.937486" y="107.416478" style="fill: #ff0000; stroke: #ff0000; stroke-width: 1.5"/>
     <use xlink:href="#mef8ae830bb" x="221.478526" y="109.306483" style="fill: #ff0000; stroke: #ff0000; stroke-width: 1.5"/>
     <use xlink:href="#mef8ae830bb" x="309.355199" y="149.51863" style="fill: #ff0000; stroke: #ff0000; stroke-width: 1.5"/>
     <use xlink:href="#mef8ae830bb" x="71.206195" y="167.783894" style="fill: #ff0000; stroke: #ff0000; stroke-width: 1.5"/>
     <use xlink:href="#mef8ae830bb" x="64.366001" y="134.180963" style="fill: #ff0000; stroke: #ff0000; stroke-width: 1.5"/>
     <use xlink:href="#mef8ae830bb" x="117.843696" y="64.667247" style="fill: #ff0000; stroke: #ff0000; stroke-width: 1.5"/>
     <use xlink:href="#mef8ae830bb" x="108.867101" y="92.337095" style="fill: #ff0000; stroke: #ff0000; stroke-width: 1.5"/>
    </g>
   </g>
  </g>
  <g id="axes_2">
   <g id="patch_7">
    <path d="M 393.85 228.04 
L 702.72 228.04 
L 702.72 23.4 
L 393.85 23.4 
z
" style="fill: #ffffff"/>
   </g>
   <g id="PolyCollection_2">
    <defs>
     <path id="m7f015ccc51" d="M 407.889545 -185.627577 
L 407.889545 -127.665316 
L 410.725817 -133.925119 
L 413.562089 -115.435836 
L 416.398361 -107.718945 
L 419.234633 -108.059592 
L 422.070904 -113.274053 
L 424.907176 -117.945625 
L 427.743448 -121.267955 
L 430.57972 -123.528724 
L 433.415992 -125.123487 
L 436.252264 -126.402549 
L 439.088535 -127.68487 
L 441.924807 -129.324777 
L 444.761079 -131.827534 
L 447.597351 -136.074513 
L 450.433623 -143.865985 
L 453.269894 -159.79456 
L 456.106166 -167.737208 
L 458.942438 -163.750123 
L 461.77871 -176.966633 
L 464.614982 -189.04325 
L 467.451253 -160.250626 
L 470.287525 -145.847758 
L 473.123797 -137.939825 
L 475.960069 -133.493193 
L 478.796341 -131.037368 
L 481.632612 -129.824806 
L 484.468884 -129.504004 
L 487.305156 -129.986857 
L 490.141428 -131.420559 
L 492.9777 -134.250413 
L 495.813972 -139.421184 
L 498.650243 -148.901024 
L 501.486515 -167.375923 
L 504.322787 -176.910671 
L 507.159059 -153.60737 
L 509.995331 -142.371589 
L 512.831602 -136.643816 
L 515.667874 -134.090119 
L 518.504146 -133.904868 
L 521.340418 -136.374525 
L 524.17669 -143.53868 
L 527.012961 -162.904897 
L 529.849233 -143.353862 
L 532.685505 -137.715507 
L 535.521777 -138.375806 
L 538.358049 -147.864995 
L 541.19432 -141.989879 
L 544.030592 -133.667575 
L 546.866864 -130.359632 
L 549.703136 -129.004482 
L 552.539408 -128.644634 
L 555.37568 -129.018482 
L 558.211951 -130.260329 
L 561.048223 -132.983602 
L 563.884495 -138.875443 
L 566.720767 -153.700262 
L 569.557039 -144.709159 
L 572.39331 -135.405619 
L 575.229582 -131.254916 
L 578.065854 -129.20459 
L 580.902126 -128.153995 
L 583.738398 -127.638315 
L 586.574669 -127.455539 
L 589.410941 -127.533916 
L 592.247213 -127.885864 
L 595.083485 -128.602231 
L 597.919757 -129.87503 
L 600.756028 -132.053454 
L 603.5923 -135.754709 
L 606.428572 -142.082489 
L 609.264844 -153.090054 
L 612.101116 -172.956347 
L 614.937388 -213.747213 
L 617.773659 -175.01352 
L 620.609931 -154.159671 
L 623.446203 -142.631787 
L 626.282475 -135.979752 
L 629.118747 -132.030904 
L 631.955018 -129.606268 
L 634.79129 -128.022268 
L 637.627562 -126.852061 
L 640.463834 -125.798261 
L 643.300106 -124.623961 
L 646.136377 -123.134475 
L 648.972649 -121.263506 
L 651.808921 -119.531241 
L 654.645193 -121.857198 
L 657.481465 -119.468364 
L 660.317736 -120.196305 
L 663.154008 -122.051899 
L 665.99028 -123.594189 
L 668.826552 -124.66926 
L 671.662824 -125.369443 
L 674.499096 -125.810556 
L 677.335367 -126.0835 
L 680.171639 -126.250669 
L 683.007911 -126.352444 
L 685.844183 -126.414188 
L 688.680455 -126.451567 
L 688.680455 -197.994108 
L 688.680455 -197.994108 
L 685.844183 -197.956368 
L 683.007911 -197.893635 
L 680.171639 -197.789142 
L 677.335367 -197.61451 
L 674.499096 -197.321067 
L 671.662824 -196.823638 
L 668.826552 -195.96859 
L 665.99028 -194.466538 
L 663.154008 -191.738355 
L 660.317736 -186.51748 
L 657.481465 -175.519223 
L 654.645193 -164.538362 
L 651.808921 -182.123308 
L 648.972649 -189.682147 
L 646.136377 -193.555143 
L 643.300106 -195.759037 
L 640.463834 -197.189824 
L 637.627562 -198.331557 
L 634.79129 -199.519363 
L 631.955018 -201.070224 
L 629.118747 -203.374065 
L 626.282475 -206.979289 
L 623.446203 -212.675092 
L 620.609931 -221.50597 
L 617.773659 -234.326166 
L 614.937388 -246.097421 
L 612.101116 -233.251264 
L 609.264844 -220.753355 
L 606.428572 -212.23723 
L 603.5923 -206.795044 
L 600.756028 -203.41346 
L 597.919757 -201.350781 
L 595.083485 -200.119215 
L 592.247213 -199.415459 
L 589.410941 -199.061519 
L 586.574669 -198.964331 
L 583.738398 -199.090567 
L 580.902126 -199.44899 
L 578.065854 -200.065329 
L 575.229582 -200.909081 
L 572.39331 -201.633633 
L 569.557039 -200.456747 
L 566.720767 -197.027525 
L 563.884495 -201.626082 
L 561.048223 -201.445135 
L 558.211951 -200.666864 
L 555.37568 -200.066103 
L 552.539408 -199.776197 
L 549.703136 -199.758514 
L 546.866864 -199.840595 
L 544.030592 -199.439412 
L 541.19432 -196.250736 
L 538.358049 -193.815181 
L 535.521777 -200.900817 
L 532.685505 -202.991896 
L 529.849233 -202.991434 
L 527.012961 -194.754327 
L 524.17669 -202.943878 
L 521.340418 -203.713923 
L 518.504146 -203.835318 
L 515.667874 -204.735827 
L 512.831602 -206.9848 
L 509.995331 -211.027917 
L 507.159059 -217.076994 
L 504.322787 -223.075993 
L 501.486515 -221.567485 
L 498.650243 -214.65693 
L 495.813972 -208.912011 
L 492.9777 -205.051994 
L 490.141428 -202.692109 
L 487.305156 -201.424967 
L 484.468884 -200.992178 
L 481.632612 -201.302374 
L 478.796341 -202.43185 
L 475.960069 -204.639309 
L 473.123797 -208.3922 
L 470.287525 -214.356368 
L 467.451253 -223.112473 
L 464.614982 -232.799636 
L 461.77871 -231.425827 
L 458.942438 -224.206943 
L 456.106166 -216.302209 
L 453.269894 -211.890233 
L 450.433623 -209.002026 
L 447.597351 -205.352208 
L 444.761079 -202.552425 
L 441.924807 -200.566956 
L 439.088535 -199.107787 
L 436.252264 -197.872739 
L 433.415992 -196.560253 
L 430.57972 -194.814074 
L 427.743448 -192.114044 
L 424.907176 -187.563211 
L 422.070904 -179.397948 
L 419.234633 -163.467337 
L 416.398361 -151.097555 
L 413.562089 -171.456217 
L 410.725817 -171.228316 
L 407.889545 -185.627577 
z
" style="stroke: #000000; stroke-opacity: 0.1"/>
    </defs>
    <g clip-path="url(#p40aec10f52)">
     <use xlink:href="#m7f015ccc51" x="0" y="288" style="fill-opacity: 0.1; stroke: #000000; stroke-opacity: 0.1"/>
    </g>
   </g>
   <g id="matplotlib.axis_3">
    <g id="xtick_7">
     <g id="line2d_18">
      <g>
       <use xlink:href="#m5a9b44b81f" x="407.889545" y="228.04" style="stroke: #000000; stroke-width: 0.8"/>
      </g>
     </g>
     <g id="text_15">
      <!-- 0 -->
      <g transform="translate(402.799545 247.1975)scale(0.16 -0.16)">
       <use xlink:href="#DejaVuSerif-30"/>
      </g>
     </g>
    </g>
    <g id="xtick_8">
     <g id="line2d_19">
      <g>
       <use xlink:href="#m5a9b44b81f" x="464.047727" y="228.04" style="stroke: #000000; stroke-width: 0.8"/>
      </g>
     </g>
     <g id="text_16">
      <!-- 1 -->
      <g transform="translate(458.957727 247.1975)scale(0.16 -0.16)">
       <use xlink:href="#DejaVuSerif-31"/>
      </g>
     </g>
    </g>
    <g id="xtick_9">
     <g id="line2d_20">
      <g>
       <use xlink:href="#m5a9b44b81f" x="520.205909" y="228.04" style="stroke: #000000; stroke-width: 0.8"/>
      </g>
     </g>
     <g id="text_17">
      <!-- 2 -->
      <g transform="translate(515.115909 247.1975)scale(0.16 -0.16)">
       <use xlink:href="#DejaVuSerif-32"/>
      </g>
     </g>
    </g>
    <g id="xtick_10">
     <g id="line2d_21">
      <g>
       <use xlink:href="#m5a9b44b81f" x="576.364091" y="228.04" style="stroke: #000000; stroke-width: 0.8"/>
      </g>
     </g>
     <g id="text_18">
      <!-- 3 -->
      <g transform="translate(571.274091 247.1975)scale(0.16 -0.16)">
       <use xlink:href="#DejaVuSerif-33"/>
      </g>
     </g>
    </g>
    <g id="xtick_11">
     <g id="line2d_22">
      <g>
       <use xlink:href="#m5a9b44b81f" x="632.522273" y="228.04" style="stroke: #000000; stroke-width: 0.8"/>
      </g>
     </g>
     <g id="text_19">
      <!-- 4 -->
      <g transform="translate(627.432273 247.1975)scale(0.16 -0.16)">
       <use xlink:href="#DejaVuSerif-34"/>
      </g>
     </g>
    </g>
    <g id="xtick_12">
     <g id="line2d_23">
      <g>
       <use xlink:href="#m5a9b44b81f" x="688.680455" y="228.04" style="stroke: #000000; stroke-width: 0.8"/>
      </g>
     </g>
     <g id="text_20">
      <!-- 5 -->
      <g transform="translate(683.590455 247.1975)scale(0.16 -0.16)">
       <use xlink:href="#DejaVuSerif-35"/>
      </g>
     </g>
    </g>
    <g id="text_21">
     <!-- Laplace -->
     <g transform="translate(516.5375 266.6825)scale(0.16 -0.16)">
      <defs>
       <path id="DejaVuSerif-4c" d="M 353 0 
L 353 331 
L 947 331 
L 947 4331 
L 353 4331 
L 353 4666 
L 2175 4666 
L 2175 4331 
L 1581 4331 
L 1581 384 
L 3713 384 
L 3713 1166 
L 4097 1166 
L 4097 0 
L 353 0 
z
" transform="scale(0.015625)"/>
       <path id="DejaVuSerif-70" d="M 1313 1825 
L 1313 1497 
Q 1313 897 1542 583 
Q 1772 269 2209 269 
Q 2650 269 2876 622 
Q 3103 975 3103 1663 
Q 3103 2353 2876 2703 
Q 2650 3053 2209 3053 
Q 1772 3053 1542 2737 
Q 1313 2422 1313 1825 
z
M 738 2988 
L 184 2988 
L 184 3322 
L 1313 3322 
L 1313 2803 
Q 1481 3116 1742 3264 
Q 2003 3413 2388 3413 
Q 3000 3413 3387 2928 
Q 3775 2444 3775 1663 
Q 3775 881 3387 395 
Q 3000 -91 2388 -91 
Q 2003 -91 1742 57 
Q 1481 206 1313 519 
L 1313 -997 
L 1856 -997 
L 1856 -1331 
L 184 -1331 
L 184 -997 
L 738 -997 
L 738 2988 
z
" transform="scale(0.015625)"/>
       <path id="DejaVuSerif-6c" d="M 1313 331 
L 1856 331 
L 1856 0 
L 184 0 
L 184 331 
L 738 331 
L 738 4531 
L 184 4531 
L 184 4863 
L 1313 4863 
L 1313 331 
z
" transform="scale(0.015625)"/>
       <path id="DejaVuSerif-63" d="M 3291 997 
Q 3169 466 2822 187 
Q 2475 -91 1925 -91 
Q 1200 -91 759 389 
Q 319 869 319 1663 
Q 319 2459 759 2936 
Q 1200 3413 1925 3413 
Q 2241 3413 2553 3339 
Q 2866 3266 3181 3116 
L 3181 2266 
L 2847 2266 
Q 2781 2703 2561 2903 
Q 2341 3103 1931 3103 
Q 1466 3103 1228 2742 
Q 991 2381 991 1663 
Q 991 944 1227 581 
Q 1463 219 1931 219 
Q 2303 219 2525 412 
Q 2747 606 2828 997 
L 3291 997 
z
" transform="scale(0.015625)"/>
       <path id="DejaVuSerif-65" d="M 3469 1600 
L 991 1600 
L 991 1575 
Q 991 903 1244 561 
Q 1497 219 1991 219 
Q 2369 219 2611 417 
Q 2853 616 2950 1006 
L 3413 1006 
Q 3275 459 2904 184 
Q 2534 -91 1931 -91 
Q 1203 -91 761 389 
Q 319 869 319 1663 
Q 319 2450 753 2931 
Q 1188 3413 1894 3413 
Q 2647 3413 3050 2948 
Q 3453 2484 3469 1600 
z
M 2791 1931 
Q 2772 2513 2545 2808 
Q 2319 3103 1894 3103 
Q 1497 3103 1269 2806 
Q 1041 2509 991 1931 
L 2791 1931 
z
" transform="scale(0.015625)"/>
      </defs>
      <use xlink:href="#DejaVuSerif-4c"/>
      <use xlink:href="#DejaVuSerif-61" x="66.40625"/>
      <use xlink:href="#DejaVuSerif-70" x="126.025391"/>
      <use xlink:href="#DejaVuSerif-6c" x="190.039062"/>
      <use xlink:href="#DejaVuSerif-61" x="222.021484"/>
      <use xlink:href="#DejaVuSerif-63" x="281.640625"/>
      <use xlink:href="#DejaVuSerif-65" x="337.646484"/>
     </g>
    </g>
   </g>
   <g id="matplotlib.axis_4">
    <g id="ytick_8">
     <g id="line2d_24">
      <g>
       <use xlink:href="#m6e0bf31bb3" x="393.85" y="228.04" style="stroke: #000000; stroke-width: 0.8"/>
      </g>
     </g>
    </g>
    <g id="ytick_9">
     <g id="line2d_25">
      <g>
       <use xlink:href="#m6e0bf31bb3" x="393.85" y="193.933333" style="stroke: #000000; stroke-width: 0.8"/>
      </g>
     </g>
    </g>
    <g id="ytick_10">
     <g id="line2d_26">
      <g>
       <use xlink:href="#m6e0bf31bb3" x="393.85" y="159.826667" style="stroke: #000000; stroke-width: 0.8"/>
      </g>
     </g>
    </g>
    <g id="ytick_11">
     <g id="line2d_27">
      <g>
       <use xlink:href="#m6e0bf31bb3" x="393.85" y="125.72" style="stroke: #000000; stroke-width: 0.8"/>
      </g>
     </g>
    </g>
    <g id="ytick_12">
     <g id="line2d_28">
      <g>
       <use xlink:href="#m6e0bf31bb3" x="393.85" y="91.613333" style="stroke: #000000; stroke-width: 0.8"/>
      </g>
     </g>
    </g>
    <g id="ytick_13">
     <g id="line2d_29">
      <g>
       <use xlink:href="#m6e0bf31bb3" x="393.85" y="57.506667" style="stroke: #000000; stroke-width: 0.8"/>
      </g>
     </g>
    </g>
    <g id="ytick_14">
     <g id="line2d_30">
      <g>
       <use xlink:href="#m6e0bf31bb3" x="393.85" y="23.4" style="stroke: #000000; stroke-width: 0.8"/>
      </g>
     </g>
    </g>
    <g id="text_22">
     <!-- y -->
     <g transform="translate(386.295 130.24)rotate(-90)scale(0.16 -0.16)">
      <defs>
       <path id="DejaVuSerif-79" d="M 1381 -609 
L 1600 -56 
L 359 2988 
L -19 2988 
L -19 3322 
L 1509 3322 
L 1509 2988 
L 978 2988 
L 1913 703 
L 2847 2988 
L 2350 2988 
L 2350 3322 
L 3597 3322 
L 3597 2988 
L 3225 2988 
L 1703 -750 
Q 1547 -1138 1356 -1280 
Q 1166 -1422 819 -1422 
Q 672 -1422 517 -1397 
Q 363 -1372 206 -1325 
L 206 -691 
L 500 -691 
Q 519 -903 608 -995 
Q 697 -1088 884 -1088 
Q 1056 -1088 1161 -992 
Q 1266 -897 1381 -609 
z
" transform="scale(0.015625)"/>
      </defs>
      <use xlink:href="#DejaVuSerif-79"/>
     </g>
    </g>
   </g>
   <g id="line2d_31">
    <path d="M 407.889545 109.896272 
L 410.725817 111.537146 
L 413.562089 177.453861 
L 416.398361 139.757751 
L 419.234633 151.354897 
L 422.070904 196.478084 
L 424.907176 197.8051 
L 427.743448 176.734909 
L 430.57972 192.019588 
L 433.415992 188.796324 
L 436.252264 176.378102 
L 439.088535 140.22073 
L 441.924807 143.865134 
L 444.761079 155.972711 
L 447.597351 132.616474 
L 450.433623 54.763064 
L 453.269894 69.660382 
L 456.106166 58.005822 
L 458.942438 103.995003 
L 461.77871 52.302362 
L 464.614982 83.198955 
L 467.451253 100.386141 
L 470.287525 69.144636 
L 473.123797 78.653764 
L 475.960069 84.851187 
L 478.796341 71.661385 
L 481.632612 78.536152 
L 484.468884 80.924758 
L 487.305156 74.271133 
L 490.141428 48.037016 
L 492.9777 49.625532 
L 495.813972 84.440588 
L 498.650243 93.084199 
L 501.486515 107.711874 
L 504.322787 69.50657 
L 507.159059 80.179126 
L 509.995331 101.628732 
L 512.831602 96.682521 
L 515.667874 134.627491 
L 518.504146 182.738525 
L 521.340418 199.643667 
L 524.17669 159.844377 
L 527.012961 124.112294 
L 529.849233 150.685987 
L 532.685505 90.950566 
L 535.521777 108.093304 
L 538.358049 108.971448 
L 541.19432 112.475505 
L 544.030592 91.171454 
L 546.866864 163.376524 
L 549.703136 132.002383 
L 552.539408 170.176391 
L 555.37568 149.983429 
L 558.211951 190.022896 
L 561.048223 104.695404 
L 563.884495 100.193002 
L 566.720767 104.715369 
L 569.557039 147.493246 
L 572.39331 155.119156 
L 575.229582 137.243706 
L 578.065854 151.122542 
L 580.902126 217.321916 
L 583.738398 170.210642 
L 586.574669 126.583927 
L 589.410941 110.016306 
L 592.247213 127.45003 
L 595.083485 194.839519 
L 597.919757 169.479263 
L 600.756028 178.469492 
L 603.5923 161.631181 
L 606.428572 121.350019 
L 609.264844 88.781597 
L 612.101116 70.202978 
L 614.937388 55.596381 
L 617.773659 104.727334 
L 620.609931 158.039229 
L 623.446203 88.788792 
L 626.282475 87.942013 
L 629.118747 115.399627 
L 631.955018 114.047197 
L 634.79129 117.405497 
L 637.627562 154.241879 
L 640.463834 105.432935 
L 643.300106 143.360949 
L 646.136377 117.546392 
L 648.972649 135.80001 
L 651.808921 137.740628 
L 654.645193 149.958713 
L 657.481465 212.939612 
L 660.317736 211.044245 
L 663.154008 168.417055 
L 665.99028 111.571567 
L 668.826552 127.105354 
L 671.662824 167.974409 
L 674.499096 128.18309 
L 677.335367 138.500843 
L 680.171639 137.106146 
L 683.007911 150.955826 
L 685.844183 163.218032 
L 688.680455 157.606519 
" clip-path="url(#p40aec10f52)" style="fill: none; stroke: #1f77b4; stroke-opacity: 0.4; stroke-width: 1.5; stroke-linecap: square"/>
   </g>
   <g id="line2d_32">
    <path d="M 407.889545 143.499052 
L 410.725817 119.144952 
L 413.562089 145.335391 
L 416.398361 173.642485 
L 419.234633 98.298573 
L 422.070904 95.958039 
L 424.907176 119.700241 
L 427.743448 154.849746 
L 430.57972 149.59661 
L 433.415992 103.866828 
L 436.252264 130.721919 
L 439.088535 58.825922 
L 441.924807 48.150603 
L 444.761079 85.454898 
L 447.597351 104.432385 
L 450.433623 82.414981 
L 453.269894 108.488284 
L 456.106166 76.948889 
L 458.942438 96.237359 
L 461.77871 49.56806 
L 464.614982 84.610954 
L 467.451253 98.499725 
L 470.287525 92.055797 
L 473.123797 123.877064 
L 475.960069 146.629439 
L 478.796341 110.573507 
L 481.632612 106.878775 
L 484.468884 130.680864 
L 487.305156 100.135817 
L 490.141428 68.2997 
L 492.9777 34.993556 
L 495.813972 56.222247 
L 498.650243 105.780638 
L 501.486515 70.625316 
L 504.322787 62.083241 
L 507.159059 72.570816 
L 509.995331 118.625864 
L 512.831602 134.058392 
L 515.667874 108.366607 
L 518.504146 80.946949 
L 521.340418 94.186131 
L 524.17669 154.313357 
L 527.012961 134.506081 
L 529.849233 117.381114 
L 532.685505 122.602642 
L 535.521777 102.657063 
L 538.358049 97.475819 
L 541.19432 107.978605 
L 544.030592 71.589075 
L 546.866864 54.961639 
L 549.703136 47.803026 
L 552.539408 31.771287 
L 555.37568 89.201059 
L 558.211951 124.665441 
L 561.048223 155.295744 
L 563.884495 99.979235 
L 566.720767 101.943531 
L 569.557039 120.097306 
L 572.39331 109.821852 
L 575.229582 140.535921 
L 578.065854 127.791384 
L 580.902126 187.712392 
L 583.738398 194.937788 
L 586.574669 177.796926 
L 589.410941 187.69588 
L 592.247213 178.178848 
L 595.083485 181.46348 
L 597.919757 118.95879 
L 600.756028 168.440414 
L 603.5923 65.801839 
L 606.428572 121.959004 
L 609.264844 139.299567 
L 612.101116 84.440738 
L 614.937388 23.115953 
L 617.773659 87.682978 
L 620.609931 122.409701 
L 623.446203 112.66933 
L 626.282475 172.926111 
L 629.118747 154.991956 
L 631.955018 136.503512 
L 634.79129 138.883267 
L 637.627562 106.111144 
L 640.463834 68.002419 
L 643.300106 30.615529 
L 646.136377 81.710069 
L 648.972649 116.656037 
L 651.808921 98.011253 
L 654.645193 141.900946 
L 657.481465 128.806133 
L 660.317736 171.153071 
L 663.154008 159.099875 
L 665.99028 103.053944 
L 668.826552 120.546254 
L 671.662824 86.974877 
L 674.499096 71.461628 
L 677.335367 58.903928 
L 680.171639 87.002514 
L 683.007911 53.254525 
L 685.844183 93.499969 
L 688.680455 86.335094 
" clip-path="url(#p40aec10f52)" style="fill: none; stroke-dasharray: 7.4,3.2; stroke-dashoffset: 0; stroke: #ff7f0e; stroke-opacity: 0.4; stroke-width: 2"/>
   </g>
   <g id="line2d_33">
    <path d="M 407.889545 199.066419 
L 410.725817 124.437003 
L 413.562089 125.44547 
L 416.398361 170.434785 
L 419.234633 119.699356 
L 422.070904 98.620539 
L 424.907176 127.330638 
L 427.743448 134.346175 
L 430.57972 176.928382 
L 433.415992 161.673197 
L 436.252264 181.781279 
L 439.088535 160.610701 
L 441.924807 119.223432 
L 444.761079 106.97432 
L 447.597351 116.664089 
L 450.433623 60.145654 
L 453.269894 79.76965 
L 456.106166 93.182647 
L 458.942438 118.160496 
L 461.77871 67.012266 
L 464.614982 76.059553 
L 467.451253 123.605437 
L 470.287525 100.439641 
L 473.123797 79.034371 
L 475.960069 134.785011 
L 478.796341 98.910526 
L 481.632612 94.106067 
L 484.468884 87.03821 
L 487.305156 100.630049 
L 490.141428 127.074566 
L 492.9777 129.402025 
L 495.813972 98.783239 
L 498.650243 91.890912 
L 501.486515 105.024301 
L 504.322787 63.232356 
L 507.159059 106.573822 
L 509.995331 75.733229 
L 512.831602 133.036815 
L 515.667874 90.346405 
L 518.504146 151.541698 
L 521.340418 120.124222 
L 524.17669 133.747641 
L 527.012961 116.328893 
L 529.849233 110.043773 
L 532.685505 110.955131 
L 535.521777 91.210252 
L 538.358049 116.076964 
L 541.19432 147.955531 
L 544.030592 183.483977 
L 546.866864 165.830213 
L 549.703136 141.283894 
L 552.539408 151.20159 
L 555.37568 175.125715 
L 558.211951 161.499323 
L 561.048223 116.812957 
L 563.884495 154.665433 
L 566.720767 108.169294 
L 569.557039 136.246717 
L 572.39331 164.582595 
L 575.229582 135.23774 
L 578.065854 156.140268 
L 580.902126 119.714764 
L 583.738398 128.226201 
L 586.574669 109.29312 
L 589.410941 111.087733 
L 592.247213 99.433638 
L 595.083485 123.135762 
L 597.919757 112.297034 
L 600.756028 76.411524 
L 603.5923 88.359358 
L 606.428572 80.723183 
L 609.264844 131.07059 
L 612.101116 121.947059 
L 614.937388 70.52209 
L 617.773659 91.598743 
L 620.609931 45.384759 
L 623.446203 94.631381 
L 626.282475 108.395148 
L 629.118747 137.234452 
L 631.955018 135.97475 
L 634.79129 99.038179 
L 637.627562 84.314234 
L 640.463834 139.847543 
L 643.300106 104.194201 
L 646.136377 92.556189 
L 648.972649 91.713282 
L 651.808921 128.734413 
L 654.645193 153.056482 
L 657.481465 129.184166 
L 660.317736 125.609909 
L 663.154008 222.374624 
L 665.99028 114.198547 
L 668.826552 161.979103 
L 671.662824 184.33963 
L 674.499096 115.500333 
L 677.335367 160.196519 
L 680.171639 133.122382 
L 683.007911 124.575982 
L 685.844183 141.214766 
L 688.680455 94.605683 
" clip-path="url(#p40aec10f52)" style="fill: none; stroke-dasharray: 2.25,3.7125; stroke-dashoffset: 0; stroke: #2ca02c; stroke-opacity: 0.4; stroke-width: 2.25"/>
   </g>
   <g id="line2d_34">
    <path d="M 407.889545 131.353553 
L 410.725817 135.423282 
L 413.562089 144.553974 
L 416.398361 158.59175 
L 419.234633 152.236536 
L 422.070904 141.664 
L 424.907176 135.245582 
L 427.743448 131.309 
L 430.57972 128.828601 
L 433.415992 127.15813 
L 436.252264 125.862356 
L 439.088535 124.603671 
L 441.924807 123.054134 
L 444.761079 120.81002 
L 447.597351 117.286639 
L 450.433623 111.565994 
L 453.269894 102.157604 
L 456.106166 95.980291 
L 458.942438 94.021467 
L 461.77871 83.80377 
L 464.614982 77.078557 
L 467.451253 96.318451 
L 470.287525 107.897937 
L 473.123797 114.833987 
L 475.960069 118.933749 
L 478.796341 121.265391 
L 481.632612 122.43641 
L 484.468884 122.751909 
L 487.305156 122.294088 
L 490.141428 120.943666 
L 492.9777 118.348797 
L 495.813972 113.833403 
L 498.650243 106.221023 
L 501.486515 93.528296 
L 504.322787 88.006668 
L 507.159059 102.657818 
L 509.995331 111.300247 
L 512.831602 116.185692 
L 515.667874 118.587027 
L 518.504146 119.129907 
L 521.340418 117.955776 
L 524.17669 114.758721 
L 527.012961 109.170388 
L 529.849233 114.827352 
L 532.685505 117.646299 
L 535.521777 118.361689 
L 538.358049 117.159912 
L 541.19432 118.879693 
L 544.030592 121.446507 
L 546.866864 122.899887 
L 549.703136 123.618502 
L 552.539408 123.789584 
L 555.37568 123.457708 
L 558.211951 122.536403 
L 561.048223 120.785631 
L 563.884495 117.749237 
L 566.720767 112.636107 
L 569.557039 115.417047 
L 572.39331 119.480374 
L 575.229582 121.918002 
L 578.065854 123.36504 
L 580.902126 124.198508 
L 583.738398 124.635559 
L 586.574669 124.790065 
L 589.410941 124.702282 
L 592.247213 124.349338 
L 595.083485 123.639277 
L 597.919757 122.387095 
L 600.756028 120.266543 
L 603.5923 116.725124 
L 606.428572 110.840141 
L 609.264844 101.078296 
L 612.101116 84.896194 
L 614.937388 58.077683 
L 617.773659 83.330157 
L 620.609931 100.16718 
L 623.446203 110.346561 
L 626.282475 116.520479 
L 629.118747 120.297516 
L 631.955018 122.661754 
L 634.79129 124.229184 
L 637.627562 125.408191 
L 640.463834 126.505958 
L 643.300106 127.808501 
L 646.136377 129.655191 
L 648.972649 132.527173 
L 651.808921 137.172725 
L 654.645193 144.80222 
L 657.481465 140.506206 
L 660.317736 134.643107 
L 663.154008 131.104873 
L 665.99028 128.969637 
L 668.826552 127.681075 
L 671.662824 126.90346 
L 674.499096 126.434189 
L 677.335367 126.150995 
L 680.171639 125.980095 
L 683.007911 125.876961 
L 685.844183 125.814722 
L 688.680455 125.777162 
" clip-path="url(#p40aec10f52)" style="fill: none; stroke: #000000; stroke-width: 1.5; stroke-linecap: square"/>
   </g>
   <g id="patch_8">
    <path d="M 393.85 228.04 
L 393.85 23.4 
" style="fill: none; stroke: #000000; stroke-width: 0.8; stroke-linejoin: miter; stroke-linecap: square"/>
   </g>
   <g id="patch_9">
    <path d="M 702.72 228.04 
L 702.72 23.4 
" style="fill: none; stroke: #000000; stroke-width: 0.8; stroke-linejoin: miter; stroke-linecap: square"/>
   </g>
   <g id="patch_10">
    <path d="M 393.85 228.04 
L 702.72 228.04 
" style="fill: none; stroke: #000000; stroke-width: 0.8; stroke-linejoin: miter; stroke-linecap: square"/>
   </g>
   <g id="patch_11">
    <path d="M 393.85 23.4 
L 702.72 23.4 
" style="fill: none; stroke: #000000; stroke-width: 0.8; stroke-linejoin: miter; stroke-linecap: square"/>
   </g>
  </g>
 </g>
 <defs>
  <clipPath id="p4b6d165fe5">
   <rect x="47.86" y="23.4" width="308.87" height="204.64"/>
  </clipPath>
  <clipPath id="p40aec10f52">
   <rect x="393.85" y="23.4" width="308.87" height="204.64"/>
  </clipPath>
 </defs>
</svg>
