<?xml version="1.0" encoding="utf-8" standalone="no"?>
<!DOCTYPE svg PUBLIC "-//W3C//DTD SVG 1.1//EN"
  "http://www.w3.org/Graphics/SVG/1.1/DTD/svg11.dtd">
<svg xmlns:xlink="http://www.w3.org/1999/xlink" width="720pt" height="288pt" viewBox="0 0 720 288" xmlns="http://www.w3.org/2000/svg" version="1.1">
 <metadata>
  <rdf:RDF xmlns:dc="http://purl.org/dc/elements/1.1/" xmlns:cc="http://creativecommons.org/ns#" xmlns:rdf="http://www.w3.org/1999/02/22-rdf-syntax-ns#">
   <cc:Work>
    <dc:type rdf:resource="http://purl.org/dc/dcmitype/StillImage"/>
    <dc:date>2022-07-12T21:51:42.119935</dc:date>
    <dc:format>image/svg+xml</dc:format>
    <dc:creator>
     <cc:Agent>
      <dc:title>Matplotlib v3.5.0, https://matplotlib.org/</dc:title>
     </cc:Agent>
    </dc:creator>
   </cc:Work>
  </rdf:RDF>
 </metadata>
 <defs>
  <style type="text/css">*{stroke-linejoin: round; stroke-linecap: butt}</style>
 </defs>
 <g id="figure_1">
  <g id="patch_1">
   <path d="M 0 288 
L 720 288 
L 720 0 
L 0 0 
z
" style="fill: #ffffff"/>
  </g>
  <g id="axes_1">
   <g id="patch_2">
    <path d="M 67.7 228.04 
L 374.82 228.04 
L 374.82 23.4 
L 67.7 23.4 
z
" style="fill: #ffffff"/>
   </g>
   <g id="PolyCollection_1">
    <defs>
     <path id="ma31d1858c9" d="M 81.66 -198.051374 
L 81.66 -126.508626 
L 84.480202 -126.508626 
L 87.300404 -126.508626 
L 90.120606 -126.508626 
L 92.940808 -126.508626 
L 95.76101 -126.508626 
L 98.581212 -126.508626 
L 101.401414 -126.508626 
L 104.221616 -126.508626 
L 107.041818 -126.508626 
L 109.86202 -126.508626 
L 112.682222 -126.508626 
L 115.502424 -126.508626 
L 118.322626 -126.508626 
L 121.142828 -126.508626 
L 123.96303 -126.508626 
L 126.783232 -126.508626 
L 129.603434 -126.508626 
L 132.423636 -126.508626 
L 135.243838 -126.508626 
L 138.06404 -126.508626 
L 140.884242 -126.508626 
L 143.704444 -126.508626 
L 146.524646 -126.508626 
L 149.344848 -126.508626 
L 152.165051 -126.508626 
L 154.985253 -126.508626 
L 157.805455 -126.508626 
L 160.625657 -126.508626 
L 163.445859 -126.508626 
L 166.266061 -126.508626 
L 169.086263 -126.508626 
L 171.906465 -126.508626 
L 174.726667 -126.508626 
L 177.546869 -126.508626 
L 180.367071 -126.508626 
L 183.187273 -126.508626 
L 186.007475 -126.508626 
L 188.827677 -126.508626 
L 191.647879 -126.508626 
L 194.468081 -126.508626 
L 197.288283 -126.508626 
L 200.108485 -126.508626 
L 202.928687 -126.508626 
L 205.748889 -126.508626 
L 208.569091 -126.508626 
L 211.389293 -126.508626 
L 214.209495 -126.508626 
L 217.029697 -126.508626 
L 219.849899 -126.508626 
L 222.670101 -126.508626 
L 225.490303 -126.508626 
L 228.310505 -126.508626 
L 231.130707 -126.508626 
L 233.950909 -126.508626 
L 236.771111 -126.508626 
L 239.591313 -126.508626 
L 242.411515 -126.508626 
L 245.231717 -126.508626 
L 248.051919 -126.508626 
L 250.872121 -126.508626 
L 253.692323 -126.508626 
L 256.512525 -126.508626 
L 259.332727 -126.508626 
L 262.152929 -126.508626 
L 264.973131 -126.508626 
L 267.793333 -126.508626 
L 270.613535 -126.508626 
L 273.433737 -126.508626 
L 276.253939 -126.508626 
L 279.074141 -126.508626 
L 281.894343 -126.508626 
L 284.714545 -126.508626 
L 287.534747 -126.508626 
L 290.354949 -126.508626 
L 293.175152 -126.508626 
L 295.995354 -126.508626 
L 298.815556 -126.508626 
L 301.635758 -126.508626 
L 304.45596 -126.508626 
L 307.276162 -126.508626 
L 310.096364 -126.508626 
L 312.916566 -126.508626 
L 315.736768 -126.508626 
L 318.55697 -126.508626 
L 321.377172 -126.508626 
L 324.197374 -126.508626 
L 327.017576 -126.508626 
L 329.837778 -126.508626 
L 332.65798 -126.508626 
L 335.478182 -126.508626 
L 338.298384 -126.508626 
L 341.118586 -126.508626 
L 343.938788 -126.508626 
L 346.75899 -126.508626 
L 349.579192 -126.508626 
L 352.399394 -126.508626 
L 355.219596 -126.508626 
L 358.039798 -126.508626 
L 360.86 -126.508626 
L 360.86 -198.051374 
L 360.86 -198.051374 
L 358.039798 -198.051374 
L 355.219596 -198.051374 
L 352.399394 -198.051374 
L 349.579192 -198.051374 
L 346.75899 -198.051374 
L 343.938788 -198.051374 
L 341.118586 -198.051374 
L 338.298384 -198.051374 
L 335.478182 -198.051374 
L 332.65798 -198.051374 
L 329.837778 -198.051374 
L 327.017576 -198.051374 
L 324.197374 -198.051374 
L 321.377172 -198.051374 
L 318.55697 -198.051374 
L 315.736768 -198.051374 
L 312.916566 -198.051374 
L 310.096364 -198.051374 
L 307.276162 -198.051374 
L 304.45596 -198.051374 
L 301.635758 -198.051374 
L 298.815556 -198.051374 
L 295.995354 -198.051374 
L 293.175152 -198.051374 
L 290.354949 -198.051374 
L 287.534747 -198.051374 
L 284.714545 -198.051374 
L 281.894343 -198.051374 
L 279.074141 -198.051374 
L 276.253939 -198.051374 
L 273.433737 -198.051374 
L 270.613535 -198.051374 
L 267.793333 -198.051374 
L 264.973131 -198.051374 
L 262.152929 -198.051374 
L 259.332727 -198.051374 
L 256.512525 -198.051374 
L 253.692323 -198.051374 
L 250.872121 -198.051374 
L 248.051919 -198.051374 
L 245.231717 -198.051374 
L 242.411515 -198.051374 
L 239.591313 -198.051374 
L 236.771111 -198.051374 
L 233.950909 -198.051374 
L 231.130707 -198.051374 
L 228.310505 -198.051374 
L 225.490303 -198.051374 
L 222.670101 -198.051374 
L 219.849899 -198.051374 
L 217.029697 -198.051374 
L 214.209495 -198.051374 
L 211.389293 -198.051374 
L 208.569091 -198.051374 
L 205.748889 -198.051374 
L 202.928687 -198.051374 
L 200.108485 -198.051374 
L 197.288283 -198.051374 
L 194.468081 -198.051374 
L 191.647879 -198.051374 
L 188.827677 -198.051374 
L 186.007475 -198.051374 
L 183.187273 -198.051374 
L 180.367071 -198.051374 
L 177.546869 -198.051374 
L 174.726667 -198.051374 
L 171.906465 -198.051374 
L 169.086263 -198.051374 
L 166.266061 -198.051374 
L 163.445859 -198.051374 
L 160.625657 -198.051374 
L 157.805455 -198.051374 
L 154.985253 -198.051374 
L 152.165051 -198.051374 
L 149.344848 -198.051374 
L 146.524646 -198.051374 
L 143.704444 -198.051374 
L 140.884242 -198.051374 
L 138.06404 -198.051374 
L 135.243838 -198.051374 
L 132.423636 -198.051374 
L 129.603434 -198.051374 
L 126.783232 -198.051374 
L 123.96303 -198.051374 
L 121.142828 -198.051374 
L 118.322626 -198.051374 
L 115.502424 -198.051374 
L 112.682222 -198.051374 
L 109.86202 -198.051374 
L 107.041818 -198.051374 
L 104.221616 -198.051374 
L 101.401414 -198.051374 
L 98.581212 -198.051374 
L 95.76101 -198.051374 
L 92.940808 -198.051374 
L 90.120606 -198.051374 
L 87.300404 -198.051374 
L 84.480202 -198.051374 
L 81.66 -198.051374 
z
" style="stroke: #000000; stroke-opacity: 0.1"/>
    </defs>
    <g clip-path="url(#p087902fa0b)">
     <use xlink:href="#ma31d1858c9" x="0" y="288" style="fill-opacity: 0.1; stroke: #000000; stroke-opacity: 0.1"/>
    </g>
   </g>
   <g id="matplotlib.axis_1">
    <g id="xtick_1">
     <g id="line2d_1">
      <defs>
       <path id="m8be37c78d4" d="M 0 0 
L 0 3.5 
" style="stroke: #000000; stroke-width: 0.8"/>
      </defs>
      <g>
       <use xlink:href="#m8be37c78d4" x="81.66" y="228.04" style="stroke: #000000; stroke-width: 0.8"/>
      </g>
     </g>
     <g id="text_1">
      <!-- 0 -->
      <g transform="translate(76.57 247.1975)scale(0.16 -0.16)">
       <defs>
        <path id="DejaVuSerif-30" d="M 2034 219 
Q 2513 219 2750 744 
Q 2988 1269 2988 2328 
Q 2988 3391 2750 3916 
Q 2513 4441 2034 4441 
Q 1556 4441 1318 3916 
Q 1081 3391 1081 2328 
Q 1081 1269 1318 744 
Q 1556 219 2034 219 
z
M 2034 -91 
Q 1275 -91 848 546 
Q 422 1184 422 2328 
Q 422 3475 848 4112 
Q 1275 4750 2034 4750 
Q 2797 4750 3222 4112 
Q 3647 3475 3647 2328 
Q 3647 1184 3222 546 
Q 2797 -91 2034 -91 
z
" transform="scale(0.015625)"/>
       </defs>
       <use xlink:href="#DejaVuSerif-30"/>
      </g>
     </g>
    </g>
    <g id="xtick_2">
     <g id="line2d_2">
      <g>
       <use xlink:href="#m8be37c78d4" x="137.5" y="228.04" style="stroke: #000000; stroke-width: 0.8"/>
      </g>
     </g>
     <g id="text_2">
      <!-- 1 -->
      <g transform="translate(132.41 247.1975)scale(0.16 -0.16)">
       <defs>
        <path id="DejaVuSerif-31" d="M 909 0 
L 909 331 
L 1722 331 
L 1722 4213 
L 781 3603 
L 781 4013 
L 1919 4750 
L 2350 4750 
L 2350 331 
L 3163 331 
L 3163 0 
L 909 0 
z
" transform="scale(0.015625)"/>
       </defs>
       <use xlink:href="#DejaVuSerif-31"/>
      </g>
     </g>
    </g>
    <g id="xtick_3">
     <g id="line2d_3">
      <g>
       <use xlink:href="#m8be37c78d4" x="193.34" y="228.04" style="stroke: #000000; stroke-width: 0.8"/>
      </g>
     </g>
     <g id="text_3">
      <!-- 2 -->
      <g transform="translate(188.25 247.1975)scale(0.16 -0.16)">
       <defs>
        <path id="DejaVuSerif-32" d="M 819 3553 
L 469 3553 
L 469 4384 
Q 803 4563 1142 4656 
Q 1481 4750 1806 4750 
Q 2534 4750 2956 4397 
Q 3378 4044 3378 3438 
Q 3378 2753 2422 1800 
Q 2347 1728 2309 1691 
L 1131 513 
L 3078 513 
L 3078 1088 
L 3444 1088 
L 3444 0 
L 434 0 
L 434 341 
L 1850 1753 
Q 2319 2222 2519 2614 
Q 2719 3006 2719 3438 
Q 2719 3909 2473 4175 
Q 2228 4441 1797 4441 
Q 1350 4441 1106 4219 
Q 863 3997 819 3553 
z
" transform="scale(0.015625)"/>
       </defs>
       <use xlink:href="#DejaVuSerif-32"/>
      </g>
     </g>
    </g>
    <g id="xtick_4">
     <g id="line2d_4">
      <g>
       <use xlink:href="#m8be37c78d4" x="249.18" y="228.04" style="stroke: #000000; stroke-width: 0.8"/>
      </g>
     </g>
     <g id="text_4">
      <!-- 3 -->
      <g transform="translate(244.09 247.1975)scale(0.16 -0.16)">
       <defs>
        <path id="DejaVuSerif-33" d="M 622 4469 
Q 988 4606 1323 4678 
Q 1659 4750 1953 4750 
Q 2638 4750 3022 4454 
Q 3406 4159 3406 3634 
Q 3406 3213 3140 2930 
Q 2875 2647 2388 2547 
Q 2963 2466 3280 2130 
Q 3597 1794 3597 1259 
Q 3597 606 3158 257 
Q 2719 -91 1894 -91 
Q 1528 -91 1179 -12 
Q 831 66 488 225 
L 488 1131 
L 838 1131 
Q 869 681 1141 450 
Q 1413 219 1906 219 
Q 2384 219 2661 495 
Q 2938 772 2938 1253 
Q 2938 1803 2653 2086 
Q 2369 2369 1819 2369 
L 1522 2369 
L 1522 2688 
L 1678 2688 
Q 2225 2688 2498 2914 
Q 2772 3141 2772 3597 
Q 2772 4006 2547 4223 
Q 2322 4441 1900 4441 
Q 1478 4441 1245 4241 
Q 1013 4041 972 3647 
L 622 3647 
L 622 4469 
z
" transform="scale(0.015625)"/>
       </defs>
       <use xlink:href="#DejaVuSerif-33"/>
      </g>
     </g>
    </g>
    <g id="xtick_5">
     <g id="line2d_5">
      <g>
       <use xlink:href="#m8be37c78d4" x="305.02" y="228.04" style="stroke: #000000; stroke-width: 0.8"/>
      </g>
     </g>
     <g id="text_5">
      <!-- 4 -->
      <g transform="translate(299.93 247.1975)scale(0.16 -0.16)">
       <defs>
        <path id="DejaVuSerif-34" d="M 2234 1581 
L 2234 4063 
L 641 1581 
L 2234 1581 
z
M 3609 0 
L 1484 0 
L 1484 331 
L 2234 331 
L 2234 1247 
L 197 1247 
L 197 1588 
L 2241 4750 
L 2859 4750 
L 2859 1581 
L 3750 1581 
L 3750 1247 
L 2859 1247 
L 2859 331 
L 3609 331 
L 3609 0 
z
" transform="scale(0.015625)"/>
       </defs>
       <use xlink:href="#DejaVuSerif-34"/>
      </g>
     </g>
    </g>
    <g id="xtick_6">
     <g id="line2d_6">
      <g>
       <use xlink:href="#m8be37c78d4" x="360.86" y="228.04" style="stroke: #000000; stroke-width: 0.8"/>
      </g>
     </g>
     <g id="text_6">
      <!-- 5 -->
      <g transform="translate(355.77 247.1975)scale(0.16 -0.16)">
       <defs>
        <path id="DejaVuSerif-35" d="M 3219 4666 
L 3219 4153 
L 1081 4153 
L 1081 2816 
Q 1244 2928 1461 2984 
Q 1678 3041 1947 3041 
Q 2703 3041 3140 2622 
Q 3578 2203 3578 1478 
Q 3578 738 3136 323 
Q 2694 -91 1894 -91 
Q 1572 -91 1234 -12 
Q 897 66 544 225 
L 544 1131 
L 897 1131 
Q 925 688 1179 453 
Q 1434 219 1894 219 
Q 2388 219 2653 544 
Q 2919 869 2919 1478 
Q 2919 2084 2655 2407 
Q 2391 2731 1894 2731 
Q 1613 2731 1398 2631 
Q 1184 2531 1019 2322 
L 750 2322 
L 750 4666 
L 3219 4666 
z
" transform="scale(0.015625)"/>
       </defs>
       <use xlink:href="#DejaVuSerif-35"/>
      </g>
     </g>
    </g>
    <g id="text_7">
     <!-- prior -->
     <g transform="translate(201.11625 266.6825)scale(0.16 -0.16)">
      <defs>
       <path id="DejaVuSerif-70" d="M 1313 1825 
L 1313 1497 
Q 1313 897 1542 583 
Q 1772 269 2209 269 
Q 2650 269 2876 622 
Q 3103 975 3103 1663 
Q 3103 2353 2876 2703 
Q 2650 3053 2209 3053 
Q 1772 3053 1542 2737 
Q 1313 2422 1313 1825 
z
M 738 2988 
L 184 2988 
L 184 3322 
L 1313 3322 
L 1313 2803 
Q 1481 3116 1742 3264 
Q 2003 3413 2388 3413 
Q 3000 3413 3387 2928 
Q 3775 2444 3775 1663 
Q 3775 881 3387 395 
Q 3000 -91 2388 -91 
Q 2003 -91 1742 57 
Q 1481 206 1313 519 
L 1313 -997 
L 1856 -997 
L 1856 -1331 
L 184 -1331 
L 184 -997 
L 738 -997 
L 738 2988 
z
" transform="scale(0.015625)"/>
       <path id="DejaVuSerif-72" d="M 3059 3328 
L 3059 2497 
L 2728 2497 
Q 2713 2744 2591 2866 
Q 2469 2988 2234 2988 
Q 1809 2988 1582 2694 
Q 1356 2400 1356 1850 
L 1356 331 
L 2022 331 
L 2022 0 
L 263 0 
L 263 331 
L 781 331 
L 781 2994 
L 231 2994 
L 231 3322 
L 1356 3322 
L 1356 2731 
Q 1525 3078 1790 3245 
Q 2056 3413 2438 3413 
Q 2578 3413 2733 3391 
Q 2888 3369 3059 3328 
z
" transform="scale(0.015625)"/>
       <path id="DejaVuSerif-69" d="M 622 4353 
Q 622 4497 726 4603 
Q 831 4709 978 4709 
Q 1122 4709 1226 4603 
Q 1331 4497 1331 4353 
Q 1331 4206 1228 4103 
Q 1125 4000 978 4000 
Q 831 4000 726 4103 
Q 622 4206 622 4353 
z
M 1356 331 
L 1900 331 
L 1900 0 
L 231 0 
L 231 331 
L 781 331 
L 781 2988 
L 231 2988 
L 231 3322 
L 1356 3322 
L 1356 331 
z
" transform="scale(0.015625)"/>
       <path id="DejaVuSerif-6f" d="M 1925 219 
Q 2388 219 2623 584 
Q 2859 950 2859 1663 
Q 2859 2375 2623 2739 
Q 2388 3103 1925 3103 
Q 1463 3103 1227 2739 
Q 991 2375 991 1663 
Q 991 950 1228 584 
Q 1466 219 1925 219 
z
M 1925 -91 
Q 1200 -91 759 389 
Q 319 869 319 1663 
Q 319 2456 758 2934 
Q 1197 3413 1925 3413 
Q 2653 3413 3092 2934 
Q 3531 2456 3531 1663 
Q 3531 869 3092 389 
Q 2653 -91 1925 -91 
z
" transform="scale(0.015625)"/>
      </defs>
      <use xlink:href="#DejaVuSerif-70"/>
      <use xlink:href="#DejaVuSerif-72" x="64.013672"/>
      <use xlink:href="#DejaVuSerif-69" x="111.816406"/>
      <use xlink:href="#DejaVuSerif-6f" x="143.798828"/>
      <use xlink:href="#DejaVuSerif-72" x="204.003906"/>
     </g>
    </g>
   </g>
   <g id="matplotlib.axis_2">
    <g id="ytick_1">
     <g id="line2d_7">
      <defs>
       <path id="m40726a0be4" d="M 0 0 
L -3.5 0 
" style="stroke: #000000; stroke-width: 0.8"/>
      </defs>
      <g>
       <use xlink:href="#m40726a0be4" x="67.7" y="228.04" style="stroke: #000000; stroke-width: 0.8"/>
      </g>
     </g>
     <g id="text_8">
      <!-- −3 -->
      <g transform="translate(37.1125 234.11875)scale(0.16 -0.16)">
       <defs>
        <path id="DejaVuSerif-2212" d="M 678 2259 
L 4684 2259 
L 4684 1753 
L 678 1753 
L 678 2259 
z
" transform="scale(0.015625)"/>
       </defs>
       <use xlink:href="#DejaVuSerif-2212"/>
       <use xlink:href="#DejaVuSerif-33" x="83.789062"/>
      </g>
     </g>
    </g>
    <g id="ytick_2">
     <g id="line2d_8">
      <g>
       <use xlink:href="#m40726a0be4" x="67.7" y="193.933333" style="stroke: #000000; stroke-width: 0.8"/>
      </g>
     </g>
     <g id="text_9">
      <!-- −2 -->
      <g transform="translate(37.1125 200.012083)scale(0.16 -0.16)">
       <use xlink:href="#DejaVuSerif-2212"/>
       <use xlink:href="#DejaVuSerif-32" x="83.789062"/>
      </g>
     </g>
    </g>
    <g id="ytick_3">
     <g id="line2d_9">
      <g>
       <use xlink:href="#m40726a0be4" x="67.7" y="159.826667" style="stroke: #000000; stroke-width: 0.8"/>
      </g>
     </g>
     <g id="text_10">
      <!-- −1 -->
      <g transform="translate(37.1125 165.905417)scale(0.16 -0.16)">
       <use xlink:href="#DejaVuSerif-2212"/>
       <use xlink:href="#DejaVuSerif-31" x="83.789062"/>
      </g>
     </g>
    </g>
    <g id="ytick_4">
     <g id="line2d_10">
      <g>
       <use xlink:href="#m40726a0be4" x="67.7" y="125.72" style="stroke: #000000; stroke-width: 0.8"/>
      </g>
     </g>
     <g id="text_11">
      <!-- 0 -->
      <g transform="translate(50.52 131.79875)scale(0.16 -0.16)">
       <use xlink:href="#DejaVuSerif-30"/>
      </g>
     </g>
    </g>
    <g id="ytick_5">
     <g id="line2d_11">
      <g>
       <use xlink:href="#m40726a0be4" x="67.7" y="91.613333" style="stroke: #000000; stroke-width: 0.8"/>
      </g>
     </g>
     <g id="text_12">
      <!-- 1 -->
      <g transform="translate(50.52 97.692083)scale(0.16 -0.16)">
       <use xlink:href="#DejaVuSerif-31"/>
      </g>
     </g>
    </g>
    <g id="ytick_6">
     <g id="line2d_12">
      <g>
       <use xlink:href="#m40726a0be4" x="67.7" y="57.506667" style="stroke: #000000; stroke-width: 0.8"/>
      </g>
     </g>
     <g id="text_13">
      <!-- 2 -->
      <g transform="translate(50.52 63.585417)scale(0.16 -0.16)">
       <use xlink:href="#DejaVuSerif-32"/>
      </g>
     </g>
    </g>
    <g id="ytick_7">
     <g id="line2d_13">
      <g>
       <use xlink:href="#m40726a0be4" x="67.7" y="23.4" style="stroke: #000000; stroke-width: 0.8"/>
      </g>
     </g>
     <g id="text_14">
      <!-- 3 -->
      <g transform="translate(50.52 29.47875)scale(0.16 -0.16)">
       <use xlink:href="#DejaVuSerif-33"/>
      </g>
     </g>
    </g>
    <g id="text_15">
     <!-- y -->
     <g transform="translate(29.5575 130.24)rotate(-90)scale(0.16 -0.16)">
      <defs>
       <path id="DejaVuSerif-79" d="M 1381 -609 
L 1600 -56 
L 359 2988 
L -19 2988 
L -19 3322 
L 1509 3322 
L 1509 2988 
L 978 2988 
L 1913 703 
L 2847 2988 
L 2350 2988 
L 2350 3322 
L 3597 3322 
L 3597 2988 
L 3225 2988 
L 1703 -750 
Q 1547 -1138 1356 -1280 
Q 1166 -1422 819 -1422 
Q 672 -1422 517 -1397 
Q 363 -1372 206 -1325 
L 206 -691 
L 500 -691 
Q 519 -903 608 -995 
Q 697 -1088 884 -1088 
Q 1056 -1088 1161 -992 
Q 1266 -897 1381 -609 
z
" transform="scale(0.015625)"/>
      </defs>
      <use xlink:href="#DejaVuSerif-79"/>
     </g>
    </g>
   </g>
   <g id="line2d_14">
    <path d="M 81.66 161.324358 
L 84.480202 176.856673 
L 87.300404 199.482315 
L 90.120606 172.730089 
L 92.940808 182.041823 
L 95.76101 186.658553 
L 98.581212 175.348562 
L 101.401414 183.526706 
L 104.221616 170.490687 
L 107.041818 195.258299 
L 109.86202 177.938608 
L 112.682222 225.966245 
L 115.502424 199.042903 
L 118.322626 194.709259 
L 121.142828 199.140314 
L 123.96303 184.316165 
L 126.783232 181.118625 
L 129.603434 186.279518 
L 132.423636 171.030814 
L 135.243838 182.177707 
L 138.06404 195.902469 
L 140.884242 191.791826 
L 143.704444 156.628854 
L 146.524646 175.944842 
L 149.344848 177.517291 
L 152.165051 181.787536 
L 154.985253 181.51174 
L 157.805455 178.96747 
L 160.625657 178.126716 
L 163.445859 135.771582 
L 166.266061 150.820847 
L 169.086263 132.924763 
L 171.906465 140.841944 
L 174.726667 160.724764 
L 177.546869 127.112959 
L 180.367071 147.733337 
L 183.187273 143.392979 
L 186.007475 152.635585 
L 188.827677 128.186246 
L 191.647879 120.673196 
L 194.468081 118.483457 
L 197.288283 117.060278 
L 200.108485 142.059368 
L 202.928687 134.863906 
L 205.748889 147.68023 
L 208.569091 160.341201 
L 211.389293 161.481645 
L 214.209495 143.739282 
L 217.029697 137.163738 
L 219.849899 121.160482 
L 222.670101 124.316673 
L 225.490303 134.900362 
L 228.310505 156.158596 
L 231.130707 150.226654 
L 233.950909 151.961964 
L 236.771111 138.142231 
L 239.591313 131.743544 
L 242.411515 144.014416 
L 245.231717 154.8706 
L 248.051919 137.520533 
L 250.872121 145.79522 
L 253.692323 184.863492 
L 256.512525 212.365903 
L 259.332727 190.463725 
L 262.152929 183.083812 
L 264.973131 183.848287 
L 267.793333 181.319746 
L 270.613535 198.052027 
L 273.433737 169.370774 
L 276.253939 196.635666 
L 279.074141 198.086773 
L 281.894343 180.447519 
L 284.714545 186.733458 
L 287.534747 173.093792 
L 290.354949 210.392698 
L 293.175152 226.06544 
L 295.995354 208.722015 
L 298.815556 190.94134 
L 301.635758 171.013037 
L 304.45596 169.874236 
L 307.276162 184.276006 
L 310.096364 201.394557 
L 312.916566 188.904551 
L 315.736768 179.537189 
L 318.55697 163.132709 
L 321.377172 191.183308 
L 324.197374 162.286726 
L 327.017576 156.989493 
L 329.837778 123.663272 
L 332.65798 118.32127 
L 335.478182 97.275707 
L 338.298384 98.706215 
L 341.118586 77.42286 
L 343.938788 84.918463 
L 346.75899 109.332295 
L 349.579192 97.091636 
L 352.399394 113.521854 
L 355.219596 98.005107 
L 358.039798 76.604633 
L 360.86 100.092005 
" clip-path="url(#p087902fa0b)" style="fill: none; stroke: #1f77b4; stroke-opacity: 0.4; stroke-width: 1.5; stroke-linecap: square"/>
   </g>
   <g id="line2d_15">
    <path d="M 81.66 153.045159 
L 84.480202 120.188114 
L 87.300404 132.924409 
L 90.120606 136.037936 
L 92.940808 128.6759 
L 95.76101 140.135246 
L 98.581212 134.628471 
L 101.401414 135.288077 
L 104.221616 106.117067 
L 107.041818 114.430722 
L 109.86202 85.392947 
L 112.682222 87.933294 
L 115.502424 106.918187 
L 118.322626 99.550337 
L 121.142828 90.201967 
L 123.96303 96.387833 
L 126.783232 86.400653 
L 129.603434 119.93271 
L 132.423636 96.843856 
L 135.243838 147.616393 
L 138.06404 129.488714 
L 140.884242 161.556221 
L 143.704444 167.388447 
L 146.524646 178.262026 
L 149.344848 169.173746 
L 152.165051 156.102978 
L 154.985253 140.342579 
L 157.805455 143.470569 
L 160.625657 124.947224 
L 163.445859 117.726957 
L 166.266061 98.300685 
L 169.086263 131.899821 
L 171.906465 102.161424 
L 174.726667 108.548883 
L 177.546869 98.179648 
L 180.367071 123.079941 
L 183.187273 147.919173 
L 186.007475 120.201284 
L 188.827677 142.803865 
L 191.647879 152.076871 
L 194.468081 152.347946 
L 197.288283 167.012304 
L 200.108485 153.87637 
L 202.928687 157.432469 
L 205.748889 174.00844 
L 208.569091 208.31599 
L 211.389293 174.942618 
L 214.209495 192.575997 
L 217.029697 195.751341 
L 219.849899 193.287757 
L 222.670101 204.269374 
L 225.490303 214.072429 
L 228.310505 211.64355 
L 231.130707 217.99021 
L 233.950909 223.556965 
L 236.771111 217.979054 
L 239.591313 216.228015 
L 242.411515 230.419036 
L 245.231717 253.178773 
L 248.051919 242.543104 
L 250.872121 212.698932 
L 253.692323 217.223395 
L 256.512525 251.645453 
L 259.332727 213.682486 
L 262.152929 194.725489 
L 264.973131 208.158566 
L 267.793333 223.921503 
L 270.613535 203.302941 
L 273.433737 188.764231 
L 276.253939 197.977329 
L 279.074141 156.684354 
L 281.894343 185.046081 
L 284.714545 184.897261 
L 287.534747 160.20622 
L 290.354949 183.147759 
L 293.175152 161.598275 
L 295.995354 154.917118 
L 298.815556 155.058442 
L 301.635758 149.744361 
L 304.45596 137.596647 
L 307.276162 158.040919 
L 310.096364 170.669892 
L 312.916566 165.274372 
L 315.736768 155.192333 
L 318.55697 129.596508 
L 321.377172 139.045782 
L 324.197374 148.849746 
L 327.017576 160.722893 
L 329.837778 151.892176 
L 332.65798 143.516523 
L 335.478182 167.203038 
L 338.298384 157.298025 
L 341.118586 148.938689 
L 343.938788 136.953937 
L 346.75899 156.548043 
L 349.579192 143.478112 
L 352.399394 182.610234 
L 355.219596 178.880831 
L 358.039798 206.447159 
L 360.86 189.51983 
" clip-path="url(#p087902fa0b)" style="fill: none; stroke-dasharray: 7.4,3.2; stroke-dashoffset: 0; stroke: #ff7f0e; stroke-opacity: 0.4; stroke-width: 2"/>
   </g>
   <g id="line2d_16">
    <path d="M 81.66 165.522727 
L 84.480202 165.529639 
L 87.300404 161.652951 
L 90.120606 161.666418 
L 92.940808 141.64128 
L 95.76101 140.958363 
L 98.581212 150.152407 
L 101.401414 157.559796 
L 104.221616 136.257878 
L 107.041818 126.073564 
L 109.86202 115.32141 
L 112.682222 131.142829 
L 115.502424 130.726845 
L 118.322626 144.482731 
L 121.142828 115.10716 
L 123.96303 113.775202 
L 126.783232 114.288118 
L 129.603434 114.676423 
L 132.423636 126.198275 
L 135.243838 102.888371 
L 138.06404 126.980359 
L 140.884242 113.362045 
L 143.704444 106.930095 
L 146.524646 128.719117 
L 149.344848 140.899479 
L 152.165051 113.310171 
L 154.985253 78.296538 
L 157.805455 106.634219 
L 160.625657 111.044146 
L 163.445859 103.080252 
L 166.266061 103.571347 
L 169.086263 125.538317 
L 171.906465 111.549191 
L 174.726667 124.189477 
L 177.546869 134.455252 
L 180.367071 118.077057 
L 183.187273 107.642319 
L 186.007475 88.870904 
L 188.827677 106.754728 
L 191.647879 72.438422 
L 194.468081 111.012226 
L 197.288283 120.904138 
L 200.108485 96.369112 
L 202.928687 93.978102 
L 205.748889 102.050666 
L 208.569091 89.226385 
L 211.389293 107.610713 
L 214.209495 99.224747 
L 217.029697 76.968089 
L 219.849899 102.571184 
L 222.670101 71.859951 
L 225.490303 99.745887 
L 228.310505 105.494565 
L 231.130707 93.426153 
L 233.950909 82.053269 
L 236.771111 93.362545 
L 239.591313 103.2357 
L 242.411515 105.674009 
L 245.231717 92.970146 
L 248.051919 91.727648 
L 250.872121 92.238694 
L 253.692323 105.584486 
L 256.512525 96.29406 
L 259.332727 113.622723 
L 262.152929 128.507124 
L 264.973131 133.787836 
L 267.793333 146.32892 
L 270.613535 108.102905 
L 273.433737 140.515453 
L 276.253939 118.857617 
L 279.074141 94.68283 
L 281.894343 112.539582 
L 284.714545 124.241074 
L 287.534747 135.899564 
L 290.354949 165.425335 
L 293.175152 155.65514 
L 295.995354 140.364733 
L 298.815556 181.829143 
L 301.635758 166.2211 
L 304.45596 170.809237 
L 307.276162 165.32389 
L 310.096364 156.947791 
L 312.916566 158.615015 
L 315.736768 148.026613 
L 318.55697 131.094217 
L 321.377172 153.939353 
L 324.197374 128.638325 
L 327.017576 151.029326 
L 329.837778 118.634858 
L 332.65798 123.540722 
L 335.478182 119.126301 
L 338.298384 127.360749 
L 341.118586 130.618306 
L 343.938788 94.593508 
L 346.75899 131.185827 
L 349.579192 99.060148 
L 352.399394 105.062263 
L 355.219596 114.262054 
L 358.039798 98.299656 
L 360.86 141.990103 
" clip-path="url(#p087902fa0b)" style="fill: none; stroke-dasharray: 2.25,3.7125; stroke-dashoffset: 0; stroke: #2ca02c; stroke-opacity: 0.4; stroke-width: 2.25"/>
   </g>
   <g id="line2d_17">
    <path d="M 81.66 125.72 
L 84.480202 125.72 
L 87.300404 125.72 
L 90.120606 125.72 
L 92.940808 125.72 
L 95.76101 125.72 
L 98.581212 125.72 
L 101.401414 125.72 
L 104.221616 125.72 
L 107.041818 125.72 
L 109.86202 125.72 
L 112.682222 125.72 
L 115.502424 125.72 
L 118.322626 125.72 
L 121.142828 125.72 
L 123.96303 125.72 
L 126.783232 125.72 
L 129.603434 125.72 
L 132.423636 125.72 
L 135.243838 125.72 
L 138.06404 125.72 
L 140.884242 125.72 
L 143.704444 125.72 
L 146.524646 125.72 
L 149.344848 125.72 
L 152.165051 125.72 
L 154.985253 125.72 
L 157.805455 125.72 
L 160.625657 125.72 
L 163.445859 125.72 
L 166.266061 125.72 
L 169.086263 125.72 
L 171.906465 125.72 
L 174.726667 125.72 
L 177.546869 125.72 
L 180.367071 125.72 
L 183.187273 125.72 
L 186.007475 125.72 
L 188.827677 125.72 
L 191.647879 125.72 
L 194.468081 125.72 
L 197.288283 125.72 
L 200.108485 125.72 
L 202.928687 125.72 
L 205.748889 125.72 
L 208.569091 125.72 
L 211.389293 125.72 
L 214.209495 125.72 
L 217.029697 125.72 
L 219.849899 125.72 
L 222.670101 125.72 
L 225.490303 125.72 
L 228.310505 125.72 
L 231.130707 125.72 
L 233.950909 125.72 
L 236.771111 125.72 
L 239.591313 125.72 
L 242.411515 125.72 
L 245.231717 125.72 
L 248.051919 125.72 
L 250.872121 125.72 
L 253.692323 125.72 
L 256.512525 125.72 
L 259.332727 125.72 
L 262.152929 125.72 
L 264.973131 125.72 
L 267.793333 125.72 
L 270.613535 125.72 
L 273.433737 125.72 
L 276.253939 125.72 
L 279.074141 125.72 
L 281.894343 125.72 
L 284.714545 125.72 
L 287.534747 125.72 
L 290.354949 125.72 
L 293.175152 125.72 
L 295.995354 125.72 
L 298.815556 125.72 
L 301.635758 125.72 
L 304.45596 125.72 
L 307.276162 125.72 
L 310.096364 125.72 
L 312.916566 125.72 
L 315.736768 125.72 
L 318.55697 125.72 
L 321.377172 125.72 
L 324.197374 125.72 
L 327.017576 125.72 
L 329.837778 125.72 
L 332.65798 125.72 
L 335.478182 125.72 
L 338.298384 125.72 
L 341.118586 125.72 
L 343.938788 125.72 
L 346.75899 125.72 
L 349.579192 125.72 
L 352.399394 125.72 
L 355.219596 125.72 
L 358.039798 125.72 
L 360.86 125.72 
" clip-path="url(#p087902fa0b)" style="fill: none; stroke: #000000; stroke-width: 1.5; stroke-linecap: square"/>
   </g>
   <g id="patch_3">
    <path d="M 67.7 228.04 
L 67.7 23.4 
" style="fill: none; stroke: #000000; stroke-width: 0.8; stroke-linejoin: miter; stroke-linecap: square"/>
   </g>
   <g id="patch_4">
    <path d="M 374.82 228.04 
L 374.82 23.4 
" style="fill: none; stroke: #000000; stroke-width: 0.8; stroke-linejoin: miter; stroke-linecap: square"/>
   </g>
   <g id="patch_5">
    <path d="M 67.7 228.04 
L 374.82 228.04 
" style="fill: none; stroke: #000000; stroke-width: 0.8; stroke-linejoin: miter; stroke-linecap: square"/>
   </g>
   <g id="patch_6">
    <path d="M 67.7 23.4 
L 374.82 23.4 
" style="fill: none; stroke: #000000; stroke-width: 0.8; stroke-linejoin: miter; stroke-linecap: square"/>
   </g>
  </g>
  <g id="axes_2">
   <g id="patch_7">
    <path d="M 395.6 228.04 
L 702.72 228.04 
L 702.72 23.4 
L 395.6 23.4 
z
" style="fill: #ffffff"/>
   </g>
   <g id="PolyCollection_2">
    <defs>
     <path id="m467694b663" d="M 409.56 -165.713987 
L 409.56 -131.476521 
L 412.380202 -132.608374 
L 415.200404 -124.940322 
L 418.020606 -119.029672 
L 420.840808 -119.009463 
L 423.66101 -121.597376 
L 426.481212 -124.78504 
L 429.301414 -128.415484 
L 432.121616 -132.411388 
L 434.941818 -136.735274 
L 437.76202 -141.37405 
L 440.582222 -146.33272 
L 443.402424 -151.632799 
L 446.222626 -157.314455 
L 449.042828 -163.443673 
L 451.86303 -170.129623 
L 454.683232 -177.570218 
L 457.503434 -183.867779 
L 460.323636 -188.913528 
L 463.143838 -195.543469 
L 465.96404 -200.087044 
L 468.784242 -196.025733 
L 471.604444 -192.855783 
L 474.424646 -190.345133 
L 477.244848 -188.374969 
L 480.065051 -186.877671 
L 482.885253 -185.814249 
L 485.705455 -185.164784 
L 488.525657 -184.924489 
L 491.345859 -185.103039 
L 494.166061 -185.726815 
L 496.986263 -186.845308 
L 499.806465 -188.545995 
L 502.626667 -190.991712 
L 505.446869 -190.915497 
L 508.267071 -185.262447 
L 511.087273 -180.556484 
L 513.907475 -176.600423 
L 516.727677 -173.30784 
L 519.547879 -170.655987 
L 522.368081 -168.678474 
L 525.188283 -167.48698 
L 528.008485 -167.2018 
L 530.828687 -163.447111 
L 533.648889 -161.029527 
L 536.469091 -159.76585 
L 539.289293 -159.737937 
L 542.109495 -158.361132 
L 544.929697 -156.639535 
L 547.749899 -155.675092 
L 550.570101 -155.305496 
L 553.390303 -155.454357 
L 556.210505 -156.092646 
L 559.030707 -157.226979 
L 561.850909 -158.901485 
L 564.671111 -161.215162 
L 567.491313 -164.376234 
L 570.311515 -164.736224 
L 573.131717 -164.614585 
L 575.951919 -165.124402 
L 578.772121 -166.117601 
L 581.592323 -167.513885 
L 584.412525 -169.266932 
L 587.232727 -171.350371 
L 590.052929 -173.751172 
L 592.873131 -176.466388 
L 595.693333 -179.501732 
L 598.513535 -182.87141 
L 601.333737 -186.599142 
L 604.153939 -190.720765 
L 606.974141 -195.289536 
L 609.794343 -200.387075 
L 612.614545 -206.148399 
L 615.434747 -212.831713 
L 618.254949 -204.133301 
L 621.075152 -195.752262 
L 623.895354 -188.061169 
L 626.715556 -180.913993 
L 629.535758 -174.222394 
L 632.35596 -167.928961 
L 635.176162 -161.995935 
L 637.996364 -156.400238 
L 640.816566 -151.131805 
L 643.636768 -146.194406 
L 646.45697 -141.609354 
L 649.277172 -137.424263 
L 652.097374 -133.733302 
L 654.917576 -130.731289 
L 657.737778 -128.363522 
L 660.55798 -126.635612 
L 663.378182 -125.366795 
L 666.198384 -124.409566 
L 669.018586 -123.678423 
L 671.838788 -123.11831 
L 674.65899 -122.691236 
L 677.479192 -122.369677 
L 680.299394 -122.132966 
L 683.119596 -121.965158 
L 685.939798 -121.853686 
L 688.76 -121.788482 
L 688.76 -183.632684 
L 688.76 -183.632684 
L 685.939798 -182.576046 
L 683.119596 -181.421783 
L 680.299394 -180.157163 
L 677.479192 -178.766825 
L 674.65899 -177.231878 
L 671.838788 -175.528559 
L 669.018586 -173.626089 
L 666.198384 -171.483053 
L 663.378182 -169.040791 
L 660.55798 -166.210014 
L 657.737778 -162.83923 
L 654.917576 -161.971143 
L 652.097374 -170.23976 
L 649.277172 -177.766906 
L 646.45697 -184.776019 
L 643.636768 -191.389829 
L 640.816566 -197.68452 
L 637.996364 -203.710063 
L 635.176162 -209.49904 
L 632.35596 -215.070435 
L 629.535758 -220.430519 
L 626.715556 -225.571265 
L 623.895354 -230.46545 
L 621.075152 -235.055456 
L 618.254949 -239.226584 
L 615.434747 -242.601346 
L 612.614545 -241.743543 
L 609.794343 -240.278407 
L 606.974141 -238.445707 
L 604.153939 -236.362777 
L 601.333737 -234.094267 
L 598.513535 -231.677132 
L 595.693333 -229.131532 
L 592.873131 -226.466094 
L 590.052929 -223.68048 
L 587.232727 -220.766367 
L 584.412525 -217.707251 
L 581.592323 -214.47698 
L 578.772121 -211.036471 
L 575.951919 -207.327058 
L 573.131717 -203.256451 
L 570.311515 -198.664885 
L 567.491313 -195.39615 
L 564.671111 -197.091466 
L 561.850909 -198.025486 
L 559.030707 -198.402912 
L 556.210505 -198.319435 
L 553.390303 -197.816075 
L 550.570101 -196.896535 
L 547.749899 -195.529062 
L 544.929697 -193.63472 
L 542.109495 -191.048828 
L 539.289293 -190.213865 
L 536.469091 -193.388761 
L 533.648889 -195.400847 
L 530.828687 -196.340337 
L 528.008485 -196.032596 
L 525.188283 -201.422412 
L 522.368081 -206.085202 
L 519.547879 -210.090057 
L 516.727677 -213.56392 
L 513.907475 -216.556029 
L 511.087273 -219.059671 
L 508.267071 -221.0049 
L 505.446869 -222.211504 
L 502.626667 -224.270382 
L 499.806465 -226.481407 
L 496.986263 -228.178211 
L 494.166061 -229.523621 
L 491.345859 -230.605692 
L 488.525657 -231.475085 
L 485.705455 -232.159944 
L 482.885253 -232.672304 
L 480.065051 -233.010342 
L 477.244848 -233.157714 
L 474.424646 -233.079626 
L 471.604444 -232.713288 
L 468.784242 -231.945353 
L 465.96404 -230.549891 
L 463.143838 -226.868846 
L 460.323636 -221.281289 
L 457.503434 -214.328021 
L 454.683232 -209.74561 
L 451.86303 -207.199105 
L 449.042828 -204.032584 
L 446.222626 -200.418823 
L 443.402424 -196.442136 
L 440.582222 -192.143865 
L 437.76202 -187.53969 
L 434.941818 -182.626729 
L 432.121616 -177.385617 
L 429.301414 -171.778858 
L 426.481212 -165.744474 
L 423.66101 -159.180489 
L 420.840808 -151.90505 
L 418.020606 -148.508224 
L 415.200404 -156.001692 
L 412.380202 -161.626476 
L 409.56 -165.713987 
z
" style="stroke: #000000; stroke-opacity: 0.1"/>
    </defs>
    <g clip-path="url(#p3bffed1bfe)">
     <use xlink:href="#m467694b663" x="0" y="288" style="fill-opacity: 0.1; stroke: #000000; stroke-opacity: 0.1"/>
    </g>
   </g>
   <g id="matplotlib.axis_3">
    <g id="xtick_7">
     <g id="line2d_18">
      <g>
       <use xlink:href="#m8be37c78d4" x="409.56" y="228.04" style="stroke: #000000; stroke-width: 0.8"/>
      </g>
     </g>
     <g id="text_16">
      <!-- 0 -->
      <g transform="translate(404.47 247.1975)scale(0.16 -0.16)">
       <use xlink:href="#DejaVuSerif-30"/>
      </g>
     </g>
    </g>
    <g id="xtick_8">
     <g id="line2d_19">
      <g>
       <use xlink:href="#m8be37c78d4" x="465.4" y="228.04" style="stroke: #000000; stroke-width: 0.8"/>
      </g>
     </g>
     <g id="text_17">
      <!-- 1 -->
      <g transform="translate(460.31 247.1975)scale(0.16 -0.16)">
       <use xlink:href="#DejaVuSerif-31"/>
      </g>
     </g>
    </g>
    <g id="xtick_9">
     <g id="line2d_20">
      <g>
       <use xlink:href="#m8be37c78d4" x="521.24" y="228.04" style="stroke: #000000; stroke-width: 0.8"/>
      </g>
     </g>
     <g id="text_18">
      <!-- 2 -->
      <g transform="translate(516.15 247.1975)scale(0.16 -0.16)">
       <use xlink:href="#DejaVuSerif-32"/>
      </g>
     </g>
    </g>
    <g id="xtick_10">
     <g id="line2d_21">
      <g>
       <use xlink:href="#m8be37c78d4" x="577.08" y="228.04" style="stroke: #000000; stroke-width: 0.8"/>
      </g>
     </g>
     <g id="text_19">
      <!-- 3 -->
      <g transform="translate(571.99 247.1975)scale(0.16 -0.16)">
       <use xlink:href="#DejaVuSerif-33"/>
      </g>
     </g>
    </g>
    <g id="xtick_11">
     <g id="line2d_22">
      <g>
       <use xlink:href="#m8be37c78d4" x="632.92" y="228.04" style="stroke: #000000; stroke-width: 0.8"/>
      </g>
     </g>
     <g id="text_20">
      <!-- 4 -->
      <g transform="translate(627.83 247.1975)scale(0.16 -0.16)">
       <use xlink:href="#DejaVuSerif-34"/>
      </g>
     </g>
    </g>
    <g id="xtick_12">
     <g id="line2d_23">
      <g>
       <use xlink:href="#m8be37c78d4" x="688.76" y="228.04" style="stroke: #000000; stroke-width: 0.8"/>
      </g>
     </g>
     <g id="text_21">
      <!-- 5 -->
      <g transform="translate(683.67 247.1975)scale(0.16 -0.16)">
       <use xlink:href="#DejaVuSerif-35"/>
      </g>
     </g>
    </g>
    <g id="text_22">
     <!-- posterior -->
     <g transform="translate(512.145 266.6825)scale(0.16 -0.16)">
      <defs>
       <path id="DejaVuSerif-73" d="M 359 184 
L 359 959 
L 691 959 
Q 703 588 923 403 
Q 1144 219 1575 219 
Q 1963 219 2166 364 
Q 2369 509 2369 788 
Q 2369 1006 2220 1140 
Q 2072 1275 1594 1428 
L 1178 1569 
Q 750 1706 558 1912 
Q 366 2119 366 2438 
Q 366 2894 700 3153 
Q 1034 3413 1625 3413 
Q 1888 3413 2178 3344 
Q 2469 3275 2778 3144 
L 2778 2419 
L 2447 2419 
Q 2434 2741 2221 2922 
Q 2009 3103 1644 3103 
Q 1281 3103 1095 2975 
Q 909 2847 909 2591 
Q 909 2381 1050 2254 
Q 1191 2128 1613 1997 
L 2069 1856 
Q 2541 1709 2748 1489 
Q 2956 1269 2956 922 
Q 2956 450 2595 179 
Q 2234 -91 1600 -91 
Q 1278 -91 972 -22 
Q 666 47 359 184 
z
" transform="scale(0.015625)"/>
       <path id="DejaVuSerif-74" d="M 691 2988 
L 184 2988 
L 184 3322 
L 691 3322 
L 691 4353 
L 1269 4353 
L 1269 3322 
L 2350 3322 
L 2350 2988 
L 1269 2988 
L 1269 878 
Q 1269 456 1350 337 
Q 1431 219 1650 219 
Q 1875 219 1978 351 
Q 2081 484 2088 781 
L 2522 781 
Q 2497 328 2275 118 
Q 2053 -91 1600 -91 
Q 1103 -91 897 129 
Q 691 350 691 878 
L 691 2988 
z
" transform="scale(0.015625)"/>
       <path id="DejaVuSerif-65" d="M 3469 1600 
L 991 1600 
L 991 1575 
Q 991 903 1244 561 
Q 1497 219 1991 219 
Q 2369 219 2611 417 
Q 2853 616 2950 1006 
L 3413 1006 
Q 3275 459 2904 184 
Q 2534 -91 1931 -91 
Q 1203 -91 761 389 
Q 319 869 319 1663 
Q 319 2450 753 2931 
Q 1188 3413 1894 3413 
Q 2647 3413 3050 2948 
Q 3453 2484 3469 1600 
z
M 2791 1931 
Q 2772 2513 2545 2808 
Q 2319 3103 1894 3103 
Q 1497 3103 1269 2806 
Q 1041 2509 991 1931 
L 2791 1931 
z
" transform="scale(0.015625)"/>
      </defs>
      <use xlink:href="#DejaVuSerif-70"/>
      <use xlink:href="#DejaVuSerif-6f" x="64.013672"/>
      <use xlink:href="#DejaVuSerif-73" x="124.21875"/>
      <use xlink:href="#DejaVuSerif-74" x="175.537109"/>
      <use xlink:href="#DejaVuSerif-65" x="215.722656"/>
      <use xlink:href="#DejaVuSerif-72" x="274.902344"/>
      <use xlink:href="#DejaVuSerif-69" x="322.705078"/>
      <use xlink:href="#DejaVuSerif-6f" x="354.6875"/>
      <use xlink:href="#DejaVuSerif-72" x="414.892578"/>
     </g>
    </g>
   </g>
   <g id="matplotlib.axis_4">
    <g id="ytick_8">
     <g id="line2d_24">
      <g>
       <use xlink:href="#m40726a0be4" x="395.6" y="228.04" style="stroke: #000000; stroke-width: 0.8"/>
      </g>
     </g>
    </g>
    <g id="ytick_9">
     <g id="line2d_25">
      <g>
       <use xlink:href="#m40726a0be4" x="395.6" y="193.933333" style="stroke: #000000; stroke-width: 0.8"/>
      </g>
     </g>
    </g>
    <g id="ytick_10">
     <g id="line2d_26">
      <g>
       <use xlink:href="#m40726a0be4" x="395.6" y="159.826667" style="stroke: #000000; stroke-width: 0.8"/>
      </g>
     </g>
    </g>
    <g id="ytick_11">
     <g id="line2d_27">
      <g>
       <use xlink:href="#m40726a0be4" x="395.6" y="125.72" style="stroke: #000000; stroke-width: 0.8"/>
      </g>
     </g>
    </g>
    <g id="ytick_12">
     <g id="line2d_28">
      <g>
       <use xlink:href="#m40726a0be4" x="395.6" y="91.613333" style="stroke: #000000; stroke-width: 0.8"/>
      </g>
     </g>
    </g>
    <g id="ytick_13">
     <g id="line2d_29">
      <g>
       <use xlink:href="#m40726a0be4" x="395.6" y="57.506667" style="stroke: #000000; stroke-width: 0.8"/>
      </g>
     </g>
    </g>
    <g id="ytick_14">
     <g id="line2d_30">
      <g>
       <use xlink:href="#m40726a0be4" x="395.6" y="23.4" style="stroke: #000000; stroke-width: 0.8"/>
      </g>
     </g>
    </g>
   </g>
   <g id="line2d_31">
    <path d="M 409.56 103.851939 
L 412.380202 148.231585 
L 415.200404 148.227768 
L 418.020606 168.203518 
L 420.840808 167.256197 
L 423.66101 179.412224 
L 426.481212 201.489785 
L 429.301414 184.379554 
L 432.121616 169.206914 
L 434.941818 159.551858 
L 437.76202 149.785623 
L 440.582222 165.421791 
L 443.402424 136.985581 
L 446.222626 142.382104 
L 449.042828 112.996197 
L 451.86303 118.465932 
L 454.683232 63.633431 
L 457.503434 85.235084 
L 460.323636 51.503614 
L 463.143838 77.011246 
L 465.96404 88.934971 
L 468.784242 100.970995 
L 471.604444 87.248205 
L 474.424646 77.692804 
L 477.244848 96.697524 
L 480.065051 84.974207 
L 482.885253 96.159337 
L 485.705455 111.96772 
L 488.525657 86.603311 
L 491.345859 79.126981 
L 494.166061 83.022299 
L 496.986263 74.088911 
L 499.806465 69.666544 
L 502.626667 79.620444 
L 505.446869 73.367695 
L 508.267071 90.714773 
L 511.087273 102.928871 
L 513.907475 82.56316 
L 516.727677 76.747162 
L 519.547879 84.634986 
L 522.368081 89.174468 
L 525.188283 77.495164 
L 528.008485 87.714142 
L 530.828687 110.767783 
L 533.648889 114.154717 
L 536.469091 126.081318 
L 539.289293 129.844017 
L 542.109495 143.487538 
L 544.929697 148.084397 
L 547.749899 140.255227 
L 550.570101 125.491733 
L 553.390303 117.304269 
L 556.210505 114.875052 
L 559.030707 112.732554 
L 561.850909 123.636506 
L 564.671111 136.085071 
L 567.491313 124.670921 
L 570.311515 110.31413 
L 573.131717 133.721394 
L 575.951919 106.295126 
L 578.772121 109.247401 
L 581.592323 92.994484 
L 584.412525 97.626555 
L 587.232727 95.181164 
L 590.052929 103.452418 
L 592.873131 94.553449 
L 595.693333 69.937368 
L 598.513535 95.440993 
L 601.333737 79.136317 
L 604.153939 87.914611 
L 606.974141 69.154722 
L 609.794343 37.7692 
L 612.614545 48.439261 
L 615.434747 31.855574 
L 618.254949 34.742073 
L 621.075152 71.787222 
L 623.895354 67.197087 
L 626.715556 72.603433 
L 629.535758 38.26732 
L 632.35596 50.289124 
L 635.176162 85.107187 
L 637.996364 95.487714 
L 640.816566 86.167489 
L 643.636768 73.876085 
L 646.45697 100.420071 
L 649.277172 115.191158 
L 652.097374 121.549151 
L 654.917576 132.941933 
L 657.737778 135.554522 
L 660.55798 158.663558 
L 663.378182 162.931062 
L 666.198384 169.797022 
L 669.018586 167.175796 
L 671.838788 176.002421 
L 674.65899 213.101331 
L 677.479192 188.653102 
L 680.299394 210.994808 
L 683.119596 186.120797 
L 685.939798 165.68543 
L 688.76 195.527012 
" clip-path="url(#p3bffed1bfe)" style="fill: none; stroke: #1f77b4; stroke-opacity: 0.4; stroke-width: 1.5; stroke-linecap: square"/>
   </g>
   <g id="line2d_32">
    <path d="M 409.56 147.772564 
L 412.380202 133.308208 
L 415.200404 140.713127 
L 418.020606 146.27802 
L 420.840808 132.713144 
L 423.66101 143.009292 
L 426.481212 150.848933 
L 429.301414 153.258133 
L 432.121616 98.910598 
L 434.941818 132.543952 
L 437.76202 95.261545 
L 440.582222 56.830374 
L 443.402424 77.507945 
L 446.222626 70.763543 
L 449.042828 88.961892 
L 451.86303 72.768693 
L 454.683232 81.559038 
L 457.503434 80.529458 
L 460.323636 60.302936 
L 463.143838 74.552481 
L 465.96404 73.497797 
L 468.784242 75.071192 
L 471.604444 50.133314 
L 474.424646 53.334179 
L 477.244848 65.328744 
L 480.065051 57.2562 
L 482.885253 49.951 
L 485.705455 57.031202 
L 488.525657 45.645437 
L 491.345859 77.299676 
L 494.166061 86.433152 
L 496.986263 78.300116 
L 499.806465 67.104441 
L 502.626667 86.078489 
L 505.446869 81.25735 
L 508.267071 107.186431 
L 511.087273 91.60943 
L 513.907475 83.03927 
L 516.727677 83.522305 
L 519.547879 114.002252 
L 522.368081 79.444556 
L 525.188283 97.39639 
L 528.008485 90.443944 
L 530.828687 83.493065 
L 533.648889 83.513974 
L 536.469091 103.307816 
L 539.289293 84.70486 
L 542.109495 91.559826 
L 544.929697 94.40868 
L 547.749899 91.944225 
L 550.570101 71.82476 
L 553.390303 106.431987 
L 556.210505 110.796679 
L 559.030707 101.469262 
L 561.850909 87.435318 
L 564.671111 98.574803 
L 567.491313 104.555689 
L 570.311515 83.403157 
L 573.131717 95.582981 
L 575.951919 93.244175 
L 578.772121 110.853323 
L 581.592323 132.184241 
L 584.412525 121.49803 
L 587.232727 125.696928 
L 590.052929 110.723744 
L 592.873131 127.344388 
L 595.693333 122.201144 
L 598.513535 120.629369 
L 601.333737 126.451634 
L 604.153939 139.109973 
L 606.974141 112.571312 
L 609.794343 84.11345 
L 612.614545 97.135506 
L 615.434747 38.318976 
L 618.254949 73.020867 
L 621.075152 81.26186 
L 623.895354 86.874508 
L 626.715556 91.281185 
L 629.535758 83.139785 
L 632.35596 106.157998 
L 635.176162 126.490755 
L 637.996364 106.195963 
L 640.816566 90.403066 
L 643.636768 93.478472 
L 646.45697 111.032545 
L 649.277172 114.795179 
L 652.097374 121.649496 
L 654.917576 129.620672 
L 657.737778 168.926189 
L 660.55798 192.359988 
L 663.378182 176.719944 
L 666.198384 185.660124 
L 669.018586 213.928863 
L 671.838788 197.293832 
L 674.65899 203.376685 
L 677.479192 175.255033 
L 680.299394 184.038914 
L 683.119596 152.283874 
L 685.939798 175.261215 
L 688.76 139.048081 
" clip-path="url(#p3bffed1bfe)" style="fill: none; stroke-dasharray: 7.4,3.2; stroke-dashoffset: 0; stroke: #ff7f0e; stroke-opacity: 0.4; stroke-width: 2"/>
   </g>
   <g id="line2d_33">
    <path d="M 409.56 139.793201 
L 412.380202 147.952881 
L 415.200404 153.484563 
L 418.020606 170.921817 
L 420.840808 155.157519 
L 423.66101 144.079692 
L 426.481212 160.711237 
L 429.301414 162.816348 
L 432.121616 162.19481 
L 434.941818 135.576821 
L 437.76202 119.152575 
L 440.582222 151.794821 
L 443.402424 99.676083 
L 446.222626 127.029301 
L 449.042828 139.397734 
L 451.86303 86.325393 
L 454.683232 111.14629 
L 457.503434 102.972222 
L 460.323636 97.245348 
L 463.143838 84.728102 
L 465.96404 73.828687 
L 468.784242 68.613399 
L 471.604444 75.949682 
L 474.424646 92.485602 
L 477.244848 102.679818 
L 480.065051 107.353934 
L 482.885253 83.946033 
L 485.705455 102.064186 
L 488.525657 90.761804 
L 491.345859 100.504224 
L 494.166061 85.841621 
L 496.986263 88.779506 
L 499.806465 73.976053 
L 502.626667 89.732977 
L 505.446869 101.286533 
L 508.267071 98.942285 
L 511.087273 113.845862 
L 513.907475 87.704744 
L 516.727677 84.297031 
L 519.547879 111.156476 
L 522.368081 79.431556 
L 525.188283 122.946828 
L 528.008485 112.931846 
L 530.828687 106.498222 
L 533.648889 130.113328 
L 536.469091 123.656794 
L 539.289293 139.08857 
L 542.109495 140.765995 
L 544.929697 137.314189 
L 547.749899 129.73354 
L 550.570101 148.795258 
L 553.390303 146.702275 
L 556.210505 159.938933 
L 559.030707 112.901286 
L 561.850909 110.24147 
L 564.671111 109.837932 
L 567.491313 121.026057 
L 570.311515 100.500454 
L 573.131717 119.11014 
L 575.951919 111.812398 
L 578.772121 117.59159 
L 581.592323 108.249036 
L 584.412525 83.191517 
L 587.232727 96.581922 
L 590.052929 78.729357 
L 592.873131 89.291794 
L 595.693333 76.789265 
L 598.513535 94.352313 
L 601.333737 77.959987 
L 604.153939 103.972687 
L 606.974141 62.830705 
L 609.794343 55.76075 
L 612.614545 65.959399 
L 615.434747 81.221472 
L 618.254949 82.082139 
L 621.075152 56.697574 
L 623.895354 72.211746 
L 626.715556 80.651702 
L 629.535758 94.525538 
L 632.35596 93.770712 
L 635.176162 106.217411 
L 637.996364 87.473232 
L 640.816566 96.110313 
L 643.636768 93.776206 
L 646.45697 82.645485 
L 649.277172 122.513598 
L 652.097374 131.339005 
L 654.917576 134.553956 
L 657.737778 135.881176 
L 660.55798 163.532337 
L 663.378182 161.679386 
L 666.198384 124.833404 
L 669.018586 144.480796 
L 671.838788 128.817378 
L 674.65899 133.059521 
L 677.479192 118.710205 
L 680.299394 106.654297 
L 683.119596 123.404707 
L 685.939798 125.288081 
L 688.76 151.75805 
" clip-path="url(#p3bffed1bfe)" style="fill: none; stroke-dasharray: 2.25,3.7125; stroke-dashoffset: 0; stroke: #2ca02c; stroke-opacity: 0.4; stroke-width: 2.25"/>
   </g>
   <g id="line2d_34">
    <path d="M 409.56 139.404746 
L 412.380202 140.882575 
L 415.200404 147.528993 
L 418.020606 154.231052 
L 420.840808 152.542743 
L 423.66101 147.611068 
L 426.481212 142.735243 
L 429.301414 137.902829 
L 432.121616 133.101497 
L 434.941818 128.318998 
L 437.76202 123.54313 
L 440.582222 118.761708 
L 443.402424 113.962533 
L 446.222626 109.133361 
L 449.042828 104.261872 
L 451.86303 99.335636 
L 454.683232 94.342086 
L 457.503434 88.9021 
L 460.323636 82.902591 
L 463.143838 76.793842 
L 465.96404 72.681533 
L 468.784242 74.014457 
L 471.604444 75.215465 
L 474.424646 76.28762 
L 477.244848 77.233659 
L 480.065051 78.055994 
L 482.885253 78.756724 
L 485.705455 79.337636 
L 488.525657 79.800213 
L 491.345859 80.145635 
L 494.166061 80.374782 
L 496.986263 80.488241 
L 499.806465 80.486299 
L 502.626667 80.368953 
L 505.446869 81.436499 
L 508.267071 84.866326 
L 511.087273 88.191923 
L 513.907475 91.421774 
L 516.727677 94.56412 
L 519.547879 97.626978 
L 522.368081 100.618162 
L 525.188283 103.545304 
L 528.008485 106.382802 
L 530.828687 108.106276 
L 533.648889 109.784813 
L 536.469091 111.422694 
L 539.289293 113.024099 
L 542.109495 113.29502 
L 544.929697 112.862873 
L 547.749899 112.397923 
L 550.570101 111.898984 
L 553.390303 111.364784 
L 556.210505 110.79396 
L 559.030707 110.185054 
L 561.850909 109.536515 
L 564.671111 108.846686 
L 567.491313 108.113808 
L 570.311515 106.299445 
L 573.131717 104.064482 
L 575.951919 101.77427 
L 578.772121 99.422964 
L 581.592323 97.004567 
L 584.412525 94.512908 
L 587.232727 91.941631 
L 590.052929 89.284174 
L 592.873131 86.533759 
L 595.693333 83.683368 
L 598.513535 80.725729 
L 601.333737 77.653295 
L 604.153939 74.458229 
L 606.974141 71.132379 
L 609.794343 67.667259 
L 612.614545 64.054029 
L 615.434747 60.283471 
L 618.254949 66.320057 
L 621.075152 72.596141 
L 623.895354 78.736691 
L 626.715556 84.757371 
L 629.535758 90.673544 
L 632.35596 96.500302 
L 635.176162 102.252512 
L 637.996364 107.94485 
L 640.816566 113.591837 
L 643.636768 119.207882 
L 646.45697 124.807313 
L 649.277172 130.404415 
L 652.097374 136.013469 
L 654.917576 141.648784 
L 657.737778 142.398624 
L 660.55798 141.577187 
L 663.378182 140.796207 
L 666.198384 140.05369 
L 669.018586 139.347744 
L 671.838788 138.676565 
L 674.65899 138.038443 
L 677.479192 137.431749 
L 680.299394 136.854935 
L 683.119596 136.30653 
L 685.939798 135.785134 
L 688.76 135.289417 
" clip-path="url(#p3bffed1bfe)" style="fill: none; stroke: #000000; stroke-width: 1.5; stroke-linecap: square"/>
   </g>
   <g id="patch_8">
    <path d="M 395.6 228.04 
L 395.6 23.4 
" style="fill: none; stroke: #000000; stroke-width: 0.8; stroke-linejoin: miter; stroke-linecap: square"/>
   </g>
   <g id="patch_9">
    <path d="M 702.72 228.04 
L 702.72 23.4 
" style="fill: none; stroke: #000000; stroke-width: 0.8; stroke-linejoin: miter; stroke-linecap: square"/>
   </g>
   <g id="patch_10">
    <path d="M 395.6 228.04 
L 702.72 228.04 
" style="fill: none; stroke: #000000; stroke-width: 0.8; stroke-linejoin: miter; stroke-linecap: square"/>
   </g>
   <g id="patch_11">
    <path d="M 395.6 23.4 
L 702.72 23.4 
" style="fill: none; stroke: #000000; stroke-width: 0.8; stroke-linejoin: miter; stroke-linecap: square"/>
   </g>
   <g id="PathCollection_1">
    <defs>
     <path id="m0589ebf9c1" d="M -3 3 
L 3 -3 
M -3 -3 
L 3 3 
" style="stroke: #ff0000; stroke-width: 1.5"/>
    </defs>
    <g clip-path="url(#p3bffed1bfe)">
     <use xlink:href="#m0589ebf9c1" x="615.541185" y="49.880357" style="fill: #ff0000; stroke: #ff0000; stroke-width: 1.5"/>
     <use xlink:href="#m0589ebf9c1" x="504.475364" y="76.491691" style="fill: #ff0000; stroke: #ff0000; stroke-width: 1.5"/>
     <use xlink:href="#m0589ebf9c1" x="540.250756" y="115.51194" style="fill: #ff0000; stroke: #ff0000; stroke-width: 1.5"/>
     <use xlink:href="#m0589ebf9c1" x="527.923494" y="107.416478" style="fill: #ff0000; stroke: #ff0000; stroke-width: 1.5"/>
     <use xlink:href="#m0589ebf9c1" x="568.234836" y="109.306483" style="fill: #ff0000; stroke: #ff0000; stroke-width: 1.5"/>
     <use xlink:href="#m0589ebf9c1" x="655.613616" y="149.51863" style="fill: #ff0000; stroke: #ff0000; stroke-width: 1.5"/>
     <use xlink:href="#m0589ebf9c1" x="418.813919" y="167.783894" style="fill: #ff0000; stroke: #ff0000; stroke-width: 1.5"/>
     <use xlink:href="#m0589ebf9c1" x="412.012481" y="134.180963" style="fill: #ff0000; stroke: #ff0000; stroke-width: 1.5"/>
     <use xlink:href="#m0589ebf9c1" x="465.187182" y="64.667247" style="fill: #ff0000; stroke: #ff0000; stroke-width: 1.5"/>
     <use xlink:href="#m0589ebf9c1" x="456.261446" y="92.337095" style="fill: #ff0000; stroke: #ff0000; stroke-width: 1.5"/>
    </g>
   </g>
  </g>
 </g>
 <defs>
  <clipPath id="p087902fa0b">
   <rect x="67.7" y="23.4" width="307.12" height="204.64"/>
  </clipPath>
  <clipPath id="p3bffed1bfe">
   <rect x="395.6" y="23.4" width="307.12" height="204.64"/>
  </clipPath>
 </defs>
</svg>
