<?xml version="1.0" encoding="utf-8" standalone="no"?>
<!DOCTYPE svg PUBLIC "-//W3C//DTD SVG 1.1//EN"
  "http://www.w3.org/Graphics/SVG/1.1/DTD/svg11.dtd">
<svg xmlns:xlink="http://www.w3.org/1999/xlink" width="720pt" height="288pt" viewBox="0 0 720 288" xmlns="http://www.w3.org/2000/svg" version="1.1">
 <metadata>
  <rdf:RDF xmlns:dc="http://purl.org/dc/elements/1.1/" xmlns:cc="http://creativecommons.org/ns#" xmlns:rdf="http://www.w3.org/1999/02/22-rdf-syntax-ns#">
   <cc:Work>
    <dc:type rdf:resource="http://purl.org/dc/dcmitype/StillImage"/>
    <dc:date>2022-05-31T22:34:39.369892</dc:date>
    <dc:format>image/svg+xml</dc:format>
    <dc:creator>
     <cc:Agent>
      <dc:title>Matplotlib v3.5.0, https://matplotlib.org/</dc:title>
     </cc:Agent>
    </dc:creator>
   </cc:Work>
  </rdf:RDF>
 </metadata>
 <defs>
  <style type="text/css">*{stroke-linejoin: round; stroke-linecap: butt}</style>
 </defs>
 <g id="figure_1">
  <g id="patch_1">
   <path d="M 0 288 
L 720 288 
L 720 0 
L 0 0 
L 0 288 
z
" style="fill: none"/>
  </g>
  <g id="axes_1">
   <g id="patch_2">
    <path d="M 46.55 243.2 
L 370.725 243.2 
L 370.725 14.8 
L 46.55 14.8 
z
" style="fill: #ffffff"/>
   </g>
   <g id="PolyCollection_1">
    <defs>
     <path id="mcecae9486c" d="M 61.285227 -197.066667 
L 61.285227 -120.933333 
L 64.262041 -120.933333 
L 67.238854 -120.933333 
L 70.215668 -120.933333 
L 73.192482 -120.933333 
L 76.169295 -120.933333 
L 79.146109 -120.933333 
L 82.122922 -120.933333 
L 85.099736 -120.933333 
L 88.07655 -120.933333 
L 91.053363 -120.933333 
L 94.030177 -120.933333 
L 97.00699 -120.933333 
L 99.983804 -120.933333 
L 102.960618 -120.933333 
L 105.937431 -120.933333 
L 108.914245 -120.933333 
L 111.891058 -120.933333 
L 114.867872 -120.933333 
L 117.844685 -120.933333 
L 120.821499 -120.933333 
L 123.798313 -120.933333 
L 126.775126 -120.933333 
L 129.75194 -120.933333 
L 132.728753 -120.933333 
L 135.705567 -120.933333 
L 138.682381 -120.933333 
L 141.659194 -120.933333 
L 144.636008 -120.933333 
L 147.612821 -120.933333 
L 150.589635 -120.933333 
L 153.566449 -120.933333 
L 156.543262 -120.933333 
L 159.520076 -120.933333 
L 162.496889 -120.933333 
L 165.473703 -120.933333 
L 168.450517 -120.933333 
L 171.42733 -120.933333 
L 174.404144 -120.933333 
L 177.380957 -120.933333 
L 180.357771 -120.933333 
L 183.334584 -120.933333 
L 186.311398 -120.933333 
L 189.288212 -120.933333 
L 192.265025 -120.933333 
L 195.241839 -120.933333 
L 198.218652 -120.933333 
L 201.195466 -120.933333 
L 204.17228 -120.933333 
L 207.149093 -120.933333 
L 210.125907 -120.933333 
L 213.10272 -120.933333 
L 216.079534 -120.933333 
L 219.056348 -120.933333 
L 222.033161 -120.933333 
L 225.009975 -120.933333 
L 227.986788 -120.933333 
L 230.963602 -120.933333 
L 233.940416 -120.933333 
L 236.917229 -120.933333 
L 239.894043 -120.933333 
L 242.870856 -120.933333 
L 245.84767 -120.933333 
L 248.824483 -120.933333 
L 251.801297 -120.933333 
L 254.778111 -120.933333 
L 257.754924 -120.933333 
L 260.731738 -120.933333 
L 263.708551 -120.933333 
L 266.685365 -120.933333 
L 269.662179 -120.933333 
L 272.638992 -120.933333 
L 275.615806 -120.933333 
L 278.592619 -120.933333 
L 281.569433 -120.933333 
L 284.546247 -120.933333 
L 287.52306 -120.933333 
L 290.499874 -120.933333 
L 293.476687 -120.933333 
L 296.453501 -120.933333 
L 299.430315 -120.933333 
L 302.407128 -120.933333 
L 305.383942 -120.933333 
L 308.360755 -120.933333 
L 311.337569 -120.933333 
L 314.314382 -120.933333 
L 317.291196 -120.933333 
L 320.26801 -120.933333 
L 323.244823 -120.933333 
L 326.221637 -120.933333 
L 329.19845 -120.933333 
L 332.175264 -120.933333 
L 335.152078 -120.933333 
L 338.128891 -120.933333 
L 341.105705 -120.933333 
L 344.082518 -120.933333 
L 347.059332 -120.933333 
L 350.036146 -120.933333 
L 353.012959 -120.933333 
L 355.989773 -120.933333 
L 355.989773 -197.066667 
L 355.989773 -197.066667 
L 353.012959 -197.066667 
L 350.036146 -197.066667 
L 347.059332 -197.066667 
L 344.082518 -197.066667 
L 341.105705 -197.066667 
L 338.128891 -197.066667 
L 335.152078 -197.066667 
L 332.175264 -197.066667 
L 329.19845 -197.066667 
L 326.221637 -197.066667 
L 323.244823 -197.066667 
L 320.26801 -197.066667 
L 317.291196 -197.066667 
L 314.314382 -197.066667 
L 311.337569 -197.066667 
L 308.360755 -197.066667 
L 305.383942 -197.066667 
L 302.407128 -197.066667 
L 299.430315 -197.066667 
L 296.453501 -197.066667 
L 293.476687 -197.066667 
L 290.499874 -197.066667 
L 287.52306 -197.066667 
L 284.546247 -197.066667 
L 281.569433 -197.066667 
L 278.592619 -197.066667 
L 275.615806 -197.066667 
L 272.638992 -197.066667 
L 269.662179 -197.066667 
L 266.685365 -197.066667 
L 263.708551 -197.066667 
L 260.731738 -197.066667 
L 257.754924 -197.066667 
L 254.778111 -197.066667 
L 251.801297 -197.066667 
L 248.824483 -197.066667 
L 245.84767 -197.066667 
L 242.870856 -197.066667 
L 239.894043 -197.066667 
L 236.917229 -197.066667 
L 233.940416 -197.066667 
L 230.963602 -197.066667 
L 227.986788 -197.066667 
L 225.009975 -197.066667 
L 222.033161 -197.066667 
L 219.056348 -197.066667 
L 216.079534 -197.066667 
L 213.10272 -197.066667 
L 210.125907 -197.066667 
L 207.149093 -197.066667 
L 204.17228 -197.066667 
L 201.195466 -197.066667 
L 198.218652 -197.066667 
L 195.241839 -197.066667 
L 192.265025 -197.066667 
L 189.288212 -197.066667 
L 186.311398 -197.066667 
L 183.334584 -197.066667 
L 180.357771 -197.066667 
L 177.380957 -197.066667 
L 174.404144 -197.066667 
L 171.42733 -197.066667 
L 168.450517 -197.066667 
L 165.473703 -197.066667 
L 162.496889 -197.066667 
L 159.520076 -197.066667 
L 156.543262 -197.066667 
L 153.566449 -197.066667 
L 150.589635 -197.066667 
L 147.612821 -197.066667 
L 144.636008 -197.066667 
L 141.659194 -197.066667 
L 138.682381 -197.066667 
L 135.705567 -197.066667 
L 132.728753 -197.066667 
L 129.75194 -197.066667 
L 126.775126 -197.066667 
L 123.798313 -197.066667 
L 120.821499 -197.066667 
L 117.844685 -197.066667 
L 114.867872 -197.066667 
L 111.891058 -197.066667 
L 108.914245 -197.066667 
L 105.937431 -197.066667 
L 102.960618 -197.066667 
L 99.983804 -197.066667 
L 97.00699 -197.066667 
L 94.030177 -197.066667 
L 91.053363 -197.066667 
L 88.07655 -197.066667 
L 85.099736 -197.066667 
L 82.122922 -197.066667 
L 79.146109 -197.066667 
L 76.169295 -197.066667 
L 73.192482 -197.066667 
L 70.215668 -197.066667 
L 67.238854 -197.066667 
L 64.262041 -197.066667 
L 61.285227 -197.066667 
z
" style="stroke: #000000; stroke-opacity: 0.1"/>
    </defs>
    <g clip-path="url(#pbd37292335)">
     <use xlink:href="#mcecae9486c" x="0" y="288" style="fill-opacity: 0.1; stroke: #000000; stroke-opacity: 0.1"/>
    </g>
   </g>
   <g id="matplotlib.axis_1">
    <g id="xtick_1">
     <g id="line2d_1">
      <defs>
       <path id="m9369d8105a" d="M 0 0 
L 0 3.5 
" style="stroke: #000000; stroke-width: 0.8"/>
      </defs>
      <g>
       <use xlink:href="#m9369d8105a" x="61.285227" y="243.2" style="stroke: #000000; stroke-width: 0.8"/>
      </g>
     </g>
     <g id="text_1">
      <!-- 0 -->
      <g transform="translate(58.103977 257.798437)scale(0.1 -0.1)">
       <defs>
        <path id="DejaVuSans-30" d="M 2034 4250 
Q 1547 4250 1301 3770 
Q 1056 3291 1056 2328 
Q 1056 1369 1301 889 
Q 1547 409 2034 409 
Q 2525 409 2770 889 
Q 3016 1369 3016 2328 
Q 3016 3291 2770 3770 
Q 2525 4250 2034 4250 
z
M 2034 4750 
Q 2819 4750 3233 4129 
Q 3647 3509 3647 2328 
Q 3647 1150 3233 529 
Q 2819 -91 2034 -91 
Q 1250 -91 836 529 
Q 422 1150 422 2328 
Q 422 3509 836 4129 
Q 1250 4750 2034 4750 
z
" transform="scale(0.015625)"/>
       </defs>
       <use xlink:href="#DejaVuSans-30"/>
      </g>
     </g>
    </g>
    <g id="xtick_2">
     <g id="line2d_2">
      <g>
       <use xlink:href="#m9369d8105a" x="120.226136" y="243.2" style="stroke: #000000; stroke-width: 0.8"/>
      </g>
     </g>
     <g id="text_2">
      <!-- 1 -->
      <g transform="translate(117.044886 257.798437)scale(0.1 -0.1)">
       <defs>
        <path id="DejaVuSans-31" d="M 794 531 
L 1825 531 
L 1825 4091 
L 703 3866 
L 703 4441 
L 1819 4666 
L 2450 4666 
L 2450 531 
L 3481 531 
L 3481 0 
L 794 0 
L 794 531 
z
" transform="scale(0.015625)"/>
       </defs>
       <use xlink:href="#DejaVuSans-31"/>
      </g>
     </g>
    </g>
    <g id="xtick_3">
     <g id="line2d_3">
      <g>
       <use xlink:href="#m9369d8105a" x="179.167045" y="243.2" style="stroke: #000000; stroke-width: 0.8"/>
      </g>
     </g>
     <g id="text_3">
      <!-- 2 -->
      <g transform="translate(175.985795 257.798437)scale(0.1 -0.1)">
       <defs>
        <path id="DejaVuSans-32" d="M 1228 531 
L 3431 531 
L 3431 0 
L 469 0 
L 469 531 
Q 828 903 1448 1529 
Q 2069 2156 2228 2338 
Q 2531 2678 2651 2914 
Q 2772 3150 2772 3378 
Q 2772 3750 2511 3984 
Q 2250 4219 1831 4219 
Q 1534 4219 1204 4116 
Q 875 4013 500 3803 
L 500 4441 
Q 881 4594 1212 4672 
Q 1544 4750 1819 4750 
Q 2544 4750 2975 4387 
Q 3406 4025 3406 3419 
Q 3406 3131 3298 2873 
Q 3191 2616 2906 2266 
Q 2828 2175 2409 1742 
Q 1991 1309 1228 531 
z
" transform="scale(0.015625)"/>
       </defs>
       <use xlink:href="#DejaVuSans-32"/>
      </g>
     </g>
    </g>
    <g id="xtick_4">
     <g id="line2d_4">
      <g>
       <use xlink:href="#m9369d8105a" x="238.107955" y="243.2" style="stroke: #000000; stroke-width: 0.8"/>
      </g>
     </g>
     <g id="text_4">
      <!-- 3 -->
      <g transform="translate(234.926705 257.798437)scale(0.1 -0.1)">
       <defs>
        <path id="DejaVuSans-33" d="M 2597 2516 
Q 3050 2419 3304 2112 
Q 3559 1806 3559 1356 
Q 3559 666 3084 287 
Q 2609 -91 1734 -91 
Q 1441 -91 1130 -33 
Q 819 25 488 141 
L 488 750 
Q 750 597 1062 519 
Q 1375 441 1716 441 
Q 2309 441 2620 675 
Q 2931 909 2931 1356 
Q 2931 1769 2642 2001 
Q 2353 2234 1838 2234 
L 1294 2234 
L 1294 2753 
L 1863 2753 
Q 2328 2753 2575 2939 
Q 2822 3125 2822 3475 
Q 2822 3834 2567 4026 
Q 2313 4219 1838 4219 
Q 1578 4219 1281 4162 
Q 984 4106 628 3988 
L 628 4550 
Q 988 4650 1302 4700 
Q 1616 4750 1894 4750 
Q 2613 4750 3031 4423 
Q 3450 4097 3450 3541 
Q 3450 3153 3228 2886 
Q 3006 2619 2597 2516 
z
" transform="scale(0.015625)"/>
       </defs>
       <use xlink:href="#DejaVuSans-33"/>
      </g>
     </g>
    </g>
    <g id="xtick_5">
     <g id="line2d_5">
      <g>
       <use xlink:href="#m9369d8105a" x="297.048864" y="243.2" style="stroke: #000000; stroke-width: 0.8"/>
      </g>
     </g>
     <g id="text_5">
      <!-- 4 -->
      <g transform="translate(293.867614 257.798437)scale(0.1 -0.1)">
       <defs>
        <path id="DejaVuSans-34" d="M 2419 4116 
L 825 1625 
L 2419 1625 
L 2419 4116 
z
M 2253 4666 
L 3047 4666 
L 3047 1625 
L 3713 1625 
L 3713 1100 
L 3047 1100 
L 3047 0 
L 2419 0 
L 2419 1100 
L 313 1100 
L 313 1709 
L 2253 4666 
z
" transform="scale(0.015625)"/>
       </defs>
       <use xlink:href="#DejaVuSans-34"/>
      </g>
     </g>
    </g>
    <g id="xtick_6">
     <g id="line2d_6">
      <g>
       <use xlink:href="#m9369d8105a" x="355.989773" y="243.2" style="stroke: #000000; stroke-width: 0.8"/>
      </g>
     </g>
     <g id="text_6">
      <!-- 5 -->
      <g transform="translate(352.808523 257.798437)scale(0.1 -0.1)">
       <defs>
        <path id="DejaVuSans-35" d="M 691 4666 
L 3169 4666 
L 3169 4134 
L 1269 4134 
L 1269 2991 
Q 1406 3038 1543 3061 
Q 1681 3084 1819 3084 
Q 2600 3084 3056 2656 
Q 3513 2228 3513 1497 
Q 3513 744 3044 326 
Q 2575 -91 1722 -91 
Q 1428 -91 1123 -41 
Q 819 9 494 109 
L 494 744 
Q 775 591 1075 516 
Q 1375 441 1709 441 
Q 2250 441 2565 725 
Q 2881 1009 2881 1497 
Q 2881 1984 2565 2268 
Q 2250 2553 1709 2553 
Q 1456 2553 1204 2497 
Q 953 2441 691 2322 
L 691 4666 
z
" transform="scale(0.015625)"/>
       </defs>
       <use xlink:href="#DejaVuSans-35"/>
      </g>
     </g>
    </g>
    <g id="text_7">
     <!-- prior -->
     <g transform="translate(194.557188 272.99625)scale(0.12 -0.12)">
      <defs>
       <path id="DejaVuSans-70" d="M 1159 525 
L 1159 -1331 
L 581 -1331 
L 581 3500 
L 1159 3500 
L 1159 2969 
Q 1341 3281 1617 3432 
Q 1894 3584 2278 3584 
Q 2916 3584 3314 3078 
Q 3713 2572 3713 1747 
Q 3713 922 3314 415 
Q 2916 -91 2278 -91 
Q 1894 -91 1617 61 
Q 1341 213 1159 525 
z
M 3116 1747 
Q 3116 2381 2855 2742 
Q 2594 3103 2138 3103 
Q 1681 3103 1420 2742 
Q 1159 2381 1159 1747 
Q 1159 1113 1420 752 
Q 1681 391 2138 391 
Q 2594 391 2855 752 
Q 3116 1113 3116 1747 
z
" transform="scale(0.015625)"/>
       <path id="DejaVuSans-72" d="M 2631 2963 
Q 2534 3019 2420 3045 
Q 2306 3072 2169 3072 
Q 1681 3072 1420 2755 
Q 1159 2438 1159 1844 
L 1159 0 
L 581 0 
L 581 3500 
L 1159 3500 
L 1159 2956 
Q 1341 3275 1631 3429 
Q 1922 3584 2338 3584 
Q 2397 3584 2469 3576 
Q 2541 3569 2628 3553 
L 2631 2963 
z
" transform="scale(0.015625)"/>
       <path id="DejaVuSans-69" d="M 603 3500 
L 1178 3500 
L 1178 0 
L 603 0 
L 603 3500 
z
M 603 4863 
L 1178 4863 
L 1178 4134 
L 603 4134 
L 603 4863 
z
" transform="scale(0.015625)"/>
       <path id="DejaVuSans-6f" d="M 1959 3097 
Q 1497 3097 1228 2736 
Q 959 2375 959 1747 
Q 959 1119 1226 758 
Q 1494 397 1959 397 
Q 2419 397 2687 759 
Q 2956 1122 2956 1747 
Q 2956 2369 2687 2733 
Q 2419 3097 1959 3097 
z
M 1959 3584 
Q 2709 3584 3137 3096 
Q 3566 2609 3566 1747 
Q 3566 888 3137 398 
Q 2709 -91 1959 -91 
Q 1206 -91 779 398 
Q 353 888 353 1747 
Q 353 2609 779 3096 
Q 1206 3584 1959 3584 
z
" transform="scale(0.015625)"/>
      </defs>
      <use xlink:href="#DejaVuSans-70"/>
      <use xlink:href="#DejaVuSans-72" x="63.476562"/>
      <use xlink:href="#DejaVuSans-69" x="104.589844"/>
      <use xlink:href="#DejaVuSans-6f" x="132.373047"/>
      <use xlink:href="#DejaVuSans-72" x="193.554688"/>
     </g>
    </g>
   </g>
   <g id="matplotlib.axis_2">
    <g id="ytick_1">
     <g id="line2d_7">
      <defs>
       <path id="mff27350ea6" d="M 0 0 
L -3.5 0 
" style="stroke: #000000; stroke-width: 0.8"/>
      </defs>
      <g>
       <use xlink:href="#mff27350ea6" x="46.55" y="243.2" style="stroke: #000000; stroke-width: 0.8"/>
      </g>
     </g>
     <g id="text_8">
      <!-- −3 -->
      <g transform="translate(24.807813 246.999219)scale(0.1 -0.1)">
       <defs>
        <path id="DejaVuSans-2212" d="M 678 2272 
L 4684 2272 
L 4684 1741 
L 678 1741 
L 678 2272 
z
" transform="scale(0.015625)"/>
       </defs>
       <use xlink:href="#DejaVuSans-2212"/>
       <use xlink:href="#DejaVuSans-33" x="83.789062"/>
      </g>
     </g>
    </g>
    <g id="ytick_2">
     <g id="line2d_8">
      <g>
       <use xlink:href="#mff27350ea6" x="46.55" y="205.133333" style="stroke: #000000; stroke-width: 0.8"/>
      </g>
     </g>
     <g id="text_9">
      <!-- −2 -->
      <g transform="translate(24.807813 208.932552)scale(0.1 -0.1)">
       <use xlink:href="#DejaVuSans-2212"/>
       <use xlink:href="#DejaVuSans-32" x="83.789062"/>
      </g>
     </g>
    </g>
    <g id="ytick_3">
     <g id="line2d_9">
      <g>
       <use xlink:href="#mff27350ea6" x="46.55" y="167.066667" style="stroke: #000000; stroke-width: 0.8"/>
      </g>
     </g>
     <g id="text_10">
      <!-- −1 -->
      <g transform="translate(24.807813 170.865885)scale(0.1 -0.1)">
       <use xlink:href="#DejaVuSans-2212"/>
       <use xlink:href="#DejaVuSans-31" x="83.789062"/>
      </g>
     </g>
    </g>
    <g id="ytick_4">
     <g id="line2d_10">
      <g>
       <use xlink:href="#mff27350ea6" x="46.55" y="129" style="stroke: #000000; stroke-width: 0.8"/>
      </g>
     </g>
     <g id="text_11">
      <!-- 0 -->
      <g transform="translate(33.1875 132.799219)scale(0.1 -0.1)">
       <use xlink:href="#DejaVuSans-30"/>
      </g>
     </g>
    </g>
    <g id="ytick_5">
     <g id="line2d_11">
      <g>
       <use xlink:href="#mff27350ea6" x="46.55" y="90.933333" style="stroke: #000000; stroke-width: 0.8"/>
      </g>
     </g>
     <g id="text_12">
      <!-- 1 -->
      <g transform="translate(33.1875 94.732552)scale(0.1 -0.1)">
       <use xlink:href="#DejaVuSans-31"/>
      </g>
     </g>
    </g>
    <g id="ytick_6">
     <g id="line2d_12">
      <g>
       <use xlink:href="#mff27350ea6" x="46.55" y="52.866667" style="stroke: #000000; stroke-width: 0.8"/>
      </g>
     </g>
     <g id="text_13">
      <!-- 2 -->
      <g transform="translate(33.1875 56.665885)scale(0.1 -0.1)">
       <use xlink:href="#DejaVuSans-32"/>
      </g>
     </g>
    </g>
    <g id="ytick_7">
     <g id="line2d_13">
      <g>
       <use xlink:href="#mff27350ea6" x="46.55" y="14.8" style="stroke: #000000; stroke-width: 0.8"/>
      </g>
     </g>
     <g id="text_14">
      <!-- 3 -->
      <g transform="translate(33.1875 18.599219)scale(0.1 -0.1)">
       <use xlink:href="#DejaVuSans-33"/>
      </g>
     </g>
    </g>
    <g id="text_15">
     <!-- y -->
     <g transform="translate(18.728125 131.959375)rotate(-90)scale(0.1 -0.1)">
      <defs>
       <path id="DejaVuSans-79" d="M 2059 -325 
Q 1816 -950 1584 -1140 
Q 1353 -1331 966 -1331 
L 506 -1331 
L 506 -850 
L 844 -850 
Q 1081 -850 1212 -737 
Q 1344 -625 1503 -206 
L 1606 56 
L 191 3500 
L 800 3500 
L 1894 763 
L 2988 3500 
L 3597 3500 
L 2059 -325 
z
" transform="scale(0.015625)"/>
      </defs>
      <use xlink:href="#DejaVuSans-79"/>
     </g>
    </g>
   </g>
   <g id="line2d_14">
    <path d="M 61.285227 182.826394 
L 64.262041 185.929256 
L 67.238854 192.117587 
L 70.215668 189.886242 
L 73.192482 188.163279 
L 76.169295 189.96202 
L 79.146109 204.777418 
L 82.122922 194.030923 
L 85.099736 209.883577 
L 88.07655 191.269971 
L 91.053363 194.234226 
L 94.030177 198.505918 
L 97.00699 201.837847 
L 99.983804 184.630299 
L 102.960618 190.041767 
L 105.937431 198.649153 
L 108.914245 199.375668 
L 111.891058 215.940898 
L 114.867872 211.203714 
L 117.844685 208.961965 
L 120.821499 209.215425 
L 123.798313 202.762102 
L 126.775126 202.246109 
L 129.75194 171.793686 
L 132.728753 172.740201 
L 135.705567 161.838962 
L 138.682381 156.70769 
L 141.659194 166.231693 
L 144.636008 175.11396 
L 147.612821 182.812401 
L 150.589635 172.606286 
L 153.566449 156.717164 
L 156.543262 137.242992 
L 159.520076 137.5279 
L 162.496889 138.924269 
L 165.473703 136.991479 
L 168.450517 149.77612 
L 171.42733 155.110271 
L 174.404144 164.370591 
L 177.380957 146.483041 
L 180.357771 143.210572 
L 183.334584 141.393826 
L 186.311398 134.29851 
L 189.288212 135.023935 
L 192.265025 125.003397 
L 195.241839 140.512496 
L 198.218652 133.426467 
L 201.195466 144.628672 
L 204.17228 146.493188 
L 207.149093 137.943006 
L 210.125907 141.836912 
L 213.10272 137.96806 
L 216.079534 147.549479 
L 219.056348 154.158456 
L 222.033161 154.14899 
L 225.009975 166.14713 
L 227.986788 172.313427 
L 230.963602 176.987079 
L 233.940416 160.507381 
L 236.917229 159.403836 
L 239.894043 168.840435 
L 242.870856 173.405968 
L 245.84767 172.623865 
L 248.824483 168.037495 
L 251.801297 168.688615 
L 254.778111 183.148479 
L 257.754924 202.338001 
L 260.731738 204.916667 
L 263.708551 181.80302 
L 266.685365 203.473076 
L 269.662179 228.422297 
L 272.638992 230.853027 
L 275.615806 238.462441 
L 278.592619 206.159843 
L 281.569433 195.029943 
L 284.546247 187.479423 
L 287.52306 194.78467 
L 290.499874 210.758838 
L 293.476687 225.633224 
L 296.453501 223.843157 
L 299.430315 199.356397 
L 302.407128 184.720826 
L 305.383942 176.692959 
L 308.360755 153.657059 
L 311.337569 149.798126 
L 314.314382 156.770197 
L 317.291196 159.839878 
L 320.26801 148.318648 
L 323.244823 147.466804 
L 326.221637 143.803585 
L 329.19845 148.016945 
L 332.175264 142.680902 
L 335.152078 117.337371 
L 338.128891 95.413288 
L 341.105705 114.393479 
L 344.082518 91.062043 
L 347.059332 80.17187 
L 350.036146 68.455043 
L 353.012959 67.586054 
L 355.989773 78.549895 
" clip-path="url(#pbd37292335)" style="fill: none; stroke-dasharray: 5.55,2.4; stroke-dashoffset: 0; stroke: #1f77b4; stroke-opacity: 0.5; stroke-width: 1.5"/>
   </g>
   <g id="line2d_15">
    <path d="M 61.285227 157.332427 
L 64.262041 142.007444 
L 67.238854 152.976279 
L 70.215668 140.197356 
L 73.192482 141.094001 
L 76.169295 117.741152 
L 79.146109 107.636909 
L 82.122922 102.875755 
L 85.099736 109.067914 
L 88.07655 115.617157 
L 91.053363 93.322605 
L 94.030177 97.765807 
L 97.00699 108.463972 
L 99.983804 97.577667 
L 102.960618 120.722029 
L 105.937431 124.690808 
L 108.914245 142.535287 
L 111.891058 127.883025 
L 114.867872 135.350514 
L 117.844685 125.33706 
L 120.821499 119.59318 
L 123.798313 118.577274 
L 126.775126 143.105958 
L 129.75194 126.367687 
L 132.728753 133.464935 
L 135.705567 144.6312 
L 138.682381 161.537913 
L 141.659194 152.157317 
L 144.636008 147.526753 
L 147.612821 146.173929 
L 150.589635 151.992485 
L 153.566449 152.66232 
L 156.543262 154.421202 
L 159.520076 140.284373 
L 162.496889 127.593626 
L 165.473703 121.834767 
L 168.450517 123.936769 
L 171.42733 100.031035 
L 174.404144 104.135914 
L 177.380957 120.833228 
L 180.357771 133.608431 
L 183.334584 149.55751 
L 186.311398 169.892547 
L 189.288212 172.382296 
L 192.265025 186.948013 
L 195.241839 193.128641 
L 198.218652 195.143862 
L 201.195466 210.724201 
L 204.17228 228.524903 
L 207.149093 231.541118 
L 210.125907 242.046872 
L 213.10272 243.876093 
L 216.079534 239.895908 
L 219.056348 248.38856 
L 222.033161 245.435538 
L 225.009975 233.24388 
L 227.986788 229.678295 
L 230.963602 218.64101 
L 233.940416 227.714122 
L 236.917229 218.904262 
L 239.894043 218.525299 
L 242.870856 231.406338 
L 245.84767 242.473202 
L 248.824483 239.665907 
L 251.801297 213.789245 
L 254.778111 225.662224 
L 257.754924 222.434816 
L 260.731738 222.005943 
L 263.708551 216.669504 
L 266.685365 218.300449 
L 269.662179 209.357566 
L 272.638992 217.753675 
L 275.615806 208.542053 
L 278.592619 169.179054 
L 281.569433 179.472241 
L 284.546247 158.913819 
L 287.52306 156.660941 
L 290.499874 167.045676 
L 293.476687 159.8832 
L 296.453501 142.776624 
L 299.430315 128.932931 
L 302.407128 140.11229 
L 305.383942 147.687379 
L 308.360755 149.572076 
L 311.337569 144.209316 
L 314.314382 148.220367 
L 317.291196 160.571408 
L 320.26801 168.313532 
L 323.244823 152.808982 
L 326.221637 165.626064 
L 329.19845 183.783828 
L 332.175264 205.683429 
L 335.152078 191.463794 
L 338.128891 193.135071 
L 341.105705 190.031093 
L 344.082518 174.357428 
L 347.059332 166.470267 
L 350.036146 153.869512 
L 353.012959 157.436109 
L 355.989773 149.722636 
" clip-path="url(#pbd37292335)" style="fill: none; stroke-dasharray: 5.55,2.4; stroke-dashoffset: 0; stroke: #ff7f0e; stroke-opacity: 0.5; stroke-width: 1.5"/>
   </g>
   <g id="line2d_16">
    <path d="M 61.285227 142.745778 
L 64.262041 162.271186 
L 67.238854 161.945261 
L 70.215668 155.883211 
L 73.192482 156.634497 
L 76.169295 163.745664 
L 79.146109 163.252221 
L 82.122922 151.253872 
L 85.099736 157.726868 
L 88.07655 149.030258 
L 91.053363 151.466888 
L 94.030177 138.278395 
L 97.00699 125.50723 
L 99.983804 113.181754 
L 102.960618 120.27631 
L 105.937431 138.739069 
L 108.914245 127.433773 
L 111.891058 114.171111 
L 114.867872 113.914496 
L 117.844685 104.597225 
L 120.821499 101.723234 
L 123.798313 106.785055 
L 126.775126 108.57637 
L 129.75194 110.180867 
L 132.728753 113.681493 
L 135.705567 121.738437 
L 138.682381 128.358433 
L 141.659194 133.409757 
L 144.636008 129.492821 
L 147.612821 111.757609 
L 150.589635 111.08712 
L 153.566449 119.761523 
L 156.543262 124.053183 
L 159.520076 118.334175 
L 162.496889 98.926003 
L 165.473703 92.651935 
L 168.450517 99.647535 
L 171.42733 115.865056 
L 174.404144 115.46415 
L 177.380957 103.483166 
L 180.357771 100.208201 
L 183.334584 110.08678 
L 186.311398 98.934766 
L 189.288212 104.731958 
L 192.265025 90.114812 
L 195.241839 70.677991 
L 198.218652 90.907618 
L 201.195466 89.002887 
L 204.17228 91.723302 
L 207.149093 116.545093 
L 210.125907 108.431282 
L 213.10272 96.630012 
L 216.079534 89.935828 
L 219.056348 88.29586 
L 222.033161 93.059008 
L 225.009975 85.468298 
L 227.986788 98.137845 
L 230.963602 95.606887 
L 233.940416 111.914306 
L 236.917229 105.763255 
L 239.894043 118.400594 
L 242.870856 102.830173 
L 245.84767 92.369712 
L 248.824483 100.405278 
L 251.801297 94.036378 
L 254.778111 101.058026 
L 257.754924 102.916456 
L 260.731738 122.97846 
L 263.708551 131.540711 
L 266.685365 149.768232 
L 269.662179 146.349168 
L 272.638992 176.062142 
L 275.615806 159.692006 
L 278.592619 145.124246 
L 281.569433 169.712898 
L 284.546247 155.174155 
L 287.52306 150.826217 
L 290.499874 148.039669 
L 293.476687 149.329408 
L 296.453501 140.472342 
L 299.430315 152.424939 
L 302.407128 149.781282 
L 305.383942 171.188016 
L 308.360755 167.022098 
L 311.337569 164.246913 
L 314.314382 152.652914 
L 317.291196 140.29749 
L 320.26801 145.060614 
L 323.244823 143.561586 
L 326.221637 136.111094 
L 329.19845 137.620177 
L 332.175264 138.27846 
L 335.152078 129.083509 
L 338.128891 106.88654 
L 341.105705 118.528216 
L 344.082518 118.956436 
L 347.059332 108.985115 
L 350.036146 116.842116 
L 353.012959 88.155947 
L 355.989773 109.021263 
" clip-path="url(#pbd37292335)" style="fill: none; stroke-dasharray: 5.55,2.4; stroke-dashoffset: 0; stroke: #2ca02c; stroke-opacity: 0.5; stroke-width: 1.5"/>
   </g>
   <g id="line2d_17">
    <path d="M 61.285227 129 
L 64.262041 129 
L 67.238854 129 
L 70.215668 129 
L 73.192482 129 
L 76.169295 129 
L 79.146109 129 
L 82.122922 129 
L 85.099736 129 
L 88.07655 129 
L 91.053363 129 
L 94.030177 129 
L 97.00699 129 
L 99.983804 129 
L 102.960618 129 
L 105.937431 129 
L 108.914245 129 
L 111.891058 129 
L 114.867872 129 
L 117.844685 129 
L 120.821499 129 
L 123.798313 129 
L 126.775126 129 
L 129.75194 129 
L 132.728753 129 
L 135.705567 129 
L 138.682381 129 
L 141.659194 129 
L 144.636008 129 
L 147.612821 129 
L 150.589635 129 
L 153.566449 129 
L 156.543262 129 
L 159.520076 129 
L 162.496889 129 
L 165.473703 129 
L 168.450517 129 
L 171.42733 129 
L 174.404144 129 
L 177.380957 129 
L 180.357771 129 
L 183.334584 129 
L 186.311398 129 
L 189.288212 129 
L 192.265025 129 
L 195.241839 129 
L 198.218652 129 
L 201.195466 129 
L 204.17228 129 
L 207.149093 129 
L 210.125907 129 
L 213.10272 129 
L 216.079534 129 
L 219.056348 129 
L 222.033161 129 
L 225.009975 129 
L 227.986788 129 
L 230.963602 129 
L 233.940416 129 
L 236.917229 129 
L 239.894043 129 
L 242.870856 129 
L 245.84767 129 
L 248.824483 129 
L 251.801297 129 
L 254.778111 129 
L 257.754924 129 
L 260.731738 129 
L 263.708551 129 
L 266.685365 129 
L 269.662179 129 
L 272.638992 129 
L 275.615806 129 
L 278.592619 129 
L 281.569433 129 
L 284.546247 129 
L 287.52306 129 
L 290.499874 129 
L 293.476687 129 
L 296.453501 129 
L 299.430315 129 
L 302.407128 129 
L 305.383942 129 
L 308.360755 129 
L 311.337569 129 
L 314.314382 129 
L 317.291196 129 
L 320.26801 129 
L 323.244823 129 
L 326.221637 129 
L 329.19845 129 
L 332.175264 129 
L 335.152078 129 
L 338.128891 129 
L 341.105705 129 
L 344.082518 129 
L 347.059332 129 
L 350.036146 129 
L 353.012959 129 
L 355.989773 129 
" clip-path="url(#pbd37292335)" style="fill: none; stroke: #000000; stroke-width: 1.5; stroke-linecap: square"/>
   </g>
   <g id="patch_3">
    <path d="M 46.55 243.2 
L 46.55 14.8 
" style="fill: none; stroke: #000000; stroke-width: 0.8; stroke-linejoin: miter; stroke-linecap: square"/>
   </g>
   <g id="patch_4">
    <path d="M 370.725 243.2 
L 370.725 14.8 
" style="fill: none; stroke: #000000; stroke-width: 0.8; stroke-linejoin: miter; stroke-linecap: square"/>
   </g>
   <g id="patch_5">
    <path d="M 46.55 243.2 
L 370.725 243.2 
" style="fill: none; stroke: #000000; stroke-width: 0.8; stroke-linejoin: miter; stroke-linecap: square"/>
   </g>
   <g id="patch_6">
    <path d="M 46.55 14.8 
L 370.725 14.8 
" style="fill: none; stroke: #000000; stroke-width: 0.8; stroke-linejoin: miter; stroke-linecap: square"/>
   </g>
  </g>
  <g id="axes_2">
   <g id="patch_7">
    <path d="M 385.025 243.2 
L 709.2 243.2 
L 709.2 14.8 
L 385.025 14.8 
z
" style="fill: #ffffff"/>
   </g>
   <g id="PolyCollection_2">
    <defs>
     <path id="ma7a211715d" d="M 399.760227 -140.043094 
L 399.760227 -90.507386 
L 402.737041 -92.123353 
L 405.713854 -95.446979 
L 408.690668 -102.361946 
L 411.667482 -91.031538 
L 414.644295 -85.921027 
L 417.621109 -83.069868 
L 420.597922 -81.986365 
L 423.574736 -82.937557 
L 426.55155 -87.950605 
L 429.528363 -88.704223 
L 432.505177 -89.593606 
L 435.48199 -92.751568 
L 438.458804 -96.965263 
L 441.435618 -101.844196 
L 444.412431 -107.212183 
L 447.389245 -112.980611 
L 450.366058 -119.106041 
L 453.342872 -125.572597 
L 456.319685 -132.38399 
L 459.296499 -139.560213 
L 462.273313 -147.137246 
L 465.250126 -155.169593 
L 468.22694 -163.736831 
L 471.203753 -172.957902 
L 474.180567 -183.02411 
L 477.157381 -194.290439 
L 480.134194 -207.642108 
L 483.111008 -225.036067 
L 486.087821 -209.672734 
L 489.064635 -201.570734 
L 492.041449 -196.310362 
L 495.018262 -193.493065 
L 497.995076 -193.859566 
L 500.971889 -195.953556 
L 503.948703 -182.546026 
L 506.925517 -174.071733 
L 509.90233 -167.557032 
L 512.879144 -162.383718 
L 515.855957 -158.333318 
L 518.832771 -155.36369 
L 521.809584 -153.585345 
L 524.786398 -153.371955 
L 527.763212 -156.025964 
L 530.740025 -156.242951 
L 533.716839 -148.884879 
L 536.693652 -144.913951 
L 539.670466 -142.401543 
L 542.64728 -140.825595 
L 545.624093 -139.95619 
L 548.600907 -139.674966 
L 551.57772 -139.920457 
L 554.554534 -140.667469 
L 557.531348 -141.919714 
L 560.508161 -143.710167 
L 563.484975 -146.109381 
L 566.461788 -149.248142 
L 569.438602 -153.378167 
L 572.415416 -159.07998 
L 575.392229 -168.72237 
L 578.369043 -167.468209 
L 581.345856 -165.548919 
L 584.32267 -166.240769 
L 587.299483 -168.419048 
L 590.276297 -171.733992 
L 593.253111 -176.06428 
L 596.229924 -181.410808 
L 599.206738 -187.888197 
L 602.183551 -195.796757 
L 605.160365 -205.96537 
L 608.137179 -222.977458 
L 611.113992 -214.088639 
L 614.090806 -208.877792 
L 617.067619 -206.807477 
L 620.044433 -206.86087 
L 623.021247 -208.931788 
L 625.99806 -213.556557 
L 628.974874 -224.595786 
L 631.951687 -208.835682 
L 634.928501 -196.825093 
L 637.905315 -188.102488 
L 640.882128 -182.239131 
L 643.858942 -180.857318 
L 646.835755 -174.335117 
L 649.812569 -165.781502 
L 652.789382 -159.776145 
L 655.766196 -154.986432 
L 658.74301 -150.973841 
L 661.719823 -147.522326 
L 664.696637 -144.50393 
L 667.67345 -141.834172 
L 670.650264 -139.453122 
L 673.627078 -137.316052 
L 676.603891 -135.388308 
L 679.580705 -133.642261 
L 682.557518 -132.055389 
L 685.534332 -130.609001 
L 688.511146 -129.287362 
L 691.487959 -128.077067 
L 694.464773 -126.966586 
L 694.464773 -213.102789 
L 694.464773 -213.102789 
L 691.487959 -213.281948 
L 688.511146 -213.436655 
L 685.534332 -213.559782 
L 682.557518 -213.642586 
L 679.580705 -213.674265 
L 676.603891 -213.641351 
L 673.627078 -213.526848 
L 670.650264 -213.308977 
L 667.67345 -212.959276 
L 664.696637 -212.43957 
L 661.719823 -211.696866 
L 658.74301 -210.654025 
L 655.766196 -209.19086 
L 652.789382 -207.099551 
L 649.812569 -203.950281 
L 646.835755 -198.419651 
L 643.858942 -199.91057 
L 640.882128 -214.092346 
L 637.905315 -224.045291 
L 634.928501 -231.442729 
L 631.951687 -235.90793 
L 628.974874 -234.912706 
L 625.99806 -243.832028 
L 623.021247 -246.786586 
L 620.044433 -247.631603 
L 617.067619 -246.899447 
L 614.090806 -244.481402 
L 611.113992 -239.359522 
L 608.137179 -228.725627 
L 605.160365 -235.31155 
L 602.183551 -235.325886 
L 599.206738 -233.445126 
L 596.229924 -230.466569 
L 593.253111 -226.660021 
L 590.276297 -222.110571 
L 587.299483 -216.790466 
L 584.32267 -210.550528 
L 581.345856 -203.013835 
L 578.369043 -193.029128 
L 575.392229 -185.505072 
L 572.415416 -193.051777 
L 569.438602 -196.768022 
L 566.461788 -199.01619 
L 563.484975 -200.370733 
L 560.508161 -201.077611 
L 557.531348 -201.262151 
L 554.554534 -200.989725 
L 551.57772 -200.28839 
L 548.600907 -199.157184 
L 545.624093 -197.566471 
L 542.64728 -195.450561 
L 539.670466 -192.687072 
L 536.693652 -189.042254 
L 533.716839 -183.990394 
L 530.740025 -175.59938 
L 527.763212 -179.81064 
L 524.786398 -189.689808 
L 521.809584 -196.782431 
L 518.832771 -202.414525 
L 515.855957 -206.983668 
L 512.879144 -210.624694 
L 509.90233 -213.320274 
L 506.925517 -214.877324 
L 503.948703 -214.703677 
L 500.971889 -209.852469 
L 497.995076 -220.01885 
L 495.018262 -228.57666 
L 492.041449 -234.286423 
L 489.064635 -237.91637 
L 486.087821 -239.096633 
L 483.111008 -233.437452 
L 480.134194 -236.994947 
L 477.157381 -235.058961 
L 474.180567 -231.396872 
L 471.203753 -226.845736 
L 468.22694 -221.713379 
L 465.250126 -216.144798 
L 462.273313 -210.213328 
L 459.296499 -203.953498 
L 456.319685 -197.375171 
L 453.342872 -190.469951 
L 450.366058 -183.213578 
L 447.389245 -175.565492 
L 444.412431 -167.465379 
L 441.435618 -158.825058 
L 438.458804 -149.510722 
L 435.48199 -139.300397 
L 432.505177 -127.757052 
L 429.528363 -113.620412 
L 426.55155 -105.929583 
L 423.574736 -115.331287 
L 420.597922 -120.284858 
L 417.621109 -122.830368 
L 414.644295 -123.246565 
L 411.667482 -121.052294 
L 408.690668 -112.296418 
L 405.713854 -124.58453 
L 402.737041 -133.31695 
L 399.760227 -140.043094 
z
" style="stroke: #000000; stroke-opacity: 0.1"/>
    </defs>
    <g clip-path="url(#p3b7adb6c47)">
     <use xlink:href="#ma7a211715d" x="0" y="288" style="fill-opacity: 0.1; stroke: #000000; stroke-opacity: 0.1"/>
    </g>
   </g>
   <g id="matplotlib.axis_3">
    <g id="xtick_7">
     <g id="line2d_18">
      <g>
       <use xlink:href="#m9369d8105a" x="399.760227" y="243.2" style="stroke: #000000; stroke-width: 0.8"/>
      </g>
     </g>
     <g id="text_16">
      <!-- 0 -->
      <g transform="translate(396.578977 257.798437)scale(0.1 -0.1)">
       <use xlink:href="#DejaVuSans-30"/>
      </g>
     </g>
    </g>
    <g id="xtick_8">
     <g id="line2d_19">
      <g>
       <use xlink:href="#m9369d8105a" x="458.701136" y="243.2" style="stroke: #000000; stroke-width: 0.8"/>
      </g>
     </g>
     <g id="text_17">
      <!-- 1 -->
      <g transform="translate(455.519886 257.798437)scale(0.1 -0.1)">
       <use xlink:href="#DejaVuSans-31"/>
      </g>
     </g>
    </g>
    <g id="xtick_9">
     <g id="line2d_20">
      <g>
       <use xlink:href="#m9369d8105a" x="517.642045" y="243.2" style="stroke: #000000; stroke-width: 0.8"/>
      </g>
     </g>
     <g id="text_18">
      <!-- 2 -->
      <g transform="translate(514.460795 257.798437)scale(0.1 -0.1)">
       <use xlink:href="#DejaVuSans-32"/>
      </g>
     </g>
    </g>
    <g id="xtick_10">
     <g id="line2d_21">
      <g>
       <use xlink:href="#m9369d8105a" x="576.582955" y="243.2" style="stroke: #000000; stroke-width: 0.8"/>
      </g>
     </g>
     <g id="text_19">
      <!-- 3 -->
      <g transform="translate(573.401705 257.798437)scale(0.1 -0.1)">
       <use xlink:href="#DejaVuSans-33"/>
      </g>
     </g>
    </g>
    <g id="xtick_11">
     <g id="line2d_22">
      <g>
       <use xlink:href="#m9369d8105a" x="635.523864" y="243.2" style="stroke: #000000; stroke-width: 0.8"/>
      </g>
     </g>
     <g id="text_20">
      <!-- 4 -->
      <g transform="translate(632.342614 257.798437)scale(0.1 -0.1)">
       <use xlink:href="#DejaVuSans-34"/>
      </g>
     </g>
    </g>
    <g id="xtick_12">
     <g id="line2d_23">
      <g>
       <use xlink:href="#m9369d8105a" x="694.464773" y="243.2" style="stroke: #000000; stroke-width: 0.8"/>
      </g>
     </g>
     <g id="text_21">
      <!-- 5 -->
      <g transform="translate(691.283523 257.798437)scale(0.1 -0.1)">
       <use xlink:href="#DejaVuSans-35"/>
      </g>
     </g>
    </g>
    <g id="text_22">
     <!-- posterior -->
     <g transform="translate(520.19125 272.99625)scale(0.12 -0.12)">
      <defs>
       <path id="DejaVuSans-73" d="M 2834 3397 
L 2834 2853 
Q 2591 2978 2328 3040 
Q 2066 3103 1784 3103 
Q 1356 3103 1142 2972 
Q 928 2841 928 2578 
Q 928 2378 1081 2264 
Q 1234 2150 1697 2047 
L 1894 2003 
Q 2506 1872 2764 1633 
Q 3022 1394 3022 966 
Q 3022 478 2636 193 
Q 2250 -91 1575 -91 
Q 1294 -91 989 -36 
Q 684 19 347 128 
L 347 722 
Q 666 556 975 473 
Q 1284 391 1588 391 
Q 1994 391 2212 530 
Q 2431 669 2431 922 
Q 2431 1156 2273 1281 
Q 2116 1406 1581 1522 
L 1381 1569 
Q 847 1681 609 1914 
Q 372 2147 372 2553 
Q 372 3047 722 3315 
Q 1072 3584 1716 3584 
Q 2034 3584 2315 3537 
Q 2597 3491 2834 3397 
z
" transform="scale(0.015625)"/>
       <path id="DejaVuSans-74" d="M 1172 4494 
L 1172 3500 
L 2356 3500 
L 2356 3053 
L 1172 3053 
L 1172 1153 
Q 1172 725 1289 603 
Q 1406 481 1766 481 
L 2356 481 
L 2356 0 
L 1766 0 
Q 1100 0 847 248 
Q 594 497 594 1153 
L 594 3053 
L 172 3053 
L 172 3500 
L 594 3500 
L 594 4494 
L 1172 4494 
z
" transform="scale(0.015625)"/>
       <path id="DejaVuSans-65" d="M 3597 1894 
L 3597 1613 
L 953 1613 
Q 991 1019 1311 708 
Q 1631 397 2203 397 
Q 2534 397 2845 478 
Q 3156 559 3463 722 
L 3463 178 
Q 3153 47 2828 -22 
Q 2503 -91 2169 -91 
Q 1331 -91 842 396 
Q 353 884 353 1716 
Q 353 2575 817 3079 
Q 1281 3584 2069 3584 
Q 2775 3584 3186 3129 
Q 3597 2675 3597 1894 
z
M 3022 2063 
Q 3016 2534 2758 2815 
Q 2500 3097 2075 3097 
Q 1594 3097 1305 2825 
Q 1016 2553 972 2059 
L 3022 2063 
z
" transform="scale(0.015625)"/>
      </defs>
      <use xlink:href="#DejaVuSans-70"/>
      <use xlink:href="#DejaVuSans-6f" x="63.476562"/>
      <use xlink:href="#DejaVuSans-73" x="124.658203"/>
      <use xlink:href="#DejaVuSans-74" x="176.757812"/>
      <use xlink:href="#DejaVuSans-65" x="215.966797"/>
      <use xlink:href="#DejaVuSans-72" x="277.490234"/>
      <use xlink:href="#DejaVuSans-69" x="318.603516"/>
      <use xlink:href="#DejaVuSans-6f" x="346.386719"/>
      <use xlink:href="#DejaVuSans-72" x="407.568359"/>
     </g>
    </g>
   </g>
   <g id="matplotlib.axis_4">
    <g id="ytick_8">
     <g id="line2d_24">
      <g>
       <use xlink:href="#mff27350ea6" x="385.025" y="243.2" style="stroke: #000000; stroke-width: 0.8"/>
      </g>
     </g>
    </g>
    <g id="ytick_9">
     <g id="line2d_25">
      <g>
       <use xlink:href="#mff27350ea6" x="385.025" y="205.133333" style="stroke: #000000; stroke-width: 0.8"/>
      </g>
     </g>
    </g>
    <g id="ytick_10">
     <g id="line2d_26">
      <g>
       <use xlink:href="#mff27350ea6" x="385.025" y="167.066667" style="stroke: #000000; stroke-width: 0.8"/>
      </g>
     </g>
    </g>
    <g id="ytick_11">
     <g id="line2d_27">
      <g>
       <use xlink:href="#mff27350ea6" x="385.025" y="129" style="stroke: #000000; stroke-width: 0.8"/>
      </g>
     </g>
    </g>
    <g id="ytick_12">
     <g id="line2d_28">
      <g>
       <use xlink:href="#mff27350ea6" x="385.025" y="90.933333" style="stroke: #000000; stroke-width: 0.8"/>
      </g>
     </g>
    </g>
    <g id="ytick_13">
     <g id="line2d_29">
      <g>
       <use xlink:href="#mff27350ea6" x="385.025" y="52.866667" style="stroke: #000000; stroke-width: 0.8"/>
      </g>
     </g>
    </g>
    <g id="ytick_14">
     <g id="line2d_30">
      <g>
       <use xlink:href="#mff27350ea6" x="385.025" y="14.8" style="stroke: #000000; stroke-width: 0.8"/>
      </g>
     </g>
    </g>
   </g>
   <g id="line2d_31">
    <path d="M 399.760227 147.583822 
L 402.737041 140.059922 
L 405.713854 156.221557 
L 408.690668 172.874522 
L 411.667482 189.470453 
L 414.644295 189.675951 
L 417.621109 165.437353 
L 420.597922 181.983486 
L 423.574736 197.055979 
L 426.55155 202.237035 
L 429.528363 189.497234 
L 432.505177 195.59647 
L 435.48199 182.649983 
L 438.458804 189.954438 
L 441.435618 177.268082 
L 444.412431 189.489299 
L 447.389245 171.197698 
L 450.366058 161.473074 
L 453.342872 137.804622 
L 456.319685 119.022751 
L 459.296499 108.891496 
L 462.273313 88.413938 
L 465.250126 100.979305 
L 468.22694 99.623866 
L 471.203753 106.045412 
L 474.180567 91.912234 
L 477.157381 64.14933 
L 480.134194 47.029667 
L 483.111008 59.47762 
L 486.087821 78.868958 
L 489.064635 59.479101 
L 492.041449 68.734337 
L 495.018262 88.074981 
L 497.995076 82.440625 
L 500.971889 79.526038 
L 503.948703 80.280711 
L 506.925517 70.329164 
L 509.90233 83.21636 
L 512.879144 81.257811 
L 515.855957 91.156052 
L 518.832771 102.751134 
L 521.809584 95.724619 
L 524.786398 75.029455 
L 527.763212 112.431703 
L 530.740025 125.764446 
L 533.716839 138.034156 
L 536.693652 141.558388 
L 539.670466 124.386167 
L 542.64728 92.76623 
L 545.624093 79.053716 
L 548.600907 61.896828 
L 551.57772 68.133441 
L 554.554534 95.996598 
L 557.531348 105.939743 
L 560.508161 92.253499 
L 563.484975 113.071836 
L 566.461788 108.798739 
L 569.438602 111.494146 
L 572.415416 83.23563 
L 575.392229 101.655303 
L 578.369043 112.80602 
L 581.345856 99.169885 
L 584.32267 74.145917 
L 587.299483 52.075962 
L 590.276297 46.704533 
L 593.253111 49.036254 
L 596.229924 36.201073 
L 599.206738 30.904032 
L 602.183551 55.107257 
L 605.160365 61.215658 
L 608.137179 63.303809 
L 611.113992 37.039108 
L 614.090806 45.812994 
L 617.067619 40.752234 
L 620.044433 71.027953 
L 623.021247 77.923987 
L 625.99806 73.50858 
L 628.974874 59.791119 
L 631.951687 45.484849 
L 634.928501 62.705859 
L 637.905315 71.616034 
L 640.882128 109.979409 
L 643.858942 102.4215 
L 646.835755 99.16715 
L 649.812569 102.114391 
L 652.789382 116.220901 
L 655.766196 124.125711 
L 658.74301 117.460874 
L 661.719823 111.927757 
L 664.696637 102.162924 
L 667.67345 80.821624 
L 670.650264 72.822328 
L 673.627078 74.698327 
L 676.603891 65.157227 
L 679.580705 28.893701 
L 682.557518 28.059296 
L 685.534332 0.575413 
L 688.511146 19.232837 
L 691.487959 18.387581 
L 694.464773 33.838701 
" clip-path="url(#p3b7adb6c47)" style="fill: none; stroke-dasharray: 5.55,2.4; stroke-dashoffset: 0; stroke: #1f77b4; stroke-opacity: 0.5; stroke-width: 1.5"/>
   </g>
   <g id="line2d_32">
    <path d="M 399.760227 158.089828 
L 402.737041 161.262951 
L 405.713854 147.222207 
L 408.690668 174.357219 
L 411.667482 158.535031 
L 414.644295 159.38724 
L 417.621109 145.239133 
L 420.597922 152.681416 
L 423.574736 183.12591 
L 426.55155 182.54099 
L 429.528363 195.001066 
L 432.505177 163.588872 
L 435.48199 137.771703 
L 438.458804 131.387733 
L 441.435618 128.881816 
L 444.412431 104.840133 
L 447.389245 93.959207 
L 450.366058 92.127025 
L 453.342872 97.444851 
L 456.319685 110.869815 
L 459.296499 74.591276 
L 462.273313 86.452024 
L 465.250126 78.638801 
L 468.22694 83.406398 
L 471.203753 59.700831 
L 474.180567 45.437582 
L 477.157381 41.98628 
L 480.134194 59.915652 
L 483.111008 52.077636 
L 486.087821 93.901932 
L 489.064635 102.924287 
L 492.041449 99.053959 
L 495.018262 98.364069 
L 497.995076 95.697642 
L 500.971889 89.522246 
L 503.948703 107.939181 
L 506.925517 120.901779 
L 509.90233 134.145607 
L 512.879144 150.826507 
L 515.855957 134.523253 
L 518.832771 156.775868 
L 521.809584 149.311085 
L 524.786398 127.76145 
L 527.763212 119.239606 
L 530.740025 129.237799 
L 533.716839 125.473739 
L 536.693652 123.559197 
L 539.670466 140.983036 
L 542.64728 140.459852 
L 545.624093 164.189917 
L 548.600907 142.022613 
L 551.57772 126.76019 
L 554.554534 134.569878 
L 557.531348 152.236899 
L 560.508161 156.04155 
L 563.484975 162.397982 
L 566.461788 165.110612 
L 569.438602 139.097569 
L 572.415416 116.503307 
L 575.392229 114.974393 
L 578.369043 109.653723 
L 581.345856 100.509865 
L 584.32267 111.58869 
L 587.299483 123.515065 
L 590.276297 109.737101 
L 593.253111 126.618657 
L 596.229924 129.022843 
L 599.206738 86.044391 
L 602.183551 73.117 
L 605.160365 75.789882 
L 608.137179 65.989752 
L 611.113992 79.347391 
L 614.090806 98.62408 
L 617.067619 88.590059 
L 620.044433 104.253117 
L 623.021247 72.298074 
L 625.99806 79.866219 
L 628.974874 64.470039 
L 631.951687 60.172464 
L 634.928501 65.750618 
L 637.905315 60.772617 
L 640.882128 84.128147 
L 643.858942 98.604631 
L 646.835755 97.82439 
L 649.812569 94.137175 
L 652.789382 101.63698 
L 655.766196 94.536479 
L 658.74301 114.675713 
L 661.719823 113.931473 
L 664.696637 77.724697 
L 667.67345 53.112137 
L 670.650264 55.595647 
L 673.627078 32.037758 
L 676.603891 34.48896 
L 679.580705 16.465023 
L 682.557518 31.753997 
L 685.534332 33.893374 
L 688.511146 46.047139 
L 691.487959 48.492678 
L 694.464773 48.474096 
" clip-path="url(#p3b7adb6c47)" style="fill: none; stroke-dasharray: 5.55,2.4; stroke-dashoffset: 0; stroke: #ff7f0e; stroke-opacity: 0.5; stroke-width: 1.5"/>
   </g>
   <g id="line2d_33">
    <path d="M 399.760227 170.212501 
L 402.737041 165.934555 
L 405.713854 169.527187 
L 408.690668 176.330677 
L 411.667482 167.208563 
L 414.644295 174.655045 
L 417.621109 175.972661 
L 420.597922 159.384915 
L 423.574736 184.355142 
L 426.55155 185.831777 
L 429.528363 194.256214 
L 432.505177 166.371317 
L 435.48199 181.381365 
L 438.458804 187.472632 
L 441.435618 147.02781 
L 444.412431 147.235604 
L 447.389245 120.918059 
L 450.366058 125.23966 
L 453.342872 137.263916 
L 456.319685 105.892668 
L 459.296499 86.401575 
L 462.273313 110.512803 
L 465.250126 101.178584 
L 468.22694 87.510272 
L 471.203753 88.857403 
L 474.180567 84.520191 
L 477.157381 88.396711 
L 480.134194 69.446264 
L 483.111008 60.758658 
L 486.087821 67.941479 
L 489.064635 64.238705 
L 492.041449 79.806132 
L 495.018262 48.457034 
L 497.995076 66.255057 
L 500.971889 76.747357 
L 503.948703 81.830689 
L 506.925517 70.197633 
L 509.90233 55.805256 
L 512.879144 64.413507 
L 515.855957 64.018918 
L 518.832771 88.210069 
L 521.809584 100.61212 
L 524.786398 96.902719 
L 527.763212 94.357959 
L 530.740025 102.542016 
L 533.716839 124.459801 
L 536.693652 104.813135 
L 539.670466 89.157872 
L 542.64728 83.827403 
L 545.624093 80.699913 
L 548.600907 82.341083 
L 551.57772 78.311404 
L 554.554534 96.26674 
L 557.531348 100.047148 
L 560.508161 96.28382 
L 563.484975 110.864511 
L 566.461788 110.854674 
L 569.438602 96.570746 
L 572.415416 95.929496 
L 575.392229 105.753637 
L 578.369043 91.099073 
L 581.345856 90.402474 
L 584.32267 64.390453 
L 587.299483 83.93035 
L 590.276297 75.078105 
L 593.253111 79.43624 
L 596.229924 73.016842 
L 599.206738 71.135922 
L 602.183551 81.118259 
L 605.160365 61.744576 
L 608.137179 63.21203 
L 611.113992 73.645499 
L 614.090806 77.700572 
L 617.067619 82.583001 
L 620.044433 49.88084 
L 623.021247 55.152544 
L 625.99806 52.231433 
L 628.974874 57.91477 
L 631.951687 63.84859 
L 634.928501 92.779596 
L 637.905315 81.965857 
L 640.882128 89.218063 
L 643.858942 106.783622 
L 646.835755 95.06113 
L 649.812569 80.750354 
L 652.789382 100.571118 
L 655.766196 118.317938 
L 658.74301 121.801313 
L 661.719823 123.63355 
L 664.696637 151.617113 
L 667.67345 158.085142 
L 670.650264 147.541754 
L 673.627078 122.09515 
L 676.603891 122.071385 
L 679.580705 101.532696 
L 682.557518 106.7394 
L 685.534332 112.931931 
L 688.511146 131.25004 
L 691.487959 134.602697 
L 694.464773 123.047497 
" clip-path="url(#p3b7adb6c47)" style="fill: none; stroke-dasharray: 5.55,2.4; stroke-dashoffset: 0; stroke: #2ca02c; stroke-opacity: 0.5; stroke-width: 1.5"/>
   </g>
   <g id="line2d_34">
    <path d="M 399.760227 172.72476 
L 402.737041 175.279849 
L 405.713854 177.984246 
L 408.690668 180.670818 
L 411.667482 181.958084 
L 414.644295 183.416204 
L 417.621109 185.049882 
L 420.597922 186.864388 
L 423.574736 188.865578 
L 426.55155 191.059906 
L 429.528363 186.837682 
L 432.505177 179.324671 
L 435.48199 171.974018 
L 438.458804 164.762007 
L 441.435618 157.665373 
L 444.412431 150.661219 
L 447.389245 143.726948 
L 450.366058 136.84019 
L 453.342872 129.978726 
L 456.319685 123.12042 
L 459.296499 116.243144 
L 462.273313 109.324713 
L 465.250126 102.342805 
L 468.22694 95.274895 
L 471.203753 88.098181 
L 474.180567 80.789509 
L 477.157381 73.3253 
L 480.134194 65.681473 
L 483.111008 58.763241 
L 486.087821 63.615317 
L 489.064635 68.256448 
L 492.041449 72.701608 
L 495.018262 76.965138 
L 497.995076 81.060792 
L 500.971889 85.096987 
L 503.948703 89.375149 
L 506.925517 93.525472 
L 509.90233 97.561347 
L 512.879144 101.495794 
L 515.855957 105.341507 
L 518.832771 109.110893 
L 521.809584 112.816112 
L 524.786398 116.469119 
L 527.763212 120.081698 
L 530.740025 122.078834 
L 533.716839 121.562364 
L 536.693652 121.021898 
L 539.670466 120.455693 
L 542.64728 119.861922 
L 545.624093 119.23867 
L 548.600907 118.583925 
L 551.57772 117.895577 
L 554.554534 117.171403 
L 557.531348 116.409067 
L 560.508161 115.606111 
L 563.484975 114.759943 
L 566.461788 113.867834 
L 569.438602 112.926905 
L 572.415416 111.934121 
L 575.392229 110.886279 
L 578.369043 107.751332 
L 581.345856 103.718623 
L 584.32267 99.604351 
L 587.299483 95.395243 
L 590.276297 91.077719 
L 593.253111 86.63785 
L 596.229924 82.061311 
L 599.206738 77.333339 
L 602.183551 72.438679 
L 605.160365 67.36154 
L 608.137179 62.148458 
L 611.113992 61.275919 
L 614.090806 61.320403 
L 617.067619 61.146538 
L 620.044433 60.753764 
L 623.021247 60.140813 
L 625.99806 59.305708 
L 628.974874 58.245754 
L 631.951687 65.628194 
L 634.928501 73.866089 
L 637.905315 81.92611 
L 640.882128 89.834262 
L 643.858942 97.616056 
L 646.835755 101.622616 
L 649.812569 103.134108 
L 652.789382 104.562152 
L 655.766196 105.911354 
L 658.74301 107.186067 
L 661.719823 108.390404 
L 664.696637 109.52825 
L 667.67345 110.603276 
L 670.650264 111.618951 
L 673.627078 112.57855 
L 676.603891 113.48517 
L 679.580705 114.341737 
L 682.557518 115.151013 
L 685.534332 115.915609 
L 688.511146 116.637992 
L 691.487959 117.320492 
L 694.464773 117.965312 
" clip-path="url(#p3b7adb6c47)" style="fill: none; stroke: #000000; stroke-width: 1.5; stroke-linecap: square"/>
   </g>
   <g id="patch_8">
    <path d="M 385.025 243.2 
L 385.025 14.8 
" style="fill: none; stroke: #000000; stroke-width: 0.8; stroke-linejoin: miter; stroke-linecap: square"/>
   </g>
   <g id="patch_9">
    <path d="M 709.2 243.2 
L 709.2 14.8 
" style="fill: none; stroke: #000000; stroke-width: 0.8; stroke-linejoin: miter; stroke-linecap: square"/>
   </g>
   <g id="patch_10">
    <path d="M 385.025 243.2 
L 709.2 243.2 
" style="fill: none; stroke: #000000; stroke-width: 0.8; stroke-linejoin: miter; stroke-linecap: square"/>
   </g>
   <g id="patch_11">
    <path d="M 385.025 14.8 
L 709.2 14.8 
" style="fill: none; stroke: #000000; stroke-width: 0.8; stroke-linejoin: miter; stroke-linecap: square"/>
   </g>
   <g id="PathCollection_1">
    <defs>
     <path id="m2eaf2b6e9f" d="M -3 3 
L 3 -3 
M -3 -3 
L 3 3 
" style="stroke: #ff0000; stroke-width: 1.5"/>
    </defs>
    <g clip-path="url(#p3b7adb6c47)">
     <use xlink:href="#m2eaf2b6e9f" x="629.299246" y="58.116531" style="fill: #ff0000; stroke: #ff0000; stroke-width: 1.5"/>
     <use xlink:href="#m2eaf2b6e9f" x="645.03724" y="100.666932" style="fill: #ff0000; stroke: #ff0000; stroke-width: 1.5"/>
     <use xlink:href="#m2eaf2b6e9f" x="427.577159" y="191.86192" style="fill: #ff0000; stroke: #ff0000; stroke-width: 1.5"/>
     <use xlink:href="#m2eaf2b6e9f" x="576.256086" y="110.571415" style="fill: #ff0000; stroke: #ff0000; stroke-width: 1.5"/>
     <use xlink:href="#m2eaf2b6e9f" x="529.581706" y="122.273676" style="fill: #ff0000; stroke: #ff0000; stroke-width: 1.5"/>
     <use xlink:href="#m2eaf2b6e9f" x="608.024698" y="62.288714" style="fill: #ff0000; stroke: #ff0000; stroke-width: 1.5"/>
     <use xlink:href="#m2eaf2b6e9f" x="608.964023" y="61.10794" style="fill: #ff0000; stroke: #ff0000; stroke-width: 1.5"/>
     <use xlink:href="#m2eaf2b6e9f" x="500.379847" y="84.229687" style="fill: #ff0000; stroke: #ff0000; stroke-width: 1.5"/>
     <use xlink:href="#m2eaf2b6e9f" x="482.896782" y="58.405513" style="fill: #ff0000; stroke: #ff0000; stroke-width: 1.5"/>
     <use xlink:href="#m2eaf2b6e9f" x="408.390014" y="180.550139" style="fill: #ff0000; stroke: #ff0000; stroke-width: 1.5"/>
    </g>
   </g>
  </g>
 </g>
 <defs>
  <clipPath id="pbd37292335">
   <rect x="46.55" y="14.8" width="324.175" height="228.4"/>
  </clipPath>
  <clipPath id="p3b7adb6c47">
   <rect x="385.025" y="14.8" width="324.175" height="228.4"/>
  </clipPath>
 </defs>
</svg>
