<?xml version="1.0" encoding="utf-8" standalone="no"?>
<!DOCTYPE svg PUBLIC "-//W3C//DTD SVG 1.1//EN"
  "http://www.w3.org/Graphics/SVG/1.1/DTD/svg11.dtd">
<svg xmlns:xlink="http://www.w3.org/1999/xlink" width="648pt" height="360pt" viewBox="0 0 648 360" xmlns="http://www.w3.org/2000/svg" version="1.1">
 <metadata>
  <rdf:RDF xmlns:dc="http://purl.org/dc/elements/1.1/" xmlns:cc="http://creativecommons.org/ns#" xmlns:rdf="http://www.w3.org/1999/02/22-rdf-syntax-ns#">
   <cc:Work>
    <dc:type rdf:resource="http://purl.org/dc/dcmitype/StillImage"/>
    <dc:date>2022-06-25T16:56:50.412652</dc:date>
    <dc:format>image/svg+xml</dc:format>
    <dc:creator>
     <cc:Agent>
      <dc:title>Matplotlib v3.5.0, https://matplotlib.org/</dc:title>
     </cc:Agent>
    </dc:creator>
   </cc:Work>
  </rdf:RDF>
 </metadata>
 <defs>
  <style type="text/css">*{stroke-linejoin: round; stroke-linecap: butt}</style>
 </defs>
 <g id="figure_1">
  <g id="patch_1">
   <path d="M 0 360 
L 648 360 
L 648 0 
L 0 0 
L 0 360 
z
" style="fill: none"/>
  </g>
  <g id="patch_2">
   <path d="M 43.823382 306.72 
L 288.816618 306.72 
L 288.816618 61.726764 
L 43.823382 61.726764 
z
" style="fill: #ffffff"/>
  </g>
  <g id="pane3d_1">
   <g id="patch_3">
    <path d="M 62.322061 246.312519 
L 143.226829 178.496539 
L 142.102175 80.693772 
L 57.325697 142.559784 
" style="fill: #f2f2f2; opacity: 0.5; stroke: #f2f2f2; stroke-linejoin: miter"/>
   </g>
  </g>
  <g id="pane3d_2">
   <g id="patch_4">
    <path d="M 143.226829 178.496539 
L 273.050114 216.231042 
L 277.683049 115.059571 
L 142.102175 80.693772 
" style="fill: #e6e6e6; opacity: 0.5; stroke: #e6e6e6; stroke-linejoin: miter"/>
   </g>
  </g>
  <g id="pane3d_3">
   <g id="patch_5">
    <path d="M 62.322061 246.312519 
L 199.941084 291.258892 
L 273.050114 216.231042 
L 143.226829 178.496539 
" style="fill: #ececec; opacity: 0.5; stroke: #ececec; stroke-linejoin: miter"/>
   </g>
  </g>
  <g id="axis3d_1">
   <g id="line2d_1">
    <path d="M 62.322061 246.312519 
L 199.941084 291.258892 
" style="fill: none; stroke: #000000; stroke-width: 0.8; stroke-linecap: square"/>
   </g>
   <g id="Line3DCollection_1">
    <path d="M 94.893848 256.950465 
L 174.057186 187.457706 
L 174.24804 88.841811 
" style="fill: none; stroke: #b0b0b0; stroke-width: 0.8"/>
    <path d="M 130.661837 268.63229 
L 207.838634 197.27664 
L 209.507925 97.779164 
" style="fill: none; stroke: #b0b0b0; stroke-width: 0.8"/>
    <path d="M 167.437954 280.64337 
L 242.491477 207.348853 
L 245.717611 106.957264 
" style="fill: none; stroke: #b0b0b0; stroke-width: 0.8"/>
   </g>
   <g id="xtick_1">
    <g id="line2d_2">
     <path d="M 95.58373 256.344859 
L 93.511095 258.164301 
" style="fill: none; stroke: #000000; stroke-width: 0.8; stroke-linecap: square"/>
    </g>
    <g id="text_1">
     <!-- −2 -->
     <g transform="translate(75.595575 285.005994)scale(0.16 -0.16)">
      <defs>
       <path id="DejaVuSerif-2212" d="M 678 2259 
L 4684 2259 
L 4684 1753 
L 678 1753 
L 678 2259 
z
" transform="scale(0.015625)"/>
       <path id="DejaVuSerif-32" d="M 819 3553 
L 469 3553 
L 469 4384 
Q 803 4563 1142 4656 
Q 1481 4750 1806 4750 
Q 2534 4750 2956 4397 
Q 3378 4044 3378 3438 
Q 3378 2753 2422 1800 
Q 2347 1728 2309 1691 
L 1131 513 
L 3078 513 
L 3078 1088 
L 3444 1088 
L 3444 0 
L 434 0 
L 434 341 
L 1850 1753 
Q 2319 2222 2519 2614 
Q 2719 3006 2719 3438 
Q 2719 3909 2473 4175 
Q 2228 4441 1797 4441 
Q 1350 4441 1106 4219 
Q 863 3997 819 3553 
z
" transform="scale(0.015625)"/>
      </defs>
      <use xlink:href="#DejaVuSerif-2212"/>
      <use xlink:href="#DejaVuSerif-32" x="83.789062"/>
     </g>
    </g>
   </g>
   <g id="xtick_2">
    <g id="line2d_3">
     <path d="M 131.335173 268.009741 
L 129.312208 269.880123 
" style="fill: none; stroke: #000000; stroke-width: 0.8; stroke-linecap: square"/>
    </g>
    <g id="text_2">
     <!-- 0 -->
     <g transform="translate(118.110475 296.957962)scale(0.16 -0.16)">
      <defs>
       <path id="DejaVuSerif-30" d="M 2034 219 
Q 2513 219 2750 744 
Q 2988 1269 2988 2328 
Q 2988 3391 2750 3916 
Q 2513 4441 2034 4441 
Q 1556 4441 1318 3916 
Q 1081 3391 1081 2328 
Q 1081 1269 1318 744 
Q 1556 219 2034 219 
z
M 2034 -91 
Q 1275 -91 848 546 
Q 422 1184 422 2328 
Q 422 3475 848 4112 
Q 1275 4750 2034 4750 
Q 2797 4750 3222 4112 
Q 3647 3475 3647 2328 
Q 3647 1184 3222 546 
Q 2797 -91 2034 -91 
z
" transform="scale(0.015625)"/>
      </defs>
      <use xlink:href="#DejaVuSerif-30"/>
     </g>
    </g>
   </g>
   <g id="xtick_3">
    <g id="line2d_4">
     <path d="M 168.093531 280.003157 
L 166.123879 281.926647 
" style="fill: none; stroke: #000000; stroke-width: 0.8; stroke-linecap: square"/>
    </g>
    <g id="text_3">
     <!-- 2 -->
     <g transform="translate(154.935201 309.24821)scale(0.16 -0.16)">
      <use xlink:href="#DejaVuSerif-32"/>
     </g>
    </g>
   </g>
  </g>
  <g id="axis3d_2">
   <g id="line2d_5">
    <path d="M 273.050114 216.231042 
L 199.941084 291.258892 
" style="fill: none; stroke: #000000; stroke-width: 0.8; stroke-linecap: square"/>
   </g>
   <g id="Line3DCollection_2">
    <path d="M 64.272932 137.490008 
L 68.928943 240.774499 
L 205.935599 285.107045 
" style="fill: none; stroke: #b0b0b0; stroke-width: 0.8"/>
    <path d="M 86.877652 120.994113 
L 90.45467 222.731208 
L 225.43618 265.094651 
" style="fill: none; stroke: #b0b0b0; stroke-width: 0.8"/>
    <path d="M 108.471366 105.236004 
L 111.058373 205.460776 
L 244.058589 245.983479 
" style="fill: none; stroke: #b0b0b0; stroke-width: 0.8"/>
    <path d="M 129.120416 90.167268 
L 130.79805 188.914587 
L 261.860839 227.713991 
" style="fill: none; stroke: #b0b0b0; stroke-width: 0.8"/>
   </g>
   <g id="xtick_4">
    <g id="line2d_6">
     <path d="M 204.781104 284.733475 
L 208.24757 285.855152 
" style="fill: none; stroke: #000000; stroke-width: 0.8; stroke-linecap: square"/>
    </g>
    <g id="text_4">
     <!-- −2 -->
     <g transform="translate(207.009521 310.673072)scale(0.16 -0.16)">
      <use xlink:href="#DejaVuSerif-2212"/>
      <use xlink:href="#DejaVuSerif-32" x="83.789062"/>
     </g>
    </g>
   </g>
   <g id="xtick_5">
    <g id="line2d_7">
     <path d="M 224.300076 264.738089 
L 227.711255 265.808675 
" style="fill: none; stroke: #000000; stroke-width: 0.8; stroke-linecap: square"/>
    </g>
    <g id="text_5">
     <!-- 0 -->
     <g transform="translate(232.929632 290.338911)scale(0.16 -0.16)">
      <use xlink:href="#DejaVuSerif-30"/>
     </g>
    </g>
   </g>
   <g id="xtick_6">
    <g id="line2d_8">
     <path d="M 242.940409 245.64279 
L 246.297708 246.665697 
" style="fill: none; stroke: #000000; stroke-width: 0.8; stroke-linecap: square"/>
    </g>
    <g id="text_6">
     <!-- 2 -->
     <g transform="translate(251.280082 270.921029)scale(0.16 -0.16)">
      <use xlink:href="#DejaVuSerif-32"/>
     </g>
    </g>
   </g>
   <g id="xtick_7">
    <g id="line2d_9">
     <path d="M 260.760122 227.388138 
L 264.064927 228.366482 
" style="fill: none; stroke: #000000; stroke-width: 0.8; stroke-linecap: square"/>
    </g>
    <g id="text_7">
     <!-- 4 -->
     <g transform="translate(268.821861 252.358859)scale(0.16 -0.16)">
      <defs>
       <path id="DejaVuSerif-34" d="M 2234 1581 
L 2234 4063 
L 641 1581 
L 2234 1581 
z
M 3609 0 
L 1484 0 
L 1484 331 
L 2234 331 
L 2234 1247 
L 197 1247 
L 197 1588 
L 2241 4750 
L 2859 4750 
L 2859 1581 
L 3750 1581 
L 3750 1247 
L 2859 1247 
L 2859 331 
L 3609 331 
L 3609 0 
z
" transform="scale(0.015625)"/>
      </defs>
      <use xlink:href="#DejaVuSerif-34"/>
     </g>
    </g>
   </g>
  </g>
  <g id="axis3d_3">
   <g id="line2d_10">
    <path d="M 273.050114 216.231042 
L 277.683049 115.059571 
" style="fill: none; stroke: #000000; stroke-width: 0.8; stroke-linecap: square"/>
   </g>
   <g id="Line3DCollection_3">
    <path d="M 274.107507 193.140267 
L 142.969726 156.138228 
L 61.183203 222.663412 
" style="fill: none; stroke: #b0b0b0; stroke-width: 0.8"/>
    <path d="M 275.236615 168.483438 
L 142.695459 132.287328 
L 59.966139 197.390289 
" style="fill: none; stroke: #b0b0b0; stroke-width: 0.8"/>
    <path d="M 276.390395 143.287841 
L 142.415492 107.940611 
L 58.721448 171.543468 
" style="fill: none; stroke: #b0b0b0; stroke-width: 0.8"/>
    <path d="M 277.569664 117.535623 
L 142.129643 83.082454 
L 57.448178 145.103189 
" style="fill: none; stroke: #b0b0b0; stroke-width: 0.8"/>
   </g>
   <g id="xtick_8">
    <g id="line2d_11">
     <path d="M 273.006374 192.829569 
L 276.31242 193.762409 
" style="fill: none; stroke: #000000; stroke-width: 0.8; stroke-linecap: square"/>
    </g>
    <g id="text_8">
     <!-- −1 -->
     <g transform="translate(280.740122 202.742849)scale(0.16 -0.16)">
      <defs>
       <path id="DejaVuSerif-31" d="M 909 0 
L 909 331 
L 1722 331 
L 1722 4213 
L 781 3603 
L 781 4013 
L 1919 4750 
L 2350 4750 
L 2350 331 
L 3163 331 
L 3163 0 
L 909 0 
z
" transform="scale(0.015625)"/>
      </defs>
      <use xlink:href="#DejaVuSerif-2212"/>
      <use xlink:href="#DejaVuSerif-31" x="83.789062"/>
     </g>
    </g>
   </g>
   <g id="xtick_9">
    <g id="line2d_12">
     <path d="M 274.12313 168.179353 
L 277.46629 169.092348 
" style="fill: none; stroke: #000000; stroke-width: 0.8; stroke-linecap: square"/>
    </g>
    <g id="text_9">
     <!-- 0 -->
     <g transform="translate(288.767703 178.14047)scale(0.16 -0.16)">
      <use xlink:href="#DejaVuSerif-30"/>
     </g>
    </g>
   </g>
   <g id="xtick_10">
    <g id="line2d_13">
     <path d="M 275.264277 142.990733 
L 278.645394 143.882789 
" style="fill: none; stroke: #000000; stroke-width: 0.8; stroke-linecap: square"/>
    </g>
    <g id="text_10">
     <!-- 1 -->
     <g transform="translate(290.120363 153.00232)scale(0.16 -0.16)">
      <use xlink:href="#DejaVuSerif-31"/>
     </g>
    </g>
   </g>
   <g id="xtick_11">
    <g id="line2d_14">
     <path d="M 276.430625 117.245875 
L 279.850568 118.115838 
" style="fill: none; stroke: #000000; stroke-width: 0.8; stroke-linecap: square"/>
    </g>
    <g id="text_11">
     <!-- 2 -->
     <g transform="translate(291.502804 127.310703)scale(0.16 -0.16)">
      <use xlink:href="#DejaVuSerif-32"/>
     </g>
    </g>
   </g>
  </g>
  <g id="axes_1">
   <g id="line2d_15">
    <path d="M 214.761457 159.076439 
L 236.439616 228.947312 
L 236.363639 206.2501 
L 213.891238 199.35696 
L 206.678385 212.078225 
L 199.081988 227.667979 
L 183.641616 257.023859 
L 168.888112 203.842767 
L 161.847874 210.076263 
L 155.399936 228.667336 
L 143.917382 209.778452 
L 139.181365 205.570031 
L 131.893595 202.002923 
L 127.244692 187.988471 
L 126.329721 202.536685 
L 132.045096 180.013807 
L 133.98609 158.02192 
L 144.480151 141.876044 
L 147.323297 140.788729 
L 153.008777 139.749867 
L 155.792572 138.205288 
L 158.508958 134.772866 
L 161.160263 132.806861 
L 163.7379 136.715477 
L 176.101548 235.497089 
L 177.528812 238.122319 
L 178.749524 236.833614 
L 179.790034 221.539561 
L 180.816615 237.487637 
L 180.883617 237.788483 
L 180.586035 238.943552 
L 177.386377 204.745854 
L 175.300209 228.20182 
L 172.799927 243.102287 
L 169.863104 245.431783 
L 158.166263 211.832795 
L 153.588591 232.093362 
L 148.513223 224.583742 
L 137.713628 219.17964 
L 126.634683 216.746092 
L 115.823914 200.874579 
L 111.476236 215.167368 
L 98.951582 209.593089 
L 97.811495 203.912421 
L 97.346009 187.206826 
L 97.604909 158.478732 
L 108.540209 178.33492 
L 119.815193 118.556814 
L 146.822702 109.807695 
L 169.152116 100.512054 
" clip-path="url(#p8f48d6c125)" style="fill: none; stroke: #4b0082; stroke-width: 2; stroke-linecap: square"/>
   </g>
   <g id="line2d_16">
    <path d="M 214.761457 159.076439 
L 236.439616 228.947312 
L 236.363639 206.2501 
L 213.891238 199.35696 
L 206.678385 212.078225 
L 199.081988 227.667979 
L 183.641616 257.023859 
L 168.888112 203.842767 
L 161.847874 210.076263 
L 155.399936 228.667336 
L 143.917382 209.778452 
L 139.181365 205.570031 
L 131.893595 202.002923 
L 127.244692 187.988471 
L 126.329721 202.536685 
L 132.045096 180.013807 
L 133.98609 158.02192 
L 144.480151 141.876044 
L 147.323297 140.788729 
L 153.008777 139.749867 
L 155.792572 138.205288 
L 158.508958 134.772866 
L 161.160263 132.806861 
L 163.7379 136.715477 
L 176.101548 235.497089 
L 177.528812 238.122319 
L 178.749524 236.833614 
L 179.790034 221.539561 
L 180.816615 237.487637 
L 180.883617 237.788483 
L 180.586035 238.943552 
L 177.386377 204.745854 
L 175.300209 228.20182 
L 172.799927 243.102287 
L 169.863104 245.431783 
L 158.166263 211.832795 
L 153.588591 232.093362 
L 148.513223 224.583742 
L 137.713628 219.17964 
L 126.634683 216.746092 
L 115.823914 200.874579 
L 111.476236 215.167368 
L 98.951582 209.593089 
L 97.811495 203.912421 
L 97.346009 187.206826 
L 97.604909 158.478732 
L 108.540209 178.33492 
L 119.815193 118.556814 
L 146.822702 109.807695 
L 169.152116 100.512054 
" clip-path="url(#p8f48d6c125)" style="fill: none; stroke-dasharray: 7.4,3.2; stroke-dashoffset: 0; stroke: #fa8072; stroke-width: 2"/>
   </g>
   <g id="text_12">
    <!-- $\ell_{Lap}=1276.2494$ -->
    <g transform="translate(98.256 55.726764)scale(0.192 -0.192)">
     <defs>
      <path id="Cmmi10-60" d="M 153 475 
Q 125 475 94 509 
Q 63 544 63 575 
Q 63 628 594 1113 
Q 594 1141 592 1159 
Q 591 1178 588 1197 
Q 588 1472 631 1758 
Q 675 2044 751 2328 
Q 828 2613 943 2922 
Q 1059 3231 1178 3463 
Q 1384 3884 1628 4198 
Q 1872 4513 2169 4513 
Q 2372 4513 2459 4373 
Q 2547 4234 2547 4025 
Q 2547 2853 991 1269 
Q 966 994 966 878 
Q 966 78 1331 78 
Q 1488 78 1642 161 
Q 1797 244 1908 341 
Q 2019 438 2216 628 
Q 2228 641 2253 641 
Q 2288 641 2319 603 
Q 2350 566 2350 531 
Q 2350 509 2322 488 
Q 2038 209 1809 56 
Q 1581 -97 1319 -97 
Q 981 -97 817 193 
Q 653 484 609 884 
Q 438 713 191 488 
Q 184 475 153 475 
z
M 1044 1575 
Q 1384 1938 1681 2338 
Q 1978 2738 2176 3180 
Q 2375 3622 2375 4044 
Q 2375 4347 2163 4347 
Q 1934 4347 1696 3801 
Q 1459 3256 1290 2622 
Q 1122 1988 1044 1575 
z
" transform="scale(0.015625)"/>
      <path id="Cmmi10-4c" d="M 300 0 
Q 238 0 238 84 
Q 241 100 250 139 
Q 259 178 276 201 
Q 294 225 319 225 
Q 709 225 863 269 
Q 947 297 984 441 
L 1863 3956 
Q 1875 4019 1875 4044 
Q 1875 4113 1797 4122 
Q 1678 4147 1338 4147 
Q 1275 4147 1275 4231 
Q 1297 4313 1309 4342 
Q 1322 4372 1381 4372 
L 3272 4372 
Q 3328 4372 3328 4288 
Q 3319 4222 3306 4184 
Q 3294 4147 3244 4147 
Q 2772 4147 2613 4116 
Q 2456 4088 2419 3928 
L 1544 416 
Q 1516 338 1516 275 
Q 1516 225 1734 225 
L 2328 225 
Q 2831 225 3143 425 
Q 3456 625 3606 876 
Q 3756 1128 3857 1398 
Q 3959 1669 4006 1678 
L 4063 1678 
Q 4128 1678 4128 1594 
L 3559 44 
Q 3550 0 3500 0 
L 300 0 
z
" transform="scale(0.015625)"/>
      <path id="Cmmi10-61" d="M 1113 -72 
Q 709 -72 476 233 
Q 244 538 244 953 
Q 244 1363 456 1803 
Q 669 2244 1030 2536 
Q 1391 2828 1806 2828 
Q 1997 2828 2147 2725 
Q 2297 2622 2381 2444 
Q 2453 2700 2663 2700 
Q 2744 2700 2798 2651 
Q 2853 2603 2853 2522 
Q 2853 2503 2851 2493 
Q 2850 2484 2847 2472 
L 2400 684 
Q 2356 494 2356 372 
Q 2356 97 2541 97 
Q 2741 97 2845 351 
Q 2950 606 3022 941 
Q 3034 978 3072 978 
L 3150 978 
Q 3175 978 3190 956 
Q 3206 934 3206 916 
Q 3094 469 2961 198 
Q 2828 -72 2528 -72 
Q 2313 -72 2147 54 
Q 1981 181 1941 391 
Q 1528 -72 1113 -72 
z
M 1119 97 
Q 1350 97 1567 270 
Q 1784 444 1941 678 
Q 1947 684 1947 697 
L 2291 2088 
L 2297 2106 
Q 2259 2334 2132 2498 
Q 2006 2663 1791 2663 
Q 1575 2663 1389 2486 
Q 1203 2309 1075 2069 
Q 950 1813 836 1366 
Q 722 919 722 672 
Q 722 450 817 273 
Q 913 97 1119 97 
z
" transform="scale(0.015625)"/>
      <path id="Cmmi10-70" d="M -159 -1241 
Q -219 -1241 -219 -1159 
Q -197 -1019 -134 -1019 
Q 66 -1019 145 -983 
Q 225 -947 269 -800 
L 991 2081 
Q 1038 2200 1038 2388 
Q 1038 2663 850 2663 
Q 650 2663 553 2423 
Q 456 2184 366 1819 
Q 366 1778 313 1778 
L 238 1778 
Q 222 1778 203 1801 
Q 184 1825 184 1844 
Q 253 2122 317 2315 
Q 381 2509 517 2668 
Q 653 2828 856 2828 
Q 1075 2828 1240 2704 
Q 1406 2581 1453 2369 
Q 1628 2572 1840 2700 
Q 2053 2828 2278 2828 
Q 2547 2828 2745 2684 
Q 2944 2541 3044 2308 
Q 3144 2075 3144 1806 
Q 3144 1394 2933 953 
Q 2722 513 2361 220 
Q 2000 -72 1588 -72 
Q 1400 -72 1248 34 
Q 1097 141 1013 313 
L 722 -825 
Q 706 -919 703 -934 
Q 703 -1019 1125 -1019 
Q 1191 -1019 1191 -1100 
Q 1169 -1184 1155 -1212 
Q 1141 -1241 1081 -1241 
L -159 -1241 
z
M 1594 97 
Q 1816 97 2006 280 
Q 2197 463 2316 691 
Q 2403 863 2479 1111 
Q 2556 1359 2612 1640 
Q 2669 1922 2669 2088 
Q 2669 2234 2630 2362 
Q 2591 2491 2502 2577 
Q 2413 2663 2266 2663 
Q 2031 2663 1823 2495 
Q 1616 2328 1447 2081 
L 1447 2059 
L 1094 647 
Q 1138 419 1263 258 
Q 1388 97 1594 97 
z
" transform="scale(0.015625)"/>
      <path id="Cmr10-3d" d="M 481 850 
Q 428 850 393 890 
Q 359 931 359 978 
Q 359 1031 393 1068 
Q 428 1106 481 1106 
L 4500 1106 
Q 4547 1106 4581 1068 
Q 4616 1031 4616 978 
Q 4616 931 4581 890 
Q 4547 850 4500 850 
L 481 850 
z
M 481 2094 
Q 428 2094 393 2131 
Q 359 2169 359 2222 
Q 359 2269 393 2309 
Q 428 2350 481 2350 
L 4500 2350 
Q 4547 2350 4581 2309 
Q 4616 2269 4616 2222 
Q 4616 2169 4581 2131 
Q 4547 2094 4500 2094 
L 481 2094 
z
" transform="scale(0.015625)"/>
      <path id="Cmr10-31" d="M 594 0 
L 594 225 
Q 1394 225 1394 428 
L 1394 3788 
Q 1063 3628 556 3628 
L 556 3853 
Q 1341 3853 1741 4263 
L 1831 4263 
Q 1853 4263 1873 4245 
Q 1894 4228 1894 4206 
L 1894 428 
Q 1894 225 2694 225 
L 2694 0 
L 594 0 
z
" transform="scale(0.015625)"/>
      <path id="Cmr10-32" d="M 319 0 
L 319 172 
Q 319 188 331 206 
L 1325 1306 
Q 1550 1550 1690 1715 
Q 1831 1881 1968 2097 
Q 2106 2313 2186 2536 
Q 2266 2759 2266 3009 
Q 2266 3272 2169 3511 
Q 2072 3750 1880 3894 
Q 1688 4038 1416 4038 
Q 1138 4038 916 3870 
Q 694 3703 603 3438 
Q 628 3444 672 3444 
Q 816 3444 917 3347 
Q 1019 3250 1019 3097 
Q 1019 2950 917 2848 
Q 816 2747 672 2747 
Q 522 2747 420 2851 
Q 319 2956 319 3097 
Q 319 3338 409 3548 
Q 500 3759 670 3923 
Q 841 4088 1055 4175 
Q 1269 4263 1509 4263 
Q 1875 4263 2190 4108 
Q 2506 3953 2690 3670 
Q 2875 3388 2875 3009 
Q 2875 2731 2753 2481 
Q 2631 2231 2440 2026 
Q 2250 1822 1953 1562 
Q 1656 1303 1563 1216 
L 838 519 
L 1453 519 
Q 1906 519 2211 526 
Q 2516 534 2534 550 
Q 2609 631 2688 1141 
L 2875 1141 
L 2694 0 
L 319 0 
z
" transform="scale(0.015625)"/>
      <path id="Cmr10-37" d="M 1113 166 
Q 1113 522 1175 862 
Q 1238 1203 1358 1536 
Q 1478 1869 1648 2189 
Q 1819 2509 2022 2791 
L 2606 3603 
L 1875 3603 
Q 738 3603 703 3572 
Q 619 3469 544 2981 
L 359 2981 
L 569 4325 
L 756 4325 
L 756 4306 
Q 756 4191 1147 4156 
Q 1538 4122 1913 4122 
L 3103 4122 
L 3103 3956 
Q 3103 3950 3101 3947 
Q 3100 3944 3097 3938 
L 2216 2700 
Q 1891 2219 1809 1631 
Q 1728 1044 1728 166 
Q 1728 41 1637 -50 
Q 1547 -141 1422 -141 
Q 1294 -141 1203 -50 
Q 1113 41 1113 166 
z
" transform="scale(0.015625)"/>
      <path id="Cmr10-36" d="M 1600 -141 
Q 1203 -141 937 70 
Q 672 281 526 617 
Q 381 953 325 1322 
Q 269 1691 269 2069 
Q 269 2575 466 3084 
Q 663 3594 1045 3928 
Q 1428 4263 1953 4263 
Q 2172 4263 2361 4180 
Q 2550 4097 2658 3936 
Q 2766 3775 2766 3547 
Q 2766 3416 2677 3327 
Q 2588 3238 2456 3238 
Q 2331 3238 2240 3328 
Q 2150 3419 2150 3547 
Q 2150 3672 2240 3762 
Q 2331 3853 2456 3853 
L 2491 3853 
Q 2409 3969 2261 4023 
Q 2113 4078 1953 4078 
Q 1759 4078 1595 3993 
Q 1431 3909 1300 3765 
Q 1169 3622 1081 3448 
Q 994 3275 945 3053 
Q 897 2831 884 2637 
Q 872 2444 872 2150 
Q 984 2413 1190 2580 
Q 1397 2747 1656 2747 
Q 1941 2747 2175 2631 
Q 2409 2516 2578 2311 
Q 2747 2106 2836 1843 
Q 2925 1581 2925 1313 
Q 2925 938 2758 598 
Q 2591 259 2287 59 
Q 1984 -141 1600 -141 
z
M 1600 63 
Q 1847 63 1997 175 
Q 2147 288 2217 473 
Q 2288 659 2305 848 
Q 2322 1038 2322 1313 
Q 2322 1675 2287 1931 
Q 2253 2188 2100 2383 
Q 1947 2578 1631 2578 
Q 1372 2578 1205 2403 
Q 1038 2228 961 1961 
Q 884 1694 884 1447 
Q 884 1363 891 1319 
Q 891 1309 889 1303 
Q 888 1297 884 1288 
Q 884 1013 940 731 
Q 997 450 1156 256 
Q 1316 63 1600 63 
z
" transform="scale(0.015625)"/>
      <path id="Cmmi10-3a" d="M 538 353 
Q 538 497 644 600 
Q 750 703 891 703 
Q 978 703 1062 656 
Q 1147 609 1194 525 
Q 1241 441 1241 353 
Q 1241 213 1137 106 
Q 1034 0 891 0 
Q 750 0 644 106 
Q 538 213 538 353 
z
" transform="scale(0.015625)"/>
      <path id="Cmr10-34" d="M 178 1056 
L 178 1281 
L 2156 4231 
Q 2178 4263 2222 4263 
L 2316 4263 
Q 2388 4263 2388 4191 
L 2388 1281 
L 3016 1281 
L 3016 1056 
L 2388 1056 
L 2388 428 
Q 2388 297 2575 261 
Q 2763 225 3009 225 
L 3009 0 
L 1247 0 
L 1247 225 
Q 1494 225 1681 261 
Q 1869 297 1869 428 
L 1869 1056 
L 178 1056 
z
M 391 1281 
L 1906 1281 
L 1906 3547 
L 391 1281 
z
" transform="scale(0.015625)"/>
      <path id="Cmr10-39" d="M 722 269 
Q 897 63 1331 63 
Q 1575 63 1786 228 
Q 1997 394 2113 634 
Q 2247 906 2284 1214 
Q 2322 1522 2322 1978 
Q 2213 1719 2008 1553 
Q 1803 1388 1538 1388 
Q 1166 1388 873 1589 
Q 581 1791 425 2120 
Q 269 2450 269 2822 
Q 269 3206 444 3539 
Q 619 3872 928 4067 
Q 1238 4263 1631 4263 
Q 2019 4263 2280 4052 
Q 2541 3841 2678 3508 
Q 2816 3175 2870 2803 
Q 2925 2431 2925 2069 
Q 2925 1575 2744 1061 
Q 2563 547 2202 203 
Q 1841 -141 1331 -141 
Q 953 -141 690 37 
Q 428 216 428 575 
Q 428 706 517 795 
Q 606 884 738 884 
Q 866 884 955 795 
Q 1044 706 1044 575 
Q 1044 450 953 359 
Q 863 269 738 269 
L 722 269 
z
M 1563 1556 
Q 1825 1556 1992 1732 
Q 2159 1909 2234 2171 
Q 2309 2434 2309 2694 
L 2309 2816 
L 2309 2841 
Q 2309 3322 2168 3700 
Q 2028 4078 1631 4078 
Q 1378 4078 1220 3967 
Q 1063 3856 988 3672 
Q 913 3488 892 3278 
Q 872 3069 872 2822 
Q 872 2459 906 2203 
Q 941 1947 1094 1751 
Q 1247 1556 1563 1556 
z
" transform="scale(0.015625)"/>
     </defs>
     <use xlink:href="#Cmmi10-60" transform="translate(0 0.484375)"/>
     <use xlink:href="#Cmmi10-4c" transform="translate(41.601562 -16.521875)scale(0.7)"/>
     <use xlink:href="#Cmmi10-61" transform="translate(89.213867 -16.521875)scale(0.7)"/>
     <use xlink:href="#Cmmi10-70" transform="translate(126.162109 -16.521875)scale(0.7)"/>
     <use xlink:href="#Cmr10-3d" transform="translate(185.303125 0.484375)"/>
     <use xlink:href="#Cmr10-31" transform="translate(280.547266 0.484375)"/>
     <use xlink:href="#Cmr10-32" transform="translate(330.547266 0.484375)"/>
     <use xlink:href="#Cmr10-37" transform="translate(380.547266 0.484375)"/>
     <use xlink:href="#Cmr10-36" transform="translate(430.547266 0.484375)"/>
     <use xlink:href="#Cmmi10-3a" transform="translate(480.547266 0.484375)"/>
     <use xlink:href="#Cmr10-32" transform="translate(508.232812 0.484375)"/>
     <use xlink:href="#Cmr10-34" transform="translate(558.232812 0.484375)"/>
     <use xlink:href="#Cmr10-39" transform="translate(608.232812 0.484375)"/>
     <use xlink:href="#Cmr10-34" transform="translate(658.232812 0.484375)"/>
    </g>
   </g>
  </g>
  <g id="patch_6">
   <path d="M 359.183382 306.72 
L 604.176618 306.72 
L 604.176618 61.726764 
L 359.183382 61.726764 
z
" style="fill: #ffffff"/>
  </g>
  <g id="pane3d_4">
   <g id="patch_7">
    <path d="M 377.682061 246.312519 
L 458.586829 178.496539 
L 457.462175 80.693772 
L 372.685697 142.559784 
" style="fill: #f2f2f2; opacity: 0.5; stroke: #f2f2f2; stroke-linejoin: miter"/>
   </g>
  </g>
  <g id="pane3d_5">
   <g id="patch_8">
    <path d="M 458.586829 178.496539 
L 588.410114 216.231042 
L 593.043049 115.059571 
L 457.462175 80.693772 
" style="fill: #e6e6e6; opacity: 0.5; stroke: #e6e6e6; stroke-linejoin: miter"/>
   </g>
  </g>
  <g id="pane3d_6">
   <g id="patch_9">
    <path d="M 377.682061 246.312519 
L 515.301084 291.258892 
L 588.410114 216.231042 
L 458.586829 178.496539 
" style="fill: #ececec; opacity: 0.5; stroke: #ececec; stroke-linejoin: miter"/>
   </g>
  </g>
  <g id="axis3d_4">
   <g id="line2d_17">
    <path d="M 377.682061 246.312519 
L 515.301084 291.258892 
" style="fill: none; stroke: #000000; stroke-width: 0.8; stroke-linecap: square"/>
   </g>
   <g id="Line3DCollection_4">
    <path d="M 410.253848 256.950465 
L 489.417186 187.457706 
L 489.60804 88.841811 
" style="fill: none; stroke: #b0b0b0; stroke-width: 0.8"/>
    <path d="M 446.021837 268.63229 
L 523.198634 197.27664 
L 524.867925 97.779164 
" style="fill: none; stroke: #b0b0b0; stroke-width: 0.8"/>
    <path d="M 482.797954 280.64337 
L 557.851477 207.348853 
L 561.077611 106.957264 
" style="fill: none; stroke: #b0b0b0; stroke-width: 0.8"/>
   </g>
   <g id="xtick_12">
    <g id="line2d_18">
     <path d="M 410.94373 256.344859 
L 408.871095 258.164301 
" style="fill: none; stroke: #000000; stroke-width: 0.8; stroke-linecap: square"/>
    </g>
    <g id="text_13">
     <!-- −2 -->
     <g transform="translate(390.955575 285.005994)scale(0.16 -0.16)">
      <use xlink:href="#DejaVuSerif-2212"/>
      <use xlink:href="#DejaVuSerif-32" x="83.789062"/>
     </g>
    </g>
   </g>
   <g id="xtick_13">
    <g id="line2d_19">
     <path d="M 446.695173 268.009741 
L 444.672208 269.880123 
" style="fill: none; stroke: #000000; stroke-width: 0.8; stroke-linecap: square"/>
    </g>
    <g id="text_14">
     <!-- 0 -->
     <g transform="translate(433.470475 296.957962)scale(0.16 -0.16)">
      <use xlink:href="#DejaVuSerif-30"/>
     </g>
    </g>
   </g>
   <g id="xtick_14">
    <g id="line2d_20">
     <path d="M 483.453531 280.003157 
L 481.483879 281.926647 
" style="fill: none; stroke: #000000; stroke-width: 0.8; stroke-linecap: square"/>
    </g>
    <g id="text_15">
     <!-- 2 -->
     <g transform="translate(470.295201 309.24821)scale(0.16 -0.16)">
      <use xlink:href="#DejaVuSerif-32"/>
     </g>
    </g>
   </g>
  </g>
  <g id="axis3d_5">
   <g id="line2d_21">
    <path d="M 588.410114 216.231042 
L 515.301084 291.258892 
" style="fill: none; stroke: #000000; stroke-width: 0.8; stroke-linecap: square"/>
   </g>
   <g id="Line3DCollection_5">
    <path d="M 379.632932 137.490008 
L 384.288943 240.774499 
L 521.295599 285.107045 
" style="fill: none; stroke: #b0b0b0; stroke-width: 0.8"/>
    <path d="M 402.237652 120.994113 
L 405.81467 222.731208 
L 540.79618 265.094651 
" style="fill: none; stroke: #b0b0b0; stroke-width: 0.8"/>
    <path d="M 423.831366 105.236004 
L 426.418373 205.460776 
L 559.418589 245.983479 
" style="fill: none; stroke: #b0b0b0; stroke-width: 0.8"/>
    <path d="M 444.480416 90.167268 
L 446.15805 188.914587 
L 577.220839 227.713991 
" style="fill: none; stroke: #b0b0b0; stroke-width: 0.8"/>
   </g>
   <g id="xtick_15">
    <g id="line2d_22">
     <path d="M 520.141104 284.733475 
L 523.60757 285.855152 
" style="fill: none; stroke: #000000; stroke-width: 0.8; stroke-linecap: square"/>
    </g>
    <g id="text_16">
     <!-- −2 -->
     <g transform="translate(522.369521 310.673072)scale(0.16 -0.16)">
      <use xlink:href="#DejaVuSerif-2212"/>
      <use xlink:href="#DejaVuSerif-32" x="83.789062"/>
     </g>
    </g>
   </g>
   <g id="xtick_16">
    <g id="line2d_23">
     <path d="M 539.660076 264.738089 
L 543.071255 265.808675 
" style="fill: none; stroke: #000000; stroke-width: 0.8; stroke-linecap: square"/>
    </g>
    <g id="text_17">
     <!-- 0 -->
     <g transform="translate(548.289632 290.338911)scale(0.16 -0.16)">
      <use xlink:href="#DejaVuSerif-30"/>
     </g>
    </g>
   </g>
   <g id="xtick_17">
    <g id="line2d_24">
     <path d="M 558.300409 245.64279 
L 561.657708 246.665697 
" style="fill: none; stroke: #000000; stroke-width: 0.8; stroke-linecap: square"/>
    </g>
    <g id="text_18">
     <!-- 2 -->
     <g transform="translate(566.640082 270.921029)scale(0.16 -0.16)">
      <use xlink:href="#DejaVuSerif-32"/>
     </g>
    </g>
   </g>
   <g id="xtick_18">
    <g id="line2d_25">
     <path d="M 576.120122 227.388138 
L 579.424927 228.366482 
" style="fill: none; stroke: #000000; stroke-width: 0.8; stroke-linecap: square"/>
    </g>
    <g id="text_19">
     <!-- 4 -->
     <g transform="translate(584.181861 252.358859)scale(0.16 -0.16)">
      <use xlink:href="#DejaVuSerif-34"/>
     </g>
    </g>
   </g>
  </g>
  <g id="axis3d_6">
   <g id="line2d_26">
    <path d="M 588.410114 216.231042 
L 593.043049 115.059571 
" style="fill: none; stroke: #000000; stroke-width: 0.8; stroke-linecap: square"/>
   </g>
   <g id="Line3DCollection_6">
    <path d="M 588.571876 212.698565 
L 458.54748 175.074718 
L 377.507893 242.695805 
" style="fill: none; stroke: #b0b0b0; stroke-width: 0.8"/>
    <path d="M 589.527797 191.823699 
L 458.315074 154.864073 
L 376.478243 221.314461 
" style="fill: none; stroke: #b0b0b0; stroke-width: 0.8"/>
    <path d="M 590.501526 170.559949 
L 458.078546 134.29502 
L 375.428675 199.519503 
" style="fill: none; stroke: #b0b0b0; stroke-width: 0.8"/>
    <path d="M 591.493565 148.896344 
L 457.837787 113.35794 
L 374.358605 177.298811 
" style="fill: none; stroke: #b0b0b0; stroke-width: 0.8"/>
    <path d="M 592.504436 126.821499 
L 457.59268 92.042868 
L 373.267427 154.639788 
" style="fill: none; stroke: #b0b0b0; stroke-width: 0.8"/>
   </g>
   <g id="xtick_19">
    <g id="line2d_27">
     <path d="M 587.480533 212.382774 
L 590.757161 213.330899 
" style="fill: none; stroke: #000000; stroke-width: 0.8; stroke-linecap: square"/>
    </g>
    <g id="text_20">
     <!-- −2 -->
     <g transform="translate(595.049966 222.259199)scale(0.16 -0.16)">
      <use xlink:href="#DejaVuSerif-2212"/>
      <use xlink:href="#DejaVuSerif-32" x="83.789062"/>
     </g>
    </g>
   </g>
   <g id="xtick_20">
    <g id="line2d_28">
     <path d="M 588.426004 191.51335 
L 591.734031 192.445145 
" style="fill: none; stroke: #000000; stroke-width: 0.8; stroke-linecap: square"/>
    </g>
    <g id="text_21">
     <!-- −1 -->
     <g transform="translate(596.170811 201.429144)scale(0.16 -0.16)">
      <use xlink:href="#DejaVuSerif-2212"/>
      <use xlink:href="#DejaVuSerif-31" x="83.789062"/>
     </g>
    </g>
   </g>
   <g id="xtick_21">
    <g id="line2d_29">
     <path d="M 589.389081 170.255298 
L 592.729115 171.169989 
" style="fill: none; stroke: #000000; stroke-width: 0.8; stroke-linecap: square"/>
    </g>
    <g id="text_22">
     <!-- 0 -->
     <g transform="translate(604.016218 180.212328)scale(0.16 -0.16)">
      <use xlink:href="#DejaVuSerif-30"/>
     </g>
    </g>
   </g>
   <g id="xtick_22">
    <g id="line2d_30">
     <path d="M 590.37026 148.597663 
L 593.742926 149.494438 
" style="fill: none; stroke: #000000; stroke-width: 0.8; stroke-linecap: square"/>
    </g>
    <g id="text_23">
     <!-- 1 -->
     <g transform="translate(605.179271 158.597877)scale(0.16 -0.16)">
      <use xlink:href="#DejaVuSerif-31"/>
     </g>
    </g>
   </g>
   <g id="xtick_23">
    <g id="line2d_31">
     <path d="M 591.370058 126.52907 
L 594.775997 127.40708 
" style="fill: none; stroke: #000000; stroke-width: 0.8; stroke-linecap: square"/>
    </g>
    <g id="text_24">
     <!-- 2 -->
     <g transform="translate(606.364328 136.574508)scale(0.16 -0.16)">
      <use xlink:href="#DejaVuSerif-32"/>
     </g>
    </g>
   </g>
  </g>
  <g id="axes_2">
   <g id="line2d_32">
    <path d="M 530.086276 160.881522 
L 551.920318 224.890032 
L 551.709419 206.733457 
L 529.167553 203.658938 
L 521.991188 214.960614 
L 514.428916 228.665251 
L 499.018678 254.323238 
L 484.249636 208.503038 
L 477.220566 213.769078 
L 470.766006 229.625348 
L 459.313051 212.920187 
L 454.587702 209.023043 
L 447.308826 205.329118 
L 442.690334 192.608726 
L 441.732585 204.785861 
L 447.461985 183.486961 
L 449.4444 164.411314 
L 459.928619 150.081678 
L 462.762643 149.090019 
L 468.428561 148.147769 
L 471.203658 146.830712 
L 473.912425 143.91781 
L 476.554528 142.280046 
L 479.120516 145.688314 
L 491.4733 231.430328 
L 492.903844 233.865473 
L 494.125453 232.924583 
L 495.157488 219.88647 
L 496.193631 234.08455 
L 496.259851 234.561473 
L 495.96152 235.783586 
L 492.738819 206.957728 
L 490.662226 227.402628 
L 488.163643 240.48537 
L 485.223389 242.692235 
L 473.537968 214.143164 
L 468.945699 231.689172 
L 463.879502 225.252761 
L 453.092824 220.536112 
L 442.021766 218.168347 
L 431.257977 204.004369 
L 426.857128 215.979074 
L 414.304478 209.365402 
L 413.171804 203.922174 
L 412.761266 188.955434 
L 413.12605 163.660594 
L 423.918555 179.02454 
L 435.345854 126.628486 
L 462.261747 118.003482 
L 484.513967 109.693682 
" clip-path="url(#p37d190c796)" style="fill: none; stroke: #4b0082; stroke-width: 2; stroke-linecap: square"/>
   </g>
   <g id="line2d_33">
    <path d="M 529.89666 170.610345 
L 551.790743 229.245561 
L 551.547785 212.227753 
L 529.125338 205.829051 
L 522.248558 199.242576 
L 514.456983 226.523941 
L 498.976407 261.013918 
L 484.250576 211.378536 
L 477.226349 215.451832 
L 470.78217 232.176481 
L 459.400311 220.606164 
L 454.591133 209.278693 
L 447.437711 213.090965 
L 442.894721 203.635088 
L 441.710022 203.601925 
L 447.451375 182.839156 
L 449.519061 169.263716 
L 460.070158 163.209725 
L 462.826923 155.815217 
L 468.560266 166.648478 
L 471.257437 155.910761 
L 473.884807 138.107383 
L 476.520044 132.746148 
L 479.127 148.260974 
L 491.483438 227.922299 
L 492.888812 238.122319 
L 494.12388 233.310505 
L 495.165279 218.158531 
L 496.243471 224.116617 
L 496.231254 240.246092 
L 495.961988 235.688072 
L 492.773654 196.7625 
L 490.652782 231.144483 
L 488.148386 251.228952 
L 485.22393 237.505151 
L 473.550452 216.607221 
L 468.93573 230.295507 
L 463.874786 224.750255 
L 452.918553 208.221031 
L 441.941762 213.967007 
L 431.317627 206.525037 
L 426.632339 207.245336 
L 414.151637 204.467331 
L 413.23286 205.852628 
L 412.733136 188.065276 
L 413.176223 165.274049 
L 423.587858 166.594057 
L 435.509387 134.362957 
L 462.404796 132.83548 
L 484.512171 100.78457 
" clip-path="url(#p37d190c796)" style="fill: none; stroke-dasharray: 3.5,5.775; stroke-dashoffset: 0; stroke: #32cd32; stroke-width: 3.5"/>
   </g>
   <g id="text_25">
    <!-- $\ell_{Gaus}=0.6543$ -->
    <g transform="translate(423.696 55.726764)scale(0.192 -0.192)">
     <defs>
      <path id="Cmmi10-47" d="M 934 1403 
Q 934 1006 1092 707 
Q 1250 409 1547 246 
Q 1844 84 2234 84 
Q 2616 84 2959 264 
Q 3303 444 3391 781 
L 3531 1331 
Q 3534 1350 3537 1370 
Q 3541 1391 3541 1403 
Q 3541 1469 3500 1478 
Q 3341 1522 2859 1522 
Q 2797 1522 2797 1606 
Q 2816 1684 2831 1715 
Q 2847 1747 2906 1747 
L 4556 1747 
Q 4622 1747 4622 1663 
Q 4619 1647 4609 1609 
Q 4600 1572 4584 1547 
Q 4569 1522 4538 1522 
Q 4325 1522 4226 1487 
Q 4128 1453 4091 1306 
L 3950 756 
L 3769 44 
Q 3759 0 3713 0 
Q 3659 0 3559 144 
Q 3459 288 3419 384 
Q 3197 122 2825 -9 
Q 2453 -141 2059 -141 
Q 1563 -141 1164 84 
Q 766 309 545 709 
Q 325 1109 325 1613 
Q 325 2150 564 2673 
Q 803 3197 1212 3611 
Q 1622 4025 2142 4269 
Q 2663 4513 3194 4513 
Q 3406 4513 3601 4447 
Q 3797 4381 3964 4251 
Q 4131 4122 4238 3950 
L 4744 4500 
Q 4744 4513 4775 4513 
L 4813 4513 
Q 4838 4513 4855 4492 
Q 4872 4472 4872 4447 
L 4434 2719 
Q 4434 2675 4384 2675 
L 4269 2675 
Q 4219 2675 4219 2747 
Q 4244 2888 4244 3078 
Q 4244 3394 4137 3672 
Q 4031 3950 3806 4119 
Q 3581 4288 3256 4288 
Q 2741 4288 2303 4027 
Q 1866 3766 1562 3337 
Q 1259 2909 1096 2396 
Q 934 1884 934 1403 
z
" transform="scale(0.015625)"/>
      <path id="Cmmi10-75" d="M 678 697 
Q 678 906 734 1126 
Q 791 1347 892 1617 
Q 994 1888 1069 2088 
Q 1153 2322 1153 2472 
Q 1153 2663 1013 2663 
Q 759 2663 595 2402 
Q 431 2141 353 1819 
Q 341 1778 300 1778 
L 225 1778 
Q 172 1778 172 1838 
L 172 1856 
Q 275 2238 487 2533 
Q 700 2828 1025 2828 
Q 1253 2828 1411 2678 
Q 1569 2528 1569 2297 
Q 1569 2178 1516 2047 
Q 1488 1969 1388 1706 
Q 1288 1444 1234 1272 
Q 1181 1100 1147 934 
Q 1113 769 1113 603 
Q 1113 391 1203 244 
Q 1294 97 1497 97 
Q 1906 97 2216 603 
Q 2222 628 2226 651 
Q 2231 675 2234 697 
L 2694 2553 
Q 2716 2638 2794 2698 
Q 2872 2759 2963 2759 
Q 3041 2759 3098 2709 
Q 3156 2659 3156 2578 
Q 3156 2541 3150 2528 
L 2688 684 
Q 2644 494 2644 372 
Q 2644 97 2828 97 
Q 3034 97 3136 351 
Q 3238 606 3309 941 
Q 3322 978 3359 978 
L 3438 978 
Q 3463 978 3478 956 
Q 3494 934 3494 916 
Q 3425 641 3361 444 
Q 3297 247 3159 87 
Q 3022 -72 2816 -72 
Q 2613 -72 2452 39 
Q 2291 150 2234 341 
Q 2088 153 1894 40 
Q 1700 -72 1484 -72 
Q 1116 -72 897 129 
Q 678 331 678 697 
z
" transform="scale(0.015625)"/>
      <path id="Cmmi10-73" d="M 556 391 
Q 728 97 1247 97 
Q 1472 97 1675 173 
Q 1878 250 2011 403 
Q 2144 556 2144 775 
Q 2144 941 2025 1047 
Q 1906 1153 1734 1191 
L 1388 1259 
Q 1150 1319 997 1481 
Q 844 1644 844 1875 
Q 844 2159 998 2378 
Q 1153 2597 1406 2712 
Q 1659 2828 1931 2828 
Q 2222 2828 2451 2689 
Q 2681 2550 2681 2278 
Q 2681 2131 2598 2018 
Q 2516 1906 2369 1906 
Q 2284 1906 2223 1961 
Q 2163 2016 2163 2100 
Q 2163 2175 2205 2245 
Q 2247 2316 2317 2358 
Q 2388 2400 2463 2400 
Q 2406 2538 2251 2600 
Q 2097 2663 1919 2663 
Q 1756 2663 1593 2597 
Q 1431 2531 1332 2404 
Q 1234 2278 1234 2106 
Q 1234 1991 1315 1903 
Q 1397 1816 1516 1778 
L 1888 1703 
Q 2066 1666 2214 1570 
Q 2363 1475 2448 1329 
Q 2534 1184 2534 997 
Q 2534 759 2401 528 
Q 2269 297 2075 159 
Q 1734 -72 1241 -72 
Q 900 -72 615 84 
Q 331 241 331 550 
Q 331 725 432 854 
Q 534 984 709 984 
Q 813 984 883 921 
Q 953 859 953 756 
Q 953 609 843 500 
Q 734 391 588 391 
L 556 391 
z
" transform="scale(0.015625)"/>
      <path id="Cmr10-30" d="M 1600 -141 
Q 816 -141 533 504 
Q 250 1150 250 2041 
Q 250 2597 351 3087 
Q 453 3578 754 3920 
Q 1056 4263 1600 4263 
Q 2022 4263 2290 4056 
Q 2559 3850 2700 3523 
Q 2841 3197 2892 2823 
Q 2944 2450 2944 2041 
Q 2944 1491 2842 1011 
Q 2741 531 2444 195 
Q 2147 -141 1600 -141 
z
M 1600 25 
Q 1956 25 2131 390 
Q 2306 756 2347 1200 
Q 2388 1644 2388 2144 
Q 2388 2625 2347 3031 
Q 2306 3438 2132 3767 
Q 1959 4097 1600 4097 
Q 1238 4097 1063 3765 
Q 888 3434 847 3029 
Q 806 2625 806 2144 
Q 806 1788 823 1472 
Q 841 1156 916 820 
Q 991 484 1158 254 
Q 1325 25 1600 25 
z
" transform="scale(0.015625)"/>
      <path id="Cmr10-35" d="M 556 728 
Q 622 541 758 387 
Q 894 234 1080 148 
Q 1266 63 1466 63 
Q 1928 63 2103 422 
Q 2278 781 2278 1294 
Q 2278 1516 2270 1667 
Q 2263 1819 2228 1959 
Q 2169 2184 2020 2353 
Q 1872 2522 1656 2522 
Q 1441 2522 1286 2456 
Q 1131 2391 1034 2303 
Q 938 2216 863 2119 
Q 788 2022 769 2016 
L 697 2016 
Q 681 2016 657 2036 
Q 634 2056 634 2075 
L 634 4213 
Q 634 4228 654 4245 
Q 675 4263 697 4263 
L 716 4263 
Q 1147 4056 1631 4056 
Q 2106 4056 2547 4263 
L 2566 4263 
Q 2588 4263 2606 4247 
Q 2625 4231 2625 4213 
L 2625 4153 
Q 2625 4122 2613 4122 
Q 2394 3831 2064 3668 
Q 1734 3506 1381 3506 
Q 1125 3506 856 3578 
L 856 2369 
Q 1069 2541 1236 2614 
Q 1403 2688 1663 2688 
Q 2016 2688 2295 2484 
Q 2575 2281 2725 1954 
Q 2875 1628 2875 1288 
Q 2875 903 2686 575 
Q 2497 247 2172 53 
Q 1847 -141 1466 -141 
Q 1150 -141 886 21 
Q 622 184 470 459 
Q 319 734 319 1044 
Q 319 1188 412 1278 
Q 506 1369 647 1369 
Q 788 1369 883 1276 
Q 978 1184 978 1044 
Q 978 906 883 811 
Q 788 716 647 716 
Q 625 716 597 720 
Q 569 725 556 728 
z
" transform="scale(0.015625)"/>
      <path id="Cmr10-33" d="M 609 494 
Q 759 275 1012 169 
Q 1266 63 1556 63 
Q 1928 63 2084 380 
Q 2241 697 2241 1100 
Q 2241 1281 2208 1462 
Q 2175 1644 2097 1800 
Q 2019 1956 1883 2050 
Q 1747 2144 1550 2144 
L 1125 2144 
Q 1069 2144 1069 2203 
L 1069 2259 
Q 1069 2309 1125 2309 
L 1478 2338 
Q 1703 2338 1851 2506 
Q 2000 2675 2069 2917 
Q 2138 3159 2138 3378 
Q 2138 3684 1994 3881 
Q 1850 4078 1556 4078 
Q 1313 4078 1091 3986 
Q 869 3894 738 3706 
Q 750 3709 759 3711 
Q 769 3713 781 3713 
Q 925 3713 1022 3613 
Q 1119 3513 1119 3372 
Q 1119 3234 1022 3134 
Q 925 3034 781 3034 
Q 641 3034 541 3134 
Q 441 3234 441 3372 
Q 441 3647 606 3850 
Q 772 4053 1033 4158 
Q 1294 4263 1556 4263 
Q 1750 4263 1965 4205 
Q 2181 4147 2356 4039 
Q 2531 3931 2642 3762 
Q 2753 3594 2753 3378 
Q 2753 3109 2633 2881 
Q 2513 2653 2303 2487 
Q 2094 2322 1844 2241 
Q 2122 2188 2372 2031 
Q 2622 1875 2773 1631 
Q 2925 1388 2925 1106 
Q 2925 753 2731 467 
Q 2538 181 2222 20 
Q 1906 -141 1556 -141 
Q 1256 -141 954 -26 
Q 653 88 461 316 
Q 269 544 269 863 
Q 269 1022 375 1128 
Q 481 1234 641 1234 
Q 744 1234 830 1186 
Q 916 1138 964 1050 
Q 1013 963 1013 863 
Q 1013 706 903 600 
Q 794 494 641 494 
L 609 494 
z
" transform="scale(0.015625)"/>
     </defs>
     <use xlink:href="#Cmmi10-60" transform="translate(0 0.484375)"/>
     <use xlink:href="#Cmmi10-47" transform="translate(41.601562 -16.521875)scale(0.7)"/>
     <use xlink:href="#Cmmi10-61" transform="translate(96.630859 -16.521875)scale(0.7)"/>
     <use xlink:href="#Cmmi10-75" transform="translate(133.579102 -16.521875)scale(0.7)"/>
     <use xlink:href="#Cmmi10-73" transform="translate(173.603516 -16.521875)scale(0.7)"/>
     <use xlink:href="#Cmr10-3d" transform="translate(230.283594 0.484375)"/>
     <use xlink:href="#Cmr10-30" transform="translate(325.527734 0.484375)"/>
     <use xlink:href="#Cmmi10-3a" transform="translate(375.527734 0.484375)"/>
     <use xlink:href="#Cmr10-36" transform="translate(403.213281 0.484375)"/>
     <use xlink:href="#Cmr10-35" transform="translate(453.213281 0.484375)"/>
     <use xlink:href="#Cmr10-34" transform="translate(503.213281 0.484375)"/>
     <use xlink:href="#Cmr10-33" transform="translate(553.213281 0.484375)"/>
    </g>
   </g>
  </g>
  <g id="text_26">
   <!-- $D=2, \beta_{opt}=8480.7513$ -->
   <g transform="translate(229.056 20.832)scale(0.192 -0.192)">
    <defs>
     <path id="Cmmi10-44" d="M 313 0 
Q 250 0 250 84 
Q 253 100 262 139 
Q 272 178 289 201 
Q 306 225 331 225 
Q 722 225 878 269 
Q 959 297 997 441 
L 1875 3956 
Q 1888 4019 1888 4044 
Q 1888 4113 1813 4122 
Q 1691 4147 1350 4147 
Q 1288 4147 1288 4231 
Q 1291 4247 1300 4286 
Q 1309 4325 1326 4348 
Q 1344 4372 1369 4372 
L 3669 4372 
Q 4116 4372 4450 4155 
Q 4784 3938 4962 3570 
Q 5141 3203 5141 2759 
Q 5141 2269 4937 1778 
Q 4734 1288 4368 881 
Q 4003 475 3534 237 
Q 3066 0 2572 0 
L 313 0 
z
M 1509 275 
Q 1509 225 1728 225 
L 2472 225 
Q 2828 225 3159 372 
Q 3491 519 3750 775 
Q 3991 1016 4175 1406 
Q 4359 1797 4461 2222 
Q 4563 2647 4563 3003 
Q 4563 3263 4486 3472 
Q 4409 3681 4270 3831 
Q 4131 3981 3922 4064 
Q 3713 4147 3450 4147 
L 2747 4147 
Q 2572 4147 2515 4117 
Q 2459 4088 2413 3928 
L 1538 416 
Q 1509 338 1509 275 
z
" transform="scale(0.015625)"/>
     <path id="Cmmi10-3b" d="M 634 -1153 
Q 634 -1125 659 -1100 
Q 891 -878 1019 -587 
Q 1147 -297 1147 25 
L 1147 103 
Q 1044 0 891 0 
Q 744 0 641 103 
Q 538 206 538 353 
Q 538 503 641 603 
Q 744 703 891 703 
Q 1119 703 1216 492 
Q 1313 281 1313 25 
Q 1313 -331 1170 -651 
Q 1028 -972 769 -1228 
Q 744 -1241 728 -1241 
Q 697 -1241 665 -1212 
Q 634 -1184 634 -1153 
z
" transform="scale(0.015625)"/>
     <path id="Cmmi10-af" d="M 172 -1241 
Q 153 -1241 137 -1219 
Q 122 -1197 122 -1178 
L 1106 2778 
Q 1191 3097 1353 3397 
Q 1516 3697 1761 3955 
Q 2006 4213 2300 4363 
Q 2594 4513 2925 4513 
Q 3163 4513 3355 4408 
Q 3547 4303 3658 4114 
Q 3769 3925 3769 3688 
Q 3769 3459 3681 3251 
Q 3594 3044 3437 2864 
Q 3281 2684 3103 2572 
Q 3206 2506 3287 2404 
Q 3369 2303 3419 2192 
Q 3469 2081 3497 1945 
Q 3525 1809 3525 1691 
Q 3525 1363 3384 1044 
Q 3244 725 3001 465 
Q 2759 206 2446 54 
Q 2134 -97 1806 -97 
Q 1447 -97 1159 100 
Q 872 297 763 634 
L 300 -1203 
Q 300 -1241 250 -1241 
L 172 -1241 
z
M 1819 78 
Q 2106 78 2339 267 
Q 2572 456 2723 742 
Q 2875 1028 2954 1348 
Q 3034 1669 3034 1931 
Q 3034 2256 2847 2444 
Q 2628 2363 2419 2363 
Q 1913 2363 1913 2534 
Q 1913 2759 2491 2759 
Q 2697 2759 2869 2694 
Q 3006 2800 3118 3006 
Q 3231 3213 3289 3438 
Q 3347 3663 3347 3859 
Q 3347 4069 3236 4208 
Q 3125 4347 2913 4347 
Q 2522 4347 2186 4106 
Q 1850 3866 1619 3498 
Q 1388 3131 1288 2741 
L 934 1325 
Q 900 1178 891 997 
Q 891 597 1153 337 
Q 1416 78 1819 78 
z
M 2106 2553 
Q 2203 2528 2425 2528 
Q 2534 2528 2644 2566 
Q 2638 2572 2619 2572 
Q 2550 2591 2472 2591 
Q 2181 2591 2106 2553 
z
" transform="scale(0.015625)"/>
     <path id="Cmmi10-6f" d="M 1288 -72 
Q 984 -72 748 72 
Q 513 216 384 459 
Q 256 703 256 1013 
Q 256 1447 498 1872 
Q 741 2297 1142 2562 
Q 1544 2828 1984 2828 
Q 2222 2828 2408 2747 
Q 2594 2666 2731 2519 
Q 2869 2372 2942 2175 
Q 3016 1978 3016 1747 
Q 3016 1413 2875 1089 
Q 2734 766 2489 502 
Q 2244 238 1928 83 
Q 1613 -72 1288 -72 
z
M 1300 97 
Q 1584 97 1820 290 
Q 2056 484 2207 779 
Q 2359 1075 2440 1403 
Q 2522 1731 2522 1997 
Q 2522 2275 2383 2469 
Q 2244 2663 1972 2663 
Q 1597 2663 1315 2342 
Q 1034 2022 892 1576 
Q 750 1131 750 763 
Q 750 484 892 290 
Q 1034 97 1300 97 
z
" transform="scale(0.015625)"/>
     <path id="Cmmi10-74" d="M 397 519 
Q 397 613 416 697 
L 878 2534 
L 206 2534 
Q 141 2534 141 2619 
Q 166 2759 225 2759 
L 934 2759 
L 1191 3803 
Q 1216 3888 1291 3947 
Q 1366 4006 1459 4006 
Q 1541 4006 1595 3957 
Q 1650 3909 1650 3828 
Q 1650 3809 1648 3798 
Q 1647 3788 1644 3775 
L 1388 2759 
L 2047 2759 
Q 2113 2759 2113 2675 
Q 2109 2659 2100 2621 
Q 2091 2584 2075 2559 
Q 2059 2534 2028 2534 
L 1331 2534 
L 872 684 
Q 825 503 825 372 
Q 825 97 1013 97 
Q 1294 97 1511 361 
Q 1728 625 1844 941 
Q 1869 978 1894 978 
L 1972 978 
Q 1997 978 2012 961 
Q 2028 944 2028 922 
Q 2028 909 2022 903 
Q 1881 516 1612 222 
Q 1344 -72 997 -72 
Q 744 -72 570 93 
Q 397 259 397 519 
z
" transform="scale(0.015625)"/>
     <path id="Cmr10-38" d="M 269 972 
Q 269 1356 522 1651 
Q 775 1947 1172 2144 
L 934 2297 
Q 716 2441 578 2680 
Q 441 2919 441 3181 
Q 441 3488 602 3734 
Q 763 3981 1030 4122 
Q 1297 4263 1600 4263 
Q 1884 4263 2148 4147 
Q 2413 4031 2583 3815 
Q 2753 3600 2753 3303 
Q 2753 3088 2651 2903 
Q 2550 2719 2373 2572 
Q 2197 2425 1997 2322 
L 2363 2088 
Q 2616 1922 2770 1653 
Q 2925 1384 2925 1088 
Q 2925 741 2739 456 
Q 2553 172 2247 15 
Q 1941 -141 1600 -141 
Q 1269 -141 961 -6 
Q 653 128 461 383 
Q 269 638 269 972 
z
M 616 972 
Q 616 719 755 509 
Q 894 300 1122 181 
Q 1350 63 1600 63 
Q 1972 63 2275 280 
Q 2578 497 2578 856 
Q 2578 978 2529 1098 
Q 2481 1219 2395 1317 
Q 2309 1416 2203 1478 
L 1344 2034 
Q 1144 1928 976 1765 
Q 809 1603 712 1400 
Q 616 1197 616 972 
z
M 1056 2925 
L 1831 2425 
Q 2100 2581 2272 2803 
Q 2444 3025 2444 3303 
Q 2444 3519 2323 3698 
Q 2203 3878 2009 3978 
Q 1816 4078 1594 4078 
Q 1400 4078 1203 4003 
Q 1006 3928 878 3779 
Q 750 3631 750 3431 
Q 750 3131 1056 2925 
z
" transform="scale(0.015625)"/>
    </defs>
    <use xlink:href="#Cmmi10-44" transform="translate(0 0.484375)"/>
    <use xlink:href="#Cmr10-3d" transform="translate(100.273438 0.484375)"/>
    <use xlink:href="#Cmr10-32" transform="translate(195.517578 0.484375)"/>
    <use xlink:href="#Cmmi10-3b" transform="translate(245.517578 0.484375)"/>
    <use xlink:href="#Cmmi10-af" transform="translate(290.761719 0.484375)"/>
    <use xlink:href="#Cmmi10-6f" transform="translate(347.255859 -16.521875)scale(0.7)"/>
    <use xlink:href="#Cmmi10-70" transform="translate(381.12793 -16.521875)scale(0.7)"/>
    <use xlink:href="#Cmmi10-74" transform="translate(416.333008 -16.521875)scale(0.7)"/>
    <use xlink:href="#Cmr10-3d" transform="translate(465.527734 0.484375)"/>
    <use xlink:href="#Cmr10-38" transform="translate(560.771875 0.484375)"/>
    <use xlink:href="#Cmr10-34" transform="translate(610.771875 0.484375)"/>
    <use xlink:href="#Cmr10-38" transform="translate(660.771875 0.484375)"/>
    <use xlink:href="#Cmr10-30" transform="translate(710.771875 0.484375)"/>
    <use xlink:href="#Cmmi10-3a" transform="translate(760.771875 0.484375)"/>
    <use xlink:href="#Cmr10-37" transform="translate(788.457422 0.484375)"/>
    <use xlink:href="#Cmr10-35" transform="translate(838.457422 0.484375)"/>
    <use xlink:href="#Cmr10-31" transform="translate(888.457422 0.484375)"/>
    <use xlink:href="#Cmr10-33" transform="translate(938.457422 0.484375)"/>
   </g>
  </g>
  <g id="legend_1">
   <g id="patch_10">
    <path d="M 167.665 352 
L 480.335 352 
Q 483.535 352 483.535 348.8 
L 483.535 326.915 
Q 483.535 323.715 480.335 323.715 
L 167.665 323.715 
Q 164.465 323.715 164.465 326.915 
L 164.465 348.8 
Q 164.465 352 167.665 352 
z
" style="fill: #ffffff; opacity: 0.8; stroke: #cccccc; stroke-linejoin: miter"/>
   </g>
   <g id="line2d_34">
    <path d="M 170.865 336.6725 
L 186.865 336.6725 
L 202.865 336.6725 
" style="fill: none; stroke: #4b0082; stroke-width: 2; stroke-linecap: square"/>
   </g>
   <g id="text_27">
    <!-- NTK -->
    <g transform="translate(215.665 342.2725)scale(0.16 -0.16)">
     <defs>
      <path id="DejaVuSerif-4e" d="M 313 0 
L 313 331 
L 941 331 
L 941 4331 
L 313 4331 
L 313 4666 
L 1509 4666 
L 4306 984 
L 4306 4331 
L 3681 4331 
L 3681 4666 
L 5319 4666 
L 5319 4331 
L 4691 4331 
L 4691 -91 
L 4313 -91 
L 1325 3841 
L 1325 331 
L 1953 331 
L 1953 0 
L 313 0 
z
" transform="scale(0.015625)"/>
      <path id="DejaVuSerif-54" d="M 1222 0 
L 1222 331 
L 1819 331 
L 1819 4294 
L 447 4294 
L 447 3566 
L 63 3566 
L 63 4666 
L 4206 4666 
L 4206 3566 
L 3822 3566 
L 3822 4294 
L 2450 4294 
L 2450 331 
L 3047 331 
L 3047 0 
L 1222 0 
z
" transform="scale(0.015625)"/>
      <path id="DejaVuSerif-4b" d="M 353 0 
L 353 331 
L 947 331 
L 947 4331 
L 353 4331 
L 353 4666 
L 2175 4666 
L 2175 4331 
L 1581 4331 
L 1581 2566 
L 3591 4331 
L 3084 4331 
L 3084 4666 
L 4634 4666 
L 4634 4331 
L 4109 4331 
L 2106 2572 
L 4347 331 
L 4878 331 
L 4878 0 
L 3794 0 
L 1581 2216 
L 1581 331 
L 2175 331 
L 2175 0 
L 353 0 
z
" transform="scale(0.015625)"/>
     </defs>
     <use xlink:href="#DejaVuSerif-4e"/>
     <use xlink:href="#DejaVuSerif-54" x="87.5"/>
     <use xlink:href="#DejaVuSerif-4b" x="154.199219"/>
    </g>
   </g>
   <g id="line2d_35">
    <path d="M 284.29 336.6725 
L 300.29 336.6725 
L 316.29 336.6725 
" style="fill: none; stroke-dasharray: 7.4,3.2; stroke-dashoffset: 0; stroke: #fa8072; stroke-width: 2"/>
   </g>
   <g id="text_28">
    <!-- Lap -->
    <g transform="translate(329.09 342.2725)scale(0.16 -0.16)">
     <defs>
      <path id="DejaVuSerif-4c" d="M 353 0 
L 353 331 
L 947 331 
L 947 4331 
L 353 4331 
L 353 4666 
L 2175 4666 
L 2175 4331 
L 1581 4331 
L 1581 384 
L 3713 384 
L 3713 1166 
L 4097 1166 
L 4097 0 
L 353 0 
z
" transform="scale(0.015625)"/>
      <path id="DejaVuSerif-61" d="M 2547 1044 
L 2547 1747 
L 1806 1747 
Q 1378 1747 1168 1562 
Q 959 1378 959 997 
Q 959 650 1171 447 
Q 1384 244 1747 244 
Q 2106 244 2326 466 
Q 2547 688 2547 1044 
z
M 3122 2075 
L 3122 331 
L 3634 331 
L 3634 0 
L 2547 0 
L 2547 359 
Q 2356 128 2106 18 
Q 1856 -91 1522 -91 
Q 969 -91 644 203 
Q 319 497 319 997 
Q 319 1513 691 1797 
Q 1063 2081 1741 2081 
L 2547 2081 
L 2547 2309 
Q 2547 2688 2317 2895 
Q 2088 3103 1672 3103 
Q 1328 3103 1125 2947 
Q 922 2791 872 2484 
L 575 2484 
L 575 3156 
Q 875 3284 1158 3348 
Q 1441 3413 1709 3413 
Q 2400 3413 2761 3070 
Q 3122 2728 3122 2075 
z
" transform="scale(0.015625)"/>
      <path id="DejaVuSerif-70" d="M 1313 1825 
L 1313 1497 
Q 1313 897 1542 583 
Q 1772 269 2209 269 
Q 2650 269 2876 622 
Q 3103 975 3103 1663 
Q 3103 2353 2876 2703 
Q 2650 3053 2209 3053 
Q 1772 3053 1542 2737 
Q 1313 2422 1313 1825 
z
M 738 2988 
L 184 2988 
L 184 3322 
L 1313 3322 
L 1313 2803 
Q 1481 3116 1742 3264 
Q 2003 3413 2388 3413 
Q 3000 3413 3387 2928 
Q 3775 2444 3775 1663 
Q 3775 881 3387 395 
Q 3000 -91 2388 -91 
Q 2003 -91 1742 57 
Q 1481 206 1313 519 
L 1313 -997 
L 1856 -997 
L 1856 -1331 
L 184 -1331 
L 184 -997 
L 738 -997 
L 738 2988 
z
" transform="scale(0.015625)"/>
     </defs>
     <use xlink:href="#DejaVuSerif-4c"/>
     <use xlink:href="#DejaVuSerif-61" x="66.40625"/>
     <use xlink:href="#DejaVuSerif-70" x="126.025391"/>
    </g>
   </g>
   <g id="line2d_36">
    <path d="M 391.4975 336.6725 
L 407.4975 336.6725 
L 423.4975 336.6725 
" style="fill: none; stroke-dasharray: 3.5,5.775; stroke-dashoffset: 0; stroke: #32cd32; stroke-width: 3.5"/>
   </g>
   <g id="text_29">
    <!-- Gaus -->
    <g transform="translate(436.2975 342.2725)scale(0.16 -0.16)">
     <defs>
      <path id="DejaVuSerif-47" d="M 4097 3272 
Q 3988 3856 3641 4136 
Q 3294 4416 2675 4416 
Q 1869 4416 1472 3897 
Q 1075 3378 1075 2328 
Q 1075 1300 1484 772 
Q 1894 244 2688 244 
Q 3041 244 3362 331 
Q 3684 419 3975 594 
L 3975 1797 
L 3097 1797 
L 3097 2131 
L 4609 2131 
L 4609 391 
Q 4194 150 3714 29 
Q 3234 -91 2688 -91 
Q 1631 -91 995 570 
Q 359 1231 359 2328 
Q 359 3434 996 4092 
Q 1634 4750 2713 4750 
Q 3113 4750 3539 4658 
Q 3966 4566 4447 4378 
L 4447 3272 
L 4097 3272 
z
" transform="scale(0.015625)"/>
      <path id="DejaVuSerif-75" d="M 2266 3322 
L 3341 3322 
L 3341 331 
L 3884 331 
L 3884 0 
L 2766 0 
L 2766 588 
Q 2606 256 2353 82 
Q 2100 -91 1766 -91 
Q 1213 -91 952 223 
Q 691 538 691 1209 
L 691 2988 
L 172 2988 
L 172 3322 
L 1269 3322 
L 1269 1388 
Q 1269 781 1417 556 
Q 1566 331 1947 331 
Q 2347 331 2556 625 
Q 2766 919 2766 1478 
L 2766 2988 
L 2266 2988 
L 2266 3322 
z
" transform="scale(0.015625)"/>
      <path id="DejaVuSerif-73" d="M 359 184 
L 359 959 
L 691 959 
Q 703 588 923 403 
Q 1144 219 1575 219 
Q 1963 219 2166 364 
Q 2369 509 2369 788 
Q 2369 1006 2220 1140 
Q 2072 1275 1594 1428 
L 1178 1569 
Q 750 1706 558 1912 
Q 366 2119 366 2438 
Q 366 2894 700 3153 
Q 1034 3413 1625 3413 
Q 1888 3413 2178 3344 
Q 2469 3275 2778 3144 
L 2778 2419 
L 2447 2419 
Q 2434 2741 2221 2922 
Q 2009 3103 1644 3103 
Q 1281 3103 1095 2975 
Q 909 2847 909 2591 
Q 909 2381 1050 2254 
Q 1191 2128 1613 1997 
L 2069 1856 
Q 2541 1709 2748 1489 
Q 2956 1269 2956 922 
Q 2956 450 2595 179 
Q 2234 -91 1600 -91 
Q 1278 -91 972 -22 
Q 666 47 359 184 
z
" transform="scale(0.015625)"/>
     </defs>
     <use xlink:href="#DejaVuSerif-47"/>
     <use xlink:href="#DejaVuSerif-61" x="79.882812"/>
     <use xlink:href="#DejaVuSerif-75" x="139.501953"/>
     <use xlink:href="#DejaVuSerif-73" x="203.90625"/>
    </g>
   </g>
  </g>
 </g>
 <defs>
  <clipPath id="p8f48d6c125">
   <rect x="43.823382" y="61.726764" width="244.993236" height="244.993236"/>
  </clipPath>
  <clipPath id="p37d190c796">
   <rect x="359.183382" y="61.726764" width="244.993236" height="244.993236"/>
  </clipPath>
 </defs>
</svg>
