<?xml version="1.0" encoding="utf-8" standalone="no"?>
<!DOCTYPE svg PUBLIC "-//W3C//DTD SVG 1.1//EN"
  "http://www.w3.org/Graphics/SVG/1.1/DTD/svg11.dtd">
<svg xmlns:xlink="http://www.w3.org/1999/xlink" width="576pt" height="216pt" viewBox="0 0 576 216" xmlns="http://www.w3.org/2000/svg" version="1.1">
 <metadata>
  <rdf:RDF xmlns:dc="http://purl.org/dc/elements/1.1/" xmlns:cc="http://creativecommons.org/ns#" xmlns:rdf="http://www.w3.org/1999/02/22-rdf-syntax-ns#">
   <cc:Work>
    <dc:type rdf:resource="http://purl.org/dc/dcmitype/StillImage"/>
    <dc:date>2022-06-20T22:54:52.654521</dc:date>
    <dc:format>image/svg+xml</dc:format>
    <dc:creator>
     <cc:Agent>
      <dc:title>Matplotlib v3.5.0, https://matplotlib.org/</dc:title>
     </cc:Agent>
    </dc:creator>
   </cc:Work>
  </rdf:RDF>
 </metadata>
 <defs>
  <style type="text/css">*{stroke-linejoin: round; stroke-linecap: butt}</style>
 </defs>
 <g id="figure_1">
  <g id="patch_1">
   <path d="M 0 216 
L 576 216 
L 576 0 
L 0 0 
L 0 216 
z
" style="fill: none"/>
  </g>
  <g id="axes_1">
   <g id="patch_2">
    <path d="M 46.55 174.2 
L 203.918983 174.2 
L 203.918983 10.8 
L 46.55 10.8 
z
" style="fill: #ffffff"/>
   </g>
   <g id="line2d_1">
    <path d="M 196.765847 166.772727 
L 192.757514 165.272268 
L 187.359558 163.771809 
L 180.753708 162.27135 
L 173.132835 160.770891 
L 164.696615 159.270432 
L 155.647317 157.769972 
L 146.185756 156.269513 
L 136.507528 154.769054 
L 126.799548 153.268595 
L 117.236986 151.768136 
L 107.980606 150.267677 
L 99.174576 148.767218 
L 90.944739 147.266758 
L 83.397377 145.766299 
L 76.618456 144.26584 
L 70.673345 142.765381 
L 65.606979 141.264922 
L 61.444451 139.764463 
L 58.191973 138.264004 
L 55.838186 136.763545 
L 54.355744 135.263085 
L 53.703136 133.762626 
L 53.82668 132.262167 
L 54.662636 130.761708 
L 56.139373 129.261249 
L 58.179544 127.76079 
L 60.702207 126.260331 
L 63.624857 124.759871 
L 66.865302 123.259412 
L 70.343375 121.758953 
L 73.982425 120.258494 
L 77.710584 118.758035 
L 81.461779 117.257576 
L 85.176486 115.757117 
L 88.802234 114.256657 
L 92.293851 112.756198 
L 95.613468 111.255739 
L 98.73032 109.75528 
L 101.620335 108.254821 
L 104.265571 106.754362 
L 106.653517 105.253903 
L 108.776301 103.753444 
L 110.629838 102.252984 
L 112.212958 100.752525 
L 113.526546 99.252066 
L 114.572739 97.751607 
L 115.354195 96.251148 
L 115.87348 94.750689 
L 116.132583 93.25023 
L 116.132583 91.74977 
L 115.87348 90.249311 
L 115.354195 88.748852 
L 114.572739 87.248393 
L 113.526546 85.747934 
L 112.212958 84.247475 
L 110.629838 82.747016 
L 108.776301 81.246556 
L 106.653517 79.746097 
L 104.265571 78.245638 
L 101.620335 76.745179 
L 98.73032 75.24472 
L 95.613468 73.744261 
L 92.293851 72.243802 
L 88.802234 70.743343 
L 85.176486 69.242883 
L 81.461779 67.742424 
L 77.710584 66.241965 
L 73.982425 64.741506 
L 70.343375 63.241047 
L 66.865302 61.740588 
L 63.624857 60.240129 
L 60.702207 58.739669 
L 58.179544 57.23921 
L 56.139373 55.738751 
L 54.662636 54.238292 
L 53.82668 52.737833 
L 53.703136 51.237374 
L 54.355744 49.736915 
L 55.838186 48.236455 
L 58.191973 46.735996 
L 61.444451 45.235537 
L 65.606979 43.735078 
L 70.673345 42.234619 
L 76.618456 40.73416 
L 83.397377 39.233701 
L 90.944739 37.733242 
L 99.174576 36.232782 
L 107.980606 34.732323 
L 117.236986 33.231864 
L 126.799548 31.731405 
L 136.507528 30.230946 
L 146.185756 28.730487 
L 155.647317 27.230028 
L 164.696615 25.729568 
L 173.132835 24.229109 
L 180.753708 22.72865 
L 187.359558 21.228191 
L 192.757514 19.727732 
L 196.765847 18.227273 
" clip-path="url(#p7dccae5127)" style="fill: none; stroke: #000000; stroke-width: 1.5; stroke-linecap: square"/>
   </g>
   <g id="matplotlib.axis_1">
    <g id="xtick_1">
     <g id="line2d_2">
      <defs>
       <path id="m8e18925210" d="M 0 0 
L 0 3.5 
" style="stroke: #000000; stroke-width: 0.8"/>
      </defs>
      <g>
       <use xlink:href="#m8e18925210" x="55.714268" y="174.2" style="stroke: #000000; stroke-width: 0.8"/>
      </g>
     </g>
     <g id="text_1">
      <!-- −2 -->
      <g transform="translate(48.343175 188.798438)scale(0.1 -0.1)">
       <defs>
        <path id="DejaVuSans-2212" d="M 678 2272 
L 4684 2272 
L 4684 1741 
L 678 1741 
L 678 2272 
z
" transform="scale(0.015625)"/>
        <path id="DejaVuSans-32" d="M 1228 531 
L 3431 531 
L 3431 0 
L 469 0 
L 469 531 
Q 828 903 1448 1529 
Q 2069 2156 2228 2338 
Q 2531 2678 2651 2914 
Q 2772 3150 2772 3378 
Q 2772 3750 2511 3984 
Q 2250 4219 1831 4219 
Q 1534 4219 1204 4116 
Q 875 4013 500 3803 
L 500 4441 
Q 881 4594 1212 4672 
Q 1544 4750 1819 4750 
Q 2544 4750 2975 4387 
Q 3406 4025 3406 3419 
Q 3406 3131 3298 2873 
Q 3191 2616 2906 2266 
Q 2828 2175 2409 1742 
Q 1991 1309 1228 531 
z
" transform="scale(0.015625)"/>
       </defs>
       <use xlink:href="#DejaVuSans-2212"/>
       <use xlink:href="#DejaVuSans-32" x="83.789062"/>
      </g>
     </g>
    </g>
    <g id="xtick_2">
     <g id="line2d_3">
      <g>
       <use xlink:href="#m8e18925210" x="96.014719" y="174.2" style="stroke: #000000; stroke-width: 0.8"/>
      </g>
     </g>
     <g id="text_2">
      <!-- 0 -->
      <g transform="translate(92.833469 188.798438)scale(0.1 -0.1)">
       <defs>
        <path id="DejaVuSans-30" d="M 2034 4250 
Q 1547 4250 1301 3770 
Q 1056 3291 1056 2328 
Q 1056 1369 1301 889 
Q 1547 409 2034 409 
Q 2525 409 2770 889 
Q 3016 1369 3016 2328 
Q 3016 3291 2770 3770 
Q 2525 4250 2034 4250 
z
M 2034 4750 
Q 2819 4750 3233 4129 
Q 3647 3509 3647 2328 
Q 3647 1150 3233 529 
Q 2819 -91 2034 -91 
Q 1250 -91 836 529 
Q 422 1150 422 2328 
Q 422 3509 836 4129 
Q 1250 4750 2034 4750 
z
" transform="scale(0.015625)"/>
       </defs>
       <use xlink:href="#DejaVuSans-30"/>
      </g>
     </g>
    </g>
    <g id="xtick_3">
     <g id="line2d_4">
      <g>
       <use xlink:href="#m8e18925210" x="136.31517" y="174.2" style="stroke: #000000; stroke-width: 0.8"/>
      </g>
     </g>
     <g id="text_3">
      <!-- 2 -->
      <g transform="translate(133.13392 188.798438)scale(0.1 -0.1)">
       <use xlink:href="#DejaVuSans-32"/>
      </g>
     </g>
    </g>
    <g id="xtick_4">
     <g id="line2d_5">
      <g>
       <use xlink:href="#m8e18925210" x="176.615622" y="174.2" style="stroke: #000000; stroke-width: 0.8"/>
      </g>
     </g>
     <g id="text_4">
      <!-- 4 -->
      <g transform="translate(173.434372 188.798438)scale(0.1 -0.1)">
       <defs>
        <path id="DejaVuSans-34" d="M 2419 4116 
L 825 1625 
L 2419 1625 
L 2419 4116 
z
M 2253 4666 
L 3047 4666 
L 3047 1625 
L 3713 1625 
L 3713 1100 
L 3047 1100 
L 3047 0 
L 2419 0 
L 2419 1100 
L 313 1100 
L 313 1709 
L 2253 4666 
z
" transform="scale(0.015625)"/>
       </defs>
       <use xlink:href="#DejaVuSans-34"/>
      </g>
     </g>
    </g>
    <g id="text_5">
     <!-- y -->
     <g transform="translate(122.275116 202.476562)scale(0.1 -0.1)">
      <defs>
       <path id="DejaVuSans-79" d="M 2059 -325 
Q 1816 -950 1584 -1140 
Q 1353 -1331 966 -1331 
L 506 -1331 
L 506 -850 
L 844 -850 
Q 1081 -850 1212 -737 
Q 1344 -625 1503 -206 
L 1606 56 
L 191 3500 
L 800 3500 
L 1894 763 
L 2988 3500 
L 3597 3500 
L 2059 -325 
z
" transform="scale(0.015625)"/>
      </defs>
      <use xlink:href="#DejaVuSans-79"/>
     </g>
    </g>
   </g>
   <g id="matplotlib.axis_2">
    <g id="ytick_1">
     <g id="line2d_6">
      <defs>
       <path id="m4cf9484a4c" d="M 0 0 
L -3.5 0 
" style="stroke: #000000; stroke-width: 0.8"/>
      </defs>
      <g>
       <use xlink:href="#m4cf9484a4c" x="46.55" y="166.772727" style="stroke: #000000; stroke-width: 0.8"/>
      </g>
     </g>
     <g id="text_6">
      <!-- −2 -->
      <g transform="translate(24.807813 170.571946)scale(0.1 -0.1)">
       <use xlink:href="#DejaVuSans-2212"/>
       <use xlink:href="#DejaVuSans-32" x="83.789062"/>
      </g>
     </g>
    </g>
    <g id="ytick_2">
     <g id="line2d_7">
      <g>
       <use xlink:href="#m4cf9484a4c" x="46.55" y="129.636364" style="stroke: #000000; stroke-width: 0.8"/>
      </g>
     </g>
     <g id="text_7">
      <!-- −1 -->
      <g transform="translate(24.807813 133.435582)scale(0.1 -0.1)">
       <defs>
        <path id="DejaVuSans-31" d="M 794 531 
L 1825 531 
L 1825 4091 
L 703 3866 
L 703 4441 
L 1819 4666 
L 2450 4666 
L 2450 531 
L 3481 531 
L 3481 0 
L 794 0 
L 794 531 
z
" transform="scale(0.015625)"/>
       </defs>
       <use xlink:href="#DejaVuSans-2212"/>
       <use xlink:href="#DejaVuSans-31" x="83.789062"/>
      </g>
     </g>
    </g>
    <g id="ytick_3">
     <g id="line2d_8">
      <g>
       <use xlink:href="#m4cf9484a4c" x="46.55" y="92.5" style="stroke: #000000; stroke-width: 0.8"/>
      </g>
     </g>
     <g id="text_8">
      <!-- 0 -->
      <g transform="translate(33.1875 96.299219)scale(0.1 -0.1)">
       <use xlink:href="#DejaVuSans-30"/>
      </g>
     </g>
    </g>
    <g id="ytick_4">
     <g id="line2d_9">
      <g>
       <use xlink:href="#m4cf9484a4c" x="46.55" y="55.363636" style="stroke: #000000; stroke-width: 0.8"/>
      </g>
     </g>
     <g id="text_9">
      <!-- 1 -->
      <g transform="translate(33.1875 59.162855)scale(0.1 -0.1)">
       <use xlink:href="#DejaVuSans-31"/>
      </g>
     </g>
    </g>
    <g id="ytick_5">
     <g id="line2d_10">
      <g>
       <use xlink:href="#m4cf9484a4c" x="46.55" y="18.227273" style="stroke: #000000; stroke-width: 0.8"/>
      </g>
     </g>
     <g id="text_10">
      <!-- 2 -->
      <g transform="translate(33.1875 22.026491)scale(0.1 -0.1)">
       <use xlink:href="#DejaVuSans-32"/>
      </g>
     </g>
    </g>
    <g id="text_11">
     <!-- z -->
     <g transform="translate(18.728125 95.124219)rotate(-90)scale(0.1 -0.1)">
      <defs>
       <path id="DejaVuSans-7a" d="M 353 3500 
L 3084 3500 
L 3084 2975 
L 922 459 
L 3084 459 
L 3084 0 
L 275 0 
L 275 525 
L 2438 3041 
L 353 3041 
L 353 3500 
z
" transform="scale(0.015625)"/>
      </defs>
      <use xlink:href="#DejaVuSans-7a"/>
     </g>
    </g>
   </g>
   <g id="patch_3">
    <path d="M 46.55 174.2 
L 46.55 10.8 
" style="fill: none; stroke: #000000; stroke-width: 0.8; stroke-linejoin: miter; stroke-linecap: square"/>
   </g>
   <g id="patch_4">
    <path d="M 203.918983 174.2 
L 203.918983 10.8 
" style="fill: none; stroke: #000000; stroke-width: 0.8; stroke-linejoin: miter; stroke-linecap: square"/>
   </g>
   <g id="patch_5">
    <path d="M 46.55 174.2 
L 203.918983 174.2 
" style="fill: none; stroke: #000000; stroke-width: 0.8; stroke-linejoin: miter; stroke-linecap: square"/>
   </g>
   <g id="patch_6">
    <path d="M 46.55 10.8 
L 203.918983 10.8 
" style="fill: none; stroke: #000000; stroke-width: 0.8; stroke-linejoin: miter; stroke-linecap: square"/>
   </g>
  </g>
  <g id="axes_2">
   <g id="patch_7">
    <path d="M 218.218983 174.2 
L 375.587965 174.2 
L 375.587965 10.8 
L 218.218983 10.8 
z
" style="fill: #ffffff"/>
   </g>
   <g id="line2d_11">
    <path d="M 296.903474 166.772727 
L 309.843059 165.272268 
L 321.74322 163.771809 
L 332.458224 162.27135 
L 341.872932 160.770891 
L 349.903205 159.270432 
L 356.495662 157.769972 
L 361.626853 156.269513 
L 365.30187 154.769054 
L 367.552482 153.268595 
L 368.43483 151.768136 
L 368.026775 150.267677 
L 366.424967 148.767218 
L 363.741701 147.266758 
L 360.101664 145.766299 
L 355.638618 144.26584 
L 350.492125 142.765381 
L 344.804357 141.264922 
L 338.717068 139.764463 
L 332.368791 138.264004 
L 325.892287 136.763545 
L 319.41232 135.263085 
L 313.043749 133.762626 
L 306.889999 132.262167 
L 301.041888 130.761708 
L 295.576841 129.261249 
L 290.558465 127.76079 
L 286.036475 126.260331 
L 282.046952 124.759871 
L 278.612904 123.259412 
L 275.745079 121.758953 
L 273.44301 120.258494 
L 271.696234 118.758035 
L 270.485642 117.257576 
L 269.784914 115.757117 
L 269.561989 114.256657 
L 269.780529 112.756198 
L 270.401327 111.255739 
L 271.383628 109.75528 
L 272.686325 108.254821 
L 274.269001 106.754362 
L 276.092792 105.253903 
L 278.121066 103.753444 
L 280.319894 102.252984 
L 282.658321 100.752525 
L 285.108441 99.252066 
L 287.64528 97.751607 
L 290.24652 96.251148 
L 292.892067 94.750689 
L 295.563501 93.25023 
L 298.243447 91.74977 
L 300.914881 90.249311 
L 303.560427 88.748852 
L 306.161668 87.248393 
L 308.698507 85.747934 
L 311.148626 84.247475 
L 313.487053 82.747016 
L 315.685881 81.246556 
L 317.714156 79.746097 
L 319.537947 78.245638 
L 321.120623 76.745179 
L 322.42332 75.24472 
L 323.405621 73.744261 
L 324.026419 72.243802 
L 324.244958 70.743343 
L 324.022034 69.242883 
L 323.321306 67.742424 
L 322.110714 66.241965 
L 320.363938 64.741506 
L 318.061869 63.241047 
L 315.194043 61.740588 
L 311.759995 60.240129 
L 307.770473 58.739669 
L 303.248483 57.23921 
L 298.230107 55.738751 
L 292.76506 54.238292 
L 286.916949 52.737833 
L 280.763199 51.237374 
L 274.394628 49.736915 
L 267.91466 48.236455 
L 261.438157 46.735996 
L 255.089879 45.235537 
L 249.002591 43.735078 
L 243.314823 42.234619 
L 238.16833 40.73416 
L 233.705284 39.233701 
L 230.065246 37.733242 
L 227.381981 36.232782 
L 225.780172 34.732323 
L 225.372118 33.231864 
L 226.254466 31.731405 
L 228.505078 30.230946 
L 232.180095 28.730487 
L 237.311286 27.230028 
L 243.903743 25.729568 
L 251.934016 24.229109 
L 261.348724 22.72865 
L 272.063727 21.228191 
L 283.963889 19.727732 
L 296.903474 18.227273 
" clip-path="url(#p9b8c7cf8fd)" style="fill: none; stroke: #000000; stroke-width: 1.5; stroke-linecap: square"/>
   </g>
   <g id="matplotlib.axis_3">
    <g id="xtick_5">
     <g id="line2d_12">
      <g>
       <use xlink:href="#m8e18925210" x="254.666218" y="174.2" style="stroke: #000000; stroke-width: 0.8"/>
      </g>
     </g>
     <g id="text_12">
      <!-- −2 -->
      <g transform="translate(247.295124 188.798438)scale(0.1 -0.1)">
       <use xlink:href="#DejaVuSans-2212"/>
       <use xlink:href="#DejaVuSans-32" x="83.789062"/>
      </g>
     </g>
    </g>
    <g id="xtick_6">
     <g id="line2d_13">
      <g>
       <use xlink:href="#m8e18925210" x="296.903474" y="174.2" style="stroke: #000000; stroke-width: 0.8"/>
      </g>
     </g>
     <g id="text_13">
      <!-- 0 -->
      <g transform="translate(293.722224 188.798438)scale(0.1 -0.1)">
       <use xlink:href="#DejaVuSans-30"/>
      </g>
     </g>
    </g>
    <g id="xtick_7">
     <g id="line2d_14">
      <g>
       <use xlink:href="#m8e18925210" x="339.14073" y="174.2" style="stroke: #000000; stroke-width: 0.8"/>
      </g>
     </g>
     <g id="text_14">
      <!-- 2 -->
      <g transform="translate(335.95948 188.798438)scale(0.1 -0.1)">
       <use xlink:href="#DejaVuSans-32"/>
      </g>
     </g>
    </g>
    <g id="text_15">
     <!-- x -->
     <g transform="translate(293.944099 202.476562)scale(0.1 -0.1)">
      <defs>
       <path id="DejaVuSans-78" d="M 3513 3500 
L 2247 1797 
L 3578 0 
L 2900 0 
L 1881 1375 
L 863 0 
L 184 0 
L 1544 1831 
L 300 3500 
L 978 3500 
L 1906 2253 
L 2834 3500 
L 3513 3500 
z
" transform="scale(0.015625)"/>
      </defs>
      <use xlink:href="#DejaVuSans-78"/>
     </g>
    </g>
   </g>
   <g id="matplotlib.axis_4">
    <g id="ytick_6">
     <g id="line2d_15">
      <g>
       <use xlink:href="#m4cf9484a4c" x="218.218983" y="166.772727" style="stroke: #000000; stroke-width: 0.8"/>
      </g>
     </g>
    </g>
    <g id="ytick_7">
     <g id="line2d_16">
      <g>
       <use xlink:href="#m4cf9484a4c" x="218.218983" y="129.636364" style="stroke: #000000; stroke-width: 0.8"/>
      </g>
     </g>
    </g>
    <g id="ytick_8">
     <g id="line2d_17">
      <g>
       <use xlink:href="#m4cf9484a4c" x="218.218983" y="92.5" style="stroke: #000000; stroke-width: 0.8"/>
      </g>
     </g>
    </g>
    <g id="ytick_9">
     <g id="line2d_18">
      <g>
       <use xlink:href="#m4cf9484a4c" x="218.218983" y="55.363636" style="stroke: #000000; stroke-width: 0.8"/>
      </g>
     </g>
    </g>
    <g id="ytick_10">
     <g id="line2d_19">
      <g>
       <use xlink:href="#m4cf9484a4c" x="218.218983" y="18.227273" style="stroke: #000000; stroke-width: 0.8"/>
      </g>
     </g>
    </g>
   </g>
   <g id="patch_8">
    <path d="M 218.218983 174.2 
L 218.218983 10.8 
" style="fill: none; stroke: #000000; stroke-width: 0.8; stroke-linejoin: miter; stroke-linecap: square"/>
   </g>
   <g id="patch_9">
    <path d="M 375.587965 174.2 
L 375.587965 10.8 
" style="fill: none; stroke: #000000; stroke-width: 0.8; stroke-linejoin: miter; stroke-linecap: square"/>
   </g>
   <g id="patch_10">
    <path d="M 218.218983 174.2 
L 375.587965 174.2 
" style="fill: none; stroke: #000000; stroke-width: 0.8; stroke-linejoin: miter; stroke-linecap: square"/>
   </g>
   <g id="patch_11">
    <path d="M 218.218983 10.8 
L 375.587965 10.8 
" style="fill: none; stroke: #000000; stroke-width: 0.8; stroke-linejoin: miter; stroke-linecap: square"/>
   </g>
  </g>
  <g id="patch_12">
   <path d="M 389.887965 171.184491 
L 547.256948 171.184491 
L 547.256948 13.815509 
L 389.887965 13.815509 
L 389.887965 171.184491 
z
" style="fill: none; opacity: 0"/>
  </g>
  <g id="pane3d_1">
   <g id="patch_13">
    <path d="M 401.770409 132.382343 
L 453.738786 88.821419 
L 453.016376 25.998779 
L 398.561044 65.7378 
" style="fill: #f2f2f2; opacity: 0.5; stroke: #f2f2f2; stroke-linejoin: miter"/>
   </g>
  </g>
  <g id="pane3d_2">
   <g id="patch_14">
    <path d="M 453.738786 88.821419 
L 537.12949 113.059804 
L 540.10541 48.07331 
L 453.016376 25.998779 
" style="fill: #e6e6e6; opacity: 0.5; stroke: #e6e6e6; stroke-linejoin: miter"/>
   </g>
  </g>
  <g id="pane3d_3">
   <g id="patch_15">
    <path d="M 401.770409 132.382343 
L 490.168627 161.253201 
L 537.12949 113.059804 
L 453.738786 88.821419 
" style="fill: #ececec; opacity: 0.5; stroke: #ececec; stroke-linejoin: miter"/>
   </g>
  </g>
  <g id="axis3d_1">
   <g id="line2d_20">
    <path d="M 401.770409 132.382343 
L 490.168627 161.253201 
" style="fill: none; stroke: #000000; stroke-width: 0.8; stroke-linecap: square"/>
   </g>
   <g id="text_16">
    <!-- x -->
    <g transform="translate(425.459437 184.672198)scale(0.1 -0.1)">
     <use xlink:href="#DejaVuSans-78"/>
    </g>
   </g>
   <g id="Line3DCollection_1">
    <path d="M 422.348471 139.103139 
L 473.216991 94.482964 
L 473.325534 31.146558 
" style="fill: none; stroke: #b0b0b0; stroke-width: 0.8"/>
    <path d="M 444.804296 146.437211 
L 494.426907 100.647849 
L 495.463057 36.757775 
" style="fill: none; stroke: #b0b0b0; stroke-width: 0.8"/>
    <path d="M 467.878667 153.973301 
L 516.171545 106.968157 
L 518.183381 42.516715 
" style="fill: none; stroke: #b0b0b0; stroke-width: 0.8"/>
   </g>
   <g id="xtick_8">
    <g id="line2d_21">
     <path d="M 422.791766 138.714295 
L 421.459962 139.88251 
" style="fill: none; stroke: #000000; stroke-width: 0.8; stroke-linecap: square"/>
    </g>
    <g id="text_17">
     <!-- −2 -->
     <g transform="translate(407.455164 162.63173)scale(0.1 -0.1)">
      <use xlink:href="#DejaVuSans-2212"/>
      <use xlink:href="#DejaVuSans-32" x="83.789062"/>
     </g>
    </g>
   </g>
   <g id="xtick_9">
    <g id="line2d_22">
     <path d="M 445.237214 146.037734 
L 443.936558 147.237917 
" style="fill: none; stroke: #000000; stroke-width: 0.8; stroke-linecap: square"/>
    </g>
    <g id="text_18">
     <!-- 0 -->
     <g transform="translate(434.142777 170.230906)scale(0.1 -0.1)">
      <use xlink:href="#DejaVuSans-30"/>
     </g>
    </g>
   </g>
   <g id="xtick_10">
    <g id="line2d_23">
     <path d="M 468.300466 153.562749 
L 467.033192 154.796231 
" style="fill: none; stroke: #000000; stroke-width: 0.8; stroke-linecap: square"/>
    </g>
    <g id="text_19">
     <!-- 2 -->
     <g transform="translate(457.264299 178.04077)scale(0.1 -0.1)">
      <use xlink:href="#DejaVuSans-32"/>
     </g>
    </g>
   </g>
  </g>
  <g id="axis3d_2">
   <g id="line2d_24">
    <path d="M 537.12949 113.059804 
L 490.168627 161.253201 
" style="fill: none; stroke: #000000; stroke-width: 0.8; stroke-linecap: square"/>
   </g>
   <g id="text_20">
    <!-- y -->
    <g transform="translate(538.734129 166.872926)scale(0.1 -0.1)">
     <use xlink:href="#DejaVuSans-79"/>
    </g>
   </g>
   <g id="Line3DCollection_2">
    <path d="M 403.047668 62.463666 
L 406.037235 128.805805 
L 494.039969 157.280252 
" style="fill: none; stroke: #b0b0b0; stroke-width: 0.8"/>
    <path d="M 417.156488 52.167691 
L 419.472258 117.544302 
L 506.211381 144.78939 
" style="fill: none; stroke: #b0b0b0; stroke-width: 0.8"/>
    <path d="M 430.65174 42.319471 
L 432.347759 106.751802 
L 517.849831 132.845476 
" style="fill: none; stroke: #b0b0b0; stroke-width: 0.8"/>
    <path d="M 443.572596 32.890419 
L 444.697978 96.399604 
L 528.989578 121.413356 
" style="fill: none; stroke: #b0b0b0; stroke-width: 0.8"/>
   </g>
   <g id="xtick_11">
    <g id="line2d_25">
     <path d="M 493.298411 157.040311 
L 495.525002 157.760754 
" style="fill: none; stroke: #000000; stroke-width: 0.8; stroke-linecap: square"/>
    </g>
    <g id="text_21">
     <!-- −2 -->
     <g transform="translate(499.540732 178.291533)scale(0.1 -0.1)">
      <use xlink:href="#DejaVuSans-2212"/>
      <use xlink:href="#DejaVuSans-32" x="83.789062"/>
     </g>
    </g>
   </g>
   <g id="xtick_12">
    <g id="line2d_26">
     <path d="M 505.481297 144.560068 
L 507.67339 145.248613 
" style="fill: none; stroke: #000000; stroke-width: 0.8; stroke-linecap: square"/>
    </g>
    <g id="text_22">
     <!-- 0 -->
     <g transform="translate(515.625617 165.487786)scale(0.1 -0.1)">
      <use xlink:href="#DejaVuSans-30"/>
     </g>
    </g>
   </g>
   <g id="xtick_13">
    <g id="line2d_27">
     <path d="M 517.130941 132.626084 
L 519.289388 133.284803 
" style="fill: none; stroke: #000000; stroke-width: 0.8; stroke-linecap: square"/>
    </g>
    <g id="text_23">
     <!-- 2 -->
     <g transform="translate(526.999296 153.24523)scale(0.1 -0.1)">
      <use xlink:href="#DejaVuSans-32"/>
     </g>
    </g>
   </g>
   <g id="xtick_14">
    <g id="line2d_28">
     <path d="M 528.281601 121.203262 
L 530.407242 121.834052 
" style="fill: none; stroke: #000000; stroke-width: 0.8; stroke-linecap: square"/>
    </g>
    <g id="text_24">
     <!-- 4 -->
     <g transform="translate(537.885154 141.527761)scale(0.1 -0.1)">
      <use xlink:href="#DejaVuSans-34"/>
     </g>
    </g>
   </g>
  </g>
  <g id="axis3d_3">
   <g id="line2d_29">
    <path d="M 537.12949 113.059804 
L 540.10541 48.07331 
" style="fill: none; stroke: #000000; stroke-width: 0.8; stroke-linecap: square"/>
   </g>
   <g id="Line3DCollection_3">
    <path d="M 537.186505 111.814735 
L 453.724917 87.615312 
L 401.709022 131.107618 
" style="fill: none; stroke: #b0b0b0; stroke-width: 0.8"/>
    <path d="M 537.878402 96.705465 
L 453.556699 72.986641 
L 400.963766 115.631897 
" style="fill: none; stroke: #b0b0b0; stroke-width: 0.8"/>
    <path d="M 538.584851 81.278421 
L 453.385113 58.06512 
L 400.202234 99.818177 
" style="fill: none; stroke: #b0b0b0; stroke-width: 0.8"/>
    <path d="M 539.306316 65.523472 
L 453.210058 42.841866 
L 399.423885 83.65526 
" style="fill: none; stroke: #b0b0b0; stroke-width: 0.8"/>
    <path d="M 540.043281 49.430049 
L 453.031427 27.307634 
L 398.628157 67.131453 
" style="fill: none; stroke: #b0b0b0; stroke-width: 0.8"/>
   </g>
   <g id="xtick_15">
    <g id="line2d_30">
     <path d="M 536.486004 111.611627 
L 538.589174 112.221434 
" style="fill: none; stroke: #000000; stroke-width: 0.8; stroke-linecap: square"/>
    </g>
    <g id="text_25">
     <!-- −2 -->
     <g transform="translate(548.041583 116.817646)scale(0.1 -0.1)">
      <use xlink:href="#DejaVuSans-2212"/>
      <use xlink:href="#DejaVuSans-32" x="83.789062"/>
     </g>
    </g>
   </g>
   <g id="xtick_16">
    <g id="line2d_31">
     <path d="M 537.170338 96.506294 
L 539.296234 97.104287 
" style="fill: none; stroke: #000000; stroke-width: 0.8; stroke-linecap: square"/>
    </g>
    <g id="text_26">
     <!-- −1 -->
     <g transform="translate(548.91864 101.758807)scale(0.1 -0.1)">
      <use xlink:href="#DejaVuSans-2212"/>
      <use xlink:href="#DejaVuSans-31" x="83.789062"/>
     </g>
    </g>
   </g>
   <g id="xtick_17">
    <g id="line2d_32">
     <path d="M 537.869058 81.083398 
L 540.018178 81.668942 
" style="fill: none; stroke: #000000; stroke-width: 0.8; stroke-linecap: square"/>
    </g>
    <g id="text_27">
     <!-- 0 -->
     <g transform="translate(554.003891 86.384892)scale(0.1 -0.1)">
      <use xlink:href="#DejaVuSans-30"/>
     </g>
    </g>
   </g>
   <g id="xtick_18">
    <g id="line2d_33">
     <path d="M 538.582624 65.332819 
L 540.755479 65.905246 
" style="fill: none; stroke: #000000; stroke-width: 0.8; stroke-linecap: square"/>
    </g>
    <g id="text_28">
     <!-- 1 -->
     <g transform="translate(554.918231 70.685908)scale(0.1 -0.1)">
      <use xlink:href="#DejaVuSans-31"/>
     </g>
    </g>
   </g>
   <g id="xtick_19">
    <g id="line2d_34">
     <path d="M 539.311513 49.244 
L 541.508633 49.802609 
" style="fill: none; stroke: #000000; stroke-width: 0.8; stroke-linecap: square"/>
    </g>
    <g id="text_29">
     <!-- 2 -->
     <g transform="translate(555.85211 54.651435)scale(0.1 -0.1)">
      <use xlink:href="#DejaVuSans-32"/>
     </g>
    </g>
   </g>
  </g>
  <g id="axes_3">
   <g id="line2d_35">
    <path d="M 491.535394 102.102506 
L 497.0624 104.485724 
L 501.731664 107.107958 
L 505.505497 109.906203 
L 508.360638 112.816242 
L 510.289027 115.773562 
L 511.298353 118.71442 
L 511.412266 121.576998 
L 510.670193 124.30264 
L 509.12669 126.837094 
L 506.850306 129.131711 
L 503.92195 131.144538 
L 500.432813 132.841234 
L 496.481903 134.19576 
L 492.173307 135.190793 
L 487.613297 135.817853 
L 482.907427 136.077112 
L 478.157751 135.976924 
L 473.460291 135.533087 
L 468.90286 134.767899 
L 464.563327 133.709049 
L 460.508345 132.388423 
L 456.792585 130.840868 
L 453.458439 129.102988 
L 450.536151 127.212005 
L 448.044338 125.204733 
L 445.990799 123.116688 
L 444.373576 120.98135 
L 443.182157 118.829587 
L 442.398786 116.689226 
L 441.999795 114.584779 
L 441.956927 112.537302 
L 442.238597 110.564367 
L 442.811073 108.680138 
L 443.639535 106.89553 
L 444.689029 105.218436 
L 445.925268 103.654002 
L 447.31531 102.204937 
L 448.828091 100.871856 
L 450.434824 99.65362 
L 452.109269 98.54769 
L 453.827872 97.550466 
L 455.569791 96.657611 
L 457.316811 95.864343 
L 459.053163 95.16571 
L 460.76526 94.556807 
L 462.441358 94.032966 
L 464.071169 93.58989 
L 465.645434 93.223735 
L 467.155476 92.931148 
L 468.592759 92.709243 
L 469.948459 92.555538 
L 471.21308 92.467834 
L 472.376122 92.44406 
L 473.425825 92.482073 
L 474.349002 92.57944 
L 475.130967 92.733189 
L 475.755585 92.939552 
L 476.205431 93.193708 
L 476.46208 93.489536 
L 476.506523 93.819387 
L 476.319701 94.173888 
L 475.883162 94.541794 
L 475.179823 94.909895 
L 474.194821 95.262992 
L 472.916434 95.583952 
L 471.337048 95.853847 
L 469.454123 96.052196 
L 467.271139 96.157305 
L 464.79846 96.146699 
L 462.054075 95.997664 
L 459.064168 95.687867 
L 455.863463 95.196046 
L 452.495303 94.50276 
L 449.011424 93.591149 
L 445.471404 92.447698 
L 441.941774 91.062947 
L 438.494807 89.432127 
L 435.207005 87.555677 
L 432.157343 85.439624 
L 429.425333 83.095784 
L 427.088985 80.541794 
L 425.22275 77.80095 
L 423.895536 74.901865 
L 423.168877 71.877974 
L 423.095321 68.7669 
L 423.717087 65.609716 
L 425.065034 62.450144 
L 427.157932 59.333729 
L 430.002043 56.307008 
L 433.590971 53.416729 
L 437.905748 50.709109 
L 442.9151 48.229181 
L 448.575829 46.020205 
L 454.833279 44.123167 
L 461.621807 42.576338 
L 468.865238 41.414887 
L 476.477259 40.670533 
L 484.361745 40.371196 
L 492.412993 40.540636 
" clip-path="url(#pacb67e772e)" style="fill: none; stroke: #000000; stroke-width: 1.5; stroke-linecap: square"/>
   </g>
  </g>
 </g>
 <defs>
  <clipPath id="p7dccae5127">
   <rect x="46.55" y="10.8" width="157.368983" height="163.4"/>
  </clipPath>
  <clipPath id="p9b8c7cf8fd">
   <rect x="218.218983" y="10.8" width="157.368983" height="163.4"/>
  </clipPath>
  <clipPath id="pacb67e772e">
   <rect x="389.887965" y="13.815509" width="157.368983" height="157.368983"/>
  </clipPath>
 </defs>
</svg>
