<?xml version="1.0" encoding="utf-8" standalone="no"?>
<!DOCTYPE svg PUBLIC "-//W3C//DTD SVG 1.1//EN"
  "http://www.w3.org/Graphics/SVG/1.1/DTD/svg11.dtd">
<svg height="612pt" version="1.1" viewBox="0 0 864 612" width="864pt" xmlns="http://www.w3.org/2000/svg" xmlns:xlink="http://www.w3.org/1999/xlink">
 <metadata>
  <rdf:RDF xmlns:cc="http://creativecommons.org/ns#" xmlns:dc="http://purl.org/dc/elements/1.1/" xmlns:rdf="http://www.w3.org/1999/02/22-rdf-syntax-ns#">
   <cc:Work>
    <dc:type rdf:resource="http://purl.org/dc/dcmitype/StillImage"/>
    <dc:date>2022-06-21T19:09:21.427308</dc:date>
    <dc:format>image/svg+xml</dc:format>
    <dc:creator>
     <cc:Agent>
      <dc:title>Matplotlib v3.4.3, https://matplotlib.org/</dc:title>
     </cc:Agent>
    </dc:creator>
   </cc:Work>
  </rdf:RDF>
 </metadata>
 <defs>
  <style type="text/css">*{stroke-linecap:butt;stroke-linejoin:round;}</style>
 </defs>
 <g id="figure_1">
  <g id="patch_1">
   <path d="M 0 612 
L 864 612 
L 864 0 
L 0 0 
z
" style="fill:none;"/>
  </g>
  <g id="patch_2">
   <path d="M 39.974714 246.611524 
L 259.545286 246.611524 
L 259.545286 27.040952 
L 39.974714 27.040952 
z
" style="fill:#ffffff;"/>
  </g>
  <g id="pane3d_1">
   <g id="patch_3">
    <path d="M 56.553806 192.472458 
L 129.06318 131.693663 
L 128.05523 44.039775 
L 52.075909 99.486023 
" style="fill:#f2f2f2;opacity:0.5;stroke:#f2f2f2;stroke-linejoin:miter;"/>
   </g>
  </g>
  <g id="pane3d_2">
   <g id="patch_4">
    <path d="M 129.06318 131.693663 
L 245.414854 165.512501 
L 249.567035 74.839476 
L 128.05523 44.039775 
" style="fill:#e6e6e6;opacity:0.5;stroke:#e6e6e6;stroke-linejoin:miter;"/>
   </g>
  </g>
  <g id="pane3d_3">
   <g id="patch_5">
    <path d="M 56.553806 192.472458 
L 179.892263 232.754797 
L 245.414854 165.512501 
L 129.06318 131.693663 
" style="fill:#ececec;opacity:0.5;stroke:#ececec;stroke-linejoin:miter;"/>
   </g>
  </g>
  <g id="axis3d_1">
   <g id="line2d_1">
    <path d="M 56.553806 192.472458 
L 179.892263 232.754797 
" style="fill:none;stroke:#000000;stroke-linecap:square;stroke-width:0.8;"/>
   </g>
   <g id="Line3DCollection_1">
    <path d="M 85.745657 202.006516 
L 156.694307 139.72494 
L 156.865356 51.342303 
" style="fill:none;stroke:#b0b0b0;stroke-width:0.8;"/>
    <path d="M 117.802044 212.476132 
L 186.970294 148.524975 
L 188.466364 59.352237 
" style="fill:none;stroke:#b0b0b0;stroke-width:0.8;"/>
    <path d="M 150.761945 223.240836 
L 218.027251 157.552006 
L 220.918613 67.577936 
" style="fill:none;stroke:#b0b0b0;stroke-width:0.8;"/>
   </g>
   <g id="xtick_1">
    <g id="line2d_2">
     <path d="M 86.363951 201.463753 
L 84.506391 203.094394 
" style="fill:none;stroke:#000000;stroke-linecap:square;stroke-width:0.8;"/>
    </g>
    <g id="text_1">
     <!-- −2 -->
     <g transform="translate(66.443839 230.069555)scale(0.16 -0.16)">
      <defs>
       <path d="M 678 2259 
L 4684 2259 
L 4684 1753 
L 678 1753 
L 678 2259 
z
" id="DejaVuSerif-2212" transform="scale(0.015625)"/>
       <path d="M 819 3553 
L 469 3553 
L 469 4384 
Q 803 4563 1142 4656 
Q 1481 4750 1806 4750 
Q 2534 4750 2956 4397 
Q 3378 4044 3378 3438 
Q 3378 2753 2422 1800 
Q 2347 1728 2309 1691 
L 1131 513 
L 3078 513 
L 3078 1088 
L 3444 1088 
L 3444 0 
L 434 0 
L 434 341 
L 1850 1753 
Q 2319 2222 2519 2614 
Q 2719 3006 2719 3438 
Q 2719 3909 2473 4175 
Q 2228 4441 1797 4441 
Q 1350 4441 1106 4219 
Q 863 3997 819 3553 
z
" id="DejaVuSerif-32" transform="scale(0.015625)"/>
      </defs>
      <use xlink:href="#DejaVuSerif-2212"/>
      <use x="83.789062" xlink:href="#DejaVuSerif-32"/>
     </g>
    </g>
   </g>
   <g id="xtick_2">
    <g id="line2d_3">
     <path d="M 118.405508 211.918184 
L 116.592463 213.594478 
" style="fill:none;stroke:#000000;stroke-linecap:square;stroke-width:0.8;"/>
    </g>
    <g id="text_2">
     <!-- 0 -->
     <g transform="translate(105.247108 240.809547)scale(0.16 -0.16)">
      <defs>
       <path d="M 2034 219 
Q 2513 219 2750 744 
Q 2988 1269 2988 2328 
Q 2988 3391 2750 3916 
Q 2513 4441 2034 4441 
Q 1556 4441 1318 3916 
Q 1081 3391 1081 2328 
Q 1081 1269 1318 744 
Q 1556 219 2034 219 
z
M 2034 -91 
Q 1275 -91 848 546 
Q 422 1184 422 2328 
Q 422 3475 848 4112 
Q 1275 4750 2034 4750 
Q 2797 4750 3222 4112 
Q 3647 3475 3647 2328 
Q 3647 1184 3222 546 
Q 2797 -91 2034 -91 
z
" id="DejaVuSerif-30" transform="scale(0.015625)"/>
      </defs>
      <use xlink:href="#DejaVuSerif-30"/>
     </g>
    </g>
   </g>
   <g id="xtick_3">
    <g id="line2d_4">
     <path d="M 151.349494 222.667057 
L 149.584231 224.390948 
" style="fill:none;stroke:#000000;stroke-linecap:square;stroke-width:0.8;"/>
    </g>
    <g id="text_3">
     <!-- 2 -->
     <g transform="translate(138.255592 251.853664)scale(0.16 -0.16)">
      <use xlink:href="#DejaVuSerif-32"/>
     </g>
    </g>
   </g>
  </g>
  <g id="axis3d_2">
   <g id="line2d_5">
    <path d="M 245.414854 165.512501 
L 179.892263 232.754797 
" style="fill:none;stroke:#000000;stroke-linecap:square;stroke-width:0.8;"/>
   </g>
   <g id="Line3DCollection_2">
    <path d="M 58.302238 94.942332 
L 62.4751 187.509112 
L 185.264734 227.241321 
" style="fill:none;stroke:#b0b0b0;stroke-width:0.8;"/>
    <path d="M 78.561293 80.158197 
L 81.767128 171.338152 
L 202.741763 209.30559 
" style="fill:none;stroke:#b0b0b0;stroke-width:0.8;"/>
    <path d="M 97.914251 66.035289 
L 100.232808 155.859852 
L 219.431746 192.177561 
" style="fill:none;stroke:#b0b0b0;stroke-width:0.8;"/>
    <path d="M 116.420573 52.530218 
L 117.924121 141.030643 
L 235.386677 175.803877 
" style="fill:none;stroke:#b0b0b0;stroke-width:0.8;"/>
   </g>
   <g id="xtick_4">
    <g id="line2d_6">
     <path d="M 184.23004 226.906515 
L 187.336795 227.911797 
" style="fill:none;stroke:#000000;stroke-linecap:square;stroke-width:0.8;"/>
    </g>
    <g id="text_4">
     <!-- −2 -->
     <g transform="translate(186.339624 252.808356)scale(0.16 -0.16)">
      <use xlink:href="#DejaVuSerif-2212"/>
      <use x="83.789062" xlink:href="#DejaVuSerif-32"/>
     </g>
    </g>
   </g>
   <g id="xtick_5">
    <g id="line2d_7">
     <path d="M 201.723551 208.986028 
L 204.780756 209.94552 
" style="fill:none;stroke:#000000;stroke-linecap:square;stroke-width:0.8;"/>
    </g>
    <g id="text_5">
     <!-- 0 -->
     <g transform="translate(210.236139 234.550811)scale(0.16 -0.16)">
      <use xlink:href="#DejaVuSerif-30"/>
     </g>
    </g>
   </g>
   <g id="xtick_6">
    <g id="line2d_8">
     <path d="M 218.429598 191.872225 
L 221.438514 192.788986 
" style="fill:none;stroke:#000000;stroke-linecap:square;stroke-width:0.8;"/>
    </g>
    <g id="text_6">
     <!-- 2 -->
     <g transform="translate(226.654123 217.11603)scale(0.16 -0.16)">
      <use xlink:href="#DejaVuSerif-32"/>
     </g>
    </g>
   </g>
   <g id="xtick_7">
    <g id="line2d_9">
     <path d="M 234.40018 175.511838 
L 237.36205 176.38866 
" style="fill:none;stroke:#000000;stroke-linecap:square;stroke-width:0.8;"/>
    </g>
    <g id="text_7">
     <!-- 4 -->
     <g transform="translate(242.348545 200.449623)scale(0.16 -0.16)">
      <defs>
       <path d="M 2234 1581 
L 2234 4063 
L 641 1581 
L 2234 1581 
z
M 3609 0 
L 1484 0 
L 1484 331 
L 2234 331 
L 2234 1247 
L 197 1247 
L 197 1588 
L 2241 4750 
L 2859 4750 
L 2859 1581 
L 3750 1581 
L 3750 1247 
L 2859 1247 
L 2859 331 
L 3609 331 
L 3609 0 
z
" id="DejaVuSerif-34" transform="scale(0.015625)"/>
      </defs>
      <use xlink:href="#DejaVuSerif-34"/>
     </g>
    </g>
   </g>
  </g>
  <g id="axis3d_3">
   <g id="line2d_10">
    <path d="M 245.414854 165.512501 
L 249.567035 74.839476 
" style="fill:none;stroke:#000000;stroke-linecap:square;stroke-width:0.8;"/>
   </g>
   <g id="Line3DCollection_3">
    <path d="M 246.362523 144.817828 
L 128.832757 111.655448 
L 55.533127 171.27739 
" style="fill:none;stroke:#b0b0b0;stroke-width:0.8;"/>
    <path d="M 247.374464 122.71961 
L 128.586951 90.279528 
L 54.442356 148.626831 
" style="fill:none;stroke:#b0b0b0;stroke-width:0.8;"/>
    <path d="M 248.408517 100.138531 
L 128.336035 68.459242 
L 53.326825 125.462104 
" style="fill:none;stroke:#b0b0b0;stroke-width:0.8;"/>
    <path d="M 249.465415 77.058591 
L 128.079848 46.180587 
L 52.185681 101.765502 
" style="fill:none;stroke:#b0b0b0;stroke-width:0.8;"/>
   </g>
   <g id="xtick_8">
    <g id="line2d_11">
     <path d="M 245.375652 144.539371 
L 248.338634 145.375411 
" style="fill:none;stroke:#000000;stroke-linecap:square;stroke-width:0.8;"/>
    </g>
    <g id="text_8">
     <!-- −1 -->
     <g transform="translate(252.988123 154.421382)scale(0.16 -0.16)">
      <defs>
       <path d="M 909 0 
L 909 331 
L 1722 331 
L 1722 4213 
L 781 3603 
L 781 4013 
L 1919 4750 
L 2350 4750 
L 2350 331 
L 3163 331 
L 3163 0 
L 909 0 
z
" id="DejaVuSerif-31" transform="scale(0.015625)"/>
      </defs>
      <use xlink:href="#DejaVuSerif-2212"/>
      <use x="83.789062" xlink:href="#DejaVuSerif-31"/>
     </g>
    </g>
   </g>
   <g id="xtick_9">
    <g id="line2d_12">
     <path d="M 246.376524 122.447079 
L 249.372769 123.265334 
" style="fill:none;stroke:#000000;stroke-linecap:square;stroke-width:0.8;"/>
    </g>
    <g id="text_9">
     <!-- 0 -->
     <g transform="translate(260.898387 132.377604)scale(0.16 -0.16)">
      <use xlink:href="#DejaVuSerif-30"/>
     </g>
    </g>
   </g>
   <g id="xtick_10">
    <g id="line2d_13">
     <path d="M 247.399256 99.872253 
L 250.429518 100.671741 
" style="fill:none;stroke:#000000;stroke-linecap:square;stroke-width:0.8;"/>
    </g>
    <g id="text_10">
     <!-- 1 -->
     <g transform="translate(262.131165 109.85396)scale(0.16 -0.16)">
      <use xlink:href="#DejaVuSerif-31"/>
     </g>
    </g>
   </g>
   <g id="xtick_11">
    <g id="line2d_14">
     <path d="M 248.444573 76.798909 
L 251.509633 77.578598 
" style="fill:none;stroke:#000000;stroke-linecap:square;stroke-width:0.8;"/>
    </g>
    <g id="text_11">
     <!-- 2 -->
     <g transform="translate(263.391075 86.834608)scale(0.16 -0.16)">
      <use xlink:href="#DejaVuSerif-32"/>
     </g>
    </g>
   </g>
  </g>
  <g id="axes_1">
   <g id="line2d_15">
    <path clip-path="url(#pf07e918024)" d="M 193.174743 114.288764 
L 212.603384 176.909218 
L 212.535292 156.567269 
L 192.394826 150.389422 
L 185.930442 161.790617 
L 179.122314 175.762639 
L 165.284172 202.072295 
L 152.061622 154.409742 
L 145.751942 159.996396 
L 139.973099 176.658294 
L 129.682076 159.729488 
L 125.43751 155.95777 
L 118.905983 152.760816 
L 114.739491 140.200628 
L 113.919466 153.239191 
L 119.041763 133.053485 
L 120.781342 113.343671 
L 130.186447 98.873233 
L 132.734563 97.898748 
L 137.830067 96.967687 
L 140.324991 95.583388 
L 142.759501 92.507145 
L 145.135683 90.74515 
L 147.445841 94.248173 
L 158.526528 182.779332 
L 159.805686 185.132145 
L 160.899727 183.977167 
L 161.832264 170.27016 
L 162.752318 184.563323 
L 162.812368 184.83295 
L 162.545665 185.86816 
L 159.678032 155.219117 
L 157.808343 176.241084 
L 155.567512 189.595348 
L 152.93544 191.683115 
L 142.452367 161.570654 
L 138.349714 179.728806 
L 133.801012 172.99845 
L 124.122078 168.155126 
L 114.192782 165.974105 
L 104.503834 151.74956 
L 100.60731 164.559203 
L 89.382325 159.56336 
L 88.360543 154.472169 
L 87.94336 139.500093 
L 88.175395 113.75308 
L 97.975951 131.548816 
L 108.080943 77.973813 
L 132.285914 70.13258 
L 152.298231 61.801538 
" style="fill:none;stroke:#4b0082;stroke-linecap:square;stroke-opacity:0.6;stroke-width:2;"/>
   </g>
   <g id="line2d_16">
    <path clip-path="url(#pf07e918024)" d="M 193.222379 111.84465 
L 212.643469 175.561816 
L 212.614483 153.875376 
L 192.364926 151.926491 
L 185.917601 162.574844 
L 179.040918 181.97277 
L 165.294618 200.418842 
L 152.060941 152.328713 
L 145.752645 160.201006 
L 139.975092 176.972882 
L 129.684321 159.927209 
L 125.45415 157.197788 
L 118.88405 151.439959 
L 114.719898 139.143589 
L 113.944512 154.553381 
L 119.089909 135.99287 
L 120.81487 115.522686 
L 130.192465 99.431428 
L 132.736705 98.122852 
L 137.822249 95.869458 
L 140.320812 94.87781 
L 142.766771 94.036685 
L 145.145084 93.344288 
L 147.44238 92.875052 
L 158.526678 182.727644 
L 159.813057 183.045011 
L 160.90236 183.330916 
L 161.838128 168.969598 
L 162.75199 184.628879 
L 162.810162 185.271381 
L 162.545921 185.816054 
L 159.659595 160.615162 
L 157.800535 179.334781 
L 155.568643 188.798951 
L 152.935706 189.129125 
L 142.454018 161.896698 
L 138.350837 179.885765 
L 133.802368 173.142879 
L 124.159875 170.826114 
L 114.217083 167.250249 
L 104.460716 149.927459 
L 100.62391 165.204155 
L 89.361553 158.897664 
L 88.361505 154.502584 
L 87.988733 140.935929 
L 88.313331 118.188775 
L 97.972541 131.420665 
L 108.088438 78.328298 
L 132.272965 68.789957 
L 152.298837 64.811375 
" style="fill:none;stroke:#ff7f50;stroke-dasharray:7.4,3.2;stroke-dashoffset:0;stroke-width:2;"/>
   </g>
   <g id="text_12">
    <!-- $D=2, \beta=17989.2294$ -->
    <g transform="translate(44.256 28.506351)scale(0.192 -0.192)">
     <defs>
      <path d="M 1081 4666 
L 2438 4666 
Q 3519 4666 4070 4208 
Q 4622 3750 4622 2847 
Q 4622 2250 4412 1698 
Q 4203 1147 3834 769 
Q 3463 381 2891 190 
Q 2319 0 1538 0 
L 172 0 
L 1081 4666 
z
M 1613 4147 
L 909 519 
L 1734 519 
Q 2794 519 3375 1128 
Q 3956 1738 3956 2847 
Q 3956 3519 3581 3833 
Q 3206 4147 2406 4147 
L 1613 4147 
z
" id="DejaVuSans-Oblique-44" transform="scale(0.015625)"/>
      <path d="M 678 2906 
L 4684 2906 
L 4684 2381 
L 678 2381 
L 678 2906 
z
M 678 1631 
L 4684 1631 
L 4684 1100 
L 678 1100 
L 678 1631 
z
" id="DejaVuSans-3d" transform="scale(0.015625)"/>
      <path d="M 1228 531 
L 3431 531 
L 3431 0 
L 469 0 
L 469 531 
Q 828 903 1448 1529 
Q 2069 2156 2228 2338 
Q 2531 2678 2651 2914 
Q 2772 3150 2772 3378 
Q 2772 3750 2511 3984 
Q 2250 4219 1831 4219 
Q 1534 4219 1204 4116 
Q 875 4013 500 3803 
L 500 4441 
Q 881 4594 1212 4672 
Q 1544 4750 1819 4750 
Q 2544 4750 2975 4387 
Q 3406 4025 3406 3419 
Q 3406 3131 3298 2873 
Q 3191 2616 2906 2266 
Q 2828 2175 2409 1742 
Q 1991 1309 1228 531 
z
" id="DejaVuSans-32" transform="scale(0.015625)"/>
      <path d="M 750 794 
L 1409 794 
L 1409 256 
L 897 -744 
L 494 -744 
L 750 256 
L 750 794 
z
" id="DejaVuSans-2c" transform="scale(0.015625)"/>
      <path d="M 872 216 
L 572 -1331 
L -6 -1331 
L 928 3478 
Q 1206 4903 2538 4903 
Q 3888 4903 3659 3700 
Q 3503 2844 2894 2531 
Q 3713 2250 3553 1416 
Q 3272 -69 1759 -66 
Q 1097 -63 872 216 
z
M 1019 966 
Q 1259 422 1875 425 
Q 2775 425 2966 1406 
Q 3138 2288 1675 2219 
L 1778 2750 
Q 2909 2731 3106 3750 
Q 3241 4438 2509 4434 
Q 1691 4434 1503 3459 
L 1019 966 
z
" id="DejaVuSans-Oblique-3b2" transform="scale(0.015625)"/>
      <path d="M 794 531 
L 1825 531 
L 1825 4091 
L 703 3866 
L 703 4441 
L 1819 4666 
L 2450 4666 
L 2450 531 
L 3481 531 
L 3481 0 
L 794 0 
L 794 531 
z
" id="DejaVuSans-31" transform="scale(0.015625)"/>
      <path d="M 525 4666 
L 3525 4666 
L 3525 4397 
L 1831 0 
L 1172 0 
L 2766 4134 
L 525 4134 
L 525 4666 
z
" id="DejaVuSans-37" transform="scale(0.015625)"/>
      <path d="M 703 97 
L 703 672 
Q 941 559 1184 500 
Q 1428 441 1663 441 
Q 2288 441 2617 861 
Q 2947 1281 2994 2138 
Q 2813 1869 2534 1725 
Q 2256 1581 1919 1581 
Q 1219 1581 811 2004 
Q 403 2428 403 3163 
Q 403 3881 828 4315 
Q 1253 4750 1959 4750 
Q 2769 4750 3195 4129 
Q 3622 3509 3622 2328 
Q 3622 1225 3098 567 
Q 2575 -91 1691 -91 
Q 1453 -91 1209 -44 
Q 966 3 703 97 
z
M 1959 2075 
Q 2384 2075 2632 2365 
Q 2881 2656 2881 3163 
Q 2881 3666 2632 3958 
Q 2384 4250 1959 4250 
Q 1534 4250 1286 3958 
Q 1038 3666 1038 3163 
Q 1038 2656 1286 2365 
Q 1534 2075 1959 2075 
z
" id="DejaVuSans-39" transform="scale(0.015625)"/>
      <path d="M 2034 2216 
Q 1584 2216 1326 1975 
Q 1069 1734 1069 1313 
Q 1069 891 1326 650 
Q 1584 409 2034 409 
Q 2484 409 2743 651 
Q 3003 894 3003 1313 
Q 3003 1734 2745 1975 
Q 2488 2216 2034 2216 
z
M 1403 2484 
Q 997 2584 770 2862 
Q 544 3141 544 3541 
Q 544 4100 942 4425 
Q 1341 4750 2034 4750 
Q 2731 4750 3128 4425 
Q 3525 4100 3525 3541 
Q 3525 3141 3298 2862 
Q 3072 2584 2669 2484 
Q 3125 2378 3379 2068 
Q 3634 1759 3634 1313 
Q 3634 634 3220 271 
Q 2806 -91 2034 -91 
Q 1263 -91 848 271 
Q 434 634 434 1313 
Q 434 1759 690 2068 
Q 947 2378 1403 2484 
z
M 1172 3481 
Q 1172 3119 1398 2916 
Q 1625 2713 2034 2713 
Q 2441 2713 2670 2916 
Q 2900 3119 2900 3481 
Q 2900 3844 2670 4047 
Q 2441 4250 2034 4250 
Q 1625 4250 1398 4047 
Q 1172 3844 1172 3481 
z
" id="DejaVuSans-38" transform="scale(0.015625)"/>
      <path d="M 684 794 
L 1344 794 
L 1344 0 
L 684 0 
L 684 794 
z
" id="DejaVuSans-2e" transform="scale(0.015625)"/>
      <path d="M 2419 4116 
L 825 1625 
L 2419 1625 
L 2419 4116 
z
M 2253 4666 
L 3047 4666 
L 3047 1625 
L 3713 1625 
L 3713 1100 
L 3047 1100 
L 3047 0 
L 2419 0 
L 2419 1100 
L 313 1100 
L 313 1709 
L 2253 4666 
z
" id="DejaVuSans-34" transform="scale(0.015625)"/>
     </defs>
     <use transform="translate(0 0.390625)" xlink:href="#DejaVuSans-Oblique-44"/>
     <use transform="translate(96.484375 0.390625)" xlink:href="#DejaVuSans-3d"/>
     <use transform="translate(199.755859 0.390625)" xlink:href="#DejaVuSans-32"/>
     <use transform="translate(263.378906 0.390625)" xlink:href="#DejaVuSans-2c"/>
     <use transform="translate(314.648438 0.390625)" xlink:href="#DejaVuSans-Oblique-3b2"/>
     <use transform="translate(397.949219 0.390625)" xlink:href="#DejaVuSans-3d"/>
     <use transform="translate(501.220703 0.390625)" xlink:href="#DejaVuSans-31"/>
     <use transform="translate(564.84375 0.390625)" xlink:href="#DejaVuSans-37"/>
     <use transform="translate(628.466797 0.390625)" xlink:href="#DejaVuSans-39"/>
     <use transform="translate(692.089844 0.390625)" xlink:href="#DejaVuSans-38"/>
     <use transform="translate(755.712891 0.390625)" xlink:href="#DejaVuSans-39"/>
     <use transform="translate(819.335938 0.390625)" xlink:href="#DejaVuSans-2e"/>
     <use transform="translate(845.623047 0.390625)" xlink:href="#DejaVuSans-32"/>
     <use transform="translate(909.246094 0.390625)" xlink:href="#DejaVuSans-32"/>
     <use transform="translate(971.119141 0.390625)" xlink:href="#DejaVuSans-39"/>
     <use transform="translate(1034.742188 0.390625)" xlink:href="#DejaVuSans-34"/>
    </g>
   </g>
  </g>
  <g id="patch_6">
   <path d="M 322.214714 246.611524 
L 541.785286 246.611524 
L 541.785286 27.040952 
L 322.214714 27.040952 
z
" style="fill:#ffffff;"/>
  </g>
  <g id="pane3d_4">
   <g id="patch_7">
    <path d="M 338.793806 192.472458 
L 411.30318 131.693663 
L 410.29523 44.039775 
L 334.315909 99.486023 
" style="fill:#f2f2f2;opacity:0.5;stroke:#f2f2f2;stroke-linejoin:miter;"/>
   </g>
  </g>
  <g id="pane3d_5">
   <g id="patch_8">
    <path d="M 411.30318 131.693663 
L 527.654854 165.512501 
L 531.807035 74.839476 
L 410.29523 44.039775 
" style="fill:#e6e6e6;opacity:0.5;stroke:#e6e6e6;stroke-linejoin:miter;"/>
   </g>
  </g>
  <g id="pane3d_6">
   <g id="patch_9">
    <path d="M 338.793806 192.472458 
L 462.132263 232.754797 
L 527.654854 165.512501 
L 411.30318 131.693663 
" style="fill:#ececec;opacity:0.5;stroke:#ececec;stroke-linejoin:miter;"/>
   </g>
  </g>
  <g id="axis3d_4">
   <g id="line2d_17">
    <path d="M 338.793806 192.472458 
L 462.132263 232.754797 
" style="fill:none;stroke:#000000;stroke-linecap:square;stroke-width:0.8;"/>
   </g>
   <g id="Line3DCollection_4">
    <path d="M 367.985657 202.006516 
L 438.934307 139.72494 
L 439.105356 51.342303 
" style="fill:none;stroke:#b0b0b0;stroke-width:0.8;"/>
    <path d="M 400.042044 212.476132 
L 469.210294 148.524975 
L 470.706364 59.352237 
" style="fill:none;stroke:#b0b0b0;stroke-width:0.8;"/>
    <path d="M 433.001945 223.240836 
L 500.267251 157.552006 
L 503.158613 67.577936 
" style="fill:none;stroke:#b0b0b0;stroke-width:0.8;"/>
   </g>
   <g id="xtick_12">
    <g id="line2d_18">
     <path d="M 368.603951 201.463753 
L 366.746391 203.094394 
" style="fill:none;stroke:#000000;stroke-linecap:square;stroke-width:0.8;"/>
    </g>
    <g id="text_13">
     <!-- −2 -->
     <g transform="translate(348.683839 230.069555)scale(0.16 -0.16)">
      <use xlink:href="#DejaVuSerif-2212"/>
      <use x="83.789062" xlink:href="#DejaVuSerif-32"/>
     </g>
    </g>
   </g>
   <g id="xtick_13">
    <g id="line2d_19">
     <path d="M 400.645508 211.918184 
L 398.832463 213.594478 
" style="fill:none;stroke:#000000;stroke-linecap:square;stroke-width:0.8;"/>
    </g>
    <g id="text_14">
     <!-- 0 -->
     <g transform="translate(387.487108 240.809547)scale(0.16 -0.16)">
      <use xlink:href="#DejaVuSerif-30"/>
     </g>
    </g>
   </g>
   <g id="xtick_14">
    <g id="line2d_20">
     <path d="M 433.589494 222.667057 
L 431.824231 224.390948 
" style="fill:none;stroke:#000000;stroke-linecap:square;stroke-width:0.8;"/>
    </g>
    <g id="text_15">
     <!-- 2 -->
     <g transform="translate(420.495592 251.853664)scale(0.16 -0.16)">
      <use xlink:href="#DejaVuSerif-32"/>
     </g>
    </g>
   </g>
  </g>
  <g id="axis3d_5">
   <g id="line2d_21">
    <path d="M 527.654854 165.512501 
L 462.132263 232.754797 
" style="fill:none;stroke:#000000;stroke-linecap:square;stroke-width:0.8;"/>
   </g>
   <g id="Line3DCollection_5">
    <path d="M 340.542238 94.942332 
L 344.7151 187.509112 
L 467.504734 227.241321 
" style="fill:none;stroke:#b0b0b0;stroke-width:0.8;"/>
    <path d="M 360.801293 80.158197 
L 364.007128 171.338152 
L 484.981763 209.30559 
" style="fill:none;stroke:#b0b0b0;stroke-width:0.8;"/>
    <path d="M 380.154251 66.035289 
L 382.472808 155.859852 
L 501.671746 192.177561 
" style="fill:none;stroke:#b0b0b0;stroke-width:0.8;"/>
    <path d="M 398.660573 52.530218 
L 400.164121 141.030643 
L 517.626677 175.803877 
" style="fill:none;stroke:#b0b0b0;stroke-width:0.8;"/>
   </g>
   <g id="xtick_15">
    <g id="line2d_22">
     <path d="M 466.47004 226.906515 
L 469.576795 227.911797 
" style="fill:none;stroke:#000000;stroke-linecap:square;stroke-width:0.8;"/>
    </g>
    <g id="text_16">
     <!-- −2 -->
     <g transform="translate(468.579624 252.808356)scale(0.16 -0.16)">
      <use xlink:href="#DejaVuSerif-2212"/>
      <use x="83.789062" xlink:href="#DejaVuSerif-32"/>
     </g>
    </g>
   </g>
   <g id="xtick_16">
    <g id="line2d_23">
     <path d="M 483.963551 208.986028 
L 487.020756 209.94552 
" style="fill:none;stroke:#000000;stroke-linecap:square;stroke-width:0.8;"/>
    </g>
    <g id="text_17">
     <!-- 0 -->
     <g transform="translate(492.476139 234.550811)scale(0.16 -0.16)">
      <use xlink:href="#DejaVuSerif-30"/>
     </g>
    </g>
   </g>
   <g id="xtick_17">
    <g id="line2d_24">
     <path d="M 500.669598 191.872225 
L 503.678514 192.788986 
" style="fill:none;stroke:#000000;stroke-linecap:square;stroke-width:0.8;"/>
    </g>
    <g id="text_18">
     <!-- 2 -->
     <g transform="translate(508.894123 217.11603)scale(0.16 -0.16)">
      <use xlink:href="#DejaVuSerif-32"/>
     </g>
    </g>
   </g>
   <g id="xtick_18">
    <g id="line2d_25">
     <path d="M 516.64018 175.511838 
L 519.60205 176.38866 
" style="fill:none;stroke:#000000;stroke-linecap:square;stroke-width:0.8;"/>
    </g>
    <g id="text_19">
     <!-- 4 -->
     <g transform="translate(524.588545 200.449623)scale(0.16 -0.16)">
      <use xlink:href="#DejaVuSerif-34"/>
     </g>
    </g>
   </g>
  </g>
  <g id="axis3d_6">
   <g id="line2d_26">
    <path d="M 527.654854 165.512501 
L 531.807035 74.839476 
" style="fill:none;stroke:#000000;stroke-linecap:square;stroke-width:0.8;"/>
   </g>
   <g id="Line3DCollection_6">
    <path d="M 528.573355 145.454768 
L 411.079845 112.271895 
L 337.804553 171.929975 
" style="fill:none;stroke:#b0b0b0;stroke-width:0.8;"/>
    <path d="M 529.621394 122.568284 
L 410.825268 90.133224 
L 336.674884 148.471658 
" style="fill:none;stroke:#b0b0b0;stroke-width:0.8;"/>
    <path d="M 530.693166 99.163511 
L 410.565206 67.517589 
L 335.518637 124.461445 
" style="fill:none;stroke:#b0b0b0;stroke-width:0.8;"/>
   </g>
   <g id="xtick_19">
    <g id="line2d_27">
     <path d="M 527.586804 145.176144 
L 530.548828 146.012687 
" style="fill:none;stroke:#000000;stroke-linecap:square;stroke-width:0.8;"/>
    </g>
    <g id="text_20">
     <!-- −1 -->
     <g transform="translate(535.193346 155.056779)scale(0.16 -0.16)">
      <use xlink:href="#DejaVuSerif-2212"/>
      <use x="83.789062" xlink:href="#DejaVuSerif-31"/>
     </g>
    </g>
   </g>
   <g id="xtick_20">
    <g id="line2d_28">
     <path d="M 528.623378 122.295795 
L 531.61985 123.113925 
" style="fill:none;stroke:#000000;stroke-linecap:square;stroke-width:0.8;"/>
    </g>
    <g id="text_21">
     <!-- 0 -->
     <g transform="translate(543.146649 132.226657)scale(0.16 -0.16)">
      <use xlink:href="#DejaVuSerif-30"/>
     </g>
    </g>
   </g>
   <g id="xtick_21">
    <g id="line2d_29">
     <path d="M 529.683416 98.897508 
L 532.715148 99.696172 
" style="fill:none;stroke:#000000;stroke-linecap:square;stroke-width:0.8;"/>
    </g>
    <g id="text_22">
     <!-- 1 -->
     <g transform="translate(544.424393 108.881461)scale(0.16 -0.16)">
      <use xlink:href="#DejaVuSerif-31"/>
     </g>
    </g>
   </g>
  </g>
  <g id="axes_2">
   <g id="line2d_30">
    <path clip-path="url(#p30d79c35f7)" d="M 475.45221 112.366386 
L 494.839172 177.05081 
L 494.831145 154.668688 
L 474.627465 150.767786 
L 468.167443 161.973759 
L 461.303056 180.283713 
L 447.526131 201.762226 
L 434.300857 152.070789 
L 427.990634 159.615991 
L 422.215193 176.988806 
L 411.919164 159.472996 
L 407.683167 156.379376 
L 401.122126 151.32411 
L 396.950271 138.624225 
L 396.17539 154.074725 
L 401.310342 134.798284 
L 403.027597 113.7502 
L 412.41433 97.749404 
L 414.961438 96.525594 
L 420.053107 94.585203 
L 422.552676 93.504154 
L 424.997085 91.998978 
L 427.376389 90.940422 
L 429.678845 91.47248 
L 440.762936 184.022283 
L 442.046762 184.827418 
L 443.136987 184.649552 
L 444.073669 169.958601 
L 444.986282 185.770562 
L 445.045456 186.206884 
L 444.780589 186.904134 
L 441.905552 158.871491 
L 440.041503 178.9515 
L 437.807095 189.888988 
L 435.17553 190.815348 
L 424.69251 161.599004 
L 420.593572 180.268085 
L 416.043895 173.30566 
L 406.391245 170.216258 
L 396.451815 166.973623 
L 386.703702 150.053662 
L 382.866104 165.289423 
L 371.620914 159.518127 
L 370.61238 154.846411 
L 370.215967 140.531936 
L 370.49023 116.159597 
L 380.220579 131.722775 
L 390.295917 76.790177 
L 414.502249 67.678918 
L 434.538352 62.404916 
" style="fill:none;stroke:#4b0082;stroke-linecap:square;stroke-opacity:0.6;stroke-width:2;"/>
   </g>
   <g id="line2d_31">
    <path clip-path="url(#p30d79c35f7)" d="M 475.466007 111.658522 
L 494.846845 176.792908 
L 494.850955 153.995327 
L 474.616764 151.317895 
L 468.162484 162.276604 
L 461.276512 182.308934 
L 447.528791 201.341097 
L 434.300672 151.505843 
L 427.990906 159.695028 
L 422.215966 177.110807 
L 411.919985 159.545281 
L 407.688602 156.784382 
L 401.116008 150.955631 
L 396.945403 138.361646 
L 396.18202 154.422664 
L 401.323877 135.624587 
L 403.038201 114.439326 
L 412.415533 97.860907 
L 414.961359 96.517314 
L 420.050329 94.195019 
L 422.550707 93.171702 
L 424.998499 92.296429 
L 427.378658 91.567553 
L 429.677803 91.058986 
L 440.762966 184.011827 
L 442.048633 184.297686 
L 443.13737 184.555518 
L 444.075092 169.642989 
L 444.986306 185.765659 
L 445.044613 186.374364 
L 444.780641 186.893427 
L 441.899522 160.636528 
L 440.038924 179.9733 
L 437.807328 189.725581 
L 435.175612 190.028376 
L 424.693107 161.716739 
L 420.594047 180.334464 
L 416.044206 173.338754 
L 406.401769 170.959925 
L 396.458322 167.315302 
L 386.689957 149.472839 
L 382.868702 165.390367 
L 371.613228 159.271827 
L 370.612177 154.840003 
L 370.228113 140.916292 
L 370.531021 117.471347 
L 380.217322 131.600347 
L 390.295584 76.774458 
L 414.497127 67.147834 
L 434.538494 63.10768 
" style="fill:none;stroke:#ff7f50;stroke-dasharray:7.4,3.2;stroke-dashoffset:0;stroke-width:2;"/>
   </g>
   <g id="text_23">
    <!-- $D=3, \beta=7985.3646$ -->
    <g transform="translate(331.968 28.506351)scale(0.192 -0.192)">
     <defs>
      <path d="M 2597 2516 
Q 3050 2419 3304 2112 
Q 3559 1806 3559 1356 
Q 3559 666 3084 287 
Q 2609 -91 1734 -91 
Q 1441 -91 1130 -33 
Q 819 25 488 141 
L 488 750 
Q 750 597 1062 519 
Q 1375 441 1716 441 
Q 2309 441 2620 675 
Q 2931 909 2931 1356 
Q 2931 1769 2642 2001 
Q 2353 2234 1838 2234 
L 1294 2234 
L 1294 2753 
L 1863 2753 
Q 2328 2753 2575 2939 
Q 2822 3125 2822 3475 
Q 2822 3834 2567 4026 
Q 2313 4219 1838 4219 
Q 1578 4219 1281 4162 
Q 984 4106 628 3988 
L 628 4550 
Q 988 4650 1302 4700 
Q 1616 4750 1894 4750 
Q 2613 4750 3031 4423 
Q 3450 4097 3450 3541 
Q 3450 3153 3228 2886 
Q 3006 2619 2597 2516 
z
" id="DejaVuSans-33" transform="scale(0.015625)"/>
      <path d="M 691 4666 
L 3169 4666 
L 3169 4134 
L 1269 4134 
L 1269 2991 
Q 1406 3038 1543 3061 
Q 1681 3084 1819 3084 
Q 2600 3084 3056 2656 
Q 3513 2228 3513 1497 
Q 3513 744 3044 326 
Q 2575 -91 1722 -91 
Q 1428 -91 1123 -41 
Q 819 9 494 109 
L 494 744 
Q 775 591 1075 516 
Q 1375 441 1709 441 
Q 2250 441 2565 725 
Q 2881 1009 2881 1497 
Q 2881 1984 2565 2268 
Q 2250 2553 1709 2553 
Q 1456 2553 1204 2497 
Q 953 2441 691 2322 
L 691 4666 
z
" id="DejaVuSans-35" transform="scale(0.015625)"/>
      <path d="M 2113 2584 
Q 1688 2584 1439 2293 
Q 1191 2003 1191 1497 
Q 1191 994 1439 701 
Q 1688 409 2113 409 
Q 2538 409 2786 701 
Q 3034 994 3034 1497 
Q 3034 2003 2786 2293 
Q 2538 2584 2113 2584 
z
M 3366 4563 
L 3366 3988 
Q 3128 4100 2886 4159 
Q 2644 4219 2406 4219 
Q 1781 4219 1451 3797 
Q 1122 3375 1075 2522 
Q 1259 2794 1537 2939 
Q 1816 3084 2150 3084 
Q 2853 3084 3261 2657 
Q 3669 2231 3669 1497 
Q 3669 778 3244 343 
Q 2819 -91 2113 -91 
Q 1303 -91 875 529 
Q 447 1150 447 2328 
Q 447 3434 972 4092 
Q 1497 4750 2381 4750 
Q 2619 4750 2861 4703 
Q 3103 4656 3366 4563 
z
" id="DejaVuSans-36" transform="scale(0.015625)"/>
     </defs>
     <use transform="translate(0 0.390625)" xlink:href="#DejaVuSans-Oblique-44"/>
     <use transform="translate(96.484375 0.390625)" xlink:href="#DejaVuSans-3d"/>
     <use transform="translate(199.755859 0.390625)" xlink:href="#DejaVuSans-33"/>
     <use transform="translate(263.378906 0.390625)" xlink:href="#DejaVuSans-2c"/>
     <use transform="translate(314.648438 0.390625)" xlink:href="#DejaVuSans-Oblique-3b2"/>
     <use transform="translate(397.949219 0.390625)" xlink:href="#DejaVuSans-3d"/>
     <use transform="translate(501.220703 0.390625)" xlink:href="#DejaVuSans-37"/>
     <use transform="translate(564.84375 0.390625)" xlink:href="#DejaVuSans-39"/>
     <use transform="translate(628.466797 0.390625)" xlink:href="#DejaVuSans-38"/>
     <use transform="translate(692.089844 0.390625)" xlink:href="#DejaVuSans-35"/>
     <use transform="translate(755.712891 0.390625)" xlink:href="#DejaVuSans-2e"/>
     <use transform="translate(787.5 0.390625)" xlink:href="#DejaVuSans-33"/>
     <use transform="translate(851.123047 0.390625)" xlink:href="#DejaVuSans-36"/>
     <use transform="translate(914.746094 0.390625)" xlink:href="#DejaVuSans-34"/>
     <use transform="translate(978.369141 0.390625)" xlink:href="#DejaVuSans-36"/>
    </g>
   </g>
  </g>
  <g id="patch_10">
   <path d="M 604.454714 246.611524 
L 824.025286 246.611524 
L 824.025286 27.040952 
L 604.454714 27.040952 
z
" style="fill:#ffffff;"/>
  </g>
  <g id="pane3d_7">
   <g id="patch_11">
    <path d="M 621.033806 192.472458 
L 693.54318 131.693663 
L 692.53523 44.039775 
L 616.555909 99.486023 
" style="fill:#f2f2f2;opacity:0.5;stroke:#f2f2f2;stroke-linejoin:miter;"/>
   </g>
  </g>
  <g id="pane3d_8">
   <g id="patch_12">
    <path d="M 693.54318 131.693663 
L 809.894854 165.512501 
L 814.047035 74.839476 
L 692.53523 44.039775 
" style="fill:#e6e6e6;opacity:0.5;stroke:#e6e6e6;stroke-linejoin:miter;"/>
   </g>
  </g>
  <g id="pane3d_9">
   <g id="patch_13">
    <path d="M 621.033806 192.472458 
L 744.372263 232.754797 
L 809.894854 165.512501 
L 693.54318 131.693663 
" style="fill:#ececec;opacity:0.5;stroke:#ececec;stroke-linejoin:miter;"/>
   </g>
  </g>
  <g id="axis3d_7">
   <g id="line2d_32">
    <path d="M 621.033806 192.472458 
L 744.372263 232.754797 
" style="fill:none;stroke:#000000;stroke-linecap:square;stroke-width:0.8;"/>
   </g>
   <g id="Line3DCollection_7">
    <path d="M 650.225657 202.006516 
L 721.174307 139.72494 
L 721.345356 51.342303 
" style="fill:none;stroke:#b0b0b0;stroke-width:0.8;"/>
    <path d="M 682.282044 212.476132 
L 751.450294 148.524975 
L 752.946364 59.352237 
" style="fill:none;stroke:#b0b0b0;stroke-width:0.8;"/>
    <path d="M 715.241945 223.240836 
L 782.507251 157.552006 
L 785.398613 67.577936 
" style="fill:none;stroke:#b0b0b0;stroke-width:0.8;"/>
   </g>
   <g id="xtick_22">
    <g id="line2d_33">
     <path d="M 650.843951 201.463753 
L 648.986391 203.094394 
" style="fill:none;stroke:#000000;stroke-linecap:square;stroke-width:0.8;"/>
    </g>
    <g id="text_24">
     <!-- −2 -->
     <g transform="translate(630.923839 230.069555)scale(0.16 -0.16)">
      <use xlink:href="#DejaVuSerif-2212"/>
      <use x="83.789062" xlink:href="#DejaVuSerif-32"/>
     </g>
    </g>
   </g>
   <g id="xtick_23">
    <g id="line2d_34">
     <path d="M 682.885508 211.918184 
L 681.072463 213.594478 
" style="fill:none;stroke:#000000;stroke-linecap:square;stroke-width:0.8;"/>
    </g>
    <g id="text_25">
     <!-- 0 -->
     <g transform="translate(669.727108 240.809547)scale(0.16 -0.16)">
      <use xlink:href="#DejaVuSerif-30"/>
     </g>
    </g>
   </g>
   <g id="xtick_24">
    <g id="line2d_35">
     <path d="M 715.829494 222.667057 
L 714.064231 224.390948 
" style="fill:none;stroke:#000000;stroke-linecap:square;stroke-width:0.8;"/>
    </g>
    <g id="text_26">
     <!-- 2 -->
     <g transform="translate(702.735592 251.853664)scale(0.16 -0.16)">
      <use xlink:href="#DejaVuSerif-32"/>
     </g>
    </g>
   </g>
  </g>
  <g id="axis3d_8">
   <g id="line2d_36">
    <path d="M 809.894854 165.512501 
L 744.372263 232.754797 
" style="fill:none;stroke:#000000;stroke-linecap:square;stroke-width:0.8;"/>
   </g>
   <g id="Line3DCollection_8">
    <path d="M 622.782238 94.942332 
L 626.9551 187.509112 
L 749.744734 227.241321 
" style="fill:none;stroke:#b0b0b0;stroke-width:0.8;"/>
    <path d="M 643.041293 80.158197 
L 646.247128 171.338152 
L 767.221763 209.30559 
" style="fill:none;stroke:#b0b0b0;stroke-width:0.8;"/>
    <path d="M 662.394251 66.035289 
L 664.712808 155.859852 
L 783.911746 192.177561 
" style="fill:none;stroke:#b0b0b0;stroke-width:0.8;"/>
    <path d="M 680.900573 52.530218 
L 682.404121 141.030643 
L 799.866677 175.803877 
" style="fill:none;stroke:#b0b0b0;stroke-width:0.8;"/>
   </g>
   <g id="xtick_25">
    <g id="line2d_37">
     <path d="M 748.71004 226.906515 
L 751.816795 227.911797 
" style="fill:none;stroke:#000000;stroke-linecap:square;stroke-width:0.8;"/>
    </g>
    <g id="text_27">
     <!-- −2 -->
     <g transform="translate(750.819624 252.808356)scale(0.16 -0.16)">
      <use xlink:href="#DejaVuSerif-2212"/>
      <use x="83.789062" xlink:href="#DejaVuSerif-32"/>
     </g>
    </g>
   </g>
   <g id="xtick_26">
    <g id="line2d_38">
     <path d="M 766.203551 208.986028 
L 769.260756 209.94552 
" style="fill:none;stroke:#000000;stroke-linecap:square;stroke-width:0.8;"/>
    </g>
    <g id="text_28">
     <!-- 0 -->
     <g transform="translate(774.716139 234.550811)scale(0.16 -0.16)">
      <use xlink:href="#DejaVuSerif-30"/>
     </g>
    </g>
   </g>
   <g id="xtick_27">
    <g id="line2d_39">
     <path d="M 782.909598 191.872225 
L 785.918514 192.788986 
" style="fill:none;stroke:#000000;stroke-linecap:square;stroke-width:0.8;"/>
    </g>
    <g id="text_29">
     <!-- 2 -->
     <g transform="translate(791.134123 217.11603)scale(0.16 -0.16)">
      <use xlink:href="#DejaVuSerif-32"/>
     </g>
    </g>
   </g>
   <g id="xtick_28">
    <g id="line2d_40">
     <path d="M 798.88018 175.511838 
L 801.84205 176.38866 
" style="fill:none;stroke:#000000;stroke-linecap:square;stroke-width:0.8;"/>
    </g>
    <g id="text_30">
     <!-- 4 -->
     <g transform="translate(806.828545 200.449623)scale(0.16 -0.16)">
      <use xlink:href="#DejaVuSerif-34"/>
     </g>
    </g>
   </g>
  </g>
  <g id="axis3d_9">
   <g id="line2d_41">
    <path d="M 809.894854 165.512501 
L 814.047035 74.839476 
" style="fill:none;stroke:#000000;stroke-linecap:square;stroke-width:0.8;"/>
   </g>
   <g id="Line3DCollection_9">
    <path d="M 810.799373 145.760115 
L 693.323244 112.567424 
L 620.059618 172.242816 
" style="fill:none;stroke:#b0b0b0;stroke-width:0.8;"/>
    <path d="M 811.861987 122.555334 
L 693.065124 90.120704 
L 618.914244 148.458379 
" style="fill:none;stroke:#b0b0b0;stroke-width:0.8;"/>
    <path d="M 812.949007 98.817584 
L 692.801365 67.18351 
L 617.74154 124.106412 
" style="fill:none;stroke:#b0b0b0;stroke-width:0.8;"/>
   </g>
   <g id="xtick_29">
    <g id="line2d_42">
     <path d="M 809.812974 145.48141 
L 812.774538 146.318195 
" style="fill:none;stroke:#000000;stroke-linecap:square;stroke-width:0.8;"/>
    </g>
    <g id="text_31">
     <!-- −1 -->
     <g transform="translate(817.416674 155.361387)scale(0.16 -0.16)">
      <use xlink:href="#DejaVuSerif-2212"/>
      <use x="83.789062" xlink:href="#DejaVuSerif-31"/>
     </g>
    </g>
   </g>
   <g id="xtick_30">
    <g id="line2d_43">
     <path d="M 810.863964 122.282848 
L 813.860456 123.100968 
" style="fill:none;stroke:#000000;stroke-linecap:square;stroke-width:0.8;"/>
    </g>
    <g id="text_32">
     <!-- 0 -->
     <g transform="translate(825.387356 132.213739)scale(0.16 -0.16)">
      <use xlink:href="#DejaVuSerif-30"/>
     </g>
    </g>
   </g>
   <g id="xtick_31">
    <g id="line2d_44">
     <path d="M 811.939083 98.551678 
L 814.971336 99.35005 
" style="fill:none;stroke:#000000;stroke-linecap:square;stroke-width:0.8;"/>
    </g>
    <g id="text_33">
     <!-- 1 -->
     <g transform="translate(826.683277 108.536429)scale(0.16 -0.16)">
      <use xlink:href="#DejaVuSerif-31"/>
     </g>
    </g>
   </g>
  </g>
  <g id="axes_3">
   <g id="line2d_45">
    <path clip-path="url(#p6ec07e0940)" d="M 757.706689 111.623533 
L 777.138628 175.052263 
L 777.089713 154.037521 
L 756.852447 151.539815 
L 750.400458 162.400322 
L 743.52109 181.959614 
L 729.779182 199.696555 
L 716.540733 151.691165 
L 710.231313 159.813388 
L 704.453978 176.797136 
L 694.159672 159.517762 
L 689.928582 156.782905 
L 683.355768 150.941195 
L 679.192274 138.732308 
L 678.426181 154.640972 
L 683.574465 136.271004 
L 685.287688 115.055934 
L 694.668675 99.079878 
L 697.21266 97.699676 
L 702.298488 95.341106 
L 704.797821 94.372764 
L 707.244958 93.655285 
L 709.623732 92.970495 
L 711.9181 91.177141 
L 723.003138 183.952453 
L 724.292832 183.108562 
L 725.382134 183.386342 
L 726.314767 169.714986 
L 727.22633 185.760995 
L 727.284942 186.309001 
L 727.020852 186.850504 
L 724.139769 160.56413 
L 722.279678 179.674576 
L 720.048918 188.605906 
L 717.415726 188.936437 
L 706.932948 161.685374 
L 702.831869 180.030052 
L 698.284145 173.332305 
L 688.642288 170.996621 
L 678.69919 167.360923 
L 668.941286 149.951571 
L 665.110177 165.447674 
L 653.850408 159.181456 
L 652.847751 154.700063 
L 652.476936 141.195498 
L 652.798649 118.359792 
L 662.452647 131.424643 
L 672.573375 78.561842 
L 696.753849 68.881598 
L 716.778893 65.088432 
" style="fill:none;stroke:#4b0082;stroke-linecap:square;stroke-opacity:0.6;stroke-width:2;"/>
   </g>
   <g id="line2d_46">
    <path clip-path="url(#p6ec07e0940)" d="M 757.707194 111.597617 
L 777.138523 175.055791 
L 777.102482 153.603475 
L 756.858008 151.253969 
L 750.407244 161.985935 
L 743.525051 181.657424 
L 729.776534 200.115584 
L 716.540653 151.447906 
L 710.230832 159.67354 
L 704.454702 176.911381 
L 694.159156 159.472303 
L 689.928471 156.774593 
L 683.355343 150.915606 
L 679.189334 138.573701 
L 678.428327 154.753605 
L 683.575588 136.33953 
L 685.285648 114.923353 
L 694.667799 98.998653 
L 697.212302 97.662124 
L 702.299575 95.493761 
L 704.798841 94.544968 
L 707.245509 93.771223 
L 709.623997 93.043676 
L 711.917803 91.058986 
L 723.002936 184.022283 
L 724.292814 183.11371 
L 725.382102 183.394156 
L 726.316219 169.39309 
L 727.226184 185.790141 
L 727.284802 186.336852 
L 727.020481 186.92623 
L 724.141286 160.120126 
L 722.279957 179.563998 
L 720.048487 188.909473 
L 717.415692 189.265962 
L 706.93272 161.640494 
L 702.83319 180.214691 
L 698.28466 173.38718 
L 688.643788 171.102598 
L 678.701035 167.457797 
L 668.939746 149.886485 
L 665.1149 165.631169 
L 653.85473 159.319955 
L 652.852055 154.836149 
L 652.480841 141.319073 
L 652.79706 118.308668 
L 662.460741 131.728882 
L 672.571921 78.49306 
L 696.75593 69.097417 
L 716.77892 65.219272 
" style="fill:none;stroke:#ff7f50;stroke-dasharray:7.4,3.2;stroke-dashoffset:0;stroke-width:2;"/>
   </g>
   <g id="text_34">
    <!-- $D=10, \beta=2401.6398$ -->
    <g transform="translate(608.064 28.506351)scale(0.192 -0.192)">
     <defs>
      <path d="M 2034 4250 
Q 1547 4250 1301 3770 
Q 1056 3291 1056 2328 
Q 1056 1369 1301 889 
Q 1547 409 2034 409 
Q 2525 409 2770 889 
Q 3016 1369 3016 2328 
Q 3016 3291 2770 3770 
Q 2525 4250 2034 4250 
z
M 2034 4750 
Q 2819 4750 3233 4129 
Q 3647 3509 3647 2328 
Q 3647 1150 3233 529 
Q 2819 -91 2034 -91 
Q 1250 -91 836 529 
Q 422 1150 422 2328 
Q 422 3509 836 4129 
Q 1250 4750 2034 4750 
z
" id="DejaVuSans-30" transform="scale(0.015625)"/>
     </defs>
     <use transform="translate(0 0.390625)" xlink:href="#DejaVuSans-Oblique-44"/>
     <use transform="translate(96.484375 0.390625)" xlink:href="#DejaVuSans-3d"/>
     <use transform="translate(199.755859 0.390625)" xlink:href="#DejaVuSans-31"/>
     <use transform="translate(263.378906 0.390625)" xlink:href="#DejaVuSans-30"/>
     <use transform="translate(327.001953 0.390625)" xlink:href="#DejaVuSans-2c"/>
     <use transform="translate(378.271484 0.390625)" xlink:href="#DejaVuSans-Oblique-3b2"/>
     <use transform="translate(461.572266 0.390625)" xlink:href="#DejaVuSans-3d"/>
     <use transform="translate(564.84375 0.390625)" xlink:href="#DejaVuSans-32"/>
     <use transform="translate(628.466797 0.390625)" xlink:href="#DejaVuSans-34"/>
     <use transform="translate(692.089844 0.390625)" xlink:href="#DejaVuSans-30"/>
     <use transform="translate(755.712891 0.390625)" xlink:href="#DejaVuSans-31"/>
     <use transform="translate(819.335938 0.390625)" xlink:href="#DejaVuSans-2e"/>
     <use transform="translate(851.123047 0.390625)" xlink:href="#DejaVuSans-36"/>
     <use transform="translate(914.746094 0.390625)" xlink:href="#DejaVuSans-33"/>
     <use transform="translate(978.369141 0.390625)" xlink:href="#DejaVuSans-39"/>
     <use transform="translate(1041.992188 0.390625)" xlink:href="#DejaVuSans-38"/>
    </g>
   </g>
  </g>
  <g id="patch_14">
   <path d="M 39.974714 564.12 
L 259.545286 564.12 
L 259.545286 344.549428 
L 39.974714 344.549428 
z
" style="fill:#ffffff;"/>
  </g>
  <g id="pane3d_10">
   <g id="patch_15">
    <path d="M 56.553806 509.980934 
L 129.06318 449.202139 
L 128.05523 361.548251 
L 52.075909 416.994499 
" style="fill:#f2f2f2;opacity:0.5;stroke:#f2f2f2;stroke-linejoin:miter;"/>
   </g>
  </g>
  <g id="pane3d_11">
   <g id="patch_16">
    <path d="M 129.06318 449.202139 
L 245.414854 483.020977 
L 249.567035 392.347952 
L 128.05523 361.548251 
" style="fill:#e6e6e6;opacity:0.5;stroke:#e6e6e6;stroke-linejoin:miter;"/>
   </g>
  </g>
  <g id="pane3d_12">
   <g id="patch_17">
    <path d="M 56.553806 509.980934 
L 179.892263 550.263273 
L 245.414854 483.020977 
L 129.06318 449.202139 
" style="fill:#ececec;opacity:0.5;stroke:#ececec;stroke-linejoin:miter;"/>
   </g>
  </g>
  <g id="axis3d_10">
   <g id="line2d_47">
    <path d="M 56.553806 509.980934 
L 179.892263 550.263273 
" style="fill:none;stroke:#000000;stroke-linecap:square;stroke-width:0.8;"/>
   </g>
   <g id="Line3DCollection_10">
    <path d="M 85.745657 519.514992 
L 156.694307 457.233416 
L 156.865356 368.850779 
" style="fill:none;stroke:#b0b0b0;stroke-width:0.8;"/>
    <path d="M 117.802044 529.984608 
L 186.970294 466.03345 
L 188.466364 376.860713 
" style="fill:none;stroke:#b0b0b0;stroke-width:0.8;"/>
    <path d="M 150.761945 540.749312 
L 218.027251 475.060482 
L 220.918613 385.086412 
" style="fill:none;stroke:#b0b0b0;stroke-width:0.8;"/>
   </g>
   <g id="xtick_32">
    <g id="line2d_48">
     <path d="M 86.363951 518.972229 
L 84.506391 520.60287 
" style="fill:none;stroke:#000000;stroke-linecap:square;stroke-width:0.8;"/>
    </g>
    <g id="text_35">
     <!-- −2 -->
     <g transform="translate(66.443839 547.57803)scale(0.16 -0.16)">
      <use xlink:href="#DejaVuSerif-2212"/>
      <use x="83.789062" xlink:href="#DejaVuSerif-32"/>
     </g>
    </g>
   </g>
   <g id="xtick_33">
    <g id="line2d_49">
     <path d="M 118.405508 529.42666 
L 116.592463 531.102954 
" style="fill:none;stroke:#000000;stroke-linecap:square;stroke-width:0.8;"/>
    </g>
    <g id="text_36">
     <!-- 0 -->
     <g transform="translate(105.247108 558.318023)scale(0.16 -0.16)">
      <use xlink:href="#DejaVuSerif-30"/>
     </g>
    </g>
   </g>
   <g id="xtick_34">
    <g id="line2d_50">
     <path d="M 151.349494 540.175533 
L 149.584231 541.899424 
" style="fill:none;stroke:#000000;stroke-linecap:square;stroke-width:0.8;"/>
    </g>
    <g id="text_37">
     <!-- 2 -->
     <g transform="translate(138.255592 569.36214)scale(0.16 -0.16)">
      <use xlink:href="#DejaVuSerif-32"/>
     </g>
    </g>
   </g>
  </g>
  <g id="axis3d_11">
   <g id="line2d_51">
    <path d="M 245.414854 483.020977 
L 179.892263 550.263273 
" style="fill:none;stroke:#000000;stroke-linecap:square;stroke-width:0.8;"/>
   </g>
   <g id="Line3DCollection_11">
    <path d="M 58.302238 412.450808 
L 62.4751 505.017588 
L 185.264734 544.749797 
" style="fill:none;stroke:#b0b0b0;stroke-width:0.8;"/>
    <path d="M 78.561293 397.666673 
L 81.767128 488.846628 
L 202.741763 526.814066 
" style="fill:none;stroke:#b0b0b0;stroke-width:0.8;"/>
    <path d="M 97.914251 383.543765 
L 100.232808 473.368328 
L 219.431746 509.686037 
" style="fill:none;stroke:#b0b0b0;stroke-width:0.8;"/>
    <path d="M 116.420573 370.038694 
L 117.924121 458.539119 
L 235.386677 493.312353 
" style="fill:none;stroke:#b0b0b0;stroke-width:0.8;"/>
   </g>
   <g id="xtick_35">
    <g id="line2d_52">
     <path d="M 184.23004 544.414991 
L 187.336795 545.420273 
" style="fill:none;stroke:#000000;stroke-linecap:square;stroke-width:0.8;"/>
    </g>
    <g id="text_38">
     <!-- −2 -->
     <g transform="translate(186.339624 570.316832)scale(0.16 -0.16)">
      <use xlink:href="#DejaVuSerif-2212"/>
      <use x="83.789062" xlink:href="#DejaVuSerif-32"/>
     </g>
    </g>
   </g>
   <g id="xtick_36">
    <g id="line2d_53">
     <path d="M 201.723551 526.494504 
L 204.780756 527.453996 
" style="fill:none;stroke:#000000;stroke-linecap:square;stroke-width:0.8;"/>
    </g>
    <g id="text_39">
     <!-- 0 -->
     <g transform="translate(210.236139 552.059287)scale(0.16 -0.16)">
      <use xlink:href="#DejaVuSerif-30"/>
     </g>
    </g>
   </g>
   <g id="xtick_37">
    <g id="line2d_54">
     <path d="M 218.429598 509.380701 
L 221.438514 510.297462 
" style="fill:none;stroke:#000000;stroke-linecap:square;stroke-width:0.8;"/>
    </g>
    <g id="text_40">
     <!-- 2 -->
     <g transform="translate(226.654123 534.624506)scale(0.16 -0.16)">
      <use xlink:href="#DejaVuSerif-32"/>
     </g>
    </g>
   </g>
   <g id="xtick_38">
    <g id="line2d_55">
     <path d="M 234.40018 493.020314 
L 237.36205 493.897136 
" style="fill:none;stroke:#000000;stroke-linecap:square;stroke-width:0.8;"/>
    </g>
    <g id="text_41">
     <!-- 4 -->
     <g transform="translate(242.348545 517.958099)scale(0.16 -0.16)">
      <use xlink:href="#DejaVuSerif-34"/>
     </g>
    </g>
   </g>
  </g>
  <g id="axis3d_12">
   <g id="line2d_56">
    <path d="M 245.414854 483.020977 
L 249.567035 392.347952 
" style="fill:none;stroke:#000000;stroke-linecap:square;stroke-width:0.8;"/>
   </g>
   <g id="Line3DCollection_12">
    <path d="M 245.559826 479.855153 
L 129.027916 446.135486 
L 56.397716 506.739617 
" style="fill:none;stroke:#b0b0b0;stroke-width:0.8;"/>
    <path d="M 247.289234 442.089287 
L 128.607644 409.587522 
L 54.53426 468.043746 
" style="fill:none;stroke:#b0b0b0;stroke-width:0.8;"/>
    <path d="M 249.084302 402.889607 
L 128.172196 371.719905 
L 52.597286 427.821231 
" style="fill:none;stroke:#b0b0b0;stroke-width:0.8;"/>
   </g>
   <g id="xtick_39">
    <g id="line2d_57">
     <path d="M 244.581731 479.572131 
L 247.518346 480.42187 
" style="fill:none;stroke:#000000;stroke-linecap:square;stroke-width:0.8;"/>
    </g>
    <g id="text_42">
     <!-- −2 -->
     <g transform="translate(252.031019 489.416767)scale(0.16 -0.16)">
      <use xlink:href="#DejaVuSerif-2212"/>
      <use x="83.789062" xlink:href="#DejaVuSerif-32"/>
     </g>
    </g>
   </g>
   <g id="xtick_40">
    <g id="line2d_58">
     <path d="M 246.292227 441.81625 
L 249.285669 442.636025 
" style="fill:none;stroke:#000000;stroke-linecap:square;stroke-width:0.8;"/>
    </g>
    <g id="text_43">
     <!-- 0 -->
     <g transform="translate(260.796773 451.742629)scale(0.16 -0.16)">
      <use xlink:href="#DejaVuSerif-30"/>
     </g>
    </g>
   </g>
   <g id="xtick_41">
    <g id="line2d_59">
     <path d="M 248.067637 402.627523 
L 251.120145 403.414423 
" style="fill:none;stroke:#000000;stroke-linecap:square;stroke-width:0.8;"/>
    </g>
    <g id="text_44">
     <!-- 2 -->
     <g transform="translate(262.936768 412.643556)scale(0.16 -0.16)">
      <use xlink:href="#DejaVuSerif-32"/>
     </g>
    </g>
   </g>
  </g>
  <g id="axes_4">
   <g id="line2d_60">
    <path clip-path="url(#p40634e15ba)" d="M 193.143209 433.415175 
L 212.711559 490.781533 
L 212.522543 474.509097 
L 192.319821 471.753663 
L 185.88814 481.882562 
L 179.110597 494.165064 
L 165.299463 517.16051 
L 152.062988 476.095102 
L 145.763317 480.81468 
L 139.97854 495.025532 
L 129.714045 480.05387 
L 125.479041 476.561132 
L 118.955486 473.250519 
L 114.81625 461.850121 
L 113.957886 472.763623 
L 119.092752 453.674896 
L 120.869454 436.578739 
L 130.265738 423.736093 
L 132.805677 422.847339 
L 137.883649 422.002866 
L 140.370778 420.822482 
L 142.798459 418.211853 
L 145.166393 416.744042 
L 147.466111 419.798633 
L 158.537061 496.643151 
L 159.819159 498.825602 
L 160.914002 497.982352 
L 161.838944 486.297214 
L 162.767567 499.021956 
L 162.826917 499.449392 
L 162.559542 500.544688 
L 159.671258 474.710117 
L 157.81015 493.03344 
L 155.570843 504.758581 
L 152.935696 506.736441 
L 142.462858 481.149931 
L 138.347124 496.87518 
L 133.806641 491.10668 
L 124.139284 486.879479 
L 114.217058 484.757415 
L 104.570217 472.063236 
L 100.626038 482.795313 
L 89.375962 476.867921 
L 88.360824 471.989532 
L 87.992888 458.575892 
L 88.31982 435.905906 
L 97.992397 449.675502 
L 108.2339 402.716607 
L 132.356759 394.98661 
L 152.29989 387.53912 
" style="fill:none;stroke:#4b0082;stroke-linecap:square;stroke-opacity:0.6;stroke-width:2;"/>
   </g>
   <g id="line2d_61">
    <path clip-path="url(#p40634e15ba)" d="M 192.97327 442.134416 
L 212.595432 494.685003 
L 212.37768 479.433313 
L 192.281989 473.69844 
L 186.118804 467.795485 
L 179.135749 492.24615 
L 165.261579 523.156758 
L 152.063831 478.672331 
L 145.768501 482.32309 
L 139.993026 497.311896 
L 129.792251 486.94234 
L 125.482119 476.790532 
L 119.070992 480.206657 
L 114.999434 471.732569 
L 113.937668 471.70276 
L 119.08325 453.094753 
L 120.936374 440.928016 
L 130.392591 435.502075 
L 132.863288 428.87469 
L 138.001688 438.58388 
L 140.418978 428.960602 
L 142.773707 413.004439 
L 145.135486 408.199213 
L 147.471922 422.104131 
L 158.546146 493.499171 
L 159.805686 502.640621 
L 160.912593 498.328198 
L 161.845926 484.748666 
L 162.812236 490.088308 
L 162.801287 504.544146 
L 162.559961 500.459228 
L 159.702477 465.572894 
L 157.801686 496.387256 
L 155.557169 514.387337 
L 152.93618 502.08738 
L 142.474048 483.358441 
L 138.338188 495.625953 
L 133.802413 490.65621 
L 123.9831 475.842529 
L 114.145352 480.99185 
L 104.623684 474.322645 
L 100.424577 474.967949 
L 89.238978 472.478012 
L 88.415542 473.71955 
L 87.967686 457.778366 
L 88.364802 437.352429 
L 97.696014 438.534858 
L 108.380466 409.648629 
L 132.484967 408.279745 
L 152.29828 379.554379 
" style="fill:none;stroke:#32cd32;stroke-dasharray:2.5,4.125;stroke-dashoffset:0;stroke-width:2.5;"/>
   </g>
   <g id="text_45">
    <!-- $\uparrow$ -->
    <g transform="translate(137.952 275.556427)scale(0.192 -0.192)">
     <defs>
      <path d="M 2541 4688 
L 2822 4688 
L 4047 3456 
L 3672 3081 
L 2947 3813 
L 2947 0 
L 2416 0 
L 2416 3813 
L 1684 3081 
L 1309 3456 
L 2541 4688 
z
" id="DejaVuSans-2191" transform="scale(0.015625)"/>
     </defs>
     <use transform="translate(19.482422 0.75)" xlink:href="#DejaVuSans-2191"/>
    </g>
    <!-- $\ell_{Lap}=1277.601$ -->
    <g transform="translate(75.936 297.056227)scale(0.192 -0.192)">
     <defs>
      <path d="M 950 838 
Q 1078 213 1350 213 
Q 1531 213 1766 572 
L 2181 572 
Q 1994 253 1775 88 
Q 1538 -91 1319 -91 
Q 831 -91 634 344 
L 400 0 
L -88 0 
Q 250 459 500 888 
Q 469 1131 469 1397 
Q 469 1872 566 2347 
Q 931 4131 1256 4497 
Q 1481 4750 1866 4750 
Q 2256 4750 2256 4209 
Q 2253 3966 2197 3675 
Q 1972 2484 950 838 
z
M 947 1656 
Q 1531 2744 1709 3613 
Q 1803 4072 1803 4191 
Q 1803 4406 1725 4406 
Q 1384 4134 1081 2516 
Q 997 2063 947 1656 
z
" id="DejaVuSans-Oblique-2113" transform="scale(0.015625)"/>
      <path d="M 1075 4666 
L 1709 4666 
L 909 525 
L 3181 525 
L 3078 0 
L 172 0 
L 1075 4666 
z
" id="DejaVuSans-Oblique-4c" transform="scale(0.015625)"/>
      <path d="M 3438 1997 
L 3047 0 
L 2472 0 
L 2578 531 
Q 2325 219 2001 64 
Q 1678 -91 1281 -91 
Q 834 -91 548 182 
Q 263 456 263 884 
Q 263 1497 752 1853 
Q 1241 2209 2100 2209 
L 2900 2209 
L 2931 2363 
Q 2938 2388 2941 2417 
Q 2944 2447 2944 2509 
Q 2944 2788 2717 2942 
Q 2491 3097 2081 3097 
Q 1800 3097 1504 3025 
Q 1209 2953 897 2809 
L 997 3341 
Q 1322 3463 1633 3523 
Q 1944 3584 2234 3584 
Q 2853 3584 3176 3315 
Q 3500 3047 3500 2534 
Q 3500 2431 3484 2292 
Q 3469 2153 3438 1997 
z
M 2816 1759 
L 2241 1759 
Q 1534 1759 1195 1570 
Q 856 1381 856 984 
Q 856 709 1029 553 
Q 1203 397 1509 397 
Q 1978 397 2328 733 
Q 2678 1069 2791 1631 
L 2816 1759 
z
" id="DejaVuSans-Oblique-61" transform="scale(0.015625)"/>
      <path d="M 3175 2156 
Q 3175 2616 2975 2859 
Q 2775 3103 2400 3103 
Q 2144 3103 1911 2972 
Q 1678 2841 1497 2591 
Q 1319 2344 1212 1994 
Q 1106 1644 1106 1300 
Q 1106 863 1306 627 
Q 1506 391 1875 391 
Q 2147 391 2380 519 
Q 2613 647 2778 891 
Q 2956 1147 3065 1494 
Q 3175 1841 3175 2156 
z
M 1394 2969 
Q 1625 3272 1939 3428 
Q 2253 3584 2638 3584 
Q 3175 3584 3472 3232 
Q 3769 2881 3769 2247 
Q 3769 1728 3584 1258 
Q 3400 788 3053 416 
Q 2822 169 2531 39 
Q 2241 -91 1919 -91 
Q 1547 -91 1294 64 
Q 1041 219 916 525 
L 556 -1331 
L -19 -1331 
L 922 3500 
L 1497 3500 
L 1394 2969 
z
" id="DejaVuSans-Oblique-70" transform="scale(0.015625)"/>
     </defs>
     <use transform="translate(0 0.78125)" xlink:href="#DejaVuSans-Oblique-2113"/>
     <use transform="translate(41.308594 -15.625)scale(0.7)" xlink:href="#DejaVuSans-Oblique-4c"/>
     <use transform="translate(80.307617 -15.625)scale(0.7)" xlink:href="#DejaVuSans-Oblique-61"/>
     <use transform="translate(123.203125 -15.625)scale(0.7)" xlink:href="#DejaVuSans-Oblique-70"/>
     <use transform="translate(189.853516 0.78125)" xlink:href="#DejaVuSans-3d"/>
     <use transform="translate(293.125 0.78125)" xlink:href="#DejaVuSans-31"/>
     <use transform="translate(356.748047 0.78125)" xlink:href="#DejaVuSans-32"/>
     <use transform="translate(420.371094 0.78125)" xlink:href="#DejaVuSans-37"/>
     <use transform="translate(482.244141 0.78125)" xlink:href="#DejaVuSans-37"/>
     <use transform="translate(545.867188 0.78125)" xlink:href="#DejaVuSans-2e"/>
     <use transform="translate(577.654297 0.78125)" xlink:href="#DejaVuSans-36"/>
     <use transform="translate(641.277344 0.78125)" xlink:href="#DejaVuSans-30"/>
     <use transform="translate(704.900391 0.78125)" xlink:href="#DejaVuSans-31"/>
    </g>
    <!-- $\ell_{Gaus}=0.6544$ -->
    <g transform="translate(83.04 320.515027)scale(0.192 -0.192)">
     <defs>
      <path d="M 3494 697 
L 3738 1919 
L 2700 1919 
L 2797 2438 
L 4453 2438 
L 4050 384 
Q 3634 156 3143 32 
Q 2653 -91 2156 -91 
Q 1278 -91 783 396 
Q 288 884 288 1753 
Q 288 2475 589 3126 
Q 891 3778 1422 4213 
Q 1756 4484 2153 4617 
Q 2550 4750 3034 4750 
Q 3472 4750 3873 4639 
Q 4275 4528 4641 4306 
L 4513 3634 
Q 4231 3928 3853 4083 
Q 3475 4238 3047 4238 
Q 2550 4238 2172 4048 
Q 1794 3859 1497 3463 
Q 1244 3125 1098 2667 
Q 953 2209 953 1734 
Q 953 1081 1287 751 
Q 1622 422 2284 422 
Q 2616 422 2925 492 
Q 3234 563 3494 697 
z
" id="DejaVuSans-Oblique-47" transform="scale(0.015625)"/>
      <path d="M 428 1388 
L 838 3500 
L 1416 3500 
L 1006 1409 
Q 975 1256 961 1147 
Q 947 1038 947 966 
Q 947 700 1109 554 
Q 1272 409 1569 409 
Q 2031 409 2368 721 
Q 2706 1034 2809 1563 
L 3194 3500 
L 3769 3500 
L 3091 0 
L 2516 0 
L 2631 550 
Q 2388 244 2052 76 
Q 1716 -91 1338 -91 
Q 878 -91 622 161 
Q 366 413 366 863 
Q 366 956 381 1097 
Q 397 1238 428 1388 
z
" id="DejaVuSans-Oblique-75" transform="scale(0.015625)"/>
      <path d="M 3200 3397 
L 3091 2853 
Q 2863 2978 2609 3040 
Q 2356 3103 2088 3103 
Q 1634 3103 1373 2948 
Q 1113 2794 1113 2528 
Q 1113 2219 1719 2053 
Q 1766 2041 1788 2034 
L 1972 1978 
Q 2547 1819 2739 1644 
Q 2931 1469 2931 1166 
Q 2931 609 2489 259 
Q 2047 -91 1331 -91 
Q 1053 -91 747 -37 
Q 441 16 72 128 
L 184 722 
Q 500 559 806 475 
Q 1113 391 1394 391 
Q 1816 391 2080 572 
Q 2344 753 2344 1031 
Q 2344 1331 1650 1516 
L 1591 1531 
L 1394 1581 
Q 956 1697 753 1886 
Q 550 2075 550 2369 
Q 550 2928 970 3256 
Q 1391 3584 2113 3584 
Q 2397 3584 2667 3537 
Q 2938 3491 3200 3397 
z
" id="DejaVuSans-Oblique-73" transform="scale(0.015625)"/>
     </defs>
     <use transform="translate(0 0.78125)" xlink:href="#DejaVuSans-Oblique-2113"/>
     <use transform="translate(41.308594 -15.625)scale(0.7)" xlink:href="#DejaVuSans-Oblique-47"/>
     <use transform="translate(95.551758 -15.625)scale(0.7)" xlink:href="#DejaVuSans-Oblique-61"/>
     <use transform="translate(138.447266 -15.625)scale(0.7)" xlink:href="#DejaVuSans-Oblique-75"/>
     <use transform="translate(182.8125 -15.625)scale(0.7)" xlink:href="#DejaVuSans-Oblique-73"/>
     <use transform="translate(241.499023 0.78125)" xlink:href="#DejaVuSans-3d"/>
     <use transform="translate(344.770508 0.78125)" xlink:href="#DejaVuSans-30"/>
     <use transform="translate(408.393555 0.78125)" xlink:href="#DejaVuSans-2e"/>
     <use transform="translate(440.180664 0.78125)" xlink:href="#DejaVuSans-36"/>
     <use transform="translate(503.803711 0.78125)" xlink:href="#DejaVuSans-35"/>
     <use transform="translate(567.426758 0.78125)" xlink:href="#DejaVuSans-34"/>
     <use transform="translate(631.049805 0.78125)" xlink:href="#DejaVuSans-34"/>
    </g>
    <!-- $\downarrow$ -->
    <g transform="translate(137.952 342.014827)scale(0.192 -0.192)">
     <defs>
      <path d="M 2822 -22 
L 2541 -22 
L 1309 1209 
L 1684 1584 
L 2416 853 
L 2416 4666 
L 2947 4666 
L 2947 853 
L 3672 1584 
L 4047 1209 
L 2822 -22 
z
" id="DejaVuSans-2193" transform="scale(0.015625)"/>
     </defs>
     <use transform="translate(19.482422 0.09375)" xlink:href="#DejaVuSans-2193"/>
    </g>
   </g>
  </g>
  <g id="patch_18">
   <path d="M 322.214714 564.12 
L 541.785286 564.12 
L 541.785286 344.549428 
L 322.214714 344.549428 
z
" style="fill:#ffffff;"/>
  </g>
  <g id="pane3d_13">
   <g id="patch_19">
    <path d="M 338.793806 509.980934 
L 411.30318 449.202139 
L 410.29523 361.548251 
L 334.315909 416.994499 
" style="fill:#f2f2f2;opacity:0.5;stroke:#f2f2f2;stroke-linejoin:miter;"/>
   </g>
  </g>
  <g id="pane3d_14">
   <g id="patch_20">
    <path d="M 411.30318 449.202139 
L 527.654854 483.020977 
L 531.807035 392.347952 
L 410.29523 361.548251 
" style="fill:#e6e6e6;opacity:0.5;stroke:#e6e6e6;stroke-linejoin:miter;"/>
   </g>
  </g>
  <g id="pane3d_15">
   <g id="patch_21">
    <path d="M 338.793806 509.980934 
L 462.132263 550.263273 
L 527.654854 483.020977 
L 411.30318 449.202139 
" style="fill:#ececec;opacity:0.5;stroke:#ececec;stroke-linejoin:miter;"/>
   </g>
  </g>
  <g id="axis3d_13">
   <g id="line2d_62">
    <path d="M 338.793806 509.980934 
L 462.132263 550.263273 
" style="fill:none;stroke:#000000;stroke-linecap:square;stroke-width:0.8;"/>
   </g>
   <g id="Line3DCollection_13">
    <path d="M 367.985657 519.514992 
L 438.934307 457.233416 
L 439.105356 368.850779 
" style="fill:none;stroke:#b0b0b0;stroke-width:0.8;"/>
    <path d="M 400.042044 529.984608 
L 469.210294 466.03345 
L 470.706364 376.860713 
" style="fill:none;stroke:#b0b0b0;stroke-width:0.8;"/>
    <path d="M 433.001945 540.749312 
L 500.267251 475.060482 
L 503.158613 385.086412 
" style="fill:none;stroke:#b0b0b0;stroke-width:0.8;"/>
   </g>
   <g id="xtick_42">
    <g id="line2d_63">
     <path d="M 368.603951 518.972229 
L 366.746391 520.60287 
" style="fill:none;stroke:#000000;stroke-linecap:square;stroke-width:0.8;"/>
    </g>
    <g id="text_46">
     <!-- −2 -->
     <g transform="translate(348.683839 547.57803)scale(0.16 -0.16)">
      <use xlink:href="#DejaVuSerif-2212"/>
      <use x="83.789062" xlink:href="#DejaVuSerif-32"/>
     </g>
    </g>
   </g>
   <g id="xtick_43">
    <g id="line2d_64">
     <path d="M 400.645508 529.42666 
L 398.832463 531.102954 
" style="fill:none;stroke:#000000;stroke-linecap:square;stroke-width:0.8;"/>
    </g>
    <g id="text_47">
     <!-- 0 -->
     <g transform="translate(387.487108 558.318023)scale(0.16 -0.16)">
      <use xlink:href="#DejaVuSerif-30"/>
     </g>
    </g>
   </g>
   <g id="xtick_44">
    <g id="line2d_65">
     <path d="M 433.589494 540.175533 
L 431.824231 541.899424 
" style="fill:none;stroke:#000000;stroke-linecap:square;stroke-width:0.8;"/>
    </g>
    <g id="text_48">
     <!-- 2 -->
     <g transform="translate(420.495592 569.36214)scale(0.16 -0.16)">
      <use xlink:href="#DejaVuSerif-32"/>
     </g>
    </g>
   </g>
  </g>
  <g id="axis3d_14">
   <g id="line2d_66">
    <path d="M 527.654854 483.020977 
L 462.132263 550.263273 
" style="fill:none;stroke:#000000;stroke-linecap:square;stroke-width:0.8;"/>
   </g>
   <g id="Line3DCollection_14">
    <path d="M 340.542238 412.450808 
L 344.7151 505.017588 
L 467.504734 544.749797 
" style="fill:none;stroke:#b0b0b0;stroke-width:0.8;"/>
    <path d="M 360.801293 397.666673 
L 364.007128 488.846628 
L 484.981763 526.814066 
" style="fill:none;stroke:#b0b0b0;stroke-width:0.8;"/>
    <path d="M 380.154251 383.543765 
L 382.472808 473.368328 
L 501.671746 509.686037 
" style="fill:none;stroke:#b0b0b0;stroke-width:0.8;"/>
    <path d="M 398.660573 370.038694 
L 400.164121 458.539119 
L 517.626677 493.312353 
" style="fill:none;stroke:#b0b0b0;stroke-width:0.8;"/>
   </g>
   <g id="xtick_45">
    <g id="line2d_67">
     <path d="M 466.47004 544.414991 
L 469.576795 545.420273 
" style="fill:none;stroke:#000000;stroke-linecap:square;stroke-width:0.8;"/>
    </g>
    <g id="text_49">
     <!-- −2 -->
     <g transform="translate(468.579624 570.316832)scale(0.16 -0.16)">
      <use xlink:href="#DejaVuSerif-2212"/>
      <use x="83.789062" xlink:href="#DejaVuSerif-32"/>
     </g>
    </g>
   </g>
   <g id="xtick_46">
    <g id="line2d_68">
     <path d="M 483.963551 526.494504 
L 487.020756 527.453996 
" style="fill:none;stroke:#000000;stroke-linecap:square;stroke-width:0.8;"/>
    </g>
    <g id="text_50">
     <!-- 0 -->
     <g transform="translate(492.476139 552.059287)scale(0.16 -0.16)">
      <use xlink:href="#DejaVuSerif-30"/>
     </g>
    </g>
   </g>
   <g id="xtick_47">
    <g id="line2d_69">
     <path d="M 500.669598 509.380701 
L 503.678514 510.297462 
" style="fill:none;stroke:#000000;stroke-linecap:square;stroke-width:0.8;"/>
    </g>
    <g id="text_51">
     <!-- 2 -->
     <g transform="translate(508.894123 534.624506)scale(0.16 -0.16)">
      <use xlink:href="#DejaVuSerif-32"/>
     </g>
    </g>
   </g>
   <g id="xtick_48">
    <g id="line2d_70">
     <path d="M 516.64018 493.020314 
L 519.60205 493.897136 
" style="fill:none;stroke:#000000;stroke-linecap:square;stroke-width:0.8;"/>
    </g>
    <g id="text_52">
     <!-- 4 -->
     <g transform="translate(524.588545 517.958099)scale(0.16 -0.16)">
      <use xlink:href="#DejaVuSerif-34"/>
     </g>
    </g>
   </g>
  </g>
  <g id="axis3d_15">
   <g id="line2d_71">
    <path d="M 527.654854 483.020977 
L 531.807035 392.347952 
" style="fill:none;stroke:#000000;stroke-linecap:square;stroke-width:0.8;"/>
   </g>
   <g id="Line3DCollection_15">
    <path d="M 527.807255 479.692911 
L 411.266109 445.978339 
L 338.629716 506.573496 
" style="fill:none;stroke:#b0b0b0;stroke-width:0.8;"/>
    <path d="M 529.535595 441.950383 
L 410.846099 409.453216 
L 336.767401 467.901321 
" style="fill:none;stroke:#b0b0b0;stroke-width:0.8;"/>
    <path d="M 531.329507 402.775944 
L 410.410935 371.610205 
L 334.831666 427.704517 
" style="fill:none;stroke:#b0b0b0;stroke-width:0.8;"/>
   </g>
   <g id="xtick_49">
    <g id="line2d_72">
     <path d="M 526.829079 479.409931 
L 529.765939 480.259545 
" style="fill:none;stroke:#000000;stroke-linecap:square;stroke-width:0.8;"/>
    </g>
    <g id="text_53">
     <!-- −2 -->
     <g transform="translate(534.279877 489.254909)scale(0.16 -0.16)">
      <use xlink:href="#DejaVuSerif-2212"/>
      <use x="83.789062" xlink:href="#DejaVuSerif-32"/>
     </g>
    </g>
   </g>
   <g id="xtick_50">
    <g id="line2d_73">
     <path d="M 528.538518 441.677383 
L 531.532169 442.497044 
" style="fill:none;stroke:#000000;stroke-linecap:square;stroke-width:0.8;"/>
    </g>
    <g id="text_54">
     <!-- 0 -->
     <g transform="translate(543.044357 451.604071)scale(0.16 -0.16)">
      <use xlink:href="#DejaVuSerif-30"/>
     </g>
    </g>
   </g>
   <g id="xtick_51">
    <g id="line2d_74">
     <path d="M 530.312785 402.513892 
L 533.365465 403.300695 
" style="fill:none;stroke:#000000;stroke-linecap:square;stroke-width:0.8;"/>
    </g>
    <g id="text_55">
     <!-- 2 -->
     <g transform="translate(545.182973 412.530193)scale(0.16 -0.16)">
      <use xlink:href="#DejaVuSerif-32"/>
     </g>
    </g>
   </g>
  </g>
  <g id="axes_5">
   <g id="line2d_75">
    <path clip-path="url(#p3df22585b3)" d="M 475.41555 431.75582 
L 494.984601 489.670883 
L 494.818902 472.59333 
L 474.545808 472.474031 
L 468.123566 482.161875 
L 461.304498 497.682173 
L 447.547251 515.92786 
L 434.30251 474.632659 
L 428.003212 480.784344 
L 422.218685 495.04848 
L 411.953655 480.019475 
L 407.726957 477.151029 
L 401.179301 472.275807 
L 397.040806 461.016953 
L 396.211261 473.465443 
L 401.360609 455.375548 
L 403.127329 437.740493 
L 412.508484 423.990829 
L 415.046327 422.915305 
L 420.118342 421.257345 
L 422.608109 420.371945 
L 425.042959 419.158776 
L 427.412147 418.33488 
L 429.7037 418.842081 
L 440.777621 496.449412 
L 442.064548 497.299552 
L 443.156613 497.341704 
L 444.083531 485.279941 
L 445.008044 498.926544 
L 445.066524 499.527342 
L 444.800482 500.352876 
L 441.900891 477.744191 
L 440.045947 494.698793 
L 437.811848 504.050981 
L 435.175873 505.034461 
L 424.703061 481.189948 
L 420.586632 496.806395 
L 416.046161 491.055582 
L 406.40111 488.421866 
L 396.469878 485.430667 
L 386.781166 470.835619 
L 382.874576 483.12705 
L 371.599941 476.35449 
L 370.597155 471.873514 
L 370.257338 459.349606 
L 370.640201 438.490766 
L 380.228635 449.534066 
L 390.477884 402.905047 
L 414.588734 394.154548 
L 434.540269 389.423239 
" style="fill:none;stroke:#4b0082;stroke-linecap:square;stroke-opacity:0.6;stroke-width:2;"/>
   </g>
   <g id="line2d_76">
    <path clip-path="url(#p3df22585b3)" d="M 475.212025 442.198296 
L 494.841695 494.474463 
L 494.629067 479.046245 
L 474.520182 473.791338 
L 468.343754 468.714627 
L 461.367421 492.881503 
L 447.508066 522.129994 
L 434.303934 478.988522 
L 428.006481 481.735542 
L 422.222383 495.632069 
L 412.040218 487.644117 
L 407.736379 477.853192 
L 401.291035 479.004805 
L 397.259558 472.81824 
L 396.191051 472.404996 
L 401.340191 454.12907 
L 403.197334 442.29023 
L 412.643729 436.535063 
L 415.111324 429.715463 
L 420.236831 437.901547 
L 422.659126 428.985706 
L 425.015881 413.461781 
L 427.375486 408.199213 
L 429.710815 421.664798 
L 440.785809 493.61586 
L 442.045686 502.640621 
L 443.154335 497.900599 
L 444.088382 484.204073 
L 445.05136 490.263501 
L 445.041724 504.457137 
L 444.802587 499.923434 
L 441.939255 466.515959 
L 440.041507 496.458151 
L 437.798499 513.450624 
L 435.176259 501.338851 
L 424.707672 482.10007 
L 420.566735 494.024965 
L 416.041033 490.509198 
L 406.229495 476.294444 
L 396.369002 480.133234 
L 386.889818 475.427024 
L 382.667637 475.086855 
L 371.466448 472.076458 
L 370.632869 473.002684 
L 370.21846 458.119296 
L 370.649267 438.782314 
L 379.91601 437.782921 
L 390.644339 410.777738 
L 414.721313 407.900966 
L 434.538339 379.849703 
" style="fill:none;stroke:#32cd32;stroke-dasharray:2.5,4.125;stroke-dashoffset:0;stroke-width:2.5;"/>
   </g>
   <g id="text_56">
    <!-- $\uparrow$ -->
    <g transform="translate(420.192 275.556427)scale(0.192 -0.192)">
     <use transform="translate(19.482422 0.75)" xlink:href="#DejaVuSans-2191"/>
    </g>
    <!-- $\ell_{Lap}=765.0715$ -->
    <g transform="translate(357.984 297.056227)scale(0.192 -0.192)">
     <use transform="translate(0 0.78125)" xlink:href="#DejaVuSans-Oblique-2113"/>
     <use transform="translate(41.308594 -15.625)scale(0.7)" xlink:href="#DejaVuSans-Oblique-4c"/>
     <use transform="translate(80.307617 -15.625)scale(0.7)" xlink:href="#DejaVuSans-Oblique-61"/>
     <use transform="translate(123.203125 -15.625)scale(0.7)" xlink:href="#DejaVuSans-Oblique-70"/>
     <use transform="translate(189.853516 0.78125)" xlink:href="#DejaVuSans-3d"/>
     <use transform="translate(293.125 0.78125)" xlink:href="#DejaVuSans-37"/>
     <use transform="translate(356.748047 0.78125)" xlink:href="#DejaVuSans-36"/>
     <use transform="translate(420.371094 0.78125)" xlink:href="#DejaVuSans-35"/>
     <use transform="translate(483.994141 0.78125)" xlink:href="#DejaVuSans-2e"/>
     <use transform="translate(515.78125 0.78125)" xlink:href="#DejaVuSans-30"/>
     <use transform="translate(579.404297 0.78125)" xlink:href="#DejaVuSans-37"/>
     <use transform="translate(643.027344 0.78125)" xlink:href="#DejaVuSans-31"/>
     <use transform="translate(706.650391 0.78125)" xlink:href="#DejaVuSans-35"/>
    </g>
    <!-- $\ell_{Gaus}=0.654$ -->
    <g transform="translate(371.328 320.515027)scale(0.192 -0.192)">
     <use transform="translate(0 0.78125)" xlink:href="#DejaVuSans-Oblique-2113"/>
     <use transform="translate(41.308594 -15.625)scale(0.7)" xlink:href="#DejaVuSans-Oblique-47"/>
     <use transform="translate(95.551758 -15.625)scale(0.7)" xlink:href="#DejaVuSans-Oblique-61"/>
     <use transform="translate(138.447266 -15.625)scale(0.7)" xlink:href="#DejaVuSans-Oblique-75"/>
     <use transform="translate(182.8125 -15.625)scale(0.7)" xlink:href="#DejaVuSans-Oblique-73"/>
     <use transform="translate(241.499023 0.78125)" xlink:href="#DejaVuSans-3d"/>
     <use transform="translate(344.770508 0.78125)" xlink:href="#DejaVuSans-30"/>
     <use transform="translate(408.393555 0.78125)" xlink:href="#DejaVuSans-2e"/>
     <use transform="translate(440.180664 0.78125)" xlink:href="#DejaVuSans-36"/>
     <use transform="translate(503.803711 0.78125)" xlink:href="#DejaVuSans-35"/>
     <use transform="translate(567.426758 0.78125)" xlink:href="#DejaVuSans-34"/>
    </g>
    <!-- $\downarrow$ -->
    <g transform="translate(420.192 342.014827)scale(0.192 -0.192)">
     <use transform="translate(19.482422 0.09375)" xlink:href="#DejaVuSans-2193"/>
    </g>
   </g>
  </g>
  <g id="patch_22">
   <path d="M 604.454714 564.12 
L 824.025286 564.12 
L 824.025286 344.549428 
L 604.454714 344.549428 
z
" style="fill:#ffffff;"/>
  </g>
  <g id="pane3d_16">
   <g id="patch_23">
    <path d="M 621.033806 509.980934 
L 693.54318 449.202139 
L 692.53523 361.548251 
L 616.555909 416.994499 
" style="fill:#f2f2f2;opacity:0.5;stroke:#f2f2f2;stroke-linejoin:miter;"/>
   </g>
  </g>
  <g id="pane3d_17">
   <g id="patch_24">
    <path d="M 693.54318 449.202139 
L 809.894854 483.020977 
L 814.047035 392.347952 
L 692.53523 361.548251 
" style="fill:#e6e6e6;opacity:0.5;stroke:#e6e6e6;stroke-linejoin:miter;"/>
   </g>
  </g>
  <g id="pane3d_18">
   <g id="patch_25">
    <path d="M 621.033806 509.980934 
L 744.372263 550.263273 
L 809.894854 483.020977 
L 693.54318 449.202139 
" style="fill:#ececec;opacity:0.5;stroke:#ececec;stroke-linejoin:miter;"/>
   </g>
  </g>
  <g id="axis3d_16">
   <g id="line2d_77">
    <path d="M 621.033806 509.980934 
L 744.372263 550.263273 
" style="fill:none;stroke:#000000;stroke-linecap:square;stroke-width:0.8;"/>
   </g>
   <g id="Line3DCollection_16">
    <path d="M 650.225657 519.514992 
L 721.174307 457.233416 
L 721.345356 368.850779 
" style="fill:none;stroke:#b0b0b0;stroke-width:0.8;"/>
    <path d="M 682.282044 529.984608 
L 751.450294 466.03345 
L 752.946364 376.860713 
" style="fill:none;stroke:#b0b0b0;stroke-width:0.8;"/>
    <path d="M 715.241945 540.749312 
L 782.507251 475.060482 
L 785.398613 385.086412 
" style="fill:none;stroke:#b0b0b0;stroke-width:0.8;"/>
   </g>
   <g id="xtick_52">
    <g id="line2d_78">
     <path d="M 650.843951 518.972229 
L 648.986391 520.60287 
" style="fill:none;stroke:#000000;stroke-linecap:square;stroke-width:0.8;"/>
    </g>
    <g id="text_57">
     <!-- −2 -->
     <g transform="translate(630.923839 547.57803)scale(0.16 -0.16)">
      <use xlink:href="#DejaVuSerif-2212"/>
      <use x="83.789062" xlink:href="#DejaVuSerif-32"/>
     </g>
    </g>
   </g>
   <g id="xtick_53">
    <g id="line2d_79">
     <path d="M 682.885508 529.42666 
L 681.072463 531.102954 
" style="fill:none;stroke:#000000;stroke-linecap:square;stroke-width:0.8;"/>
    </g>
    <g id="text_58">
     <!-- 0 -->
     <g transform="translate(669.727108 558.318023)scale(0.16 -0.16)">
      <use xlink:href="#DejaVuSerif-30"/>
     </g>
    </g>
   </g>
   <g id="xtick_54">
    <g id="line2d_80">
     <path d="M 715.829494 540.175533 
L 714.064231 541.899424 
" style="fill:none;stroke:#000000;stroke-linecap:square;stroke-width:0.8;"/>
    </g>
    <g id="text_59">
     <!-- 2 -->
     <g transform="translate(702.735592 569.36214)scale(0.16 -0.16)">
      <use xlink:href="#DejaVuSerif-32"/>
     </g>
    </g>
   </g>
  </g>
  <g id="axis3d_17">
   <g id="line2d_81">
    <path d="M 809.894854 483.020977 
L 744.372263 550.263273 
" style="fill:none;stroke:#000000;stroke-linecap:square;stroke-width:0.8;"/>
   </g>
   <g id="Line3DCollection_17">
    <path d="M 622.782238 412.450808 
L 626.9551 505.017588 
L 749.744734 544.749797 
" style="fill:none;stroke:#b0b0b0;stroke-width:0.8;"/>
    <path d="M 643.041293 397.666673 
L 646.247128 488.846628 
L 767.221763 526.814066 
" style="fill:none;stroke:#b0b0b0;stroke-width:0.8;"/>
    <path d="M 662.394251 383.543765 
L 664.712808 473.368328 
L 783.911746 509.686037 
" style="fill:none;stroke:#b0b0b0;stroke-width:0.8;"/>
    <path d="M 680.900573 370.038694 
L 682.404121 458.539119 
L 799.866677 493.312353 
" style="fill:none;stroke:#b0b0b0;stroke-width:0.8;"/>
   </g>
   <g id="xtick_55">
    <g id="line2d_82">
     <path d="M 748.71004 544.414991 
L 751.816795 545.420273 
" style="fill:none;stroke:#000000;stroke-linecap:square;stroke-width:0.8;"/>
    </g>
    <g id="text_60">
     <!-- −2 -->
     <g transform="translate(750.819624 570.316832)scale(0.16 -0.16)">
      <use xlink:href="#DejaVuSerif-2212"/>
      <use x="83.789062" xlink:href="#DejaVuSerif-32"/>
     </g>
    </g>
   </g>
   <g id="xtick_56">
    <g id="line2d_83">
     <path d="M 766.203551 526.494504 
L 769.260756 527.453996 
" style="fill:none;stroke:#000000;stroke-linecap:square;stroke-width:0.8;"/>
    </g>
    <g id="text_61">
     <!-- 0 -->
     <g transform="translate(774.716139 552.059287)scale(0.16 -0.16)">
      <use xlink:href="#DejaVuSerif-30"/>
     </g>
    </g>
   </g>
   <g id="xtick_57">
    <g id="line2d_84">
     <path d="M 782.909598 509.380701 
L 785.918514 510.297462 
" style="fill:none;stroke:#000000;stroke-linecap:square;stroke-width:0.8;"/>
    </g>
    <g id="text_62">
     <!-- 2 -->
     <g transform="translate(791.134123 534.624506)scale(0.16 -0.16)">
      <use xlink:href="#DejaVuSerif-32"/>
     </g>
    </g>
   </g>
   <g id="xtick_58">
    <g id="line2d_85">
     <path d="M 798.88018 493.020314 
L 801.84205 493.897136 
" style="fill:none;stroke:#000000;stroke-linecap:square;stroke-width:0.8;"/>
    </g>
    <g id="text_63">
     <!-- 4 -->
     <g transform="translate(806.828545 517.958099)scale(0.16 -0.16)">
      <use xlink:href="#DejaVuSerif-34"/>
     </g>
    </g>
   </g>
  </g>
  <g id="axis3d_18">
   <g id="line2d_86">
    <path d="M 809.894854 483.020977 
L 814.047035 392.347952 
" style="fill:none;stroke:#000000;stroke-linecap:square;stroke-width:0.8;"/>
   </g>
   <g id="Line3DCollection_18">
    <path d="M 810.051844 479.59271 
L 693.504993 445.881284 
L 620.864775 506.470898 
" style="fill:none;stroke:#b0b0b0;stroke-width:0.8;"/>
    <path d="M 811.783554 441.776581 
L 693.084167 409.285169 
L 618.998819 467.723113 
" style="fill:none;stroke:#b0b0b0;stroke-width:0.8;"/>
    <path d="M 813.581091 402.522971 
L 692.648127 371.366054 
L 617.059156 427.444751 
" style="fill:none;stroke:#b0b0b0;stroke-width:0.8;"/>
   </g>
   <g id="xtick_59">
    <g id="line2d_87">
     <path d="M 809.073617 479.309756 
L 812.010628 480.159292 
" style="fill:none;stroke:#000000;stroke-linecap:square;stroke-width:0.8;"/>
    </g>
    <g id="text_64">
     <!-- −2 -->
     <g transform="translate(816.525349 489.154944)scale(0.16 -0.16)">
      <use xlink:href="#DejaVuSerif-2212"/>
      <use x="83.789062" xlink:href="#DejaVuSerif-32"/>
     </g>
    </g>
   </g>
   <g id="xtick_60">
    <g id="line2d_88">
     <path d="M 810.78639 441.503629 
L 813.780303 442.323148 
" style="fill:none;stroke:#000000;stroke-linecap:square;stroke-width:0.8;"/>
    </g>
    <g id="text_65">
     <!-- 0 -->
     <g transform="translate(825.293846 451.430703)scale(0.16 -0.16)">
      <use xlink:href="#DejaVuSerif-30"/>
     </g>
    </g>
   </g>
   <g id="xtick_61">
    <g id="line2d_89">
     <path d="M 812.564242 402.260992 
L 815.617303 403.047576 
" style="fill:none;stroke:#000000;stroke-linecap:square;stroke-width:0.8;"/>
    </g>
    <g id="text_66">
     <!-- 2 -->
     <g transform="translate(827.436782 412.277887)scale(0.16 -0.16)">
      <use xlink:href="#DejaVuSerif-32"/>
     </g>
    </g>
   </g>
  </g>
  <g id="axes_6">
   <g id="line2d_90">
    <path clip-path="url(#p58af1abf72)" d="M 757.67055 430.986196 
L 777.290482 487.456351 
L 777.08165 471.820075 
L 756.774264 473.067461 
L 750.359929 482.383984 
L 743.530244 498.769727 
L 729.801055 513.742876 
L 716.542411 474.331594 
L 710.243523 480.874591 
L 704.456087 494.638506 
L 694.19286 479.949462 
L 689.970145 477.388599 
L 683.412736 471.880441 
L 679.282508 461.108746 
L 678.456859 473.759214 
L 683.61877 456.484328 
L 685.385288 438.907639 
L 694.762677 425.307287 
L 697.297773 424.112835 
L 702.364557 422.130328 
L 704.85389 421.347957 
L 707.290727 420.793031 
L 709.659207 420.286727 
L 711.943843 418.898932 
L 723.019451 495.815948 
L 724.31159 495.305458 
L 725.403151 495.737067 
L 726.32627 484.672393 
L 727.250756 498.384187 
L 727.308742 499.086534 
L 727.043238 499.790599 
L 724.136831 478.932641 
L 722.285415 494.909811 
L 720.05403 502.514329 
L 717.416084 503.009381 
L 706.942602 481.099303 
L 702.822799 496.270534 
L 698.283841 490.808317 
L 688.646754 488.82068 
L 678.711608 485.521503 
L 669.017034 470.661023 
L 665.111177 482.994977 
L 653.821382 475.759743 
L 652.82368 471.447462 
L 652.508238 459.69452 
L 652.936378 440.29728 
L 662.455332 449.034051 
L 672.753303 404.580238 
L 696.840634 395.388416 
L 716.780768 391.895296 
" style="fill:none;stroke:#4b0082;stroke-linecap:square;stroke-opacity:0.6;stroke-width:2;"/>
   </g>
   <g id="line2d_91">
    <path clip-path="url(#p58af1abf72)" d="M 757.451749 442.212451 
L 777.088444 494.247608 
L 776.879406 478.694781 
L 756.756641 473.973414 
L 750.568946 469.618961 
L 743.602103 493.28727 
L 729.753696 521.238826 
L 716.543992 479.164435 
L 710.243321 480.81602 
L 704.450953 493.828095 
L 694.288075 488.336157 
L 689.988344 478.744785 
L 683.512358 477.879988 
L 679.516276 473.72014 
L 678.44136 472.945936 
L 683.59214 454.858521 
L 685.453744 443.35678 
L 694.892425 437.341674 
L 697.358407 430.456539 
L 702.470664 437.035322 
L 704.897251 428.669054 
L 707.256979 413.692767 
L 709.615486 408.199213 
L 711.949777 421.253126 
L 723.025434 493.745653 
L 724.285686 502.640621 
L 725.396206 497.441409 
L 726.330874 483.651352 
L 727.29011 490.51351 
L 727.282428 504.317181 
L 727.045661 499.296002 
L 724.176495 467.323861 
L 722.281931 496.290028 
L 720.039846 512.502138 
L 717.416314 500.803376 
L 706.93997 480.579794 
L 702.795394 492.439584 
L 698.280376 490.439143 
L 688.473714 476.592558 
L 678.593924 479.341427 
L 669.151149 476.328449 
L 664.908372 475.115386 
L 653.695411 471.722761 
L 652.851442 472.325222 
L 652.463157 458.267952 
L 652.923058 439.868935 
L 662.135478 437.011135 
L 672.904443 411.728598 
L 696.954962 407.242453 
L 716.778379 380.045219 
" style="fill:none;stroke:#32cd32;stroke-dasharray:2.5,4.125;stroke-dashoffset:0;stroke-width:2.5;"/>
   </g>
   <g id="text_67">
    <!-- $\uparrow$ -->
    <g transform="translate(702.432 275.556427)scale(0.192 -0.192)">
     <use transform="translate(19.482422 0.75)" xlink:href="#DejaVuSans-2191"/>
    </g>
    <!-- $\ell_{Lap}=0.3702$ -->
    <g transform="translate(652.416 297.056227)scale(0.192 -0.192)">
     <use transform="translate(0 0.78125)" xlink:href="#DejaVuSans-Oblique-2113"/>
     <use transform="translate(41.308594 -15.625)scale(0.7)" xlink:href="#DejaVuSans-Oblique-4c"/>
     <use transform="translate(80.307617 -15.625)scale(0.7)" xlink:href="#DejaVuSans-Oblique-61"/>
     <use transform="translate(123.203125 -15.625)scale(0.7)" xlink:href="#DejaVuSans-Oblique-70"/>
     <use transform="translate(189.853516 0.78125)" xlink:href="#DejaVuSans-3d"/>
     <use transform="translate(293.125 0.78125)" xlink:href="#DejaVuSans-30"/>
     <use transform="translate(356.748047 0.78125)" xlink:href="#DejaVuSans-2e"/>
     <use transform="translate(388.535156 0.78125)" xlink:href="#DejaVuSans-33"/>
     <use transform="translate(452.158203 0.78125)" xlink:href="#DejaVuSans-37"/>
     <use transform="translate(515.78125 0.78125)" xlink:href="#DejaVuSans-30"/>
     <use transform="translate(579.404297 0.78125)" xlink:href="#DejaVuSans-32"/>
    </g>
    <!-- $\ell_{Gaus}=0.6249$ -->
    <g transform="translate(647.52 320.515027)scale(0.192 -0.192)">
     <use transform="translate(0 0.78125)" xlink:href="#DejaVuSans-Oblique-2113"/>
     <use transform="translate(41.308594 -15.625)scale(0.7)" xlink:href="#DejaVuSans-Oblique-47"/>
     <use transform="translate(95.551758 -15.625)scale(0.7)" xlink:href="#DejaVuSans-Oblique-61"/>
     <use transform="translate(138.447266 -15.625)scale(0.7)" xlink:href="#DejaVuSans-Oblique-75"/>
     <use transform="translate(182.8125 -15.625)scale(0.7)" xlink:href="#DejaVuSans-Oblique-73"/>
     <use transform="translate(241.499023 0.78125)" xlink:href="#DejaVuSans-3d"/>
     <use transform="translate(344.770508 0.78125)" xlink:href="#DejaVuSans-30"/>
     <use transform="translate(408.393555 0.78125)" xlink:href="#DejaVuSans-2e"/>
     <use transform="translate(440.180664 0.78125)" xlink:href="#DejaVuSans-36"/>
     <use transform="translate(503.803711 0.78125)" xlink:href="#DejaVuSans-32"/>
     <use transform="translate(567.426758 0.78125)" xlink:href="#DejaVuSans-34"/>
     <use transform="translate(631.049805 0.78125)" xlink:href="#DejaVuSans-39"/>
    </g>
    <!-- $\downarrow$ -->
    <g transform="translate(702.432 342.014827)scale(0.192 -0.192)">
     <use transform="translate(19.482422 0.09375)" xlink:href="#DejaVuSans-2193"/>
    </g>
   </g>
  </g>
  <g id="legend_1">
   <g id="patch_26">
    <path d="M 275.665 604 
L 588.335 604 
Q 591.535 604 591.535 600.8 
L 591.535 578.915 
Q 591.535 575.715 588.335 575.715 
L 275.665 575.715 
Q 272.465 575.715 272.465 578.915 
L 272.465 600.8 
Q 272.465 604 275.665 604 
z
" style="fill:#ffffff;opacity:0.8;stroke:#cccccc;stroke-linejoin:miter;"/>
   </g>
   <g id="line2d_92">
    <path d="M 278.865 588.6725 
L 310.865 588.6725 
" style="fill:none;stroke:#4b0082;stroke-linecap:square;stroke-opacity:0.6;stroke-width:2;"/>
   </g>
   <g id="line2d_93"/>
   <g id="text_68">
    <!-- NTK -->
    <g transform="translate(323.665 594.2725)scale(0.16 -0.16)">
     <defs>
      <path d="M 313 0 
L 313 331 
L 941 331 
L 941 4331 
L 313 4331 
L 313 4666 
L 1509 4666 
L 4306 984 
L 4306 4331 
L 3681 4331 
L 3681 4666 
L 5319 4666 
L 5319 4331 
L 4691 4331 
L 4691 -91 
L 4313 -91 
L 1325 3841 
L 1325 331 
L 1953 331 
L 1953 0 
L 313 0 
z
" id="DejaVuSerif-4e" transform="scale(0.015625)"/>
      <path d="M 1222 0 
L 1222 331 
L 1819 331 
L 1819 4294 
L 447 4294 
L 447 3566 
L 63 3566 
L 63 4666 
L 4206 4666 
L 4206 3566 
L 3822 3566 
L 3822 4294 
L 2450 4294 
L 2450 331 
L 3047 331 
L 3047 0 
L 1222 0 
z
" id="DejaVuSerif-54" transform="scale(0.015625)"/>
      <path d="M 353 0 
L 353 331 
L 947 331 
L 947 4331 
L 353 4331 
L 353 4666 
L 2175 4666 
L 2175 4331 
L 1581 4331 
L 1581 2566 
L 3591 4331 
L 3084 4331 
L 3084 4666 
L 4634 4666 
L 4634 4331 
L 4109 4331 
L 2106 2572 
L 4347 331 
L 4878 331 
L 4878 0 
L 3794 0 
L 1581 2216 
L 1581 331 
L 2175 331 
L 2175 0 
L 353 0 
z
" id="DejaVuSerif-4b" transform="scale(0.015625)"/>
     </defs>
     <use xlink:href="#DejaVuSerif-4e"/>
     <use x="87.5" xlink:href="#DejaVuSerif-54"/>
     <use x="154.199219" xlink:href="#DejaVuSerif-4b"/>
    </g>
   </g>
   <g id="line2d_94">
    <path d="M 392.29 588.6725 
L 424.29 588.6725 
" style="fill:none;stroke:#ff7f50;stroke-dasharray:7.4,3.2;stroke-dashoffset:0;stroke-width:2;"/>
   </g>
   <g id="line2d_95"/>
   <g id="text_69">
    <!-- Lap -->
    <g transform="translate(437.09 594.2725)scale(0.16 -0.16)">
     <defs>
      <path d="M 353 0 
L 353 331 
L 947 331 
L 947 4331 
L 353 4331 
L 353 4666 
L 2175 4666 
L 2175 4331 
L 1581 4331 
L 1581 384 
L 3713 384 
L 3713 1166 
L 4097 1166 
L 4097 0 
L 353 0 
z
" id="DejaVuSerif-4c" transform="scale(0.015625)"/>
      <path d="M 2547 1044 
L 2547 1747 
L 1806 1747 
Q 1378 1747 1168 1562 
Q 959 1378 959 997 
Q 959 650 1171 447 
Q 1384 244 1747 244 
Q 2106 244 2326 466 
Q 2547 688 2547 1044 
z
M 3122 2075 
L 3122 331 
L 3634 331 
L 3634 0 
L 2547 0 
L 2547 359 
Q 2356 128 2106 18 
Q 1856 -91 1522 -91 
Q 969 -91 644 203 
Q 319 497 319 997 
Q 319 1513 691 1797 
Q 1063 2081 1741 2081 
L 2547 2081 
L 2547 2309 
Q 2547 2688 2317 2895 
Q 2088 3103 1672 3103 
Q 1328 3103 1125 2947 
Q 922 2791 872 2484 
L 575 2484 
L 575 3156 
Q 875 3284 1158 3348 
Q 1441 3413 1709 3413 
Q 2400 3413 2761 3070 
Q 3122 2728 3122 2075 
z
" id="DejaVuSerif-61" transform="scale(0.015625)"/>
      <path d="M 1313 1825 
L 1313 1497 
Q 1313 897 1542 583 
Q 1772 269 2209 269 
Q 2650 269 2876 622 
Q 3103 975 3103 1663 
Q 3103 2353 2876 2703 
Q 2650 3053 2209 3053 
Q 1772 3053 1542 2737 
Q 1313 2422 1313 1825 
z
M 738 2988 
L 184 2988 
L 184 3322 
L 1313 3322 
L 1313 2803 
Q 1481 3116 1742 3264 
Q 2003 3413 2388 3413 
Q 3000 3413 3387 2928 
Q 3775 2444 3775 1663 
Q 3775 881 3387 395 
Q 3000 -91 2388 -91 
Q 2003 -91 1742 57 
Q 1481 206 1313 519 
L 1313 -997 
L 1856 -997 
L 1856 -1331 
L 184 -1331 
L 184 -997 
L 738 -997 
L 738 2988 
z
" id="DejaVuSerif-70" transform="scale(0.015625)"/>
     </defs>
     <use xlink:href="#DejaVuSerif-4c"/>
     <use x="66.40625" xlink:href="#DejaVuSerif-61"/>
     <use x="126.025391" xlink:href="#DejaVuSerif-70"/>
    </g>
   </g>
   <g id="line2d_96">
    <path d="M 499.4975 588.6725 
L 531.4975 588.6725 
" style="fill:none;stroke:#32cd32;stroke-dasharray:2.5,4.125;stroke-dashoffset:0;stroke-width:2.5;"/>
   </g>
   <g id="line2d_97"/>
   <g id="text_70">
    <!-- Gaus -->
    <g transform="translate(544.2975 594.2725)scale(0.16 -0.16)">
     <defs>
      <path d="M 4097 3272 
Q 3988 3856 3641 4136 
Q 3294 4416 2675 4416 
Q 1869 4416 1472 3897 
Q 1075 3378 1075 2328 
Q 1075 1300 1484 772 
Q 1894 244 2688 244 
Q 3041 244 3362 331 
Q 3684 419 3975 594 
L 3975 1797 
L 3097 1797 
L 3097 2131 
L 4609 2131 
L 4609 391 
Q 4194 150 3714 29 
Q 3234 -91 2688 -91 
Q 1631 -91 995 570 
Q 359 1231 359 2328 
Q 359 3434 996 4092 
Q 1634 4750 2713 4750 
Q 3113 4750 3539 4658 
Q 3966 4566 4447 4378 
L 4447 3272 
L 4097 3272 
z
" id="DejaVuSerif-47" transform="scale(0.015625)"/>
      <path d="M 2266 3322 
L 3341 3322 
L 3341 331 
L 3884 331 
L 3884 0 
L 2766 0 
L 2766 588 
Q 2606 256 2353 82 
Q 2100 -91 1766 -91 
Q 1213 -91 952 223 
Q 691 538 691 1209 
L 691 2988 
L 172 2988 
L 172 3322 
L 1269 3322 
L 1269 1388 
Q 1269 781 1417 556 
Q 1566 331 1947 331 
Q 2347 331 2556 625 
Q 2766 919 2766 1478 
L 2766 2988 
L 2266 2988 
L 2266 3322 
z
" id="DejaVuSerif-75" transform="scale(0.015625)"/>
      <path d="M 359 184 
L 359 959 
L 691 959 
Q 703 588 923 403 
Q 1144 219 1575 219 
Q 1963 219 2166 364 
Q 2369 509 2369 788 
Q 2369 1006 2220 1140 
Q 2072 1275 1594 1428 
L 1178 1569 
Q 750 1706 558 1912 
Q 366 2119 366 2438 
Q 366 2894 700 3153 
Q 1034 3413 1625 3413 
Q 1888 3413 2178 3344 
Q 2469 3275 2778 3144 
L 2778 2419 
L 2447 2419 
Q 2434 2741 2221 2922 
Q 2009 3103 1644 3103 
Q 1281 3103 1095 2975 
Q 909 2847 909 2591 
Q 909 2381 1050 2254 
Q 1191 2128 1613 1997 
L 2069 1856 
Q 2541 1709 2748 1489 
Q 2956 1269 2956 922 
Q 2956 450 2595 179 
Q 2234 -91 1600 -91 
Q 1278 -91 972 -22 
Q 666 47 359 184 
z
" id="DejaVuSerif-73" transform="scale(0.015625)"/>
     </defs>
     <use xlink:href="#DejaVuSerif-47"/>
     <use x="79.882812" xlink:href="#DejaVuSerif-61"/>
     <use x="139.501953" xlink:href="#DejaVuSerif-75"/>
     <use x="203.90625" xlink:href="#DejaVuSerif-73"/>
    </g>
   </g>
  </g>
 </g>
 <defs>
  <clipPath id="pf07e918024">
   <rect height="219.570572" width="219.570572" x="39.974714" y="27.040952"/>
  </clipPath>
  <clipPath id="p30d79c35f7">
   <rect height="219.570572" width="219.570572" x="322.214714" y="27.040952"/>
  </clipPath>
  <clipPath id="p6ec07e0940">
   <rect height="219.570572" width="219.570572" x="604.454714" y="27.040952"/>
  </clipPath>
  <clipPath id="p40634e15ba">
   <rect height="219.570572" width="219.570572" x="39.974714" y="344.549428"/>
  </clipPath>
  <clipPath id="p3df22585b3">
   <rect height="219.570572" width="219.570572" x="322.214714" y="344.549428"/>
  </clipPath>
  <clipPath id="p58af1abf72">
   <rect height="219.570572" width="219.570572" x="604.454714" y="344.549428"/>
  </clipPath>
 </defs>
</svg>
