<?xml version="1.0" encoding="utf-8" standalone="no"?>
<!DOCTYPE svg PUBLIC "-//W3C//DTD SVG 1.1//EN"
  "http://www.w3.org/Graphics/SVG/1.1/DTD/svg11.dtd">
<svg xmlns:xlink="http://www.w3.org/1999/xlink" width="324pt" height="288pt" viewBox="0 0 324 288" xmlns="http://www.w3.org/2000/svg" version="1.1">
 <metadata>
  <rdf:RDF xmlns:dc="http://purl.org/dc/elements/1.1/" xmlns:cc="http://creativecommons.org/ns#" xmlns:rdf="http://www.w3.org/1999/02/22-rdf-syntax-ns#">
   <cc:Work>
    <dc:type rdf:resource="http://purl.org/dc/dcmitype/StillImage"/>
    <dc:date>2022-07-16T20:23:18.796217</dc:date>
    <dc:format>image/svg+xml</dc:format>
    <dc:creator>
     <cc:Agent>
      <dc:title>Matplotlib v3.5.0, https://matplotlib.org/</dc:title>
     </cc:Agent>
    </dc:creator>
   </cc:Work>
  </rdf:RDF>
 </metadata>
 <defs>
  <style type="text/css">*{stroke-linejoin: round; stroke-linecap: butt}</style>
 </defs>
 <g id="figure_1">
  <g id="patch_1">
   <path d="M 0 288 
L 324 288 
L 324 0 
L 0 0 
L 0 288 
z
" style="fill: none"/>
  </g>
  <g id="patch_2">
   <path d="M 35.28 270.72 
L 288.72 270.72 
L 288.72 17.28 
L 35.28 17.28 
L 35.28 270.72 
z
" style="fill: none; opacity: 0"/>
  </g>
  <g id="pane3d_1">
   <g id="patch_3">
    <path d="M 54.416468 208.229818 
L 138.110633 138.075709 
L 136.947204 36.900944 
L 49.247841 100.899944 
" style="fill: #f2f2f2; opacity: 0.5; stroke: #f2f2f2; stroke-linejoin: miter"/>
   </g>
  </g>
  <g id="pane3d_2">
   <g id="patch_4">
    <path d="M 138.110633 138.075709 
L 272.409905 177.111206 
L 277.202573 72.451591 
L 136.947204 36.900944 
" style="fill: #e6e6e6; opacity: 0.5; stroke: #e6e6e6; stroke-linejoin: miter"/>
   </g>
  </g>
  <g id="pane3d_3">
   <g id="patch_5">
    <path d="M 54.416468 208.229818 
L 196.780256 254.725831 
L 272.409905 177.111206 
L 138.110633 138.075709 
" style="fill: #ececec; opacity: 0.5; stroke: #ececec; stroke-linejoin: miter"/>
   </g>
  </g>
  <g id="axis3d_1">
   <g id="line2d_1">
    <path d="M 54.416468 208.229818 
L 196.780256 254.725831 
" style="fill: none; stroke: #000000; stroke-width: 0.8; stroke-linecap: square"/>
   </g>
   <g id="Line3DCollection_1">
    <path d="M 80.008971 216.58833 
L 162.340945 145.118505 
L 162.208364 43.303911 
" style="fill: none; stroke: #b0b0b0; stroke-width: 0.8"/>
    <path d="M 124.479879 231.112528 
L 204.353348 157.329851 
L 206.053738 54.417436 
" style="fill: none; stroke: #b0b0b0; stroke-width: 0.8"/>
    <path d="M 170.466234 246.131671 
L 247.675714 169.921953 
L 251.326917 65.892867 
" style="fill: none; stroke: #b0b0b0; stroke-width: 0.8"/>
   </g>
   <g id="xtick_1">
    <g id="line2d_2">
     <path d="M 80.726288 215.965649 
L 78.57124 217.83638 
" style="fill: none; stroke: #000000; stroke-width: 0.8; stroke-linecap: square"/>
    </g>
    <g id="text_1">
     <!-- 2 -->
     <g transform="translate(67.406557 244.58274)scale(0.16 -0.16)">
      <defs>
       <path id="DejaVuSerif-32" d="M 819 3553 
L 469 3553 
L 469 4384 
Q 803 4563 1142 4656 
Q 1481 4750 1806 4750 
Q 2534 4750 2956 4397 
Q 3378 4044 3378 3438 
Q 3378 2753 2422 1800 
Q 2347 1728 2309 1691 
L 1131 513 
L 3078 513 
L 3078 1088 
L 3444 1088 
L 3444 0 
L 434 0 
L 434 341 
L 1850 1753 
Q 2319 2222 2519 2614 
Q 2719 3006 2719 3438 
Q 2719 3909 2473 4175 
Q 2228 4441 1797 4441 
Q 1350 4441 1106 4219 
Q 863 3997 819 3553 
z
" transform="scale(0.015625)"/>
      </defs>
      <use xlink:href="#DejaVuSerif-32"/>
     </g>
    </g>
   </g>
   <g id="xtick_2">
    <g id="line2d_3">
     <path d="M 125.176729 230.468817 
L 123.083119 232.402777 
" style="fill: none; stroke: #000000; stroke-width: 0.8; stroke-linecap: square"/>
    </g>
    <g id="text_2">
     <!-- 4 -->
     <g transform="translate(111.928773 259.431344)scale(0.16 -0.16)">
      <defs>
       <path id="DejaVuSerif-34" d="M 2234 1581 
L 2234 4063 
L 641 1581 
L 2234 1581 
z
M 3609 0 
L 1484 0 
L 1484 331 
L 2234 331 
L 2234 1247 
L 197 1247 
L 197 1588 
L 2241 4750 
L 2859 4750 
L 2859 1581 
L 3750 1581 
L 3750 1247 
L 2859 1247 
L 2859 331 
L 3609 331 
L 3609 0 
z
" transform="scale(0.015625)"/>
      </defs>
      <use xlink:href="#DejaVuSerif-34"/>
     </g>
    </g>
   </g>
   <g id="xtick_3">
    <g id="line2d_4">
     <path d="M 171.140794 245.465846 
L 169.1141 247.466297 
" style="fill: none; stroke: #000000; stroke-width: 0.8; stroke-linecap: square"/>
    </g>
    <g id="text_3">
     <!-- 6 -->
     <g transform="translate(157.97435 274.788003)scale(0.16 -0.16)">
      <defs>
       <path id="DejaVuSerif-36" d="M 2094 219 
Q 2534 219 2771 542 
Q 3009 866 3009 1472 
Q 3009 2078 2771 2401 
Q 2534 2725 2094 2725 
Q 1647 2725 1412 2412 
Q 1178 2100 1178 1509 
Q 1178 888 1415 553 
Q 1653 219 2094 219 
z
M 1075 2569 
Q 1288 2803 1556 2918 
Q 1825 3034 2163 3034 
Q 2859 3034 3264 2615 
Q 3669 2197 3669 1472 
Q 3669 763 3233 336 
Q 2797 -91 2069 -91 
Q 1278 -91 853 498 
Q 428 1088 428 2181 
Q 428 3406 931 4078 
Q 1434 4750 2350 4750 
Q 2597 4750 2869 4703 
Q 3141 4656 3425 4563 
L 3425 3794 
L 3072 3794 
Q 3034 4109 2831 4275 
Q 2628 4441 2284 4441 
Q 1678 4441 1381 3981 
Q 1084 3522 1075 2569 
z
" transform="scale(0.015625)"/>
      </defs>
      <use xlink:href="#DejaVuSerif-36"/>
     </g>
    </g>
   </g>
  </g>
  <g id="axis3d_2">
   <g id="line2d_5">
    <path d="M 272.409905 177.111206 
L 196.780256 254.725831 
" style="fill: none; stroke: #000000; stroke-width: 0.8; stroke-linecap: square"/>
   </g>
   <g id="Line3DCollection_2">
    <path d="M 68.723217 86.687702 
L 72.947566 192.696684 
L 213.583387 237.481685 
" style="fill: none; stroke: #b0b0b0; stroke-width: 0.8"/>
    <path d="M 95.42555 67.201555 
L 98.406024 171.3569 
L 236.61436 213.846241 
" style="fill: none; stroke: #b0b0b0; stroke-width: 0.8"/>
    <path d="M 120.752339 48.719218 
L 122.607475 151.070764 
L 258.450909 191.43657 
" style="fill: none; stroke: #b0b0b0; stroke-width: 0.8"/>
   </g>
   <g id="xtick_4">
    <g id="line2d_6">
     <path d="M 212.399037 237.104533 
L 215.95511 238.236952 
" style="fill: none; stroke: #000000; stroke-width: 0.8; stroke-linecap: square"/>
    </g>
    <g id="text_4">
     <!-- 2 -->
     <g transform="translate(221.211486 262.878247)scale(0.16 -0.16)">
      <use xlink:href="#DejaVuSerif-32"/>
     </g>
    </g>
   </g>
   <g id="xtick_5">
    <g id="line2d_7">
     <path d="M 235.452003 213.488898 
L 238.941963 214.561815 
" style="fill: none; stroke: #000000; stroke-width: 0.8; stroke-linecap: square"/>
    </g>
    <g id="text_5">
     <!-- 4 -->
     <g transform="translate(243.917593 238.875877)scale(0.16 -0.16)">
      <use xlink:href="#DejaVuSerif-34"/>
     </g>
    </g>
   </g>
   <g id="xtick_6">
    <g id="line2d_8">
     <path d="M 257.309886 191.097515 
L 260.735718 192.115499 
" style="fill: none; stroke: #000000; stroke-width: 0.8; stroke-linecap: square"/>
    </g>
    <g id="text_6">
     <!-- 6 -->
     <g transform="translate(265.445431 216.119043)scale(0.16 -0.16)">
      <use xlink:href="#DejaVuSerif-36"/>
     </g>
    </g>
   </g>
  </g>
  <g id="axis3d_3">
   <g id="line2d_9">
    <path d="M 272.409905 177.111206 
L 277.202573 72.451591 
" style="fill: none; stroke: #000000; stroke-width: 0.8; stroke-linecap: square"/>
   </g>
   <g id="Line3DCollection_3">
    <path d="M 272.501728 175.106043 
L 138.088297 136.133295 
L 54.317606 206.176894 
" style="fill: none; stroke: #b0b0b0; stroke-width: 0.8"/>
    <path d="M 274.75374 125.927843 
L 137.541049 88.543226 
L 51.89095 155.785796 
" style="fill: none; stroke: #b0b0b0; stroke-width: 0.8"/>
    <path d="M 277.102515 74.636596 
L 136.971443 39.008833 
L 49.355926 103.144398 
" style="fill: none; stroke: #b0b0b0; stroke-width: 0.8"/>
   </g>
   <g id="xtick_7">
    <g id="line2d_10">
     <path d="M 271.373583 174.778942 
L 274.760701 175.761026 
" style="fill: none; stroke: #000000; stroke-width: 0.8; stroke-linecap: square"/>
    </g>
    <g id="text_7">
     <!-- 5 -->
     <g transform="translate(285.672953 184.663025)scale(0.16 -0.16)">
      <defs>
       <path id="DejaVuSerif-35" d="M 3219 4666 
L 3219 4153 
L 1081 4153 
L 1081 2816 
Q 1244 2928 1461 2984 
Q 1678 3041 1947 3041 
Q 2703 3041 3140 2622 
Q 3578 2203 3578 1478 
Q 3578 738 3136 323 
Q 2694 -91 1894 -91 
Q 1572 -91 1234 -12 
Q 897 66 544 225 
L 544 1131 
L 897 1131 
Q 925 688 1179 453 
Q 1434 219 1894 219 
Q 2388 219 2653 544 
Q 2919 869 2919 1478 
Q 2919 2084 2655 2407 
Q 2391 2731 1894 2731 
Q 1613 2731 1398 2631 
Q 1184 2531 1019 2322 
L 750 2322 
L 750 4666 
L 3219 4666 
z
" transform="scale(0.015625)"/>
      </defs>
      <use xlink:href="#DejaVuSerif-35"/>
     </g>
    </g>
   </g>
   <g id="xtick_8">
    <g id="line2d_11">
     <path d="M 273.600967 125.613762 
L 277.062087 126.55677 
" style="fill: none; stroke: #000000; stroke-width: 0.8; stroke-linecap: square"/>
    </g>
    <g id="text_8">
     <!-- 10 -->
     <g transform="translate(283.210552 135.588484)scale(0.16 -0.16)">
      <defs>
       <path id="DejaVuSerif-31" d="M 909 0 
L 909 331 
L 1722 331 
L 1722 4213 
L 781 3603 
L 781 4013 
L 1919 4750 
L 2350 4750 
L 2350 331 
L 3163 331 
L 3163 0 
L 909 0 
z
" transform="scale(0.015625)"/>
       <path id="DejaVuSerif-30" d="M 2034 219 
Q 2513 219 2750 744 
Q 2988 1269 2988 2328 
Q 2988 3391 2750 3916 
Q 2513 4441 2034 4441 
Q 1556 4441 1318 3916 
Q 1081 3391 1081 2328 
Q 1081 1269 1318 744 
Q 1556 219 2034 219 
z
M 2034 -91 
Q 1275 -91 848 546 
Q 422 1184 422 2328 
Q 422 3475 848 4112 
Q 1275 4750 2034 4750 
Q 2797 4750 3222 4112 
Q 3647 3475 3647 2328 
Q 3647 1184 3222 546 
Q 2797 -91 2034 -91 
z
" transform="scale(0.015625)"/>
      </defs>
      <use xlink:href="#DejaVuSerif-31"/>
      <use xlink:href="#DejaVuSerif-30" x="63.623047"/>
     </g>
    </g>
   </g>
   <g id="xtick_9">
    <g id="line2d_12">
     <path d="M 275.924016 74.336967 
L 279.462439 75.236597 
" style="fill: none; stroke: #000000; stroke-width: 0.8; stroke-linecap: square"/>
    </g>
    <g id="text_9">
     <!-- 15 -->
     <g transform="translate(285.950681 84.412277)scale(0.16 -0.16)">
      <use xlink:href="#DejaVuSerif-31"/>
      <use xlink:href="#DejaVuSerif-35" x="63.623047"/>
     </g>
    </g>
   </g>
  </g>
  <g id="axes_1">
   <g id="Poly3DCollection_1">
    <path d="M 135.569222 72.3346 
L 139.144205 73.287957 
L 144.179865 69.409554 
L 140.617418 68.466381 
z
" clip-path="url(#pa78cceed71)" style="fill: #375c9f"/>
    <path d="M 139.144205 73.287957 
L 146.720425 75.308344 
L 151.729351 71.408312 
L 144.179865 69.409554 
z
" clip-path="url(#pa78cceed71)" style="fill: #375c9f"/>
    <path d="M 146.720425 75.308344 
L 151.037236 76.459528 
L 156.030828 72.547145 
L 151.729351 71.408312 
z
" clip-path="url(#pa78cceed71)" style="fill: #375c9f"/>
    <path d="M 131.793642 75.227666 
L 135.377955 76.188677 
L 139.144205 73.287957 
L 135.569222 72.3346 
z
" clip-path="url(#pa78cceed71)" style="fill: #375c9f"/>
    <path d="M 151.037236 76.459528 
L 157.210499 78.105781 
L 162.182036 74.175703 
L 156.030828 72.547145 
z
" clip-path="url(#pa78cceed71)" style="fill: #375c9f"/>
    <path d="M 135.377955 76.188677 
L 142.974071 78.225316 
L 146.720425 75.308344 
L 139.144205 73.287957 
z
" clip-path="url(#pa78cceed71)" style="fill: #375c9f"/>
    <path d="M 128.53259 77.726472 
L 132.124929 78.694118 
L 135.377955 76.188677 
L 131.793642 75.227666 
z
" clip-path="url(#pa78cceed71)" style="fill: #375c9f"/>
    <path d="M 157.210499 78.105781 
L 163.856232 79.87803 
L 168.803859 75.928858 
L 162.182036 74.175703 
z
" clip-path="url(#pa78cceed71)" style="fill: #375c9f"/>
    <path d="M 142.974071 78.225316 
L 147.302295 79.385781 
L 151.037236 76.459528 
L 146.720425 75.308344 
z
" clip-path="url(#pa78cceed71)" style="fill: #375c9f"/>
    <path d="M 132.124929 78.694118 
L 139.738164 80.744847 
L 142.974071 78.225316 
L 135.377955 76.188677 
z
" clip-path="url(#pa78cceed71)" style="fill: #375c9f"/>
    <path d="M 147.302295 79.385781 
L 153.491975 81.045332 
L 157.210499 78.105781 
L 151.037236 76.459528 
z
" clip-path="url(#pa78cceed71)" style="fill: #375c9f"/>
    <path d="M 163.856232 79.87803 
L 171.835296 82.005845 
L 176.753985 78.033688 
L 168.803859 75.928858 
z
" clip-path="url(#pa78cceed71)" style="fill: #375c9f"/>
    <path d="M 125.976889 79.684798 
L 129.575498 80.657659 
L 132.124929 78.694118 
L 128.53259 77.726472 
z
" clip-path="url(#pa78cceed71)" style="fill: #375c9f"/>
    <path d="M 139.738164 80.744847 
L 144.076206 81.913359 
L 147.302295 79.385781 
L 142.974071 78.225316 
z
" clip-path="url(#pa78cceed71)" style="fill: #375c9f"/>
    <path d="M 153.491975 81.045332 
L 160.155508 82.83193 
L 163.856232 79.87803 
L 157.210499 78.105781 
z
" clip-path="url(#pa78cceed71)" style="fill: #375c9f"/>
    <path d="M 129.575498 80.657659 
L 137.202104 82.719465 
L 139.738164 80.744847 
L 132.124929 78.694118 
z
" clip-path="url(#pa78cceed71)" style="fill: #375c9f"/>
    <path d="M 171.835296 82.005845 
L 178.720696 83.842007 
L 183.614212 79.849961 
L 176.753985 78.033688 
z
" clip-path="url(#pa78cceed71)" style="fill: #375c9f"/>
    <path d="M 122.615582 82.260424 
L 126.222409 83.240167 
L 129.575498 80.657659 
L 125.976889 79.684798 
z
" clip-path="url(#pa78cceed71)" style="fill: #375c9f"/>
    <path d="M 144.076206 81.913359 
L 150.280012 83.584439 
L 153.491975 81.045332 
L 147.302295 79.385781 
z
" clip-path="url(#pa78cceed71)" style="fill: #375c9f"/>
    <path d="M 137.202104 82.719465 
L 141.547817 83.894302 
L 144.076206 81.913359 
L 139.738164 80.744847 
z
" clip-path="url(#pa78cceed71)" style="fill: #375c9f"/>
    <path d="M 160.155508 82.83193 
L 168.156115 84.97702 
L 171.835296 82.005845 
L 163.856232 79.87803 
z
" clip-path="url(#pa78cceed71)" style="fill: #375c9f"/>
    <path d="M 178.720696 83.842007 
L 183.342498 85.074524 
L 188.219012 81.069101 
L 183.614212 79.849961 
z
" clip-path="url(#pa78cceed71)" style="fill: #375c9f"/>
    <path d="M 126.222409 83.240167 
L 133.866543 85.316587 
L 137.202104 82.719465 
L 129.575498 80.657659 
z
" clip-path="url(#pa78cceed71)" style="fill: #375c9f"/>
    <path d="M 150.280012 83.584439 
L 156.958861 85.383478 
L 160.155508 82.83193 
L 153.491975 81.045332 
z
" clip-path="url(#pa78cceed71)" style="fill: #375c9f"/>
    <path d="M 141.547817 83.894302 
L 147.762659 85.574446 
L 150.280012 83.584439 
L 144.076206 81.913359 
z
" clip-path="url(#pa78cceed71)" style="fill: #375c9f"/>
    <path d="M 183.342498 85.074524 
L 192.834369 87.605766 
L 197.675703 83.5728 
L 188.219012 81.069101 
z
" clip-path="url(#pa78cceed71)" style="fill: #375c9f"/>
    <path d="M 168.156115 84.97702 
L 175.060257 86.828129 
L 178.720696 83.842007 
L 171.835296 82.005845 
z
" clip-path="url(#pa78cceed71)" style="fill: #375c9f"/>
    <path d="M 117.92153 85.857277 
L 121.539781 86.846671 
L 126.222409 83.240167 
L 122.615582 82.260424 
z
" clip-path="url(#pa78cceed71)" style="fill: #375c9f"/>
    <path d="M 133.866543 85.316587 
L 138.222313 86.49977 
L 141.547817 83.894302 
L 137.202104 82.719465 
z
" clip-path="url(#pa78cceed71)" style="fill: #375c9f"/>
    <path d="M 156.958861 85.383478 
L 164.978008 87.543545 
L 168.156115 84.97702 
L 160.155508 82.83193 
z
" clip-path="url(#pa78cceed71)" style="fill: #375c9f"/>
    <path d="M 147.762659 85.574446 
L 154.453474 87.383266 
L 156.958861 85.383478 
L 150.280012 83.584439 
z
" clip-path="url(#pa78cceed71)" style="fill: #375c9f"/>
    <path d="M 175.060257 86.828129 
L 179.694718 88.070701 
L 183.342498 85.074524 
L 178.720696 83.842007 
z
" clip-path="url(#pa78cceed71)" style="fill: #375c9f"/>
    <path d="M 138.222313 86.49977 
L 144.451621 88.191872 
L 147.762659 85.574446 
L 141.547817 83.894302 
z
" clip-path="url(#pa78cceed71)" style="fill: #375c9f"/>
    <path d="M 121.539781 86.846671 
L 129.208282 88.943586 
L 133.866543 85.316587 
L 126.222409 83.240167 
z
" clip-path="url(#pa78cceed71)" style="fill: #375c9f"/>
    <path d="M 192.834369 87.605766 
L 199.224724 89.309912 
L 204.042174 85.258349 
L 197.675703 83.5728 
z
" clip-path="url(#pa78cceed71)" style="fill: #375c9f"/>
    <path d="M 164.978008 87.543545 
L 171.898279 89.407615 
L 175.060257 86.828129 
L 168.156115 84.97702 
z
" clip-path="url(#pa78cceed71)" style="fill: #375c9f"/>
    <path d="M 154.453474 87.383266 
L 162.487105 89.555109 
L 164.978008 87.543545 
L 156.958861 85.383478 
z
" clip-path="url(#pa78cceed71)" style="fill: #375c9f"/>
    <path d="M 129.208282 88.943586 
L 133.578032 90.138473 
L 138.222313 86.49977 
L 133.866543 85.316587 
z
" clip-path="url(#pa78cceed71)" style="fill: #375c9f"/>
    <path d="M 144.451621 88.191872 
L 151.158124 90.013598 
L 154.453474 87.383266 
L 147.762659 85.574446 
z
" clip-path="url(#pa78cceed71)" style="fill: #375c9f"/>
    <path d="M 199.224724 89.309912 
L 203.208541 90.372295 
L 208.011019 86.309117 
L 204.042174 85.258349 
z
" clip-path="url(#pa78cceed71)" style="fill: #375c9f"/>
    <path d="M 179.694718 88.070701 
L 189.212787 90.622645 
L 192.834369 87.605766 
L 183.342498 85.074524 
z
" clip-path="url(#pa78cceed71)" style="fill: #375c9f"/>
    <path d="M 112.737923 89.829256 
L 116.368717 90.829361 
L 121.539781 86.846671 
L 117.92153 85.857277 
z
" clip-path="url(#pa78cceed71)" style="fill: #375c9f"/>
    <path d="M 171.898279 89.407615 
L 176.543636 90.658906 
L 179.694718 88.070701 
L 175.060257 86.828129 
z
" clip-path="url(#pa78cceed71)" style="fill: #375c9f"/>
    <path d="M 133.578032 90.138473 
L 139.827455 91.847348 
L 144.451621 88.191872 
L 138.222313 86.49977 
z
" clip-path="url(#pa78cceed71)" style="fill: #375c9f"/>
    <path d="M 162.487105 89.555109 
L 169.41998 91.429369 
L 171.898279 89.407615 
L 164.978008 87.543545 
z
" clip-path="url(#pa78cceed71)" style="fill: #375c9f"/>
    <path d="M 203.208541 90.372295 
L 212.189979 92.767418 
L 216.958476 88.677994 
L 208.011019 86.309117 
z
" clip-path="url(#pa78cceed71)" style="fill: #375c9f"/>
    <path d="M 151.158124 90.013598 
L 159.210748 92.200978 
L 162.487105 89.555109 
L 154.453474 87.383266 
z
" clip-path="url(#pa78cceed71)" style="fill: #375c9f"/>
    <path d="M 116.368717 90.829361 
L 124.063977 92.949027 
L 129.208282 88.943586 
L 121.539781 86.846671 
z
" clip-path="url(#pa78cceed71)" style="fill: #375c9f"/>
    <path d="M 189.212787 90.622645 
L 195.620929 92.34077 
L 199.224724 89.309912 
L 192.834369 87.605766 
z
" clip-path="url(#pa78cceed71)" style="fill: #375c9f"/>
    <path d="M 176.543636 90.658906 
L 186.084253 93.228802 
L 189.212787 90.622645 
L 179.694718 88.070701 
z
" clip-path="url(#pa78cceed71)" style="fill: #375c9f"/>
    <path d="M 111.890772 90.478392 
L 115.523608 91.480253 
L 116.368717 90.829361 
L 112.737923 89.829256 
z
" clip-path="url(#pa78cceed71)" style="fill: #375c9f"/>
    <path d="M 139.827455 91.847348 
L 146.555771 93.687174 
L 151.158124 90.013598 
L 144.451621 88.191872 
z
" clip-path="url(#pa78cceed71)" style="fill: #375c9f"/>
    <path d="M 169.41998 91.429369 
L 174.07385 92.687514 
L 176.543636 90.658906 
L 171.898279 89.407615 
z
" clip-path="url(#pa78cceed71)" style="fill: #375c9f"/>
    <path d="M 195.620929 92.34077 
L 199.615896 93.411883 
L 203.208541 90.372295 
L 199.224724 89.309912 
z
" clip-path="url(#pa78cceed71)" style="fill: #375c9f"/>
    <path d="M 124.063977 92.949027 
L 128.44908 94.156907 
L 133.578032 90.138473 
L 129.208282 88.943586 
z
" clip-path="url(#pa78cceed71)" style="fill: #375c9f"/>
    <path d="M 159.210748 92.200978 
L 166.160148 94.088683 
L 169.41998 91.429369 
L 162.487105 89.555109 
z
" clip-path="url(#pa78cceed71)" style="fill: #375c9f"/>
    <path d="M 212.189979 92.767418 
L 222.831391 95.605213 
L 227.559215 91.484584 
L 216.958476 88.677994 
z
" clip-path="url(#pa78cceed71)" style="fill: #375c9f"/>
    <path d="M 115.523608 91.480253 
L 123.223226 93.603649 
L 124.063977 92.949027 
L 116.368717 90.829361 
z
" clip-path="url(#pa78cceed71)" style="fill: #375c9f"/>
    <path d="M 108.332001 93.205327 
L 111.973397 94.214582 
L 115.523608 91.480253 
L 111.890772 90.478392 
z
" clip-path="url(#pa78cceed71)" style="fill: #375c9f"/>
    <path d="M 186.084253 93.228802 
L 192.507706 94.959047 
L 195.620929 92.34077 
L 189.212787 90.622645 
z
" clip-path="url(#pa78cceed71)" style="fill: #375c9f"/>
    <path d="M 146.555771 93.687174 
L 154.634804 95.896347 
L 159.210748 92.200978 
L 151.158124 90.013598 
z
" clip-path="url(#pa78cceed71)" style="fill: #375c9f"/>
    <path d="M 174.07385 92.687514 
L 183.632087 95.271524 
L 186.084253 93.228802 
L 176.543636 90.658906 
z
" clip-path="url(#pa78cceed71)" style="fill: #375c9f"/>
    <path d="M 128.44908 94.156907 
L 134.720594 95.884401 
L 139.827455 91.847348 
L 133.578032 90.138473 
z
" clip-path="url(#pa78cceed71)" style="fill: #375c9f"/>
    <path d="M 199.615896 93.411883 
L 208.622645 95.826735 
L 212.189979 92.767418 
L 203.208541 90.372295 
z
" clip-path="url(#pa78cceed71)" style="fill: #375c9f"/>
    <path d="M 166.160148 94.088683 
L 170.825181 95.355873 
L 174.07385 92.687514 
L 169.41998 91.429369 
z
" clip-path="url(#pa78cceed71)" style="fill: #375c9f"/>
    <path d="M 123.223226 93.603649 
L 127.610831 94.813659 
L 128.44908 94.156907 
L 124.063977 92.949027 
z
" clip-path="url(#pa78cceed71)" style="fill: #375c9f"/>
    <path d="M 111.973397 94.214582 
L 119.691278 96.353682 
L 123.223226 93.603649 
L 115.523608 91.480253 
z
" clip-path="url(#pa78cceed71)" style="fill: #375c9f"/>
    <path d="M 192.507706 94.959047 
L 196.512271 96.037731 
L 199.615896 93.411883 
L 195.620929 92.34077 
z
" clip-path="url(#pa78cceed71)" style="fill: #375c9f"/>
    <path d="M 222.831391 95.605213 
L 227.796901 96.929389 
L 232.505594 92.794158 
L 227.559215 91.484584 
z
" clip-path="url(#pa78cceed71)" style="fill: #375c9f"/>
    <path d="M 134.720594 95.884401 
L 141.472871 97.744321 
L 146.555771 93.687174 
L 139.827455 91.847348 
z
" clip-path="url(#pa78cceed71)" style="fill: #375c9f"/>
    <path d="M 154.634804 95.896347 
L 161.607185 97.802911 
L 166.160148 94.088683 
L 159.210748 92.200978 
z
" clip-path="url(#pa78cceed71)" style="fill: #375c9f"/>
    <path d="M 183.632087 95.271524 
L 190.067506 97.0113 
L 192.507706 94.959047 
L 186.084253 93.228802 
z
" clip-path="url(#pa78cceed71)" style="fill: #375c9f"/>
    <path d="M 227.796901 96.929389 
L 230.00718 97.518815 
L 234.707326 93.377076 
L 232.505594 92.794158 
z
" clip-path="url(#pa78cceed71)" style="fill: #375c9f"/>
    <path d="M 170.825181 95.355873 
L 180.406524 97.958508 
L 183.632087 95.271524 
L 174.07385 92.687514 
z
" clip-path="url(#pa78cceed71)" style="fill: #375c9f"/>
    <path d="M 127.610831 94.813659 
L 133.885943 96.544206 
L 134.720594 95.884401 
L 128.44908 94.156907 
z
" clip-path="url(#pa78cceed71)" style="fill: #375c9f"/>
    <path d="M 119.691278 96.353682 
L 124.089361 97.572662 
L 127.610831 94.813659 
L 123.223226 93.603649 
z
" clip-path="url(#pa78cceed71)" style="fill: #375c9f"/>
    <path d="M 208.622645 95.826735 
L 219.294354 98.687988 
L 222.831391 95.605213 
L 212.189979 92.767418 
z
" clip-path="url(#pa78cceed71)" style="fill: #375c9f"/>
    <path d="M 196.512271 96.037731 
L 205.540809 98.469692 
L 208.622645 95.826735 
L 199.615896 93.411883 
z
" clip-path="url(#pa78cceed71)" style="fill: #375c9f"/>
    <path d="M 101.997637 98.059082 
L 105.654182 99.081565 
L 111.973397 94.214582 
L 108.332001 93.205327 
z
" clip-path="url(#pa78cceed71)" style="fill: #375c9f"/>
    <path d="M 190.067506 97.0113 
L 194.079573 98.095937 
L 196.512271 96.037731 
L 192.507706 94.959047 
z
" clip-path="url(#pa78cceed71)" style="fill: #375c9f"/>
    <path d="M 161.607185 97.802911 
L 166.287744 99.082788 
L 170.825181 95.355873 
L 166.160148 94.088683 
z
" clip-path="url(#pa78cceed71)" style="fill: #375c9f"/>
    <path d="M 141.472871 97.744321 
L 149.580914 99.977688 
L 154.634804 95.896347 
L 146.555771 93.687174 
z
" clip-path="url(#pa78cceed71)" style="fill: #375c9f"/>
    <path d="M 124.089361 97.572662 
L 130.379553 99.316062 
L 133.885943 96.544206 
L 127.610831 94.813659 
z
" clip-path="url(#pa78cceed71)" style="fill: #375c9f"/>
    <path d="M 133.885943 96.544206 
L 140.642122 98.40742 
L 141.472871 97.744321 
L 134.720594 95.884401 
z
" clip-path="url(#pa78cceed71)" style="fill: #375c9f"/>
    <path d="M 230.00718 97.518815 
L 242.82398 100.936731 
L 247.474184 96.757155 
L 234.707326 93.377076 
z
" clip-path="url(#pa78cceed71)" style="fill: #375c9f"/>
    <path d="M 180.406524 97.958508 
L 186.857635 99.71086 
L 190.067506 97.0113 
L 183.632087 95.271524 
z
" clip-path="url(#pa78cceed71)" style="fill: #375c9f"/>
    <path d="M 105.654182 99.081565 
L 113.404383 101.248762 
L 119.691278 96.353682 
L 111.973397 94.214582 
z
" clip-path="url(#pa78cceed71)" style="fill: #375c9f"/>
    <path d="M 219.294354 98.687988 
L 224.274117 100.023141 
L 227.796901 96.929389 
L 222.831391 95.605213 
z
" clip-path="url(#pa78cceed71)" style="fill: #375c9f"/>
    <path d="M 194.079573 98.095937 
L 203.12514 100.54135 
L 205.540809 98.469692 
L 196.512271 96.037731 
z
" clip-path="url(#pa78cceed71)" style="fill: #375c9f"/>
    <path d="M 166.287744 99.082788 
L 175.901225 101.711548 
L 180.406524 97.958508 
L 170.825181 95.355873 
z
" clip-path="url(#pa78cceed71)" style="fill: #375c9f"/>
    <path d="M 205.540809 98.469692 
L 216.238603 101.351289 
L 219.294354 98.687988 
L 208.622645 95.826735 
z
" clip-path="url(#pa78cceed71)" style="fill: #375c9f"/>
    <path d="M 224.274117 100.023141 
L 226.490764 100.617459 
L 230.00718 97.518815 
L 227.796901 96.929389 
z
" clip-path="url(#pa78cceed71)" style="fill: #375c9f"/>
    <path d="M 130.379553 99.316062 
L 137.152088 101.193148 
L 140.642122 98.40742 
L 133.885943 96.544206 
z
" clip-path="url(#pa78cceed71)" style="fill: #375c9f"/>
    <path d="M 149.580914 99.977688 
L 156.578542 101.90519 
L 161.607185 97.802911 
L 154.634804 95.896347 
z
" clip-path="url(#pa78cceed71)" style="fill: #375c9f"/>
    <path d="M 186.857635 99.71086 
L 190.879539 100.803353 
L 194.079573 98.095937 
L 190.067506 97.0113 
z
" clip-path="url(#pa78cceed71)" style="fill: #375c9f"/>
    <path d="M 100.72723 99.032541 
L 104.386799 100.057688 
L 105.654182 99.081565 
L 101.997637 98.059082 
z
" clip-path="url(#pa78cceed71)" style="fill: #375c9f"/>
    <path d="M 140.642122 98.40742 
L 148.754891 100.644754 
L 149.580914 99.977688 
L 141.472871 97.744321 
z
" clip-path="url(#pa78cceed71)" style="fill: #375c9f"/>
    <path d="M 113.404383 101.248762 
L 117.821015 102.483789 
L 124.089361 97.572662 
L 119.691278 96.353682 
z
" clip-path="url(#pa78cceed71)" style="fill: #375c9f"/>
    <path d="M 242.82398 100.936731 
L 249.001034 102.583995 
L 253.626939 98.386122 
L 247.474184 96.757155 
z
" clip-path="url(#pa78cceed71)" style="fill: #375c9f"/>
    <path d="M 156.578542 101.90519 
L 161.27616 103.199153 
L 166.287744 99.082788 
L 161.607185 97.802911 
z
" clip-path="url(#pa78cceed71)" style="fill: #375c9f"/>
    <path d="M 104.386799 100.057688 
L 112.143454 102.230542 
L 113.404383 101.248762 
L 105.654182 99.081565 
z
" clip-path="url(#pa78cceed71)" style="fill: #375c9f"/>
    <path d="M 190.879539 100.803353 
L 199.947441 103.266519 
L 203.12514 100.54135 
L 194.079573 98.095937 
z
" clip-path="url(#pa78cceed71)" style="fill: #375c9f"/>
    <path d="M 216.238603 101.351289 
L 221.230637 102.695962 
L 224.274117 100.023141 
L 219.294354 98.687988 
z
" clip-path="url(#pa78cceed71)" style="fill: #375c9f"/>
    <path d="M 175.901225 101.711548 
L 182.374163 103.481542 
L 186.857635 99.71086 
L 180.406524 97.958508 
z
" clip-path="url(#pa78cceed71)" style="fill: #375c9f"/>
    <path d="M 226.490764 100.617459 
L 239.344772 104.063822 
L 242.82398 100.936731 
L 230.00718 97.518815 
z
" clip-path="url(#pa78cceed71)" style="fill: #375c9f"/>
    <path d="M 117.821015 102.483789 
L 124.137899 104.250186 
L 130.379553 99.316062 
L 124.089361 97.572662 
z
" clip-path="url(#pa78cceed71)" style="fill: #375c9f"/>
    <path d="M 137.152088 101.193148 
L 145.284663 103.447186 
L 148.754891 100.644754 
L 140.642122 98.40742 
z
" clip-path="url(#pa78cceed71)" style="fill: #375c9f"/>
    <path d="M 203.12514 100.54135 
L 213.843322 103.438945 
L 216.238603 101.351289 
L 205.540809 98.469692 
z
" clip-path="url(#pa78cceed71)" style="fill: #375c9f"/>
    <path d="M 249.001034 102.583995 
L 253.9907 103.914613 
L 258.596867 99.701931 
L 253.626939 98.386122 
z
" clip-path="url(#pa78cceed71)" style="fill: #375c9f"/>
    <path d="M 148.754891 100.644754 
L 155.756633 102.57569 
L 156.578542 101.90519 
L 149.580914 99.977688 
z
" clip-path="url(#pa78cceed71)" style="fill: #375c9f"/>
    <path d="M 95.501533 103.036771 
L 99.173496 104.07291 
L 104.386799 100.057688 
L 100.72723 99.032541 
z
" clip-path="url(#pa78cceed71)" style="fill: #375c9f"/>
    <path d="M 221.230637 102.695962 
L 223.452767 103.294523 
L 226.490764 100.617459 
L 224.274117 100.023141 
z
" clip-path="url(#pa78cceed71)" style="fill: #375c9f"/>
    <path d="M 182.374163 103.481542 
L 186.409752 104.585055 
L 190.879539 100.803353 
L 186.857635 99.71086 
z
" clip-path="url(#pa78cceed71)" style="fill: #375c9f"/>
    <path d="M 253.9907 103.914613 
L 257.559774 104.866394 
L 262.151762 100.643104 
L 258.596867 99.701931 
z
" clip-path="url(#pa78cceed71)" style="fill: #375c9f"/>
    <path d="M 112.143454 102.230542 
L 116.56379 103.4688 
L 117.821015 102.483789 
L 113.404383 101.248762 
z
" clip-path="url(#pa78cceed71)" style="fill: #375c9f"/>
    <path d="M 161.27616 103.199153 
L 170.924954 105.856921 
L 175.901225 101.711548 
L 166.287744 99.082788 
z
" clip-path="url(#pa78cceed71)" style="fill: #375c9f"/>
    <path d="M 124.137899 104.250186 
L 130.93939 106.152094 
L 137.152088 101.193148 
L 130.379553 99.316062 
z
" clip-path="url(#pa78cceed71)" style="fill: #375c9f"/>
    <path d="M 155.756633 102.57569 
L 160.45703 103.871962 
L 161.27616 103.199153 
L 156.578542 101.90519 
z
" clip-path="url(#pa78cceed71)" style="fill: #375c9f"/>
    <path d="M 145.284663 103.447186 
L 152.303644 105.392578 
L 155.756633 102.57569 
L 148.754891 100.644754 
z
" clip-path="url(#pa78cceed71)" style="fill: #375c9f"/>
    <path d="M 213.843322 103.438945 
L 218.844948 104.791103 
L 221.230637 102.695962 
L 216.238603 101.351289 
z
" clip-path="url(#pa78cceed71)" style="fill: #375c9f"/>
    <path d="M 99.173496 104.07291 
L 106.956599 106.269112 
L 112.143454 102.230542 
L 104.386799 100.057688 
z
" clip-path="url(#pa78cceed71)" style="fill: #375c9f"/>
    <path d="M 239.344772 104.063822 
L 245.539933 105.724842 
L 249.001034 102.583995 
L 242.82398 100.936731 
z
" clip-path="url(#pa78cceed71)" style="fill: #375c9f"/>
    <path d="M 199.947441 103.266519 
L 210.692365 106.185224 
L 213.843322 103.438945 
L 203.12514 100.54135 
z
" clip-path="url(#pa78cceed71)" style="fill: #375c9f"/>
    <path d="M 223.452767 103.294523 
L 236.338816 106.765557 
L 239.344772 104.063822 
L 226.490764 100.617459 
z
" clip-path="url(#pa78cceed71)" style="fill: #375c9f"/>
    <path d="M 116.56379 103.4688 
L 122.886005 105.239828 
L 124.137899 104.250186 
L 117.821015 102.483789 
z
" clip-path="url(#pa78cceed71)" style="fill: #375c9f"/>
    <path d="M 186.409752 104.585055 
L 195.508725 107.073125 
L 199.947441 103.266519 
L 190.879539 100.803353 
z
" clip-path="url(#pa78cceed71)" style="fill: #375c9f"/>
    <path d="M 218.844948 104.791103 
L 221.071363 105.393001 
L 223.452767 103.294523 
L 221.230637 102.695962 
z
" clip-path="url(#pa78cceed71)" style="fill: #375c9f"/>
    <path d="M 92.956589 104.986854 
L 96.634561 106.028367 
L 99.173496 104.07291 
L 95.501533 103.036771 
z
" clip-path="url(#pa78cceed71)" style="fill: #375c9f"/>
    <path d="M 152.303644 105.392578 
L 157.01569 106.698576 
L 160.45703 103.871962 
L 155.756633 102.57569 
z
" clip-path="url(#pa78cceed71)" style="fill: #375c9f"/>
    <path d="M 170.924954 105.856921 
L 177.421879 107.646504 
L 182.374163 103.481542 
L 175.901225 101.711548 
z
" clip-path="url(#pa78cceed71)" style="fill: #375c9f"/>
    <path d="M 130.93939 106.152094 
L 139.107031 108.43602 
L 145.284663 103.447186 
L 137.152088 101.193148 
z
" clip-path="url(#pa78cceed71)" style="fill: #375c9f"/>
    <path d="M 245.539933 105.724842 
L 250.544308 107.066594 
L 253.9907 103.914613 
L 249.001034 102.583995 
z
" clip-path="url(#pa78cceed71)" style="fill: #375c9f"/>
    <path d="M 160.45703 103.871962 
L 170.111578 106.534486 
L 170.924954 105.856921 
L 161.27616 103.199153 
z
" clip-path="url(#pa78cceed71)" style="fill: #375c9f"/>
    <path d="M 106.956599 106.269112 
L 111.392115 107.520707 
L 116.56379 103.4688 
L 112.143454 102.230542 
z
" clip-path="url(#pa78cceed71)" style="fill: #375c9f"/>
    <path d="M 210.692365 106.185224 
L 215.706573 107.547262 
L 218.844948 104.791103 
L 213.843322 103.438945 
z
" clip-path="url(#pa78cceed71)" style="fill: #375c9f"/>
    <path d="M 122.886005 105.239828 
L 129.693278 107.146734 
L 130.93939 106.152094 
L 124.137899 104.250186 
z
" clip-path="url(#pa78cceed71)" style="fill: #375c9f"/>
    <path d="M 250.544308 107.066594 
L 254.123948 108.026352 
L 257.559774 104.866394 
L 253.9907 103.914613 
z
" clip-path="url(#pa78cceed71)" style="fill: #375c9f"/>
    <path d="M 221.071363 105.393001 
L 233.982459 108.883436 
L 236.338816 106.765557 
L 223.452767 103.294523 
z
" clip-path="url(#pa78cceed71)" style="fill: #375c9f"/>
    <path d="M 177.421879 107.646504 
L 181.472507 108.762253 
L 186.409752 104.585055 
L 182.374163 103.481542 
z
" clip-path="url(#pa78cceed71)" style="fill: #375c9f"/>
    <path d="M 96.634561 106.028367 
L 104.430485 108.235986 
L 106.956599 106.269112 
L 99.173496 104.07291 
z
" clip-path="url(#pa78cceed71)" style="fill: #375c9f"/>
    <path d="M 236.338816 106.765557 
L 242.54957 108.438509 
L 245.539933 105.724842 
L 239.344772 104.063822 
z
" clip-path="url(#pa78cceed71)" style="fill: #375c9f"/>
    <path d="M 111.392115 107.520707 
L 117.736176 109.310847 
L 122.886005 105.239828 
L 116.56379 103.4688 
z
" clip-path="url(#pa78cceed71)" style="fill: #375c9f"/>
    <path d="M 215.706573 107.547262 
L 217.938611 108.153563 
L 221.071363 105.393001 
L 218.844948 104.791103 
z
" clip-path="url(#pa78cceed71)" style="fill: #375c9f"/>
    <path d="M 157.01569 106.698576 
L 166.694354 109.381129 
L 170.111578 106.534486 
L 160.45703 103.871962 
z
" clip-path="url(#pa78cceed71)" style="fill: #375c9f"/>
    <path d="M 195.508725 107.073125 
L 206.290856 110.021448 
L 210.692365 106.185224 
L 199.947441 103.266519 
z
" clip-path="url(#pa78cceed71)" style="fill: #375c9f"/>
    <path d="M 139.107031 108.43602 
L 146.156537 110.407281 
L 152.303644 105.392578 
L 145.284663 103.447186 
z
" clip-path="url(#pa78cceed71)" style="fill: #375c9f"/>
    <path d="M 170.111578 106.534486 
L 176.612411 108.327282 
L 177.421879 107.646504 
L 170.924954 105.856921 
z
" clip-path="url(#pa78cceed71)" style="fill: #375c9f"/>
    <path d="M 242.54957 108.438509 
L 247.566612 109.789918 
L 250.544308 107.066594 
L 245.539933 105.724842 
z
" clip-path="url(#pa78cceed71)" style="fill: #375c9f"/>
    <path d="M 129.693278 107.146734 
L 137.867924 109.436679 
L 139.107031 108.43602 
L 130.93939 106.152094 
z
" clip-path="url(#pa78cceed71)" style="fill: #375c9f"/>
    <path d="M 104.430485 108.235986 
L 108.873361 109.494102 
L 111.392115 107.520707 
L 106.956599 106.269112 
z
" clip-path="url(#pa78cceed71)" style="fill: #375c9f"/>
    <path d="M 181.472507 108.762253 
L 190.605631 111.277979 
L 195.508725 107.073125 
L 186.409752 104.585055 
z
" clip-path="url(#pa78cceed71)" style="fill: #375c9f"/>
    <path d="M 86.485395 109.945455 
L 90.178563 111.000698 
L 96.634561 106.028367 
L 92.956589 104.986854 
z
" clip-path="url(#pa78cceed71)" style="fill: #375c9f"/>
    <path d="M 117.736176 109.310847 
L 124.567153 111.238383 
L 129.693278 107.146734 
L 122.886005 105.239828 
z
" clip-path="url(#pa78cceed71)" style="fill: #375c9f"/>
    <path d="M 217.938611 108.153563 
L 230.882564 111.669603 
L 233.982459 108.883436 
L 221.071363 105.393001 
z
" clip-path="url(#pa78cceed71)" style="fill: #375c9f"/>
    <path d="M 176.612411 108.327282 
L 180.66549 109.445037 
L 181.472507 108.762253 
L 177.421879 107.646504 
z
" clip-path="url(#pa78cceed71)" style="fill: #375c9f"/>
    <path d="M 146.156537 110.407281 
L 150.88921 111.730683 
L 157.01569 106.698576 
L 152.303644 105.392578 
z
" clip-path="url(#pa78cceed71)" style="fill: #375c9f"/>
    <path d="M 233.982459 108.883436 
L 240.205404 110.565771 
L 242.54957 108.438509 
L 236.338816 106.765557 
z
" clip-path="url(#pa78cceed71)" style="fill: #375c9f"/>
    <path d="M 206.290856 110.021448 
L 211.322571 111.397346 
L 215.706573 107.547262 
L 210.692365 106.185224 
z
" clip-path="url(#pa78cceed71)" style="fill: #375c9f"/>
    <path d="M 166.694354 109.381129 
L 173.211569 111.187451 
L 176.612411 108.327282 
L 170.111578 106.534486 
z
" clip-path="url(#pa78cceed71)" style="fill: #375c9f"/>
    <path d="M 247.566612 109.789918 
L 251.155352 110.756594 
L 254.123948 108.026352 
L 250.544308 107.066594 
z
" clip-path="url(#pa78cceed71)" style="fill: #375c9f"/>
    <path d="M 108.873361 109.494102 
L 115.228016 111.293587 
L 117.736176 109.310847 
L 111.392115 107.520707 
z
" clip-path="url(#pa78cceed71)" style="fill: #375c9f"/>
    <path d="M 90.178563 111.000698 
L 98.00692 113.237479 
L 104.430485 108.235986 
L 96.634561 106.028367 
z
" clip-path="url(#pa78cceed71)" style="fill: #375c9f"/>
    <path d="M 211.322571 111.397346 
L 213.562431 112.009825 
L 217.938611 108.153563 
L 215.706573 107.547262 
z
" clip-path="url(#pa78cceed71)" style="fill: #375c9f"/>
    <path d="M 137.867924 109.436679 
L 144.923527 111.413149 
L 146.156537 110.407281 
L 139.107031 108.43602 
z
" clip-path="url(#pa78cceed71)" style="fill: #375c9f"/>
    <path d="M 240.205404 110.565771 
L 245.23235 111.924774 
L 247.566612 109.789918 
L 242.54957 108.438509 
z
" clip-path="url(#pa78cceed71)" style="fill: #375c9f"/>
    <path d="M 173.211569 111.187451 
L 177.274922 112.313657 
L 180.66549 109.445037 
L 176.612411 108.327282 
z
" clip-path="url(#pa78cceed71)" style="fill: #375c9f"/>
    <path d="M 124.567153 111.238383 
L 132.770507 113.55317 
L 137.867924 109.436679 
L 129.693278 107.146734 
z
" clip-path="url(#pa78cceed71)" style="fill: #375c9f"/>
    <path d="M 180.66549 109.445037 
L 189.804179 111.965298 
L 190.605631 111.277979 
L 181.472507 108.762253 
z
" clip-path="url(#pa78cceed71)" style="fill: #375c9f"/>
    <path d="M 150.88921 111.730683 
L 160.610583 114.449081 
L 166.694354 109.381129 
L 157.01569 106.698576 
z
" clip-path="url(#pa78cceed71)" style="fill: #375c9f"/>
    <path d="M 190.605631 111.277979 
L 201.42866 114.259191 
L 206.290856 110.021448 
L 195.508725 107.073125 
z
" clip-path="url(#pa78cceed71)" style="fill: #375c9f"/>
    <path d="M 230.882564 111.669603 
L 237.121502 113.364321 
L 240.205404 110.565771 
L 233.982459 108.883436 
z
" clip-path="url(#pa78cceed71)" style="fill: #375c9f"/>
    <path d="M 115.228016 111.293587 
L 122.070485 113.231211 
L 124.567153 111.238383 
L 117.736176 109.310847 
z
" clip-path="url(#pa78cceed71)" style="fill: #375c9f"/>
    <path d="M 245.23235 111.924774 
L 248.828205 112.896892 
L 251.155352 110.756594 
L 247.566612 109.789918 
z
" clip-path="url(#pa78cceed71)" style="fill: #375c9f"/>
    <path d="M 98.00692 113.237479 
L 102.468413 114.512253 
L 108.873361 109.494102 
L 104.430485 108.235986 
z
" clip-path="url(#pa78cceed71)" style="fill: #375c9f"/>
    <path d="M 83.96436 111.877218 
L 87.663417 112.937832 
L 90.178563 111.000698 
L 86.485395 109.945455 
z
" clip-path="url(#pa78cceed71)" style="fill: #375c9f"/>
    <path d="M 144.923527 111.413149 
L 149.66032 112.740056 
L 150.88921 111.730683 
L 146.156537 110.407281 
z
" clip-path="url(#pa78cceed71)" style="fill: #375c9f"/>
    <path d="M 213.562431 112.009825 
L 226.552109 115.561791 
L 230.882564 111.669603 
L 217.938611 108.153563 
z
" clip-path="url(#pa78cceed71)" style="fill: #375c9f"/>
    <path d="M 177.274922 112.313657 
L 186.436939 114.853016 
L 189.804179 111.965298 
L 180.66549 109.445037 
z
" clip-path="url(#pa78cceed71)" style="fill: #375c9f"/>
    <path d="M 132.770507 113.55317 
L 139.851104 115.551143 
L 144.923527 111.413149 
L 137.867924 109.436679 
z
" clip-path="url(#pa78cceed71)" style="fill: #375c9f"/>
    <path d="M 237.121502 113.364321 
L 242.161441 114.733349 
L 245.23235 111.924774 
L 240.205404 110.565771 
z
" clip-path="url(#pa78cceed71)" style="fill: #375c9f"/>
    <path d="M 160.610583 114.449081 
L 167.156815 116.279611 
L 173.211569 111.187451 
L 166.694354 109.381129 
z
" clip-path="url(#pa78cceed71)" style="fill: #375c9f"/>
    <path d="M 201.42866 114.259191 
L 206.479622 115.650483 
L 211.322571 111.397346 
L 206.290856 110.021448 
z
" clip-path="url(#pa78cceed71)" style="fill: #375c9f"/>
    <path d="M 102.468413 114.512253 
L 108.849866 116.335614 
L 115.228016 111.293587 
L 108.873361 109.494102 
z
" clip-path="url(#pa78cceed71)" style="fill: #375c9f"/>
    <path d="M 87.663417 112.937832 
L 95.504342 115.186027 
L 98.00692 113.237479 
L 90.178563 111.000698 
z
" clip-path="url(#pa78cceed71)" style="fill: #375c9f"/>
    <path d="M 189.804179 111.965298 
L 200.633873 114.951904 
L 201.42866 114.259191 
L 190.605631 111.277979 
z
" clip-path="url(#pa78cceed71)" style="fill: #375c9f"/>
    <path d="M 122.070485 113.231211 
L 130.287762 115.558146 
L 132.770507 113.55317 
L 124.567153 111.238383 
z
" clip-path="url(#pa78cceed71)" style="fill: #375c9f"/>
    <path d="M 149.66032 112.740056 
L 159.390226 115.465672 
L 160.610583 114.449081 
L 150.88921 111.730683 
z
" clip-path="url(#pa78cceed71)" style="fill: #375c9f"/>
    <path d="M 80.312541 114.675452 
L 84.020096 115.743874 
L 87.663417 112.937832 
L 83.96436 111.877218 
z
" clip-path="url(#pa78cceed71)" style="fill: #375c9f"/>
    <path d="M 242.161441 114.733349 
L 245.766631 115.712647 
L 248.828205 112.896892 
L 245.23235 111.924774 
z
" clip-path="url(#pa78cceed71)" style="fill: #375c9f"/>
    <path d="M 206.479622 115.650483 
L 208.728082 116.269823 
L 213.562431 112.009825 
L 211.322571 111.397346 
z
" clip-path="url(#pa78cceed71)" style="fill: #375c9f"/>
    <path d="M 139.851104 115.551143 
L 144.60479 116.892518 
L 149.66032 112.740056 
L 144.923527 111.413149 
z
" clip-path="url(#pa78cceed71)" style="fill: #375c9f"/>
    <path d="M 167.156815 116.279611 
L 171.238364 117.420938 
L 177.274922 112.313657 
L 173.211569 111.187451 
z
" clip-path="url(#pa78cceed71)" style="fill: #375c9f"/>
    <path d="M 226.552109 115.561791 
L 232.813304 117.273885 
L 237.121502 113.364321 
L 230.882564 111.669603 
z
" clip-path="url(#pa78cceed71)" style="fill: #375c9f"/>
    <path d="M 108.849866 116.335614 
L 115.721414 118.299009 
L 122.070485 113.231211 
L 115.228016 111.293587 
z
" clip-path="url(#pa78cceed71)" style="fill: #375c9f"/>
    <path d="M 95.504342 115.186027 
L 99.97305 116.467321 
L 102.468413 114.512253 
L 98.00692 113.237479 
z
" clip-path="url(#pa78cceed71)" style="fill: #375c9f"/>
    <path d="M 186.436939 114.853016 
L 197.294576 117.862336 
L 200.633873 114.951904 
L 189.804179 111.965298 
z
" clip-path="url(#pa78cceed71)" style="fill: #375c9f"/>
    <path d="M 200.633873 114.951904 
L 205.687971 116.34572 
L 206.479622 115.650483 
L 201.42866 114.259191 
z
" clip-path="url(#pa78cceed71)" style="fill: #375c9f"/>
    <path d="M 84.020096 115.743874 
L 91.879161 118.008653 
L 95.504342 115.186027 
L 87.663417 112.937832 
z
" clip-path="url(#pa78cceed71)" style="fill: #375c9f"/>
    <path d="M 130.287762 115.558146 
L 137.380481 117.566634 
L 139.851104 115.551143 
L 132.770507 113.55317 
z
" clip-path="url(#pa78cceed71)" style="fill: #375c9f"/>
    <path d="M 159.390226 115.465672 
L 165.942255 117.301077 
L 167.156815 116.279611 
L 160.610583 114.449081 
z
" clip-path="url(#pa78cceed71)" style="fill: #375c9f"/>
    <path d="M 208.728082 116.269823 
L 221.768034 119.861688 
L 226.552109 115.561791 
L 213.562431 112.009825 
z
" clip-path="url(#pa78cceed71)" style="fill: #375c9f"/>
    <path d="M 232.813304 117.273885 
L 237.871326 118.656977 
L 242.161441 114.733349 
L 237.121502 113.364321 
z
" clip-path="url(#pa78cceed71)" style="fill: #375c9f"/>
    <path d="M 171.238364 117.420938 
L 180.441706 119.994479 
L 186.436939 114.853016 
L 177.274922 112.313657 
z
" clip-path="url(#pa78cceed71)" style="fill: #375c9f"/>
    <path d="M 144.60479 116.892518 
L 154.369675 119.647931 
L 159.390226 115.465672 
L 149.66032 112.740056 
z
" clip-path="url(#pa78cceed71)" style="fill: #375c9f"/>
    <path d="M 205.687971 116.34572 
L 207.937834 116.966185 
L 208.728082 116.269823 
L 206.479622 115.650483 
z
" clip-path="url(#pa78cceed71)" style="fill: #375c9f"/>
    <path d="M 99.97305 116.467321 
L 106.36489 118.300026 
L 108.849866 116.335614 
L 102.468413 114.512253 
z
" clip-path="url(#pa78cceed71)" style="fill: #375c9f"/>
    <path d="M 115.721414 118.299009 
L 123.973917 120.656981 
L 130.287762 115.558146 
L 122.070485 113.231211 
z
" clip-path="url(#pa78cceed71)" style="fill: #375c9f"/>
    <path d="M 197.294576 117.862336 
L 202.361825 119.266783 
L 205.687971 116.34572 
L 200.633873 114.951904 
z
" clip-path="url(#pa78cceed71)" style="fill: #375c9f"/>
    <path d="M 75.16672 118.618477 
L 78.886187 119.697948 
L 84.020096 115.743874 
L 80.312541 114.675452 
z
" clip-path="url(#pa78cceed71)" style="fill: #375c9f"/>
    <path d="M 237.871326 118.656977 
L 241.489509 119.646351 
L 245.766631 115.712647 
L 242.161441 114.733349 
z
" clip-path="url(#pa78cceed71)" style="fill: #375c9f"/>
    <path d="M 137.380481 117.566634 
L 142.14236 118.915084 
L 144.60479 116.892518 
L 139.851104 115.551143 
z
" clip-path="url(#pa78cceed71)" style="fill: #375c9f"/>
    <path d="M 91.879161 118.008653 
L 96.358283 119.299421 
L 99.97305 116.467321 
L 95.504342 115.186027 
z
" clip-path="url(#pa78cceed71)" style="fill: #375c9f"/>
    <path d="M 165.942255 117.301077 
L 170.02744 118.445451 
L 171.238364 117.420938 
L 167.156815 116.279611 
z
" clip-path="url(#pa78cceed71)" style="fill: #375c9f"/>
    <path d="M 202.361825 119.266783 
L 204.617563 119.891987 
L 207.937834 116.966185 
L 205.687971 116.34572 
z
" clip-path="url(#pa78cceed71)" style="fill: #375c9f"/>
    <path d="M 106.36489 118.300026 
L 113.247709 120.273508 
L 115.721414 118.299009 
L 108.849866 116.335614 
z
" clip-path="url(#pa78cceed71)" style="fill: #375c9f"/>
    <path d="M 207.937834 116.966185 
L 220.985979 120.564594 
L 221.768034 119.861688 
L 208.728082 116.269823 
z
" clip-path="url(#pa78cceed71)" style="fill: #375c9f"/>
    <path d="M 154.369675 119.647931 
L 160.945474 121.503462 
L 165.942255 117.301077 
L 159.390226 115.465672 
z
" clip-path="url(#pa78cceed71)" style="fill: #375c9f"/>
    <path d="M 221.768034 119.861688 
L 228.053704 121.593081 
L 232.813304 117.273885 
L 226.552109 115.561791 
z
" clip-path="url(#pa78cceed71)" style="fill: #375c9f"/>
    <path d="M 96.358283 119.299421 
L 102.765115 121.145704 
L 106.36489 118.300026 
L 99.97305 116.467321 
z
" clip-path="url(#pa78cceed71)" style="fill: #375c9f"/>
    <path d="M 78.886187 119.697948 
L 86.770679 121.986201 
L 91.879161 118.008653 
L 84.020096 115.743874 
z
" clip-path="url(#pa78cceed71)" style="fill: #375c9f"/>
    <path d="M 180.441706 119.994479 
L 191.348848 123.044454 
L 197.294576 117.862336 
L 186.436939 114.853016 
z
" clip-path="url(#pa78cceed71)" style="fill: #375c9f"/>
    <path d="M 123.973917 120.656981 
L 131.097311 122.692335 
L 137.380481 117.566634 
L 130.287762 115.558146 
z
" clip-path="url(#pa78cceed71)" style="fill: #375c9f"/>
    <path d="M 170.02744 118.445451 
L 179.23904 121.025875 
L 180.441706 119.994479 
L 171.238364 117.420938 
z
" clip-path="url(#pa78cceed71)" style="fill: #375c9f"/>
    <path d="M 142.14236 118.915084 
L 151.924212 121.68507 
L 154.369675 119.647931 
L 144.60479 116.892518 
z
" clip-path="url(#pa78cceed71)" style="fill: #375c9f"/>
    <path d="M 160.945474 121.503462 
L 165.045566 122.660408 
L 170.02744 118.445451 
L 165.942255 117.301077 
z
" clip-path="url(#pa78cceed71)" style="fill: #375c9f"/>
    <path d="M 72.716101 120.496282 
L 76.441215 121.581035 
L 78.886187 119.697948 
L 75.16672 118.618477 
z
" clip-path="url(#pa78cceed71)" style="fill: #375c9f"/>
    <path d="M 228.053704 121.593081 
L 233.131614 122.991796 
L 237.871326 118.656977 
L 232.813304 117.273885 
z
" clip-path="url(#pa78cceed71)" style="fill: #375c9f"/>
    <path d="M 204.617563 119.891987 
L 217.700065 123.517954 
L 220.985979 120.564594 
L 207.937834 116.966185 
z
" clip-path="url(#pa78cceed71)" style="fill: #375c9f"/>
    <path d="M 113.247709 120.273508 
L 121.513868 122.643629 
L 123.973917 120.656981 
L 115.721414 118.299009 
z
" clip-path="url(#pa78cceed71)" style="fill: #375c9f"/>
    <path d="M 86.770679 121.986201 
L 91.264401 123.290378 
L 96.358283 119.299421 
L 91.879161 118.008653 
z
" clip-path="url(#pa78cceed71)" style="fill: #375c9f"/>
    <path d="M 102.765115 121.145704 
L 109.664204 123.133844 
L 113.247709 120.273508 
L 106.36489 118.300026 
z
" clip-path="url(#pa78cceed71)" style="fill: #375c9f"/>
    <path d="M 131.097311 122.692335 
L 135.879923 124.058862 
L 142.14236 118.915084 
L 137.380481 117.566634 
z
" clip-path="url(#pa78cceed71)" style="fill: #375c9f"/>
    <path d="M 220.985979 120.564594 
L 227.275639 122.299152 
L 228.053704 121.593081 
L 221.768034 119.861688 
z
" clip-path="url(#pa78cceed71)" style="fill: #375c9f"/>
    <path d="M 191.348848 123.044454 
L 196.439398 124.46793 
L 202.361825 119.266783 
L 197.294576 117.862336 
z
" clip-path="url(#pa78cceed71)" style="fill: #375c9f"/>
    <path d="M 233.131614 122.991796 
L 236.764086 123.992363 
L 241.489509 119.646351 
L 237.871326 118.656977 
z
" clip-path="url(#pa78cceed71)" style="fill: #375c9f"/>
    <path d="M 151.924212 121.68507 
L 158.511542 123.550444 
L 160.945474 121.503462 
L 154.369675 119.647931 
z
" clip-path="url(#pa78cceed71)" style="fill: #375c9f"/>
    <path d="M 76.441215 121.581035 
L 84.337762 123.88051 
L 86.770679 121.986201 
L 78.886187 119.697948 
z
" clip-path="url(#pa78cceed71)" style="fill: #375c9f"/>
    <path d="M 165.045566 122.660408 
L 174.291025 125.269252 
L 179.23904 121.025875 
L 170.02744 118.445451 
z
" clip-path="url(#pa78cceed71)" style="fill: #375c9f"/>
    <path d="M 179.23904 121.025875 
L 190.156075 124.084039 
L 191.348848 123.044454 
L 180.441706 119.994479 
z
" clip-path="url(#pa78cceed71)" style="fill: #375c9f"/>
    <path d="M 196.439398 124.46793 
L 198.70555 125.101616 
L 204.617563 119.891987 
L 202.361825 119.266783 
z
" clip-path="url(#pa78cceed71)" style="fill: #375c9f"/>
    <path d="M 91.264401 123.290378 
L 97.692252 125.155882 
L 102.765115 121.145704 
L 96.358283 119.299421 
z
" clip-path="url(#pa78cceed71)" style="fill: #375c9f"/>
    <path d="M 227.275639 122.299152 
L 232.356791 123.700429 
L 233.131614 122.991796 
L 228.053704 121.593081 
z
" clip-path="url(#pa78cceed71)" style="fill: #375c9f"/>
    <path d="M 121.513868 122.643629 
L 128.649154 124.689499 
L 131.097311 122.692335 
L 123.973917 120.656981 
z
" clip-path="url(#pa78cceed71)" style="fill: #375c9f"/>
    <path d="M 135.879923 124.058862 
L 145.704718 126.866083 
L 151.924212 121.68507 
L 142.14236 118.915084 
z
" clip-path="url(#pa78cceed71)" style="fill: #375c9f"/>
    <path d="M 109.664204 123.133844 
L 117.950077 125.521619 
L 121.513868 122.643629 
L 113.247709 120.273508 
z
" clip-path="url(#pa78cceed71)" style="fill: #375c9f"/>
    <path d="M 217.700065 123.517954 
L 224.006453 125.265842 
L 227.275639 122.299152 
L 220.985979 120.564594 
z
" clip-path="url(#pa78cceed71)" style="fill: #375c9f"/>
    <path d="M 158.511542 123.550444 
L 162.618865 124.713539 
L 165.045566 122.660408 
L 160.945474 121.503462 
z
" clip-path="url(#pa78cceed71)" style="fill: #375c9f"/>
    <path d="M 84.337762 123.88051 
L 88.838406 125.191098 
L 91.264401 123.290378 
L 86.770679 121.986201 
z
" clip-path="url(#pa78cceed71)" style="fill: #375c9f"/>
    <path d="M 65.420988 126.086218 
L 69.162813 127.186772 
L 76.441215 121.581035 
L 72.716101 120.496282 
z
" clip-path="url(#pa78cceed71)" style="fill: #375c9f"/>
    <path d="M 232.356791 123.700429 
L 235.991592 124.702832 
L 236.764086 123.992363 
L 233.131614 122.991796 
z
" clip-path="url(#pa78cceed71)" style="fill: #375c9f"/>
    <path d="M 97.692252 125.155882 
L 104.614154 127.16477 
L 109.664204 123.133844 
L 102.765115 121.145704 
z
" clip-path="url(#pa78cceed71)" style="fill: #375c9f"/>
    <path d="M 190.156075 124.084039 
L 195.251282 125.511348 
L 196.439398 124.46793 
L 191.348848 123.044454 
z
" clip-path="url(#pa78cceed71)" style="fill: #375c9f"/>
    <path d="M 198.70555 125.101616 
L 211.848935 128.776915 
L 217.700065 123.517954 
L 204.617563 119.891987 
z
" clip-path="url(#pa78cceed71)" style="fill: #375c9f"/>
    <path d="M 128.649154 124.689499 
L 133.439805 126.063102 
L 135.879923 124.058862 
L 131.097311 122.692335 
z
" clip-path="url(#pa78cceed71)" style="fill: #375c9f"/>
    <path d="M 224.006453 125.265842 
L 229.101198 126.67791 
L 232.356791 123.700429 
L 227.275639 122.299152 
z
" clip-path="url(#pa78cceed71)" style="fill: #375c9f"/>
    <path d="M 174.291025 125.269252 
L 185.248629 128.361222 
L 190.156075 124.084039 
L 179.23904 121.025875 
z
" clip-path="url(#pa78cceed71)" style="fill: #375c9f"/>
    <path d="M 162.618865 124.713539 
L 171.880752 127.336283 
L 174.291025 125.269252 
L 165.045566 122.660408 
z
" clip-path="url(#pa78cceed71)" style="fill: #375c9f"/>
    <path d="M 117.950077 125.521619 
L 125.102532 127.582772 
L 128.649154 124.689499 
L 121.513868 122.643629 
z
" clip-path="url(#pa78cceed71)" style="fill: #375c9f"/>
    <path d="M 88.838406 125.191098 
L 95.276223 127.06579 
L 97.692252 125.155882 
L 91.264401 123.290378 
z
" clip-path="url(#pa78cceed71)" style="fill: #375c9f"/>
    <path d="M 145.704718 126.866083 
L 152.321233 128.756607 
L 158.511542 123.550444 
L 151.924212 121.68507 
z
" clip-path="url(#pa78cceed71)" style="fill: #375c9f"/>
    <path d="M 195.251282 125.511348 
L 197.519515 126.146743 
L 198.70555 125.101616 
L 196.439398 124.46793 
z
" clip-path="url(#pa78cceed71)" style="fill: #375c9f"/>
    <path d="M 69.162813 127.186772 
L 77.095037 129.519815 
L 84.337762 123.88051 
L 76.441215 121.581035 
z
" clip-path="url(#pa78cceed71)" style="fill: #375c9f"/>
    <path d="M 229.101198 126.67791 
L 232.745767 127.688044 
L 235.991592 124.702832 
L 232.356791 123.700429 
z
" clip-path="url(#pa78cceed71)" style="fill: #375c9f"/>
    <path d="M 104.614154 127.16477 
L 112.92767 129.577535 
L 117.950077 125.521619 
L 109.664204 123.133844 
z
" clip-path="url(#pa78cceed71)" style="fill: #375c9f"/>
    <path d="M 133.439805 126.063102 
L 143.281252 128.884898 
L 145.704718 126.866083 
L 135.879923 124.058862 
z
" clip-path="url(#pa78cceed71)" style="fill: #375c9f"/>
    <path d="M 152.321233 128.756607 
L 156.446862 129.935415 
L 162.618865 124.713539 
L 158.511542 123.550444 
z
" clip-path="url(#pa78cceed71)" style="fill: #375c9f"/>
    <path d="M 125.102532 127.582772 
L 129.904789 128.966658 
L 133.439805 126.063102 
L 128.649154 124.689499 
z
" clip-path="url(#pa78cceed71)" style="fill: #375c9f"/>
    <path d="M 185.248629 128.361222 
L 190.362933 129.804355 
L 195.251282 125.511348 
L 190.156075 124.084039 
z
" clip-path="url(#pa78cceed71)" style="fill: #375c9f"/>
    <path d="M 211.848935 128.776915 
L 218.18497 130.548667 
L 224.006453 125.265842 
L 217.700065 123.517954 
z
" clip-path="url(#pa78cceed71)" style="fill: #375c9f"/>
    <path d="M 95.276223 127.06579 
L 102.208942 129.084598 
L 104.614154 127.16477 
L 97.692252 125.155882 
z
" clip-path="url(#pa78cceed71)" style="fill: #375c9f"/>
    <path d="M 77.095037 129.519815 
L 81.616168 130.849581 
L 88.838406 125.191098 
L 84.337762 123.88051 
z
" clip-path="url(#pa78cceed71)" style="fill: #375c9f"/>
    <path d="M 197.519515 126.146743 
L 210.675069 129.831978 
L 211.848935 128.776915 
L 198.70555 125.101616 
z
" clip-path="url(#pa78cceed71)" style="fill: #375c9f"/>
    <path d="M 171.880752 127.336283 
L 182.85804 130.444788 
L 185.248629 128.361222 
L 174.291025 125.269252 
z
" clip-path="url(#pa78cceed71)" style="fill: #375c9f"/>
    <path d="M 190.362933 129.804355 
L 192.639702 130.446804 
L 197.519515 126.146743 
L 195.251282 125.511348 
z
" clip-path="url(#pa78cceed71)" style="fill: #375c9f"/>
    <path d="M 112.92767 129.577535 
L 120.104202 131.660323 
L 125.102532 127.582772 
L 117.950077 125.521619 
z
" clip-path="url(#pa78cceed71)" style="fill: #375c9f"/>
    <path d="M 218.18497 130.548667 
L 223.303808 131.980053 
L 229.101198 126.67791 
L 224.006453 125.265842 
z
" clip-path="url(#pa78cceed71)" style="fill: #375c9f"/>
    <path d="M 156.446862 129.935415 
L 165.750335 132.593679 
L 171.880752 127.336283 
L 162.618865 124.713539 
z
" clip-path="url(#pa78cceed71)" style="fill: #375c9f"/>
    <path d="M 143.281252 128.884898 
L 149.909084 130.785268 
L 152.321233 128.756607 
L 145.704718 126.866083 
z
" clip-path="url(#pa78cceed71)" style="fill: #375c9f"/>
    <path d="M 129.904789 128.966658 
L 139.770278 131.809638 
L 143.281252 128.884898 
L 133.439805 126.063102 
z
" clip-path="url(#pa78cceed71)" style="fill: #375c9f"/>
    <path d="M 81.616168 130.849581 
L 88.083484 132.751762 
L 95.276223 127.06579 
L 88.838406 125.191098 
z
" clip-path="url(#pa78cceed71)" style="fill: #375c9f"/>
    <path d="M 102.208942 129.084598 
L 110.535567 131.509312 
L 112.92767 129.577535 
L 104.614154 127.16477 
z
" clip-path="url(#pa78cceed71)" style="fill: #375c9f"/>
    <path d="M 223.303808 131.980053 
L 226.96569 133.004029 
L 232.745767 127.688044 
L 229.101198 126.67791 
z
" clip-path="url(#pa78cceed71)" style="fill: #375c9f"/>
    <path d="M 182.85804 130.444788 
L 187.981612 131.895661 
L 190.362933 129.804355 
L 185.248629 128.361222 
z
" clip-path="url(#pa78cceed71)" style="fill: #375c9f"/>
    <path d="M 192.639702 130.446804 
L 205.845167 134.173065 
L 210.675069 129.831978 
L 197.519515 126.146743 
z
" clip-path="url(#pa78cceed71)" style="fill: #375c9f"/>
    <path d="M 210.675069 129.831978 
L 217.017031 131.608538 
L 218.18497 130.548667 
L 211.848935 128.776915 
z
" clip-path="url(#pa78cceed71)" style="fill: #375c9f"/>
    <path d="M 120.104202 131.660323 
L 124.922736 133.058767 
L 129.904789 128.966658 
L 125.102532 127.582772 
z
" clip-path="url(#pa78cceed71)" style="fill: #375c9f"/>
    <path d="M 149.909084 130.785268 
L 154.041813 131.970228 
L 156.446862 129.935415 
L 152.321233 128.756607 
z
" clip-path="url(#pa78cceed71)" style="fill: #375c9f"/>
    <path d="M 88.083484 132.751762 
L 95.048226 134.800247 
L 102.208942 129.084598 
L 95.276223 127.06579 
z
" clip-path="url(#pa78cceed71)" style="fill: #375c9f"/>
    <path d="M 187.981612 131.895661 
L 190.262522 132.54156 
L 192.639702 130.446804 
L 190.362933 129.804355 
z
" clip-path="url(#pa78cceed71)" style="fill: #375c9f"/>
    <path d="M 139.770278 131.809638 
L 146.414452 133.724317 
L 149.909084 130.785268 
L 143.281252 128.884898 
z
" clip-path="url(#pa78cceed71)" style="fill: #375c9f"/>
    <path d="M 165.750335 132.593679 
L 176.77746 135.744439 
L 182.85804 130.444788 
L 171.880752 127.336283 
z
" clip-path="url(#pa78cceed71)" style="fill: #375c9f"/>
    <path d="M 110.535567 131.509312 
L 117.723518 133.602443 
L 120.104202 131.660323 
L 112.92767 129.577535 
z
" clip-path="url(#pa78cceed71)" style="fill: #375c9f"/>
    <path d="M 217.017031 131.608538 
L 222.140685 133.043815 
L 223.303808 131.980053 
L 218.18497 130.548667 
z
" clip-path="url(#pa78cceed71)" style="fill: #375c9f"/>
    <path d="M 154.041813 131.970228 
L 163.361414 134.642398 
L 165.750335 132.593679 
L 156.446862 129.935415 
z
" clip-path="url(#pa78cceed71)" style="fill: #375c9f"/>
    <path d="M 124.922736 133.058767 
L 134.821946 135.931736 
L 139.770278 131.809638 
L 129.904789 128.966658 
z
" clip-path="url(#pa78cceed71)" style="fill: #375c9f"/>
    <path d="M 146.414452 133.724317 
L 150.557433 134.918218 
L 154.041813 131.970228 
L 149.909084 130.785268 
z
" clip-path="url(#pa78cceed71)" style="fill: #375c9f"/>
    <path d="M 205.845167 134.173065 
L 212.211438 135.969472 
L 217.017031 131.608538 
L 210.675069 129.831978 
z
" clip-path="url(#pa78cceed71)" style="fill: #375c9f"/>
    <path d="M 222.140685 133.043815 
L 225.806029 134.07058 
L 226.96569 133.004029 
L 223.303808 131.980053 
z
" clip-path="url(#pa78cceed71)" style="fill: #375c9f"/>
    <path d="M 95.048226 134.800247 
L 103.413662 137.260708 
L 110.535567 131.509312 
L 102.208942 129.084598 
z
" clip-path="url(#pa78cceed71)" style="fill: #375c9f"/>
    <path d="M 117.723518 133.602443 
L 122.549772 135.007849 
L 124.922736 133.058767 
L 120.104202 131.660323 
z
" clip-path="url(#pa78cceed71)" style="fill: #375c9f"/>
    <path d="M 190.262522 132.54156 
L 203.492209 136.28789 
L 205.845167 134.173065 
L 192.639702 130.446804 
z
" clip-path="url(#pa78cceed71)" style="fill: #375c9f"/>
    <path d="M 176.77746 135.744439 
L 181.924497 137.215092 
L 187.981612 131.895661 
L 182.85804 130.444788 
z
" clip-path="url(#pa78cceed71)" style="fill: #375c9f"/>
    <path d="M 212.211438 135.969472 
L 217.354849 137.420818 
L 222.140685 133.043815 
L 217.017031 131.608538 
z
" clip-path="url(#pa78cceed71)" style="fill: #375c9f"/>
    <path d="M 150.557433 134.918218 
L 159.900327 137.610599 
L 163.361414 134.642398 
L 154.041813 131.970228 
z
" clip-path="url(#pa78cceed71)" style="fill: #375c9f"/>
    <path d="M 134.821946 135.931736 
L 141.489045 137.866675 
L 146.414452 133.724317 
L 139.770278 131.809638 
z
" clip-path="url(#pa78cceed71)" style="fill: #375c9f"/>
    <path d="M 181.924497 137.215092 
L 184.215895 137.869809 
L 190.262522 132.54156 
L 187.981612 131.895661 
z
" clip-path="url(#pa78cceed71)" style="fill: #375c9f"/>
    <path d="M 163.361414 134.642398 
L 174.407871 137.809702 
L 176.77746 135.744439 
L 165.750335 132.593679 
z
" clip-path="url(#pa78cceed71)" style="fill: #375c9f"/>
    <path d="M 103.413662 137.260708 
L 110.635422 139.384788 
L 117.723518 133.602443 
L 110.535567 131.509312 
z
" clip-path="url(#pa78cceed71)" style="fill: #375c9f"/>
    <path d="M 122.549772 135.007849 
L 132.464978 137.895157 
L 134.821946 135.931736 
L 124.922736 133.058767 
z
" clip-path="url(#pa78cceed71)" style="fill: #375c9f"/>
    <path d="M 217.354849 137.420818 
L 221.034391 138.459095 
L 225.806029 134.07058 
L 222.140685 133.043815 
z
" clip-path="url(#pa78cceed71)" style="fill: #375c9f"/>
    <path d="M 203.492209 136.28789 
L 209.870278 138.094006 
L 212.211438 135.969472 
L 205.845167 134.173065 
z
" clip-path="url(#pa78cceed71)" style="fill: #375c9f"/>
    <path d="M 141.489045 137.866675 
L 145.646407 139.073233 
L 150.557433 134.918218 
L 146.414452 133.724317 
z
" clip-path="url(#pa78cceed71)" style="fill: #375c9f"/>
    <path d="M 184.215895 137.869809 
L 197.506922 141.66743 
L 203.492209 136.28789 
L 190.262522 132.54156 
z
" clip-path="url(#pa78cceed71)" style="fill: #375c9f"/>
    <path d="M 110.635422 139.384788 
L 115.484538 140.811021 
L 122.549772 135.007849 
L 117.723518 133.602443 
z
" clip-path="url(#pa78cceed71)" style="fill: #375c9f"/>
    <path d="M 174.407871 137.809702 
L 179.564011 139.2881 
L 181.924497 137.215092 
L 176.77746 135.744439 
z
" clip-path="url(#pa78cceed71)" style="fill: #375c9f"/>
    <path d="M 159.900327 137.610599 
L 170.974703 140.801948 
L 174.407871 137.809702 
L 163.361414 134.642398 
z
" clip-path="url(#pa78cceed71)" style="fill: #375c9f"/>
    <path d="M 209.870278 138.094006 
L 215.023279 139.553212 
L 217.354849 137.420818 
L 212.211438 135.969472 
z
" clip-path="url(#pa78cceed71)" style="fill: #375c9f"/>
    <path d="M 132.464978 137.895157 
L 139.142951 139.839783 
L 141.489045 137.866675 
L 134.821946 135.931736 
z
" clip-path="url(#pa78cceed71)" style="fill: #375c9f"/>
    <path d="M 145.646407 139.073233 
L 155.021979 141.79423 
L 159.900327 137.610599 
L 150.557433 134.918218 
z
" clip-path="url(#pa78cceed71)" style="fill: #375c9f"/>
    <path d="M 179.564011 139.2881 
L 181.859478 139.946269 
L 184.215895 137.869809 
L 181.924497 137.215092 
z
" clip-path="url(#pa78cceed71)" style="fill: #375c9f"/>
    <path d="M 215.023279 139.553212 
L 218.709712 140.597122 
L 221.034391 138.459095 
L 217.354849 137.420818 
z
" clip-path="url(#pa78cceed71)" style="fill: #375c9f"/>
    <path d="M 115.484538 140.811021 
L 125.447112 143.741235 
L 132.464978 137.895157 
L 122.549772 135.007849 
z
" clip-path="url(#pa78cceed71)" style="fill: #375c9f"/>
    <path d="M 139.142951 139.839783 
L 143.307136 141.052394 
L 145.646407 139.073233 
L 141.489045 137.866675 
z
" clip-path="url(#pa78cceed71)" style="fill: #375c9f"/>
    <path d="M 197.506922 141.66743 
L 203.914872 143.498361 
L 209.870278 138.094006 
L 203.492209 136.28789 
z
" clip-path="url(#pa78cceed71)" style="fill: #375c9f"/>
    <path d="M 170.974703 140.801948 
L 176.143991 142.291603 
L 179.564011 139.2881 
L 174.407871 137.809702 
z
" clip-path="url(#pa78cceed71)" style="fill: #375c9f"/>
    <path d="M 181.859478 139.946269 
L 195.174304 143.763973 
L 197.506922 141.66743 
L 184.215895 137.869809 
z
" clip-path="url(#pa78cceed71)" style="fill: #375c9f"/>
    <path d="M 176.143991 142.291603 
L 178.445335 142.954791 
L 181.859478 139.946269 
L 179.564011 139.2881 
z
" clip-path="url(#pa78cceed71)" style="fill: #375c9f"/>
    <path d="M 155.021979 141.79423 
L 166.135529 145.019627 
L 170.974703 140.801948 
L 159.900327 137.610599 
z
" clip-path="url(#pa78cceed71)" style="fill: #375c9f"/>
    <path d="M 143.307136 141.052394 
L 152.69821 143.787075 
L 155.021979 141.79423 
L 145.646407 139.073233 
z
" clip-path="url(#pa78cceed71)" style="fill: #375c9f"/>
    <path d="M 203.914872 143.498361 
L 209.092162 144.977659 
L 215.023279 139.553212 
L 209.870278 138.094006 
z
" clip-path="url(#pa78cceed71)" style="fill: #375c9f"/>
    <path d="M 125.447112 143.741235 
L 132.157293 145.714849 
L 139.142951 139.839783 
L 132.464978 137.895157 
z
" clip-path="url(#pa78cceed71)" style="fill: #375c9f"/>
    <path d="M 209.092162 144.977659 
L 212.796052 146.035964 
L 218.709712 140.597122 
L 215.023279 139.553212 
z
" clip-path="url(#pa78cceed71)" style="fill: #375c9f"/>
    <path d="M 178.445335 142.954791 
L 191.794537 146.801687 
L 195.174304 143.763973 
L 181.859478 139.946269 
z
" clip-path="url(#pa78cceed71)" style="fill: #375c9f"/>
    <path d="M 132.157293 145.714849 
L 136.341687 146.945572 
L 143.307136 141.052394 
L 139.142951 139.839783 
z
" clip-path="url(#pa78cceed71)" style="fill: #375c9f"/>
    <path d="M 195.174304 143.763973 
L 201.593849 145.604622 
L 203.914872 143.498361 
L 197.506922 141.66743 
z
" clip-path="url(#pa78cceed71)" style="fill: #375c9f"/>
    <path d="M 166.135529 145.019627 
L 171.323266 146.525222 
L 176.143991 142.291603 
L 170.974703 140.801948 
z
" clip-path="url(#pa78cceed71)" style="fill: #375c9f"/>
    <path d="M 152.69821 143.787075 
L 163.830348 147.028754 
L 166.135529 145.019627 
L 155.021979 141.79423 
z
" clip-path="url(#pa78cceed71)" style="fill: #375c9f"/>
    <path d="M 171.323266 146.525222 
L 173.632857 147.195516 
L 178.445335 142.954791 
L 176.143991 142.291603 
z
" clip-path="url(#pa78cceed71)" style="fill: #375c9f"/>
    <path d="M 201.593849 145.604622 
L 206.780564 147.091786 
L 209.092162 144.977659 
L 203.914872 143.498361 
z
" clip-path="url(#pa78cceed71)" style="fill: #375c9f"/>
    <path d="M 136.341687 146.945572 
L 145.778685 149.721203 
L 152.69821 143.787075 
L 143.307136 141.052394 
z
" clip-path="url(#pa78cceed71)" style="fill: #375c9f"/>
    <path d="M 191.794537 146.801687 
L 198.230831 148.656461 
L 201.593849 145.604622 
L 195.174304 143.763973 
z
" clip-path="url(#pa78cceed71)" style="fill: #375c9f"/>
    <path d="M 206.780564 147.091786 
L 210.491229 148.155729 
L 212.796052 146.035964 
L 209.092162 144.977659 
z
" clip-path="url(#pa78cceed71)" style="fill: #375c9f"/>
    <path d="M 163.830348 147.028754 
L 169.026839 148.541972 
L 171.323266 146.525222 
L 166.135529 145.019627 
z
" clip-path="url(#pa78cceed71)" style="fill: #375c9f"/>
    <path d="M 173.632857 147.195516 
L 187.030305 151.08375 
L 191.794537 146.801687 
L 178.445335 142.954791 
z
" clip-path="url(#pa78cceed71)" style="fill: #375c9f"/>
    <path d="M 169.026839 148.541972 
L 171.340344 149.215665 
L 173.632857 147.195516 
L 171.323266 146.525222 
z
" clip-path="url(#pa78cceed71)" style="fill: #375c9f"/>
    <path d="M 198.230831 148.656461 
L 203.431163 150.155062 
L 206.780564 147.091786 
L 201.593849 145.604622 
z
" clip-path="url(#pa78cceed71)" style="fill: #375c9f"/>
    <path d="M 145.778685 149.721203 
L 156.965891 153.011609 
L 163.830348 147.028754 
L 152.69821 143.787075 
z
" clip-path="url(#pa78cceed71)" style="fill: #375c9f"/>
    <path d="M 203.431163 150.155062 
L 207.151614 151.227201 
L 210.491229 148.155729 
L 206.780564 147.091786 
z
" clip-path="url(#pa78cceed71)" style="fill: #375c9f"/>
    <path d="M 187.030305 151.08375 
L 193.490109 152.958527 
L 198.230831 148.656461 
L 191.794537 146.801687 
z
" clip-path="url(#pa78cceed71)" style="fill: #375c9f"/>
    <path d="M 171.340344 149.215665 
L 184.760687 153.123669 
L 187.030305 151.08375 
L 173.632857 147.195516 
z
" clip-path="url(#pa78cceed71)" style="fill: #375c9f"/>
    <path d="M 156.965891 153.011609 
L 162.188321 154.547642 
L 169.026839 148.541972 
L 163.830348 147.028754 
z
" clip-path="url(#pa78cceed71)" style="fill: #375c9f"/>
    <path d="M 193.490109 152.958527 
L 198.709553 154.473325 
L 203.431163 150.155062 
L 198.230831 148.656461 
z
" clip-path="url(#pa78cceed71)" style="fill: #375c9f"/>
    <path d="M 162.188321 154.547642 
L 164.513422 155.231506 
L 171.340344 149.215665 
L 169.026839 148.541972 
z
" clip-path="url(#pa78cceed71)" style="fill: #375c9f"/>
    <path d="M 198.709553 154.473325 
L 202.443743 155.557069 
L 207.151614 151.227201 
L 203.431163 150.155062 
z
" clip-path="url(#pa78cceed71)" style="fill: #375c9f"/>
    <path d="M 184.760687 153.123669 
L 191.231649 155.008013 
L 193.490109 152.958527 
L 187.030305 151.08375 
z
" clip-path="url(#pa78cceed71)" style="fill: #375c9f"/>
    <path d="M 164.513422 155.231506 
L 178.001614 159.198683 
L 184.760687 153.123669 
L 171.340344 149.215665 
z
" clip-path="url(#pa78cceed71)" style="fill: #375c9f"/>
    <path d="M 191.231649 155.008013 
L 196.460165 156.530557 
L 198.709553 154.473325 
L 193.490109 152.958527 
z
" clip-path="url(#pa78cceed71)" style="fill: #375c9f"/>
    <path d="M 196.460165 156.530557 
L 200.200876 157.619853 
L 202.443743 155.557069 
L 198.709553 154.473325 
z
" clip-path="url(#pa78cceed71)" style="fill: #375c9f"/>
    <path d="M 178.001614 159.198683 
L 184.505646 161.111663 
L 191.231649 155.008013 
L 184.760687 153.123669 
z
" clip-path="url(#pa78cceed71)" style="fill: #375c9f"/>
    <path d="M 184.505646 161.111663 
L 189.761051 162.657394 
L 196.460165 156.530557 
L 191.231649 155.008013 
z
" clip-path="url(#pa78cceed71)" style="fill: #375c9f"/>
    <path d="M 189.761051 162.657394 
L 193.521092 163.763306 
L 200.200876 157.619853 
L 196.460165 156.530557 
z
" clip-path="url(#pa78cceed71)" style="fill: #375c9f"/>
   </g>
  </g>
 </g>
 <defs>
  <clipPath id="pa78cceed71">
   <rect x="35.28" y="17.28" width="253.44" height="253.44"/>
  </clipPath>
 </defs>
</svg>
