<?xml version="1.0" encoding="utf-8" standalone="no"?>
<!DOCTYPE svg PUBLIC "-//W3C//DTD SVG 1.1//EN"
  "http://www.w3.org/Graphics/SVG/1.1/DTD/svg11.dtd">
<svg xmlns:xlink="http://www.w3.org/1999/xlink" width="864pt" height="504pt" viewBox="0 0 864 504" xmlns="http://www.w3.org/2000/svg" version="1.1">
 <metadata>
  <rdf:RDF xmlns:dc="http://purl.org/dc/elements/1.1/" xmlns:cc="http://creativecommons.org/ns#" xmlns:rdf="http://www.w3.org/1999/02/22-rdf-syntax-ns#">
   <cc:Work>
    <dc:type rdf:resource="http://purl.org/dc/dcmitype/StillImage"/>
    <dc:date>2022-07-10T13:37:24.859947</dc:date>
    <dc:format>image/svg+xml</dc:format>
    <dc:creator>
     <cc:Agent>
      <dc:title>Matplotlib v3.5.0, https://matplotlib.org/</dc:title>
     </cc:Agent>
    </dc:creator>
   </cc:Work>
  </rdf:RDF>
 </metadata>
 <defs>
  <style type="text/css">*{stroke-linejoin: round; stroke-linecap: butt}</style>
 </defs>
 <g id="figure_1">
  <g id="patch_1">
   <path d="M 0 504 
L 864 504 
L 864 0 
L 0 0 
z
" style="fill: #ffffff"/>
  </g>
  <g id="axes_1">
   <g id="patch_2">
    <path d="M 79.76 209.655 
L 370.55 209.655 
L 370.55 35.28 
L 79.76 35.28 
z
" style="fill: #ffffff"/>
   </g>
   <g id="matplotlib.axis_1">
    <g id="xtick_1">
     <g id="line2d_1">
      <defs>
       <path id="m687916e370" d="M 0 0 
L 0 3.5 
" style="stroke: #000000; stroke-width: 0.8"/>
      </defs>
      <g>
       <use xlink:href="#m687916e370" x="92.977727" y="209.655" style="stroke: #000000; stroke-width: 0.8"/>
      </g>
     </g>
     <g id="text_1">
      <!-- 0 -->
      <g transform="translate(87.887727 228.8125)scale(0.16 -0.16)">
       <defs>
        <path id="DejaVuSerif-30" d="M 2034 219 
Q 2513 219 2750 744 
Q 2988 1269 2988 2328 
Q 2988 3391 2750 3916 
Q 2513 4441 2034 4441 
Q 1556 4441 1318 3916 
Q 1081 3391 1081 2328 
Q 1081 1269 1318 744 
Q 1556 219 2034 219 
z
M 2034 -91 
Q 1275 -91 848 546 
Q 422 1184 422 2328 
Q 422 3475 848 4112 
Q 1275 4750 2034 4750 
Q 2797 4750 3222 4112 
Q 3647 3475 3647 2328 
Q 3647 1184 3222 546 
Q 2797 -91 2034 -91 
z
" transform="scale(0.015625)"/>
       </defs>
       <use xlink:href="#DejaVuSerif-30"/>
      </g>
     </g>
    </g>
    <g id="xtick_2">
     <g id="line2d_2">
      <g>
       <use xlink:href="#m687916e370" x="145.848636" y="209.655" style="stroke: #000000; stroke-width: 0.8"/>
      </g>
     </g>
     <g id="text_2">
      <!-- 2 -->
      <g transform="translate(140.758636 228.8125)scale(0.16 -0.16)">
       <defs>
        <path id="DejaVuSerif-32" d="M 819 3553 
L 469 3553 
L 469 4384 
Q 803 4563 1142 4656 
Q 1481 4750 1806 4750 
Q 2534 4750 2956 4397 
Q 3378 4044 3378 3438 
Q 3378 2753 2422 1800 
Q 2347 1728 2309 1691 
L 1131 513 
L 3078 513 
L 3078 1088 
L 3444 1088 
L 3444 0 
L 434 0 
L 434 341 
L 1850 1753 
Q 2319 2222 2519 2614 
Q 2719 3006 2719 3438 
Q 2719 3909 2473 4175 
Q 2228 4441 1797 4441 
Q 1350 4441 1106 4219 
Q 863 3997 819 3553 
z
" transform="scale(0.015625)"/>
       </defs>
       <use xlink:href="#DejaVuSerif-32"/>
      </g>
     </g>
    </g>
    <g id="xtick_3">
     <g id="line2d_3">
      <g>
       <use xlink:href="#m687916e370" x="198.719545" y="209.655" style="stroke: #000000; stroke-width: 0.8"/>
      </g>
     </g>
     <g id="text_3">
      <!-- 4 -->
      <g transform="translate(193.629545 228.8125)scale(0.16 -0.16)">
       <defs>
        <path id="DejaVuSerif-34" d="M 2234 1581 
L 2234 4063 
L 641 1581 
L 2234 1581 
z
M 3609 0 
L 1484 0 
L 1484 331 
L 2234 331 
L 2234 1247 
L 197 1247 
L 197 1588 
L 2241 4750 
L 2859 4750 
L 2859 1581 
L 3750 1581 
L 3750 1247 
L 2859 1247 
L 2859 331 
L 3609 331 
L 3609 0 
z
" transform="scale(0.015625)"/>
       </defs>
       <use xlink:href="#DejaVuSerif-34"/>
      </g>
     </g>
    </g>
    <g id="xtick_4">
     <g id="line2d_4">
      <g>
       <use xlink:href="#m687916e370" x="251.590455" y="209.655" style="stroke: #000000; stroke-width: 0.8"/>
      </g>
     </g>
     <g id="text_4">
      <!-- 6 -->
      <g transform="translate(246.500455 228.8125)scale(0.16 -0.16)">
       <defs>
        <path id="DejaVuSerif-36" d="M 2094 219 
Q 2534 219 2771 542 
Q 3009 866 3009 1472 
Q 3009 2078 2771 2401 
Q 2534 2725 2094 2725 
Q 1647 2725 1412 2412 
Q 1178 2100 1178 1509 
Q 1178 888 1415 553 
Q 1653 219 2094 219 
z
M 1075 2569 
Q 1288 2803 1556 2918 
Q 1825 3034 2163 3034 
Q 2859 3034 3264 2615 
Q 3669 2197 3669 1472 
Q 3669 763 3233 336 
Q 2797 -91 2069 -91 
Q 1278 -91 853 498 
Q 428 1088 428 2181 
Q 428 3406 931 4078 
Q 1434 4750 2350 4750 
Q 2597 4750 2869 4703 
Q 3141 4656 3425 4563 
L 3425 3794 
L 3072 3794 
Q 3034 4109 2831 4275 
Q 2628 4441 2284 4441 
Q 1678 4441 1381 3981 
Q 1084 3522 1075 2569 
z
" transform="scale(0.015625)"/>
       </defs>
       <use xlink:href="#DejaVuSerif-36"/>
      </g>
     </g>
    </g>
    <g id="xtick_5">
     <g id="line2d_5">
      <g>
       <use xlink:href="#m687916e370" x="304.461364" y="209.655" style="stroke: #000000; stroke-width: 0.8"/>
      </g>
     </g>
     <g id="text_5">
      <!-- 8 -->
      <g transform="translate(299.371364 228.8125)scale(0.16 -0.16)">
       <defs>
        <path id="DejaVuSerif-38" d="M 2981 1275 
Q 2981 1775 2732 2051 
Q 2484 2328 2034 2328 
Q 1584 2328 1336 2051 
Q 1088 1775 1088 1275 
Q 1088 772 1336 495 
Q 1584 219 2034 219 
Q 2484 219 2732 495 
Q 2981 772 2981 1275 
z
M 2853 3541 
Q 2853 3966 2637 4203 
Q 2422 4441 2034 4441 
Q 1650 4441 1433 4203 
Q 1216 3966 1216 3541 
Q 1216 3113 1433 2875 
Q 1650 2638 2034 2638 
Q 2422 2638 2637 2875 
Q 2853 3113 2853 3541 
z
M 2516 2484 
Q 3047 2413 3344 2092 
Q 3641 1772 3641 1275 
Q 3641 619 3225 264 
Q 2809 -91 2034 -91 
Q 1263 -91 845 264 
Q 428 619 428 1275 
Q 428 1772 725 2092 
Q 1022 2413 1556 2484 
Q 1084 2569 832 2842 
Q 581 3116 581 3541 
Q 581 4103 968 4426 
Q 1356 4750 2034 4750 
Q 2713 4750 3100 4426 
Q 3488 4103 3488 3541 
Q 3488 3116 3236 2842 
Q 2984 2569 2516 2484 
z
" transform="scale(0.015625)"/>
       </defs>
       <use xlink:href="#DejaVuSerif-38"/>
      </g>
     </g>
    </g>
    <g id="xtick_6">
     <g id="line2d_6">
      <g>
       <use xlink:href="#m687916e370" x="357.332273" y="209.655" style="stroke: #000000; stroke-width: 0.8"/>
      </g>
     </g>
     <g id="text_6">
      <!-- 10 -->
      <g transform="translate(347.152273 228.8125)scale(0.16 -0.16)">
       <defs>
        <path id="DejaVuSerif-31" d="M 909 0 
L 909 331 
L 1722 331 
L 1722 4213 
L 781 3603 
L 781 4013 
L 1919 4750 
L 2350 4750 
L 2350 331 
L 3163 331 
L 3163 0 
L 909 0 
z
" transform="scale(0.015625)"/>
       </defs>
       <use xlink:href="#DejaVuSerif-31"/>
       <use xlink:href="#DejaVuSerif-30" x="63.623047"/>
      </g>
     </g>
    </g>
   </g>
   <g id="matplotlib.axis_2">
    <g id="ytick_1">
     <g id="line2d_7">
      <defs>
       <path id="m0ad7d9a08d" d="M 0 0 
L -3.5 0 
" style="stroke: #000000; stroke-width: 0.8"/>
      </defs>
      <g>
       <use xlink:href="#m0ad7d9a08d" x="79.76" y="195.51048" style="stroke: #000000; stroke-width: 0.8"/>
      </g>
     </g>
     <g id="text_7">
      <!-- 2 -->
      <g style="fill: #1f77b4" transform="translate(62.58 201.58923)scale(0.16 -0.16)">
       <use xlink:href="#DejaVuSerif-32"/>
      </g>
     </g>
    </g>
    <g id="ytick_2">
     <g id="line2d_8">
      <g>
       <use xlink:href="#m0ad7d9a08d" x="79.76" y="154.110134" style="stroke: #000000; stroke-width: 0.8"/>
      </g>
     </g>
     <g id="text_8">
      <!-- 3 -->
      <g style="fill: #1f77b4" transform="translate(62.58 160.188884)scale(0.16 -0.16)">
       <defs>
        <path id="DejaVuSerif-33" d="M 622 4469 
Q 988 4606 1323 4678 
Q 1659 4750 1953 4750 
Q 2638 4750 3022 4454 
Q 3406 4159 3406 3634 
Q 3406 3213 3140 2930 
Q 2875 2647 2388 2547 
Q 2963 2466 3280 2130 
Q 3597 1794 3597 1259 
Q 3597 606 3158 257 
Q 2719 -91 1894 -91 
Q 1528 -91 1179 -12 
Q 831 66 488 225 
L 488 1131 
L 838 1131 
Q 869 681 1141 450 
Q 1413 219 1906 219 
Q 2384 219 2661 495 
Q 2938 772 2938 1253 
Q 2938 1803 2653 2086 
Q 2369 2369 1819 2369 
L 1522 2369 
L 1522 2688 
L 1678 2688 
Q 2225 2688 2498 2914 
Q 2772 3141 2772 3597 
Q 2772 4006 2547 4223 
Q 2322 4441 1900 4441 
Q 1478 4441 1245 4241 
Q 1013 4041 972 3647 
L 622 3647 
L 622 4469 
z
" transform="scale(0.015625)"/>
       </defs>
       <use xlink:href="#DejaVuSerif-33"/>
      </g>
     </g>
    </g>
    <g id="ytick_3">
     <g id="line2d_9">
      <g>
       <use xlink:href="#m0ad7d9a08d" x="79.76" y="112.709789" style="stroke: #000000; stroke-width: 0.8"/>
      </g>
     </g>
     <g id="text_9">
      <!-- 4 -->
      <g style="fill: #1f77b4" transform="translate(62.58 118.788539)scale(0.16 -0.16)">
       <use xlink:href="#DejaVuSerif-34"/>
      </g>
     </g>
    </g>
    <g id="ytick_4">
     <g id="line2d_10">
      <g>
       <use xlink:href="#m0ad7d9a08d" x="79.76" y="71.309443" style="stroke: #000000; stroke-width: 0.8"/>
      </g>
     </g>
     <g id="text_10">
      <!-- 5 -->
      <g style="fill: #1f77b4" transform="translate(62.58 77.388193)scale(0.16 -0.16)">
       <defs>
        <path id="DejaVuSerif-35" d="M 3219 4666 
L 3219 4153 
L 1081 4153 
L 1081 2816 
Q 1244 2928 1461 2984 
Q 1678 3041 1947 3041 
Q 2703 3041 3140 2622 
Q 3578 2203 3578 1478 
Q 3578 738 3136 323 
Q 2694 -91 1894 -91 
Q 1572 -91 1234 -12 
Q 897 66 544 225 
L 544 1131 
L 897 1131 
Q 925 688 1179 453 
Q 1434 219 1894 219 
Q 2388 219 2653 544 
Q 2919 869 2919 1478 
Q 2919 2084 2655 2407 
Q 2391 2731 1894 2731 
Q 1613 2731 1398 2631 
Q 1184 2531 1019 2322 
L 750 2322 
L 750 4666 
L 3219 4666 
z
" transform="scale(0.015625)"/>
       </defs>
       <use xlink:href="#DejaVuSerif-35"/>
      </g>
     </g>
    </g>
    <g id="text_11">
     <!-- mean $\ell$ -->
     <g style="fill: #1f77b4" transform="translate(55.2525 150.6275)rotate(-90)scale(0.16 -0.16)">
      <defs>
       <path id="DejaVuSerif-6d" d="M 3316 2675 
Q 3481 3041 3739 3227 
Q 3997 3413 4341 3413 
Q 4863 3413 5119 3089 
Q 5375 2766 5375 2113 
L 5375 331 
L 5894 331 
L 5894 0 
L 4300 0 
L 4300 331 
L 4800 331 
L 4800 2047 
Q 4800 2556 4650 2772 
Q 4500 2988 4153 2988 
Q 3769 2988 3567 2697 
Q 3366 2406 3366 1850 
L 3366 331 
L 3866 331 
L 3866 0 
L 2291 0 
L 2291 331 
L 2791 331 
L 2791 2069 
Q 2791 2566 2641 2777 
Q 2491 2988 2144 2988 
Q 1759 2988 1557 2697 
Q 1356 2406 1356 1850 
L 1356 331 
L 1856 331 
L 1856 0 
L 263 0 
L 263 331 
L 781 331 
L 781 2994 
L 231 2994 
L 231 3322 
L 1356 3322 
L 1356 2731 
Q 1516 3063 1762 3238 
Q 2009 3413 2322 3413 
Q 2709 3413 2968 3220 
Q 3228 3028 3316 2675 
z
" transform="scale(0.015625)"/>
       <path id="DejaVuSerif-65" d="M 3469 1600 
L 991 1600 
L 991 1575 
Q 991 903 1244 561 
Q 1497 219 1991 219 
Q 2369 219 2611 417 
Q 2853 616 2950 1006 
L 3413 1006 
Q 3275 459 2904 184 
Q 2534 -91 1931 -91 
Q 1203 -91 761 389 
Q 319 869 319 1663 
Q 319 2450 753 2931 
Q 1188 3413 1894 3413 
Q 2647 3413 3050 2948 
Q 3453 2484 3469 1600 
z
M 2791 1931 
Q 2772 2513 2545 2808 
Q 2319 3103 1894 3103 
Q 1497 3103 1269 2806 
Q 1041 2509 991 1931 
L 2791 1931 
z
" transform="scale(0.015625)"/>
       <path id="DejaVuSerif-61" d="M 2547 1044 
L 2547 1747 
L 1806 1747 
Q 1378 1747 1168 1562 
Q 959 1378 959 997 
Q 959 650 1171 447 
Q 1384 244 1747 244 
Q 2106 244 2326 466 
Q 2547 688 2547 1044 
z
M 3122 2075 
L 3122 331 
L 3634 331 
L 3634 0 
L 2547 0 
L 2547 359 
Q 2356 128 2106 18 
Q 1856 -91 1522 -91 
Q 969 -91 644 203 
Q 319 497 319 997 
Q 319 1513 691 1797 
Q 1063 2081 1741 2081 
L 2547 2081 
L 2547 2309 
Q 2547 2688 2317 2895 
Q 2088 3103 1672 3103 
Q 1328 3103 1125 2947 
Q 922 2791 872 2484 
L 575 2484 
L 575 3156 
Q 875 3284 1158 3348 
Q 1441 3413 1709 3413 
Q 2400 3413 2761 3070 
Q 3122 2728 3122 2075 
z
" transform="scale(0.015625)"/>
       <path id="DejaVuSerif-6e" d="M 263 0 
L 263 331 
L 781 331 
L 781 2988 
L 231 2988 
L 231 3322 
L 1356 3322 
L 1356 2731 
Q 1516 3069 1770 3241 
Q 2025 3413 2363 3413 
Q 2913 3413 3172 3097 
Q 3431 2781 3431 2113 
L 3431 331 
L 3944 331 
L 3944 0 
L 2356 0 
L 2356 331 
L 2853 331 
L 2853 1931 
Q 2853 2541 2703 2767 
Q 2553 2994 2175 2994 
Q 1775 2994 1565 2701 
Q 1356 2409 1356 1850 
L 1356 331 
L 1856 331 
L 1856 0 
L 263 0 
z
" transform="scale(0.015625)"/>
       <path id="DejaVuSerif-20" transform="scale(0.015625)"/>
       <path id="Cmmi10-60" d="M 153 475 
Q 125 475 94 509 
Q 63 544 63 575 
Q 63 628 594 1113 
Q 594 1141 592 1159 
Q 591 1178 588 1197 
Q 588 1472 631 1758 
Q 675 2044 751 2328 
Q 828 2613 943 2922 
Q 1059 3231 1178 3463 
Q 1384 3884 1628 4198 
Q 1872 4513 2169 4513 
Q 2372 4513 2459 4373 
Q 2547 4234 2547 4025 
Q 2547 2853 991 1269 
Q 966 994 966 878 
Q 966 78 1331 78 
Q 1488 78 1642 161 
Q 1797 244 1908 341 
Q 2019 438 2216 628 
Q 2228 641 2253 641 
Q 2288 641 2319 603 
Q 2350 566 2350 531 
Q 2350 509 2322 488 
Q 2038 209 1809 56 
Q 1581 -97 1319 -97 
Q 981 -97 817 193 
Q 653 484 609 884 
Q 438 713 191 488 
Q 184 475 153 475 
z
M 1044 1575 
Q 1384 1938 1681 2338 
Q 1978 2738 2176 3180 
Q 2375 3622 2375 4044 
Q 2375 4347 2163 4347 
Q 1934 4347 1696 3801 
Q 1459 3256 1290 2622 
Q 1122 1988 1044 1575 
z
" transform="scale(0.015625)"/>
      </defs>
      <use xlink:href="#DejaVuSerif-6d" transform="translate(0 0.484375)"/>
      <use xlink:href="#DejaVuSerif-65" transform="translate(94.824219 0.484375)"/>
      <use xlink:href="#DejaVuSerif-61" transform="translate(154.003906 0.484375)"/>
      <use xlink:href="#DejaVuSerif-6e" transform="translate(213.623047 0.484375)"/>
      <use xlink:href="#DejaVuSerif-20" transform="translate(278.027344 0.484375)"/>
      <use xlink:href="#Cmmi10-60" transform="translate(309.814453 0.484375)"/>
     </g>
    </g>
   </g>
   <g id="line2d_11">
    <path d="M 92.977727 201.728864 
L 94.036204 201.633511 
L 95.094681 201.348134 
L 96.417776 200.727408 
L 97.740872 199.819864 
L 99.063968 198.635333 
L 100.651683 196.866124 
L 102.239398 194.742438 
L 104.091732 191.857219 
L 106.208686 188.087501 
L 108.590258 183.344997 
L 111.501069 176.998454 
L 115.470356 167.729504 
L 126.84898 140.807402 
L 130.818268 132.160852 
L 134.522936 124.644526 
L 137.962985 118.177636 
L 141.403034 112.208862 
L 144.578464 107.130848 
L 147.753894 102.44905 
L 150.929324 98.141032 
L 154.104754 94.181896 
L 157.544803 90.256605 
L 160.984853 86.677923 
L 164.424902 83.414526 
L 168.12957 80.218925 
L 171.834238 77.320807 
L 175.803526 74.510696 
L 179.772813 71.972394 
L 184.00672 69.530272 
L 188.505246 67.200208 
L 193.268391 64.993436 
L 198.296155 62.91701 
L 203.588538 60.974354 
L 209.41016 59.085066 
L 215.4964 57.346993 
L 222.11188 55.690942 
L 229.256597 54.13229 
L 237.195172 52.634072 
L 245.927604 51.22055 
L 255.453894 49.907346 
L 266.038661 48.674429 
L 277.946523 47.514439 
L 291.442101 46.428122 
L 306.790012 45.420458 
L 324.519496 44.485058 
L 345.159791 43.625021 
L 357.332273 43.206136 
L 357.332273 43.206136 
" clip-path="url(#p9c70aae9be)" style="fill: none; stroke-dasharray: 1.5,2.475; stroke-dashoffset: 0; stroke: #1f77b4; stroke-width: 1.5"/>
   </g>
   <g id="patch_3">
    <path d="M 79.76 209.655 
L 79.76 35.28 
" style="fill: none; stroke: #000000; stroke-width: 0.8; stroke-linejoin: miter; stroke-linecap: square"/>
   </g>
   <g id="patch_4">
    <path d="M 370.55 209.655 
L 370.55 35.28 
" style="fill: none; stroke: #000000; stroke-width: 0.8; stroke-linejoin: miter; stroke-linecap: square"/>
   </g>
   <g id="patch_5">
    <path d="M 79.76 209.655 
L 370.55 209.655 
" style="fill: none; stroke: #000000; stroke-width: 0.8; stroke-linejoin: miter; stroke-linecap: square"/>
   </g>
   <g id="patch_6">
    <path d="M 79.76 35.28 
L 370.55 35.28 
" style="fill: none; stroke: #000000; stroke-width: 0.8; stroke-linejoin: miter; stroke-linecap: square"/>
   </g>
   <g id="text_12">
    <!-- $D=1$ -->
    <g transform="translate(79.76 31.287)scale(0.192 -0.192)">
     <defs>
      <path id="Cmmi10-44" d="M 313 0 
Q 250 0 250 84 
Q 253 100 262 139 
Q 272 178 289 201 
Q 306 225 331 225 
Q 722 225 878 269 
Q 959 297 997 441 
L 1875 3956 
Q 1888 4019 1888 4044 
Q 1888 4113 1813 4122 
Q 1691 4147 1350 4147 
Q 1288 4147 1288 4231 
Q 1291 4247 1300 4286 
Q 1309 4325 1326 4348 
Q 1344 4372 1369 4372 
L 3669 4372 
Q 4116 4372 4450 4155 
Q 4784 3938 4962 3570 
Q 5141 3203 5141 2759 
Q 5141 2269 4937 1778 
Q 4734 1288 4368 881 
Q 4003 475 3534 237 
Q 3066 0 2572 0 
L 313 0 
z
M 1509 275 
Q 1509 225 1728 225 
L 2472 225 
Q 2828 225 3159 372 
Q 3491 519 3750 775 
Q 3991 1016 4175 1406 
Q 4359 1797 4461 2222 
Q 4563 2647 4563 3003 
Q 4563 3263 4486 3472 
Q 4409 3681 4270 3831 
Q 4131 3981 3922 4064 
Q 3713 4147 3450 4147 
L 2747 4147 
Q 2572 4147 2515 4117 
Q 2459 4088 2413 3928 
L 1538 416 
Q 1509 338 1509 275 
z
" transform="scale(0.015625)"/>
      <path id="Cmr10-3d" d="M 481 850 
Q 428 850 393 890 
Q 359 931 359 978 
Q 359 1031 393 1068 
Q 428 1106 481 1106 
L 4500 1106 
Q 4547 1106 4581 1068 
Q 4616 1031 4616 978 
Q 4616 931 4581 890 
Q 4547 850 4500 850 
L 481 850 
z
M 481 2094 
Q 428 2094 393 2131 
Q 359 2169 359 2222 
Q 359 2269 393 2309 
Q 428 2350 481 2350 
L 4500 2350 
Q 4547 2350 4581 2309 
Q 4616 2269 4616 2222 
Q 4616 2169 4581 2131 
Q 4547 2094 4500 2094 
L 481 2094 
z
" transform="scale(0.015625)"/>
      <path id="Cmr10-31" d="M 594 0 
L 594 225 
Q 1394 225 1394 428 
L 1394 3788 
Q 1063 3628 556 3628 
L 556 3853 
Q 1341 3853 1741 4263 
L 1831 4263 
Q 1853 4263 1873 4245 
Q 1894 4228 1894 4206 
L 1894 428 
Q 1894 225 2694 225 
L 2694 0 
L 594 0 
z
" transform="scale(0.015625)"/>
     </defs>
     <use xlink:href="#Cmmi10-44" transform="translate(0 0.6875)"/>
     <use xlink:href="#Cmr10-3d" transform="translate(100.273438 0.6875)"/>
     <use xlink:href="#Cmr10-31" transform="translate(195.517578 0.6875)"/>
    </g>
   </g>
  </g>
  <g id="axes_2">
   <g id="patch_7">
    <path d="M 473.11 209.655 
L 763.9 209.655 
L 763.9 35.28 
L 473.11 35.28 
z
" style="fill: #ffffff"/>
   </g>
   <g id="matplotlib.axis_3">
    <g id="xtick_7">
     <g id="line2d_12">
      <g>
       <use xlink:href="#m687916e370" x="486.327727" y="209.655" style="stroke: #000000; stroke-width: 0.8"/>
      </g>
     </g>
     <g id="text_13">
      <!-- 0 -->
      <g transform="translate(481.237727 228.8125)scale(0.16 -0.16)">
       <use xlink:href="#DejaVuSerif-30"/>
      </g>
     </g>
    </g>
    <g id="xtick_8">
     <g id="line2d_13">
      <g>
       <use xlink:href="#m687916e370" x="539.198636" y="209.655" style="stroke: #000000; stroke-width: 0.8"/>
      </g>
     </g>
     <g id="text_14">
      <!-- 1 -->
      <g transform="translate(534.108636 228.8125)scale(0.16 -0.16)">
       <use xlink:href="#DejaVuSerif-31"/>
      </g>
     </g>
    </g>
    <g id="xtick_9">
     <g id="line2d_14">
      <g>
       <use xlink:href="#m687916e370" x="592.069545" y="209.655" style="stroke: #000000; stroke-width: 0.8"/>
      </g>
     </g>
     <g id="text_15">
      <!-- 2 -->
      <g transform="translate(586.979545 228.8125)scale(0.16 -0.16)">
       <use xlink:href="#DejaVuSerif-32"/>
      </g>
     </g>
    </g>
    <g id="xtick_10">
     <g id="line2d_15">
      <g>
       <use xlink:href="#m687916e370" x="644.940455" y="209.655" style="stroke: #000000; stroke-width: 0.8"/>
      </g>
     </g>
     <g id="text_16">
      <!-- 3 -->
      <g transform="translate(639.850455 228.8125)scale(0.16 -0.16)">
       <use xlink:href="#DejaVuSerif-33"/>
      </g>
     </g>
    </g>
    <g id="xtick_11">
     <g id="line2d_16">
      <g>
       <use xlink:href="#m687916e370" x="697.811364" y="209.655" style="stroke: #000000; stroke-width: 0.8"/>
      </g>
     </g>
     <g id="text_17">
      <!-- 4 -->
      <g transform="translate(692.721364 228.8125)scale(0.16 -0.16)">
       <use xlink:href="#DejaVuSerif-34"/>
      </g>
     </g>
    </g>
    <g id="xtick_12">
     <g id="line2d_17">
      <g>
       <use xlink:href="#m687916e370" x="750.682273" y="209.655" style="stroke: #000000; stroke-width: 0.8"/>
      </g>
     </g>
     <g id="text_18">
      <!-- 5 -->
      <g transform="translate(745.592273 228.8125)scale(0.16 -0.16)">
       <use xlink:href="#DejaVuSerif-35"/>
      </g>
     </g>
    </g>
   </g>
   <g id="matplotlib.axis_4">
    <g id="ytick_5">
     <g id="line2d_18">
      <g>
       <use xlink:href="#m0ad7d9a08d" x="473.11" y="191.827989" style="stroke: #000000; stroke-width: 0.8"/>
      </g>
     </g>
     <g id="text_19">
      <!-- 1.4 -->
      <g style="fill: #1f77b4" transform="translate(440.665 197.906739)scale(0.16 -0.16)">
       <defs>
        <path id="DejaVuSerif-2e" d="M 603 325 
Q 603 500 722 622 
Q 841 744 1019 744 
Q 1191 744 1312 622 
Q 1434 500 1434 325 
Q 1434 153 1312 31 
Q 1191 -91 1019 -91 
Q 841 -91 722 29 
Q 603 150 603 325 
z
" transform="scale(0.015625)"/>
       </defs>
       <use xlink:href="#DejaVuSerif-31"/>
       <use xlink:href="#DejaVuSerif-2e" x="63.623047"/>
       <use xlink:href="#DejaVuSerif-34" x="95.410156"/>
      </g>
     </g>
    </g>
    <g id="ytick_6">
     <g id="line2d_19">
      <g>
       <use xlink:href="#m0ad7d9a08d" x="473.11" y="155.362995" style="stroke: #000000; stroke-width: 0.8"/>
      </g>
     </g>
     <g id="text_20">
      <!-- 1.6 -->
      <g style="fill: #1f77b4" transform="translate(440.665 161.441745)scale(0.16 -0.16)">
       <use xlink:href="#DejaVuSerif-31"/>
       <use xlink:href="#DejaVuSerif-2e" x="63.623047"/>
       <use xlink:href="#DejaVuSerif-36" x="95.410156"/>
      </g>
     </g>
    </g>
    <g id="ytick_7">
     <g id="line2d_20">
      <g>
       <use xlink:href="#m0ad7d9a08d" x="473.11" y="118.898001" style="stroke: #000000; stroke-width: 0.8"/>
      </g>
     </g>
     <g id="text_21">
      <!-- 1.8 -->
      <g style="fill: #1f77b4" transform="translate(440.665 124.976751)scale(0.16 -0.16)">
       <use xlink:href="#DejaVuSerif-31"/>
       <use xlink:href="#DejaVuSerif-2e" x="63.623047"/>
       <use xlink:href="#DejaVuSerif-38" x="95.410156"/>
      </g>
     </g>
    </g>
    <g id="ytick_8">
     <g id="line2d_21">
      <g>
       <use xlink:href="#m0ad7d9a08d" x="473.11" y="82.433007" style="stroke: #000000; stroke-width: 0.8"/>
      </g>
     </g>
     <g id="text_22">
      <!-- 2.0 -->
      <g style="fill: #1f77b4" transform="translate(440.665 88.511757)scale(0.16 -0.16)">
       <use xlink:href="#DejaVuSerif-32"/>
       <use xlink:href="#DejaVuSerif-2e" x="63.623047"/>
       <use xlink:href="#DejaVuSerif-30" x="95.410156"/>
      </g>
     </g>
    </g>
    <g id="ytick_9">
     <g id="line2d_22">
      <g>
       <use xlink:href="#m0ad7d9a08d" x="473.11" y="45.968013" style="stroke: #000000; stroke-width: 0.8"/>
      </g>
     </g>
     <g id="text_23">
      <!-- 2.2 -->
      <g style="fill: #1f77b4" transform="translate(440.665 52.046763)scale(0.16 -0.16)">
       <use xlink:href="#DejaVuSerif-32"/>
       <use xlink:href="#DejaVuSerif-2e" x="63.623047"/>
       <use xlink:href="#DejaVuSerif-32" x="95.410156"/>
      </g>
     </g>
    </g>
   </g>
   <g id="line2d_23">
    <path d="M 486.327727 201.728864 
L 487.915442 201.628586 
L 489.503157 201.328475 
L 491.355491 200.728725 
L 493.207826 199.865759 
L 495.06016 198.74781 
L 496.912494 197.385344 
L 499.029447 195.544903 
L 501.1464 193.422752 
L 503.527973 190.72813 
L 506.174165 187.395253 
L 509.084975 183.377283 
L 512.525025 178.24679 
L 516.758931 171.522627 
L 523.37441 160.540005 
L 533.165319 144.325932 
L 538.722322 135.582822 
L 543.485467 128.493539 
L 547.983993 122.186664 
L 552.217899 116.612804 
L 556.451806 111.393441 
L 560.685713 106.523254 
L 564.919619 101.990943 
L 569.153526 97.781235 
L 573.387432 93.876439 
L 577.885958 90.040476 
L 582.384484 86.504107 
L 586.88301 83.244378 
L 591.646155 80.06983 
L 596.4093 77.155701 
L 601.437064 74.336555 
L 606.729447 71.626909 
L 612.28645 69.037753 
L 618.108071 66.576786 
L 624.194312 64.248734 
L 630.545172 62.055708 
L 637.42527 59.919677 
L 644.569988 57.93267 
L 652.243943 56.026867 
L 660.447138 54.216091 
L 669.444189 52.461168 
L 679.235098 50.785281 
L 689.819865 49.20486 
L 701.463108 47.698443 
L 714.164828 46.284657 
L 728.189644 44.951616 
L 743.802174 43.695691 
L 750.682273 43.206136 
L 750.682273 43.206136 
" clip-path="url(#pc46b0b3971)" style="fill: none; stroke-dasharray: 1.5,2.475; stroke-dashoffset: 0; stroke: #1f77b4; stroke-width: 1.5"/>
   </g>
   <g id="patch_8">
    <path d="M 473.11 209.655 
L 473.11 35.28 
" style="fill: none; stroke: #000000; stroke-width: 0.8; stroke-linejoin: miter; stroke-linecap: square"/>
   </g>
   <g id="patch_9">
    <path d="M 763.9 209.655 
L 763.9 35.28 
" style="fill: none; stroke: #000000; stroke-width: 0.8; stroke-linejoin: miter; stroke-linecap: square"/>
   </g>
   <g id="patch_10">
    <path d="M 473.11 209.655 
L 763.9 209.655 
" style="fill: none; stroke: #000000; stroke-width: 0.8; stroke-linejoin: miter; stroke-linecap: square"/>
   </g>
   <g id="patch_11">
    <path d="M 473.11 35.28 
L 763.9 35.28 
" style="fill: none; stroke: #000000; stroke-width: 0.8; stroke-linejoin: miter; stroke-linecap: square"/>
   </g>
   <g id="text_24">
    <!-- $D=3$ -->
    <g transform="translate(473.11 31.287)scale(0.192 -0.192)">
     <defs>
      <path id="Cmr10-33" d="M 609 494 
Q 759 275 1012 169 
Q 1266 63 1556 63 
Q 1928 63 2084 380 
Q 2241 697 2241 1100 
Q 2241 1281 2208 1462 
Q 2175 1644 2097 1800 
Q 2019 1956 1883 2050 
Q 1747 2144 1550 2144 
L 1125 2144 
Q 1069 2144 1069 2203 
L 1069 2259 
Q 1069 2309 1125 2309 
L 1478 2338 
Q 1703 2338 1851 2506 
Q 2000 2675 2069 2917 
Q 2138 3159 2138 3378 
Q 2138 3684 1994 3881 
Q 1850 4078 1556 4078 
Q 1313 4078 1091 3986 
Q 869 3894 738 3706 
Q 750 3709 759 3711 
Q 769 3713 781 3713 
Q 925 3713 1022 3613 
Q 1119 3513 1119 3372 
Q 1119 3234 1022 3134 
Q 925 3034 781 3034 
Q 641 3034 541 3134 
Q 441 3234 441 3372 
Q 441 3647 606 3850 
Q 772 4053 1033 4158 
Q 1294 4263 1556 4263 
Q 1750 4263 1965 4205 
Q 2181 4147 2356 4039 
Q 2531 3931 2642 3762 
Q 2753 3594 2753 3378 
Q 2753 3109 2633 2881 
Q 2513 2653 2303 2487 
Q 2094 2322 1844 2241 
Q 2122 2188 2372 2031 
Q 2622 1875 2773 1631 
Q 2925 1388 2925 1106 
Q 2925 753 2731 467 
Q 2538 181 2222 20 
Q 1906 -141 1556 -141 
Q 1256 -141 954 -26 
Q 653 88 461 316 
Q 269 544 269 863 
Q 269 1022 375 1128 
Q 481 1234 641 1234 
Q 744 1234 830 1186 
Q 916 1138 964 1050 
Q 1013 963 1013 863 
Q 1013 706 903 600 
Q 794 494 641 494 
L 609 494 
z
" transform="scale(0.015625)"/>
     </defs>
     <use xlink:href="#Cmmi10-44" transform="translate(0 0.6875)"/>
     <use xlink:href="#Cmr10-3d" transform="translate(100.273438 0.6875)"/>
     <use xlink:href="#Cmr10-33" transform="translate(195.517578 0.6875)"/>
    </g>
   </g>
  </g>
  <g id="axes_3">
   <g id="patch_12">
    <path d="M 79.76 442.15 
L 370.55 442.15 
L 370.55 267.775 
L 79.76 267.775 
z
" style="fill: #ffffff"/>
   </g>
   <g id="matplotlib.axis_5">
    <g id="xtick_13">
     <g id="line2d_24">
      <g>
       <use xlink:href="#m687916e370" x="92.977727" y="442.15" style="stroke: #000000; stroke-width: 0.8"/>
      </g>
     </g>
     <g id="text_25">
      <!-- 0.0 -->
      <g transform="translate(80.255227 461.3075)scale(0.16 -0.16)">
       <use xlink:href="#DejaVuSerif-30"/>
       <use xlink:href="#DejaVuSerif-2e" x="63.623047"/>
       <use xlink:href="#DejaVuSerif-30" x="95.410156"/>
      </g>
     </g>
    </g>
    <g id="xtick_14">
     <g id="line2d_25">
      <g>
       <use xlink:href="#m687916e370" x="145.848636" y="442.15" style="stroke: #000000; stroke-width: 0.8"/>
      </g>
     </g>
     <g id="text_26">
      <!-- 0.2 -->
      <g transform="translate(133.126136 461.3075)scale(0.16 -0.16)">
       <use xlink:href="#DejaVuSerif-30"/>
       <use xlink:href="#DejaVuSerif-2e" x="63.623047"/>
       <use xlink:href="#DejaVuSerif-32" x="95.410156"/>
      </g>
     </g>
    </g>
    <g id="xtick_15">
     <g id="line2d_26">
      <g>
       <use xlink:href="#m687916e370" x="198.719545" y="442.15" style="stroke: #000000; stroke-width: 0.8"/>
      </g>
     </g>
     <g id="text_27">
      <!-- 0.4 -->
      <g transform="translate(185.997045 461.3075)scale(0.16 -0.16)">
       <use xlink:href="#DejaVuSerif-30"/>
       <use xlink:href="#DejaVuSerif-2e" x="63.623047"/>
       <use xlink:href="#DejaVuSerif-34" x="95.410156"/>
      </g>
     </g>
    </g>
    <g id="xtick_16">
     <g id="line2d_27">
      <g>
       <use xlink:href="#m687916e370" x="251.590455" y="442.15" style="stroke: #000000; stroke-width: 0.8"/>
      </g>
     </g>
     <g id="text_28">
      <!-- 0.6 -->
      <g transform="translate(238.867955 461.3075)scale(0.16 -0.16)">
       <use xlink:href="#DejaVuSerif-30"/>
       <use xlink:href="#DejaVuSerif-2e" x="63.623047"/>
       <use xlink:href="#DejaVuSerif-36" x="95.410156"/>
      </g>
     </g>
    </g>
    <g id="xtick_17">
     <g id="line2d_28">
      <g>
       <use xlink:href="#m687916e370" x="304.461364" y="442.15" style="stroke: #000000; stroke-width: 0.8"/>
      </g>
     </g>
     <g id="text_29">
      <!-- 0.8 -->
      <g transform="translate(291.738864 461.3075)scale(0.16 -0.16)">
       <use xlink:href="#DejaVuSerif-30"/>
       <use xlink:href="#DejaVuSerif-2e" x="63.623047"/>
       <use xlink:href="#DejaVuSerif-38" x="95.410156"/>
      </g>
     </g>
    </g>
    <g id="xtick_18">
     <g id="line2d_29">
      <g>
       <use xlink:href="#m687916e370" x="357.332273" y="442.15" style="stroke: #000000; stroke-width: 0.8"/>
      </g>
     </g>
     <g id="text_30">
      <!-- 1.0 -->
      <g transform="translate(344.609773 461.3075)scale(0.16 -0.16)">
       <use xlink:href="#DejaVuSerif-31"/>
       <use xlink:href="#DejaVuSerif-2e" x="63.623047"/>
       <use xlink:href="#DejaVuSerif-30" x="95.410156"/>
      </g>
     </g>
    </g>
    <g id="text_31">
     <!-- $\beta$ -->
     <g transform="translate(220.595 480.7925)scale(0.16 -0.16)">
      <defs>
       <path id="Cmmi10-af" d="M 172 -1241 
Q 153 -1241 137 -1219 
Q 122 -1197 122 -1178 
L 1106 2778 
Q 1191 3097 1353 3397 
Q 1516 3697 1761 3955 
Q 2006 4213 2300 4363 
Q 2594 4513 2925 4513 
Q 3163 4513 3355 4408 
Q 3547 4303 3658 4114 
Q 3769 3925 3769 3688 
Q 3769 3459 3681 3251 
Q 3594 3044 3437 2864 
Q 3281 2684 3103 2572 
Q 3206 2506 3287 2404 
Q 3369 2303 3419 2192 
Q 3469 2081 3497 1945 
Q 3525 1809 3525 1691 
Q 3525 1363 3384 1044 
Q 3244 725 3001 465 
Q 2759 206 2446 54 
Q 2134 -97 1806 -97 
Q 1447 -97 1159 100 
Q 872 297 763 634 
L 300 -1203 
Q 300 -1241 250 -1241 
L 172 -1241 
z
M 1819 78 
Q 2106 78 2339 267 
Q 2572 456 2723 742 
Q 2875 1028 2954 1348 
Q 3034 1669 3034 1931 
Q 3034 2256 2847 2444 
Q 2628 2363 2419 2363 
Q 1913 2363 1913 2534 
Q 1913 2759 2491 2759 
Q 2697 2759 2869 2694 
Q 3006 2800 3118 3006 
Q 3231 3213 3289 3438 
Q 3347 3663 3347 3859 
Q 3347 4069 3236 4208 
Q 3125 4347 2913 4347 
Q 2522 4347 2186 4106 
Q 1850 3866 1619 3498 
Q 1388 3131 1288 2741 
L 934 1325 
Q 900 1178 891 997 
Q 891 597 1153 337 
Q 1416 78 1819 78 
z
M 2106 2553 
Q 2203 2528 2425 2528 
Q 2534 2528 2644 2566 
Q 2638 2572 2619 2572 
Q 2550 2591 2472 2591 
Q 2181 2591 2106 2553 
z
" transform="scale(0.015625)"/>
      </defs>
      <use xlink:href="#Cmmi10-af" transform="translate(0 0.484375)"/>
     </g>
    </g>
   </g>
   <g id="matplotlib.axis_6">
    <g id="ytick_10">
     <g id="line2d_30">
      <g>
       <use xlink:href="#m0ad7d9a08d" x="79.76" y="412.068112" style="stroke: #000000; stroke-width: 0.8"/>
      </g>
     </g>
     <g id="text_32">
      <!-- 1.15 -->
      <g style="fill: #1f77b4" transform="translate(37.135 418.146862)scale(0.16 -0.16)">
       <use xlink:href="#DejaVuSerif-31"/>
       <use xlink:href="#DejaVuSerif-2e" x="63.623047"/>
       <use xlink:href="#DejaVuSerif-31" x="95.410156"/>
       <use xlink:href="#DejaVuSerif-35" x="159.033203"/>
      </g>
     </g>
    </g>
    <g id="ytick_11">
     <g id="line2d_31">
      <g>
       <use xlink:href="#m0ad7d9a08d" x="79.76" y="371.301595" style="stroke: #000000; stroke-width: 0.8"/>
      </g>
     </g>
     <g id="text_33">
      <!-- 1.20 -->
      <g style="fill: #1f77b4" transform="translate(37.135 377.380345)scale(0.16 -0.16)">
       <use xlink:href="#DejaVuSerif-31"/>
       <use xlink:href="#DejaVuSerif-2e" x="63.623047"/>
       <use xlink:href="#DejaVuSerif-32" x="95.410156"/>
       <use xlink:href="#DejaVuSerif-30" x="159.033203"/>
      </g>
     </g>
    </g>
    <g id="ytick_12">
     <g id="line2d_32">
      <g>
       <use xlink:href="#m0ad7d9a08d" x="79.76" y="330.535079" style="stroke: #000000; stroke-width: 0.8"/>
      </g>
     </g>
     <g id="text_34">
      <!-- 1.25 -->
      <g style="fill: #1f77b4" transform="translate(37.135 336.613829)scale(0.16 -0.16)">
       <use xlink:href="#DejaVuSerif-31"/>
       <use xlink:href="#DejaVuSerif-2e" x="63.623047"/>
       <use xlink:href="#DejaVuSerif-32" x="95.410156"/>
       <use xlink:href="#DejaVuSerif-35" x="159.033203"/>
      </g>
     </g>
    </g>
    <g id="ytick_13">
     <g id="line2d_33">
      <g>
       <use xlink:href="#m0ad7d9a08d" x="79.76" y="289.768562" style="stroke: #000000; stroke-width: 0.8"/>
      </g>
     </g>
     <g id="text_35">
      <!-- 1.30 -->
      <g style="fill: #1f77b4" transform="translate(37.135 295.847312)scale(0.16 -0.16)">
       <use xlink:href="#DejaVuSerif-31"/>
       <use xlink:href="#DejaVuSerif-2e" x="63.623047"/>
       <use xlink:href="#DejaVuSerif-33" x="95.410156"/>
       <use xlink:href="#DejaVuSerif-30" x="159.033203"/>
      </g>
     </g>
    </g>
    <g id="text_36">
     <!-- mean $\ell$ -->
     <g style="fill: #1f77b4" transform="translate(29.8075 383.1225)rotate(-90)scale(0.16 -0.16)">
      <use xlink:href="#DejaVuSerif-6d" transform="translate(0 0.484375)"/>
      <use xlink:href="#DejaVuSerif-65" transform="translate(94.824219 0.484375)"/>
      <use xlink:href="#DejaVuSerif-61" transform="translate(154.003906 0.484375)"/>
      <use xlink:href="#DejaVuSerif-6e" transform="translate(213.623047 0.484375)"/>
      <use xlink:href="#DejaVuSerif-20" transform="translate(278.027344 0.484375)"/>
      <use xlink:href="#Cmmi10-60" transform="translate(309.814453 0.484375)"/>
     </g>
    </g>
   </g>
   <g id="line2d_34">
    <path d="M 92.977727 434.223864 
L 98.270111 434.110372 
L 103.562494 433.770326 
L 108.854877 433.205011 
L 114.14726 432.416556 
L 119.439644 431.407913 
L 124.996646 430.115971 
L 130.553649 428.59065 
L 136.110651 426.838063 
L 141.932273 424.765817 
L 147.753894 422.460588 
L 153.840135 419.811942 
L 160.190995 416.800709 
L 166.806474 413.410519 
L 173.686572 409.628335 
L 180.83129 405.444954 
L 188.505246 400.687116 
L 196.70844 395.329711 
L 205.440872 389.356835 
L 214.967162 382.571548 
L 225.816548 374.56657 
L 238.782887 364.711471 
L 256.247752 351.135909 
L 297.263722 319.162275 
L 312.876253 307.335723 
L 326.63645 297.188796 
L 339.33817 288.092726 
L 351.510651 279.643946 
L 357.332273 275.701136 
L 357.332273 275.701136 
" clip-path="url(#pa8c0e0be3a)" style="fill: none; stroke-dasharray: 1.5,2.475; stroke-dashoffset: 0; stroke: #1f77b4; stroke-width: 1.5"/>
   </g>
   <g id="patch_13">
    <path d="M 79.76 442.15 
L 79.76 267.775 
" style="fill: none; stroke: #000000; stroke-width: 0.8; stroke-linejoin: miter; stroke-linecap: square"/>
   </g>
   <g id="patch_14">
    <path d="M 370.55 442.15 
L 370.55 267.775 
" style="fill: none; stroke: #000000; stroke-width: 0.8; stroke-linejoin: miter; stroke-linecap: square"/>
   </g>
   <g id="patch_15">
    <path d="M 79.76 442.15 
L 370.55 442.15 
" style="fill: none; stroke: #000000; stroke-width: 0.8; stroke-linejoin: miter; stroke-linecap: square"/>
   </g>
   <g id="patch_16">
    <path d="M 79.76 267.775 
L 370.55 267.775 
" style="fill: none; stroke: #000000; stroke-width: 0.8; stroke-linejoin: miter; stroke-linecap: square"/>
   </g>
   <g id="text_37">
    <!-- $D=5$ -->
    <g transform="translate(79.76 263.782)scale(0.192 -0.192)">
     <defs>
      <path id="Cmr10-35" d="M 556 728 
Q 622 541 758 387 
Q 894 234 1080 148 
Q 1266 63 1466 63 
Q 1928 63 2103 422 
Q 2278 781 2278 1294 
Q 2278 1516 2270 1667 
Q 2263 1819 2228 1959 
Q 2169 2184 2020 2353 
Q 1872 2522 1656 2522 
Q 1441 2522 1286 2456 
Q 1131 2391 1034 2303 
Q 938 2216 863 2119 
Q 788 2022 769 2016 
L 697 2016 
Q 681 2016 657 2036 
Q 634 2056 634 2075 
L 634 4213 
Q 634 4228 654 4245 
Q 675 4263 697 4263 
L 716 4263 
Q 1147 4056 1631 4056 
Q 2106 4056 2547 4263 
L 2566 4263 
Q 2588 4263 2606 4247 
Q 2625 4231 2625 4213 
L 2625 4153 
Q 2625 4122 2613 4122 
Q 2394 3831 2064 3668 
Q 1734 3506 1381 3506 
Q 1125 3506 856 3578 
L 856 2369 
Q 1069 2541 1236 2614 
Q 1403 2688 1663 2688 
Q 2016 2688 2295 2484 
Q 2575 2281 2725 1954 
Q 2875 1628 2875 1288 
Q 2875 903 2686 575 
Q 2497 247 2172 53 
Q 1847 -141 1466 -141 
Q 1150 -141 886 21 
Q 622 184 470 459 
Q 319 734 319 1044 
Q 319 1188 412 1278 
Q 506 1369 647 1369 
Q 788 1369 883 1276 
Q 978 1184 978 1044 
Q 978 906 883 811 
Q 788 716 647 716 
Q 625 716 597 720 
Q 569 725 556 728 
z
" transform="scale(0.015625)"/>
     </defs>
     <use xlink:href="#Cmmi10-44" transform="translate(0 0.6875)"/>
     <use xlink:href="#Cmr10-3d" transform="translate(100.273438 0.6875)"/>
     <use xlink:href="#Cmr10-35" transform="translate(195.517578 0.6875)"/>
    </g>
   </g>
  </g>
  <g id="axes_4">
   <g id="patch_17">
    <path d="M 473.11 442.15 
L 763.9 442.15 
L 763.9 267.775 
L 473.11 267.775 
z
" style="fill: #ffffff"/>
   </g>
   <g id="matplotlib.axis_7">
    <g id="xtick_19">
     <g id="line2d_35">
      <g>
       <use xlink:href="#m687916e370" x="486.327727" y="442.15" style="stroke: #000000; stroke-width: 0.8"/>
      </g>
     </g>
     <g id="text_38">
      <!-- 0.0 -->
      <g transform="translate(473.605227 461.3075)scale(0.16 -0.16)">
       <use xlink:href="#DejaVuSerif-30"/>
       <use xlink:href="#DejaVuSerif-2e" x="63.623047"/>
       <use xlink:href="#DejaVuSerif-30" x="95.410156"/>
      </g>
     </g>
    </g>
    <g id="xtick_20">
     <g id="line2d_36">
      <g>
       <use xlink:href="#m687916e370" x="539.198636" y="442.15" style="stroke: #000000; stroke-width: 0.8"/>
      </g>
     </g>
     <g id="text_39">
      <!-- 0.1 -->
      <g transform="translate(526.476136 461.3075)scale(0.16 -0.16)">
       <use xlink:href="#DejaVuSerif-30"/>
       <use xlink:href="#DejaVuSerif-2e" x="63.623047"/>
       <use xlink:href="#DejaVuSerif-31" x="95.410156"/>
      </g>
     </g>
    </g>
    <g id="xtick_21">
     <g id="line2d_37">
      <g>
       <use xlink:href="#m687916e370" x="592.069545" y="442.15" style="stroke: #000000; stroke-width: 0.8"/>
      </g>
     </g>
     <g id="text_40">
      <!-- 0.2 -->
      <g transform="translate(579.347045 461.3075)scale(0.16 -0.16)">
       <use xlink:href="#DejaVuSerif-30"/>
       <use xlink:href="#DejaVuSerif-2e" x="63.623047"/>
       <use xlink:href="#DejaVuSerif-32" x="95.410156"/>
      </g>
     </g>
    </g>
    <g id="xtick_22">
     <g id="line2d_38">
      <g>
       <use xlink:href="#m687916e370" x="644.940455" y="442.15" style="stroke: #000000; stroke-width: 0.8"/>
      </g>
     </g>
     <g id="text_41">
      <!-- 0.3 -->
      <g transform="translate(632.217955 461.3075)scale(0.16 -0.16)">
       <use xlink:href="#DejaVuSerif-30"/>
       <use xlink:href="#DejaVuSerif-2e" x="63.623047"/>
       <use xlink:href="#DejaVuSerif-33" x="95.410156"/>
      </g>
     </g>
    </g>
    <g id="xtick_23">
     <g id="line2d_39">
      <g>
       <use xlink:href="#m687916e370" x="697.811364" y="442.15" style="stroke: #000000; stroke-width: 0.8"/>
      </g>
     </g>
     <g id="text_42">
      <!-- 0.4 -->
      <g transform="translate(685.088864 461.3075)scale(0.16 -0.16)">
       <use xlink:href="#DejaVuSerif-30"/>
       <use xlink:href="#DejaVuSerif-2e" x="63.623047"/>
       <use xlink:href="#DejaVuSerif-34" x="95.410156"/>
      </g>
     </g>
    </g>
    <g id="xtick_24">
     <g id="line2d_40">
      <g>
       <use xlink:href="#m687916e370" x="750.682273" y="442.15" style="stroke: #000000; stroke-width: 0.8"/>
      </g>
     </g>
     <g id="text_43">
      <!-- 0.5 -->
      <g transform="translate(737.959773 461.3075)scale(0.16 -0.16)">
       <use xlink:href="#DejaVuSerif-30"/>
       <use xlink:href="#DejaVuSerif-2e" x="63.623047"/>
       <use xlink:href="#DejaVuSerif-35" x="95.410156"/>
      </g>
     </g>
    </g>
    <g id="text_44">
     <!-- $\beta$ -->
     <g transform="translate(613.945 480.7925)scale(0.16 -0.16)">
      <use xlink:href="#Cmmi10-af" transform="translate(0 0.484375)"/>
     </g>
    </g>
   </g>
   <g id="matplotlib.axis_8">
    <g id="ytick_14">
     <g id="line2d_41">
      <g>
       <use xlink:href="#m0ad7d9a08d" x="473.11" y="412.561378" style="stroke: #000000; stroke-width: 0.8"/>
      </g>
     </g>
     <g id="text_45">
      <!-- 1.06 -->
      <g style="fill: #1f77b4" transform="translate(430.485 418.640128)scale(0.16 -0.16)">
       <use xlink:href="#DejaVuSerif-31"/>
       <use xlink:href="#DejaVuSerif-2e" x="63.623047"/>
       <use xlink:href="#DejaVuSerif-30" x="95.410156"/>
       <use xlink:href="#DejaVuSerif-36" x="159.033203"/>
      </g>
     </g>
    </g>
    <g id="ytick_15">
     <g id="line2d_42">
      <g>
       <use xlink:href="#m0ad7d9a08d" x="473.11" y="357.471471" style="stroke: #000000; stroke-width: 0.8"/>
      </g>
     </g>
     <g id="text_46">
      <!-- 1.08 -->
      <g style="fill: #1f77b4" transform="translate(430.485 363.550221)scale(0.16 -0.16)">
       <use xlink:href="#DejaVuSerif-31"/>
       <use xlink:href="#DejaVuSerif-2e" x="63.623047"/>
       <use xlink:href="#DejaVuSerif-30" x="95.410156"/>
       <use xlink:href="#DejaVuSerif-38" x="159.033203"/>
      </g>
     </g>
    </g>
    <g id="ytick_16">
     <g id="line2d_43">
      <g>
       <use xlink:href="#m0ad7d9a08d" x="473.11" y="302.381564" style="stroke: #000000; stroke-width: 0.8"/>
      </g>
     </g>
     <g id="text_47">
      <!-- 1.10 -->
      <g style="fill: #1f77b4" transform="translate(430.485 308.460314)scale(0.16 -0.16)">
       <use xlink:href="#DejaVuSerif-31"/>
       <use xlink:href="#DejaVuSerif-2e" x="63.623047"/>
       <use xlink:href="#DejaVuSerif-31" x="95.410156"/>
       <use xlink:href="#DejaVuSerif-30" x="159.033203"/>
      </g>
     </g>
    </g>
   </g>
   <g id="line2d_44">
    <path d="M 486.327727 434.223864 
L 492.678587 434.113524 
L 499.029447 433.782664 
L 505.380307 433.231756 
L 511.731167 432.461583 
L 518.082027 431.473242 
L 524.697506 430.21324 
L 531.312985 428.719964 
L 537.928464 426.995691 
L 544.543943 425.04304 
L 551.159423 422.864955 
L 558.039521 420.364118 
L 564.919619 417.627004 
L 572.064337 414.539215 
L 579.209054 411.206589 
L 586.618391 407.497927 
L 594.027727 403.538628 
L 601.701683 399.181164 
L 609.375639 394.57048 
L 617.314214 389.543366 
L 625.517408 384.083862 
L 633.985221 378.17754 
L 642.717654 371.811718 
L 651.714705 364.975685 
L 660.976376 357.660905 
L 670.767285 349.640731 
L 680.822813 341.11748 
L 691.40758 331.856464 
L 702.786204 321.599196 
L 714.694066 310.563979 
L 727.660405 298.239375 
L 741.685221 284.597605 
L 750.682273 275.701136 
L 750.682273 275.701136 
" clip-path="url(#p7584aa55d0)" style="fill: none; stroke-dasharray: 1.5,2.475; stroke-dashoffset: 0; stroke: #1f77b4; stroke-width: 1.5"/>
   </g>
   <g id="patch_18">
    <path d="M 473.11 442.15 
L 473.11 267.775 
" style="fill: none; stroke: #000000; stroke-width: 0.8; stroke-linejoin: miter; stroke-linecap: square"/>
   </g>
   <g id="patch_19">
    <path d="M 763.9 442.15 
L 763.9 267.775 
" style="fill: none; stroke: #000000; stroke-width: 0.8; stroke-linejoin: miter; stroke-linecap: square"/>
   </g>
   <g id="patch_20">
    <path d="M 473.11 442.15 
L 763.9 442.15 
" style="fill: none; stroke: #000000; stroke-width: 0.8; stroke-linejoin: miter; stroke-linecap: square"/>
   </g>
   <g id="patch_21">
    <path d="M 473.11 267.775 
L 763.9 267.775 
" style="fill: none; stroke: #000000; stroke-width: 0.8; stroke-linejoin: miter; stroke-linecap: square"/>
   </g>
   <g id="text_48">
    <!-- $D=6$ -->
    <g transform="translate(473.11 263.782)scale(0.192 -0.192)">
     <defs>
      <path id="Cmr10-36" d="M 1600 -141 
Q 1203 -141 937 70 
Q 672 281 526 617 
Q 381 953 325 1322 
Q 269 1691 269 2069 
Q 269 2575 466 3084 
Q 663 3594 1045 3928 
Q 1428 4263 1953 4263 
Q 2172 4263 2361 4180 
Q 2550 4097 2658 3936 
Q 2766 3775 2766 3547 
Q 2766 3416 2677 3327 
Q 2588 3238 2456 3238 
Q 2331 3238 2240 3328 
Q 2150 3419 2150 3547 
Q 2150 3672 2240 3762 
Q 2331 3853 2456 3853 
L 2491 3853 
Q 2409 3969 2261 4023 
Q 2113 4078 1953 4078 
Q 1759 4078 1595 3993 
Q 1431 3909 1300 3765 
Q 1169 3622 1081 3448 
Q 994 3275 945 3053 
Q 897 2831 884 2637 
Q 872 2444 872 2150 
Q 984 2413 1190 2580 
Q 1397 2747 1656 2747 
Q 1941 2747 2175 2631 
Q 2409 2516 2578 2311 
Q 2747 2106 2836 1843 
Q 2925 1581 2925 1313 
Q 2925 938 2758 598 
Q 2591 259 2287 59 
Q 1984 -141 1600 -141 
z
M 1600 63 
Q 1847 63 1997 175 
Q 2147 288 2217 473 
Q 2288 659 2305 848 
Q 2322 1038 2322 1313 
Q 2322 1675 2287 1931 
Q 2253 2188 2100 2383 
Q 1947 2578 1631 2578 
Q 1372 2578 1205 2403 
Q 1038 2228 961 1961 
Q 884 1694 884 1447 
Q 884 1363 891 1319 
Q 891 1309 889 1303 
Q 888 1297 884 1288 
Q 884 1013 940 731 
Q 997 450 1156 256 
Q 1316 63 1600 63 
z
" transform="scale(0.015625)"/>
     </defs>
     <use xlink:href="#Cmmi10-44" transform="translate(0 0.6875)"/>
     <use xlink:href="#Cmr10-3d" transform="translate(100.273438 0.6875)"/>
     <use xlink:href="#Cmr10-36" transform="translate(195.517578 0.6875)"/>
    </g>
   </g>
  </g>
  <g id="axes_5">
   <g id="matplotlib.axis_9">
    <g id="ytick_17">
     <g id="line2d_45">
      <defs>
       <path id="m27c478b754" d="M 0 0 
L 3.5 0 
" style="stroke: #000000; stroke-width: 0.8"/>
      </defs>
      <g>
       <use xlink:href="#m27c478b754" x="370.55" y="203.775337" style="stroke: #000000; stroke-width: 0.8"/>
      </g>
     </g>
     <g id="text_49">
      <!-- 0.001 -->
      <g style="fill: #ff7f0e" transform="translate(377.55 209.854087)scale(0.16 -0.16)">
       <use xlink:href="#DejaVuSerif-30"/>
       <use xlink:href="#DejaVuSerif-2e" x="63.623047"/>
       <use xlink:href="#DejaVuSerif-30" x="95.410156"/>
       <use xlink:href="#DejaVuSerif-30" x="159.033203"/>
       <use xlink:href="#DejaVuSerif-31" x="222.65625"/>
      </g>
     </g>
    </g>
    <g id="ytick_18">
     <g id="line2d_46">
      <g>
       <use xlink:href="#m27c478b754" x="370.55" y="165.593222" style="stroke: #000000; stroke-width: 0.8"/>
      </g>
     </g>
     <g id="text_50">
      <!-- 0.002 -->
      <g style="fill: #ff7f0e" transform="translate(377.55 171.671972)scale(0.16 -0.16)">
       <use xlink:href="#DejaVuSerif-30"/>
       <use xlink:href="#DejaVuSerif-2e" x="63.623047"/>
       <use xlink:href="#DejaVuSerif-30" x="95.410156"/>
       <use xlink:href="#DejaVuSerif-30" x="159.033203"/>
       <use xlink:href="#DejaVuSerif-32" x="222.65625"/>
      </g>
     </g>
    </g>
    <g id="ytick_19">
     <g id="line2d_47">
      <g>
       <use xlink:href="#m27c478b754" x="370.55" y="127.411108" style="stroke: #000000; stroke-width: 0.8"/>
      </g>
     </g>
     <g id="text_51">
      <!-- 0.003 -->
      <g style="fill: #ff7f0e" transform="translate(377.55 133.489858)scale(0.16 -0.16)">
       <use xlink:href="#DejaVuSerif-30"/>
       <use xlink:href="#DejaVuSerif-2e" x="63.623047"/>
       <use xlink:href="#DejaVuSerif-30" x="95.410156"/>
       <use xlink:href="#DejaVuSerif-30" x="159.033203"/>
       <use xlink:href="#DejaVuSerif-33" x="222.65625"/>
      </g>
     </g>
    </g>
    <g id="ytick_20">
     <g id="line2d_48">
      <g>
       <use xlink:href="#m27c478b754" x="370.55" y="89.228993" style="stroke: #000000; stroke-width: 0.8"/>
      </g>
     </g>
     <g id="text_52">
      <!-- 0.004 -->
      <g style="fill: #ff7f0e" transform="translate(377.55 95.307743)scale(0.16 -0.16)">
       <use xlink:href="#DejaVuSerif-30"/>
       <use xlink:href="#DejaVuSerif-2e" x="63.623047"/>
       <use xlink:href="#DejaVuSerif-30" x="95.410156"/>
       <use xlink:href="#DejaVuSerif-30" x="159.033203"/>
       <use xlink:href="#DejaVuSerif-34" x="222.65625"/>
      </g>
     </g>
    </g>
    <g id="ytick_21">
     <g id="line2d_49">
      <g>
       <use xlink:href="#m27c478b754" x="370.55" y="51.046878" style="stroke: #000000; stroke-width: 0.8"/>
      </g>
     </g>
     <g id="text_53">
      <!-- 0.005 -->
      <g style="fill: #ff7f0e" transform="translate(377.55 57.125628)scale(0.16 -0.16)">
       <use xlink:href="#DejaVuSerif-30"/>
       <use xlink:href="#DejaVuSerif-2e" x="63.623047"/>
       <use xlink:href="#DejaVuSerif-30" x="95.410156"/>
       <use xlink:href="#DejaVuSerif-30" x="159.033203"/>
       <use xlink:href="#DejaVuSerif-35" x="222.65625"/>
      </g>
     </g>
    </g>
   </g>
   <g id="line2d_50">
    <path d="M 92.977727 67.135437 
L 94.036204 67.03213 
L 95.094681 66.723976 
L 96.153157 66.21625 
L 97.476253 65.314552 
L 98.799349 64.139194 
L 100.387064 62.412881 
L 102.239398 60.050241 
L 104.88559 56.268499 
L 109.119496 50.1722 
L 111.23645 47.545709 
L 112.824165 45.908937 
L 114.14726 44.811451 
L 115.470356 43.984843 
L 116.793452 43.448688 
L 117.851929 43.237659 
L 118.910405 43.224249 
L 119.968882 43.409386 
L 121.027359 43.791653 
L 122.350455 44.541141 
L 123.67355 45.582058 
L 124.996646 46.899692 
L 126.584361 48.821023 
L 128.172076 51.080499 
L 130.02441 54.093644 
L 132.141364 57.95854 
L 134.787555 63.287176 
L 138.227604 70.781429 
L 144.578464 85.32041 
L 150.400086 98.429337 
L 154.633993 107.428006 
L 158.338661 114.809279 
L 162.043329 121.687351 
L 165.483378 127.613644 
L 168.923428 133.103053 
L 172.363477 138.171868 
L 175.803526 142.842321 
L 179.243575 147.139907 
L 182.683624 151.091496 
L 186.123673 154.724058 
L 189.828342 158.309314 
L 193.53301 161.586053 
L 197.502297 164.78735 
L 201.471585 167.700394 
L 205.705491 170.52323 
L 209.939398 173.083972 
L 214.437924 175.549542 
L 219.201069 177.906418 
L 224.228833 180.145033 
L 229.521216 182.259358 
L 235.078219 184.24644 
L 241.164459 186.185529 
L 247.779939 188.051316 
L 254.924656 189.825071 
L 262.598612 191.494091 
L 270.801806 193.050909 
L 279.798857 194.53302 
L 289.854386 195.958889 
L 300.968391 197.303446 
L 313.405491 198.575668 
L 327.165688 199.755239 
L 342.778219 200.86557 
L 357.332273 201.728864 
L 357.332273 201.728864 
" clip-path="url(#p9c70aae9be)" style="fill: none; stroke: #ff7f0e; stroke-width: 1.5; stroke-linecap: square"/>
   </g>
   <g id="patch_22">
    <path d="M 79.76 209.655 
L 79.76 35.28 
" style="fill: none; stroke: #000000; stroke-width: 0.8; stroke-linejoin: miter; stroke-linecap: square"/>
   </g>
   <g id="patch_23">
    <path d="M 370.55 209.655 
L 370.55 35.28 
" style="fill: none; stroke: #000000; stroke-width: 0.8; stroke-linejoin: miter; stroke-linecap: square"/>
   </g>
   <g id="patch_24">
    <path d="M 79.76 209.655 
L 370.55 209.655 
" style="fill: none; stroke: #000000; stroke-width: 0.8; stroke-linejoin: miter; stroke-linecap: square"/>
   </g>
   <g id="patch_25">
    <path d="M 79.76 35.28 
L 370.55 35.28 
" style="fill: none; stroke: #000000; stroke-width: 0.8; stroke-linejoin: miter; stroke-linecap: square"/>
   </g>
  </g>
  <g id="axes_6">
   <g id="matplotlib.axis_10">
    <g id="ytick_22">
     <g id="line2d_51">
      <g>
       <use xlink:href="#m27c478b754" x="763.9" y="201.736457" style="stroke: #000000; stroke-width: 0.8"/>
      </g>
     </g>
     <g id="text_54">
      <!-- 0.0000 -->
      <g style="fill: #ff7f0e" transform="translate(770.9 207.815207)scale(0.16 -0.16)">
       <use xlink:href="#DejaVuSerif-30"/>
       <use xlink:href="#DejaVuSerif-2e" x="63.623047"/>
       <use xlink:href="#DejaVuSerif-30" x="95.410156"/>
       <use xlink:href="#DejaVuSerif-30" x="159.033203"/>
       <use xlink:href="#DejaVuSerif-30" x="222.65625"/>
       <use xlink:href="#DejaVuSerif-30" x="286.279297"/>
      </g>
     </g>
    </g>
    <g id="ytick_23">
     <g id="line2d_52">
      <g>
       <use xlink:href="#m27c478b754" x="763.9" y="155.98063" style="stroke: #000000; stroke-width: 0.8"/>
      </g>
     </g>
     <g id="text_55">
      <!-- 0.0001 -->
      <g style="fill: #ff7f0e" transform="translate(770.9 162.05938)scale(0.16 -0.16)">
       <use xlink:href="#DejaVuSerif-30"/>
       <use xlink:href="#DejaVuSerif-2e" x="63.623047"/>
       <use xlink:href="#DejaVuSerif-30" x="95.410156"/>
       <use xlink:href="#DejaVuSerif-30" x="159.033203"/>
       <use xlink:href="#DejaVuSerif-30" x="222.65625"/>
       <use xlink:href="#DejaVuSerif-31" x="286.279297"/>
      </g>
     </g>
    </g>
    <g id="ytick_24">
     <g id="line2d_53">
      <g>
       <use xlink:href="#m27c478b754" x="763.9" y="110.224802" style="stroke: #000000; stroke-width: 0.8"/>
      </g>
     </g>
     <g id="text_56">
      <!-- 0.0002 -->
      <g style="fill: #ff7f0e" transform="translate(770.9 116.303552)scale(0.16 -0.16)">
       <use xlink:href="#DejaVuSerif-30"/>
       <use xlink:href="#DejaVuSerif-2e" x="63.623047"/>
       <use xlink:href="#DejaVuSerif-30" x="95.410156"/>
       <use xlink:href="#DejaVuSerif-30" x="159.033203"/>
       <use xlink:href="#DejaVuSerif-30" x="222.65625"/>
       <use xlink:href="#DejaVuSerif-32" x="286.279297"/>
      </g>
     </g>
    </g>
    <g id="ytick_25">
     <g id="line2d_54">
      <g>
       <use xlink:href="#m27c478b754" x="763.9" y="64.468975" style="stroke: #000000; stroke-width: 0.8"/>
      </g>
     </g>
     <g id="text_57">
      <!-- 0.0003 -->
      <g style="fill: #ff7f0e" transform="translate(770.9 70.547725)scale(0.16 -0.16)">
       <use xlink:href="#DejaVuSerif-30"/>
       <use xlink:href="#DejaVuSerif-2e" x="63.623047"/>
       <use xlink:href="#DejaVuSerif-30" x="95.410156"/>
       <use xlink:href="#DejaVuSerif-30" x="159.033203"/>
       <use xlink:href="#DejaVuSerif-30" x="222.65625"/>
       <use xlink:href="#DejaVuSerif-33" x="286.279297"/>
      </g>
     </g>
    </g>
    <g id="text_58">
     <!-- var $\ell$ -->
     <g style="fill: #ff7f0e" transform="translate(843.0425 141.5075)rotate(-90)scale(0.16 -0.16)">
      <defs>
       <path id="DejaVuSerif-76" d="M 1581 0 
L 359 2988 
L -19 2988 
L -19 3322 
L 1509 3322 
L 1509 2988 
L 978 2988 
L 1913 703 
L 2847 2988 
L 2350 2988 
L 2350 3322 
L 3597 3322 
L 3597 2988 
L 3225 2988 
L 2003 0 
L 1581 0 
z
" transform="scale(0.015625)"/>
       <path id="DejaVuSerif-72" d="M 3059 3328 
L 3059 2497 
L 2728 2497 
Q 2713 2744 2591 2866 
Q 2469 2988 2234 2988 
Q 1809 2988 1582 2694 
Q 1356 2400 1356 1850 
L 1356 331 
L 2022 331 
L 2022 0 
L 263 0 
L 263 331 
L 781 331 
L 781 2994 
L 231 2994 
L 231 3322 
L 1356 3322 
L 1356 2731 
Q 1525 3078 1790 3245 
Q 2056 3413 2438 3413 
Q 2578 3413 2733 3391 
Q 2888 3369 3059 3328 
z
" transform="scale(0.015625)"/>
      </defs>
      <use xlink:href="#DejaVuSerif-76" transform="translate(0 0.484375)"/>
      <use xlink:href="#DejaVuSerif-61" transform="translate(56.494141 0.484375)"/>
      <use xlink:href="#DejaVuSerif-72" transform="translate(116.113281 0.484375)"/>
      <use xlink:href="#DejaVuSerif-20" transform="translate(163.916016 0.484375)"/>
      <use xlink:href="#Cmmi10-60" transform="translate(195.703125 0.484375)"/>
     </g>
    </g>
   </g>
   <g id="line2d_55">
    <path d="M 486.327727 43.206136 
L 487.650823 43.343175 
L 488.973919 43.753476 
L 490.297015 44.434604 
L 491.620111 45.382529 
L 492.943206 46.591682 
L 494.530921 48.377461 
L 496.118636 50.514368 
L 497.970971 53.427782 
L 499.823305 56.763495 
L 501.940258 61.047194 
L 504.32183 66.398229 
L 506.968022 72.901452 
L 510.143452 81.310198 
L 514.377359 93.195498 
L 526.54984 127.753144 
L 530.519128 138.124253 
L 533.959177 146.492817 
L 537.134607 153.643349 
L 540.045418 159.686212 
L 542.956229 165.229435 
L 545.867039 170.274534 
L 548.513231 174.437346 
L 551.159423 178.209813 
L 553.805614 181.608324 
L 556.451806 184.651847 
L 559.097998 187.361075 
L 561.744189 189.757707 
L 564.390381 191.863856 
L 567.036572 193.701573 
L 569.947383 195.43881 
L 572.858194 196.905166 
L 575.769005 198.127058 
L 578.944435 199.210377 
L 582.119865 200.06227 
L 585.559914 200.755836 
L 589.264582 201.271361 
L 593.23387 201.596511 
L 597.732396 201.72782 
L 602.495541 201.642994 
L 608.052543 201.315184 
L 614.403403 200.713942 
L 622.341978 199.727427 
L 632.926744 198.171931 
L 685.321339 190.163704 
L 700.93387 188.165201 
L 716.81102 186.360734 
L 733.217408 184.720375 
L 750.682273 183.197559 
L 750.682273 183.197559 
" clip-path="url(#pc46b0b3971)" style="fill: none; stroke: #ff7f0e; stroke-width: 1.5; stroke-linecap: square"/>
   </g>
   <g id="patch_26">
    <path d="M 473.11 209.655 
L 473.11 35.28 
" style="fill: none; stroke: #000000; stroke-width: 0.8; stroke-linejoin: miter; stroke-linecap: square"/>
   </g>
   <g id="patch_27">
    <path d="M 763.9 209.655 
L 763.9 35.28 
" style="fill: none; stroke: #000000; stroke-width: 0.8; stroke-linejoin: miter; stroke-linecap: square"/>
   </g>
   <g id="patch_28">
    <path d="M 473.11 209.655 
L 763.9 209.655 
" style="fill: none; stroke: #000000; stroke-width: 0.8; stroke-linejoin: miter; stroke-linecap: square"/>
   </g>
   <g id="patch_29">
    <path d="M 473.11 35.28 
L 763.9 35.28 
" style="fill: none; stroke: #000000; stroke-width: 0.8; stroke-linejoin: miter; stroke-linecap: square"/>
   </g>
  </g>
  <g id="axes_7">
   <g id="matplotlib.axis_11">
    <g id="ytick_26">
     <g id="line2d_56">
      <g>
       <use xlink:href="#m27c478b754" x="370.55" y="434.340141" style="stroke: #000000; stroke-width: 0.8"/>
      </g>
     </g>
     <g id="text_59">
      <!-- 0 -->
      <g style="fill: #ff7f0e" transform="translate(377.55 440.418891)scale(0.16 -0.16)">
       <use xlink:href="#DejaVuSerif-30"/>
      </g>
     </g>
    </g>
    <g id="ytick_27">
     <g id="line2d_57">
      <g>
       <use xlink:href="#m27c478b754" x="370.55" y="384.406199" style="stroke: #000000; stroke-width: 0.8"/>
      </g>
     </g>
     <g id="text_60">
      <!-- 1 -->
      <g style="fill: #ff7f0e" transform="translate(377.55 390.484949)scale(0.16 -0.16)">
       <use xlink:href="#DejaVuSerif-31"/>
      </g>
     </g>
    </g>
    <g id="ytick_28">
     <g id="line2d_58">
      <g>
       <use xlink:href="#m27c478b754" x="370.55" y="334.472256" style="stroke: #000000; stroke-width: 0.8"/>
      </g>
     </g>
     <g id="text_61">
      <!-- 2 -->
      <g style="fill: #ff7f0e" transform="translate(377.55 340.551006)scale(0.16 -0.16)">
       <use xlink:href="#DejaVuSerif-32"/>
      </g>
     </g>
    </g>
    <g id="ytick_29">
     <g id="line2d_59">
      <g>
       <use xlink:href="#m27c478b754" x="370.55" y="284.538314" style="stroke: #000000; stroke-width: 0.8"/>
      </g>
     </g>
     <g id="text_62">
      <!-- 3 -->
      <g style="fill: #ff7f0e" transform="translate(377.55 290.617064)scale(0.16 -0.16)">
       <use xlink:href="#DejaVuSerif-33"/>
      </g>
     </g>
    </g>
    <g id="text_63">
     <!-- 1e5 -->
     <g style="fill: #ff7f0e" transform="translate(327.3125 264.775)scale(0.16 -0.16)">
      <defs>
       <path id="DejaVuSerif-2212" d="M 678 2259 
L 4684 2259 
L 4684 1753 
L 678 1753 
L 678 2259 
z
" transform="scale(0.015625)"/>
      </defs>
      <use xlink:href="#DejaVuSerif-31"/>
      <use xlink:href="#DejaVuSerif-65" x="63.623047"/>
      <use xlink:href="#DejaVuSerif-2212" x="122.802734"/>
      <use xlink:href="#DejaVuSerif-35" x="206.591797"/>
     </g>
    </g>
   </g>
   <g id="line2d_60">
    <path d="M 92.977727 425.515727 
L 100.122445 425.629064 
L 107.267162 425.963938 
L 114.941118 426.552758 
L 123.144312 427.409516 
L 132.935221 428.665717 
L 166.541855 433.198277 
L 173.686572 433.811525 
L 180.037432 434.139099 
L 185.859054 434.221633 
L 191.416057 434.076385 
L 196.70844 433.710551 
L 201.736204 433.138008 
L 206.499349 432.377985 
L 211.262494 431.392959 
L 216.025639 430.1711 
L 220.524165 428.7901 
L 225.02269 427.180524 
L 229.521216 425.335537 
L 234.019742 423.249356 
L 238.518268 420.917243 
L 243.016794 418.335505 
L 247.515319 415.501469 
L 252.013845 412.413465 
L 256.77699 408.866232 
L 261.540135 405.033805 
L 266.30328 400.917612 
L 271.331044 396.267651 
L 276.358808 391.308423 
L 281.386572 386.045198 
L 286.678956 380.183507 
L 292.235958 373.683094 
L 297.792961 366.839555 
L 303.614582 359.315448 
L 309.700823 351.077553 
L 316.051683 342.096047 
L 322.667162 332.34525 
L 329.54726 321.804345 
L 336.956597 310.0304 
L 344.630553 297.414051 
L 352.833747 283.500426 
L 357.332273 275.701136 
L 357.332273 275.701136 
" clip-path="url(#pa8c0e0be3a)" style="fill: none; stroke: #ff7f0e; stroke-width: 1.5; stroke-linecap: square"/>
   </g>
   <g id="patch_30">
    <path d="M 79.76 442.15 
L 79.76 267.775 
" style="fill: none; stroke: #000000; stroke-width: 0.8; stroke-linejoin: miter; stroke-linecap: square"/>
   </g>
   <g id="patch_31">
    <path d="M 370.55 442.15 
L 370.55 267.775 
" style="fill: none; stroke: #000000; stroke-width: 0.8; stroke-linejoin: miter; stroke-linecap: square"/>
   </g>
   <g id="patch_32">
    <path d="M 79.76 442.15 
L 370.55 442.15 
" style="fill: none; stroke: #000000; stroke-width: 0.8; stroke-linejoin: miter; stroke-linecap: square"/>
   </g>
   <g id="patch_33">
    <path d="M 79.76 267.775 
L 370.55 267.775 
" style="fill: none; stroke: #000000; stroke-width: 0.8; stroke-linejoin: miter; stroke-linecap: square"/>
   </g>
  </g>
  <g id="axes_8">
   <g id="matplotlib.axis_12">
    <g id="ytick_30">
     <g id="line2d_61">
      <g>
       <use xlink:href="#m27c478b754" x="763.9" y="413.734015" style="stroke: #000000; stroke-width: 0.8"/>
      </g>
     </g>
     <g id="text_64">
      <!-- 1.5 -->
      <g style="fill: #ff7f0e" transform="translate(770.9 419.812765)scale(0.16 -0.16)">
       <use xlink:href="#DejaVuSerif-31"/>
       <use xlink:href="#DejaVuSerif-2e" x="63.623047"/>
       <use xlink:href="#DejaVuSerif-35" x="95.410156"/>
      </g>
     </g>
    </g>
    <g id="ytick_31">
     <g id="line2d_62">
      <g>
       <use xlink:href="#m27c478b754" x="763.9" y="374.83666" style="stroke: #000000; stroke-width: 0.8"/>
      </g>
     </g>
     <g id="text_65">
      <!-- 2.0 -->
      <g style="fill: #ff7f0e" transform="translate(770.9 380.91541)scale(0.16 -0.16)">
       <use xlink:href="#DejaVuSerif-32"/>
       <use xlink:href="#DejaVuSerif-2e" x="63.623047"/>
       <use xlink:href="#DejaVuSerif-30" x="95.410156"/>
      </g>
     </g>
    </g>
    <g id="ytick_32">
     <g id="line2d_63">
      <g>
       <use xlink:href="#m27c478b754" x="763.9" y="335.939306" style="stroke: #000000; stroke-width: 0.8"/>
      </g>
     </g>
     <g id="text_66">
      <!-- 2.5 -->
      <g style="fill: #ff7f0e" transform="translate(770.9 342.018056)scale(0.16 -0.16)">
       <use xlink:href="#DejaVuSerif-32"/>
       <use xlink:href="#DejaVuSerif-2e" x="63.623047"/>
       <use xlink:href="#DejaVuSerif-35" x="95.410156"/>
      </g>
     </g>
    </g>
    <g id="ytick_33">
     <g id="line2d_64">
      <g>
       <use xlink:href="#m27c478b754" x="763.9" y="297.041951" style="stroke: #000000; stroke-width: 0.8"/>
      </g>
     </g>
     <g id="text_67">
      <!-- 3.0 -->
      <g style="fill: #ff7f0e" transform="translate(770.9 303.120701)scale(0.16 -0.16)">
       <use xlink:href="#DejaVuSerif-33"/>
       <use xlink:href="#DejaVuSerif-2e" x="63.623047"/>
       <use xlink:href="#DejaVuSerif-30" x="95.410156"/>
      </g>
     </g>
    </g>
    <g id="text_68">
     <!-- var $\ell$ -->
     <g style="fill: #ff7f0e" transform="translate(812.5025 374.0025)rotate(-90)scale(0.16 -0.16)">
      <use xlink:href="#DejaVuSerif-76" transform="translate(0 0.484375)"/>
      <use xlink:href="#DejaVuSerif-61" transform="translate(56.494141 0.484375)"/>
      <use xlink:href="#DejaVuSerif-72" transform="translate(116.113281 0.484375)"/>
      <use xlink:href="#DejaVuSerif-20" transform="translate(163.916016 0.484375)"/>
      <use xlink:href="#Cmmi10-60" transform="translate(195.703125 0.484375)"/>
     </g>
    </g>
    <g id="text_69">
     <!-- 1e5 -->
     <g style="fill: #ff7f0e" transform="translate(720.6625 264.775)scale(0.16 -0.16)">
      <use xlink:href="#DejaVuSerif-31"/>
      <use xlink:href="#DejaVuSerif-65" x="63.623047"/>
      <use xlink:href="#DejaVuSerif-2212" x="122.802734"/>
      <use xlink:href="#DejaVuSerif-35" x="206.591797"/>
     </g>
    </g>
   </g>
   <g id="line2d_65">
    <path d="M 486.327727 434.223864 
L 493.737064 434.111023 
L 501.1464 433.772308 
L 508.555737 433.207138 
L 515.965074 432.414556 
L 523.37441 431.393242 
L 530.783747 430.141527 
L 538.193084 428.657419 
L 545.60242 426.938629 
L 552.747138 425.056577 
L 559.891855 422.951437 
L 567.036572 420.620547 
L 574.18129 418.061107 
L 581.326007 415.270221 
L 588.470725 412.244927 
L 595.615442 408.982238 
L 602.76016 405.479181 
L 609.904877 401.732831 
L 617.049595 397.740353 
L 624.194312 393.499035 
L 631.339029 389.006326 
L 638.748366 384.079175 
L 646.157703 378.876765 
L 653.567039 373.397025 
L 660.976376 367.638219 
L 668.385713 361.598972 
L 675.795049 355.278297 
L 683.469005 348.434594 
L 691.142961 341.288247 
L 698.816916 333.839626 
L 706.755491 325.817036 
L 714.694066 317.473547 
L 722.632641 308.811397 
L 730.835835 299.528785 
L 739.039029 289.912837 
L 747.506843 279.6419 
L 750.682273 275.701136 
L 750.682273 275.701136 
" clip-path="url(#p7584aa55d0)" style="fill: none; stroke: #ff7f0e; stroke-width: 1.5; stroke-linecap: square"/>
   </g>
   <g id="patch_34">
    <path d="M 473.11 442.15 
L 473.11 267.775 
" style="fill: none; stroke: #000000; stroke-width: 0.8; stroke-linejoin: miter; stroke-linecap: square"/>
   </g>
   <g id="patch_35">
    <path d="M 763.9 442.15 
L 763.9 267.775 
" style="fill: none; stroke: #000000; stroke-width: 0.8; stroke-linejoin: miter; stroke-linecap: square"/>
   </g>
   <g id="patch_36">
    <path d="M 473.11 442.15 
L 763.9 442.15 
" style="fill: none; stroke: #000000; stroke-width: 0.8; stroke-linejoin: miter; stroke-linecap: square"/>
   </g>
   <g id="patch_37">
    <path d="M 473.11 267.775 
L 763.9 267.775 
" style="fill: none; stroke: #000000; stroke-width: 0.8; stroke-linejoin: miter; stroke-linecap: square"/>
   </g>
  </g>
 </g>
 <defs>
  <clipPath id="p9c70aae9be">
   <rect x="79.76" y="35.28" width="290.79" height="174.375"/>
  </clipPath>
  <clipPath id="pc46b0b3971">
   <rect x="473.11" y="35.28" width="290.79" height="174.375"/>
  </clipPath>
  <clipPath id="pa8c0e0be3a">
   <rect x="79.76" y="267.775" width="290.79" height="174.375"/>
  </clipPath>
  <clipPath id="p7584aa55d0">
   <rect x="473.11" y="267.775" width="290.79" height="174.375"/>
  </clipPath>
 </defs>
</svg>
