<?xml version="1.0" encoding="utf-8" standalone="no"?>
<!DOCTYPE svg PUBLIC "-//W3C//DTD SVG 1.1//EN"
  "http://www.w3.org/Graphics/SVG/1.1/DTD/svg11.dtd">
<svg height="288pt" version="1.1" viewBox="0 0 432 288" width="432pt" xmlns="http://www.w3.org/2000/svg" xmlns:xlink="http://www.w3.org/1999/xlink">
 <metadata>
  <rdf:RDF xmlns:cc="http://creativecommons.org/ns#" xmlns:dc="http://purl.org/dc/elements/1.1/" xmlns:rdf="http://www.w3.org/1999/02/22-rdf-syntax-ns#">
   <cc:Work>
    <dc:type rdf:resource="http://purl.org/dc/dcmitype/StillImage"/>
    <dc:date>2022-05-04T19:25:02.725777</dc:date>
    <dc:format>image/svg+xml</dc:format>
    <dc:creator>
     <cc:Agent>
      <dc:title>Matplotlib v3.4.3, https://matplotlib.org/</dc:title>
     </cc:Agent>
    </dc:creator>
   </cc:Work>
  </rdf:RDF>
 </metadata>
 <defs>
  <style type="text/css">*{stroke-linecap:butt;stroke-linejoin:round;}</style>
 </defs>
 <g id="figure_1">
  <g id="patch_1">
   <path d="M 0 288 
L 432 288 
L 432 0 
L 0 0 
z
" style="fill:none;"/>
  </g>
  <g id="axes_1">
   <g id="patch_2">
    <path d="M 49.8 242.2 
L 375.825 242.2 
L 375.825 21.8 
L 49.8 21.8 
z
" style="fill:#ffffff;"/>
   </g>
   <g id="matplotlib.axis_1">
    <g id="xtick_1">
     <g id="line2d_1">
      <defs>
       <path d="M 0 0 
L 0 3.5 
" id="m6d03a0cd1a" style="stroke:#000000;stroke-width:0.8;"/>
      </defs>
      <g>
       <use style="stroke:#000000;stroke-width:0.8;" x="64.619318" xlink:href="#m6d03a0cd1a" y="242.2"/>
      </g>
     </g>
     <g id="text_1">
      <!-- 0.0 -->
      <g transform="translate(56.667756 256.798437)scale(0.1 -0.1)">
       <defs>
        <path d="M 2034 4250 
Q 1547 4250 1301 3770 
Q 1056 3291 1056 2328 
Q 1056 1369 1301 889 
Q 1547 409 2034 409 
Q 2525 409 2770 889 
Q 3016 1369 3016 2328 
Q 3016 3291 2770 3770 
Q 2525 4250 2034 4250 
z
M 2034 4750 
Q 2819 4750 3233 4129 
Q 3647 3509 3647 2328 
Q 3647 1150 3233 529 
Q 2819 -91 2034 -91 
Q 1250 -91 836 529 
Q 422 1150 422 2328 
Q 422 3509 836 4129 
Q 1250 4750 2034 4750 
z
" id="DejaVuSans-30" transform="scale(0.015625)"/>
        <path d="M 684 794 
L 1344 794 
L 1344 0 
L 684 0 
L 684 794 
z
" id="DejaVuSans-2e" transform="scale(0.015625)"/>
       </defs>
       <use xlink:href="#DejaVuSans-30"/>
       <use x="63.623047" xlink:href="#DejaVuSans-2e"/>
       <use x="95.410156" xlink:href="#DejaVuSans-30"/>
      </g>
     </g>
    </g>
    <g id="xtick_2">
     <g id="line2d_2">
      <g>
       <use style="stroke:#000000;stroke-width:0.8;" x="123.896591" xlink:href="#m6d03a0cd1a" y="242.2"/>
      </g>
     </g>
     <g id="text_2">
      <!-- 0.2 -->
      <g transform="translate(115.945028 256.798437)scale(0.1 -0.1)">
       <defs>
        <path d="M 1228 531 
L 3431 531 
L 3431 0 
L 469 0 
L 469 531 
Q 828 903 1448 1529 
Q 2069 2156 2228 2338 
Q 2531 2678 2651 2914 
Q 2772 3150 2772 3378 
Q 2772 3750 2511 3984 
Q 2250 4219 1831 4219 
Q 1534 4219 1204 4116 
Q 875 4013 500 3803 
L 500 4441 
Q 881 4594 1212 4672 
Q 1544 4750 1819 4750 
Q 2544 4750 2975 4387 
Q 3406 4025 3406 3419 
Q 3406 3131 3298 2873 
Q 3191 2616 2906 2266 
Q 2828 2175 2409 1742 
Q 1991 1309 1228 531 
z
" id="DejaVuSans-32" transform="scale(0.015625)"/>
       </defs>
       <use xlink:href="#DejaVuSans-30"/>
       <use x="63.623047" xlink:href="#DejaVuSans-2e"/>
       <use x="95.410156" xlink:href="#DejaVuSans-32"/>
      </g>
     </g>
    </g>
    <g id="xtick_3">
     <g id="line2d_3">
      <g>
       <use style="stroke:#000000;stroke-width:0.8;" x="183.173864" xlink:href="#m6d03a0cd1a" y="242.2"/>
      </g>
     </g>
     <g id="text_3">
      <!-- 0.4 -->
      <g transform="translate(175.222301 256.798437)scale(0.1 -0.1)">
       <defs>
        <path d="M 2419 4116 
L 825 1625 
L 2419 1625 
L 2419 4116 
z
M 2253 4666 
L 3047 4666 
L 3047 1625 
L 3713 1625 
L 3713 1100 
L 3047 1100 
L 3047 0 
L 2419 0 
L 2419 1100 
L 313 1100 
L 313 1709 
L 2253 4666 
z
" id="DejaVuSans-34" transform="scale(0.015625)"/>
       </defs>
       <use xlink:href="#DejaVuSans-30"/>
       <use x="63.623047" xlink:href="#DejaVuSans-2e"/>
       <use x="95.410156" xlink:href="#DejaVuSans-34"/>
      </g>
     </g>
    </g>
    <g id="xtick_4">
     <g id="line2d_4">
      <g>
       <use style="stroke:#000000;stroke-width:0.8;" x="242.451136" xlink:href="#m6d03a0cd1a" y="242.2"/>
      </g>
     </g>
     <g id="text_4">
      <!-- 0.6 -->
      <g transform="translate(234.499574 256.798437)scale(0.1 -0.1)">
       <defs>
        <path d="M 2113 2584 
Q 1688 2584 1439 2293 
Q 1191 2003 1191 1497 
Q 1191 994 1439 701 
Q 1688 409 2113 409 
Q 2538 409 2786 701 
Q 3034 994 3034 1497 
Q 3034 2003 2786 2293 
Q 2538 2584 2113 2584 
z
M 3366 4563 
L 3366 3988 
Q 3128 4100 2886 4159 
Q 2644 4219 2406 4219 
Q 1781 4219 1451 3797 
Q 1122 3375 1075 2522 
Q 1259 2794 1537 2939 
Q 1816 3084 2150 3084 
Q 2853 3084 3261 2657 
Q 3669 2231 3669 1497 
Q 3669 778 3244 343 
Q 2819 -91 2113 -91 
Q 1303 -91 875 529 
Q 447 1150 447 2328 
Q 447 3434 972 4092 
Q 1497 4750 2381 4750 
Q 2619 4750 2861 4703 
Q 3103 4656 3366 4563 
z
" id="DejaVuSans-36" transform="scale(0.015625)"/>
       </defs>
       <use xlink:href="#DejaVuSans-30"/>
       <use x="63.623047" xlink:href="#DejaVuSans-2e"/>
       <use x="95.410156" xlink:href="#DejaVuSans-36"/>
      </g>
     </g>
    </g>
    <g id="xtick_5">
     <g id="line2d_5">
      <g>
       <use style="stroke:#000000;stroke-width:0.8;" x="301.728409" xlink:href="#m6d03a0cd1a" y="242.2"/>
      </g>
     </g>
     <g id="text_5">
      <!-- 0.8 -->
      <g transform="translate(293.776847 256.798437)scale(0.1 -0.1)">
       <defs>
        <path d="M 2034 2216 
Q 1584 2216 1326 1975 
Q 1069 1734 1069 1313 
Q 1069 891 1326 650 
Q 1584 409 2034 409 
Q 2484 409 2743 651 
Q 3003 894 3003 1313 
Q 3003 1734 2745 1975 
Q 2488 2216 2034 2216 
z
M 1403 2484 
Q 997 2584 770 2862 
Q 544 3141 544 3541 
Q 544 4100 942 4425 
Q 1341 4750 2034 4750 
Q 2731 4750 3128 4425 
Q 3525 4100 3525 3541 
Q 3525 3141 3298 2862 
Q 3072 2584 2669 2484 
Q 3125 2378 3379 2068 
Q 3634 1759 3634 1313 
Q 3634 634 3220 271 
Q 2806 -91 2034 -91 
Q 1263 -91 848 271 
Q 434 634 434 1313 
Q 434 1759 690 2068 
Q 947 2378 1403 2484 
z
M 1172 3481 
Q 1172 3119 1398 2916 
Q 1625 2713 2034 2713 
Q 2441 2713 2670 2916 
Q 2900 3119 2900 3481 
Q 2900 3844 2670 4047 
Q 2441 4250 2034 4250 
Q 1625 4250 1398 4047 
Q 1172 3844 1172 3481 
z
" id="DejaVuSans-38" transform="scale(0.015625)"/>
       </defs>
       <use xlink:href="#DejaVuSans-30"/>
       <use x="63.623047" xlink:href="#DejaVuSans-2e"/>
       <use x="95.410156" xlink:href="#DejaVuSans-38"/>
      </g>
     </g>
    </g>
    <g id="xtick_6">
     <g id="line2d_6">
      <g>
       <use style="stroke:#000000;stroke-width:0.8;" x="361.005682" xlink:href="#m6d03a0cd1a" y="242.2"/>
      </g>
     </g>
     <g id="text_6">
      <!-- 1.0 -->
      <g transform="translate(353.054119 256.798437)scale(0.1 -0.1)">
       <defs>
        <path d="M 794 531 
L 1825 531 
L 1825 4091 
L 703 3866 
L 703 4441 
L 1819 4666 
L 2450 4666 
L 2450 531 
L 3481 531 
L 3481 0 
L 794 0 
L 794 531 
z
" id="DejaVuSans-31" transform="scale(0.015625)"/>
       </defs>
       <use xlink:href="#DejaVuSans-31"/>
       <use x="63.623047" xlink:href="#DejaVuSans-2e"/>
       <use x="95.410156" xlink:href="#DejaVuSans-30"/>
      </g>
     </g>
    </g>
    <g id="text_7">
     <!-- $\beta$ -->
     <g transform="translate(209.6125 270.578125)scale(0.1 -0.1)">
      <defs>
       <path d="M 872 216 
L 572 -1331 
L -6 -1331 
L 928 3478 
Q 1206 4903 2538 4903 
Q 3888 4903 3659 3700 
Q 3503 2844 2894 2531 
Q 3713 2250 3553 1416 
Q 3272 -69 1759 -66 
Q 1097 -63 872 216 
z
M 1019 966 
Q 1259 422 1875 425 
Q 2775 425 2966 1406 
Q 3138 2288 1675 2219 
L 1778 2750 
Q 2909 2731 3106 3750 
Q 3241 4438 2509 4434 
Q 1691 4434 1503 3459 
L 1019 966 
z
" id="DejaVuSans-Oblique-3b2" transform="scale(0.015625)"/>
      </defs>
      <use transform="translate(0 0.390625)" xlink:href="#DejaVuSans-Oblique-3b2"/>
     </g>
    </g>
    <g id="text_8">
     <!-- 1e−5 -->
     <g transform="translate(348.567187 269.476562)scale(0.1 -0.1)">
      <defs>
       <path d="M 3597 1894 
L 3597 1613 
L 953 1613 
Q 991 1019 1311 708 
Q 1631 397 2203 397 
Q 2534 397 2845 478 
Q 3156 559 3463 722 
L 3463 178 
Q 3153 47 2828 -22 
Q 2503 -91 2169 -91 
Q 1331 -91 842 396 
Q 353 884 353 1716 
Q 353 2575 817 3079 
Q 1281 3584 2069 3584 
Q 2775 3584 3186 3129 
Q 3597 2675 3597 1894 
z
M 3022 2063 
Q 3016 2534 2758 2815 
Q 2500 3097 2075 3097 
Q 1594 3097 1305 2825 
Q 1016 2553 972 2059 
L 3022 2063 
z
" id="DejaVuSans-65" transform="scale(0.015625)"/>
       <path d="M 678 2272 
L 4684 2272 
L 4684 1741 
L 678 1741 
L 678 2272 
z
" id="DejaVuSans-2212" transform="scale(0.015625)"/>
       <path d="M 691 4666 
L 3169 4666 
L 3169 4134 
L 1269 4134 
L 1269 2991 
Q 1406 3038 1543 3061 
Q 1681 3084 1819 3084 
Q 2600 3084 3056 2656 
Q 3513 2228 3513 1497 
Q 3513 744 3044 326 
Q 2575 -91 1722 -91 
Q 1428 -91 1123 -41 
Q 819 9 494 109 
L 494 744 
Q 775 591 1075 516 
Q 1375 441 1709 441 
Q 2250 441 2565 725 
Q 2881 1009 2881 1497 
Q 2881 1984 2565 2268 
Q 2250 2553 1709 2553 
Q 1456 2553 1204 2497 
Q 953 2441 691 2322 
L 691 4666 
z
" id="DejaVuSans-35" transform="scale(0.015625)"/>
      </defs>
      <use xlink:href="#DejaVuSans-31"/>
      <use x="63.623047" xlink:href="#DejaVuSans-65"/>
      <use x="125.146484" xlink:href="#DejaVuSans-2212"/>
      <use x="208.935547" xlink:href="#DejaVuSans-35"/>
     </g>
    </g>
   </g>
   <g id="matplotlib.axis_2">
    <g id="ytick_1">
     <g id="line2d_7">
      <defs>
       <path d="M 0 0 
L -3.5 0 
" id="m3ff19caee3" style="stroke:#000000;stroke-width:0.8;"/>
      </defs>
      <g>
       <use style="stroke:#000000;stroke-width:0.8;" x="49.8" xlink:href="#m3ff19caee3" y="222.453125"/>
      </g>
     </g>
     <g id="text_9">
      <!-- 8.4 -->
      <g style="fill:#1f77b4;" transform="translate(26.896875 226.252344)scale(0.1 -0.1)">
       <use xlink:href="#DejaVuSans-38"/>
       <use x="63.623047" xlink:href="#DejaVuSans-2e"/>
       <use x="95.410156" xlink:href="#DejaVuSans-34"/>
      </g>
     </g>
    </g>
    <g id="ytick_2">
     <g id="line2d_8">
      <g>
       <use style="stroke:#000000;stroke-width:0.8;" x="49.8" xlink:href="#m3ff19caee3" y="184.984375"/>
      </g>
     </g>
     <g id="text_10">
      <!-- 8.6 -->
      <g style="fill:#1f77b4;" transform="translate(26.896875 188.783594)scale(0.1 -0.1)">
       <use xlink:href="#DejaVuSans-38"/>
       <use x="63.623047" xlink:href="#DejaVuSans-2e"/>
       <use x="95.410156" xlink:href="#DejaVuSans-36"/>
      </g>
     </g>
    </g>
    <g id="ytick_3">
     <g id="line2d_9">
      <g>
       <use style="stroke:#000000;stroke-width:0.8;" x="49.8" xlink:href="#m3ff19caee3" y="147.515625"/>
      </g>
     </g>
     <g id="text_11">
      <!-- 8.8 -->
      <g style="fill:#1f77b4;" transform="translate(26.896875 151.314844)scale(0.1 -0.1)">
       <use xlink:href="#DejaVuSans-38"/>
       <use x="63.623047" xlink:href="#DejaVuSans-2e"/>
       <use x="95.410156" xlink:href="#DejaVuSans-38"/>
      </g>
     </g>
    </g>
    <g id="ytick_4">
     <g id="line2d_10">
      <g>
       <use style="stroke:#000000;stroke-width:0.8;" x="49.8" xlink:href="#m3ff19caee3" y="110.03125"/>
      </g>
     </g>
     <g id="text_12">
      <!-- 9.0 -->
      <g style="fill:#1f77b4;" transform="translate(26.896875 113.830469)scale(0.1 -0.1)">
       <defs>
        <path d="M 703 97 
L 703 672 
Q 941 559 1184 500 
Q 1428 441 1663 441 
Q 2288 441 2617 861 
Q 2947 1281 2994 2138 
Q 2813 1869 2534 1725 
Q 2256 1581 1919 1581 
Q 1219 1581 811 2004 
Q 403 2428 403 3163 
Q 403 3881 828 4315 
Q 1253 4750 1959 4750 
Q 2769 4750 3195 4129 
Q 3622 3509 3622 2328 
Q 3622 1225 3098 567 
Q 2575 -91 1691 -91 
Q 1453 -91 1209 -44 
Q 966 3 703 97 
z
M 1959 2075 
Q 2384 2075 2632 2365 
Q 2881 2656 2881 3163 
Q 2881 3666 2632 3958 
Q 2384 4250 1959 4250 
Q 1534 4250 1286 3958 
Q 1038 3666 1038 3163 
Q 1038 2656 1286 2365 
Q 1534 2075 1959 2075 
z
" id="DejaVuSans-39" transform="scale(0.015625)"/>
       </defs>
       <use xlink:href="#DejaVuSans-39"/>
       <use x="63.623047" xlink:href="#DejaVuSans-2e"/>
       <use x="95.410156" xlink:href="#DejaVuSans-30"/>
      </g>
     </g>
    </g>
    <g id="ytick_5">
     <g id="line2d_11">
      <g>
       <use style="stroke:#000000;stroke-width:0.8;" x="49.8" xlink:href="#m3ff19caee3" y="72.578125"/>
      </g>
     </g>
     <g id="text_13">
      <!-- 9.2 -->
      <g style="fill:#1f77b4;" transform="translate(26.896875 76.377344)scale(0.1 -0.1)">
       <use xlink:href="#DejaVuSans-39"/>
       <use x="63.623047" xlink:href="#DejaVuSans-2e"/>
       <use x="95.410156" xlink:href="#DejaVuSans-32"/>
      </g>
     </g>
    </g>
    <g id="ytick_6">
     <g id="line2d_12">
      <g>
       <use style="stroke:#000000;stroke-width:0.8;" x="49.8" xlink:href="#m3ff19caee3" y="35.09375"/>
      </g>
     </g>
     <g id="text_14">
      <!-- 9.4 -->
      <g style="fill:#1f77b4;" transform="translate(26.896875 38.892969)scale(0.1 -0.1)">
       <use xlink:href="#DejaVuSans-39"/>
       <use x="63.623047" xlink:href="#DejaVuSans-2e"/>
       <use x="95.410156" xlink:href="#DejaVuSans-34"/>
      </g>
     </g>
    </g>
    <g id="text_15">
     <!-- mean $\ell$ -->
     <g style="fill:#1f77b4;" transform="translate(20.817188 149.85)rotate(-90)scale(0.1 -0.1)">
      <defs>
       <path d="M 3328 2828 
Q 3544 3216 3844 3400 
Q 4144 3584 4550 3584 
Q 5097 3584 5394 3201 
Q 5691 2819 5691 2113 
L 5691 0 
L 5113 0 
L 5113 2094 
Q 5113 2597 4934 2840 
Q 4756 3084 4391 3084 
Q 3944 3084 3684 2787 
Q 3425 2491 3425 1978 
L 3425 0 
L 2847 0 
L 2847 2094 
Q 2847 2600 2669 2842 
Q 2491 3084 2119 3084 
Q 1678 3084 1418 2786 
Q 1159 2488 1159 1978 
L 1159 0 
L 581 0 
L 581 3500 
L 1159 3500 
L 1159 2956 
Q 1356 3278 1631 3431 
Q 1906 3584 2284 3584 
Q 2666 3584 2933 3390 
Q 3200 3197 3328 2828 
z
" id="DejaVuSans-6d" transform="scale(0.015625)"/>
       <path d="M 2194 1759 
Q 1497 1759 1228 1600 
Q 959 1441 959 1056 
Q 959 750 1161 570 
Q 1363 391 1709 391 
Q 2188 391 2477 730 
Q 2766 1069 2766 1631 
L 2766 1759 
L 2194 1759 
z
M 3341 1997 
L 3341 0 
L 2766 0 
L 2766 531 
Q 2569 213 2275 61 
Q 1981 -91 1556 -91 
Q 1019 -91 701 211 
Q 384 513 384 1019 
Q 384 1609 779 1909 
Q 1175 2209 1959 2209 
L 2766 2209 
L 2766 2266 
Q 2766 2663 2505 2880 
Q 2244 3097 1772 3097 
Q 1472 3097 1187 3025 
Q 903 2953 641 2809 
L 641 3341 
Q 956 3463 1253 3523 
Q 1550 3584 1831 3584 
Q 2591 3584 2966 3190 
Q 3341 2797 3341 1997 
z
" id="DejaVuSans-61" transform="scale(0.015625)"/>
       <path d="M 3513 2113 
L 3513 0 
L 2938 0 
L 2938 2094 
Q 2938 2591 2744 2837 
Q 2550 3084 2163 3084 
Q 1697 3084 1428 2787 
Q 1159 2491 1159 1978 
L 1159 0 
L 581 0 
L 581 3500 
L 1159 3500 
L 1159 2956 
Q 1366 3272 1645 3428 
Q 1925 3584 2291 3584 
Q 2894 3584 3203 3211 
Q 3513 2838 3513 2113 
z
" id="DejaVuSans-6e" transform="scale(0.015625)"/>
       <path id="DejaVuSans-20" transform="scale(0.015625)"/>
       <path d="M 950 838 
Q 1078 213 1350 213 
Q 1531 213 1766 572 
L 2181 572 
Q 1994 253 1775 88 
Q 1538 -91 1319 -91 
Q 831 -91 634 344 
L 400 0 
L -88 0 
Q 250 459 500 888 
Q 469 1131 469 1397 
Q 469 1872 566 2347 
Q 931 4131 1256 4497 
Q 1481 4750 1866 4750 
Q 2256 4750 2256 4209 
Q 2253 3966 2197 3675 
Q 1972 2484 950 838 
z
M 947 1656 
Q 1531 2744 1709 3613 
Q 1803 4072 1803 4191 
Q 1803 4406 1725 4406 
Q 1384 4134 1081 2516 
Q 997 2063 947 1656 
z
" id="DejaVuSans-Oblique-2113" transform="scale(0.015625)"/>
      </defs>
      <use transform="translate(0 0.78125)" xlink:href="#DejaVuSans-6d"/>
      <use transform="translate(97.412109 0.78125)" xlink:href="#DejaVuSans-65"/>
      <use transform="translate(158.935547 0.78125)" xlink:href="#DejaVuSans-61"/>
      <use transform="translate(220.214844 0.78125)" xlink:href="#DejaVuSans-6e"/>
      <use transform="translate(283.59375 0.78125)" xlink:href="#DejaVuSans-20"/>
      <use transform="translate(315.380859 0.78125)" xlink:href="#DejaVuSans-Oblique-2113"/>
     </g>
    </g>
    <g id="text_16">
     <!-- 1e−12+6.3185671980e−1 -->
     <g style="fill:#1f77b4;" transform="translate(49.8 18.8)scale(0.1 -0.1)">
      <defs>
       <path d="M 2944 4013 
L 2944 2272 
L 4684 2272 
L 4684 1741 
L 2944 1741 
L 2944 0 
L 2419 0 
L 2419 1741 
L 678 1741 
L 678 2272 
L 2419 2272 
L 2419 4013 
L 2944 4013 
z
" id="DejaVuSans-2b" transform="scale(0.015625)"/>
       <path d="M 2597 2516 
Q 3050 2419 3304 2112 
Q 3559 1806 3559 1356 
Q 3559 666 3084 287 
Q 2609 -91 1734 -91 
Q 1441 -91 1130 -33 
Q 819 25 488 141 
L 488 750 
Q 750 597 1062 519 
Q 1375 441 1716 441 
Q 2309 441 2620 675 
Q 2931 909 2931 1356 
Q 2931 1769 2642 2001 
Q 2353 2234 1838 2234 
L 1294 2234 
L 1294 2753 
L 1863 2753 
Q 2328 2753 2575 2939 
Q 2822 3125 2822 3475 
Q 2822 3834 2567 4026 
Q 2313 4219 1838 4219 
Q 1578 4219 1281 4162 
Q 984 4106 628 3988 
L 628 4550 
Q 988 4650 1302 4700 
Q 1616 4750 1894 4750 
Q 2613 4750 3031 4423 
Q 3450 4097 3450 3541 
Q 3450 3153 3228 2886 
Q 3006 2619 2597 2516 
z
" id="DejaVuSans-33" transform="scale(0.015625)"/>
       <path d="M 525 4666 
L 3525 4666 
L 3525 4397 
L 1831 0 
L 1172 0 
L 2766 4134 
L 525 4134 
L 525 4666 
z
" id="DejaVuSans-37" transform="scale(0.015625)"/>
      </defs>
      <use xlink:href="#DejaVuSans-31"/>
      <use x="63.623047" xlink:href="#DejaVuSans-65"/>
      <use x="125.146484" xlink:href="#DejaVuSans-2212"/>
      <use x="208.935547" xlink:href="#DejaVuSans-31"/>
      <use x="272.558594" xlink:href="#DejaVuSans-32"/>
      <use x="336.181641" xlink:href="#DejaVuSans-2b"/>
      <use x="419.970703" xlink:href="#DejaVuSans-36"/>
      <use x="483.59375" xlink:href="#DejaVuSans-2e"/>
      <use x="515.380859" xlink:href="#DejaVuSans-33"/>
      <use x="579.003906" xlink:href="#DejaVuSans-31"/>
      <use x="642.626953" xlink:href="#DejaVuSans-38"/>
      <use x="706.25" xlink:href="#DejaVuSans-35"/>
      <use x="769.873047" xlink:href="#DejaVuSans-36"/>
      <use x="833.496094" xlink:href="#DejaVuSans-37"/>
      <use x="897.119141" xlink:href="#DejaVuSans-31"/>
      <use x="960.742188" xlink:href="#DejaVuSans-39"/>
      <use x="1024.365234" xlink:href="#DejaVuSans-38"/>
      <use x="1087.988281" xlink:href="#DejaVuSans-30"/>
      <use x="1151.611328" xlink:href="#DejaVuSans-65"/>
      <use x="1213.134766" xlink:href="#DejaVuSans-2212"/>
      <use x="1296.923828" xlink:href="#DejaVuSans-31"/>
     </g>
    </g>
   </g>
   <g id="line2d_13">
    <path clip-path="url(#pbb7d697381)" d="M 64.619318 232.09375 
L 68.179515 232.09375 
L 68.476198 231.96875 
L 69.366247 232.171875 
L 69.959613 232.0625 
L 70.256296 232.109375 
L 70.552979 231.96875 
L 73.223127 232 
L 73.51981 231.859375 
L 73.816493 231.96875 
L 74.113176 231.84375 
L 74.706542 231.90625 
L 75.299908 231.84375 
L 75.893274 231.859375 
L 76.189957 231.765625 
L 76.48664 231.84375 
L 77.080006 231.671875 
L 77.673372 231.765625 
L 78.266738 231.71875 
L 78.563421 231.609375 
L 79.453471 231.59375 
L 80.046837 231.484375 
L 80.34352 231.609375 
L 80.640203 231.59375 
L 80.936886 231.421875 
L 81.530252 231.46875 
L 81.826935 231.390625 
L 82.123618 231.46875 
L 83.013667 231.328125 
L 83.607033 231.265625 
L 83.903716 231.328125 
L 84.200399 231.171875 
L 84.497082 231.234375 
L 85.090448 231.046875 
L 85.387131 231.203125 
L 85.980498 231.109375 
L 86.277181 230.96875 
L 86.870547 231.015625 
L 87.16723 230.890625 
L 87.463913 231.015625 
L 88.057279 230.859375 
L 91.914158 230.46875 
L 92.210842 230.296875 
L 92.507525 230.359375 
L 93.99094 230.109375 
L 94.584306 230.09375 
L 94.880989 229.96875 
L 95.177672 230.03125 
L 96.364404 229.765625 
L 96.95777 229.71875 
L 97.254453 229.59375 
L 98.144502 229.59375 
L 99.331235 229.390625 
L 99.627918 229.390625 
L 99.924601 229.21875 
L 100.517967 229.109375 
L 100.81465 229.03125 
L 101.111333 229.109375 
L 104.671529 228.4375 
L 104.968213 228.453125 
L 105.264896 228.3125 
L 105.561579 228.3125 
L 106.154945 228.125 
L 106.748311 228.140625 
L 107.044994 228.0625 
L 107.341677 227.84375 
L 107.935043 227.875 
L 108.528409 227.59375 
L 108.825092 227.6875 
L 109.715141 227.46875 
L 110.011824 227.46875 
L 110.308507 227.28125 
L 110.60519 227.3125 
L 111.791923 227.03125 
L 115.945485 226.09375 
L 116.242168 225.96875 
L 116.538851 226.015625 
L 129.889588 222.390625 
L 130.779638 222.125 
L 131.076321 222.0625 
L 131.373004 221.875 
L 131.669687 221.859375 
L 131.96637 221.6875 
L 132.263053 221.71875 
L 134.636517 220.875 
L 135.229883 220.78125 
L 135.823249 220.546875 
L 136.416615 220.4375 
L 136.713299 220.234375 
L 137.306665 220.046875 
L 137.603348 219.90625 
L 138.196714 219.796875 
L 138.79008 219.625 
L 139.086763 219.40625 
L 139.383446 219.375 
L 139.680129 219.1875 
L 139.976812 219.171875 
L 141.163544 218.71875 
L 146.800522 216.734375 
L 147.690571 216.421875 
L 148.58062 215.984375 
L 149.767353 215.609375 
L 150.064036 215.375 
L 150.360719 215.375 
L 151.547451 214.8125 
L 152.140817 214.59375 
L 152.4375 214.5625 
L 152.734183 214.328125 
L 153.030866 214.3125 
L 154.514281 213.640625 
L 155.107647 213.46875 
L 155.40433 213.25 
L 155.701014 213.25 
L 156.591063 212.78125 
L 157.184429 212.5625 
L 157.481112 212.5 
L 157.777795 212.25 
L 158.667844 212 
L 159.26121 211.703125 
L 161.041308 210.921875 
L 161.634674 210.609375 
L 162.524724 210.203125 
L 163.11809 210.0625 
L 163.711456 209.671875 
L 164.008139 209.640625 
L 166.08492 208.5625 
L 166.381603 208.5625 
L 167.271652 208.046875 
L 169.348434 207.09375 
L 170.535166 206.53125 
L 170.831849 206.46875 
L 171.128532 206.21875 
L 171.425215 206.171875 
L 172.611947 205.46875 
L 173.205313 205.234375 
L 173.501996 204.984375 
L 173.798679 204.90625 
L 174.095362 204.671875 
L 174.392045 204.671875 
L 175.578778 204.046875 
L 175.875461 203.96875 
L 176.172144 203.671875 
L 177.062193 203.390625 
L 177.952242 202.84375 
L 178.248925 202.71875 
L 178.545608 202.421875 
L 179.435657 202.09375 
L 180.029023 201.6875 
L 180.919072 201.21875 
L 181.215756 201.140625 
L 181.512439 200.84375 
L 181.809122 200.8125 
L 182.105805 200.5625 
L 182.402488 200.515625 
L 184.479269 199.3125 
L 185.072635 199.015625 
L 185.962684 198.515625 
L 186.55605 198.265625 
L 186.852733 198.015625 
L 187.4461 197.734375 
L 188.632832 196.984375 
L 191.006296 195.65625 
L 191.599662 195.34375 
L 191.896345 195.25 
L 192.193028 194.9375 
L 192.489711 194.859375 
L 193.973127 193.921875 
L 194.566493 193.671875 
L 195.159859 193.171875 
L 195.456542 193.109375 
L 196.643274 192.359375 
L 196.939957 192.234375 
L 197.23664 191.953125 
L 197.533323 191.84375 
L 198.126689 191.40625 
L 198.423372 191.359375 
L 200.203471 190.15625 
L 200.500154 190.078125 
L 201.09352 189.59375 
L 209.697328 184.171875 
L 209.994011 183.828125 
L 210.587377 183.578125 
L 211.180743 183.0625 
L 211.774109 182.765625 
L 212.367475 182.40625 
L 212.664158 182.0625 
L 213.257525 181.796875 
L 213.850891 181.25 
L 214.147574 181.1875 
L 214.74094 180.78125 
L 215.037623 180.4375 
L 215.630989 180.109375 
L 215.927672 179.84375 
L 216.224355 179.734375 
L 218.301136 178.171875 
L 218.597819 178.046875 
L 219.191186 177.65625 
L 220.971284 176.359375 
L 221.267967 176.09375 
L 221.56465 176.015625 
L 222.454699 175.28125 
L 223.938114 174.28125 
L 224.828163 173.515625 
L 225.124846 173.453125 
L 225.718213 172.890625 
L 226.014896 172.734375 
L 226.608262 172.265625 
L 226.904945 172.015625 
L 227.201628 171.9375 
L 229.575092 170 
L 230.168458 169.671875 
L 230.761824 169.25 
L 231.651873 168.40625 
L 231.948557 168.28125 
L 232.838606 167.671875 
L 233.135289 167.46875 
L 233.431972 167.0625 
L 234.618704 166.234375 
L 236.102119 165.03125 
L 236.398802 164.890625 
L 236.695485 164.53125 
L 237.585534 163.953125 
L 241.442414 160.78125 
L 241.739097 160.625 
L 242.03578 160.25 
L 242.332463 160.125 
L 242.925829 159.546875 
L 243.222512 159.453125 
L 257.463299 147.34375 
L 258.056665 146.8125 
L 258.353348 146.5 
L 258.650031 146.359375 
L 260.726812 144.390625 
L 261.320178 143.921875 
L 262.50691 142.8125 
L 262.803593 142.65625 
L 263.100276 142.25 
L 263.693643 141.78125 
L 264.287009 141.171875 
L 266.36379 139.328125 
L 267.253839 138.40625 
L 269.33062 136.53125 
L 280.901259 125.53125 
L 281.494625 124.859375 
L 282.978041 123.375 
L 285.054822 121.3125 
L 285.944871 120.390625 
L 287.724969 118.578125 
L 291.285166 114.984375 
L 293.955313 112.203125 
L 294.548679 111.53125 
L 294.845362 111.328125 
L 295.735412 110.21875 
L 296.032095 110.078125 
L 296.625461 109.34375 
L 297.218827 108.8125 
L 297.51551 108.390625 
L 297.812193 108.203125 
L 303.745854 101.65625 
L 304.042537 101.5 
L 304.635903 100.71875 
L 304.932586 100.46875 
L 305.229269 100.046875 
L 305.525952 99.828125 
L 306.119318 99.046875 
L 306.416001 98.890625 
L 312.349662 92.171875 
L 314.426443 89.859375 
L 315.613176 88.484375 
L 316.206542 87.78125 
L 317.98664 85.765625 
L 318.580006 85.078125 
L 319.173372 84.40625 
L 320.953471 82.34375 
L 321.250154 81.890625 
L 321.546837 81.65625 
L 322.733569 80.1875 
L 323.030252 79.921875 
L 323.623618 79.125 
L 324.513667 78.078125 
L 326.293765 76 
L 326.590448 75.53125 
L 327.183814 74.921875 
L 328.073864 73.859375 
L 328.963913 72.765625 
L 329.853962 71.703125 
L 331.930743 69.140625 
L 334.304208 66.234375 
L 334.600891 65.953125 
L 335.49094 64.75 
L 337.271038 62.59375 
L 337.567721 62.15625 
L 337.864404 61.9375 
L 341.127918 57.8125 
L 342.017967 56.6875 
L 342.908016 55.53125 
L 346.468213 50.984375 
L 347.358262 49.859375 
L 347.951628 49.125 
L 350.918458 45.234375 
L 351.808507 44.125 
L 352.698557 42.8125 
L 353.291923 42.09375 
L 354.181972 40.890625 
L 354.775338 40.171875 
L 355.368704 39.359375 
L 356.852119 37.4375 
L 361.005682 31.828125 
L 361.005682 31.828125 
" style="fill:none;stroke:#1f77b4;stroke-linecap:square;stroke-width:1.5;"/>
   </g>
   <g id="patch_3">
    <path d="M 49.8 242.203125 
L 49.8 21.796875 
" style="fill:none;stroke:#000000;stroke-linecap:square;stroke-linejoin:miter;stroke-width:0.8;"/>
   </g>
   <g id="patch_4">
    <path d="M 375.825 242.203125 
L 375.825 21.796875 
" style="fill:none;stroke:#000000;stroke-linecap:square;stroke-linejoin:miter;stroke-width:0.8;"/>
   </g>
   <g id="patch_5">
    <path d="M 49.8 242.2 
L 375.825 242.2 
" style="fill:none;stroke:#000000;stroke-linecap:square;stroke-linejoin:miter;stroke-width:0.8;"/>
   </g>
   <g id="patch_6">
    <path d="M 49.8 21.8 
L 375.825 21.8 
" style="fill:none;stroke:#000000;stroke-linecap:square;stroke-linejoin:miter;stroke-width:0.8;"/>
   </g>
  </g>
  <g id="axes_2">
   <g id="matplotlib.axis_3">
    <g id="ytick_7">
     <g id="line2d_14">
      <defs>
       <path d="M 0 0 
L 3.5 0 
" id="m355b497c29" style="stroke:#000000;stroke-width:0.8;"/>
      </defs>
      <g>
       <use style="stroke:#000000;stroke-width:0.8;" x="375.825" xlink:href="#m355b497c29" y="228.523438"/>
      </g>
     </g>
     <g id="text_17">
      <!-- 38.8 -->
      <g style="fill:#ff7f0e;" transform="translate(382.825 232.322656)scale(0.1 -0.1)">
       <use xlink:href="#DejaVuSans-33"/>
       <use x="63.623047" xlink:href="#DejaVuSans-38"/>
       <use x="127.246094" xlink:href="#DejaVuSans-2e"/>
       <use x="159.033203" xlink:href="#DejaVuSans-38"/>
      </g>
     </g>
    </g>
    <g id="ytick_8">
     <g id="line2d_15">
      <g>
       <use style="stroke:#000000;stroke-width:0.8;" x="375.825" xlink:href="#m355b497c29" y="203.648438"/>
      </g>
     </g>
     <g id="text_18">
      <!-- 39.0 -->
      <g style="fill:#ff7f0e;" transform="translate(382.825 207.447656)scale(0.1 -0.1)">
       <use xlink:href="#DejaVuSans-33"/>
       <use x="63.623047" xlink:href="#DejaVuSans-39"/>
       <use x="127.246094" xlink:href="#DejaVuSans-2e"/>
       <use x="159.033203" xlink:href="#DejaVuSans-30"/>
      </g>
     </g>
    </g>
    <g id="ytick_9">
     <g id="line2d_16">
      <g>
       <use style="stroke:#000000;stroke-width:0.8;" x="375.825" xlink:href="#m355b497c29" y="178.757812"/>
      </g>
     </g>
     <g id="text_19">
      <!-- 39.2 -->
      <g style="fill:#ff7f0e;" transform="translate(382.825 182.557031)scale(0.1 -0.1)">
       <use xlink:href="#DejaVuSans-33"/>
       <use x="63.623047" xlink:href="#DejaVuSans-39"/>
       <use x="127.246094" xlink:href="#DejaVuSans-2e"/>
       <use x="159.033203" xlink:href="#DejaVuSans-32"/>
      </g>
     </g>
    </g>
    <g id="ytick_10">
     <g id="line2d_17">
      <g>
       <use style="stroke:#000000;stroke-width:0.8;" x="375.825" xlink:href="#m355b497c29" y="153.875"/>
      </g>
     </g>
     <g id="text_20">
      <!-- 39.4 -->
      <g style="fill:#ff7f0e;" transform="translate(382.825 157.674219)scale(0.1 -0.1)">
       <use xlink:href="#DejaVuSans-33"/>
       <use x="63.623047" xlink:href="#DejaVuSans-39"/>
       <use x="127.246094" xlink:href="#DejaVuSans-2e"/>
       <use x="159.033203" xlink:href="#DejaVuSans-34"/>
      </g>
     </g>
    </g>
    <g id="ytick_11">
     <g id="line2d_18">
      <g>
       <use style="stroke:#000000;stroke-width:0.8;" x="375.825" xlink:href="#m355b497c29" y="129"/>
      </g>
     </g>
     <g id="text_21">
      <!-- 39.6 -->
      <g style="fill:#ff7f0e;" transform="translate(382.825 132.799219)scale(0.1 -0.1)">
       <use xlink:href="#DejaVuSans-33"/>
       <use x="63.623047" xlink:href="#DejaVuSans-39"/>
       <use x="127.246094" xlink:href="#DejaVuSans-2e"/>
       <use x="159.033203" xlink:href="#DejaVuSans-36"/>
      </g>
     </g>
    </g>
    <g id="ytick_12">
     <g id="line2d_19">
      <g>
       <use style="stroke:#000000;stroke-width:0.8;" x="375.825" xlink:href="#m355b497c29" y="104.117188"/>
      </g>
     </g>
     <g id="text_22">
      <!-- 39.8 -->
      <g style="fill:#ff7f0e;" transform="translate(382.825 107.916406)scale(0.1 -0.1)">
       <use xlink:href="#DejaVuSans-33"/>
       <use x="63.623047" xlink:href="#DejaVuSans-39"/>
       <use x="127.246094" xlink:href="#DejaVuSans-2e"/>
       <use x="159.033203" xlink:href="#DejaVuSans-38"/>
      </g>
     </g>
    </g>
    <g id="ytick_13">
     <g id="line2d_20">
      <g>
       <use style="stroke:#000000;stroke-width:0.8;" x="375.825" xlink:href="#m355b497c29" y="79.234375"/>
      </g>
     </g>
     <g id="text_23">
      <!-- 40.0 -->
      <g style="fill:#ff7f0e;" transform="translate(382.825 83.033594)scale(0.1 -0.1)">
       <use xlink:href="#DejaVuSans-34"/>
       <use x="63.623047" xlink:href="#DejaVuSans-30"/>
       <use x="127.246094" xlink:href="#DejaVuSans-2e"/>
       <use x="159.033203" xlink:href="#DejaVuSans-30"/>
      </g>
     </g>
    </g>
    <g id="ytick_14">
     <g id="line2d_21">
      <g>
       <use style="stroke:#000000;stroke-width:0.8;" x="375.825" xlink:href="#m355b497c29" y="54.351562"/>
      </g>
     </g>
     <g id="text_24">
      <!-- 40.2 -->
      <g style="fill:#ff7f0e;" transform="translate(382.825 58.150781)scale(0.1 -0.1)">
       <use xlink:href="#DejaVuSans-34"/>
       <use x="63.623047" xlink:href="#DejaVuSans-30"/>
       <use x="127.246094" xlink:href="#DejaVuSans-2e"/>
       <use x="159.033203" xlink:href="#DejaVuSans-32"/>
      </g>
     </g>
    </g>
    <g id="ytick_15">
     <g id="line2d_22">
      <g>
       <use style="stroke:#000000;stroke-width:0.8;" x="375.825" xlink:href="#m355b497c29" y="29.46875"/>
      </g>
     </g>
     <g id="text_25">
      <!-- 40.4 -->
      <g style="fill:#ff7f0e;" transform="translate(382.825 33.267969)scale(0.1 -0.1)">
       <use xlink:href="#DejaVuSans-34"/>
       <use x="63.623047" xlink:href="#DejaVuSans-30"/>
       <use x="127.246094" xlink:href="#DejaVuSans-2e"/>
       <use x="159.033203" xlink:href="#DejaVuSans-34"/>
      </g>
     </g>
    </g>
    <g id="text_26">
     <!-- var $\ell$ -->
     <g style="fill:#ff7f0e;" transform="translate(416.689062 143.75)rotate(-90)scale(0.1 -0.1)">
      <defs>
       <path d="M 191 3500 
L 800 3500 
L 1894 563 
L 2988 3500 
L 3597 3500 
L 2284 0 
L 1503 0 
L 191 3500 
z
" id="DejaVuSans-76" transform="scale(0.015625)"/>
       <path d="M 2631 2963 
Q 2534 3019 2420 3045 
Q 2306 3072 2169 3072 
Q 1681 3072 1420 2755 
Q 1159 2438 1159 1844 
L 1159 0 
L 581 0 
L 581 3500 
L 1159 3500 
L 1159 2956 
Q 1341 3275 1631 3429 
Q 1922 3584 2338 3584 
Q 2397 3584 2469 3576 
Q 2541 3569 2628 3553 
L 2631 2963 
z
" id="DejaVuSans-72" transform="scale(0.015625)"/>
      </defs>
      <use transform="translate(0 0.78125)" xlink:href="#DejaVuSans-76"/>
      <use transform="translate(59.179688 0.78125)" xlink:href="#DejaVuSans-61"/>
      <use transform="translate(120.458984 0.78125)" xlink:href="#DejaVuSans-72"/>
      <use transform="translate(161.572266 0.78125)" xlink:href="#DejaVuSans-20"/>
      <use transform="translate(193.359375 0.78125)" xlink:href="#DejaVuSans-Oblique-2113"/>
     </g>
    </g>
    <g id="text_27">
     <!-- 1e−14+3.7046360020e−3 -->
     <g style="fill:#ff7f0e;" transform="translate(239.764062 18.8)scale(0.1 -0.1)">
      <use xlink:href="#DejaVuSans-31"/>
      <use x="63.623047" xlink:href="#DejaVuSans-65"/>
      <use x="125.146484" xlink:href="#DejaVuSans-2212"/>
      <use x="208.935547" xlink:href="#DejaVuSans-31"/>
      <use x="272.558594" xlink:href="#DejaVuSans-34"/>
      <use x="336.181641" xlink:href="#DejaVuSans-2b"/>
      <use x="419.970703" xlink:href="#DejaVuSans-33"/>
      <use x="483.59375" xlink:href="#DejaVuSans-2e"/>
      <use x="515.380859" xlink:href="#DejaVuSans-37"/>
      <use x="579.003906" xlink:href="#DejaVuSans-30"/>
      <use x="642.626953" xlink:href="#DejaVuSans-34"/>
      <use x="706.25" xlink:href="#DejaVuSans-36"/>
      <use x="769.873047" xlink:href="#DejaVuSans-33"/>
      <use x="833.496094" xlink:href="#DejaVuSans-36"/>
      <use x="897.119141" xlink:href="#DejaVuSans-30"/>
      <use x="960.742188" xlink:href="#DejaVuSans-30"/>
      <use x="1024.365234" xlink:href="#DejaVuSans-32"/>
      <use x="1087.988281" xlink:href="#DejaVuSans-30"/>
      <use x="1151.611328" xlink:href="#DejaVuSans-65"/>
      <use x="1213.134766" xlink:href="#DejaVuSans-2212"/>
      <use x="1296.923828" xlink:href="#DejaVuSans-33"/>
     </g>
    </g>
   </g>
   <g id="line2d_23">
    <path clip-path="url(#pbb7d697381)" d="M 64.619318 232.101562 
L 65.212684 232.164062 
L 65.509367 231.960938 
L 65.80605 231.914062 
L 66.102733 232.171875 
L 66.6961 231.945312 
L 66.992783 232.171875 
L 67.289466 231.976562 
L 67.586149 232.03125 
L 67.882832 231.953125 
L 68.179515 232.1875 
L 68.476198 231.914062 
L 68.772881 232.03125 
L 69.069564 231.976562 
L 69.66293 232.101562 
L 69.959613 231.984375 
L 70.256296 232.101562 
L 70.849662 231.84375 
L 71.146345 232.101562 
L 71.443028 231.90625 
L 71.739711 232.039062 
L 72.036394 231.90625 
L 72.926443 231.84375 
L 73.223127 232.101562 
L 73.51981 231.828125 
L 73.816493 231.976562 
L 74.409859 231.90625 
L 76.48664 231.828125 
L 76.783323 231.546875 
L 77.673372 231.976562 
L 77.970055 231.632812 
L 78.266738 231.765625 
L 78.563421 231.476562 
L 78.860104 231.484375 
L 79.156787 231.625 
L 80.046837 231.351562 
L 80.34352 231.5625 
L 81.233569 231.398438 
L 81.530252 231.5625 
L 81.826935 231.28125 
L 82.123618 231.414062 
L 83.31035 231.203125 
L 83.607033 231.351562 
L 84.200399 231.140625 
L 84.497082 231.289062 
L 84.793765 231.070312 
L 85.090448 231.007812 
L 85.387131 231.195312 
L 86.573864 230.9375 
L 86.870547 231.070312 
L 87.16723 230.867188 
L 87.463913 231.007812 
L 88.057279 230.851562 
L 88.353962 230.9375 
L 88.650645 230.804688 
L 88.947328 230.796875 
L 89.244011 230.578125 
L 90.430743 230.507812 
L 90.727426 230.3125 
L 91.024109 230.507812 
L 91.320792 230.375 
L 91.914158 230.4375 
L 92.210842 230.234375 
L 92.507525 230.460938 
L 92.804208 230.40625 
L 93.100891 230.179688 
L 93.397574 230.101562 
L 93.694257 230.164062 
L 93.99094 229.976562 
L 94.287623 229.984375 
L 94.584306 230.117188 
L 94.880989 229.96875 
L 95.771038 229.90625 
L 96.661087 229.554688 
L 96.95777 229.679688 
L 97.254453 229.476562 
L 97.551136 229.554688 
L 98.441186 229.414062 
L 98.737869 229.492188 
L 100.221284 229.140625 
L 101.408016 229.210938 
L 102.001382 228.742188 
L 102.594748 228.867188 
L 102.891431 228.523438 
L 103.188114 228.648438 
L 103.78148 228.515625 
L 104.078163 228.578125 
L 104.374846 228.390625 
L 104.968213 228.460938 
L 105.264896 228.171875 
L 105.561579 228.3125 
L 106.154945 228.234375 
L 107.044994 228.171875 
L 107.341677 227.765625 
L 107.935043 227.75 
L 108.231726 227.617188 
L 109.121775 227.617188 
L 109.418458 227.484375 
L 109.715141 227.632812 
L 110.011824 227.34375 
L 110.308507 227.273438 
L 110.60519 227.34375 
L 110.901873 227.070312 
L 111.198557 227.210938 
L 111.49524 227.203125 
L 111.791923 226.992188 
L 113.275338 226.726562 
L 113.572021 226.453125 
L 113.868704 226.585938 
L 114.165387 226.59375 
L 114.46207 226.390625 
L 114.758753 226.453125 
L 115.055436 226.25 
L 115.352119 226.25 
L 115.648802 225.96875 
L 115.945485 226.039062 
L 116.242168 225.914062 
L 116.538851 226.039062 
L 117.132217 225.84375 
L 117.725584 225.757812 
L 118.022267 225.5 
L 118.31895 225.5625 
L 118.912316 225.351562 
L 119.208999 225.351562 
L 119.505682 225.140625 
L 119.802365 225.21875 
L 120.099048 224.859375 
L 120.395731 224.9375 
L 120.692414 224.796875 
L 121.879146 224.726562 
L 122.175829 224.398438 
L 122.472512 224.3125 
L 122.769195 224.445312 
L 123.955928 224.242188 
L 124.252611 223.960938 
L 124.549294 223.90625 
L 124.845977 223.625 
L 125.14266 223.75 
L 125.439343 223.492188 
L 126.032709 223.421875 
L 128.406173 222.867188 
L 128.999539 222.65625 
L 129.296222 222.3125 
L 129.592905 222.523438 
L 130.186271 222.320312 
L 130.482955 222.3125 
L 130.779638 222.09375 
L 131.076321 222.039062 
L 131.373004 221.765625 
L 131.669687 221.90625 
L 131.96637 221.617188 
L 133.746468 221.289062 
L 134.043151 220.945312 
L 134.339834 221.015625 
L 134.636517 220.859375 
L 135.229883 220.867188 
L 135.823249 220.59375 
L 136.416615 220.390625 
L 136.713299 220.039062 
L 137.009982 220.109375 
L 138.79008 219.632812 
L 139.680129 219.140625 
L 139.976812 219.21875 
L 140.570178 218.875 
L 141.163544 218.664062 
L 141.460227 218.796875 
L 142.053593 218.46875 
L 142.646959 218.179688 
L 142.943643 218.171875 
L 143.240326 217.90625 
L 143.537009 218.039062 
L 144.723741 217.429688 
L 145.020424 217.15625 
L 145.317107 217.21875 
L 145.910473 216.929688 
L 146.207156 216.953125 
L 146.503839 216.742188 
L 147.097205 216.8125 
L 147.987254 216.117188 
L 148.283937 216.109375 
L 149.173986 215.773438 
L 149.47067 215.835938 
L 150.064036 215.289062 
L 150.360719 215.421875 
L 150.954085 214.796875 
L 151.250768 215.007812 
L 151.844134 214.664062 
L 152.140817 214.664062 
L 152.734183 214.328125 
L 153.030866 214.390625 
L 153.327549 214.046875 
L 153.624232 213.984375 
L 153.920915 213.695312 
L 154.217598 213.757812 
L 154.514281 213.5625 
L 155.107647 213.507812 
L 155.40433 213.21875 
L 155.997697 213.078125 
L 156.29438 212.867188 
L 156.591063 212.804688 
L 157.184429 212.382812 
L 157.481112 212.460938 
L 158.074478 212.1875 
L 158.371161 211.84375 
L 158.667844 211.914062 
L 158.964527 211.703125 
L 159.26121 211.773438 
L 159.854576 211.421875 
L 160.151259 211.078125 
L 160.744625 211.085938 
L 161.634674 210.671875 
L 161.931357 210.328125 
L 162.228041 210.320312 
L 162.524724 209.914062 
L 162.821407 210.117188 
L 163.11809 210.054688 
L 163.711456 209.570312 
L 164.008139 209.570312 
L 165.491554 208.867188 
L 165.788237 208.8125 
L 166.381603 208.53125 
L 166.678286 208.46875 
L 167.271652 207.90625 
L 167.568335 207.992188 
L 169.348434 207.085938 
L 169.645117 206.8125 
L 170.238483 206.679688 
L 170.535166 206.46875 
L 170.831849 206.59375 
L 171.128532 206.203125 
L 171.721898 206.0625 
L 172.018581 205.703125 
L 172.315264 205.632812 
L 172.90863 205.28125 
L 173.205313 205.296875 
L 174.095362 204.539062 
L 174.392045 204.796875 
L 174.688729 204.476562 
L 176.468827 203.65625 
L 176.76551 203.367188 
L 177.358876 203.296875 
L 177.655559 202.945312 
L 177.952242 202.945312 
L 178.545608 202.40625 
L 178.842291 202.414062 
L 179.435657 202.039062 
L 180.029023 201.71875 
L 180.622389 201.289062 
L 180.919072 201.304688 
L 181.512439 200.8125 
L 181.809122 200.890625 
L 182.105805 200.679688 
L 182.402488 200.679688 
L 182.995854 200.1875 
L 184.182586 199.578125 
L 184.479269 199.242188 
L 184.775952 199.234375 
L 185.666001 198.742188 
L 186.55605 198.203125 
L 186.852733 197.90625 
L 187.149416 197.921875 
L 187.4461 197.789062 
L 187.742783 197.4375 
L 188.039466 197.375 
L 188.336149 197.085938 
L 188.632832 197.15625 
L 189.522881 196.40625 
L 189.819564 196.546875 
L 190.41293 195.789062 
L 190.709613 195.78125 
L 191.599662 195.242188 
L 191.896345 195.3125 
L 192.193028 194.945312 
L 192.786394 194.8125 
L 193.083077 194.40625 
L 193.37976 194.195312 
L 194.566493 193.859375 
L 195.159859 193.09375 
L 195.456542 193.15625 
L 197.23664 191.984375 
L 197.533323 192 
L 198.126689 191.226562 
L 198.423372 191.382812 
L 198.720055 191.09375 
L 199.016738 191.03125 
L 199.313421 190.609375 
L 201.09352 189.71875 
L 201.390203 189.3125 
L 201.983569 189.164062 
L 202.280252 188.75 
L 202.576935 188.609375 
L 202.873618 188.625 
L 203.763667 187.867188 
L 204.06035 187.867188 
L 204.357033 187.710938 
L 204.653716 187.234375 
L 204.950399 187.234375 
L 205.247082 187.117188 
L 205.840448 186.414062 
L 206.137131 186.398438 
L 207.027181 186 
L 207.323864 185.578125 
L 208.213913 185.09375 
L 208.510596 184.757812 
L 208.807279 184.820312 
L 209.400645 184.28125 
L 209.697328 184.203125 
L 210.290694 183.648438 
L 210.587377 183.71875 
L 210.88406 183.242188 
L 211.180743 183.242188 
L 215.927672 179.789062 
L 216.224355 179.859375 
L 217.114404 178.953125 
L 217.411087 178.890625 
L 217.70777 178.6875 
L 218.004453 178.695312 
L 218.301136 178.132812 
L 218.597819 178.0625 
L 218.894502 177.78125 
L 219.191186 177.71875 
L 219.487869 177.4375 
L 219.784552 177.3125 
L 220.674601 176.617188 
L 220.971284 176.492188 
L 221.267967 176.148438 
L 221.56465 176.140625 
L 222.158016 175.453125 
L 222.751382 175.023438 
L 223.048065 175.109375 
L 224.234797 174.070312 
L 224.53148 173.859375 
L 224.828163 173.445312 
L 225.124846 173.53125 
L 225.421529 172.953125 
L 225.718213 172.828125 
L 226.014896 172.953125 
L 226.311579 172.34375 
L 226.904945 172.125 
L 228.091677 171.3125 
L 228.685043 170.765625 
L 228.981726 170.617188 
L 229.575092 170.0625 
L 229.871775 170.007812 
L 230.761824 169.242188 
L 231.058507 168.84375 
L 231.35519 168.90625 
L 231.651873 168.492188 
L 231.948557 168.351562 
L 232.541923 167.726562 
L 233.135289 167.515625 
L 233.728655 166.835938 
L 234.025338 166.84375 
L 234.322021 166.414062 
L 234.618704 166.351562 
L 234.915387 166.132812 
L 235.21207 165.664062 
L 235.805436 165.328125 
L 236.102119 164.984375 
L 236.398802 164.914062 
L 236.695485 164.5625 
L 236.992168 164.570312 
L 237.288851 164.078125 
L 237.585534 163.953125 
L 238.475584 163.257812 
L 238.772267 163.046875 
L 239.365633 162.5 
L 241.145731 161.101562 
L 241.442414 160.695312 
L 241.739097 160.773438 
L 242.03578 160.351562 
L 242.629146 159.875 
L 242.925829 159.523438 
L 243.222512 159.46875 
L 243.815878 159.125 
L 244.112561 158.570312 
L 244.705928 158.304688 
L 245.299294 157.453125 
L 245.595977 157.539062 
L 246.189343 157.125 
L 247.672758 155.742188 
L 247.969441 155.671875 
L 248.562807 155.101562 
L 249.156173 154.640625 
L 252.71637 151.476562 
L 253.013053 151.398438 
L 253.606419 150.632812 
L 253.903102 150.421875 
L 254.199785 150.351562 
L 254.793151 149.617188 
L 255.089834 149.679688 
L 255.6832 148.929688 
L 256.869932 147.875 
L 257.463299 147.46875 
L 257.759982 147.054688 
L 258.056665 147.054688 
L 258.353348 146.507812 
L 258.650031 146.234375 
L 258.946714 146.171875 
L 259.243397 145.960938 
L 260.133446 144.984375 
L 260.430129 144.914062 
L 260.726812 144.359375 
L 261.023495 144.15625 
L 261.320178 144.09375 
L 261.913544 143.398438 
L 262.803593 142.648438 
L 265.770424 139.820312 
L 266.067107 139.820312 
L 266.36379 139.265625 
L 267.253839 138.4375 
L 267.847205 138.09375 
L 268.143888 137.882812 
L 268.440571 137.40625 
L 269.627303 136.4375 
L 270.22067 135.742188 
L 270.814036 135.25 
L 271.110719 134.84375 
L 271.407402 134.789062 
L 272.890817 133.195312 
L 273.1875 133.140625 
L 273.484183 132.570312 
L 273.780866 132.515625 
L 274.077549 132.09375 
L 274.374232 131.960938 
L 275.264281 131.203125 
L 275.857647 130.304688 
L 276.451014 130.023438 
L 277.934429 128.367188 
L 278.231112 128.242188 
L 279.121161 127.210938 
L 279.417844 127.140625 
L 281.197942 125.28125 
L 281.494625 125.140625 
L 281.791308 124.523438 
L 282.087991 124.515625 
L 282.384674 124.164062 
L 282.681357 123.617188 
L 282.978041 123.554688 
L 283.571407 122.929688 
L 284.758139 121.757812 
L 285.351505 121.15625 
L 285.944871 120.460938 
L 286.538237 120.101562 
L 286.83492 119.492188 
L 287.131603 119.359375 
L 288.615018 117.757812 
L 290.098434 116.453125 
L 290.395117 115.828125 
L 292.768581 113.648438 
L 294.251996 111.828125 
L 294.548679 111.703125 
L 296.625461 109.421875 
L 296.922144 109.140625 
L 297.218827 109.023438 
L 297.51551 108.398438 
L 297.812193 108.1875 
L 298.108876 108.117188 
L 298.405559 107.5625 
L 298.702242 107.421875 
L 299.888974 105.976562 
L 300.185657 105.773438 
L 300.779023 104.945312 
L 301.075706 104.523438 
L 301.372389 104.390625 
L 304.042537 101.492188 
L 304.33922 101.296875 
L 304.635903 100.804688 
L 304.932586 100.671875 
L 305.229269 100.179688 
L 305.822635 99.554688 
L 306.416001 99.03125 
L 306.712684 98.75 
L 307.009367 98.195312 
L 307.30605 97.984375 
L 307.899416 97.234375 
L 308.789466 96.320312 
L 309.382832 95.5625 
L 309.679515 95.296875 
L 309.976198 94.875 
L 310.272881 94.671875 
L 311.16293 93.570312 
L 311.459613 93.078125 
L 311.756296 92.875 
L 312.646345 91.9375 
L 312.943028 91.710938 
L 313.536394 90.8125 
L 313.833077 90.75 
L 314.12976 90.265625 
L 314.426443 90.1875 
L 315.316493 88.828125 
L 315.613176 88.679688 
L 315.909859 88.203125 
L 316.206542 88.070312 
L 316.503225 87.484375 
L 317.689957 86.195312 
L 317.98664 85.992188 
L 320.360104 83.375 
L 320.656787 82.601562 
L 320.953471 82.476562 
L 321.250154 82.054688 
L 321.546837 81.859375 
L 322.140203 81.039062 
L 322.733569 80.34375 
L 323.030252 80.210938 
L 323.326935 79.507812 
L 323.623618 79.398438 
L 323.920301 78.75 
L 324.216984 78.695312 
L 324.81035 77.804688 
L 333.117475 68 
L 333.414158 67.390625 
L 334.007525 66.835938 
L 334.304208 66.273438 
L 334.600891 66.070312 
L 335.787623 64.5625 
L 336.084306 64.140625 
L 336.380989 64 
L 336.677672 63.445312 
L 336.974355 63.179688 
L 337.567721 62.265625 
L 337.864404 62.148438 
L 339.644502 59.601562 
L 339.941186 59.539062 
L 341.424601 57.601562 
L 342.017967 56.96875 
L 342.31465 56.351562 
L 344.094748 54.296875 
L 344.688114 53.328125 
L 344.984797 53.125 
L 345.874846 51.875 
L 346.468213 51.109375 
L 346.764896 50.835938 
L 347.061579 50.210938 
L 347.654945 49.671875 
L 348.544994 48.429688 
L 349.435043 47.460938 
L 349.731726 46.851562 
L 350.028409 46.554688 
L 350.621775 45.664062 
L 351.215141 45.0625 
L 352.401873 43.453125 
L 352.99524 42.773438 
L 353.588606 41.867188 
L 354.478655 40.632812 
L 354.775338 40.507812 
L 355.368704 39.46875 
L 356.555436 38.023438 
L 361.005682 31.828125 
L 361.005682 31.828125 
" style="fill:none;stroke:#ff7f0e;stroke-linecap:square;stroke-width:1.5;"/>
   </g>
   <g id="patch_7">
    <path d="M 49.8 242.203125 
L 49.8 21.804688 
" style="fill:none;stroke:#000000;stroke-linecap:square;stroke-linejoin:miter;stroke-width:0.8;"/>
   </g>
   <g id="patch_8">
    <path d="M 375.825 242.203125 
L 375.825 21.804688 
" style="fill:none;stroke:#000000;stroke-linecap:square;stroke-linejoin:miter;stroke-width:0.8;"/>
   </g>
   <g id="patch_9">
    <path d="M 49.8 242.2 
L 375.825 242.2 
" style="fill:none;stroke:#000000;stroke-linecap:square;stroke-linejoin:miter;stroke-width:0.8;"/>
   </g>
   <g id="patch_10">
    <path d="M 49.8 21.8 
L 375.825 21.8 
" style="fill:none;stroke:#000000;stroke-linecap:square;stroke-linejoin:miter;stroke-width:0.8;"/>
   </g>
  </g>
 </g>
 <defs>
  <clipPath id="pbb7d697381">
   <rect height="220.4" width="326.025" x="49.8" y="21.8"/>
  </clipPath>
 </defs>
</svg>
