<?xml version="1.0" encoding="utf-8" standalone="no"?>
<!DOCTYPE svg PUBLIC "-//W3C//DTD SVG 1.1//EN"
  "http://www.w3.org/Graphics/SVG/1.1/DTD/svg11.dtd">
<svg height="288pt" version="1.1" viewBox="0 0 432 288" width="432pt" xmlns="http://www.w3.org/2000/svg" xmlns:xlink="http://www.w3.org/1999/xlink">
 <metadata>
  <rdf:RDF xmlns:cc="http://creativecommons.org/ns#" xmlns:dc="http://purl.org/dc/elements/1.1/" xmlns:rdf="http://www.w3.org/1999/02/22-rdf-syntax-ns#">
   <cc:Work>
    <dc:type rdf:resource="http://purl.org/dc/dcmitype/StillImage"/>
    <dc:date>2022-05-04T19:10:35.449204</dc:date>
    <dc:format>image/svg+xml</dc:format>
    <dc:creator>
     <cc:Agent>
      <dc:title>Matplotlib v3.4.3, https://matplotlib.org/</dc:title>
     </cc:Agent>
    </dc:creator>
   </cc:Work>
  </rdf:RDF>
 </metadata>
 <defs>
  <style type="text/css">*{stroke-linecap:butt;stroke-linejoin:round;}</style>
 </defs>
 <g id="figure_1">
  <g id="patch_1">
   <path d="M 0 288 
L 432 288 
L 432 0 
L 0 0 
z
" style="fill:none;"/>
  </g>
  <g id="axes_1">
   <g id="patch_2">
    <path d="M 49.8 242.2 
L 369.45 242.2 
L 369.45 10.8 
L 49.8 10.8 
z
" style="fill:#ffffff;"/>
   </g>
   <g id="matplotlib.axis_1">
    <g id="xtick_1">
     <g id="line2d_1">
      <defs>
       <path d="M 0 0 
L 0 3.5 
" id="ma1962abad5" style="stroke:#000000;stroke-width:0.8;"/>
      </defs>
      <g>
       <use style="stroke:#000000;stroke-width:0.8;" x="64.329545" xlink:href="#ma1962abad5" y="242.2"/>
      </g>
     </g>
     <g id="text_1">
      <!-- 0 -->
      <g transform="translate(61.148295 256.798437)scale(0.1 -0.1)">
       <defs>
        <path d="M 2034 4250 
Q 1547 4250 1301 3770 
Q 1056 3291 1056 2328 
Q 1056 1369 1301 889 
Q 1547 409 2034 409 
Q 2525 409 2770 889 
Q 3016 1369 3016 2328 
Q 3016 3291 2770 3770 
Q 2525 4250 2034 4250 
z
M 2034 4750 
Q 2819 4750 3233 4129 
Q 3647 3509 3647 2328 
Q 3647 1150 3233 529 
Q 2819 -91 2034 -91 
Q 1250 -91 836 529 
Q 422 1150 422 2328 
Q 422 3509 836 4129 
Q 1250 4750 2034 4750 
z
" id="DejaVuSans-30" transform="scale(0.015625)"/>
       </defs>
       <use xlink:href="#DejaVuSans-30"/>
      </g>
     </g>
    </g>
    <g id="xtick_2">
     <g id="line2d_2">
      <g>
       <use style="stroke:#000000;stroke-width:0.8;" x="122.447727" xlink:href="#ma1962abad5" y="242.2"/>
      </g>
     </g>
     <g id="text_2">
      <!-- 2 -->
      <g transform="translate(119.266477 256.798437)scale(0.1 -0.1)">
       <defs>
        <path d="M 1228 531 
L 3431 531 
L 3431 0 
L 469 0 
L 469 531 
Q 828 903 1448 1529 
Q 2069 2156 2228 2338 
Q 2531 2678 2651 2914 
Q 2772 3150 2772 3378 
Q 2772 3750 2511 3984 
Q 2250 4219 1831 4219 
Q 1534 4219 1204 4116 
Q 875 4013 500 3803 
L 500 4441 
Q 881 4594 1212 4672 
Q 1544 4750 1819 4750 
Q 2544 4750 2975 4387 
Q 3406 4025 3406 3419 
Q 3406 3131 3298 2873 
Q 3191 2616 2906 2266 
Q 2828 2175 2409 1742 
Q 1991 1309 1228 531 
z
" id="DejaVuSans-32" transform="scale(0.015625)"/>
       </defs>
       <use xlink:href="#DejaVuSans-32"/>
      </g>
     </g>
    </g>
    <g id="xtick_3">
     <g id="line2d_3">
      <g>
       <use style="stroke:#000000;stroke-width:0.8;" x="180.565909" xlink:href="#ma1962abad5" y="242.2"/>
      </g>
     </g>
     <g id="text_3">
      <!-- 4 -->
      <g transform="translate(177.384659 256.798437)scale(0.1 -0.1)">
       <defs>
        <path d="M 2419 4116 
L 825 1625 
L 2419 1625 
L 2419 4116 
z
M 2253 4666 
L 3047 4666 
L 3047 1625 
L 3713 1625 
L 3713 1100 
L 3047 1100 
L 3047 0 
L 2419 0 
L 2419 1100 
L 313 1100 
L 313 1709 
L 2253 4666 
z
" id="DejaVuSans-34" transform="scale(0.015625)"/>
       </defs>
       <use xlink:href="#DejaVuSans-34"/>
      </g>
     </g>
    </g>
    <g id="xtick_4">
     <g id="line2d_4">
      <g>
       <use style="stroke:#000000;stroke-width:0.8;" x="238.684091" xlink:href="#ma1962abad5" y="242.2"/>
      </g>
     </g>
     <g id="text_4">
      <!-- 6 -->
      <g transform="translate(235.502841 256.798437)scale(0.1 -0.1)">
       <defs>
        <path d="M 2113 2584 
Q 1688 2584 1439 2293 
Q 1191 2003 1191 1497 
Q 1191 994 1439 701 
Q 1688 409 2113 409 
Q 2538 409 2786 701 
Q 3034 994 3034 1497 
Q 3034 2003 2786 2293 
Q 2538 2584 2113 2584 
z
M 3366 4563 
L 3366 3988 
Q 3128 4100 2886 4159 
Q 2644 4219 2406 4219 
Q 1781 4219 1451 3797 
Q 1122 3375 1075 2522 
Q 1259 2794 1537 2939 
Q 1816 3084 2150 3084 
Q 2853 3084 3261 2657 
Q 3669 2231 3669 1497 
Q 3669 778 3244 343 
Q 2819 -91 2113 -91 
Q 1303 -91 875 529 
Q 447 1150 447 2328 
Q 447 3434 972 4092 
Q 1497 4750 2381 4750 
Q 2619 4750 2861 4703 
Q 3103 4656 3366 4563 
z
" id="DejaVuSans-36" transform="scale(0.015625)"/>
       </defs>
       <use xlink:href="#DejaVuSans-36"/>
      </g>
     </g>
    </g>
    <g id="xtick_5">
     <g id="line2d_5">
      <g>
       <use style="stroke:#000000;stroke-width:0.8;" x="296.802273" xlink:href="#ma1962abad5" y="242.2"/>
      </g>
     </g>
     <g id="text_5">
      <!-- 8 -->
      <g transform="translate(293.621023 256.798437)scale(0.1 -0.1)">
       <defs>
        <path d="M 2034 2216 
Q 1584 2216 1326 1975 
Q 1069 1734 1069 1313 
Q 1069 891 1326 650 
Q 1584 409 2034 409 
Q 2484 409 2743 651 
Q 3003 894 3003 1313 
Q 3003 1734 2745 1975 
Q 2488 2216 2034 2216 
z
M 1403 2484 
Q 997 2584 770 2862 
Q 544 3141 544 3541 
Q 544 4100 942 4425 
Q 1341 4750 2034 4750 
Q 2731 4750 3128 4425 
Q 3525 4100 3525 3541 
Q 3525 3141 3298 2862 
Q 3072 2584 2669 2484 
Q 3125 2378 3379 2068 
Q 3634 1759 3634 1313 
Q 3634 634 3220 271 
Q 2806 -91 2034 -91 
Q 1263 -91 848 271 
Q 434 634 434 1313 
Q 434 1759 690 2068 
Q 947 2378 1403 2484 
z
M 1172 3481 
Q 1172 3119 1398 2916 
Q 1625 2713 2034 2713 
Q 2441 2713 2670 2916 
Q 2900 3119 2900 3481 
Q 2900 3844 2670 4047 
Q 2441 4250 2034 4250 
Q 1625 4250 1398 4047 
Q 1172 3844 1172 3481 
z
" id="DejaVuSans-38" transform="scale(0.015625)"/>
       </defs>
       <use xlink:href="#DejaVuSans-38"/>
      </g>
     </g>
    </g>
    <g id="xtick_6">
     <g id="line2d_6">
      <g>
       <use style="stroke:#000000;stroke-width:0.8;" x="354.920455" xlink:href="#ma1962abad5" y="242.2"/>
      </g>
     </g>
     <g id="text_6">
      <!-- 10 -->
      <g transform="translate(348.557955 256.798437)scale(0.1 -0.1)">
       <defs>
        <path d="M 794 531 
L 1825 531 
L 1825 4091 
L 703 3866 
L 703 4441 
L 1819 4666 
L 2450 4666 
L 2450 531 
L 3481 531 
L 3481 0 
L 794 0 
L 794 531 
z
" id="DejaVuSans-31" transform="scale(0.015625)"/>
       </defs>
       <use xlink:href="#DejaVuSans-31"/>
       <use x="63.623047" xlink:href="#DejaVuSans-30"/>
      </g>
     </g>
    </g>
    <g id="text_7">
     <!-- $\beta$ -->
     <g transform="translate(206.425 270.578125)scale(0.1 -0.1)">
      <defs>
       <path d="M 872 216 
L 572 -1331 
L -6 -1331 
L 928 3478 
Q 1206 4903 2538 4903 
Q 3888 4903 3659 3700 
Q 3503 2844 2894 2531 
Q 3713 2250 3553 1416 
Q 3272 -69 1759 -66 
Q 1097 -63 872 216 
z
M 1019 966 
Q 1259 422 1875 425 
Q 2775 425 2966 1406 
Q 3138 2288 1675 2219 
L 1778 2750 
Q 2909 2731 3106 3750 
Q 3241 4438 2509 4434 
Q 1691 4434 1503 3459 
L 1019 966 
z
" id="DejaVuSans-Oblique-3b2" transform="scale(0.015625)"/>
      </defs>
      <use transform="translate(0 0.390625)" xlink:href="#DejaVuSans-Oblique-3b2"/>
     </g>
    </g>
   </g>
   <g id="matplotlib.axis_2">
    <g id="ytick_1">
     <g id="line2d_7">
      <defs>
       <path d="M 0 0 
L -3.5 0 
" id="ma3acb9d5fb" style="stroke:#000000;stroke-width:0.8;"/>
      </defs>
      <g>
       <use style="stroke:#000000;stroke-width:0.8;" x="49.8" xlink:href="#ma3acb9d5fb" y="219.917983"/>
      </g>
     </g>
     <g id="text_8">
      <!-- 1.6 -->
      <g style="fill:#1f77b4;" transform="translate(26.896875 223.717202)scale(0.1 -0.1)">
       <defs>
        <path d="M 684 794 
L 1344 794 
L 1344 0 
L 684 0 
L 684 794 
z
" id="DejaVuSans-2e" transform="scale(0.015625)"/>
       </defs>
       <use xlink:href="#DejaVuSans-31"/>
       <use x="63.623047" xlink:href="#DejaVuSans-2e"/>
       <use x="95.410156" xlink:href="#DejaVuSans-36"/>
      </g>
     </g>
    </g>
    <g id="ytick_2">
     <g id="line2d_8">
      <g>
       <use style="stroke:#000000;stroke-width:0.8;" x="49.8" xlink:href="#ma3acb9d5fb" y="193.720485"/>
      </g>
     </g>
     <g id="text_9">
      <!-- 1.8 -->
      <g style="fill:#1f77b4;" transform="translate(26.896875 197.519704)scale(0.1 -0.1)">
       <use xlink:href="#DejaVuSans-31"/>
       <use x="63.623047" xlink:href="#DejaVuSans-2e"/>
       <use x="95.410156" xlink:href="#DejaVuSans-38"/>
      </g>
     </g>
    </g>
    <g id="ytick_3">
     <g id="line2d_9">
      <g>
       <use style="stroke:#000000;stroke-width:0.8;" x="49.8" xlink:href="#ma3acb9d5fb" y="167.522987"/>
      </g>
     </g>
     <g id="text_10">
      <!-- 2.0 -->
      <g style="fill:#1f77b4;" transform="translate(26.896875 171.322206)scale(0.1 -0.1)">
       <use xlink:href="#DejaVuSans-32"/>
       <use x="63.623047" xlink:href="#DejaVuSans-2e"/>
       <use x="95.410156" xlink:href="#DejaVuSans-30"/>
      </g>
     </g>
    </g>
    <g id="ytick_4">
     <g id="line2d_10">
      <g>
       <use style="stroke:#000000;stroke-width:0.8;" x="49.8" xlink:href="#ma3acb9d5fb" y="141.32549"/>
      </g>
     </g>
     <g id="text_11">
      <!-- 2.2 -->
      <g style="fill:#1f77b4;" transform="translate(26.896875 145.124708)scale(0.1 -0.1)">
       <use xlink:href="#DejaVuSans-32"/>
       <use x="63.623047" xlink:href="#DejaVuSans-2e"/>
       <use x="95.410156" xlink:href="#DejaVuSans-32"/>
      </g>
     </g>
    </g>
    <g id="ytick_5">
     <g id="line2d_11">
      <g>
       <use style="stroke:#000000;stroke-width:0.8;" x="49.8" xlink:href="#ma3acb9d5fb" y="115.127992"/>
      </g>
     </g>
     <g id="text_12">
      <!-- 2.4 -->
      <g style="fill:#1f77b4;" transform="translate(26.896875 118.92721)scale(0.1 -0.1)">
       <use xlink:href="#DejaVuSans-32"/>
       <use x="63.623047" xlink:href="#DejaVuSans-2e"/>
       <use x="95.410156" xlink:href="#DejaVuSans-34"/>
      </g>
     </g>
    </g>
    <g id="ytick_6">
     <g id="line2d_12">
      <g>
       <use style="stroke:#000000;stroke-width:0.8;" x="49.8" xlink:href="#ma3acb9d5fb" y="88.930494"/>
      </g>
     </g>
     <g id="text_13">
      <!-- 2.6 -->
      <g style="fill:#1f77b4;" transform="translate(26.896875 92.729712)scale(0.1 -0.1)">
       <use xlink:href="#DejaVuSans-32"/>
       <use x="63.623047" xlink:href="#DejaVuSans-2e"/>
       <use x="95.410156" xlink:href="#DejaVuSans-36"/>
      </g>
     </g>
    </g>
    <g id="ytick_7">
     <g id="line2d_13">
      <g>
       <use style="stroke:#000000;stroke-width:0.8;" x="49.8" xlink:href="#ma3acb9d5fb" y="62.732996"/>
      </g>
     </g>
     <g id="text_14">
      <!-- 2.8 -->
      <g style="fill:#1f77b4;" transform="translate(26.896875 66.532214)scale(0.1 -0.1)">
       <use xlink:href="#DejaVuSans-32"/>
       <use x="63.623047" xlink:href="#DejaVuSans-2e"/>
       <use x="95.410156" xlink:href="#DejaVuSans-38"/>
      </g>
     </g>
    </g>
    <g id="ytick_8">
     <g id="line2d_14">
      <g>
       <use style="stroke:#000000;stroke-width:0.8;" x="49.8" xlink:href="#ma3acb9d5fb" y="36.535498"/>
      </g>
     </g>
     <g id="text_15">
      <!-- 3.0 -->
      <g style="fill:#1f77b4;" transform="translate(26.896875 40.334716)scale(0.1 -0.1)">
       <defs>
        <path d="M 2597 2516 
Q 3050 2419 3304 2112 
Q 3559 1806 3559 1356 
Q 3559 666 3084 287 
Q 2609 -91 1734 -91 
Q 1441 -91 1130 -33 
Q 819 25 488 141 
L 488 750 
Q 750 597 1062 519 
Q 1375 441 1716 441 
Q 2309 441 2620 675 
Q 2931 909 2931 1356 
Q 2931 1769 2642 2001 
Q 2353 2234 1838 2234 
L 1294 2234 
L 1294 2753 
L 1863 2753 
Q 2328 2753 2575 2939 
Q 2822 3125 2822 3475 
Q 2822 3834 2567 4026 
Q 2313 4219 1838 4219 
Q 1578 4219 1281 4162 
Q 984 4106 628 3988 
L 628 4550 
Q 988 4650 1302 4700 
Q 1616 4750 1894 4750 
Q 2613 4750 3031 4423 
Q 3450 4097 3450 3541 
Q 3450 3153 3228 2886 
Q 3006 2619 2597 2516 
z
" id="DejaVuSans-33" transform="scale(0.015625)"/>
       </defs>
       <use xlink:href="#DejaVuSans-33"/>
       <use x="63.623047" xlink:href="#DejaVuSans-2e"/>
       <use x="95.410156" xlink:href="#DejaVuSans-30"/>
      </g>
     </g>
    </g>
    <g id="text_16">
     <!-- mean $\ell$ -->
     <g style="fill:#1f77b4;" transform="translate(20.817188 144.35)rotate(-90)scale(0.1 -0.1)">
      <defs>
       <path d="M 3328 2828 
Q 3544 3216 3844 3400 
Q 4144 3584 4550 3584 
Q 5097 3584 5394 3201 
Q 5691 2819 5691 2113 
L 5691 0 
L 5113 0 
L 5113 2094 
Q 5113 2597 4934 2840 
Q 4756 3084 4391 3084 
Q 3944 3084 3684 2787 
Q 3425 2491 3425 1978 
L 3425 0 
L 2847 0 
L 2847 2094 
Q 2847 2600 2669 2842 
Q 2491 3084 2119 3084 
Q 1678 3084 1418 2786 
Q 1159 2488 1159 1978 
L 1159 0 
L 581 0 
L 581 3500 
L 1159 3500 
L 1159 2956 
Q 1356 3278 1631 3431 
Q 1906 3584 2284 3584 
Q 2666 3584 2933 3390 
Q 3200 3197 3328 2828 
z
" id="DejaVuSans-6d" transform="scale(0.015625)"/>
       <path d="M 3597 1894 
L 3597 1613 
L 953 1613 
Q 991 1019 1311 708 
Q 1631 397 2203 397 
Q 2534 397 2845 478 
Q 3156 559 3463 722 
L 3463 178 
Q 3153 47 2828 -22 
Q 2503 -91 2169 -91 
Q 1331 -91 842 396 
Q 353 884 353 1716 
Q 353 2575 817 3079 
Q 1281 3584 2069 3584 
Q 2775 3584 3186 3129 
Q 3597 2675 3597 1894 
z
M 3022 2063 
Q 3016 2534 2758 2815 
Q 2500 3097 2075 3097 
Q 1594 3097 1305 2825 
Q 1016 2553 972 2059 
L 3022 2063 
z
" id="DejaVuSans-65" transform="scale(0.015625)"/>
       <path d="M 2194 1759 
Q 1497 1759 1228 1600 
Q 959 1441 959 1056 
Q 959 750 1161 570 
Q 1363 391 1709 391 
Q 2188 391 2477 730 
Q 2766 1069 2766 1631 
L 2766 1759 
L 2194 1759 
z
M 3341 1997 
L 3341 0 
L 2766 0 
L 2766 531 
Q 2569 213 2275 61 
Q 1981 -91 1556 -91 
Q 1019 -91 701 211 
Q 384 513 384 1019 
Q 384 1609 779 1909 
Q 1175 2209 1959 2209 
L 2766 2209 
L 2766 2266 
Q 2766 2663 2505 2880 
Q 2244 3097 1772 3097 
Q 1472 3097 1187 3025 
Q 903 2953 641 2809 
L 641 3341 
Q 956 3463 1253 3523 
Q 1550 3584 1831 3584 
Q 2591 3584 2966 3190 
Q 3341 2797 3341 1997 
z
" id="DejaVuSans-61" transform="scale(0.015625)"/>
       <path d="M 3513 2113 
L 3513 0 
L 2938 0 
L 2938 2094 
Q 2938 2591 2744 2837 
Q 2550 3084 2163 3084 
Q 1697 3084 1428 2787 
Q 1159 2491 1159 1978 
L 1159 0 
L 581 0 
L 581 3500 
L 1159 3500 
L 1159 2956 
Q 1366 3272 1645 3428 
Q 1925 3584 2291 3584 
Q 2894 3584 3203 3211 
Q 3513 2838 3513 2113 
z
" id="DejaVuSans-6e" transform="scale(0.015625)"/>
       <path id="DejaVuSans-20" transform="scale(0.015625)"/>
       <path d="M 950 838 
Q 1078 213 1350 213 
Q 1531 213 1766 572 
L 2181 572 
Q 1994 253 1775 88 
Q 1538 -91 1319 -91 
Q 831 -91 634 344 
L 400 0 
L -88 0 
Q 250 459 500 888 
Q 469 1131 469 1397 
Q 469 1872 566 2347 
Q 931 4131 1256 4497 
Q 1481 4750 1866 4750 
Q 2256 4750 2256 4209 
Q 2253 3966 2197 3675 
Q 1972 2484 950 838 
z
M 947 1656 
Q 1531 2744 1709 3613 
Q 1803 4072 1803 4191 
Q 1803 4406 1725 4406 
Q 1384 4134 1081 2516 
Q 997 2063 947 1656 
z
" id="DejaVuSans-Oblique-2113" transform="scale(0.015625)"/>
      </defs>
      <use transform="translate(0 0.78125)" xlink:href="#DejaVuSans-6d"/>
      <use transform="translate(97.412109 0.78125)" xlink:href="#DejaVuSans-65"/>
      <use transform="translate(158.935547 0.78125)" xlink:href="#DejaVuSans-61"/>
      <use transform="translate(220.214844 0.78125)" xlink:href="#DejaVuSans-6e"/>
      <use transform="translate(283.59375 0.78125)" xlink:href="#DejaVuSans-20"/>
      <use transform="translate(315.380859 0.78125)" xlink:href="#DejaVuSans-Oblique-2113"/>
     </g>
    </g>
   </g>
   <g id="line2d_15">
    <path clip-path="url(#p9d0132d85c)" d="M 64.329545 231.681818 
L 65.202191 231.57632 
L 66.074836 231.260455 
L 66.947482 230.736107 
L 68.111009 229.718207 
L 69.274536 228.345915 
L 70.438063 226.633251 
L 71.892472 224.040077 
L 73.346881 220.981078 
L 75.092172 216.757814 
L 77.128344 211.174105 
L 79.455399 204.095319 
L 82.364216 194.498259 
L 87.309207 177.237416 
L 93.417725 156.064241 
L 97.199188 143.743858 
L 100.689769 133.141175 
L 103.889469 124.139294 
L 107.089169 115.83969 
L 109.997987 108.893736 
L 112.906805 102.495428 
L 115.815622 96.614773 
L 118.72444 91.21768 
L 121.633258 86.268376 
L 124.542076 81.731072 
L 127.450894 77.571055 
L 130.650594 73.391531 
L 133.850293 69.587829 
L 137.049993 66.122481 
L 140.540575 62.68809 
L 144.031156 59.576246 
L 147.521738 56.751666 
L 151.303201 53.979715 
L 155.084664 51.473334 
L 159.157009 49.036225 
L 163.520236 46.690055 
L 168.174345 44.451224 
L 173.119335 42.331268 
L 178.355207 40.337392 
L 183.881962 38.473087 
L 189.990479 36.657566 
L 196.389879 34.989661 
L 203.371041 33.400113 
L 210.933968 31.904685 
L 219.36954 30.467014 
L 228.677757 29.111665 
L 238.85862 27.85428 
L 250.493892 26.647679 
L 263.583572 25.522061 
L 278.418544 24.476563 
L 295.289687 23.514411 
L 315.069649 22.616299 
L 338.340192 21.791743 
L 354.920455 21.318182 
L 354.920455 21.318182 
" style="fill:none;stroke:#1f77b4;stroke-linecap:square;stroke-width:1.5;"/>
   </g>
   <g id="patch_3">
    <path d="M 49.8 242.2 
L 49.8 10.8 
" style="fill:none;stroke:#000000;stroke-linecap:square;stroke-linejoin:miter;stroke-width:0.8;"/>
   </g>
   <g id="patch_4">
    <path d="M 369.45 242.2 
L 369.45 10.8 
" style="fill:none;stroke:#000000;stroke-linecap:square;stroke-linejoin:miter;stroke-width:0.8;"/>
   </g>
   <g id="patch_5">
    <path d="M 49.8 242.2 
L 369.45 242.2 
" style="fill:none;stroke:#000000;stroke-linecap:square;stroke-linejoin:miter;stroke-width:0.8;"/>
   </g>
   <g id="patch_6">
    <path d="M 49.8 10.8 
L 369.45 10.8 
" style="fill:none;stroke:#000000;stroke-linecap:square;stroke-linejoin:miter;stroke-width:0.8;"/>
   </g>
  </g>
  <g id="axes_2">
   <g id="matplotlib.axis_3">
    <g id="ytick_9">
     <g id="line2d_16">
      <defs>
       <path d="M 0 0 
L 3.5 0 
" id="m456e718646" style="stroke:#000000;stroke-width:0.8;"/>
      </defs>
      <g>
       <use style="stroke:#000000;stroke-width:0.8;" x="369.45" xlink:href="#m456e718646" y="232.348178"/>
      </g>
     </g>
     <g id="text_17">
      <!-- 0.000 -->
      <g style="fill:#ff7f0e;" transform="translate(376.45 236.147397)scale(0.1 -0.1)">
       <use xlink:href="#DejaVuSans-30"/>
       <use x="63.623047" xlink:href="#DejaVuSans-2e"/>
       <use x="95.410156" xlink:href="#DejaVuSans-30"/>
       <use x="159.033203" xlink:href="#DejaVuSans-30"/>
       <use x="222.65625" xlink:href="#DejaVuSans-30"/>
      </g>
     </g>
    </g>
    <g id="ytick_10">
     <g id="line2d_17">
      <g>
       <use style="stroke:#000000;stroke-width:0.8;" x="369.45" xlink:href="#m456e718646" y="183.905201"/>
      </g>
     </g>
     <g id="text_18">
      <!-- 0.002 -->
      <g style="fill:#ff7f0e;" transform="translate(376.45 187.70442)scale(0.1 -0.1)">
       <use xlink:href="#DejaVuSans-30"/>
       <use x="63.623047" xlink:href="#DejaVuSans-2e"/>
       <use x="95.410156" xlink:href="#DejaVuSans-30"/>
       <use x="159.033203" xlink:href="#DejaVuSans-30"/>
       <use x="222.65625" xlink:href="#DejaVuSans-32"/>
      </g>
     </g>
    </g>
    <g id="ytick_11">
     <g id="line2d_18">
      <g>
       <use style="stroke:#000000;stroke-width:0.8;" x="369.45" xlink:href="#m456e718646" y="135.462224"/>
      </g>
     </g>
     <g id="text_19">
      <!-- 0.004 -->
      <g style="fill:#ff7f0e;" transform="translate(376.45 139.261443)scale(0.1 -0.1)">
       <use xlink:href="#DejaVuSans-30"/>
       <use x="63.623047" xlink:href="#DejaVuSans-2e"/>
       <use x="95.410156" xlink:href="#DejaVuSans-30"/>
       <use x="159.033203" xlink:href="#DejaVuSans-30"/>
       <use x="222.65625" xlink:href="#DejaVuSans-34"/>
      </g>
     </g>
    </g>
    <g id="ytick_12">
     <g id="line2d_19">
      <g>
       <use style="stroke:#000000;stroke-width:0.8;" x="369.45" xlink:href="#m456e718646" y="87.019247"/>
      </g>
     </g>
     <g id="text_20">
      <!-- 0.006 -->
      <g style="fill:#ff7f0e;" transform="translate(376.45 90.818466)scale(0.1 -0.1)">
       <use xlink:href="#DejaVuSans-30"/>
       <use x="63.623047" xlink:href="#DejaVuSans-2e"/>
       <use x="95.410156" xlink:href="#DejaVuSans-30"/>
       <use x="159.033203" xlink:href="#DejaVuSans-30"/>
       <use x="222.65625" xlink:href="#DejaVuSans-36"/>
      </g>
     </g>
    </g>
    <g id="ytick_13">
     <g id="line2d_20">
      <g>
       <use style="stroke:#000000;stroke-width:0.8;" x="369.45" xlink:href="#m456e718646" y="38.57627"/>
      </g>
     </g>
     <g id="text_21">
      <!-- 0.008 -->
      <g style="fill:#ff7f0e;" transform="translate(376.45 42.375489)scale(0.1 -0.1)">
       <use xlink:href="#DejaVuSans-30"/>
       <use x="63.623047" xlink:href="#DejaVuSans-2e"/>
       <use x="95.410156" xlink:href="#DejaVuSans-30"/>
       <use x="159.033203" xlink:href="#DejaVuSans-30"/>
       <use x="222.65625" xlink:href="#DejaVuSans-38"/>
      </g>
     </g>
    </g>
    <g id="text_22">
     <!-- var $\ell$ -->
     <g style="fill:#ff7f0e;" transform="translate(416.676562 138.25)rotate(-90)scale(0.1 -0.1)">
      <defs>
       <path d="M 191 3500 
L 800 3500 
L 1894 563 
L 2988 3500 
L 3597 3500 
L 2284 0 
L 1503 0 
L 191 3500 
z
" id="DejaVuSans-76" transform="scale(0.015625)"/>
       <path d="M 2631 2963 
Q 2534 3019 2420 3045 
Q 2306 3072 2169 3072 
Q 1681 3072 1420 2755 
Q 1159 2438 1159 1844 
L 1159 0 
L 581 0 
L 581 3500 
L 1159 3500 
L 1159 2956 
Q 1341 3275 1631 3429 
Q 1922 3584 2338 3584 
Q 2397 3584 2469 3576 
Q 2541 3569 2628 3553 
L 2631 2963 
z
" id="DejaVuSans-72" transform="scale(0.015625)"/>
      </defs>
      <use transform="translate(0 0.78125)" xlink:href="#DejaVuSans-76"/>
      <use transform="translate(59.179688 0.78125)" xlink:href="#DejaVuSans-61"/>
      <use transform="translate(120.458984 0.78125)" xlink:href="#DejaVuSans-72"/>
      <use transform="translate(161.572266 0.78125)" xlink:href="#DejaVuSans-20"/>
      <use transform="translate(193.359375 0.78125)" xlink:href="#DejaVuSans-Oblique-2113"/>
     </g>
    </g>
   </g>
   <g id="line2d_21">
    <path clip-path="url(#p9d0132d85c)" d="M 64.329545 21.318182 
L 65.202191 21.411066 
L 66.074836 21.689572 
L 66.947482 22.153261 
L 68.111009 23.058246 
L 69.274536 24.288424 
L 70.438063 25.840009 
L 71.892472 28.223644 
L 73.346881 31.088452 
L 74.80129 34.417408 
L 76.546581 38.994232 
L 78.582753 45.076837 
L 80.618926 51.87237 
L 83.236862 61.481538 
L 86.436562 74.200686 
L 92.545079 99.727938 
L 97.199188 118.686008 
L 100.689769 131.948916 
L 103.598587 142.172517 
L 106.507405 151.565454 
L 109.125341 159.290064 
L 111.743277 166.332762 
L 114.361213 172.719236 
L 116.97915 178.486208 
L 119.597086 183.67695 
L 122.215022 188.337857 
L 124.832958 192.515951 
L 127.450894 196.257154 
L 130.06883 199.605156 
L 132.686766 202.600746 
L 135.304702 205.281462 
L 138.21352 207.932198 
L 141.122338 210.278417 
L 144.031156 212.357422 
L 147.230856 214.374808 
L 150.721437 216.296792 
L 154.212019 217.969013 
L 157.993482 219.54045 
L 162.065827 220.996416 
L 166.429054 222.328614 
L 171.374044 223.603108 
L 176.900799 224.78702 
L 183.009316 225.859917 
L 189.990479 226.849237 
L 197.844287 227.731105 
L 206.861623 228.518385 
L 217.624249 229.229828 
L 230.71393 229.862221 
L 247.00331 230.41328 
L 267.655917 230.878273 
L 295.289687 231.265981 
L 334.558729 231.579034 
L 354.920455 231.681818 
L 354.920455 231.681818 
" style="fill:none;stroke:#ff7f0e;stroke-linecap:square;stroke-width:1.5;"/>
   </g>
   <g id="patch_7">
    <path d="M 49.8 242.2 
L 49.8 10.8 
" style="fill:none;stroke:#000000;stroke-linecap:square;stroke-linejoin:miter;stroke-width:0.8;"/>
   </g>
   <g id="patch_8">
    <path d="M 369.45 242.2 
L 369.45 10.8 
" style="fill:none;stroke:#000000;stroke-linecap:square;stroke-linejoin:miter;stroke-width:0.8;"/>
   </g>
   <g id="patch_9">
    <path d="M 49.8 242.2 
L 369.45 242.2 
" style="fill:none;stroke:#000000;stroke-linecap:square;stroke-linejoin:miter;stroke-width:0.8;"/>
   </g>
   <g id="patch_10">
    <path d="M 49.8 10.8 
L 369.45 10.8 
" style="fill:none;stroke:#000000;stroke-linecap:square;stroke-linejoin:miter;stroke-width:0.8;"/>
   </g>
  </g>
 </g>
 <defs>
  <clipPath id="p9d0132d85c">
   <rect height="231.4" width="319.65" x="49.8" y="10.8"/>
  </clipPath>
 </defs>
</svg>
