<?xml version="1.0" encoding="utf-8" standalone="no"?>
<!DOCTYPE svg PUBLIC "-//W3C//DTD SVG 1.1//EN"
  "http://www.w3.org/Graphics/SVG/1.1/DTD/svg11.dtd">
<svg xmlns:xlink="http://www.w3.org/1999/xlink" width="576pt" height="576pt" viewBox="0 0 576 576" xmlns="http://www.w3.org/2000/svg" version="1.1">
 <metadata>
  <rdf:RDF xmlns:dc="http://purl.org/dc/elements/1.1/" xmlns:cc="http://creativecommons.org/ns#" xmlns:rdf="http://www.w3.org/1999/02/22-rdf-syntax-ns#">
   <cc:Work>
    <dc:type rdf:resource="http://purl.org/dc/dcmitype/StillImage"/>
    <dc:date>2022-07-13T03:30:11.065545</dc:date>
    <dc:format>image/svg+xml</dc:format>
    <dc:creator>
     <cc:Agent>
      <dc:title>Matplotlib v3.5.0, https://matplotlib.org/</dc:title>
     </cc:Agent>
    </dc:creator>
   </cc:Work>
  </rdf:RDF>
 </metadata>
 <defs>
  <style type="text/css">*{stroke-linejoin: round; stroke-linecap: butt}</style>
 </defs>
 <g id="figure_1">
  <g id="patch_1">
   <path d="M 0 576 
L 576 576 
L 576 0 
L 0 0 
z
" style="fill: #ffffff"/>
  </g>
  <g id="axes_1">
   <g id="patch_2">
    <path d="M 113.51 234.79 
L 437.47 234.79 
L 437.47 35.28 
L 113.51 35.28 
z
" style="fill: #ffffff"/>
   </g>
   <g id="matplotlib.axis_1">
    <g id="xtick_1">
     <g id="line2d_1">
      <defs>
       <path id="m8c1c86ce6e" d="M 0 0 
L 0 3.5 
" style="stroke: #000000; stroke-width: 0.8"/>
      </defs>
      <g>
       <use xlink:href="#m8c1c86ce6e" x="128.235455" y="234.79" style="stroke: #000000; stroke-width: 0.8"/>
      </g>
     </g>
     <g id="text_1">
      <!-- 0.0 -->
      <g transform="translate(115.512955 253.9475)scale(0.16 -0.16)">
       <defs>
        <path id="DejaVuSerif-30" d="M 2034 219 
Q 2513 219 2750 744 
Q 2988 1269 2988 2328 
Q 2988 3391 2750 3916 
Q 2513 4441 2034 4441 
Q 1556 4441 1318 3916 
Q 1081 3391 1081 2328 
Q 1081 1269 1318 744 
Q 1556 219 2034 219 
z
M 2034 -91 
Q 1275 -91 848 546 
Q 422 1184 422 2328 
Q 422 3475 848 4112 
Q 1275 4750 2034 4750 
Q 2797 4750 3222 4112 
Q 3647 3475 3647 2328 
Q 3647 1184 3222 546 
Q 2797 -91 2034 -91 
z
" transform="scale(0.015625)"/>
        <path id="DejaVuSerif-2e" d="M 603 325 
Q 603 500 722 622 
Q 841 744 1019 744 
Q 1191 744 1312 622 
Q 1434 500 1434 325 
Q 1434 153 1312 31 
Q 1191 -91 1019 -91 
Q 841 -91 722 29 
Q 603 150 603 325 
z
" transform="scale(0.015625)"/>
       </defs>
       <use xlink:href="#DejaVuSerif-30"/>
       <use xlink:href="#DejaVuSerif-2e" x="63.623047"/>
       <use xlink:href="#DejaVuSerif-30" x="95.410156"/>
      </g>
     </g>
    </g>
    <g id="xtick_2">
     <g id="line2d_2">
      <g>
       <use xlink:href="#m8c1c86ce6e" x="187.137273" y="234.79" style="stroke: #000000; stroke-width: 0.8"/>
      </g>
     </g>
     <g id="text_2">
      <!-- 0.2 -->
      <g transform="translate(174.414773 253.9475)scale(0.16 -0.16)">
       <defs>
        <path id="DejaVuSerif-32" d="M 819 3553 
L 469 3553 
L 469 4384 
Q 803 4563 1142 4656 
Q 1481 4750 1806 4750 
Q 2534 4750 2956 4397 
Q 3378 4044 3378 3438 
Q 3378 2753 2422 1800 
Q 2347 1728 2309 1691 
L 1131 513 
L 3078 513 
L 3078 1088 
L 3444 1088 
L 3444 0 
L 434 0 
L 434 341 
L 1850 1753 
Q 2319 2222 2519 2614 
Q 2719 3006 2719 3438 
Q 2719 3909 2473 4175 
Q 2228 4441 1797 4441 
Q 1350 4441 1106 4219 
Q 863 3997 819 3553 
z
" transform="scale(0.015625)"/>
       </defs>
       <use xlink:href="#DejaVuSerif-30"/>
       <use xlink:href="#DejaVuSerif-2e" x="63.623047"/>
       <use xlink:href="#DejaVuSerif-32" x="95.410156"/>
      </g>
     </g>
    </g>
    <g id="xtick_3">
     <g id="line2d_3">
      <g>
       <use xlink:href="#m8c1c86ce6e" x="246.039091" y="234.79" style="stroke: #000000; stroke-width: 0.8"/>
      </g>
     </g>
     <g id="text_3">
      <!-- 0.4 -->
      <g transform="translate(233.316591 253.9475)scale(0.16 -0.16)">
       <defs>
        <path id="DejaVuSerif-34" d="M 2234 1581 
L 2234 4063 
L 641 1581 
L 2234 1581 
z
M 3609 0 
L 1484 0 
L 1484 331 
L 2234 331 
L 2234 1247 
L 197 1247 
L 197 1588 
L 2241 4750 
L 2859 4750 
L 2859 1581 
L 3750 1581 
L 3750 1247 
L 2859 1247 
L 2859 331 
L 3609 331 
L 3609 0 
z
" transform="scale(0.015625)"/>
       </defs>
       <use xlink:href="#DejaVuSerif-30"/>
       <use xlink:href="#DejaVuSerif-2e" x="63.623047"/>
       <use xlink:href="#DejaVuSerif-34" x="95.410156"/>
      </g>
     </g>
    </g>
    <g id="xtick_4">
     <g id="line2d_4">
      <g>
       <use xlink:href="#m8c1c86ce6e" x="304.940909" y="234.79" style="stroke: #000000; stroke-width: 0.8"/>
      </g>
     </g>
     <g id="text_4">
      <!-- 0.6 -->
      <g transform="translate(292.218409 253.9475)scale(0.16 -0.16)">
       <defs>
        <path id="DejaVuSerif-36" d="M 2094 219 
Q 2534 219 2771 542 
Q 3009 866 3009 1472 
Q 3009 2078 2771 2401 
Q 2534 2725 2094 2725 
Q 1647 2725 1412 2412 
Q 1178 2100 1178 1509 
Q 1178 888 1415 553 
Q 1653 219 2094 219 
z
M 1075 2569 
Q 1288 2803 1556 2918 
Q 1825 3034 2163 3034 
Q 2859 3034 3264 2615 
Q 3669 2197 3669 1472 
Q 3669 763 3233 336 
Q 2797 -91 2069 -91 
Q 1278 -91 853 498 
Q 428 1088 428 2181 
Q 428 3406 931 4078 
Q 1434 4750 2350 4750 
Q 2597 4750 2869 4703 
Q 3141 4656 3425 4563 
L 3425 3794 
L 3072 3794 
Q 3034 4109 2831 4275 
Q 2628 4441 2284 4441 
Q 1678 4441 1381 3981 
Q 1084 3522 1075 2569 
z
" transform="scale(0.015625)"/>
       </defs>
       <use xlink:href="#DejaVuSerif-30"/>
       <use xlink:href="#DejaVuSerif-2e" x="63.623047"/>
       <use xlink:href="#DejaVuSerif-36" x="95.410156"/>
      </g>
     </g>
    </g>
    <g id="xtick_5">
     <g id="line2d_5">
      <g>
       <use xlink:href="#m8c1c86ce6e" x="363.842727" y="234.79" style="stroke: #000000; stroke-width: 0.8"/>
      </g>
     </g>
     <g id="text_5">
      <!-- 0.8 -->
      <g transform="translate(351.120227 253.9475)scale(0.16 -0.16)">
       <defs>
        <path id="DejaVuSerif-38" d="M 2981 1275 
Q 2981 1775 2732 2051 
Q 2484 2328 2034 2328 
Q 1584 2328 1336 2051 
Q 1088 1775 1088 1275 
Q 1088 772 1336 495 
Q 1584 219 2034 219 
Q 2484 219 2732 495 
Q 2981 772 2981 1275 
z
M 2853 3541 
Q 2853 3966 2637 4203 
Q 2422 4441 2034 4441 
Q 1650 4441 1433 4203 
Q 1216 3966 1216 3541 
Q 1216 3113 1433 2875 
Q 1650 2638 2034 2638 
Q 2422 2638 2637 2875 
Q 2853 3113 2853 3541 
z
M 2516 2484 
Q 3047 2413 3344 2092 
Q 3641 1772 3641 1275 
Q 3641 619 3225 264 
Q 2809 -91 2034 -91 
Q 1263 -91 845 264 
Q 428 619 428 1275 
Q 428 1772 725 2092 
Q 1022 2413 1556 2484 
Q 1084 2569 832 2842 
Q 581 3116 581 3541 
Q 581 4103 968 4426 
Q 1356 4750 2034 4750 
Q 2713 4750 3100 4426 
Q 3488 4103 3488 3541 
Q 3488 3116 3236 2842 
Q 2984 2569 2516 2484 
z
" transform="scale(0.015625)"/>
       </defs>
       <use xlink:href="#DejaVuSerif-30"/>
       <use xlink:href="#DejaVuSerif-2e" x="63.623047"/>
       <use xlink:href="#DejaVuSerif-38" x="95.410156"/>
      </g>
     </g>
    </g>
    <g id="xtick_6">
     <g id="line2d_6">
      <g>
       <use xlink:href="#m8c1c86ce6e" x="422.744545" y="234.79" style="stroke: #000000; stroke-width: 0.8"/>
      </g>
     </g>
     <g id="text_6">
      <!-- 1.0 -->
      <g transform="translate(410.022045 253.9475)scale(0.16 -0.16)">
       <defs>
        <path id="DejaVuSerif-31" d="M 909 0 
L 909 331 
L 1722 331 
L 1722 4213 
L 781 3603 
L 781 4013 
L 1919 4750 
L 2350 4750 
L 2350 331 
L 3163 331 
L 3163 0 
L 909 0 
z
" transform="scale(0.015625)"/>
       </defs>
       <use xlink:href="#DejaVuSerif-31"/>
       <use xlink:href="#DejaVuSerif-2e" x="63.623047"/>
       <use xlink:href="#DejaVuSerif-30" x="95.410156"/>
      </g>
     </g>
    </g>
    <g id="text_7">
     <!-- $\beta$ -->
     <g transform="translate(270.93 273.4325)scale(0.16 -0.16)">
      <defs>
       <path id="Cmmi10-af" d="M 172 -1241 
Q 153 -1241 137 -1219 
Q 122 -1197 122 -1178 
L 1106 2778 
Q 1191 3097 1353 3397 
Q 1516 3697 1761 3955 
Q 2006 4213 2300 4363 
Q 2594 4513 2925 4513 
Q 3163 4513 3355 4408 
Q 3547 4303 3658 4114 
Q 3769 3925 3769 3688 
Q 3769 3459 3681 3251 
Q 3594 3044 3437 2864 
Q 3281 2684 3103 2572 
Q 3206 2506 3287 2404 
Q 3369 2303 3419 2192 
Q 3469 2081 3497 1945 
Q 3525 1809 3525 1691 
Q 3525 1363 3384 1044 
Q 3244 725 3001 465 
Q 2759 206 2446 54 
Q 2134 -97 1806 -97 
Q 1447 -97 1159 100 
Q 872 297 763 634 
L 300 -1203 
Q 300 -1241 250 -1241 
L 172 -1241 
z
M 1819 78 
Q 2106 78 2339 267 
Q 2572 456 2723 742 
Q 2875 1028 2954 1348 
Q 3034 1669 3034 1931 
Q 3034 2256 2847 2444 
Q 2628 2363 2419 2363 
Q 1913 2363 1913 2534 
Q 1913 2759 2491 2759 
Q 2697 2759 2869 2694 
Q 3006 2800 3118 3006 
Q 3231 3213 3289 3438 
Q 3347 3663 3347 3859 
Q 3347 4069 3236 4208 
Q 3125 4347 2913 4347 
Q 2522 4347 2186 4106 
Q 1850 3866 1619 3498 
Q 1388 3131 1288 2741 
L 934 1325 
Q 900 1178 891 997 
Q 891 597 1153 337 
Q 1416 78 1819 78 
z
M 2106 2553 
Q 2203 2528 2425 2528 
Q 2534 2528 2644 2566 
Q 2638 2572 2619 2572 
Q 2550 2591 2472 2591 
Q 2181 2591 2106 2553 
z
" transform="scale(0.015625)"/>
      </defs>
      <use xlink:href="#Cmmi10-af" transform="translate(0 0.484375)"/>
     </g>
    </g>
    <g id="text_8">
     <!-- 1e−7 -->
     <g transform="translate(394.2325 272.4325)scale(0.16 -0.16)">
      <defs>
       <path id="DejaVuSerif-65" d="M 3469 1600 
L 991 1600 
L 991 1575 
Q 991 903 1244 561 
Q 1497 219 1991 219 
Q 2369 219 2611 417 
Q 2853 616 2950 1006 
L 3413 1006 
Q 3275 459 2904 184 
Q 2534 -91 1931 -91 
Q 1203 -91 761 389 
Q 319 869 319 1663 
Q 319 2450 753 2931 
Q 1188 3413 1894 3413 
Q 2647 3413 3050 2948 
Q 3453 2484 3469 1600 
z
M 2791 1931 
Q 2772 2513 2545 2808 
Q 2319 3103 1894 3103 
Q 1497 3103 1269 2806 
Q 1041 2509 991 1931 
L 2791 1931 
z
" transform="scale(0.015625)"/>
       <path id="DejaVuSerif-2212" d="M 678 2259 
L 4684 2259 
L 4684 1753 
L 678 1753 
L 678 2259 
z
" transform="scale(0.015625)"/>
       <path id="DejaVuSerif-37" d="M 3609 4347 
L 1784 0 
L 1319 0 
L 3059 4153 
L 903 4153 
L 903 3578 
L 538 3578 
L 538 4666 
L 3609 4666 
L 3609 4347 
z
" transform="scale(0.015625)"/>
      </defs>
      <use xlink:href="#DejaVuSerif-31"/>
      <use xlink:href="#DejaVuSerif-65" x="63.623047"/>
      <use xlink:href="#DejaVuSerif-2212" x="122.802734"/>
      <use xlink:href="#DejaVuSerif-37" x="206.591797"/>
     </g>
    </g>
   </g>
   <g id="matplotlib.axis_2">
    <g id="ytick_1">
     <g id="line2d_7">
      <defs>
       <path id="m089ef218b1" d="M 0 0 
L -3.5 0 
" style="stroke: #000000; stroke-width: 0.8"/>
      </defs>
      <g>
       <use xlink:href="#m089ef218b1" x="113.51" y="134.890625" style="stroke: #000000; stroke-width: 0.8"/>
      </g>
     </g>
     <g id="text_9">
      <!-- ~1.0524 -->
      <g style="fill: #1f77b4" transform="translate(37.1175 140.969375)scale(0.16 -0.16)">
       <defs>
        <path id="DejaVuSerif-7e" d="M 4684 2522 
L 4684 2059 
Q 4372 1784 4090 1653 
Q 3809 1522 3519 1522 
Q 3219 1522 2675 1728 
L 2644 1741 
Q 2609 1753 2541 1781 
Q 2081 1959 1784 1959 
Q 1497 1959 1226 1845 
Q 956 1731 678 1491 
L 678 1966 
Q 991 2238 1270 2364 
Q 1550 2491 1844 2491 
Q 2144 2491 2688 2284 
L 2719 2272 
Q 2753 2259 2816 2234 
Q 3269 2053 3572 2053 
Q 3859 2053 4134 2168 
Q 4409 2284 4684 2522 
z
" transform="scale(0.015625)"/>
        <path id="DejaVuSerif-35" d="M 3219 4666 
L 3219 4153 
L 1081 4153 
L 1081 2816 
Q 1244 2928 1461 2984 
Q 1678 3041 1947 3041 
Q 2703 3041 3140 2622 
Q 3578 2203 3578 1478 
Q 3578 738 3136 323 
Q 2694 -91 1894 -91 
Q 1572 -91 1234 -12 
Q 897 66 544 225 
L 544 1131 
L 897 1131 
Q 925 688 1179 453 
Q 1434 219 1894 219 
Q 2388 219 2653 544 
Q 2919 869 2919 1478 
Q 2919 2084 2655 2407 
Q 2391 2731 1894 2731 
Q 1613 2731 1398 2631 
Q 1184 2531 1019 2322 
L 750 2322 
L 750 4666 
L 3219 4666 
z
" transform="scale(0.015625)"/>
       </defs>
       <use xlink:href="#DejaVuSerif-7e"/>
       <use xlink:href="#DejaVuSerif-31" x="83.789062"/>
       <use xlink:href="#DejaVuSerif-2e" x="147.412109"/>
       <use xlink:href="#DejaVuSerif-30" x="179.199219"/>
       <use xlink:href="#DejaVuSerif-35" x="242.822266"/>
       <use xlink:href="#DejaVuSerif-32" x="306.445312"/>
       <use xlink:href="#DejaVuSerif-34" x="370.068359"/>
      </g>
     </g>
    </g>
    <g id="text_10">
     <!-- mean $\ell$ -->
     <g style="fill: #1f77b4" transform="translate(29.79 163.195)rotate(-90)scale(0.16 -0.16)">
      <defs>
       <path id="DejaVuSerif-6d" d="M 3316 2675 
Q 3481 3041 3739 3227 
Q 3997 3413 4341 3413 
Q 4863 3413 5119 3089 
Q 5375 2766 5375 2113 
L 5375 331 
L 5894 331 
L 5894 0 
L 4300 0 
L 4300 331 
L 4800 331 
L 4800 2047 
Q 4800 2556 4650 2772 
Q 4500 2988 4153 2988 
Q 3769 2988 3567 2697 
Q 3366 2406 3366 1850 
L 3366 331 
L 3866 331 
L 3866 0 
L 2291 0 
L 2291 331 
L 2791 331 
L 2791 2069 
Q 2791 2566 2641 2777 
Q 2491 2988 2144 2988 
Q 1759 2988 1557 2697 
Q 1356 2406 1356 1850 
L 1356 331 
L 1856 331 
L 1856 0 
L 263 0 
L 263 331 
L 781 331 
L 781 2994 
L 231 2994 
L 231 3322 
L 1356 3322 
L 1356 2731 
Q 1516 3063 1762 3238 
Q 2009 3413 2322 3413 
Q 2709 3413 2968 3220 
Q 3228 3028 3316 2675 
z
" transform="scale(0.015625)"/>
       <path id="DejaVuSerif-61" d="M 2547 1044 
L 2547 1747 
L 1806 1747 
Q 1378 1747 1168 1562 
Q 959 1378 959 997 
Q 959 650 1171 447 
Q 1384 244 1747 244 
Q 2106 244 2326 466 
Q 2547 688 2547 1044 
z
M 3122 2075 
L 3122 331 
L 3634 331 
L 3634 0 
L 2547 0 
L 2547 359 
Q 2356 128 2106 18 
Q 1856 -91 1522 -91 
Q 969 -91 644 203 
Q 319 497 319 997 
Q 319 1513 691 1797 
Q 1063 2081 1741 2081 
L 2547 2081 
L 2547 2309 
Q 2547 2688 2317 2895 
Q 2088 3103 1672 3103 
Q 1328 3103 1125 2947 
Q 922 2791 872 2484 
L 575 2484 
L 575 3156 
Q 875 3284 1158 3348 
Q 1441 3413 1709 3413 
Q 2400 3413 2761 3070 
Q 3122 2728 3122 2075 
z
" transform="scale(0.015625)"/>
       <path id="DejaVuSerif-6e" d="M 263 0 
L 263 331 
L 781 331 
L 781 2988 
L 231 2988 
L 231 3322 
L 1356 3322 
L 1356 2731 
Q 1516 3069 1770 3241 
Q 2025 3413 2363 3413 
Q 2913 3413 3172 3097 
Q 3431 2781 3431 2113 
L 3431 331 
L 3944 331 
L 3944 0 
L 2356 0 
L 2356 331 
L 2853 331 
L 2853 1931 
Q 2853 2541 2703 2767 
Q 2553 2994 2175 2994 
Q 1775 2994 1565 2701 
Q 1356 2409 1356 1850 
L 1356 331 
L 1856 331 
L 1856 0 
L 263 0 
z
" transform="scale(0.015625)"/>
       <path id="DejaVuSerif-20" transform="scale(0.015625)"/>
       <path id="Cmmi10-60" d="M 153 475 
Q 125 475 94 509 
Q 63 544 63 575 
Q 63 628 594 1113 
Q 594 1141 592 1159 
Q 591 1178 588 1197 
Q 588 1472 631 1758 
Q 675 2044 751 2328 
Q 828 2613 943 2922 
Q 1059 3231 1178 3463 
Q 1384 3884 1628 4198 
Q 1872 4513 2169 4513 
Q 2372 4513 2459 4373 
Q 2547 4234 2547 4025 
Q 2547 2853 991 1269 
Q 966 994 966 878 
Q 966 78 1331 78 
Q 1488 78 1642 161 
Q 1797 244 1908 341 
Q 2019 438 2216 628 
Q 2228 641 2253 641 
Q 2288 641 2319 603 
Q 2350 566 2350 531 
Q 2350 509 2322 488 
Q 2038 209 1809 56 
Q 1581 -97 1319 -97 
Q 981 -97 817 193 
Q 653 484 609 884 
Q 438 713 191 488 
Q 184 475 153 475 
z
M 1044 1575 
Q 1384 1938 1681 2338 
Q 1978 2738 2176 3180 
Q 2375 3622 2375 4044 
Q 2375 4347 2163 4347 
Q 1934 4347 1696 3801 
Q 1459 3256 1290 2622 
Q 1122 1988 1044 1575 
z
" transform="scale(0.015625)"/>
      </defs>
      <use xlink:href="#DejaVuSerif-6d" transform="translate(0 0.484375)"/>
      <use xlink:href="#DejaVuSerif-65" transform="translate(94.824219 0.484375)"/>
      <use xlink:href="#DejaVuSerif-61" transform="translate(154.003906 0.484375)"/>
      <use xlink:href="#DejaVuSerif-6e" transform="translate(213.623047 0.484375)"/>
      <use xlink:href="#DejaVuSerif-20" transform="translate(278.027344 0.484375)"/>
      <use xlink:href="#Cmmi10-60" transform="translate(309.814453 0.484375)"/>
     </g>
    </g>
   </g>
   <g id="line2d_8">
    <path d="M 128.235455 135.1875 
L 273.573775 135.140625 
L 274.163382 135.046875 
L 388.547294 134.953125 
L 389.431705 134.921875 
L 390.316117 134.96875 
L 422.744545 134.890625 
L 422.744545 134.890625 
" clip-path="url(#p57b69f4393)" style="fill: none; stroke-dasharray: 1.5,2.475; stroke-dashoffset: 0; stroke: #1f77b4; stroke-width: 1.5"/>
   </g>
   <g id="patch_3">
    <path d="M 113.51 234.796875 
L 113.51 35.296875 
" style="fill: none; stroke: #000000; stroke-width: 0.8; stroke-linejoin: miter; stroke-linecap: square"/>
   </g>
   <g id="patch_4">
    <path d="M 437.47 234.796875 
L 437.47 35.296875 
" style="fill: none; stroke: #000000; stroke-width: 0.8; stroke-linejoin: miter; stroke-linecap: square"/>
   </g>
   <g id="patch_5">
    <path d="M 113.51 234.79 
L 437.47 234.79 
" style="fill: none; stroke: #000000; stroke-width: 0.8; stroke-linejoin: miter; stroke-linecap: square"/>
   </g>
   <g id="patch_6">
    <path d="M 113.51 35.28 
L 437.47 35.28 
" style="fill: none; stroke: #000000; stroke-width: 0.8; stroke-linejoin: miter; stroke-linecap: square"/>
   </g>
   <g id="text_11">
    <!-- $D=6$ -->
    <g transform="translate(113.51 31.287)scale(0.192 -0.192)">
     <defs>
      <path id="Cmmi10-44" d="M 313 0 
Q 250 0 250 84 
Q 253 100 262 139 
Q 272 178 289 201 
Q 306 225 331 225 
Q 722 225 878 269 
Q 959 297 997 441 
L 1875 3956 
Q 1888 4019 1888 4044 
Q 1888 4113 1813 4122 
Q 1691 4147 1350 4147 
Q 1288 4147 1288 4231 
Q 1291 4247 1300 4286 
Q 1309 4325 1326 4348 
Q 1344 4372 1369 4372 
L 3669 4372 
Q 4116 4372 4450 4155 
Q 4784 3938 4962 3570 
Q 5141 3203 5141 2759 
Q 5141 2269 4937 1778 
Q 4734 1288 4368 881 
Q 4003 475 3534 237 
Q 3066 0 2572 0 
L 313 0 
z
M 1509 275 
Q 1509 225 1728 225 
L 2472 225 
Q 2828 225 3159 372 
Q 3491 519 3750 775 
Q 3991 1016 4175 1406 
Q 4359 1797 4461 2222 
Q 4563 2647 4563 3003 
Q 4563 3263 4486 3472 
Q 4409 3681 4270 3831 
Q 4131 3981 3922 4064 
Q 3713 4147 3450 4147 
L 2747 4147 
Q 2572 4147 2515 4117 
Q 2459 4088 2413 3928 
L 1538 416 
Q 1509 338 1509 275 
z
" transform="scale(0.015625)"/>
      <path id="Cmr10-3d" d="M 481 850 
Q 428 850 393 890 
Q 359 931 359 978 
Q 359 1031 393 1068 
Q 428 1106 481 1106 
L 4500 1106 
Q 4547 1106 4581 1068 
Q 4616 1031 4616 978 
Q 4616 931 4581 890 
Q 4547 850 4500 850 
L 481 850 
z
M 481 2094 
Q 428 2094 393 2131 
Q 359 2169 359 2222 
Q 359 2269 393 2309 
Q 428 2350 481 2350 
L 4500 2350 
Q 4547 2350 4581 2309 
Q 4616 2269 4616 2222 
Q 4616 2169 4581 2131 
Q 4547 2094 4500 2094 
L 481 2094 
z
" transform="scale(0.015625)"/>
      <path id="Cmr10-36" d="M 1600 -141 
Q 1203 -141 937 70 
Q 672 281 526 617 
Q 381 953 325 1322 
Q 269 1691 269 2069 
Q 269 2575 466 3084 
Q 663 3594 1045 3928 
Q 1428 4263 1953 4263 
Q 2172 4263 2361 4180 
Q 2550 4097 2658 3936 
Q 2766 3775 2766 3547 
Q 2766 3416 2677 3327 
Q 2588 3238 2456 3238 
Q 2331 3238 2240 3328 
Q 2150 3419 2150 3547 
Q 2150 3672 2240 3762 
Q 2331 3853 2456 3853 
L 2491 3853 
Q 2409 3969 2261 4023 
Q 2113 4078 1953 4078 
Q 1759 4078 1595 3993 
Q 1431 3909 1300 3765 
Q 1169 3622 1081 3448 
Q 994 3275 945 3053 
Q 897 2831 884 2637 
Q 872 2444 872 2150 
Q 984 2413 1190 2580 
Q 1397 2747 1656 2747 
Q 1941 2747 2175 2631 
Q 2409 2516 2578 2311 
Q 2747 2106 2836 1843 
Q 2925 1581 2925 1313 
Q 2925 938 2758 598 
Q 2591 259 2287 59 
Q 1984 -141 1600 -141 
z
M 1600 63 
Q 1847 63 1997 175 
Q 2147 288 2217 473 
Q 2288 659 2305 848 
Q 2322 1038 2322 1313 
Q 2322 1675 2287 1931 
Q 2253 2188 2100 2383 
Q 1947 2578 1631 2578 
Q 1372 2578 1205 2403 
Q 1038 2228 961 1961 
Q 884 1694 884 1447 
Q 884 1363 891 1319 
Q 891 1309 889 1303 
Q 888 1297 884 1288 
Q 884 1013 940 731 
Q 997 450 1156 256 
Q 1316 63 1600 63 
z
" transform="scale(0.015625)"/>
     </defs>
     <use xlink:href="#Cmmi10-44" transform="translate(0 0.6875)"/>
     <use xlink:href="#Cmr10-3d" transform="translate(100.273438 0.6875)"/>
     <use xlink:href="#Cmr10-36" transform="translate(195.517578 0.6875)"/>
    </g>
   </g>
  </g>
  <g id="axes_2">
   <g id="patch_7">
    <path d="M 113.51 514.15 
L 437.47 514.15 
L 437.47 314.64 
L 113.51 314.64 
z
" style="fill: #ffffff"/>
   </g>
   <g id="matplotlib.axis_3">
    <g id="xtick_7">
     <g id="line2d_9">
      <g>
       <use xlink:href="#m8c1c86ce6e" x="128.235455" y="514.15" style="stroke: #000000; stroke-width: 0.8"/>
      </g>
     </g>
     <g id="text_12">
      <!-- 0 -->
      <g transform="translate(123.145455 533.3075)scale(0.16 -0.16)">
       <use xlink:href="#DejaVuSerif-30"/>
      </g>
     </g>
    </g>
    <g id="xtick_8">
     <g id="line2d_10">
      <g>
       <use xlink:href="#m8c1c86ce6e" x="187.137273" y="514.15" style="stroke: #000000; stroke-width: 0.8"/>
      </g>
     </g>
     <g id="text_13">
      <!-- 2 -->
      <g transform="translate(182.047273 533.3075)scale(0.16 -0.16)">
       <use xlink:href="#DejaVuSerif-32"/>
      </g>
     </g>
    </g>
    <g id="xtick_9">
     <g id="line2d_11">
      <g>
       <use xlink:href="#m8c1c86ce6e" x="246.039091" y="514.15" style="stroke: #000000; stroke-width: 0.8"/>
      </g>
     </g>
     <g id="text_14">
      <!-- 4 -->
      <g transform="translate(240.949091 533.3075)scale(0.16 -0.16)">
       <use xlink:href="#DejaVuSerif-34"/>
      </g>
     </g>
    </g>
    <g id="xtick_10">
     <g id="line2d_12">
      <g>
       <use xlink:href="#m8c1c86ce6e" x="304.940909" y="514.15" style="stroke: #000000; stroke-width: 0.8"/>
      </g>
     </g>
     <g id="text_15">
      <!-- 6 -->
      <g transform="translate(299.850909 533.3075)scale(0.16 -0.16)">
       <use xlink:href="#DejaVuSerif-36"/>
      </g>
     </g>
    </g>
    <g id="xtick_11">
     <g id="line2d_13">
      <g>
       <use xlink:href="#m8c1c86ce6e" x="363.842727" y="514.15" style="stroke: #000000; stroke-width: 0.8"/>
      </g>
     </g>
     <g id="text_16">
      <!-- 8 -->
      <g transform="translate(358.752727 533.3075)scale(0.16 -0.16)">
       <use xlink:href="#DejaVuSerif-38"/>
      </g>
     </g>
    </g>
    <g id="xtick_12">
     <g id="line2d_14">
      <g>
       <use xlink:href="#m8c1c86ce6e" x="422.744545" y="514.15" style="stroke: #000000; stroke-width: 0.8"/>
      </g>
     </g>
     <g id="text_17">
      <!-- 10 -->
      <g transform="translate(412.564545 533.3075)scale(0.16 -0.16)">
       <use xlink:href="#DejaVuSerif-31"/>
       <use xlink:href="#DejaVuSerif-30" x="63.623047"/>
      </g>
     </g>
    </g>
    <g id="text_18">
     <!-- $\beta$ -->
     <g transform="translate(270.93 552.7925)scale(0.16 -0.16)">
      <use xlink:href="#Cmmi10-af" transform="translate(0 0.484375)"/>
     </g>
    </g>
   </g>
   <g id="matplotlib.axis_4">
    <g id="ytick_2">
     <g id="line2d_15">
      <g>
       <use xlink:href="#m089ef218b1" x="113.51" y="503.24138" style="stroke: #000000; stroke-width: 0.8"/>
      </g>
     </g>
     <g id="text_19">
      <!-- 1.00 -->
      <g style="fill: #1f77b4" transform="translate(70.885 509.32013)scale(0.16 -0.16)">
       <use xlink:href="#DejaVuSerif-31"/>
       <use xlink:href="#DejaVuSerif-2e" x="63.623047"/>
       <use xlink:href="#DejaVuSerif-30" x="95.410156"/>
       <use xlink:href="#DejaVuSerif-30" x="159.033203"/>
      </g>
     </g>
    </g>
    <g id="ytick_3">
     <g id="line2d_16">
      <g>
       <use xlink:href="#m089ef218b1" x="113.51" y="469.057086" style="stroke: #000000; stroke-width: 0.8"/>
      </g>
     </g>
     <g id="text_20">
      <!-- 1.05 -->
      <g style="fill: #1f77b4" transform="translate(70.885 475.135836)scale(0.16 -0.16)">
       <use xlink:href="#DejaVuSerif-31"/>
       <use xlink:href="#DejaVuSerif-2e" x="63.623047"/>
       <use xlink:href="#DejaVuSerif-30" x="95.410156"/>
       <use xlink:href="#DejaVuSerif-35" x="159.033203"/>
      </g>
     </g>
    </g>
    <g id="ytick_4">
     <g id="line2d_17">
      <g>
       <use xlink:href="#m089ef218b1" x="113.51" y="434.872793" style="stroke: #000000; stroke-width: 0.8"/>
      </g>
     </g>
     <g id="text_21">
      <!-- 1.10 -->
      <g style="fill: #1f77b4" transform="translate(70.885 440.951543)scale(0.16 -0.16)">
       <use xlink:href="#DejaVuSerif-31"/>
       <use xlink:href="#DejaVuSerif-2e" x="63.623047"/>
       <use xlink:href="#DejaVuSerif-31" x="95.410156"/>
       <use xlink:href="#DejaVuSerif-30" x="159.033203"/>
      </g>
     </g>
    </g>
    <g id="ytick_5">
     <g id="line2d_18">
      <g>
       <use xlink:href="#m089ef218b1" x="113.51" y="400.688499" style="stroke: #000000; stroke-width: 0.8"/>
      </g>
     </g>
     <g id="text_22">
      <!-- 1.15 -->
      <g style="fill: #1f77b4" transform="translate(70.885 406.767249)scale(0.16 -0.16)">
       <use xlink:href="#DejaVuSerif-31"/>
       <use xlink:href="#DejaVuSerif-2e" x="63.623047"/>
       <use xlink:href="#DejaVuSerif-31" x="95.410156"/>
       <use xlink:href="#DejaVuSerif-35" x="159.033203"/>
      </g>
     </g>
    </g>
    <g id="ytick_6">
     <g id="line2d_19">
      <g>
       <use xlink:href="#m089ef218b1" x="113.51" y="366.504205" style="stroke: #000000; stroke-width: 0.8"/>
      </g>
     </g>
     <g id="text_23">
      <!-- 1.20 -->
      <g style="fill: #1f77b4" transform="translate(70.885 372.582955)scale(0.16 -0.16)">
       <use xlink:href="#DejaVuSerif-31"/>
       <use xlink:href="#DejaVuSerif-2e" x="63.623047"/>
       <use xlink:href="#DejaVuSerif-32" x="95.410156"/>
       <use xlink:href="#DejaVuSerif-30" x="159.033203"/>
      </g>
     </g>
    </g>
    <g id="ytick_7">
     <g id="line2d_20">
      <g>
       <use xlink:href="#m089ef218b1" x="113.51" y="332.319911" style="stroke: #000000; stroke-width: 0.8"/>
      </g>
     </g>
     <g id="text_24">
      <!-- 1.25 -->
      <g style="fill: #1f77b4" transform="translate(70.885 338.398661)scale(0.16 -0.16)">
       <use xlink:href="#DejaVuSerif-31"/>
       <use xlink:href="#DejaVuSerif-2e" x="63.623047"/>
       <use xlink:href="#DejaVuSerif-32" x="95.410156"/>
       <use xlink:href="#DejaVuSerif-35" x="159.033203"/>
      </g>
     </g>
    </g>
    <g id="text_25">
     <!-- mean $\ell$ -->
     <g style="fill: #1f77b4" transform="translate(63.5575 442.555)rotate(-90)scale(0.16 -0.16)">
      <use xlink:href="#DejaVuSerif-6d" transform="translate(0 0.484375)"/>
      <use xlink:href="#DejaVuSerif-65" transform="translate(94.824219 0.484375)"/>
      <use xlink:href="#DejaVuSerif-61" transform="translate(154.003906 0.484375)"/>
      <use xlink:href="#DejaVuSerif-6e" transform="translate(213.623047 0.484375)"/>
      <use xlink:href="#DejaVuSerif-20" transform="translate(278.027344 0.484375)"/>
      <use xlink:href="#Cmmi10-60" transform="translate(309.814453 0.484375)"/>
     </g>
    </g>
   </g>
   <g id="line2d_21">
    <path d="M 128.235455 505.081364 
L 129.119866 504.940696 
L 130.004278 504.519988 
L 130.88869 503.823093 
L 131.773101 502.856332 
L 132.952317 501.162795 
L 134.131532 499.031436 
L 135.605552 495.800838 
L 137.079571 492.008912 
L 138.848395 486.83023 
L 140.912022 480.104408 
L 143.860061 469.644572 
L 154.178197 432.154255 
L 157.42104 421.600996 
L 160.369079 412.798481 
L 163.022314 405.541208 
L 165.675549 398.902011 
L 168.328784 392.852309 
L 170.982019 387.354031 
L 173.635254 382.36452 
L 176.288489 377.839846 
L 178.941724 373.736939 
L 181.59496 370.014882 
L 184.542998 366.279753 
L 187.491037 362.920289 
L 190.439076 359.893802 
L 193.681919 356.904092 
L 196.924762 354.227063 
L 200.167605 351.824124 
L 203.705252 349.476127 
L 207.537702 347.212445 
L 211.370153 345.200686 
L 215.497407 343.27686 
L 219.919466 341.455329 
L 224.636328 339.745415 
L 229.942798 338.064766 
L 235.544072 336.524776 
L 241.734954 335.054823 
L 248.515444 333.675148 
L 256.180345 332.35122 
L 264.729658 331.111326 
L 274.163382 329.972579 
L 284.776323 328.916278 
L 297.158086 327.915038 
L 311.308673 327.000344 
L 327.817691 326.161059 
L 347.569552 325.388249 
L 371.153864 324.695283 
L 400.339449 324.06993 
L 422.744545 323.708636 
L 422.744545 323.708636 
" clip-path="url(#pbe812dcf80)" style="fill: none; stroke-dasharray: 1.5,2.475; stroke-dashoffset: 0; stroke: #1f77b4; stroke-width: 1.5"/>
   </g>
   <g id="patch_8">
    <path d="M 113.51 514.15 
L 113.51 314.64 
" style="fill: none; stroke: #000000; stroke-width: 0.8; stroke-linejoin: miter; stroke-linecap: square"/>
   </g>
   <g id="patch_9">
    <path d="M 437.47 514.15 
L 437.47 314.64 
" style="fill: none; stroke: #000000; stroke-width: 0.8; stroke-linejoin: miter; stroke-linecap: square"/>
   </g>
   <g id="patch_10">
    <path d="M 113.51 514.15 
L 437.47 514.15 
" style="fill: none; stroke: #000000; stroke-width: 0.8; stroke-linejoin: miter; stroke-linecap: square"/>
   </g>
   <g id="patch_11">
    <path d="M 113.51 314.64 
L 437.47 314.64 
" style="fill: none; stroke: #000000; stroke-width: 0.8; stroke-linejoin: miter; stroke-linecap: square"/>
   </g>
   <g id="text_26">
    <!-- $D=7$ -->
    <g transform="translate(113.51 310.647)scale(0.192 -0.192)">
     <defs>
      <path id="Cmr10-37" d="M 1113 166 
Q 1113 522 1175 862 
Q 1238 1203 1358 1536 
Q 1478 1869 1648 2189 
Q 1819 2509 2022 2791 
L 2606 3603 
L 1875 3603 
Q 738 3603 703 3572 
Q 619 3469 544 2981 
L 359 2981 
L 569 4325 
L 756 4325 
L 756 4306 
Q 756 4191 1147 4156 
Q 1538 4122 1913 4122 
L 3103 4122 
L 3103 3956 
Q 3103 3950 3101 3947 
Q 3100 3944 3097 3938 
L 2216 2700 
Q 1891 2219 1809 1631 
Q 1728 1044 1728 166 
Q 1728 41 1637 -50 
Q 1547 -141 1422 -141 
Q 1294 -141 1203 -50 
Q 1113 41 1113 166 
z
" transform="scale(0.015625)"/>
     </defs>
     <use xlink:href="#Cmmi10-44" transform="translate(0 0.6875)"/>
     <use xlink:href="#Cmr10-3d" transform="translate(100.273438 0.6875)"/>
     <use xlink:href="#Cmr10-37" transform="translate(195.517578 0.6875)"/>
    </g>
   </g>
  </g>
  <g id="axes_3">
   <g id="matplotlib.axis_5">
    <g id="ytick_8">
     <g id="line2d_22">
      <defs>
       <path id="me51d4158ee" d="M 0 0 
L 3.5 0 
" style="stroke: #000000; stroke-width: 0.8"/>
      </defs>
      <g>
       <use xlink:href="#me51d4158ee" x="437.47" y="78" style="stroke: #000000; stroke-width: 0.8"/>
      </g>
     </g>
     <g id="text_27">
      <!-- ~2.437e-05 -->
      <g style="fill: #ff7f0e" transform="translate(444.47 84.07875)scale(0.16 -0.16)">
       <defs>
        <path id="DejaVuSerif-33" d="M 622 4469 
Q 988 4606 1323 4678 
Q 1659 4750 1953 4750 
Q 2638 4750 3022 4454 
Q 3406 4159 3406 3634 
Q 3406 3213 3140 2930 
Q 2875 2647 2388 2547 
Q 2963 2466 3280 2130 
Q 3597 1794 3597 1259 
Q 3597 606 3158 257 
Q 2719 -91 1894 -91 
Q 1528 -91 1179 -12 
Q 831 66 488 225 
L 488 1131 
L 838 1131 
Q 869 681 1141 450 
Q 1413 219 1906 219 
Q 2384 219 2661 495 
Q 2938 772 2938 1253 
Q 2938 1803 2653 2086 
Q 2369 2369 1819 2369 
L 1522 2369 
L 1522 2688 
L 1678 2688 
Q 2225 2688 2498 2914 
Q 2772 3141 2772 3597 
Q 2772 4006 2547 4223 
Q 2322 4441 1900 4441 
Q 1478 4441 1245 4241 
Q 1013 4041 972 3647 
L 622 3647 
L 622 4469 
z
" transform="scale(0.015625)"/>
        <path id="DejaVuSerif-2d" d="M 281 1959 
L 1881 1959 
L 1881 1472 
L 281 1472 
L 281 1959 
z
" transform="scale(0.015625)"/>
       </defs>
       <use xlink:href="#DejaVuSerif-7e"/>
       <use xlink:href="#DejaVuSerif-32" x="83.789062"/>
       <use xlink:href="#DejaVuSerif-2e" x="147.412109"/>
       <use xlink:href="#DejaVuSerif-34" x="179.199219"/>
       <use xlink:href="#DejaVuSerif-33" x="242.822266"/>
       <use xlink:href="#DejaVuSerif-37" x="306.445312"/>
       <use xlink:href="#DejaVuSerif-65" x="370.068359"/>
       <use xlink:href="#DejaVuSerif-2d" x="429.248047"/>
       <use xlink:href="#DejaVuSerif-30" x="463.037109"/>
       <use xlink:href="#DejaVuSerif-35" x="526.660156"/>
      </g>
     </g>
    </g>
    <g id="text_28">
     <!-- var $\ell$ -->
     <g style="fill: #ff7f0e" transform="translate(555.0775 154.075)rotate(-90)scale(0.16 -0.16)">
      <defs>
       <path id="DejaVuSerif-76" d="M 1581 0 
L 359 2988 
L -19 2988 
L -19 3322 
L 1509 3322 
L 1509 2988 
L 978 2988 
L 1913 703 
L 2847 2988 
L 2350 2988 
L 2350 3322 
L 3597 3322 
L 3597 2988 
L 3225 2988 
L 2003 0 
L 1581 0 
z
" transform="scale(0.015625)"/>
       <path id="DejaVuSerif-72" d="M 3059 3328 
L 3059 2497 
L 2728 2497 
Q 2713 2744 2591 2866 
Q 2469 2988 2234 2988 
Q 1809 2988 1582 2694 
Q 1356 2400 1356 1850 
L 1356 331 
L 2022 331 
L 2022 0 
L 263 0 
L 263 331 
L 781 331 
L 781 2994 
L 231 2994 
L 231 3322 
L 1356 3322 
L 1356 2731 
Q 1525 3078 1790 3245 
Q 2056 3413 2438 3413 
Q 2578 3413 2733 3391 
Q 2888 3369 3059 3328 
z
" transform="scale(0.015625)"/>
      </defs>
      <use xlink:href="#DejaVuSerif-76" transform="translate(0 0.484375)"/>
      <use xlink:href="#DejaVuSerif-61" transform="translate(56.494141 0.484375)"/>
      <use xlink:href="#DejaVuSerif-72" transform="translate(116.113281 0.484375)"/>
      <use xlink:href="#DejaVuSerif-20" transform="translate(163.916016 0.484375)"/>
      <use xlink:href="#Cmmi10-60" transform="translate(195.703125 0.484375)"/>
     </g>
    </g>
   </g>
   <g id="line2d_23">
    <path d="M 128.235455 199 
L 150.050943 199 
L 150.345747 203 
L 159.189863 203 
L 159.484667 209 
L 165.970353 209 
L 166.265157 212 
L 171.866431 212 
L 172.161235 222 
L 177.172901 222 
L 177.467705 225 
L 181.889763 225 
L 182.184567 201.5 
L 186.017018 201.5 
L 186.311822 200.5 
L 190.144272 200.5 
L 190.439076 202 
L 193.976723 202 
L 194.271527 205 
L 197.51437 205 
L 197.809174 186 
L 200.757213 186 
L 201.052017 187 
L 204.000056 187 
L 204.294859 219.5 
L 207.242898 219.5 
L 207.537702 225.5 
L 210.190937 225.5 
L 210.485741 203 
L 213.138976 203 
L 213.43378 200.5 
L 218.445446 200.5 
L 218.74025 201.5 
L 221.098681 201.5 
L 221.393485 176.5 
L 223.751916 176.5 
L 224.04672 181 
L 226.110348 181 
L 226.405152 197 
L 228.763583 197 
L 229.058387 199.5 
L 231.122014 199.5 
L 231.416818 201.5 
L 233.185641 201.5 
L 233.480445 203 
L 235.544072 203 
L 235.838876 205.5 
L 237.902503 205.5 
L 238.197307 205 
L 239.966131 205 
L 240.260935 165.5 
L 242.029758 165.5 
L 242.324562 167 
L 244.093385 167 
L 244.388189 199 
L 246.157012 199 
L 246.451816 203 
L 248.22064 203 
L 248.515444 177.5 
L 250.284267 177.5 
L 250.579071 176 
L 254.116718 176 
L 254.411522 174.5 
L 256.180345 174.5 
L 256.475149 158 
L 259.717992 158 
L 260.012796 198 
L 261.486815 198 
L 261.781619 197.5 
L 263.255638 197.5 
L 263.550442 178.5 
L 266.793285 178.5 
L 267.088089 181 
L 270.330932 181 
L 270.625736 168.5 
L 272.099755 168.5 
L 272.394559 169 
L 273.573775 169 
L 273.868579 194.5 
L 275.342598 194.5 
L 275.637402 193 
L 276.816618 193 
L 277.111421 183 
L 278.585441 183 
L 278.880245 187.5 
L 281.828284 187.5 
L 282.123088 184.5 
L 283.302303 184.5 
L 283.597107 153.5 
L 284.776323 153.5 
L 285.071127 152.5 
L 286.250342 152.5 
L 286.545146 178.5 
L 287.724362 178.5 
L 288.019166 183 
L 289.198381 183 
L 289.493185 173 
L 290.672401 173 
L 290.967204 174 
L 292.14642 174 
L 292.441224 176 
L 293.62044 176 
L 293.915243 179.5 
L 295.094459 179.5 
L 295.389263 141.5 
L 296.568478 141.5 
L 296.863282 142 
L 298.042498 142 
L 298.337302 173 
L 299.516517 173 
L 299.811321 174 
L 300.990537 174 
L 301.285341 160 
L 302.169752 160 
L 302.464556 165 
L 305.117791 165 
L 305.412595 164.5 
L 306.297007 164.5 
L 306.591811 139 
L 307.771026 139 
L 308.06583 143 
L 308.950242 143 
L 309.245046 177.5 
L 310.424262 177.5 
L 310.719065 178.5 
L 311.603477 178.5 
L 311.898281 143.5 
L 313.077497 143.5 
L 313.3723 144 
L 314.256712 144 
L 314.551516 146.5 
L 315.435928 146.5 
L 315.730732 148 
L 316.909947 148 
L 317.204751 137 
L 318.089163 137 
L 318.383967 139 
L 319.268378 139 
L 319.563182 158.5 
L 320.742398 158.5 
L 321.037202 162 
L 321.921613 162 
L 322.216417 129 
L 323.100829 129 
L 323.395633 130 
L 325.45926 130 
L 325.754064 132 
L 326.93328 132 
L 327.228084 121.5 
L 328.112495 121.5 
L 328.407299 122 
L 329.291711 122 
L 329.586515 141.5 
L 330.470926 141.5 
L 330.76573 142.5 
L 331.650142 142.5 
L 331.944946 132 
L 332.829358 132 
L 333.124161 133 
L 334.008573 133 
L 334.303377 134.5 
L 335.187789 134.5 
L 335.482593 130.5 
L 336.367004 130.5 
L 336.661808 123 
L 337.54622 123 
L 337.841024 129.5 
L 338.430632 129.5 
L 338.725435 143.5 
L 339.609847 143.5 
L 339.904651 144.5 
L 340.789063 144.5 
L 341.083867 132 
L 341.968278 132 
L 342.263082 133 
L 344.326709 133 
L 344.621513 136.5 
L 345.211121 136.5 
L 345.505925 121.5 
L 346.390337 121.5 
L 346.685141 119.5 
L 347.569552 119.5 
L 347.864356 149 
L 348.748768 149 
L 349.043572 148.5 
L 349.63318 148.5 
L 349.927983 111 
L 350.812395 111 
L 351.107199 105 
L 351.991611 105 
L 352.286415 108 
L 352.876022 108 
L 353.170826 109 
L 354.055238 109 
L 354.350042 111 
L 354.93965 111 
L 355.234454 112.5 
L 356.118865 112.5 
L 356.413669 151 
L 357.298081 151 
L 357.592885 156 
L 358.182492 156 
L 358.477296 114 
L 359.361708 114 
L 359.656512 113 
L 361.425335 113 
L 361.720139 111 
L 362.309747 111 
L 362.604551 94.5 
L 363.488963 94.5 
L 363.783766 97.5 
L 364.373374 97.5 
L 364.668178 124.5 
L 365.55259 124.5 
L 365.847394 122 
L 366.437002 122 
L 366.731805 103.5 
L 367.321413 103.5 
L 367.616217 109.5 
L 368.500629 109.5 
L 368.795433 111.5 
L 369.38504 111.5 
L 369.679844 110.5 
L 370.564256 110.5 
L 370.85906 90 
L 371.448668 90 
L 371.743472 91 
L 372.333079 91 
L 372.627883 105 
L 373.512295 105 
L 373.807099 109 
L 374.396707 109 
L 374.691511 104.5 
L 375.281118 104.5 
L 375.575922 108 
L 377.344746 108 
L 377.63955 111.5 
L 378.229157 111.5 
L 378.523961 76 
L 379.113569 76 
L 379.408373 79 
L 380.292785 79 
L 380.587588 105.5 
L 381.177196 105.5 
L 381.472 107 
L 382.061608 107 
L 382.356412 84.5 
L 382.94602 84.5 
L 383.240824 84 
L 384.125235 84 
L 384.420039 86 
L 385.894059 86 
L 386.188862 70.5 
L 386.77847 70.5 
L 387.073274 74 
L 387.662882 74 
L 387.957686 94.5 
L 388.547294 94.5 
L 388.842098 98 
L 389.431705 98 
L 389.726509 90 
L 390.610921 90 
L 390.905725 87 
L 392.379744 87 
L 392.674548 89 
L 393.264156 89 
L 393.55896 74.5 
L 394.148568 74.5 
L 394.443372 78 
L 395.032979 78 
L 395.327783 102.5 
L 395.917391 102.5 
L 396.212195 107.5 
L 396.801803 107.5 
L 397.096607 79.5 
L 397.686214 79.5 
L 397.981018 77.5 
L 398.570626 77.5 
L 398.86543 80 
L 399.455038 80 
L 399.749842 79.5 
L 400.339449 79.5 
L 400.634253 62.5 
L 401.223861 62.5 
L 401.518665 63 
L 402.108273 63 
L 402.403077 100.5 
L 402.992685 100.5 
L 403.287488 102 
L 403.877096 102 
L 404.1719 77.5 
L 404.761508 77.5 
L 405.056312 80.5 
L 406.530331 80.5 
L 406.825135 85.5 
L 407.414743 85.5 
L 407.709547 50 
L 409.183566 50 
L 409.47837 78 
L 410.067978 78 
L 410.362782 76.5 
L 410.657586 76.5 
L 410.95239 57.5 
L 411.541997 57.5 
L 411.836801 61 
L 412.426409 61 
L 412.721213 64.5 
L 413.310821 64.5 
L 413.605625 66 
L 414.195233 66 
L 414.490036 45 
L 415.964056 45 
L 416.25886 84 
L 416.553664 84 
L 416.848468 84.5 
L 417.438075 84.5 
L 417.732879 63 
L 418.322487 63 
L 418.617291 64 
L 420.09131 64 
L 420.386114 69 
L 420.975722 69 
L 421.270526 44.5 
L 421.56533 44.5 
L 421.860134 45.5 
L 422.449742 45.5 
L 422.744545 78 
L 422.744545 78 
" clip-path="url(#p57b69f4393)" style="fill: none; stroke: #ff7f0e; stroke-width: 1.5; stroke-linecap: square"/>
   </g>
   <g id="patch_12">
    <path d="M 113.51 235 
L 113.51 35.5 
" style="fill: none; stroke: #000000; stroke-width: 0.8; stroke-linejoin: miter; stroke-linecap: square"/>
   </g>
   <g id="patch_13">
    <path d="M 437.47 235 
L 437.47 35.5 
" style="fill: none; stroke: #000000; stroke-width: 0.8; stroke-linejoin: miter; stroke-linecap: square"/>
   </g>
   <g id="patch_14">
    <path d="M 113.51 234.79 
L 437.47 234.79 
" style="fill: none; stroke: #000000; stroke-width: 0.8; stroke-linejoin: miter; stroke-linecap: square"/>
   </g>
   <g id="patch_15">
    <path d="M 113.51 35.28 
L 437.47 35.28 
" style="fill: none; stroke: #000000; stroke-width: 0.8; stroke-linejoin: miter; stroke-linecap: square"/>
   </g>
  </g>
  <g id="axes_4">
   <g id="matplotlib.axis_6">
    <g id="ytick_9">
     <g id="line2d_24">
      <g>
       <use xlink:href="#me51d4158ee" x="437.47" y="472.485631" style="stroke: #000000; stroke-width: 0.8"/>
      </g>
     </g>
     <g id="text_29">
      <!-- 0.0002 -->
      <g style="fill: #ff7f0e" transform="translate(444.47 478.564381)scale(0.16 -0.16)">
       <use xlink:href="#DejaVuSerif-30"/>
       <use xlink:href="#DejaVuSerif-2e" x="63.623047"/>
       <use xlink:href="#DejaVuSerif-30" x="95.410156"/>
       <use xlink:href="#DejaVuSerif-30" x="159.033203"/>
       <use xlink:href="#DejaVuSerif-30" x="222.65625"/>
       <use xlink:href="#DejaVuSerif-32" x="286.279297"/>
      </g>
     </g>
    </g>
    <g id="ytick_10">
     <g id="line2d_25">
      <g>
       <use xlink:href="#me51d4158ee" x="437.47" y="409.068118" style="stroke: #000000; stroke-width: 0.8"/>
      </g>
     </g>
     <g id="text_30">
      <!-- 0.0004 -->
      <g style="fill: #ff7f0e" transform="translate(444.47 415.146868)scale(0.16 -0.16)">
       <use xlink:href="#DejaVuSerif-30"/>
       <use xlink:href="#DejaVuSerif-2e" x="63.623047"/>
       <use xlink:href="#DejaVuSerif-30" x="95.410156"/>
       <use xlink:href="#DejaVuSerif-30" x="159.033203"/>
       <use xlink:href="#DejaVuSerif-30" x="222.65625"/>
       <use xlink:href="#DejaVuSerif-34" x="286.279297"/>
      </g>
     </g>
    </g>
    <g id="ytick_11">
     <g id="line2d_26">
      <g>
       <use xlink:href="#me51d4158ee" x="437.47" y="345.650606" style="stroke: #000000; stroke-width: 0.8"/>
      </g>
     </g>
     <g id="text_31">
      <!-- 0.0006 -->
      <g style="fill: #ff7f0e" transform="translate(444.47 351.729356)scale(0.16 -0.16)">
       <use xlink:href="#DejaVuSerif-30"/>
       <use xlink:href="#DejaVuSerif-2e" x="63.623047"/>
       <use xlink:href="#DejaVuSerif-30" x="95.410156"/>
       <use xlink:href="#DejaVuSerif-30" x="159.033203"/>
       <use xlink:href="#DejaVuSerif-30" x="222.65625"/>
       <use xlink:href="#DejaVuSerif-36" x="286.279297"/>
      </g>
     </g>
    </g>
    <g id="text_32">
     <!-- var $\ell$ -->
     <g style="fill: #ff7f0e" transform="translate(516.6125 433.435)rotate(-90)scale(0.16 -0.16)">
      <use xlink:href="#DejaVuSerif-76" transform="translate(0 0.484375)"/>
      <use xlink:href="#DejaVuSerif-61" transform="translate(56.494141 0.484375)"/>
      <use xlink:href="#DejaVuSerif-72" transform="translate(116.113281 0.484375)"/>
      <use xlink:href="#DejaVuSerif-20" transform="translate(163.916016 0.484375)"/>
      <use xlink:href="#Cmmi10-60" transform="translate(195.703125 0.484375)"/>
     </g>
    </g>
   </g>
   <g id="line2d_27">
    <path d="M 128.235455 505.081364 
L 129.41467 504.951276 
L 130.593886 504.561391 
L 131.773101 503.912893 
L 132.952317 503.0079 
L 134.131532 501.849665 
L 135.605552 500.052931 
L 137.079571 497.880392 
L 138.848395 494.801486 
L 140.617218 491.244239 
L 142.680845 486.553271 
L 145.039277 480.588522 
L 147.987315 472.444129 
L 152.11457 460.286133 
L 160.074275 436.723551 
L 163.906726 426.148831 
L 167.149569 417.810823 
L 170.392412 410.085703 
L 173.34045 403.604737 
L 176.288489 397.629909 
L 179.236528 392.139885 
L 182.184567 387.106498 
L 185.132606 382.498025 
L 188.080645 378.281464 
L 191.028684 374.424072 
L 194.271527 370.558225 
L 197.51437 367.049496 
L 200.757213 363.861613 
L 204.294859 360.711157 
L 207.832506 357.864855 
L 211.664957 355.085084 
L 215.497407 352.584096 
L 219.624662 350.164428 
L 224.04672 347.847187 
L 228.468779 345.77775 
L 233.185641 343.807218 
L 238.197307 341.945214 
L 243.798581 340.106472 
L 249.694659 338.406276 
L 256.180345 336.771322 
L 263.255638 335.223139 
L 270.92054 333.775965 
L 279.469853 332.393663 
L 288.903577 331.098999 
L 299.516517 329.874516 
L 311.308673 328.742149 
L 324.869652 327.671324 
L 340.199455 326.689366 
L 357.887689 325.782937 
L 378.818765 324.940946 
L 403.582292 324.17589 
L 422.744545 323.708636 
L 422.744545 323.708636 
" clip-path="url(#pbe812dcf80)" style="fill: none; stroke: #ff7f0e; stroke-width: 1.5; stroke-linecap: square"/>
   </g>
   <g id="patch_16">
    <path d="M 113.51 514.15 
L 113.51 314.64 
" style="fill: none; stroke: #000000; stroke-width: 0.8; stroke-linejoin: miter; stroke-linecap: square"/>
   </g>
   <g id="patch_17">
    <path d="M 437.47 514.15 
L 437.47 314.64 
" style="fill: none; stroke: #000000; stroke-width: 0.8; stroke-linejoin: miter; stroke-linecap: square"/>
   </g>
   <g id="patch_18">
    <path d="M 113.51 514.15 
L 437.47 514.15 
" style="fill: none; stroke: #000000; stroke-width: 0.8; stroke-linejoin: miter; stroke-linecap: square"/>
   </g>
   <g id="patch_19">
    <path d="M 113.51 314.64 
L 437.47 314.64 
" style="fill: none; stroke: #000000; stroke-width: 0.8; stroke-linejoin: miter; stroke-linecap: square"/>
   </g>
  </g>
 </g>
 <defs>
  <clipPath id="p57b69f4393">
   <rect x="113.51" y="35.28" width="323.96" height="199.51"/>
  </clipPath>
  <clipPath id="pbe812dcf80">
   <rect x="113.51" y="314.64" width="323.96" height="199.51"/>
  </clipPath>
 </defs>
</svg>
