<?xml version="1.0" encoding="utf-8" standalone="no"?>
<!DOCTYPE svg PUBLIC "-//W3C//DTD SVG 1.1//EN"
  "http://www.w3.org/Graphics/SVG/1.1/DTD/svg11.dtd">
<svg height="306pt" version="1.1" viewBox="0 0 864 306" width="864pt" xmlns="http://www.w3.org/2000/svg" xmlns:xlink="http://www.w3.org/1999/xlink">
 <metadata>
  <rdf:RDF xmlns:cc="http://creativecommons.org/ns#" xmlns:dc="http://purl.org/dc/elements/1.1/" xmlns:rdf="http://www.w3.org/1999/02/22-rdf-syntax-ns#">
   <cc:Work>
    <dc:type rdf:resource="http://purl.org/dc/dcmitype/StillImage"/>
    <dc:date>2022-06-21T18:46:43.540637</dc:date>
    <dc:format>image/svg+xml</dc:format>
    <dc:creator>
     <cc:Agent>
      <dc:title>Matplotlib v3.4.3, https://matplotlib.org/</dc:title>
     </cc:Agent>
    </dc:creator>
   </cc:Work>
  </rdf:RDF>
 </metadata>
 <defs>
  <style type="text/css">*{stroke-linecap:butt;stroke-linejoin:round;}</style>
 </defs>
 <g id="figure_1">
  <g id="patch_1">
   <path d="M 0 306 
L 864 306 
L 864 0 
L 0 0 
z
" style="fill:none;"/>
  </g>
  <g id="axes_1">
   <g id="patch_2">
    <path d="M 68.78 243.72 
L 314.24 243.72 
L 314.24 17.28 
L 68.78 17.28 
z
" style="fill:#ffffff;"/>
   </g>
   <g id="line2d_1">
    <path clip-path="url(#pc901265fd2)" d="M 303.082727 233.427273 
L 296.830634 231.347934 
L 288.411044 229.268595 
L 278.107415 227.189256 
L 266.220576 225.109917 
L 253.061983 223.030579 
L 238.947125 220.95124 
L 224.189232 218.871901 
L 209.093385 216.792562 
L 193.951134 214.713223 
L 179.035701 212.633884 
L 164.597844 210.554545 
L 150.86243 208.475207 
L 138.025746 206.395868 
L 126.253569 204.316529 
L 115.679987 202.23719 
L 106.406959 200.157851 
L 98.504575 198.078512 
L 92.011973 195.999174 
L 86.938844 193.919835 
L 83.267468 191.840496 
L 80.955194 189.761157 
L 79.937273 187.681818 
L 80.129974 185.602479 
L 81.433877 183.52314 
L 83.737253 181.443802 
L 86.919457 179.364463 
L 90.854241 177.285124 
L 95.412913 175.205785 
L 100.467274 173.126446 
L 105.89228 171.047107 
L 111.568375 168.967769 
L 117.38346 166.88843 
L 123.234474 164.809091 
L 129.028577 162.729752 
L 134.683924 160.650413 
L 140.130055 158.571074 
L 145.307907 156.491736 
L 150.169491 154.412397 
L 154.67726 152.333058 
L 158.803229 150.253719 
L 162.527885 148.17438 
L 165.838947 146.095041 
L 168.730046 144.015702 
L 171.199355 141.936364 
L 173.248255 139.857025 
L 174.880079 137.777686 
L 176.098974 135.698347 
L 176.908941 133.619008 
L 177.313083 131.539669 
L 177.313083 129.460331 
L 176.908941 127.380992 
L 176.098974 125.301653 
L 174.880079 123.222314 
L 173.248255 121.142975 
L 171.199355 119.063636 
L 168.730046 116.984298 
L 165.838947 114.904959 
L 162.527885 112.82562 
L 158.803229 110.746281 
L 154.67726 108.666942 
L 150.169491 106.587603 
L 145.307907 104.508264 
L 140.130055 102.428926 
L 134.683924 100.349587 
L 129.028577 98.270248 
L 123.234474 96.190909 
L 117.38346 94.11157 
L 111.568375 92.032231 
L 105.89228 89.952893 
L 100.467274 87.873554 
L 95.412913 85.794215 
L 90.854241 83.714876 
L 86.919457 81.635537 
L 83.737253 79.556198 
L 81.433877 77.47686 
L 80.129974 75.397521 
L 79.937273 73.318182 
L 80.955194 71.238843 
L 83.267468 69.159504 
L 86.938844 67.080165 
L 92.011973 65.000826 
L 98.504575 62.921488 
L 106.406959 60.842149 
L 115.679987 58.76281 
L 126.253569 56.683471 
L 138.025746 54.604132 
L 150.86243 52.524793 
L 164.597844 50.445455 
L 179.035701 48.366116 
L 193.951134 46.286777 
L 209.093385 44.207438 
L 224.189232 42.128099 
L 238.947125 40.04876 
L 253.061983 37.969421 
L 266.220576 35.890083 
L 278.107415 33.810744 
L 288.411044 31.731405 
L 296.830634 29.652066 
L 303.082727 27.572727 
" style="fill:none;stroke:#000000;stroke-linecap:square;stroke-width:1.5;"/>
   </g>
   <g id="matplotlib.axis_1">
    <g id="xtick_1">
     <g id="line2d_2">
      <defs>
       <path d="M 0 0 
L 0 3.5 
" id="me81bb137e7" style="stroke:#000000;stroke-width:0.8;"/>
      </defs>
      <g>
       <use style="stroke:#000000;stroke-width:0.8;" x="83.074185" xlink:href="#me81bb137e7" y="243.72"/>
      </g>
     </g>
     <g id="text_1">
      <!-- −2 -->
      <g transform="translate(71.280435 262.8775)scale(0.16 -0.16)">
       <defs>
        <path d="M 678 2259 
L 4684 2259 
L 4684 1753 
L 678 1753 
L 678 2259 
z
" id="DejaVuSerif-2212" transform="scale(0.015625)"/>
        <path d="M 819 3553 
L 469 3553 
L 469 4384 
Q 803 4563 1142 4656 
Q 1481 4750 1806 4750 
Q 2534 4750 2956 4397 
Q 3378 4044 3378 3438 
Q 3378 2753 2422 1800 
Q 2347 1728 2309 1691 
L 1131 513 
L 3078 513 
L 3078 1088 
L 3444 1088 
L 3444 0 
L 434 0 
L 434 341 
L 1850 1753 
Q 2319 2222 2519 2614 
Q 2719 3006 2719 3438 
Q 2719 3909 2473 4175 
Q 2228 4441 1797 4441 
Q 1350 4441 1106 4219 
Q 863 3997 819 3553 
z
" id="DejaVuSerif-32" transform="scale(0.015625)"/>
       </defs>
       <use xlink:href="#DejaVuSerif-2212"/>
       <use x="83.789062" xlink:href="#DejaVuSerif-32"/>
      </g>
     </g>
    </g>
    <g id="xtick_2">
     <g id="line2d_3">
      <g>
       <use style="stroke:#000000;stroke-width:0.8;" x="145.933768" xlink:href="#me81bb137e7" y="243.72"/>
      </g>
     </g>
     <g id="text_2">
      <!-- 0 -->
      <g transform="translate(140.843768 262.8775)scale(0.16 -0.16)">
       <defs>
        <path d="M 2034 219 
Q 2513 219 2750 744 
Q 2988 1269 2988 2328 
Q 2988 3391 2750 3916 
Q 2513 4441 2034 4441 
Q 1556 4441 1318 3916 
Q 1081 3391 1081 2328 
Q 1081 1269 1318 744 
Q 1556 219 2034 219 
z
M 2034 -91 
Q 1275 -91 848 546 
Q 422 1184 422 2328 
Q 422 3475 848 4112 
Q 1275 4750 2034 4750 
Q 2797 4750 3222 4112 
Q 3647 3475 3647 2328 
Q 3647 1184 3222 546 
Q 2797 -91 2034 -91 
z
" id="DejaVuSerif-30" transform="scale(0.015625)"/>
       </defs>
       <use xlink:href="#DejaVuSerif-30"/>
      </g>
     </g>
    </g>
    <g id="xtick_3">
     <g id="line2d_4">
      <g>
       <use style="stroke:#000000;stroke-width:0.8;" x="208.793352" xlink:href="#me81bb137e7" y="243.72"/>
      </g>
     </g>
     <g id="text_3">
      <!-- 2 -->
      <g transform="translate(203.703352 262.8775)scale(0.16 -0.16)">
       <use xlink:href="#DejaVuSerif-32"/>
      </g>
     </g>
    </g>
    <g id="xtick_4">
     <g id="line2d_5">
      <g>
       <use style="stroke:#000000;stroke-width:0.8;" x="271.652936" xlink:href="#me81bb137e7" y="243.72"/>
      </g>
     </g>
     <g id="text_4">
      <!-- 4 -->
      <g transform="translate(266.562936 262.8775)scale(0.16 -0.16)">
       <defs>
        <path d="M 2234 1581 
L 2234 4063 
L 641 1581 
L 2234 1581 
z
M 3609 0 
L 1484 0 
L 1484 331 
L 2234 331 
L 2234 1247 
L 197 1247 
L 197 1588 
L 2241 4750 
L 2859 4750 
L 2859 1581 
L 3750 1581 
L 3750 1247 
L 2859 1247 
L 2859 331 
L 3609 331 
L 3609 0 
z
" id="DejaVuSerif-34" transform="scale(0.015625)"/>
       </defs>
       <use xlink:href="#DejaVuSerif-34"/>
      </g>
     </g>
    </g>
    <g id="text_5">
     <!-- y -->
     <g transform="translate(186.99 282.135)scale(0.16 -0.16)">
      <defs>
       <path d="M 1381 -609 
L 1600 -56 
L 359 2988 
L -19 2988 
L -19 3322 
L 1509 3322 
L 1509 2988 
L 978 2988 
L 1913 703 
L 2847 2988 
L 2350 2988 
L 2350 3322 
L 3597 3322 
L 3597 2988 
L 3225 2988 
L 1703 -750 
Q 1547 -1138 1356 -1280 
Q 1166 -1422 819 -1422 
Q 672 -1422 517 -1397 
Q 363 -1372 206 -1325 
L 206 -691 
L 500 -691 
Q 519 -903 608 -995 
Q 697 -1088 884 -1088 
Q 1056 -1088 1161 -992 
Q 1266 -897 1381 -609 
z
" id="DejaVuSerif-79" transform="scale(0.015625)"/>
      </defs>
      <use xlink:href="#DejaVuSerif-79"/>
     </g>
    </g>
   </g>
   <g id="matplotlib.axis_2">
    <g id="ytick_1">
     <g id="line2d_6">
      <defs>
       <path d="M 0 0 
L -3.5 0 
" id="m9a6c129815" style="stroke:#000000;stroke-width:0.8;"/>
      </defs>
      <g>
       <use style="stroke:#000000;stroke-width:0.8;" x="68.78" xlink:href="#m9a6c129815" y="233.427273"/>
      </g>
     </g>
     <g id="text_6">
      <!-- −2 -->
      <g transform="translate(38.1925 239.506023)scale(0.16 -0.16)">
       <use xlink:href="#DejaVuSerif-2212"/>
       <use x="83.789062" xlink:href="#DejaVuSerif-32"/>
      </g>
     </g>
    </g>
    <g id="ytick_2">
     <g id="line2d_7">
      <g>
       <use style="stroke:#000000;stroke-width:0.8;" x="68.78" xlink:href="#m9a6c129815" y="181.963636"/>
      </g>
     </g>
     <g id="text_7">
      <!-- −1 -->
      <g transform="translate(38.1925 188.042386)scale(0.16 -0.16)">
       <defs>
        <path d="M 909 0 
L 909 331 
L 1722 331 
L 1722 4213 
L 781 3603 
L 781 4013 
L 1919 4750 
L 2350 4750 
L 2350 331 
L 3163 331 
L 3163 0 
L 909 0 
z
" id="DejaVuSerif-31" transform="scale(0.015625)"/>
       </defs>
       <use xlink:href="#DejaVuSerif-2212"/>
       <use x="83.789062" xlink:href="#DejaVuSerif-31"/>
      </g>
     </g>
    </g>
    <g id="ytick_3">
     <g id="line2d_8">
      <g>
       <use style="stroke:#000000;stroke-width:0.8;" x="68.78" xlink:href="#m9a6c129815" y="130.5"/>
      </g>
     </g>
     <g id="text_8">
      <!-- 0 -->
      <g transform="translate(51.6 136.57875)scale(0.16 -0.16)">
       <use xlink:href="#DejaVuSerif-30"/>
      </g>
     </g>
    </g>
    <g id="ytick_4">
     <g id="line2d_9">
      <g>
       <use style="stroke:#000000;stroke-width:0.8;" x="68.78" xlink:href="#m9a6c129815" y="79.036364"/>
      </g>
     </g>
     <g id="text_9">
      <!-- 1 -->
      <g transform="translate(51.6 85.115114)scale(0.16 -0.16)">
       <use xlink:href="#DejaVuSerif-31"/>
      </g>
     </g>
    </g>
    <g id="ytick_5">
     <g id="line2d_10">
      <g>
       <use style="stroke:#000000;stroke-width:0.8;" x="68.78" xlink:href="#m9a6c129815" y="27.572727"/>
      </g>
     </g>
     <g id="text_10">
      <!-- 2 -->
      <g transform="translate(51.6 33.651477)scale(0.16 -0.16)">
       <use xlink:href="#DejaVuSerif-32"/>
      </g>
     </g>
    </g>
    <g id="text_11">
     <!-- z -->
     <g transform="translate(30.865 134.715)rotate(-90)scale(0.16 -0.16)">
      <defs>
       <path d="M 256 0 
L 256 269 
L 2338 2988 
L 691 2988 
L 691 2413 
L 359 2413 
L 359 3322 
L 3078 3322 
L 3078 3053 
L 997 331 
L 2803 331 
L 2803 934 
L 3138 934 
L 3138 0 
L 256 0 
z
" id="DejaVuSerif-7a" transform="scale(0.015625)"/>
      </defs>
      <use xlink:href="#DejaVuSerif-7a"/>
     </g>
    </g>
   </g>
   <g id="patch_3">
    <path d="M 68.78 243.72 
L 68.78 17.28 
" style="fill:none;stroke:#000000;stroke-linecap:square;stroke-linejoin:miter;stroke-width:0.8;"/>
   </g>
   <g id="patch_4">
    <path d="M 314.24 243.72 
L 314.24 17.28 
" style="fill:none;stroke:#000000;stroke-linecap:square;stroke-linejoin:miter;stroke-width:0.8;"/>
   </g>
   <g id="patch_5">
    <path d="M 68.78 243.72 
L 314.24 243.72 
" style="fill:none;stroke:#000000;stroke-linecap:square;stroke-linejoin:miter;stroke-width:0.8;"/>
   </g>
   <g id="patch_6">
    <path d="M 68.78 17.28 
L 314.24 17.28 
" style="fill:none;stroke:#000000;stroke-linecap:square;stroke-linejoin:miter;stroke-width:0.8;"/>
   </g>
  </g>
  <g id="axes_2">
   <g id="patch_7">
    <path d="M 335.02 243.72 
L 580.48 243.72 
L 580.48 17.28 
L 335.02 17.28 
z
" style="fill:#ffffff;"/>
   </g>
   <g id="line2d_11">
    <path clip-path="url(#p45c113607c)" d="M 457.75 233.427273 
L 477.932824 231.347934 
L 496.494383 229.268595 
L 513.207364 227.189256 
L 527.892178 225.109917 
L 540.417586 223.030579 
L 550.700328 220.95124 
L 558.703824 218.871901 
L 564.436019 216.792562 
L 567.946464 214.713223 
L 569.322727 212.633884 
L 568.686255 210.554545 
L 566.187796 208.475207 
L 562.002509 206.395868 
L 556.324874 204.316529 
L 549.363533 202.23719 
L 541.336169 200.157851 
L 532.464537 198.078512 
L 522.969745 195.999174 
L 513.067868 193.919835 
L 502.965989 191.840496 
L 492.858706 189.761157 
L 482.925177 187.681818 
L 473.326718 185.602479 
L 464.204989 183.52314 
L 455.680753 181.443802 
L 447.853222 179.364463 
L 440.79994 177.285124 
L 434.577189 175.205785 
L 429.220851 173.126446 
L 424.747692 171.047107 
L 421.156985 168.967769 
L 418.43241 166.88843 
L 416.544161 164.809091 
L 415.451183 162.729752 
L 415.103472 160.650413 
L 415.444344 158.571074 
L 416.412648 156.491736 
L 417.944815 154.412397 
L 419.976728 152.333058 
L 422.445344 150.253719 
L 425.290046 148.17438 
L 428.453695 146.095041 
L 431.883369 144.015702 
L 435.530786 141.936364 
L 439.352417 139.857025 
L 443.309313 137.777686 
L 447.366659 135.698347 
L 451.493113 133.619008 
L 455.659946 131.539669 
L 459.840054 129.460331 
L 464.006887 127.380992 
L 468.133341 125.301653 
L 472.190687 123.222314 
L 476.147583 121.142975 
L 479.969214 119.063636 
L 483.616631 116.984298 
L 487.046305 114.904959 
L 490.209954 112.82562 
L 493.054656 110.746281 
L 495.523272 108.666942 
L 497.555185 106.587603 
L 499.087352 104.508264 
L 500.055656 102.428926 
L 500.396528 100.349587 
L 500.048817 98.270248 
L 498.955839 96.190909 
L 497.06759 94.11157 
L 494.343015 92.032231 
L 490.752308 89.952893 
L 486.279149 87.873554 
L 480.922811 85.794215 
L 474.70006 83.714876 
L 467.646778 81.635537 
L 459.819247 79.556198 
L 451.295011 77.47686 
L 442.173282 75.397521 
L 432.574823 73.318182 
L 422.641294 71.238843 
L 412.534011 69.159504 
L 402.432132 67.080165 
L 392.530255 65.000826 
L 383.035463 62.921488 
L 374.163831 60.842149 
L 366.136467 58.76281 
L 359.175126 56.683471 
L 353.497491 54.604132 
L 349.312204 52.524793 
L 346.813745 50.445455 
L 346.177273 48.366116 
L 347.553536 46.286777 
L 351.063981 44.207438 
L 356.796176 42.128099 
L 364.799672 40.04876 
L 375.082414 37.969421 
L 387.607822 35.890083 
L 402.292636 33.810744 
L 419.005617 31.731405 
L 437.567176 29.652066 
L 457.75 27.572727 
" style="fill:none;stroke:#000000;stroke-linecap:square;stroke-width:1.5;"/>
   </g>
   <g id="matplotlib.axis_3">
    <g id="xtick_5">
     <g id="line2d_12">
      <g>
       <use style="stroke:#000000;stroke-width:0.8;" x="391.869439" xlink:href="#me81bb137e7" y="243.72"/>
      </g>
     </g>
     <g id="text_12">
      <!-- −2 -->
      <g transform="translate(380.075689 262.8775)scale(0.16 -0.16)">
       <use xlink:href="#DejaVuSerif-2212"/>
       <use x="83.789062" xlink:href="#DejaVuSerif-32"/>
      </g>
     </g>
    </g>
    <g id="xtick_6">
     <g id="line2d_13">
      <g>
       <use style="stroke:#000000;stroke-width:0.8;" x="457.75" xlink:href="#me81bb137e7" y="243.72"/>
      </g>
     </g>
     <g id="text_13">
      <!-- 0 -->
      <g transform="translate(452.66 262.8775)scale(0.16 -0.16)">
       <use xlink:href="#DejaVuSerif-30"/>
      </g>
     </g>
    </g>
    <g id="xtick_7">
     <g id="line2d_14">
      <g>
       <use style="stroke:#000000;stroke-width:0.8;" x="523.630561" xlink:href="#me81bb137e7" y="243.72"/>
      </g>
     </g>
     <g id="text_14">
      <!-- 2 -->
      <g transform="translate(518.540561 262.8775)scale(0.16 -0.16)">
       <use xlink:href="#DejaVuSerif-32"/>
      </g>
     </g>
    </g>
    <g id="text_15">
     <!-- x -->
     <g transform="translate(453.23875 282.3625)scale(0.16 -0.16)">
      <defs>
       <path d="M 1863 2028 
L 2559 2988 
L 2113 2988 
L 2113 3322 
L 3391 3322 
L 3391 2988 
L 2950 2988 
L 2059 1759 
L 3097 331 
L 3531 331 
L 3531 0 
L 1997 0 
L 1997 331 
L 2419 331 
L 1697 1325 
L 972 331 
L 1403 331 
L 1403 0 
L 141 0 
L 141 331 
L 581 331 
L 1497 1594 
L 488 2988 
L 78 2988 
L 78 3322 
L 1563 3322 
L 1563 2988 
L 1166 2988 
L 1863 2028 
z
" id="DejaVuSerif-78" transform="scale(0.015625)"/>
      </defs>
      <use xlink:href="#DejaVuSerif-78"/>
     </g>
    </g>
   </g>
   <g id="matplotlib.axis_4">
    <g id="ytick_6">
     <g id="line2d_15">
      <g>
       <use style="stroke:#000000;stroke-width:0.8;" x="335.02" xlink:href="#m9a6c129815" y="233.427273"/>
      </g>
     </g>
    </g>
    <g id="ytick_7">
     <g id="line2d_16">
      <g>
       <use style="stroke:#000000;stroke-width:0.8;" x="335.02" xlink:href="#m9a6c129815" y="181.963636"/>
      </g>
     </g>
    </g>
    <g id="ytick_8">
     <g id="line2d_17">
      <g>
       <use style="stroke:#000000;stroke-width:0.8;" x="335.02" xlink:href="#m9a6c129815" y="130.5"/>
      </g>
     </g>
    </g>
    <g id="ytick_9">
     <g id="line2d_18">
      <g>
       <use style="stroke:#000000;stroke-width:0.8;" x="335.02" xlink:href="#m9a6c129815" y="79.036364"/>
      </g>
     </g>
    </g>
    <g id="ytick_10">
     <g id="line2d_19">
      <g>
       <use style="stroke:#000000;stroke-width:0.8;" x="335.02" xlink:href="#m9a6c129815" y="27.572727"/>
      </g>
     </g>
    </g>
   </g>
   <g id="patch_8">
    <path d="M 335.02 243.72 
L 335.02 17.28 
" style="fill:none;stroke:#000000;stroke-linecap:square;stroke-linejoin:miter;stroke-width:0.8;"/>
   </g>
   <g id="patch_9">
    <path d="M 580.48 243.72 
L 580.48 17.28 
" style="fill:none;stroke:#000000;stroke-linecap:square;stroke-linejoin:miter;stroke-width:0.8;"/>
   </g>
   <g id="patch_10">
    <path d="M 335.02 243.72 
L 580.48 243.72 
" style="fill:none;stroke:#000000;stroke-linecap:square;stroke-linejoin:miter;stroke-width:0.8;"/>
   </g>
   <g id="patch_11">
    <path d="M 335.02 17.28 
L 580.48 17.28 
" style="fill:none;stroke:#000000;stroke-linecap:square;stroke-linejoin:miter;stroke-width:0.8;"/>
   </g>
  </g>
  <g id="patch_12">
   <path d="M 610.77 243.72 
L 837.21 243.72 
L 837.21 17.28 
L 610.77 17.28 
z
" style="fill:none;opacity:0;"/>
  </g>
  <g id="pane3d_1">
   <g id="patch_13">
    <path d="M 627.867782 187.887153 
L 702.645665 125.206848 
L 701.606181 34.810644 
L 623.24979 91.991569 
" style="fill:#f2f2f2;opacity:0.5;stroke:#f2f2f2;stroke-linejoin:miter;"/>
   </g>
  </g>
  <g id="pane3d_2">
   <g id="patch_14">
    <path d="M 702.645665 125.206848 
L 822.637486 160.083734 
L 826.919572 66.573936 
L 701.606181 34.810644 
" style="fill:#e6e6e6;opacity:0.5;stroke:#e6e6e6;stroke-linejoin:miter;"/>
   </g>
  </g>
  <g id="pane3d_3">
   <g id="patch_15">
    <path d="M 627.867782 187.887153 
L 755.064973 229.429755 
L 822.637486 160.083734 
L 702.645665 125.206848 
" style="fill:#ececec;opacity:0.5;stroke:#ececec;stroke-linejoin:miter;"/>
   </g>
  </g>
  <g id="axis3d_1">
   <g id="line2d_20">
    <path d="M 627.867782 187.887153 
L 755.064973 229.429755 
" style="fill:none;stroke:#000000;stroke-linecap:square;stroke-width:0.8;"/>
   </g>
   <g id="text_16">
    <!-- x -->
    <g transform="translate(668.963284 247.849286)scale(0.16 -0.16)">
     <use xlink:href="#DejaVuSerif-78"/>
    </g>
   </g>
   <g id="Line3DCollection_1">
    <path d="M 657.477787 197.557781 
L 730.673073 133.353309 
L 730.829256 42.217842 
" style="fill:none;stroke:#b0b0b0;stroke-width:0.8;"/>
    <path d="M 689.789726 208.11086 
L 761.192259 142.224032 
L 762.683188 50.291885 
" style="fill:none;stroke:#b0b0b0;stroke-width:0.8;"/>
    <path d="M 722.991699 218.954624 
L 792.480865 151.318394 
L 795.375718 58.578489 
" style="fill:none;stroke:#b0b0b0;stroke-width:0.8;"/>
   </g>
   <g id="xtick_8">
    <g id="line2d_21">
     <path d="M 658.115649 196.99827 
L 656.199301 198.679226 
" style="fill:none;stroke:#000000;stroke-linecap:square;stroke-width:0.8;"/>
    </g>
    <g id="text_17">
     <!-- −2 -->
     <g transform="translate(638.176391 225.614585)scale(0.16 -0.16)">
      <use xlink:href="#DejaVuSerif-2212"/>
      <use x="83.789062" xlink:href="#DejaVuSerif-32"/>
     </g>
    </g>
   </g>
   <g id="xtick_9">
    <g id="line2d_22">
     <path d="M 690.412657 207.536049 
L 688.541128 209.263005 
" style="fill:none;stroke:#000000;stroke-linecap:square;stroke-width:0.8;"/>
    </g>
    <g id="text_18">
     <!-- 0 -->
     <g transform="translate(677.23414 236.431826)scale(0.16 -0.16)">
      <use xlink:href="#DejaVuSerif-30"/>
     </g>
    </g>
   </g>
   <g id="xtick_10">
    <g id="line2d_23">
     <path d="M 723.59863 218.363876 
L 721.775135 220.138748 
" style="fill:none;stroke:#000000;stroke-linecap:square;stroke-width:0.8;"/>
    </g>
    <g id="text_19">
     <!-- 2 -->
     <g transform="translate(710.483373 247.54838)scale(0.16 -0.16)">
      <use xlink:href="#DejaVuSerif-32"/>
     </g>
    </g>
   </g>
  </g>
  <g id="axis3d_2">
   <g id="line2d_24">
    <path d="M 822.637486 160.083734 
L 755.064973 229.429755 
" style="fill:none;stroke:#000000;stroke-linecap:square;stroke-width:0.8;"/>
   </g>
   <g id="text_20">
    <!-- y -->
    <g transform="translate(812.819921 225.409396)scale(0.16 -0.16)">
     <use xlink:href="#DejaVuSerif-79"/>
    </g>
   </g>
   <g id="Line3DCollection_2">
    <path d="M 629.705644 87.280381 
L 634.007366 182.740832 
L 760.635491 223.713034 
" style="fill:none;stroke:#b0b0b0;stroke-width:0.8;"/>
    <path d="M 650.006985 72.465387 
L 653.339172 166.536528 
L 778.149071 205.739792 
" style="fill:none;stroke:#b0b0b0;stroke-width:0.8;"/>
    <path d="M 669.425454 58.294673 
L 671.865875 151.007078 
L 794.895769 188.55356 
" style="fill:none;stroke:#b0b0b0;stroke-width:0.8;"/>
    <path d="M 688.017419 44.727104 
L 689.636744 136.111184 
L 810.924876 172.103754 
" style="fill:none;stroke:#b0b0b0;stroke-width:0.8;"/>
   </g>
   <g id="xtick_11">
    <g id="line2d_25">
     <path d="M 759.568454 223.36778 
L 762.772322 224.404434 
" style="fill:none;stroke:#000000;stroke-linecap:square;stroke-width:0.8;"/>
    </g>
    <g id="text_21">
     <!-- −2 -->
     <g transform="translate(761.709626 249.279239)scale(0.16 -0.16)">
      <use xlink:href="#DejaVuSerif-2212"/>
      <use x="83.789062" xlink:href="#DejaVuSerif-32"/>
     </g>
    </g>
   </g>
   <g id="xtick_12">
    <g id="line2d_26">
     <path d="M 777.098547 205.409818 
L 780.252774 206.400573 
" style="fill:none;stroke:#000000;stroke-linecap:square;stroke-width:0.8;"/>
    </g>
    <g id="text_22">
     <!-- 0 -->
     <g transform="translate(785.650759 230.993299)scale(0.16 -0.16)">
      <use xlink:href="#DejaVuSerif-30"/>
     </g>
    </g>
   </g>
   <g id="xtick_13">
    <g id="line2d_27">
     <path d="M 793.86135 188.237874 
L 796.967164 189.185712 
" style="fill:none;stroke:#000000;stroke-linecap:square;stroke-width:0.8;"/>
    </g>
    <g id="text_23">
     <!-- 2 -->
     <g transform="translate(802.132846 213.508599)scale(0.16 -0.16)">
      <use xlink:href="#DejaVuSerif-32"/>
     </g>
    </g>
   </g>
   <g id="xtick_14">
    <g id="line2d_28">
     <path d="M 809.90616 171.801447 
L 812.964769 172.709098 
" style="fill:none;stroke:#000000;stroke-linecap:square;stroke-width:0.8;"/>
    </g>
    <g id="text_24">
     <!-- 4 -->
     <g transform="translate(817.908215 196.773608)scale(0.16 -0.16)">
      <use xlink:href="#DejaVuSerif-34"/>
     </g>
    </g>
   </g>
  </g>
  <g id="axis3d_3">
   <g id="line2d_29">
    <path d="M 822.637486 160.083734 
L 826.919572 66.573936 
" style="fill:none;stroke:#000000;stroke-linecap:square;stroke-width:0.8;"/>
   </g>
   <g id="Line3DCollection_3">
    <path d="M 822.719526 158.292189 
L 702.625708 123.471367 
L 627.779452 186.052936 
" style="fill:none;stroke:#b0b0b0;stroke-width:0.8;"/>
    <path d="M 823.715105 136.551291 
L 702.383657 102.422008 
L 626.707095 163.784747 
" style="fill:none;stroke:#b0b0b0;stroke-width:0.8;"/>
    <path d="M 824.731623 114.353144 
L 702.136761 80.951263 
L 625.611317 141.030207 
" style="fill:none;stroke:#b0b0b0;stroke-width:0.8;"/>
    <path d="M 825.769747 91.68317 
L 701.884872 59.046352 
L 624.491342 117.773205 
" style="fill:none;stroke:#b0b0b0;stroke-width:0.8;"/>
    <path d="M 826.830173 68.526163 
L 701.627837 36.693971 
L 623.34636 93.996913 
" style="fill:none;stroke:#b0b0b0;stroke-width:0.8;"/>
   </g>
   <g id="xtick_15">
    <g id="line2d_30">
     <path d="M 821.711568 157.999935 
L 824.737843 158.877394 
" style="fill:none;stroke:#000000;stroke-linecap:square;stroke-width:0.8;"/>
    </g>
    <g id="text_25">
     <!-- −2 -->
     <g transform="translate(829.180145 167.850148)scale(0.16 -0.16)">
      <use xlink:href="#DejaVuSerif-2212"/>
      <use x="83.789062" xlink:href="#DejaVuSerif-32"/>
     </g>
    </g>
   </g>
   <g id="xtick_16">
    <g id="line2d_31">
     <path d="M 822.696263 136.264701 
L 825.75524 137.12516 
" style="fill:none;stroke:#000000;stroke-linecap:square;stroke-width:0.8;"/>
    </g>
    <g id="text_26">
     <!-- −1 -->
     <g transform="translate(830.361465 146.159718)scale(0.16 -0.16)">
      <use xlink:href="#DejaVuSerif-2212"/>
      <use x="83.789062" xlink:href="#DejaVuSerif-31"/>
     </g>
    </g>
   </g>
   <g id="xtick_17">
    <g id="line2d_32">
     <path d="M 823.70166 114.072523 
L 826.794052 114.915068 
" style="fill:none;stroke:#000000;stroke-linecap:square;stroke-width:0.8;"/>
    </g>
    <g id="text_27">
     <!-- 0 -->
     <g transform="translate(838.27129 124.014742)scale(0.16 -0.16)">
      <use xlink:href="#DejaVuSerif-30"/>
     </g>
    </g>
   </g>
   <g id="xtick_18">
    <g id="line2d_33">
     <path d="M 824.728418 91.408837 
L 827.854963 92.232509 
" style="fill:none;stroke:#000000;stroke-linecap:square;stroke-width:0.8;"/>
    </g>
    <g id="text_28">
     <!-- 1 -->
     <g transform="translate(839.502908 101.400781)scale(0.16 -0.16)">
      <use xlink:href="#DejaVuSerif-31"/>
     </g>
    </g>
   </g>
   <g id="xtick_19">
    <g id="line2d_34">
     <path d="M 825.777225 68.258455 
L 828.938685 69.062244 
" style="fill:none;stroke:#000000;stroke-linecap:square;stroke-width:0.8;"/>
    </g>
    <g id="text_29">
     <!-- 2 -->
     <g transform="translate(840.760888 78.302777)scale(0.16 -0.16)">
      <use xlink:href="#DejaVuSerif-32"/>
     </g>
    </g>
   </g>
  </g>
  <g id="axes_3">
   <g id="line2d_35">
    <path clip-path="url(#p0d9ac71404)" d="M 757.031629 144.317154 
L 764.9845 147.746394 
L 771.703157 151.519555 
L 777.133368 155.545982 
L 781.241662 159.733269 
L 784.016443 163.988591 
L 785.468774 168.220224 
L 785.632684 172.33922 
L 784.564907 176.261177 
L 782.343943 179.908031 
L 779.068428 183.209781 
L 774.854784 186.106061 
L 769.834226 188.547456 
L 764.149217 190.496498 
L 757.949529 191.928263 
L 751.388079 192.830546 
L 744.616751 193.203596 
L 737.782389 193.059435 
L 731.02316 192.420794 
L 724.465422 191.319756 
L 718.221218 189.796165 
L 712.386459 187.8959 
L 707.039811 185.669106 
L 702.24227 183.168452 
L 698.037358 180.447495 
L 694.451859 177.559208 
L 691.496999 174.554697 
L 689.169958 171.482136 
L 687.455613 168.385939 
L 686.328411 165.306149 
L 685.754299 162.278037 
L 685.692615 159.3319 
L 686.097914 156.493021 
L 686.921655 153.781782 
L 688.113739 151.21389 
L 689.623868 148.800701 
L 691.402706 146.549619 
L 693.402853 144.464544 
L 695.57961 142.546358 
L 697.891556 140.793424 
L 700.300934 139.202089 
L 702.773851 137.767173 
L 705.280318 136.482433 
L 707.794125 135.340991 
L 710.292582 134.33572 
L 712.756137 133.459563 
L 715.167894 132.705803 
L 717.513047 132.068255 
L 719.778274 131.541391 
L 721.951091 131.120383 
L 724.019214 130.801082 
L 725.969946 130.579915 
L 727.789623 130.453717 
L 729.463137 130.419507 
L 730.973567 130.474205 
L 732.301936 130.614307 
L 733.427115 130.835538 
L 734.325884 131.132476 
L 734.973172 131.498184 
L 735.342468 131.923855 
L 735.406418 132.398481 
L 735.137597 132.908576 
L 734.509457 133.43796 
L 733.497414 133.967625 
L 732.080083 134.475701 
L 730.240599 134.937533 
L 727.968002 135.325887 
L 725.258639 135.611295 
L 722.117519 135.762537 
L 718.559554 135.747276 
L 714.610627 135.532829 
L 710.308417 135.087058 
L 705.702887 134.379371 
L 700.856403 133.381793 
L 695.84341 132.070067 
L 690.749635 130.424742 
L 685.670812 128.432209 
L 680.710932 126.085603 
L 675.980076 123.385559 
L 671.591883 120.340745 
L 667.660764 116.968167 
L 664.298966 113.293203 
L 661.613619 109.349371 
L 659.703876 105.177845 
L 658.658279 100.826735 
L 658.552437 96.350176 
L 659.447104 91.807268 
L 661.386681 87.260924 
L 664.398175 82.776679 
L 668.490598 78.421497 
L 673.654746 74.262641 
L 679.863329 70.366617 
L 687.071341 66.79822 
L 695.216628 63.6197 
L 704.220543 60.890031 
L 713.988632 58.66428 
L 724.411286 56.993057 
L 735.36431 55.921997 
L 746.709384 55.491277 
L 758.294416 55.735086 
" style="fill:none;stroke:#000000;stroke-linecap:square;stroke-width:1.5;"/>
   </g>
  </g>
 </g>
 <defs>
  <clipPath id="pc901265fd2">
   <rect height="226.44" width="245.46" x="68.78" y="17.28"/>
  </clipPath>
  <clipPath id="p45c113607c">
   <rect height="226.44" width="245.46" x="335.02" y="17.28"/>
  </clipPath>
  <clipPath id="p0d9ac71404">
   <rect height="226.44" width="226.44" x="610.77" y="17.28"/>
  </clipPath>
 </defs>
</svg>
