<?xml version="1.0" encoding="utf-8" standalone="no"?>
<!DOCTYPE svg PUBLIC "-//W3C//DTD SVG 1.1//EN"
  "http://www.w3.org/Graphics/SVG/1.1/DTD/svg11.dtd">
<svg height="612pt" version="1.1" viewBox="0 0 864 612" width="864pt" xmlns="http://www.w3.org/2000/svg" xmlns:xlink="http://www.w3.org/1999/xlink">
 <metadata>
  <rdf:RDF xmlns:cc="http://creativecommons.org/ns#" xmlns:dc="http://purl.org/dc/elements/1.1/" xmlns:rdf="http://www.w3.org/1999/02/22-rdf-syntax-ns#">
   <cc:Work>
    <dc:type rdf:resource="http://purl.org/dc/dcmitype/StillImage"/>
    <dc:date>2022-06-21T19:06:32.693835</dc:date>
    <dc:format>image/svg+xml</dc:format>
    <dc:creator>
     <cc:Agent>
      <dc:title>Matplotlib v3.4.3, https://matplotlib.org/</dc:title>
     </cc:Agent>
    </dc:creator>
   </cc:Work>
  </rdf:RDF>
 </metadata>
 <defs>
  <style type="text/css">*{stroke-linecap:butt;stroke-linejoin:round;}</style>
 </defs>
 <g id="figure_1">
  <g id="patch_1">
   <path d="M 0 612 
L 864 612 
L 864 0 
L 0 0 
z
" style="fill:none;"/>
  </g>
  <g id="patch_2">
   <path d="M 39.974714 246.611524 
L 259.545286 246.611524 
L 259.545286 27.040952 
L 39.974714 27.040952 
z
" style="fill:#ffffff;"/>
  </g>
  <g id="pane3d_1">
   <g id="patch_3">
    <path d="M 56.553806 192.472458 
L 129.06318 131.693663 
L 128.05523 44.039775 
L 52.075909 99.486023 
" style="fill:#f2f2f2;opacity:0.5;stroke:#f2f2f2;stroke-linejoin:miter;"/>
   </g>
  </g>
  <g id="pane3d_2">
   <g id="patch_4">
    <path d="M 129.06318 131.693663 
L 245.414854 165.512501 
L 249.567035 74.839476 
L 128.05523 44.039775 
" style="fill:#e6e6e6;opacity:0.5;stroke:#e6e6e6;stroke-linejoin:miter;"/>
   </g>
  </g>
  <g id="pane3d_3">
   <g id="patch_5">
    <path d="M 56.553806 192.472458 
L 179.892263 232.754797 
L 245.414854 165.512501 
L 129.06318 131.693663 
" style="fill:#ececec;opacity:0.5;stroke:#ececec;stroke-linejoin:miter;"/>
   </g>
  </g>
  <g id="axis3d_1">
   <g id="line2d_1">
    <path d="M 56.553806 192.472458 
L 179.892263 232.754797 
" style="fill:none;stroke:#000000;stroke-linecap:square;stroke-width:0.8;"/>
   </g>
   <g id="Line3DCollection_1">
    <path d="M 85.745657 202.006516 
L 156.694307 139.72494 
L 156.865356 51.342303 
" style="fill:none;stroke:#b0b0b0;stroke-width:0.8;"/>
    <path d="M 117.802044 212.476132 
L 186.970294 148.524975 
L 188.466364 59.352237 
" style="fill:none;stroke:#b0b0b0;stroke-width:0.8;"/>
    <path d="M 150.761945 223.240836 
L 218.027251 157.552006 
L 220.918613 67.577936 
" style="fill:none;stroke:#b0b0b0;stroke-width:0.8;"/>
   </g>
   <g id="xtick_1">
    <g id="line2d_2">
     <path d="M 86.363951 201.463753 
L 84.506391 203.094394 
" style="fill:none;stroke:#000000;stroke-linecap:square;stroke-width:0.8;"/>
    </g>
    <g id="text_1">
     <!-- −2 -->
     <g transform="translate(66.443839 230.069555)scale(0.16 -0.16)">
      <defs>
       <path d="M 678 2259 
L 4684 2259 
L 4684 1753 
L 678 1753 
L 678 2259 
z
" id="DejaVuSerif-2212" transform="scale(0.015625)"/>
       <path d="M 819 3553 
L 469 3553 
L 469 4384 
Q 803 4563 1142 4656 
Q 1481 4750 1806 4750 
Q 2534 4750 2956 4397 
Q 3378 4044 3378 3438 
Q 3378 2753 2422 1800 
Q 2347 1728 2309 1691 
L 1131 513 
L 3078 513 
L 3078 1088 
L 3444 1088 
L 3444 0 
L 434 0 
L 434 341 
L 1850 1753 
Q 2319 2222 2519 2614 
Q 2719 3006 2719 3438 
Q 2719 3909 2473 4175 
Q 2228 4441 1797 4441 
Q 1350 4441 1106 4219 
Q 863 3997 819 3553 
z
" id="DejaVuSerif-32" transform="scale(0.015625)"/>
      </defs>
      <use xlink:href="#DejaVuSerif-2212"/>
      <use x="83.789062" xlink:href="#DejaVuSerif-32"/>
     </g>
    </g>
   </g>
   <g id="xtick_2">
    <g id="line2d_3">
     <path d="M 118.405508 211.918184 
L 116.592463 213.594478 
" style="fill:none;stroke:#000000;stroke-linecap:square;stroke-width:0.8;"/>
    </g>
    <g id="text_2">
     <!-- 0 -->
     <g transform="translate(105.247108 240.809547)scale(0.16 -0.16)">
      <defs>
       <path d="M 2034 219 
Q 2513 219 2750 744 
Q 2988 1269 2988 2328 
Q 2988 3391 2750 3916 
Q 2513 4441 2034 4441 
Q 1556 4441 1318 3916 
Q 1081 3391 1081 2328 
Q 1081 1269 1318 744 
Q 1556 219 2034 219 
z
M 2034 -91 
Q 1275 -91 848 546 
Q 422 1184 422 2328 
Q 422 3475 848 4112 
Q 1275 4750 2034 4750 
Q 2797 4750 3222 4112 
Q 3647 3475 3647 2328 
Q 3647 1184 3222 546 
Q 2797 -91 2034 -91 
z
" id="DejaVuSerif-30" transform="scale(0.015625)"/>
      </defs>
      <use xlink:href="#DejaVuSerif-30"/>
     </g>
    </g>
   </g>
   <g id="xtick_3">
    <g id="line2d_4">
     <path d="M 151.349494 222.667057 
L 149.584231 224.390948 
" style="fill:none;stroke:#000000;stroke-linecap:square;stroke-width:0.8;"/>
    </g>
    <g id="text_3">
     <!-- 2 -->
     <g transform="translate(138.255592 251.853664)scale(0.16 -0.16)">
      <use xlink:href="#DejaVuSerif-32"/>
     </g>
    </g>
   </g>
  </g>
  <g id="axis3d_2">
   <g id="line2d_5">
    <path d="M 245.414854 165.512501 
L 179.892263 232.754797 
" style="fill:none;stroke:#000000;stroke-linecap:square;stroke-width:0.8;"/>
   </g>
   <g id="Line3DCollection_2">
    <path d="M 58.302238 94.942332 
L 62.4751 187.509112 
L 185.264734 227.241321 
" style="fill:none;stroke:#b0b0b0;stroke-width:0.8;"/>
    <path d="M 78.561293 80.158197 
L 81.767128 171.338152 
L 202.741763 209.30559 
" style="fill:none;stroke:#b0b0b0;stroke-width:0.8;"/>
    <path d="M 97.914251 66.035289 
L 100.232808 155.859852 
L 219.431746 192.177561 
" style="fill:none;stroke:#b0b0b0;stroke-width:0.8;"/>
    <path d="M 116.420573 52.530218 
L 117.924121 141.030643 
L 235.386677 175.803877 
" style="fill:none;stroke:#b0b0b0;stroke-width:0.8;"/>
   </g>
   <g id="xtick_4">
    <g id="line2d_6">
     <path d="M 184.23004 226.906515 
L 187.336795 227.911797 
" style="fill:none;stroke:#000000;stroke-linecap:square;stroke-width:0.8;"/>
    </g>
    <g id="text_4">
     <!-- −2 -->
     <g transform="translate(186.339624 252.808356)scale(0.16 -0.16)">
      <use xlink:href="#DejaVuSerif-2212"/>
      <use x="83.789062" xlink:href="#DejaVuSerif-32"/>
     </g>
    </g>
   </g>
   <g id="xtick_5">
    <g id="line2d_7">
     <path d="M 201.723551 208.986028 
L 204.780756 209.94552 
" style="fill:none;stroke:#000000;stroke-linecap:square;stroke-width:0.8;"/>
    </g>
    <g id="text_5">
     <!-- 0 -->
     <g transform="translate(210.236139 234.550811)scale(0.16 -0.16)">
      <use xlink:href="#DejaVuSerif-30"/>
     </g>
    </g>
   </g>
   <g id="xtick_6">
    <g id="line2d_8">
     <path d="M 218.429598 191.872225 
L 221.438514 192.788986 
" style="fill:none;stroke:#000000;stroke-linecap:square;stroke-width:0.8;"/>
    </g>
    <g id="text_6">
     <!-- 2 -->
     <g transform="translate(226.654123 217.11603)scale(0.16 -0.16)">
      <use xlink:href="#DejaVuSerif-32"/>
     </g>
    </g>
   </g>
   <g id="xtick_7">
    <g id="line2d_9">
     <path d="M 234.40018 175.511838 
L 237.36205 176.38866 
" style="fill:none;stroke:#000000;stroke-linecap:square;stroke-width:0.8;"/>
    </g>
    <g id="text_7">
     <!-- 4 -->
     <g transform="translate(242.348545 200.449623)scale(0.16 -0.16)">
      <defs>
       <path d="M 2234 1581 
L 2234 4063 
L 641 1581 
L 2234 1581 
z
M 3609 0 
L 1484 0 
L 1484 331 
L 2234 331 
L 2234 1247 
L 197 1247 
L 197 1588 
L 2241 4750 
L 2859 4750 
L 2859 1581 
L 3750 1581 
L 3750 1247 
L 2859 1247 
L 2859 331 
L 3609 331 
L 3609 0 
z
" id="DejaVuSerif-34" transform="scale(0.015625)"/>
      </defs>
      <use xlink:href="#DejaVuSerif-34"/>
     </g>
    </g>
   </g>
  </g>
  <g id="axis3d_3">
   <g id="line2d_10">
    <path d="M 245.414854 165.512501 
L 249.567035 74.839476 
" style="fill:none;stroke:#000000;stroke-linecap:square;stroke-width:0.8;"/>
   </g>
   <g id="Line3DCollection_3">
    <path d="M 246.279025 146.641193 
L 128.85305 113.420197 
L 55.623088 173.145499 
" style="fill:none;stroke:#b0b0b0;stroke-width:0.8;"/>
    <path d="M 247.353151 123.185037 
L 128.592125 90.729515 
L 54.465339 149.104083 
" style="fill:none;stroke:#b0b0b0;stroke-width:0.8;"/>
    <path d="M 248.452228 99.183996 
L 128.325434 67.537371 
L 53.279649 124.482468 
" style="fill:none;stroke:#b0b0b0;stroke-width:0.8;"/>
   </g>
   <g id="xtick_8">
    <g id="line2d_11">
     <path d="M 245.293068 146.362256 
L 248.253307 147.199737 
" style="fill:none;stroke:#000000;stroke-linecap:square;stroke-width:0.8;"/>
    </g>
    <g id="text_8">
     <!-- −1 -->
     <g transform="translate(252.888567 156.240334)scale(0.16 -0.16)">
      <defs>
       <path d="M 909 0 
L 909 331 
L 1722 331 
L 1722 4213 
L 781 3603 
L 781 4013 
L 1919 4750 
L 2350 4750 
L 2350 331 
L 3163 331 
L 3163 0 
L 909 0 
z
" id="DejaVuSerif-31" transform="scale(0.015625)"/>
      </defs>
      <use xlink:href="#DejaVuSerif-2212"/>
      <use x="83.789062" xlink:href="#DejaVuSerif-31"/>
     </g>
    </g>
   </g>
   <g id="xtick_9">
    <g id="line2d_12">
     <path d="M 246.355444 122.912379 
L 249.350988 123.731014 
" style="fill:none;stroke:#000000;stroke-linecap:square;stroke-width:0.8;"/>
    </g>
    <g id="text_9">
     <!-- 0 -->
     <g transform="translate(260.872977 132.841866)scale(0.16 -0.16)">
      <use xlink:href="#DejaVuSerif-30"/>
     </g>
    </g>
   </g>
   <g id="xtick_10">
    <g id="line2d_13">
     <path d="M 247.442488 98.917986 
L 250.474189 99.716668 
" style="fill:none;stroke:#000000;stroke-linecap:square;stroke-width:0.8;"/>
    </g>
    <g id="text_10">
     <!-- 1 -->
     <g transform="translate(262.183274 108.901892)scale(0.16 -0.16)">
      <use xlink:href="#DejaVuSerif-31"/>
     </g>
    </g>
   </g>
  </g>
  <g id="axes_1">
   <g id="line2d_14">
    <path clip-path="url(#p0f992a27a3)" d="M 192.810893 132.95719 
L 212.568896 178.068509 
L 211.635077 187.167531 
L 191.511237 195.811862 
L 185.348484 197.331813 
L 178.791705 200.986404 
L 165.274887 203.541853 
L 152.065731 166.975973 
L 145.78491 169.589284 
L 140.012469 182.871982 
L 129.66224 157.982341 
L 125.424062 154.955644 
L 118.914134 153.251695 
L 114.920062 149.94213 
L 114.051045 160.143439 
L 119.420143 156.153906 
L 121.416246 154.607469 
L 130.693707 145.922765 
L 133.175355 144.015515 
L 138.153176 142.35498 
L 140.58194 138.966812 
L 142.960292 134.750942 
L 145.28254 131.347006 
L 147.538548 131.028746 
L 158.658846 136.992388 
L 159.977603 136.450047 
L 161.092477 136.675044 
L 161.979337 137.652773 
L 162.979886 139.050222 
L 163.037657 140.049815 
L 162.76376 141.360619 
L 159.703555 147.749078 
L 157.865076 153.761504 
L 155.610427 159.37768 
L 152.938295 164.295375 
L 142.455746 162.237711 
L 138.352766 180.15541 
L 133.802334 173.139262 
L 124.161409 170.934522 
L 114.116702 161.978818 
L 104.128793 135.90106 
L 99.969318 139.771258 
L 87.830326 109.826468 
L 86.759043 103.836966 
L 86.675761 99.3871 
L 87.630179 96.220316 
L 96.71105 84.002869 
L 108.046174 76.329392 
L 132.25068 66.479407 
L 152.298231 61.801538 
" style="fill:none;stroke:#4b0082;stroke-linecap:square;stroke-opacity:0.6;stroke-width:2;"/>
   </g>
   <g id="line2d_15">
    <path clip-path="url(#p0f992a27a3)" d="M 192.896828 128.548057 
L 212.576359 177.817627 
L 211.675255 185.801785 
L 191.490243 196.891083 
L 185.351348 197.156948 
L 178.836643 197.557839 
L 165.323955 195.775457 
L 152.072569 187.886132 
L 145.831547 183.159186 
L 139.994326 180.008604 
L 129.786337 168.91298 
L 125.538147 163.457224 
L 119.036158 160.600338 
L 115.119831 160.71935 
L 114.063382 160.79081 
L 119.354292 152.133644 
L 121.348157 150.182234 
L 130.670427 143.763427 
L 133.159917 142.40035 
L 138.138333 140.270046 
L 140.584712 139.434804 
L 142.980011 138.899676 
L 145.308857 138.622831 
L 147.557534 138.561631 
L 158.648014 140.740581 
L 159.959584 141.552625 
L 161.069792 142.241979 
L 161.956284 142.765386 
L 162.95396 144.235324 
L 163.012169 145.116271 
L 162.742685 145.661399 
L 159.697151 149.623184 
L 157.870449 151.632607 
L 155.619621 152.904003 
L 152.939447 153.243458 
L 142.438821 158.897025 
L 138.223413 162.072932 
L 133.7037 162.629901 
L 124.048816 162.97795 
L 113.986163 155.123669 
L 104.339993 144.825951 
L 99.953954 139.174335 
L 88.076579 117.718142 
L 87.068775 113.629866 
L 86.962629 108.464993 
L 87.822934 102.418831 
L 96.756919 85.727034 
L 108.06113 77.036734 
L 132.262862 67.742478 
L 152.299184 66.529069 
" style="fill:none;stroke:#ff7f50;stroke-dasharray:7.4,3.2;stroke-dashoffset:0;stroke-width:2;"/>
   </g>
   <g id="text_11">
    <!-- $D=2, \beta=3.2828$ -->
    <g transform="translate(68.544 28.506351)scale(0.192 -0.192)">
     <defs>
      <path d="M 1081 4666 
L 2438 4666 
Q 3519 4666 4070 4208 
Q 4622 3750 4622 2847 
Q 4622 2250 4412 1698 
Q 4203 1147 3834 769 
Q 3463 381 2891 190 
Q 2319 0 1538 0 
L 172 0 
L 1081 4666 
z
M 1613 4147 
L 909 519 
L 1734 519 
Q 2794 519 3375 1128 
Q 3956 1738 3956 2847 
Q 3956 3519 3581 3833 
Q 3206 4147 2406 4147 
L 1613 4147 
z
" id="DejaVuSans-Oblique-44" transform="scale(0.015625)"/>
      <path d="M 678 2906 
L 4684 2906 
L 4684 2381 
L 678 2381 
L 678 2906 
z
M 678 1631 
L 4684 1631 
L 4684 1100 
L 678 1100 
L 678 1631 
z
" id="DejaVuSans-3d" transform="scale(0.015625)"/>
      <path d="M 1228 531 
L 3431 531 
L 3431 0 
L 469 0 
L 469 531 
Q 828 903 1448 1529 
Q 2069 2156 2228 2338 
Q 2531 2678 2651 2914 
Q 2772 3150 2772 3378 
Q 2772 3750 2511 3984 
Q 2250 4219 1831 4219 
Q 1534 4219 1204 4116 
Q 875 4013 500 3803 
L 500 4441 
Q 881 4594 1212 4672 
Q 1544 4750 1819 4750 
Q 2544 4750 2975 4387 
Q 3406 4025 3406 3419 
Q 3406 3131 3298 2873 
Q 3191 2616 2906 2266 
Q 2828 2175 2409 1742 
Q 1991 1309 1228 531 
z
" id="DejaVuSans-32" transform="scale(0.015625)"/>
      <path d="M 750 794 
L 1409 794 
L 1409 256 
L 897 -744 
L 494 -744 
L 750 256 
L 750 794 
z
" id="DejaVuSans-2c" transform="scale(0.015625)"/>
      <path d="M 872 216 
L 572 -1331 
L -6 -1331 
L 928 3478 
Q 1206 4903 2538 4903 
Q 3888 4903 3659 3700 
Q 3503 2844 2894 2531 
Q 3713 2250 3553 1416 
Q 3272 -69 1759 -66 
Q 1097 -63 872 216 
z
M 1019 966 
Q 1259 422 1875 425 
Q 2775 425 2966 1406 
Q 3138 2288 1675 2219 
L 1778 2750 
Q 2909 2731 3106 3750 
Q 3241 4438 2509 4434 
Q 1691 4434 1503 3459 
L 1019 966 
z
" id="DejaVuSans-Oblique-3b2" transform="scale(0.015625)"/>
      <path d="M 2597 2516 
Q 3050 2419 3304 2112 
Q 3559 1806 3559 1356 
Q 3559 666 3084 287 
Q 2609 -91 1734 -91 
Q 1441 -91 1130 -33 
Q 819 25 488 141 
L 488 750 
Q 750 597 1062 519 
Q 1375 441 1716 441 
Q 2309 441 2620 675 
Q 2931 909 2931 1356 
Q 2931 1769 2642 2001 
Q 2353 2234 1838 2234 
L 1294 2234 
L 1294 2753 
L 1863 2753 
Q 2328 2753 2575 2939 
Q 2822 3125 2822 3475 
Q 2822 3834 2567 4026 
Q 2313 4219 1838 4219 
Q 1578 4219 1281 4162 
Q 984 4106 628 3988 
L 628 4550 
Q 988 4650 1302 4700 
Q 1616 4750 1894 4750 
Q 2613 4750 3031 4423 
Q 3450 4097 3450 3541 
Q 3450 3153 3228 2886 
Q 3006 2619 2597 2516 
z
" id="DejaVuSans-33" transform="scale(0.015625)"/>
      <path d="M 684 794 
L 1344 794 
L 1344 0 
L 684 0 
L 684 794 
z
" id="DejaVuSans-2e" transform="scale(0.015625)"/>
      <path d="M 2034 2216 
Q 1584 2216 1326 1975 
Q 1069 1734 1069 1313 
Q 1069 891 1326 650 
Q 1584 409 2034 409 
Q 2484 409 2743 651 
Q 3003 894 3003 1313 
Q 3003 1734 2745 1975 
Q 2488 2216 2034 2216 
z
M 1403 2484 
Q 997 2584 770 2862 
Q 544 3141 544 3541 
Q 544 4100 942 4425 
Q 1341 4750 2034 4750 
Q 2731 4750 3128 4425 
Q 3525 4100 3525 3541 
Q 3525 3141 3298 2862 
Q 3072 2584 2669 2484 
Q 3125 2378 3379 2068 
Q 3634 1759 3634 1313 
Q 3634 634 3220 271 
Q 2806 -91 2034 -91 
Q 1263 -91 848 271 
Q 434 634 434 1313 
Q 434 1759 690 2068 
Q 947 2378 1403 2484 
z
M 1172 3481 
Q 1172 3119 1398 2916 
Q 1625 2713 2034 2713 
Q 2441 2713 2670 2916 
Q 2900 3119 2900 3481 
Q 2900 3844 2670 4047 
Q 2441 4250 2034 4250 
Q 1625 4250 1398 4047 
Q 1172 3844 1172 3481 
z
" id="DejaVuSans-38" transform="scale(0.015625)"/>
     </defs>
     <use transform="translate(0 0.390625)" xlink:href="#DejaVuSans-Oblique-44"/>
     <use transform="translate(96.484375 0.390625)" xlink:href="#DejaVuSans-3d"/>
     <use transform="translate(199.755859 0.390625)" xlink:href="#DejaVuSans-32"/>
     <use transform="translate(263.378906 0.390625)" xlink:href="#DejaVuSans-2c"/>
     <use transform="translate(314.648438 0.390625)" xlink:href="#DejaVuSans-Oblique-3b2"/>
     <use transform="translate(397.949219 0.390625)" xlink:href="#DejaVuSans-3d"/>
     <use transform="translate(501.220703 0.390625)" xlink:href="#DejaVuSans-33"/>
     <use transform="translate(564.84375 0.390625)" xlink:href="#DejaVuSans-2e"/>
     <use transform="translate(591.130859 0.390625)" xlink:href="#DejaVuSans-32"/>
     <use transform="translate(654.753906 0.390625)" xlink:href="#DejaVuSans-38"/>
     <use transform="translate(718.376953 0.390625)" xlink:href="#DejaVuSans-32"/>
     <use transform="translate(782 0.390625)" xlink:href="#DejaVuSans-38"/>
    </g>
   </g>
  </g>
  <g id="patch_6">
   <path d="M 322.214714 246.611524 
L 541.785286 246.611524 
L 541.785286 27.040952 
L 322.214714 27.040952 
z
" style="fill:#ffffff;"/>
  </g>
  <g id="pane3d_4">
   <g id="patch_7">
    <path d="M 338.793806 192.472458 
L 411.30318 131.693663 
L 410.29523 44.039775 
L 334.315909 99.486023 
" style="fill:#f2f2f2;opacity:0.5;stroke:#f2f2f2;stroke-linejoin:miter;"/>
   </g>
  </g>
  <g id="pane3d_5">
   <g id="patch_8">
    <path d="M 411.30318 131.693663 
L 527.654854 165.512501 
L 531.807035 74.839476 
L 410.29523 44.039775 
" style="fill:#e6e6e6;opacity:0.5;stroke:#e6e6e6;stroke-linejoin:miter;"/>
   </g>
  </g>
  <g id="pane3d_6">
   <g id="patch_9">
    <path d="M 338.793806 192.472458 
L 462.132263 232.754797 
L 527.654854 165.512501 
L 411.30318 131.693663 
" style="fill:#ececec;opacity:0.5;stroke:#ececec;stroke-linejoin:miter;"/>
   </g>
  </g>
  <g id="axis3d_4">
   <g id="line2d_16">
    <path d="M 338.793806 192.472458 
L 462.132263 232.754797 
" style="fill:none;stroke:#000000;stroke-linecap:square;stroke-width:0.8;"/>
   </g>
   <g id="Line3DCollection_4">
    <path d="M 367.985657 202.006516 
L 438.934307 139.72494 
L 439.105356 51.342303 
" style="fill:none;stroke:#b0b0b0;stroke-width:0.8;"/>
    <path d="M 400.042044 212.476132 
L 469.210294 148.524975 
L 470.706364 59.352237 
" style="fill:none;stroke:#b0b0b0;stroke-width:0.8;"/>
    <path d="M 433.001945 223.240836 
L 500.267251 157.552006 
L 503.158613 67.577936 
" style="fill:none;stroke:#b0b0b0;stroke-width:0.8;"/>
   </g>
   <g id="xtick_11">
    <g id="line2d_17">
     <path d="M 368.603951 201.463753 
L 366.746391 203.094394 
" style="fill:none;stroke:#000000;stroke-linecap:square;stroke-width:0.8;"/>
    </g>
    <g id="text_12">
     <!-- −2 -->
     <g transform="translate(348.683839 230.069555)scale(0.16 -0.16)">
      <use xlink:href="#DejaVuSerif-2212"/>
      <use x="83.789062" xlink:href="#DejaVuSerif-32"/>
     </g>
    </g>
   </g>
   <g id="xtick_12">
    <g id="line2d_18">
     <path d="M 400.645508 211.918184 
L 398.832463 213.594478 
" style="fill:none;stroke:#000000;stroke-linecap:square;stroke-width:0.8;"/>
    </g>
    <g id="text_13">
     <!-- 0 -->
     <g transform="translate(387.487108 240.809547)scale(0.16 -0.16)">
      <use xlink:href="#DejaVuSerif-30"/>
     </g>
    </g>
   </g>
   <g id="xtick_13">
    <g id="line2d_19">
     <path d="M 433.589494 222.667057 
L 431.824231 224.390948 
" style="fill:none;stroke:#000000;stroke-linecap:square;stroke-width:0.8;"/>
    </g>
    <g id="text_14">
     <!-- 2 -->
     <g transform="translate(420.495592 251.853664)scale(0.16 -0.16)">
      <use xlink:href="#DejaVuSerif-32"/>
     </g>
    </g>
   </g>
  </g>
  <g id="axis3d_5">
   <g id="line2d_20">
    <path d="M 527.654854 165.512501 
L 462.132263 232.754797 
" style="fill:none;stroke:#000000;stroke-linecap:square;stroke-width:0.8;"/>
   </g>
   <g id="Line3DCollection_5">
    <path d="M 340.542238 94.942332 
L 344.7151 187.509112 
L 467.504734 227.241321 
" style="fill:none;stroke:#b0b0b0;stroke-width:0.8;"/>
    <path d="M 360.801293 80.158197 
L 364.007128 171.338152 
L 484.981763 209.30559 
" style="fill:none;stroke:#b0b0b0;stroke-width:0.8;"/>
    <path d="M 380.154251 66.035289 
L 382.472808 155.859852 
L 501.671746 192.177561 
" style="fill:none;stroke:#b0b0b0;stroke-width:0.8;"/>
    <path d="M 398.660573 52.530218 
L 400.164121 141.030643 
L 517.626677 175.803877 
" style="fill:none;stroke:#b0b0b0;stroke-width:0.8;"/>
   </g>
   <g id="xtick_14">
    <g id="line2d_21">
     <path d="M 466.47004 226.906515 
L 469.576795 227.911797 
" style="fill:none;stroke:#000000;stroke-linecap:square;stroke-width:0.8;"/>
    </g>
    <g id="text_15">
     <!-- −2 -->
     <g transform="translate(468.579624 252.808356)scale(0.16 -0.16)">
      <use xlink:href="#DejaVuSerif-2212"/>
      <use x="83.789062" xlink:href="#DejaVuSerif-32"/>
     </g>
    </g>
   </g>
   <g id="xtick_15">
    <g id="line2d_22">
     <path d="M 483.963551 208.986028 
L 487.020756 209.94552 
" style="fill:none;stroke:#000000;stroke-linecap:square;stroke-width:0.8;"/>
    </g>
    <g id="text_16">
     <!-- 0 -->
     <g transform="translate(492.476139 234.550811)scale(0.16 -0.16)">
      <use xlink:href="#DejaVuSerif-30"/>
     </g>
    </g>
   </g>
   <g id="xtick_16">
    <g id="line2d_23">
     <path d="M 500.669598 191.872225 
L 503.678514 192.788986 
" style="fill:none;stroke:#000000;stroke-linecap:square;stroke-width:0.8;"/>
    </g>
    <g id="text_17">
     <!-- 2 -->
     <g transform="translate(508.894123 217.11603)scale(0.16 -0.16)">
      <use xlink:href="#DejaVuSerif-32"/>
     </g>
    </g>
   </g>
   <g id="xtick_17">
    <g id="line2d_24">
     <path d="M 516.64018 175.511838 
L 519.60205 176.38866 
" style="fill:none;stroke:#000000;stroke-linecap:square;stroke-width:0.8;"/>
    </g>
    <g id="text_18">
     <!-- 4 -->
     <g transform="translate(524.588545 200.449623)scale(0.16 -0.16)">
      <use xlink:href="#DejaVuSerif-34"/>
     </g>
    </g>
   </g>
  </g>
  <g id="axis3d_6">
   <g id="line2d_25">
    <path d="M 527.654854 165.512501 
L 531.807035 74.839476 
" style="fill:none;stroke:#000000;stroke-linecap:square;stroke-width:0.8;"/>
   </g>
   <g id="Line3DCollection_6">
    <path d="M 528.53179 146.362447 
L 411.089947 113.150402 
L 337.849336 172.859921 
" style="fill:none;stroke:#b0b0b0;stroke-width:0.8;"/>
    <path d="M 529.607866 122.863696 
L 410.828553 90.418833 
L 336.689471 148.774578 
" style="fill:none;stroke:#b0b0b0;stroke-width:0.8;"/>
    <path d="M 530.708982 98.818142 
L 410.561371 67.184049 
L 335.501567 124.106985 
" style="fill:none;stroke:#b0b0b0;stroke-width:0.8;"/>
   </g>
   <g id="xtick_18">
    <g id="line2d_26">
     <path d="M 527.545693 146.083583 
L 530.506351 146.920845 
" style="fill:none;stroke:#000000;stroke-linecap:square;stroke-width:0.8;"/>
    </g>
    <g id="text_19">
     <!-- −1 -->
     <g transform="translate(535.143787 155.962262)scale(0.16 -0.16)">
      <use xlink:href="#DejaVuSerif-2212"/>
      <use x="83.789062" xlink:href="#DejaVuSerif-31"/>
     </g>
    </g>
   </g>
   <g id="xtick_19">
    <g id="line2d_27">
     <path d="M 528.609998 122.591125 
L 531.606026 123.409498 
" style="fill:none;stroke:#000000;stroke-linecap:square;stroke-width:0.8;"/>
    </g>
    <g id="text_20">
     <!-- 0 -->
     <g transform="translate(543.130521 132.521329)scale(0.16 -0.16)">
      <use xlink:href="#DejaVuSerif-30"/>
     </g>
    </g>
   </g>
   <g id="xtick_20">
    <g id="line2d_28">
     <path d="M 529.699058 98.552236 
L 532.73131 99.350608 
" style="fill:none;stroke:#000000;stroke-linecap:square;stroke-width:0.8;"/>
    </g>
    <g id="text_21">
     <!-- 1 -->
     <g transform="translate(544.443247 108.536985)scale(0.16 -0.16)">
      <use xlink:href="#DejaVuSerif-31"/>
     </g>
    </g>
   </g>
  </g>
  <g id="axes_2">
   <g id="line2d_29">
    <path clip-path="url(#p0454ddcc6d)" d="M 475.063153 132.328171 
L 494.808896 178.068509 
L 493.937197 185.055929 
L 473.846738 190.902457 
L 467.66054 192.931217 
L 461.064742 198.46586 
L 447.517622 203.108955 
L 434.304918 164.487705 
L 428.018776 167.804434 
L 422.246024 181.854726 
L 411.899615 157.751066 
L 407.667385 155.203266 
L 401.14455 152.674548 
L 397.14395 149.0729 
L 396.280783 159.604987 
L 401.644722 155.212419 
L 403.634371 153.185792 
L 412.928229 145.41467 
L 415.413554 143.827013 
L 420.381709 140.744182 
L 422.816578 138.061527 
L 425.202031 135.116964 
L 427.526128 132.338845 
L 429.776615 130.261972 
L 440.895366 138.196609 
L 442.210859 138.359803 
L 443.324109 138.72862 
L 444.213763 138.888808 
L 445.209986 141.03009 
L 445.265719 142.422892 
L 444.991424 143.878079 
L 441.940618 148.608621 
L 440.099627 155.920713 
L 437.846988 161.799439 
L 435.178118 165.98801 
L 424.692433 161.583808 
L 420.587781 179.458486 
L 416.037367 172.610083 
L 406.403934 171.112957 
L 396.358354 162.065607 
L 386.38215 136.465475 
L 382.244457 141.13653 
L 370.14957 112.36599 
L 369.090163 106.717952 
L 368.991292 101.777264 
L 369.905345 97.351164 
L 378.961651 84.401349 
L 390.279283 76.003466 
L 414.486169 66.011634 
L 434.538231 61.801538 
" style="fill:none;stroke:#4b0082;stroke-linecap:square;stroke-opacity:0.6;stroke-width:2;"/>
   </g>
   <g id="line2d_30">
    <path clip-path="url(#p0454ddcc6d)" d="M 475.16594 127.05437 
L 494.83493 177.193389 
L 493.929586 185.314637 
L 473.747986 195.978975 
L 467.60888 196.086205 
L 461.093425 196.277529 
L 447.574296 194.138712 
L 434.312084 186.400369 
L 428.066895 181.80546 
L 422.22504 178.543042 
L 412.020525 168.401006 
L 407.777429 163.403757 
L 401.266189 159.999978 
L 397.33504 159.381899 
L 396.275235 159.313863 
L 401.573965 150.89264 
L 403.56991 148.996327 
L 412.899694 142.767937 
L 415.390896 141.456494 
L 420.372641 139.470459 
L 422.820524 138.727794 
L 425.217073 138.281542 
L 427.546932 138.090506 
L 429.796403 138.112836 
L 440.887271 140.997724 
L 442.198237 141.933983 
L 443.307706 142.753833 
L 444.193354 143.415054 
L 445.189565 145.114284 
L 445.247283 146.087629 
L 444.977413 146.737381 
L 441.932969 150.847269 
L 440.107372 152.851951 
L 437.857825 154.168759 
L 435.179303 154.625928 
L 424.682764 159.675426 
L 420.465511 162.366248 
L 415.945749 162.848239 
L 406.283405 162.595538 
L 396.233009 155.483195 
L 386.601018 145.714418 
L 382.218142 140.114128 
L 370.341052 118.502433 
L 369.32782 114.232014 
L 369.21738 108.931809 
L 370.074377 102.786819 
L 378.998234 85.776469 
L 390.299607 76.964734 
L 414.505386 68.004131 
L 434.539404 67.621495 
" style="fill:none;stroke:#ff7f50;stroke-dasharray:7.4,3.2;stroke-dashoffset:0;stroke-width:2;"/>
   </g>
   <g id="text_22">
    <!-- $D=3, \beta=2.907$ -->
    <g transform="translate(356.352 28.506351)scale(0.192 -0.192)">
     <defs>
      <path d="M 703 97 
L 703 672 
Q 941 559 1184 500 
Q 1428 441 1663 441 
Q 2288 441 2617 861 
Q 2947 1281 2994 2138 
Q 2813 1869 2534 1725 
Q 2256 1581 1919 1581 
Q 1219 1581 811 2004 
Q 403 2428 403 3163 
Q 403 3881 828 4315 
Q 1253 4750 1959 4750 
Q 2769 4750 3195 4129 
Q 3622 3509 3622 2328 
Q 3622 1225 3098 567 
Q 2575 -91 1691 -91 
Q 1453 -91 1209 -44 
Q 966 3 703 97 
z
M 1959 2075 
Q 2384 2075 2632 2365 
Q 2881 2656 2881 3163 
Q 2881 3666 2632 3958 
Q 2384 4250 1959 4250 
Q 1534 4250 1286 3958 
Q 1038 3666 1038 3163 
Q 1038 2656 1286 2365 
Q 1534 2075 1959 2075 
z
" id="DejaVuSans-39" transform="scale(0.015625)"/>
      <path d="M 2034 4250 
Q 1547 4250 1301 3770 
Q 1056 3291 1056 2328 
Q 1056 1369 1301 889 
Q 1547 409 2034 409 
Q 2525 409 2770 889 
Q 3016 1369 3016 2328 
Q 3016 3291 2770 3770 
Q 2525 4250 2034 4250 
z
M 2034 4750 
Q 2819 4750 3233 4129 
Q 3647 3509 3647 2328 
Q 3647 1150 3233 529 
Q 2819 -91 2034 -91 
Q 1250 -91 836 529 
Q 422 1150 422 2328 
Q 422 3509 836 4129 
Q 1250 4750 2034 4750 
z
" id="DejaVuSans-30" transform="scale(0.015625)"/>
      <path d="M 525 4666 
L 3525 4666 
L 3525 4397 
L 1831 0 
L 1172 0 
L 2766 4134 
L 525 4134 
L 525 4666 
z
" id="DejaVuSans-37" transform="scale(0.015625)"/>
     </defs>
     <use transform="translate(0 0.390625)" xlink:href="#DejaVuSans-Oblique-44"/>
     <use transform="translate(96.484375 0.390625)" xlink:href="#DejaVuSans-3d"/>
     <use transform="translate(199.755859 0.390625)" xlink:href="#DejaVuSans-33"/>
     <use transform="translate(263.378906 0.390625)" xlink:href="#DejaVuSans-2c"/>
     <use transform="translate(314.648438 0.390625)" xlink:href="#DejaVuSans-Oblique-3b2"/>
     <use transform="translate(397.949219 0.390625)" xlink:href="#DejaVuSans-3d"/>
     <use transform="translate(501.220703 0.390625)" xlink:href="#DejaVuSans-32"/>
     <use transform="translate(564.84375 0.390625)" xlink:href="#DejaVuSans-2e"/>
     <use transform="translate(596.630859 0.390625)" xlink:href="#DejaVuSans-39"/>
     <use transform="translate(660.253906 0.390625)" xlink:href="#DejaVuSans-30"/>
     <use transform="translate(723.876953 0.390625)" xlink:href="#DejaVuSans-37"/>
    </g>
   </g>
  </g>
  <g id="patch_10">
   <path d="M 604.454714 246.611524 
L 824.025286 246.611524 
L 824.025286 27.040952 
L 604.454714 27.040952 
z
" style="fill:#ffffff;"/>
  </g>
  <g id="pane3d_7">
   <g id="patch_11">
    <path d="M 621.033806 192.472458 
L 693.54318 131.693663 
L 692.53523 44.039775 
L 616.555909 99.486023 
" style="fill:#f2f2f2;opacity:0.5;stroke:#f2f2f2;stroke-linejoin:miter;"/>
   </g>
  </g>
  <g id="pane3d_8">
   <g id="patch_12">
    <path d="M 693.54318 131.693663 
L 809.894854 165.512501 
L 814.047035 74.839476 
L 692.53523 44.039775 
" style="fill:#e6e6e6;opacity:0.5;stroke:#e6e6e6;stroke-linejoin:miter;"/>
   </g>
  </g>
  <g id="pane3d_9">
   <g id="patch_13">
    <path d="M 621.033806 192.472458 
L 744.372263 232.754797 
L 809.894854 165.512501 
L 693.54318 131.693663 
" style="fill:#ececec;opacity:0.5;stroke:#ececec;stroke-linejoin:miter;"/>
   </g>
  </g>
  <g id="axis3d_7">
   <g id="line2d_31">
    <path d="M 621.033806 192.472458 
L 744.372263 232.754797 
" style="fill:none;stroke:#000000;stroke-linecap:square;stroke-width:0.8;"/>
   </g>
   <g id="Line3DCollection_7">
    <path d="M 650.225657 202.006516 
L 721.174307 139.72494 
L 721.345356 51.342303 
" style="fill:none;stroke:#b0b0b0;stroke-width:0.8;"/>
    <path d="M 682.282044 212.476132 
L 751.450294 148.524975 
L 752.946364 59.352237 
" style="fill:none;stroke:#b0b0b0;stroke-width:0.8;"/>
    <path d="M 715.241945 223.240836 
L 782.507251 157.552006 
L 785.398613 67.577936 
" style="fill:none;stroke:#b0b0b0;stroke-width:0.8;"/>
   </g>
   <g id="xtick_21">
    <g id="line2d_32">
     <path d="M 650.843951 201.463753 
L 648.986391 203.094394 
" style="fill:none;stroke:#000000;stroke-linecap:square;stroke-width:0.8;"/>
    </g>
    <g id="text_23">
     <!-- −2 -->
     <g transform="translate(630.923839 230.069555)scale(0.16 -0.16)">
      <use xlink:href="#DejaVuSerif-2212"/>
      <use x="83.789062" xlink:href="#DejaVuSerif-32"/>
     </g>
    </g>
   </g>
   <g id="xtick_22">
    <g id="line2d_33">
     <path d="M 682.885508 211.918184 
L 681.072463 213.594478 
" style="fill:none;stroke:#000000;stroke-linecap:square;stroke-width:0.8;"/>
    </g>
    <g id="text_24">
     <!-- 0 -->
     <g transform="translate(669.727108 240.809547)scale(0.16 -0.16)">
      <use xlink:href="#DejaVuSerif-30"/>
     </g>
    </g>
   </g>
   <g id="xtick_23">
    <g id="line2d_34">
     <path d="M 715.829494 222.667057 
L 714.064231 224.390948 
" style="fill:none;stroke:#000000;stroke-linecap:square;stroke-width:0.8;"/>
    </g>
    <g id="text_25">
     <!-- 2 -->
     <g transform="translate(702.735592 251.853664)scale(0.16 -0.16)">
      <use xlink:href="#DejaVuSerif-32"/>
     </g>
    </g>
   </g>
  </g>
  <g id="axis3d_8">
   <g id="line2d_35">
    <path d="M 809.894854 165.512501 
L 744.372263 232.754797 
" style="fill:none;stroke:#000000;stroke-linecap:square;stroke-width:0.8;"/>
   </g>
   <g id="Line3DCollection_8">
    <path d="M 622.782238 94.942332 
L 626.9551 187.509112 
L 749.744734 227.241321 
" style="fill:none;stroke:#b0b0b0;stroke-width:0.8;"/>
    <path d="M 643.041293 80.158197 
L 646.247128 171.338152 
L 767.221763 209.30559 
" style="fill:none;stroke:#b0b0b0;stroke-width:0.8;"/>
    <path d="M 662.394251 66.035289 
L 664.712808 155.859852 
L 783.911746 192.177561 
" style="fill:none;stroke:#b0b0b0;stroke-width:0.8;"/>
    <path d="M 680.900573 52.530218 
L 682.404121 141.030643 
L 799.866677 175.803877 
" style="fill:none;stroke:#b0b0b0;stroke-width:0.8;"/>
   </g>
   <g id="xtick_24">
    <g id="line2d_36">
     <path d="M 748.71004 226.906515 
L 751.816795 227.911797 
" style="fill:none;stroke:#000000;stroke-linecap:square;stroke-width:0.8;"/>
    </g>
    <g id="text_26">
     <!-- −2 -->
     <g transform="translate(750.819624 252.808356)scale(0.16 -0.16)">
      <use xlink:href="#DejaVuSerif-2212"/>
      <use x="83.789062" xlink:href="#DejaVuSerif-32"/>
     </g>
    </g>
   </g>
   <g id="xtick_25">
    <g id="line2d_37">
     <path d="M 766.203551 208.986028 
L 769.260756 209.94552 
" style="fill:none;stroke:#000000;stroke-linecap:square;stroke-width:0.8;"/>
    </g>
    <g id="text_27">
     <!-- 0 -->
     <g transform="translate(774.716139 234.550811)scale(0.16 -0.16)">
      <use xlink:href="#DejaVuSerif-30"/>
     </g>
    </g>
   </g>
   <g id="xtick_26">
    <g id="line2d_38">
     <path d="M 782.909598 191.872225 
L 785.918514 192.788986 
" style="fill:none;stroke:#000000;stroke-linecap:square;stroke-width:0.8;"/>
    </g>
    <g id="text_28">
     <!-- 2 -->
     <g transform="translate(791.134123 217.11603)scale(0.16 -0.16)">
      <use xlink:href="#DejaVuSerif-32"/>
     </g>
    </g>
   </g>
   <g id="xtick_27">
    <g id="line2d_39">
     <path d="M 798.88018 175.511838 
L 801.84205 176.38866 
" style="fill:none;stroke:#000000;stroke-linecap:square;stroke-width:0.8;"/>
    </g>
    <g id="text_29">
     <!-- 4 -->
     <g transform="translate(806.828545 200.449623)scale(0.16 -0.16)">
      <use xlink:href="#DejaVuSerif-34"/>
     </g>
    </g>
   </g>
  </g>
  <g id="axis3d_9">
   <g id="line2d_40">
    <path d="M 809.894854 165.512501 
L 814.047035 74.839476 
" style="fill:none;stroke:#000000;stroke-linecap:square;stroke-width:0.8;"/>
   </g>
   <g id="Line3DCollection_9">
    <path d="M 810.730914 147.25508 
L 693.339883 114.014383 
L 620.133375 173.774422 
" style="fill:none;stroke:#b0b0b0;stroke-width:0.8;"/>
    <path d="M 811.85392 122.731497 
L 693.067083 90.291021 
L 618.922943 148.63902 
" style="fill:none;stroke:#b0b0b0;stroke-width:0.8;"/>
    <path d="M 813.004223 97.611812 
L 692.787975 66.019079 
L 617.681944 122.868867 
" style="fill:none;stroke:#b0b0b0;stroke-width:0.8;"/>
   </g>
   <g id="xtick_28">
    <g id="line2d_41">
     <path d="M 809.745264 146.975981 
L 812.704579 147.813947 
" style="fill:none;stroke:#000000;stroke-linecap:square;stroke-width:0.8;"/>
    </g>
    <g id="text_30">
     <!-- −1 -->
     <g transform="translate(817.335049 156.852737)scale(0.16 -0.16)">
      <use xlink:href="#DejaVuSerif-2212"/>
      <use x="83.789062" xlink:href="#DejaVuSerif-31"/>
     </g>
    </g>
   </g>
   <g id="xtick_29">
    <g id="line2d_42">
     <path d="M 810.855985 122.458963 
L 813.852212 123.277227 
" style="fill:none;stroke:#000000;stroke-linecap:square;stroke-width:0.8;"/>
    </g>
    <g id="text_31">
     <!-- 0 -->
     <g transform="translate(825.377738 132.389461)scale(0.16 -0.16)">
      <use xlink:href="#DejaVuSerif-30"/>
     </g>
    </g>
   </g>
   <g id="xtick_30">
    <g id="line2d_43">
     <path d="M 811.993694 97.346246 
L 815.027765 98.143597 
" style="fill:none;stroke:#000000;stroke-linecap:square;stroke-width:0.8;"/>
    </g>
    <g id="text_32">
     <!-- 1 -->
     <g transform="translate(826.749101 107.333781)scale(0.16 -0.16)">
      <use xlink:href="#DejaVuSerif-31"/>
     </g>
    </g>
   </g>
  </g>
  <g id="axes_3">
   <g id="line2d_44">
    <path clip-path="url(#p6f2afb5ffa)" d="M 757.344574 130.202936 
L 777.048896 178.068509 
L 776.454592 175.626679 
L 756.503504 169.477857 
L 750.203449 174.432074 
L 743.428358 189.034635 
L 729.763645 202.155618 
L 716.541064 152.705208 
L 710.231166 159.770754 
L 704.461276 177.948903 
L 694.13594 157.427411 
L 689.908683 155.299994 
L 683.373868 152.031234 
L 679.319196 145.57954 
L 678.498212 158.420632 
L 683.837337 152.31953 
L 685.79091 147.761477 
L 695.134939 142.326891 
L 697.628535 141.209538 
L 702.601029 137.839304 
L 705.039283 135.141293 
L 707.432335 133.076951 
L 709.762645 131.375979 
L 712.015066 129.647471 
L 723.11682 144.614153 
L 724.420833 146.862359 
L 725.526293 148.008811 
L 726.424422 145.396129 
L 727.398315 151.364152 
L 727.445222 154.448411 
L 727.171965 156.012169 
L 724.162805 153.821992 
L 722.312724 166.580678 
L 720.070168 173.643085 
L 717.417112 175.641253 
L 706.928837 160.874022 
L 702.826989 179.347779 
L 698.280422 172.935594 
L 688.64824 171.417246 
L 678.657694 165.1818 
L 668.753005 141.995182 
L 664.746294 151.309692 
L 652.905544 128.90141 
L 651.906286 124.933437 
L 651.711878 116.985365 
L 652.386878 105.118273 
L 661.339364 89.577814 
L 672.502333 75.201809 
L 696.721773 65.555887 
L 716.778231 61.801538 
" style="fill:none;stroke:#4b0082;stroke-linecap:square;stroke-opacity:0.6;stroke-width:2;"/>
   </g>
   <g id="line2d_45">
    <path clip-path="url(#p6f2afb5ffa)" d="M 757.507035 121.867376 
L 777.201445 172.940748 
L 776.247993 182.649404 
L 756.046902 192.950269 
L 749.905339 192.638143 
L 743.388008 192.113069 
L 729.846026 189.116589 
L 716.550934 182.884235 
L 710.298091 179.244006 
L 704.448815 175.982296 
L 694.261254 168.465238 
L 690.035355 164.739549 
L 683.498579 159.541719 
L 679.510931 155.92333 
L 678.424969 154.577393 
L 683.701653 144.03589 
L 685.709416 142.465007 
L 695.087863 137.960509 
L 697.590444 137.224342 
L 702.591538 136.506099 
L 705.047105 136.462112 
L 707.44946 136.679761 
L 709.783438 137.124643 
L 712.03552 137.76261 
L 723.11643 144.749367 
L 724.422708 146.331215 
L 725.526956 147.84606 
L 726.407002 149.259442 
L 727.394154 152.196508 
L 727.449188 153.660101 
L 727.177491 154.88432 
L 724.144209 159.264773 
L 722.327103 160.883244 
L 720.086636 162.047029 
L 717.418464 162.674361 
L 706.948816 164.817297 
L 702.728031 165.514306 
L 698.208084 165.227981 
L 688.531274 163.151651 
L 678.51821 157.856885 
L 668.945601 150.133926 
L 664.591791 145.306783 
L 652.75776 124.165381 
L 651.719027 119.012772 
L 651.591718 113.182901 
L 652.439328 106.804939 
L 661.328095 89.154222 
L 672.610616 80.323168 
L 696.803077 73.985874 
L 716.781303 77.041466 
" style="fill:none;stroke:#ff7f50;stroke-dasharray:7.4,3.2;stroke-dashoffset:0;stroke-width:2;"/>
   </g>
   <g id="text_33">
    <!-- $D=10, \beta=2.1032$ -->
    <g transform="translate(626.4 28.506351)scale(0.192 -0.192)">
     <defs>
      <path d="M 794 531 
L 1825 531 
L 1825 4091 
L 703 3866 
L 703 4441 
L 1819 4666 
L 2450 4666 
L 2450 531 
L 3481 531 
L 3481 0 
L 794 0 
L 794 531 
z
" id="DejaVuSans-31" transform="scale(0.015625)"/>
     </defs>
     <use transform="translate(0 0.390625)" xlink:href="#DejaVuSans-Oblique-44"/>
     <use transform="translate(96.484375 0.390625)" xlink:href="#DejaVuSans-3d"/>
     <use transform="translate(199.755859 0.390625)" xlink:href="#DejaVuSans-31"/>
     <use transform="translate(263.378906 0.390625)" xlink:href="#DejaVuSans-30"/>
     <use transform="translate(327.001953 0.390625)" xlink:href="#DejaVuSans-2c"/>
     <use transform="translate(378.271484 0.390625)" xlink:href="#DejaVuSans-Oblique-3b2"/>
     <use transform="translate(461.572266 0.390625)" xlink:href="#DejaVuSans-3d"/>
     <use transform="translate(564.84375 0.390625)" xlink:href="#DejaVuSans-32"/>
     <use transform="translate(628.466797 0.390625)" xlink:href="#DejaVuSans-2e"/>
     <use transform="translate(660.253906 0.390625)" xlink:href="#DejaVuSans-31"/>
     <use transform="translate(723.876953 0.390625)" xlink:href="#DejaVuSans-30"/>
     <use transform="translate(787.5 0.390625)" xlink:href="#DejaVuSans-33"/>
     <use transform="translate(851.123047 0.390625)" xlink:href="#DejaVuSans-32"/>
    </g>
   </g>
  </g>
  <g id="patch_14">
   <path d="M 39.974714 564.12 
L 259.545286 564.12 
L 259.545286 344.549428 
L 39.974714 344.549428 
z
" style="fill:#ffffff;"/>
  </g>
  <g id="pane3d_10">
   <g id="patch_15">
    <path d="M 56.553806 509.980934 
L 129.06318 449.202139 
L 128.05523 361.548251 
L 52.075909 416.994499 
" style="fill:#f2f2f2;opacity:0.5;stroke:#f2f2f2;stroke-linejoin:miter;"/>
   </g>
  </g>
  <g id="pane3d_11">
   <g id="patch_16">
    <path d="M 129.06318 449.202139 
L 245.414854 483.020977 
L 249.567035 392.347952 
L 128.05523 361.548251 
" style="fill:#e6e6e6;opacity:0.5;stroke:#e6e6e6;stroke-linejoin:miter;"/>
   </g>
  </g>
  <g id="pane3d_12">
   <g id="patch_17">
    <path d="M 56.553806 509.980934 
L 179.892263 550.263273 
L 245.414854 483.020977 
L 129.06318 449.202139 
" style="fill:#ececec;opacity:0.5;stroke:#ececec;stroke-linejoin:miter;"/>
   </g>
  </g>
  <g id="axis3d_10">
   <g id="line2d_46">
    <path d="M 56.553806 509.980934 
L 179.892263 550.263273 
" style="fill:none;stroke:#000000;stroke-linecap:square;stroke-width:0.8;"/>
   </g>
   <g id="Line3DCollection_10">
    <path d="M 85.745657 519.514992 
L 156.694307 457.233416 
L 156.865356 368.850779 
" style="fill:none;stroke:#b0b0b0;stroke-width:0.8;"/>
    <path d="M 117.802044 529.984608 
L 186.970294 466.03345 
L 188.466364 376.860713 
" style="fill:none;stroke:#b0b0b0;stroke-width:0.8;"/>
    <path d="M 150.761945 540.749312 
L 218.027251 475.060482 
L 220.918613 385.086412 
" style="fill:none;stroke:#b0b0b0;stroke-width:0.8;"/>
   </g>
   <g id="xtick_31">
    <g id="line2d_47">
     <path d="M 86.363951 518.972229 
L 84.506391 520.60287 
" style="fill:none;stroke:#000000;stroke-linecap:square;stroke-width:0.8;"/>
    </g>
    <g id="text_34">
     <!-- −2 -->
     <g transform="translate(66.443839 547.57803)scale(0.16 -0.16)">
      <use xlink:href="#DejaVuSerif-2212"/>
      <use x="83.789062" xlink:href="#DejaVuSerif-32"/>
     </g>
    </g>
   </g>
   <g id="xtick_32">
    <g id="line2d_48">
     <path d="M 118.405508 529.42666 
L 116.592463 531.102954 
" style="fill:none;stroke:#000000;stroke-linecap:square;stroke-width:0.8;"/>
    </g>
    <g id="text_35">
     <!-- 0 -->
     <g transform="translate(105.247108 558.318023)scale(0.16 -0.16)">
      <use xlink:href="#DejaVuSerif-30"/>
     </g>
    </g>
   </g>
   <g id="xtick_33">
    <g id="line2d_49">
     <path d="M 151.349494 540.175533 
L 149.584231 541.899424 
" style="fill:none;stroke:#000000;stroke-linecap:square;stroke-width:0.8;"/>
    </g>
    <g id="text_36">
     <!-- 2 -->
     <g transform="translate(138.255592 569.36214)scale(0.16 -0.16)">
      <use xlink:href="#DejaVuSerif-32"/>
     </g>
    </g>
   </g>
  </g>
  <g id="axis3d_11">
   <g id="line2d_50">
    <path d="M 245.414854 483.020977 
L 179.892263 550.263273 
" style="fill:none;stroke:#000000;stroke-linecap:square;stroke-width:0.8;"/>
   </g>
   <g id="Line3DCollection_11">
    <path d="M 58.302238 412.450808 
L 62.4751 505.017588 
L 185.264734 544.749797 
" style="fill:none;stroke:#b0b0b0;stroke-width:0.8;"/>
    <path d="M 78.561293 397.666673 
L 81.767128 488.846628 
L 202.741763 526.814066 
" style="fill:none;stroke:#b0b0b0;stroke-width:0.8;"/>
    <path d="M 97.914251 383.543765 
L 100.232808 473.368328 
L 219.431746 509.686037 
" style="fill:none;stroke:#b0b0b0;stroke-width:0.8;"/>
    <path d="M 116.420573 370.038694 
L 117.924121 458.539119 
L 235.386677 493.312353 
" style="fill:none;stroke:#b0b0b0;stroke-width:0.8;"/>
   </g>
   <g id="xtick_34">
    <g id="line2d_51">
     <path d="M 184.23004 544.414991 
L 187.336795 545.420273 
" style="fill:none;stroke:#000000;stroke-linecap:square;stroke-width:0.8;"/>
    </g>
    <g id="text_37">
     <!-- −2 -->
     <g transform="translate(186.339624 570.316832)scale(0.16 -0.16)">
      <use xlink:href="#DejaVuSerif-2212"/>
      <use x="83.789062" xlink:href="#DejaVuSerif-32"/>
     </g>
    </g>
   </g>
   <g id="xtick_35">
    <g id="line2d_52">
     <path d="M 201.723551 526.494504 
L 204.780756 527.453996 
" style="fill:none;stroke:#000000;stroke-linecap:square;stroke-width:0.8;"/>
    </g>
    <g id="text_38">
     <!-- 0 -->
     <g transform="translate(210.236139 552.059287)scale(0.16 -0.16)">
      <use xlink:href="#DejaVuSerif-30"/>
     </g>
    </g>
   </g>
   <g id="xtick_36">
    <g id="line2d_53">
     <path d="M 218.429598 509.380701 
L 221.438514 510.297462 
" style="fill:none;stroke:#000000;stroke-linecap:square;stroke-width:0.8;"/>
    </g>
    <g id="text_39">
     <!-- 2 -->
     <g transform="translate(226.654123 534.624506)scale(0.16 -0.16)">
      <use xlink:href="#DejaVuSerif-32"/>
     </g>
    </g>
   </g>
   <g id="xtick_37">
    <g id="line2d_54">
     <path d="M 234.40018 493.020314 
L 237.36205 493.897136 
" style="fill:none;stroke:#000000;stroke-linecap:square;stroke-width:0.8;"/>
    </g>
    <g id="text_40">
     <!-- 4 -->
     <g transform="translate(242.348545 517.958099)scale(0.16 -0.16)">
      <use xlink:href="#DejaVuSerif-34"/>
     </g>
    </g>
   </g>
  </g>
  <g id="axis3d_12">
   <g id="line2d_55">
    <path d="M 245.414854 483.020977 
L 249.567035 392.347952 
" style="fill:none;stroke:#000000;stroke-linecap:square;stroke-width:0.8;"/>
   </g>
   <g id="Line3DCollection_12">
    <path d="M 247.380741 440.091017 
L 128.585427 407.655484 
L 54.435588 465.994754 
" style="fill:none;stroke:#b0b0b0;stroke-width:0.8;"/>
    <path d="M 249.358 396.912742 
L 128.105872 365.95221 
L 52.301703 421.683256 
" style="fill:none;stroke:#b0b0b0;stroke-width:0.8;"/>
   </g>
   <g id="xtick_38">
    <g id="line2d_56">
     <path d="M 246.382732 439.818524 
L 249.379183 440.636666 
" style="fill:none;stroke:#000000;stroke-linecap:square;stroke-width:0.8;"/>
    </g>
    <g id="text_41">
     <!-- 0 -->
     <g transform="translate(260.90587 449.749354)scale(0.16 -0.16)">
      <use xlink:href="#DejaVuSerif-30"/>
     </g>
    </g>
   </g>
   <g id="xtick_39">
    <g id="line2d_57">
     <path d="M 248.338335 396.652381 
L 251.399857 397.43411 
" style="fill:none;stroke:#000000;stroke-linecap:square;stroke-width:0.8;"/>
    </g>
    <g id="text_42">
     <!-- 2 -->
     <g transform="translate(263.263032 406.682515)scale(0.16 -0.16)">
      <use xlink:href="#DejaVuSerif-32"/>
     </g>
    </g>
   </g>
  </g>
  <g id="axes_4">
   <g id="line2d_58">
    <path clip-path="url(#p363eb74516)" d="M 192.864149 447.733236 
L 212.717613 490.578021 
L 211.781135 499.711162 
L 191.588457 509.350695 
L 185.412172 510.950779 
L 178.845292 514.406438 
L 165.301071 516.905955 
L 152.065663 484.274074 
L 145.782995 486.540428 
L 139.999204 498.286805 
L 129.665665 475.792459 
L 125.429991 472.90598 
L 118.917406 470.957245 
L 114.921868 467.548025 
L 114.027401 476.411261 
L 119.385503 471.547547 
L 121.384353 470.043194 
L 130.677945 461.969197 
L 133.162968 460.227956 
L 138.14498 458.712179 
L 140.577318 455.694882 
L 142.958842 451.954392 
L 145.282888 448.951606 
L 147.538983 448.710136 
L 158.658832 454.505909 
L 159.976965 454.13901 
L 161.09133 454.464903 
L 161.977945 455.469838 
L 162.977651 457.005649 
L 163.035179 458.050787 
L 162.761269 459.377371 
L 159.702553 465.550895 
L 157.865601 471.062052 
L 155.611381 476.214405 
L 152.938406 480.734801 
L 142.45302 479.208057 
L 138.335496 495.249708 
L 133.787013 489.015344 
L 124.1411 487.007829 
L 114.104279 478.83495 
L 104.172841 455.270899 
L 100.000193 458.479354 
L 87.93148 430.576613 
L 86.870471 424.868488 
L 86.790055 420.512393 
L 87.740826 417.286939 
L 96.809754 405.221524 
L 108.127684 397.692976 
L 132.291028 388.171358 
L 152.299132 383.779868 
" style="fill:none;stroke:#4b0082;stroke-linecap:square;stroke-opacity:0.6;stroke-width:2;"/>
   </g>
   <g id="line2d_59">
    <path clip-path="url(#p363eb74516)" d="M 192.929023 444.40463 
L 212.568896 495.576984 
L 211.762912 500.330615 
L 191.571952 510.199138 
L 185.40246 511.543929 
L 178.875583 512.095397 
L 165.343564 510.180274 
L 152.072204 504.276641 
L 145.830004 500.218548 
L 139.983215 495.763403 
L 129.790315 486.771849 
L 125.561717 482.722101 
L 119.006413 476.317494 
L 115.01317 472.473617 
L 113.932051 471.408004 
L 119.355567 469.719924 
L 121.371924 469.235387 
L 130.717687 465.65535 
L 133.203448 464.463145 
L 138.168008 461.946933 
L 140.606892 460.688192 
L 142.99456 459.468996 
L 145.31676 458.316175 
L 147.560519 457.254225 
L 158.660302 453.997079 
L 159.976864 454.167643 
L 161.090786 454.598388 
L 161.978668 455.30954 
L 162.974479 457.640002 
L 163.028999 459.279335 
L 162.752174 461.233444 
L 159.691712 468.723697 
L 157.864303 471.57623 
L 155.613881 474.454152 
L 152.938772 477.229196 
L 142.474147 483.377997 
L 138.256083 484.148445 
L 133.740199 484.027358 
L 124.052359 480.736817 
L 113.99945 473.329936 
L 104.348416 462.690387 
L 99.954487 456.703522 
L 88.047207 434.285334 
L 87.029047 429.882247 
L 86.961803 425.947352 
L 87.896048 422.278492 
L 96.935939 409.964642 
L 108.146027 398.560521 
L 132.225293 381.355652 
L 152.298574 381.012431 
" style="fill:none;stroke:#32cd32;stroke-dasharray:2.5,4.125;stroke-dashoffset:0;stroke-width:2.5;"/>
   </g>
   <g id="text_43">
    <!-- $\uparrow$ -->
    <g transform="translate(137.952 275.556427)scale(0.192 -0.192)">
     <defs>
      <path d="M 2541 4688 
L 2822 4688 
L 4047 3456 
L 3672 3081 
L 2947 3813 
L 2947 0 
L 2416 0 
L 2416 3813 
L 1684 3081 
L 1309 3456 
L 2541 4688 
z
" id="DejaVuSans-2191" transform="scale(0.015625)"/>
     </defs>
     <use transform="translate(19.482422 0.75)" xlink:href="#DejaVuSans-2191"/>
    </g>
    <!-- $\ell_{Lap}=506690.1251$ -->
    <g transform="translate(57.408 297.056227)scale(0.192 -0.192)">
     <defs>
      <path d="M 950 838 
Q 1078 213 1350 213 
Q 1531 213 1766 572 
L 2181 572 
Q 1994 253 1775 88 
Q 1538 -91 1319 -91 
Q 831 -91 634 344 
L 400 0 
L -88 0 
Q 250 459 500 888 
Q 469 1131 469 1397 
Q 469 1872 566 2347 
Q 931 4131 1256 4497 
Q 1481 4750 1866 4750 
Q 2256 4750 2256 4209 
Q 2253 3966 2197 3675 
Q 1972 2484 950 838 
z
M 947 1656 
Q 1531 2744 1709 3613 
Q 1803 4072 1803 4191 
Q 1803 4406 1725 4406 
Q 1384 4134 1081 2516 
Q 997 2063 947 1656 
z
" id="DejaVuSans-Oblique-2113" transform="scale(0.015625)"/>
      <path d="M 1075 4666 
L 1709 4666 
L 909 525 
L 3181 525 
L 3078 0 
L 172 0 
L 1075 4666 
z
" id="DejaVuSans-Oblique-4c" transform="scale(0.015625)"/>
      <path d="M 3438 1997 
L 3047 0 
L 2472 0 
L 2578 531 
Q 2325 219 2001 64 
Q 1678 -91 1281 -91 
Q 834 -91 548 182 
Q 263 456 263 884 
Q 263 1497 752 1853 
Q 1241 2209 2100 2209 
L 2900 2209 
L 2931 2363 
Q 2938 2388 2941 2417 
Q 2944 2447 2944 2509 
Q 2944 2788 2717 2942 
Q 2491 3097 2081 3097 
Q 1800 3097 1504 3025 
Q 1209 2953 897 2809 
L 997 3341 
Q 1322 3463 1633 3523 
Q 1944 3584 2234 3584 
Q 2853 3584 3176 3315 
Q 3500 3047 3500 2534 
Q 3500 2431 3484 2292 
Q 3469 2153 3438 1997 
z
M 2816 1759 
L 2241 1759 
Q 1534 1759 1195 1570 
Q 856 1381 856 984 
Q 856 709 1029 553 
Q 1203 397 1509 397 
Q 1978 397 2328 733 
Q 2678 1069 2791 1631 
L 2816 1759 
z
" id="DejaVuSans-Oblique-61" transform="scale(0.015625)"/>
      <path d="M 3175 2156 
Q 3175 2616 2975 2859 
Q 2775 3103 2400 3103 
Q 2144 3103 1911 2972 
Q 1678 2841 1497 2591 
Q 1319 2344 1212 1994 
Q 1106 1644 1106 1300 
Q 1106 863 1306 627 
Q 1506 391 1875 391 
Q 2147 391 2380 519 
Q 2613 647 2778 891 
Q 2956 1147 3065 1494 
Q 3175 1841 3175 2156 
z
M 1394 2969 
Q 1625 3272 1939 3428 
Q 2253 3584 2638 3584 
Q 3175 3584 3472 3232 
Q 3769 2881 3769 2247 
Q 3769 1728 3584 1258 
Q 3400 788 3053 416 
Q 2822 169 2531 39 
Q 2241 -91 1919 -91 
Q 1547 -91 1294 64 
Q 1041 219 916 525 
L 556 -1331 
L -19 -1331 
L 922 3500 
L 1497 3500 
L 1394 2969 
z
" id="DejaVuSans-Oblique-70" transform="scale(0.015625)"/>
      <path d="M 691 4666 
L 3169 4666 
L 3169 4134 
L 1269 4134 
L 1269 2991 
Q 1406 3038 1543 3061 
Q 1681 3084 1819 3084 
Q 2600 3084 3056 2656 
Q 3513 2228 3513 1497 
Q 3513 744 3044 326 
Q 2575 -91 1722 -91 
Q 1428 -91 1123 -41 
Q 819 9 494 109 
L 494 744 
Q 775 591 1075 516 
Q 1375 441 1709 441 
Q 2250 441 2565 725 
Q 2881 1009 2881 1497 
Q 2881 1984 2565 2268 
Q 2250 2553 1709 2553 
Q 1456 2553 1204 2497 
Q 953 2441 691 2322 
L 691 4666 
z
" id="DejaVuSans-35" transform="scale(0.015625)"/>
      <path d="M 2113 2584 
Q 1688 2584 1439 2293 
Q 1191 2003 1191 1497 
Q 1191 994 1439 701 
Q 1688 409 2113 409 
Q 2538 409 2786 701 
Q 3034 994 3034 1497 
Q 3034 2003 2786 2293 
Q 2538 2584 2113 2584 
z
M 3366 4563 
L 3366 3988 
Q 3128 4100 2886 4159 
Q 2644 4219 2406 4219 
Q 1781 4219 1451 3797 
Q 1122 3375 1075 2522 
Q 1259 2794 1537 2939 
Q 1816 3084 2150 3084 
Q 2853 3084 3261 2657 
Q 3669 2231 3669 1497 
Q 3669 778 3244 343 
Q 2819 -91 2113 -91 
Q 1303 -91 875 529 
Q 447 1150 447 2328 
Q 447 3434 972 4092 
Q 1497 4750 2381 4750 
Q 2619 4750 2861 4703 
Q 3103 4656 3366 4563 
z
" id="DejaVuSans-36" transform="scale(0.015625)"/>
     </defs>
     <use transform="translate(0 0.78125)" xlink:href="#DejaVuSans-Oblique-2113"/>
     <use transform="translate(41.308594 -15.625)scale(0.7)" xlink:href="#DejaVuSans-Oblique-4c"/>
     <use transform="translate(80.307617 -15.625)scale(0.7)" xlink:href="#DejaVuSans-Oblique-61"/>
     <use transform="translate(123.203125 -15.625)scale(0.7)" xlink:href="#DejaVuSans-Oblique-70"/>
     <use transform="translate(189.853516 0.78125)" xlink:href="#DejaVuSans-3d"/>
     <use transform="translate(293.125 0.78125)" xlink:href="#DejaVuSans-35"/>
     <use transform="translate(356.748047 0.78125)" xlink:href="#DejaVuSans-30"/>
     <use transform="translate(420.371094 0.78125)" xlink:href="#DejaVuSans-36"/>
     <use transform="translate(483.994141 0.78125)" xlink:href="#DejaVuSans-36"/>
     <use transform="translate(547.617188 0.78125)" xlink:href="#DejaVuSans-39"/>
     <use transform="translate(611.240234 0.78125)" xlink:href="#DejaVuSans-30"/>
     <use transform="translate(674.863281 0.78125)" xlink:href="#DejaVuSans-2e"/>
     <use transform="translate(706.650391 0.78125)" xlink:href="#DejaVuSans-31"/>
     <use transform="translate(770.273438 0.78125)" xlink:href="#DejaVuSans-32"/>
     <use transform="translate(833.896484 0.78125)" xlink:href="#DejaVuSans-35"/>
     <use transform="translate(897.519531 0.78125)" xlink:href="#DejaVuSans-31"/>
    </g>
    <!-- $\ell_{Gaus}=16.4798$ -->
    <g transform="translate(76.896 320.515027)scale(0.192 -0.192)">
     <defs>
      <path d="M 3494 697 
L 3738 1919 
L 2700 1919 
L 2797 2438 
L 4453 2438 
L 4050 384 
Q 3634 156 3143 32 
Q 2653 -91 2156 -91 
Q 1278 -91 783 396 
Q 288 884 288 1753 
Q 288 2475 589 3126 
Q 891 3778 1422 4213 
Q 1756 4484 2153 4617 
Q 2550 4750 3034 4750 
Q 3472 4750 3873 4639 
Q 4275 4528 4641 4306 
L 4513 3634 
Q 4231 3928 3853 4083 
Q 3475 4238 3047 4238 
Q 2550 4238 2172 4048 
Q 1794 3859 1497 3463 
Q 1244 3125 1098 2667 
Q 953 2209 953 1734 
Q 953 1081 1287 751 
Q 1622 422 2284 422 
Q 2616 422 2925 492 
Q 3234 563 3494 697 
z
" id="DejaVuSans-Oblique-47" transform="scale(0.015625)"/>
      <path d="M 428 1388 
L 838 3500 
L 1416 3500 
L 1006 1409 
Q 975 1256 961 1147 
Q 947 1038 947 966 
Q 947 700 1109 554 
Q 1272 409 1569 409 
Q 2031 409 2368 721 
Q 2706 1034 2809 1563 
L 3194 3500 
L 3769 3500 
L 3091 0 
L 2516 0 
L 2631 550 
Q 2388 244 2052 76 
Q 1716 -91 1338 -91 
Q 878 -91 622 161 
Q 366 413 366 863 
Q 366 956 381 1097 
Q 397 1238 428 1388 
z
" id="DejaVuSans-Oblique-75" transform="scale(0.015625)"/>
      <path d="M 3200 3397 
L 3091 2853 
Q 2863 2978 2609 3040 
Q 2356 3103 2088 3103 
Q 1634 3103 1373 2948 
Q 1113 2794 1113 2528 
Q 1113 2219 1719 2053 
Q 1766 2041 1788 2034 
L 1972 1978 
Q 2547 1819 2739 1644 
Q 2931 1469 2931 1166 
Q 2931 609 2489 259 
Q 2047 -91 1331 -91 
Q 1053 -91 747 -37 
Q 441 16 72 128 
L 184 722 
Q 500 559 806 475 
Q 1113 391 1394 391 
Q 1816 391 2080 572 
Q 2344 753 2344 1031 
Q 2344 1331 1650 1516 
L 1591 1531 
L 1394 1581 
Q 956 1697 753 1886 
Q 550 2075 550 2369 
Q 550 2928 970 3256 
Q 1391 3584 2113 3584 
Q 2397 3584 2667 3537 
Q 2938 3491 3200 3397 
z
" id="DejaVuSans-Oblique-73" transform="scale(0.015625)"/>
      <path d="M 2419 4116 
L 825 1625 
L 2419 1625 
L 2419 4116 
z
M 2253 4666 
L 3047 4666 
L 3047 1625 
L 3713 1625 
L 3713 1100 
L 3047 1100 
L 3047 0 
L 2419 0 
L 2419 1100 
L 313 1100 
L 313 1709 
L 2253 4666 
z
" id="DejaVuSans-34" transform="scale(0.015625)"/>
     </defs>
     <use transform="translate(0 0.78125)" xlink:href="#DejaVuSans-Oblique-2113"/>
     <use transform="translate(41.308594 -15.625)scale(0.7)" xlink:href="#DejaVuSans-Oblique-47"/>
     <use transform="translate(95.551758 -15.625)scale(0.7)" xlink:href="#DejaVuSans-Oblique-61"/>
     <use transform="translate(138.447266 -15.625)scale(0.7)" xlink:href="#DejaVuSans-Oblique-75"/>
     <use transform="translate(182.8125 -15.625)scale(0.7)" xlink:href="#DejaVuSans-Oblique-73"/>
     <use transform="translate(241.499023 0.78125)" xlink:href="#DejaVuSans-3d"/>
     <use transform="translate(344.770508 0.78125)" xlink:href="#DejaVuSans-31"/>
     <use transform="translate(408.393555 0.78125)" xlink:href="#DejaVuSans-36"/>
     <use transform="translate(472.016602 0.78125)" xlink:href="#DejaVuSans-2e"/>
     <use transform="translate(503.803711 0.78125)" xlink:href="#DejaVuSans-34"/>
     <use transform="translate(567.426758 0.78125)" xlink:href="#DejaVuSans-37"/>
     <use transform="translate(631.049805 0.78125)" xlink:href="#DejaVuSans-39"/>
     <use transform="translate(694.672852 0.78125)" xlink:href="#DejaVuSans-38"/>
    </g>
    <!-- $\downarrow$ -->
    <g transform="translate(137.952 342.014827)scale(0.192 -0.192)">
     <defs>
      <path d="M 2822 -22 
L 2541 -22 
L 1309 1209 
L 1684 1584 
L 2416 853 
L 2416 4666 
L 2947 4666 
L 2947 853 
L 3672 1584 
L 4047 1209 
L 2822 -22 
z
" id="DejaVuSans-2193" transform="scale(0.015625)"/>
     </defs>
     <use transform="translate(19.482422 0.09375)" xlink:href="#DejaVuSans-2193"/>
    </g>
   </g>
  </g>
  <g id="patch_18">
   <path d="M 322.214714 564.12 
L 541.785286 564.12 
L 541.785286 344.549428 
L 322.214714 344.549428 
z
" style="fill:#ffffff;"/>
  </g>
  <g id="pane3d_13">
   <g id="patch_19">
    <path d="M 338.793806 509.980934 
L 411.30318 449.202139 
L 410.29523 361.548251 
L 334.315909 416.994499 
" style="fill:#f2f2f2;opacity:0.5;stroke:#f2f2f2;stroke-linejoin:miter;"/>
   </g>
  </g>
  <g id="pane3d_14">
   <g id="patch_20">
    <path d="M 411.30318 449.202139 
L 527.654854 483.020977 
L 531.807035 392.347952 
L 410.29523 361.548251 
" style="fill:#e6e6e6;opacity:0.5;stroke:#e6e6e6;stroke-linejoin:miter;"/>
   </g>
  </g>
  <g id="pane3d_15">
   <g id="patch_21">
    <path d="M 338.793806 509.980934 
L 462.132263 550.263273 
L 527.654854 483.020977 
L 411.30318 449.202139 
" style="fill:#ececec;opacity:0.5;stroke:#ececec;stroke-linejoin:miter;"/>
   </g>
  </g>
  <g id="axis3d_13">
   <g id="line2d_60">
    <path d="M 338.793806 509.980934 
L 462.132263 550.263273 
" style="fill:none;stroke:#000000;stroke-linecap:square;stroke-width:0.8;"/>
   </g>
   <g id="Line3DCollection_13">
    <path d="M 367.985657 519.514992 
L 438.934307 457.233416 
L 439.105356 368.850779 
" style="fill:none;stroke:#b0b0b0;stroke-width:0.8;"/>
    <path d="M 400.042044 529.984608 
L 469.210294 466.03345 
L 470.706364 376.860713 
" style="fill:none;stroke:#b0b0b0;stroke-width:0.8;"/>
    <path d="M 433.001945 540.749312 
L 500.267251 475.060482 
L 503.158613 385.086412 
" style="fill:none;stroke:#b0b0b0;stroke-width:0.8;"/>
   </g>
   <g id="xtick_40">
    <g id="line2d_61">
     <path d="M 368.603951 518.972229 
L 366.746391 520.60287 
" style="fill:none;stroke:#000000;stroke-linecap:square;stroke-width:0.8;"/>
    </g>
    <g id="text_44">
     <!-- −2 -->
     <g transform="translate(348.683839 547.57803)scale(0.16 -0.16)">
      <use xlink:href="#DejaVuSerif-2212"/>
      <use x="83.789062" xlink:href="#DejaVuSerif-32"/>
     </g>
    </g>
   </g>
   <g id="xtick_41">
    <g id="line2d_62">
     <path d="M 400.645508 529.42666 
L 398.832463 531.102954 
" style="fill:none;stroke:#000000;stroke-linecap:square;stroke-width:0.8;"/>
    </g>
    <g id="text_45">
     <!-- 0 -->
     <g transform="translate(387.487108 558.318023)scale(0.16 -0.16)">
      <use xlink:href="#DejaVuSerif-30"/>
     </g>
    </g>
   </g>
   <g id="xtick_42">
    <g id="line2d_63">
     <path d="M 433.589494 540.175533 
L 431.824231 541.899424 
" style="fill:none;stroke:#000000;stroke-linecap:square;stroke-width:0.8;"/>
    </g>
    <g id="text_46">
     <!-- 2 -->
     <g transform="translate(420.495592 569.36214)scale(0.16 -0.16)">
      <use xlink:href="#DejaVuSerif-32"/>
     </g>
    </g>
   </g>
  </g>
  <g id="axis3d_14">
   <g id="line2d_64">
    <path d="M 527.654854 483.020977 
L 462.132263 550.263273 
" style="fill:none;stroke:#000000;stroke-linecap:square;stroke-width:0.8;"/>
   </g>
   <g id="Line3DCollection_14">
    <path d="M 340.542238 412.450808 
L 344.7151 505.017588 
L 467.504734 544.749797 
" style="fill:none;stroke:#b0b0b0;stroke-width:0.8;"/>
    <path d="M 360.801293 397.666673 
L 364.007128 488.846628 
L 484.981763 526.814066 
" style="fill:none;stroke:#b0b0b0;stroke-width:0.8;"/>
    <path d="M 380.154251 383.543765 
L 382.472808 473.368328 
L 501.671746 509.686037 
" style="fill:none;stroke:#b0b0b0;stroke-width:0.8;"/>
    <path d="M 398.660573 370.038694 
L 400.164121 458.539119 
L 517.626677 493.312353 
" style="fill:none;stroke:#b0b0b0;stroke-width:0.8;"/>
   </g>
   <g id="xtick_43">
    <g id="line2d_65">
     <path d="M 466.47004 544.414991 
L 469.576795 545.420273 
" style="fill:none;stroke:#000000;stroke-linecap:square;stroke-width:0.8;"/>
    </g>
    <g id="text_47">
     <!-- −2 -->
     <g transform="translate(468.579624 570.316832)scale(0.16 -0.16)">
      <use xlink:href="#DejaVuSerif-2212"/>
      <use x="83.789062" xlink:href="#DejaVuSerif-32"/>
     </g>
    </g>
   </g>
   <g id="xtick_44">
    <g id="line2d_66">
     <path d="M 483.963551 526.494504 
L 487.020756 527.453996 
" style="fill:none;stroke:#000000;stroke-linecap:square;stroke-width:0.8;"/>
    </g>
    <g id="text_48">
     <!-- 0 -->
     <g transform="translate(492.476139 552.059287)scale(0.16 -0.16)">
      <use xlink:href="#DejaVuSerif-30"/>
     </g>
    </g>
   </g>
   <g id="xtick_45">
    <g id="line2d_67">
     <path d="M 500.669598 509.380701 
L 503.678514 510.297462 
" style="fill:none;stroke:#000000;stroke-linecap:square;stroke-width:0.8;"/>
    </g>
    <g id="text_49">
     <!-- 2 -->
     <g transform="translate(508.894123 534.624506)scale(0.16 -0.16)">
      <use xlink:href="#DejaVuSerif-32"/>
     </g>
    </g>
   </g>
   <g id="xtick_46">
    <g id="line2d_68">
     <path d="M 516.64018 493.020314 
L 519.60205 493.897136 
" style="fill:none;stroke:#000000;stroke-linecap:square;stroke-width:0.8;"/>
    </g>
    <g id="text_50">
     <!-- 4 -->
     <g transform="translate(524.588545 517.958099)scale(0.16 -0.16)">
      <use xlink:href="#DejaVuSerif-34"/>
     </g>
    </g>
   </g>
  </g>
  <g id="axis3d_15">
   <g id="line2d_69">
    <path d="M 527.654854 483.020977 
L 531.807035 392.347952 
" style="fill:none;stroke:#000000;stroke-linecap:square;stroke-width:0.8;"/>
   </g>
   <g id="Line3DCollection_15">
    <path d="M 529.622396 440.054873 
L 410.825025 407.62054 
L 336.673803 465.957691 
" style="fill:none;stroke:#b0b0b0;stroke-width:0.8;"/>
    <path d="M 531.596545 396.944498 
L 410.346225 365.98285 
L 334.543274 421.715872 
" style="fill:none;stroke:#b0b0b0;stroke-width:0.8;"/>
   </g>
   <g id="xtick_47">
    <g id="line2d_70">
     <path d="M 528.624369 439.782389 
L 531.620875 440.600502 
" style="fill:none;stroke:#000000;stroke-linecap:square;stroke-width:0.8;"/>
    </g>
    <g id="text_51">
     <!-- 0 -->
     <g transform="translate(543.147844 449.7133)scale(0.16 -0.16)">
      <use xlink:href="#DejaVuSerif-30"/>
     </g>
    </g>
   </g>
   <g id="xtick_48">
    <g id="line2d_71">
     <path d="M 530.576897 396.684127 
L 533.638371 397.465884 
" style="fill:none;stroke:#000000;stroke-linecap:square;stroke-width:0.8;"/>
    </g>
    <g id="text_52">
     <!-- 2 -->
     <g transform="translate(545.501298 406.714186)scale(0.16 -0.16)">
      <use xlink:href="#DejaVuSerif-32"/>
     </g>
    </g>
   </g>
  </g>
  <g id="axes_5">
   <g id="line2d_72">
    <path clip-path="url(#p4fe78b2a64)" d="M 475.111391 447.361625 
L 494.953682 490.710167 
L 494.072578 497.962495 
L 473.910315 505.142639 
L 467.713602 507.199143 
L 461.112581 512.324456 
L 447.542474 516.683861 
L 434.305029 482.337105 
L 428.018449 485.21771 
L 422.234864 497.60191 
L 411.906574 475.872499 
L 407.676815 473.41444 
L 401.153566 470.72595 
L 397.152703 467.053592 
L 396.262851 476.172533 
L 401.615269 470.922747 
L 403.608181 468.99213 
L 412.91555 461.747112 
L 415.403604 460.294505 
L 420.376483 457.51855 
L 422.814024 455.138739 
L 425.201629 452.540708 
L 427.527058 450.104452 
L 429.77796 448.304022 
L 440.894958 455.846184 
L 442.210003 456.110566 
L 443.322764 456.567029 
L 444.211734 456.84724 
L 445.207441 459.047595 
L 445.263144 460.443279 
L 444.988914 461.898793 
L 441.938981 466.596272 
L 440.100082 473.248732 
L 437.847961 478.622911 
L 435.178224 482.485397 
L 424.691401 478.888586 
L 420.572561 494.83936 
L 416.024769 488.776247 
L 406.386697 487.403298 
L 396.350659 479.169959 
L 386.432392 456.097106 
L 382.279266 459.997461 
L 370.252856 433.184476 
L 369.202705 427.784679 
L 369.108526 422.995593 
L 370.023316 418.653288 
L 379.068894 405.940943 
L 390.369391 397.773743 
L 414.530665 388.13373 
L 434.539209 384.163015 
" style="fill:none;stroke:#4b0082;stroke-linecap:square;stroke-opacity:0.6;stroke-width:2;"/>
   </g>
   <g id="line2d_73">
    <path clip-path="url(#p4fe78b2a64)" d="M 475.179093 443.888003 
L 494.808896 495.576984 
L 494.00052 500.411927 
L 473.833719 509.080215 
L 467.663782 510.241711 
L 461.133868 510.700379 
L 447.591801 508.876595 
L 434.311896 503.33556 
L 428.067543 499.502658 
L 422.220084 495.269301 
L 412.028706 486.63011 
L 407.801176 482.68181 
L 401.246053 476.295834 
L 397.248732 472.234186 
L 396.164067 470.989097 
L 401.565411 467.878917 
L 403.582173 467.301778 
L 412.93808 463.836809 
L 415.427445 462.788797 
L 420.398943 460.673593 
L 422.840811 459.661518 
L 425.230965 458.712598 
L 427.555067 457.848217 
L 429.800099 457.087456 
L 440.895658 455.604211 
L 442.210347 456.01329 
L 443.322423 456.650817 
L 444.20865 457.531223 
L 445.202347 460.066377 
L 445.256658 461.732512 
L 444.980286 463.659435 
L 441.924784 470.751271 
L 440.09975 473.380226 
L 437.851681 476.003293 
L 435.178639 478.504334 
L 424.716584 483.859144 
L 420.498047 484.423009 
L 415.981313 484.145969 
L 406.292259 480.729694 
L 396.242042 473.466011 
L 386.600565 463.203774 
L 382.214014 457.462207 
L 370.337338 435.891872 
L 369.321517 431.541228 
L 369.252636 427.555945 
L 370.181202 423.73053 
L 379.190156 410.499039 
L 390.385269 398.524709 
L 414.465293 381.355652 
L 434.538667 381.476267 
" style="fill:none;stroke:#32cd32;stroke-dasharray:2.5,4.125;stroke-dashoffset:0;stroke-width:2.5;"/>
   </g>
   <g id="text_53">
    <!-- $\uparrow$ -->
    <g transform="translate(420.192 275.556427)scale(0.192 -0.192)">
     <use transform="translate(19.482422 0.75)" xlink:href="#DejaVuSans-2191"/>
    </g>
    <!-- $\ell_{Lap}=478619.8677$ -->
    <g transform="translate(340.128 297.056227)scale(0.192 -0.192)">
     <use transform="translate(0 0.78125)" xlink:href="#DejaVuSans-Oblique-2113"/>
     <use transform="translate(41.308594 -15.625)scale(0.7)" xlink:href="#DejaVuSans-Oblique-4c"/>
     <use transform="translate(80.307617 -15.625)scale(0.7)" xlink:href="#DejaVuSans-Oblique-61"/>
     <use transform="translate(123.203125 -15.625)scale(0.7)" xlink:href="#DejaVuSans-Oblique-70"/>
     <use transform="translate(189.853516 0.78125)" xlink:href="#DejaVuSans-3d"/>
     <use transform="translate(293.125 0.78125)" xlink:href="#DejaVuSans-34"/>
     <use transform="translate(356.748047 0.78125)" xlink:href="#DejaVuSans-37"/>
     <use transform="translate(420.371094 0.78125)" xlink:href="#DejaVuSans-38"/>
     <use transform="translate(483.994141 0.78125)" xlink:href="#DejaVuSans-36"/>
     <use transform="translate(547.617188 0.78125)" xlink:href="#DejaVuSans-31"/>
     <use transform="translate(611.240234 0.78125)" xlink:href="#DejaVuSans-39"/>
     <use transform="translate(674.863281 0.78125)" xlink:href="#DejaVuSans-2e"/>
     <use transform="translate(704.025391 0.78125)" xlink:href="#DejaVuSans-38"/>
     <use transform="translate(767.648438 0.78125)" xlink:href="#DejaVuSans-36"/>
     <use transform="translate(831.271484 0.78125)" xlink:href="#DejaVuSans-37"/>
     <use transform="translate(893.144531 0.78125)" xlink:href="#DejaVuSans-37"/>
    </g>
    <!-- $\ell_{Gaus}=16.6184$ -->
    <g transform="translate(359.136 320.515027)scale(0.192 -0.192)">
     <use transform="translate(0 0.78125)" xlink:href="#DejaVuSans-Oblique-2113"/>
     <use transform="translate(41.308594 -15.625)scale(0.7)" xlink:href="#DejaVuSans-Oblique-47"/>
     <use transform="translate(95.551758 -15.625)scale(0.7)" xlink:href="#DejaVuSans-Oblique-61"/>
     <use transform="translate(138.447266 -15.625)scale(0.7)" xlink:href="#DejaVuSans-Oblique-75"/>
     <use transform="translate(182.8125 -15.625)scale(0.7)" xlink:href="#DejaVuSans-Oblique-73"/>
     <use transform="translate(241.499023 0.78125)" xlink:href="#DejaVuSans-3d"/>
     <use transform="translate(344.770508 0.78125)" xlink:href="#DejaVuSans-31"/>
     <use transform="translate(408.393555 0.78125)" xlink:href="#DejaVuSans-36"/>
     <use transform="translate(472.016602 0.78125)" xlink:href="#DejaVuSans-2e"/>
     <use transform="translate(503.803711 0.78125)" xlink:href="#DejaVuSans-36"/>
     <use transform="translate(567.426758 0.78125)" xlink:href="#DejaVuSans-31"/>
     <use transform="translate(631.049805 0.78125)" xlink:href="#DejaVuSans-38"/>
     <use transform="translate(694.672852 0.78125)" xlink:href="#DejaVuSans-34"/>
    </g>
    <!-- $\downarrow$ -->
    <g transform="translate(420.192 342.014827)scale(0.192 -0.192)">
     <use transform="translate(19.482422 0.09375)" xlink:href="#DejaVuSans-2193"/>
    </g>
   </g>
  </g>
  <g id="patch_22">
   <path d="M 604.454714 564.12 
L 824.025286 564.12 
L 824.025286 344.549428 
L 604.454714 344.549428 
z
" style="fill:#ffffff;"/>
  </g>
  <g id="pane3d_16">
   <g id="patch_23">
    <path d="M 621.033806 509.980934 
L 693.54318 449.202139 
L 692.53523 361.548251 
L 616.555909 416.994499 
" style="fill:#f2f2f2;opacity:0.5;stroke:#f2f2f2;stroke-linejoin:miter;"/>
   </g>
  </g>
  <g id="pane3d_17">
   <g id="patch_24">
    <path d="M 693.54318 449.202139 
L 809.894854 483.020977 
L 814.047035 392.347952 
L 692.53523 361.548251 
" style="fill:#e6e6e6;opacity:0.5;stroke:#e6e6e6;stroke-linejoin:miter;"/>
   </g>
  </g>
  <g id="pane3d_18">
   <g id="patch_25">
    <path d="M 621.033806 509.980934 
L 744.372263 550.263273 
L 809.894854 483.020977 
L 693.54318 449.202139 
" style="fill:#ececec;opacity:0.5;stroke:#ececec;stroke-linejoin:miter;"/>
   </g>
  </g>
  <g id="axis3d_16">
   <g id="line2d_74">
    <path d="M 621.033806 509.980934 
L 744.372263 550.263273 
" style="fill:none;stroke:#000000;stroke-linecap:square;stroke-width:0.8;"/>
   </g>
   <g id="Line3DCollection_16">
    <path d="M 650.225657 519.514992 
L 721.174307 457.233416 
L 721.345356 368.850779 
" style="fill:none;stroke:#b0b0b0;stroke-width:0.8;"/>
    <path d="M 682.282044 529.984608 
L 751.450294 466.03345 
L 752.946364 376.860713 
" style="fill:none;stroke:#b0b0b0;stroke-width:0.8;"/>
    <path d="M 715.241945 540.749312 
L 782.507251 475.060482 
L 785.398613 385.086412 
" style="fill:none;stroke:#b0b0b0;stroke-width:0.8;"/>
   </g>
   <g id="xtick_49">
    <g id="line2d_75">
     <path d="M 650.843951 518.972229 
L 648.986391 520.60287 
" style="fill:none;stroke:#000000;stroke-linecap:square;stroke-width:0.8;"/>
    </g>
    <g id="text_54">
     <!-- −2 -->
     <g transform="translate(630.923839 547.57803)scale(0.16 -0.16)">
      <use xlink:href="#DejaVuSerif-2212"/>
      <use x="83.789062" xlink:href="#DejaVuSerif-32"/>
     </g>
    </g>
   </g>
   <g id="xtick_50">
    <g id="line2d_76">
     <path d="M 682.885508 529.42666 
L 681.072463 531.102954 
" style="fill:none;stroke:#000000;stroke-linecap:square;stroke-width:0.8;"/>
    </g>
    <g id="text_55">
     <!-- 0 -->
     <g transform="translate(669.727108 558.318023)scale(0.16 -0.16)">
      <use xlink:href="#DejaVuSerif-30"/>
     </g>
    </g>
   </g>
   <g id="xtick_51">
    <g id="line2d_77">
     <path d="M 715.829494 540.175533 
L 714.064231 541.899424 
" style="fill:none;stroke:#000000;stroke-linecap:square;stroke-width:0.8;"/>
    </g>
    <g id="text_56">
     <!-- 2 -->
     <g transform="translate(702.735592 569.36214)scale(0.16 -0.16)">
      <use xlink:href="#DejaVuSerif-32"/>
     </g>
    </g>
   </g>
  </g>
  <g id="axis3d_17">
   <g id="line2d_78">
    <path d="M 809.894854 483.020977 
L 744.372263 550.263273 
" style="fill:none;stroke:#000000;stroke-linecap:square;stroke-width:0.8;"/>
   </g>
   <g id="Line3DCollection_17">
    <path d="M 622.782238 412.450808 
L 626.9551 505.017588 
L 749.744734 544.749797 
" style="fill:none;stroke:#b0b0b0;stroke-width:0.8;"/>
    <path d="M 643.041293 397.666673 
L 646.247128 488.846628 
L 767.221763 526.814066 
" style="fill:none;stroke:#b0b0b0;stroke-width:0.8;"/>
    <path d="M 662.394251 383.543765 
L 664.712808 473.368328 
L 783.911746 509.686037 
" style="fill:none;stroke:#b0b0b0;stroke-width:0.8;"/>
    <path d="M 680.900573 370.038694 
L 682.404121 458.539119 
L 799.866677 493.312353 
" style="fill:none;stroke:#b0b0b0;stroke-width:0.8;"/>
   </g>
   <g id="xtick_52">
    <g id="line2d_79">
     <path d="M 748.71004 544.414991 
L 751.816795 545.420273 
" style="fill:none;stroke:#000000;stroke-linecap:square;stroke-width:0.8;"/>
    </g>
    <g id="text_57">
     <!-- −2 -->
     <g transform="translate(750.819624 570.316832)scale(0.16 -0.16)">
      <use xlink:href="#DejaVuSerif-2212"/>
      <use x="83.789062" xlink:href="#DejaVuSerif-32"/>
     </g>
    </g>
   </g>
   <g id="xtick_53">
    <g id="line2d_80">
     <path d="M 766.203551 526.494504 
L 769.260756 527.453996 
" style="fill:none;stroke:#000000;stroke-linecap:square;stroke-width:0.8;"/>
    </g>
    <g id="text_58">
     <!-- 0 -->
     <g transform="translate(774.716139 552.059287)scale(0.16 -0.16)">
      <use xlink:href="#DejaVuSerif-30"/>
     </g>
    </g>
   </g>
   <g id="xtick_54">
    <g id="line2d_81">
     <path d="M 782.909598 509.380701 
L 785.918514 510.297462 
" style="fill:none;stroke:#000000;stroke-linecap:square;stroke-width:0.8;"/>
    </g>
    <g id="text_59">
     <!-- 2 -->
     <g transform="translate(791.134123 534.624506)scale(0.16 -0.16)">
      <use xlink:href="#DejaVuSerif-32"/>
     </g>
    </g>
   </g>
   <g id="xtick_55">
    <g id="line2d_82">
     <path d="M 798.88018 493.020314 
L 801.84205 493.897136 
" style="fill:none;stroke:#000000;stroke-linecap:square;stroke-width:0.8;"/>
    </g>
    <g id="text_60">
     <!-- 4 -->
     <g transform="translate(806.828545 517.958099)scale(0.16 -0.16)">
      <use xlink:href="#DejaVuSerif-34"/>
     </g>
    </g>
   </g>
  </g>
  <g id="axis3d_18">
   <g id="line2d_83">
    <path d="M 809.894854 483.020977 
L 814.047035 392.347952 
" style="fill:none;stroke:#000000;stroke-linecap:square;stroke-width:0.8;"/>
   </g>
   <g id="Line3DCollection_18">
    <path d="M 811.882755 439.610278 
L 693.060082 407.190706 
L 618.891848 465.50179 
" style="fill:none;stroke:#b0b0b0;stroke-width:0.8;"/>
    <path d="M 813.875177 396.10088 
L 692.576865 365.168884 
L 616.741548 420.849405 
" style="fill:none;stroke:#b0b0b0;stroke-width:0.8;"/>
   </g>
   <g id="xtick_56">
    <g id="line2d_84">
     <path d="M 810.884505 439.337916 
L 813.881681 440.155665 
" style="fill:none;stroke:#000000;stroke-linecap:square;stroke-width:0.8;"/>
    </g>
    <g id="text_61">
     <!-- 0 -->
     <g transform="translate(825.412117 449.269819)scale(0.16 -0.16)">
      <use xlink:href="#DejaVuSerif-30"/>
     </g>
    </g>
   </g>
   <g id="xtick_57">
    <g id="line2d_85">
     <path d="M 812.855105 395.840754 
L 815.917851 396.621778 
" style="fill:none;stroke:#000000;stroke-linecap:square;stroke-width:0.8;"/>
    </g>
    <g id="text_62">
     <!-- 2 -->
     <g transform="translate(827.787349 405.872812)scale(0.16 -0.16)">
      <use xlink:href="#DejaVuSerif-32"/>
     </g>
    </g>
   </g>
  </g>
  <g id="axes_6">
   <g id="line2d_86">
    <path clip-path="url(#p8e82bbe92c)" d="M 757.404691 444.626907 
L 777.23987 489.157626 
L 776.595513 488.344948 
L 756.530912 485.577399 
L 750.23268 490.155319 
L 743.475255 502.965052 
L 729.795944 514.55188 
L 716.541672 472.071241 
L 710.233792 478.04326 
L 704.448972 493.51557 
L 694.142364 475.501669 
L 689.917002 473.428424 
L 683.382568 470.063639 
L 679.334796 463.929631 
L 678.473833 474.649857 
L 683.802539 467.703595 
L 685.765576 463.62344 
L 695.120863 458.529803 
L 697.617063 457.517794 
L 702.595549 454.577987 
L 705.037014 452.266806 
L 707.432012 450.517537 
L 709.763414 449.097089 
L 712.01636 447.669321 
L 723.119655 461.14164 
L 724.424887 463.222722 
L 725.530971 464.369411 
L 726.427151 462.299236 
L 727.403678 467.800141 
L 727.451801 470.649155 
L 727.178447 472.197682 
L 724.16413 470.942784 
L 722.317736 482.10306 
L 720.074123 488.366313 
L 717.417413 490.260597 
L 706.926742 477.969007 
L 702.805981 493.919592 
L 698.261627 488.441486 
L 688.622171 487.083522 
L 678.634699 481.48268 
L 668.791797 461.14293 
L 664.746489 468.825733 
L 652.954034 447.963839 
L 651.957645 444.065748 
L 651.782855 436.739882 
L 652.493426 426.053049 
L 661.448549 411.190416 
L 672.613739 397.979368 
L 696.776417 388.730099 
L 716.77942 385.212463 
" style="fill:none;stroke:#4b0082;stroke-linecap:square;stroke-opacity:0.6;stroke-width:2;"/>
   </g>
   <g id="line2d_87">
    <path clip-path="url(#p8e82bbe92c)" d="M 757.476054 440.965441 
L 777.048896 495.576984 
L 776.218743 501.152158 
L 756.160434 504.622446 
L 749.994981 504.672047 
L 743.456928 504.36333 
L 729.873514 502.27429 
L 716.550152 498.001993 
L 710.292625 495.161872 
L 704.439362 491.998877 
L 694.253021 485.248572 
L 690.030927 481.918047 
L 683.478097 475.816689 
L 679.461003 470.738269 
L 678.358295 468.587303 
L 683.649022 458.331208 
L 685.669128 457.355073 
L 695.080817 454.815454 
L 697.588915 454.572811 
L 702.595677 454.596024 
L 705.052374 454.860168 
L 707.454682 455.286948 
L 709.78791 455.869416 
L 712.038868 456.599166 
L 723.1128 463.513819 
L 724.418644 464.9906 
L 725.522161 466.531203 
L 726.400885 468.124464 
L 727.385567 471.422263 
L 727.439465 473.101403 
L 727.165788 474.781193 
L 724.134475 479.622201 
L 722.32033 481.075116 
L 720.082623 482.381564 
L 717.418119 483.48846 
L 706.962165 484.960707 
L 702.739306 484.59899 
L 698.217141 483.701497 
L 688.523905 480.139377 
L 678.496516 474.226138 
L 668.916462 466.411038 
L 664.571935 462.043801 
L 652.822742 443.756324 
L 651.800928 439.110769 
L 651.705963 434.30666 
L 652.591518 429.207432 
L 661.444325 411.03163 
L 672.59279 396.988564 
L 696.705293 381.355652 
L 716.779157 383.904619 
" style="fill:none;stroke:#32cd32;stroke-dasharray:2.5,4.125;stroke-dashoffset:0;stroke-width:2.5;"/>
   </g>
   <g id="text_63">
    <!-- $\uparrow$ -->
    <g transform="translate(702.432 275.556427)scale(0.192 -0.192)">
     <use transform="translate(19.482422 0.75)" xlink:href="#DejaVuSans-2191"/>
    </g>
    <!-- $\ell_{Lap}=883834.6717$ -->
    <g transform="translate(621.888 297.056227)scale(0.192 -0.192)">
     <use transform="translate(0 0.78125)" xlink:href="#DejaVuSans-Oblique-2113"/>
     <use transform="translate(41.308594 -15.625)scale(0.7)" xlink:href="#DejaVuSans-Oblique-4c"/>
     <use transform="translate(80.307617 -15.625)scale(0.7)" xlink:href="#DejaVuSans-Oblique-61"/>
     <use transform="translate(123.203125 -15.625)scale(0.7)" xlink:href="#DejaVuSans-Oblique-70"/>
     <use transform="translate(189.853516 0.78125)" xlink:href="#DejaVuSans-3d"/>
     <use transform="translate(293.125 0.78125)" xlink:href="#DejaVuSans-38"/>
     <use transform="translate(356.748047 0.78125)" xlink:href="#DejaVuSans-38"/>
     <use transform="translate(420.371094 0.78125)" xlink:href="#DejaVuSans-33"/>
     <use transform="translate(483.994141 0.78125)" xlink:href="#DejaVuSans-38"/>
     <use transform="translate(547.617188 0.78125)" xlink:href="#DejaVuSans-33"/>
     <use transform="translate(611.240234 0.78125)" xlink:href="#DejaVuSans-34"/>
     <use transform="translate(674.863281 0.78125)" xlink:href="#DejaVuSans-2e"/>
     <use transform="translate(706.650391 0.78125)" xlink:href="#DejaVuSans-36"/>
     <use transform="translate(770.273438 0.78125)" xlink:href="#DejaVuSans-37"/>
     <use transform="translate(833.896484 0.78125)" xlink:href="#DejaVuSans-31"/>
     <use transform="translate(897.519531 0.78125)" xlink:href="#DejaVuSans-37"/>
    </g>
    <!-- $\ell_{Gaus}=19.5125$ -->
    <g transform="translate(641.376 320.515027)scale(0.192 -0.192)">
     <use transform="translate(0 0.78125)" xlink:href="#DejaVuSans-Oblique-2113"/>
     <use transform="translate(41.308594 -15.625)scale(0.7)" xlink:href="#DejaVuSans-Oblique-47"/>
     <use transform="translate(95.551758 -15.625)scale(0.7)" xlink:href="#DejaVuSans-Oblique-61"/>
     <use transform="translate(138.447266 -15.625)scale(0.7)" xlink:href="#DejaVuSans-Oblique-75"/>
     <use transform="translate(182.8125 -15.625)scale(0.7)" xlink:href="#DejaVuSans-Oblique-73"/>
     <use transform="translate(241.499023 0.78125)" xlink:href="#DejaVuSans-3d"/>
     <use transform="translate(344.770508 0.78125)" xlink:href="#DejaVuSans-31"/>
     <use transform="translate(408.393555 0.78125)" xlink:href="#DejaVuSans-39"/>
     <use transform="translate(472.016602 0.78125)" xlink:href="#DejaVuSans-2e"/>
     <use transform="translate(503.803711 0.78125)" xlink:href="#DejaVuSans-35"/>
     <use transform="translate(567.426758 0.78125)" xlink:href="#DejaVuSans-31"/>
     <use transform="translate(631.049805 0.78125)" xlink:href="#DejaVuSans-32"/>
     <use transform="translate(694.672852 0.78125)" xlink:href="#DejaVuSans-35"/>
    </g>
    <!-- $\downarrow$ -->
    <g transform="translate(702.432 342.014827)scale(0.192 -0.192)">
     <use transform="translate(19.482422 0.09375)" xlink:href="#DejaVuSans-2193"/>
    </g>
   </g>
  </g>
  <g id="legend_1">
   <g id="patch_26">
    <path d="M 275.665 604 
L 588.335 604 
Q 591.535 604 591.535 600.8 
L 591.535 578.915 
Q 591.535 575.715 588.335 575.715 
L 275.665 575.715 
Q 272.465 575.715 272.465 578.915 
L 272.465 600.8 
Q 272.465 604 275.665 604 
z
" style="fill:#ffffff;opacity:0.8;stroke:#cccccc;stroke-linejoin:miter;"/>
   </g>
   <g id="line2d_88">
    <path d="M 278.865 588.6725 
L 310.865 588.6725 
" style="fill:none;stroke:#4b0082;stroke-linecap:square;stroke-opacity:0.6;stroke-width:2;"/>
   </g>
   <g id="line2d_89"/>
   <g id="text_64">
    <!-- NTK -->
    <g transform="translate(323.665 594.2725)scale(0.16 -0.16)">
     <defs>
      <path d="M 313 0 
L 313 331 
L 941 331 
L 941 4331 
L 313 4331 
L 313 4666 
L 1509 4666 
L 4306 984 
L 4306 4331 
L 3681 4331 
L 3681 4666 
L 5319 4666 
L 5319 4331 
L 4691 4331 
L 4691 -91 
L 4313 -91 
L 1325 3841 
L 1325 331 
L 1953 331 
L 1953 0 
L 313 0 
z
" id="DejaVuSerif-4e" transform="scale(0.015625)"/>
      <path d="M 1222 0 
L 1222 331 
L 1819 331 
L 1819 4294 
L 447 4294 
L 447 3566 
L 63 3566 
L 63 4666 
L 4206 4666 
L 4206 3566 
L 3822 3566 
L 3822 4294 
L 2450 4294 
L 2450 331 
L 3047 331 
L 3047 0 
L 1222 0 
z
" id="DejaVuSerif-54" transform="scale(0.015625)"/>
      <path d="M 353 0 
L 353 331 
L 947 331 
L 947 4331 
L 353 4331 
L 353 4666 
L 2175 4666 
L 2175 4331 
L 1581 4331 
L 1581 2566 
L 3591 4331 
L 3084 4331 
L 3084 4666 
L 4634 4666 
L 4634 4331 
L 4109 4331 
L 2106 2572 
L 4347 331 
L 4878 331 
L 4878 0 
L 3794 0 
L 1581 2216 
L 1581 331 
L 2175 331 
L 2175 0 
L 353 0 
z
" id="DejaVuSerif-4b" transform="scale(0.015625)"/>
     </defs>
     <use xlink:href="#DejaVuSerif-4e"/>
     <use x="87.5" xlink:href="#DejaVuSerif-54"/>
     <use x="154.199219" xlink:href="#DejaVuSerif-4b"/>
    </g>
   </g>
   <g id="line2d_90">
    <path d="M 392.29 588.6725 
L 424.29 588.6725 
" style="fill:none;stroke:#ff7f50;stroke-dasharray:7.4,3.2;stroke-dashoffset:0;stroke-width:2;"/>
   </g>
   <g id="line2d_91"/>
   <g id="text_65">
    <!-- Lap -->
    <g transform="translate(437.09 594.2725)scale(0.16 -0.16)">
     <defs>
      <path d="M 353 0 
L 353 331 
L 947 331 
L 947 4331 
L 353 4331 
L 353 4666 
L 2175 4666 
L 2175 4331 
L 1581 4331 
L 1581 384 
L 3713 384 
L 3713 1166 
L 4097 1166 
L 4097 0 
L 353 0 
z
" id="DejaVuSerif-4c" transform="scale(0.015625)"/>
      <path d="M 2547 1044 
L 2547 1747 
L 1806 1747 
Q 1378 1747 1168 1562 
Q 959 1378 959 997 
Q 959 650 1171 447 
Q 1384 244 1747 244 
Q 2106 244 2326 466 
Q 2547 688 2547 1044 
z
M 3122 2075 
L 3122 331 
L 3634 331 
L 3634 0 
L 2547 0 
L 2547 359 
Q 2356 128 2106 18 
Q 1856 -91 1522 -91 
Q 969 -91 644 203 
Q 319 497 319 997 
Q 319 1513 691 1797 
Q 1063 2081 1741 2081 
L 2547 2081 
L 2547 2309 
Q 2547 2688 2317 2895 
Q 2088 3103 1672 3103 
Q 1328 3103 1125 2947 
Q 922 2791 872 2484 
L 575 2484 
L 575 3156 
Q 875 3284 1158 3348 
Q 1441 3413 1709 3413 
Q 2400 3413 2761 3070 
Q 3122 2728 3122 2075 
z
" id="DejaVuSerif-61" transform="scale(0.015625)"/>
      <path d="M 1313 1825 
L 1313 1497 
Q 1313 897 1542 583 
Q 1772 269 2209 269 
Q 2650 269 2876 622 
Q 3103 975 3103 1663 
Q 3103 2353 2876 2703 
Q 2650 3053 2209 3053 
Q 1772 3053 1542 2737 
Q 1313 2422 1313 1825 
z
M 738 2988 
L 184 2988 
L 184 3322 
L 1313 3322 
L 1313 2803 
Q 1481 3116 1742 3264 
Q 2003 3413 2388 3413 
Q 3000 3413 3387 2928 
Q 3775 2444 3775 1663 
Q 3775 881 3387 395 
Q 3000 -91 2388 -91 
Q 2003 -91 1742 57 
Q 1481 206 1313 519 
L 1313 -997 
L 1856 -997 
L 1856 -1331 
L 184 -1331 
L 184 -997 
L 738 -997 
L 738 2988 
z
" id="DejaVuSerif-70" transform="scale(0.015625)"/>
     </defs>
     <use xlink:href="#DejaVuSerif-4c"/>
     <use x="66.40625" xlink:href="#DejaVuSerif-61"/>
     <use x="126.025391" xlink:href="#DejaVuSerif-70"/>
    </g>
   </g>
   <g id="line2d_92">
    <path d="M 499.4975 588.6725 
L 531.4975 588.6725 
" style="fill:none;stroke:#32cd32;stroke-dasharray:2.5,4.125;stroke-dashoffset:0;stroke-width:2.5;"/>
   </g>
   <g id="line2d_93"/>
   <g id="text_66">
    <!-- Gaus -->
    <g transform="translate(544.2975 594.2725)scale(0.16 -0.16)">
     <defs>
      <path d="M 4097 3272 
Q 3988 3856 3641 4136 
Q 3294 4416 2675 4416 
Q 1869 4416 1472 3897 
Q 1075 3378 1075 2328 
Q 1075 1300 1484 772 
Q 1894 244 2688 244 
Q 3041 244 3362 331 
Q 3684 419 3975 594 
L 3975 1797 
L 3097 1797 
L 3097 2131 
L 4609 2131 
L 4609 391 
Q 4194 150 3714 29 
Q 3234 -91 2688 -91 
Q 1631 -91 995 570 
Q 359 1231 359 2328 
Q 359 3434 996 4092 
Q 1634 4750 2713 4750 
Q 3113 4750 3539 4658 
Q 3966 4566 4447 4378 
L 4447 3272 
L 4097 3272 
z
" id="DejaVuSerif-47" transform="scale(0.015625)"/>
      <path d="M 2266 3322 
L 3341 3322 
L 3341 331 
L 3884 331 
L 3884 0 
L 2766 0 
L 2766 588 
Q 2606 256 2353 82 
Q 2100 -91 1766 -91 
Q 1213 -91 952 223 
Q 691 538 691 1209 
L 691 2988 
L 172 2988 
L 172 3322 
L 1269 3322 
L 1269 1388 
Q 1269 781 1417 556 
Q 1566 331 1947 331 
Q 2347 331 2556 625 
Q 2766 919 2766 1478 
L 2766 2988 
L 2266 2988 
L 2266 3322 
z
" id="DejaVuSerif-75" transform="scale(0.015625)"/>
      <path d="M 359 184 
L 359 959 
L 691 959 
Q 703 588 923 403 
Q 1144 219 1575 219 
Q 1963 219 2166 364 
Q 2369 509 2369 788 
Q 2369 1006 2220 1140 
Q 2072 1275 1594 1428 
L 1178 1569 
Q 750 1706 558 1912 
Q 366 2119 366 2438 
Q 366 2894 700 3153 
Q 1034 3413 1625 3413 
Q 1888 3413 2178 3344 
Q 2469 3275 2778 3144 
L 2778 2419 
L 2447 2419 
Q 2434 2741 2221 2922 
Q 2009 3103 1644 3103 
Q 1281 3103 1095 2975 
Q 909 2847 909 2591 
Q 909 2381 1050 2254 
Q 1191 2128 1613 1997 
L 2069 1856 
Q 2541 1709 2748 1489 
Q 2956 1269 2956 922 
Q 2956 450 2595 179 
Q 2234 -91 1600 -91 
Q 1278 -91 972 -22 
Q 666 47 359 184 
z
" id="DejaVuSerif-73" transform="scale(0.015625)"/>
     </defs>
     <use xlink:href="#DejaVuSerif-47"/>
     <use x="79.882812" xlink:href="#DejaVuSerif-61"/>
     <use x="139.501953" xlink:href="#DejaVuSerif-75"/>
     <use x="203.90625" xlink:href="#DejaVuSerif-73"/>
    </g>
   </g>
  </g>
 </g>
 <defs>
  <clipPath id="p0f992a27a3">
   <rect height="219.570572" width="219.570572" x="39.974714" y="27.040952"/>
  </clipPath>
  <clipPath id="p0454ddcc6d">
   <rect height="219.570572" width="219.570572" x="322.214714" y="27.040952"/>
  </clipPath>
  <clipPath id="p6f2afb5ffa">
   <rect height="219.570572" width="219.570572" x="604.454714" y="27.040952"/>
  </clipPath>
  <clipPath id="p363eb74516">
   <rect height="219.570572" width="219.570572" x="39.974714" y="344.549428"/>
  </clipPath>
  <clipPath id="p4fe78b2a64">
   <rect height="219.570572" width="219.570572" x="322.214714" y="344.549428"/>
  </clipPath>
  <clipPath id="p8e82bbe92c">
   <rect height="219.570572" width="219.570572" x="604.454714" y="344.549428"/>
  </clipPath>
 </defs>
</svg>
